999
dxfrw 0.6.3
  0
SECTION
  2
HEADER
  9
$ACADVER
  1
AC1021
  9
$DWGCODEPAGE
  3
ANSI_1252
  9
$INSBASE
 10
0
 20
0
 30
0
  9
$EXTMIN
 10
-103.125
 20
-51.25
 30
0
  9
$EXTMAX
 10
104.0833341047642
 20
63.125
 30
0
  9
$LIMMIN
 10
0
 20
0
  9
$LIMMAX
 10
420
 20
297
  9
$ORTHOMODE
 70
    0
  9
$REGENMODE
 70
    1
  9
$FILLMODE
 70
    1
  9
$QTEXTMODE
 70
    0
  9
$MIRRTEXT
 70
    0
  9
$LTSCALE
 40
1
  9
$ATTMODE
 70
    0
  9
$TEXTSIZE
 40
2.5
  9
$TRACEWID
 40
15.68
  9
$TEXTSTYLE
  7
STANDARD
  9
$CLAYER
  8
Dimensions_outline
  9
$CELTYPE
  6
BYLAYER
  9
$CECOLOR
 62
  256
  9
$CELTSCALE
 40
1
  9
$DISPSILH
 70
    0
  9
$DIMSCALE
 40
1
  9
$DIMASZ
 40
2.5
  9
$DIMEXO
 40
0.625
  9
$DIMDLI
 40
3.75
  9
$DIMRND
 40
0
  9
$DIMDLE
 40
0
  9
$DIMEXE
 40
1.25
  9
$DIMTP
 40
0
  9
$DIMTM
 40
0
  9
$DIMTXT
 40
2.5
  9
$DIMCEN
 40
2.5
  9
$DIMTSZ
 40
0
  9
$DIMTOL
 70
    0
  9
$DIMLIM
 70
    0
  9
$DIMTIH
 70
    0
  9
$DIMTOH
 70
    0
  9
$DIMSE1
 70
    0
  9
$DIMSE2
 70
    0
  9
$DIMTAD
 70
    1
  9
$DIMZIN
 70
    1
  9
$DIMBLK
  1

  9
$DIMASO
 70
    1
  9
$DIMSHO
 70
    1
  9
$DIMPOST
  1

  9
$DIMAPOST
  1

  9
$DIMALT
 70
    0
  9
$DIMALTD
 70
    3
  9
$DIMALTF
 40
0.03937
  9
$DIMLFAC
 40
1
  9
$DIMTOFL
 70
    1
  9
$DIMTVP
 40
0
  9
$DIMTIX
 70
    0
  9
$DIMSOXD
 70
    0
  9
$DIMSAH
 70
    0
  9
$DIMBLK1
  1

  9
$DIMBLK2
  1

  9
$DIMSTYLE
  2
Standard
  9
$DIMCLRD
 70
    0
  9
$DIMCLRE
 70
    0
  9
$DIMCLRT
 70
    0
  9
$DIMTFAC
 40
1
  9
$DIMGAP
 40
0.625
  9
$DIMJUST
 70
    0
  9
$DIMSD1
 70
    0
  9
$DIMSD2
 70
    0
  9
$DIMTOLJ
 70
    0
  9
$DIMTZIN
 70
    8
  9
$DIMALTZ
 70
    0
  9
$DIMALTTZ
 70
    0
  9
$DIMUPT
 70
    0
  9
$DIMDEC
 70
    2
  9
$DIMTDEC
 70
    2
  9
$DIMALTU
 70
    2
  9
$DIMALTTD
 70
    3
  9
$DIMTXSTY
  7
standard
  9
$DIMAUNIT
 70
    0
  9
$DIMADEC
 70
    2
  9
$DIMALTRND
 40
0
  9
$DIMAZIN
 70
    0
  9
$DIMDSEP
 70
    0
  9
$DIMATFIT
 70
    3
  9
$DIMFRAC
 70
    0
  9
$DIMLDRBLK
  1
STANDARD
  9
$DIMLUNIT
 70
    2
  9
$DIMLWD
 70
   -2
  9
$DIMLWE
 70
   -2
  9
$DIMTMOVE
 70
    0
  9
$DIMFXL
 40
1
  9
$DIMFXLON
 70
    0
  9
$DIMJOGANG
 40
0.7854
  9
$DIMTFILL
 70
    0
  9
$DIMTFILLCLR
 70
    0
  9
$DIMARCSYM
 70
    0
  9
$DIMLTYPE
  6

  9
$DIMLTEX1
  6

  9
$DIMLTEX2
  6

  9
$LUNITS
 70
    2
  9
$LUPREC
 70
    2
  9
$SKETCHINC
 40
1
  9
$FILLETRAD
 40
0
  9
$AUNITS
 70
    0
  9
$AUPREC
 70
    2
  9
$MENU
  1
.
  9
$ELEVATION
 40
0
  9
$PELEVATION
 40
0
  9
$THICKNESS
 40
0
  9
$LIMCHECK
 70
    0
  9
$CHAMFERA
 40
0
  9
$CHAMFERB
 40
0
  9
$CHAMFERC
 40
0
  9
$CHAMFERD
 40
0
  9
$SKPOLY
 70
    0
  9
$USRTIMER
 70
    1
  9
$ANGBASE
 50
0
  9
$ANGDIR
 70
    1
  9
$PDMODE
 70
   34
  9
$PDSIZE
 40
0
  9
$PLINEWID
 40
0
  9
$SPLFRAME
 70
    0
  9
$SPLINETYPE
 70
    2
  9
$SPLINESEGS
 70
    8
  9
$HANDSEED
  5
20000
  9
$SURFTAB1
 70
    6
  9
$SURFTAB2
 70
    6
  9
$SURFTYPE
 70
    6
  9
$SURFU
 70
    6
  9
$SURFV
 70
    6
  9
$UCSBASE
  2

  9
$UCSNAME
  2

  9
$UCSORG
 10
0
 20
0
 30
0
  9
$UCSXDIR
 10
1
 20
0
 30
0
  9
$UCSYDIR
 10
0
 20
1
 30
0
  9
$UCSORTHOREF
  2

  9
$UCSORTHOVIEW
 70
    0
  9
$UCSORGTOP
 10
0
 20
0
 30
0
  9
$UCSORGBOTTOM
 10
0
 20
0
 30
0
  9
$UCSORGLEFT
 10
0
 20
0
 30
0
  9
$UCSORGRIGHT
 10
0
 20
0
 30
0
  9
$UCSORGFRONT
 10
0
 20
0
 30
0
  9
$UCSORGBACK
 10
0
 20
0
 30
0
  9
$PUCSBASE
  2

  9
$PUCSNAME
  2

  9
$PUCSORG
 10
0
 20
0
 30
0
  9
$PUCSXDIR
 10
1
 20
0
 30
0
  9
$PUCSYDIR
 10
0
 20
1
 30
0
  9
$PUCSORTHOREF
  2

  9
$PUCSORTHOVIEW
 70
    0
  9
$PUCSORGTOP
 10
0
 20
0
 30
0
  9
$PUCSORGBOTTOM
 10
0
 20
0
 30
0
  9
$PUCSORGLEFT
 10
0
 20
0
 30
0
  9
$PUCSORGRIGHT
 10
0
 20
0
 30
0
  9
$PUCSORGFRONT
 10
0
 20
0
 30
0
  9
$PUCSORGBACK
 10
0
 20
0
 30
0
  9
$USERI1
 70
    0
  9
$USERI2
 70
    0
  9
$USERI3
 70
    0
  9
$USERI4
 70
    0
  9
$USERI5
 70
    0
  9
$USERR1
 40
0
  9
$USERR2
 40
0
  9
$USERR3
 40
0
  9
$USERR4
 40
0
  9
$USERR5
 40
0
  9
$WORLDVIEW
 70
    1
  9
$SHADEDGE
 70
    3
  9
$SHADEDIF
 70
   70
  9
$TILEMODE
 70
    1
  9
$MAXACTVP
 70
   64
  9
$PINSBASE
 10
177.1767538145363
 20
97.79891417431458
 30
0
  9
$PLIMCHECK
 70
    0
  9
$PEXTMIN
 10
0
 20
0
 30
0
  9
$PEXTMAX
 10
0
 20
0
 30
0
  9
$GRIDMODE
 70
    1
  9
$SNAPSTYLE
 70
    0
  9
$GRIDUNIT
 10
0.01
 20
0.01
  9
$PLIMMIN
 10
0
 20
0
  9
$PLIMMAX
 10
356
 20
216
  9
$UNITMODE
 70
    0
  9
$VISRETAIN
 70
    1
  9
$PLINEGEN
 70
    0
  9
$PSLTSCALE
 70
    1
  9
$TREEDEPTH
 70
 3020
  9
$CMLSTYLE
  2
Standard
  9
$CMLJUST
 70
    0
  9
$CMLSCALE
 40
20
  9
$PROXYGRAPHICS
 70
    1
  9
$MEASUREMENT
 70
    1
  9
$CELWEIGHT
370
   -1
  9
$ENDCAPS
280
    0
  9
$JOINSTYLE
280
    0
  9
$LWDISPLAY
290
    0
  9
$INSUNITS
 70
    4
  9
$HYPERLINKBASE
  1

  9
$STYLESHEET
  1

  9
$XEDIT
290
    1
  9
$CEPSNTYPE
380
    0
  9
$PSTYLEMODE
290
    1
  9
$EXTNAMES
290
    1
  9
$PSVPSCALE
 40
1.718077612747019
  9
$OLESTARTUP
290
    0
  9
$SORTENTS
280
  127
  9
$INDEXCTL
280
    0
  9
$HIDETEXT
280
    1
  9
$XCLIPFRAME
290
    0
  9
$HALOGAP
280
    0
  9
$OBSCOLOR
 70
  257
  9
$OBSLTYPE
280
    0
  9
$INTERSECTIONDISPLAY
280
    0
  9
$INTERSECTIONCOLOR
 70
  257
  9
$DIMASSOC
280
    1
  9
$PROJECTNAME
  1
CORS_Rear_Panel
  9
$CAMERADISPLAY
290
    0
  9
$LENSLENGTH
 40
50
  9
$CAMERAHEIGHT
 40
0
  9
$STEPSPERSEC
 40
2
  9
$STEPSIZE
 40
50
  9
$3DDWFPREC
 40
2
  9
$PSOLWIDTH
 40
5
  9
$PSOLHEIGHT
 40
80
  9
$LOFTANG1
 40
1.570796326794897
  9
$LOFTANG2
 40
1.570796326794897
  9
$LOFTMAG1
 40
0
  9
$LOFTMAG2
 40
0
  9
$LOFTPARAM
 70
    7
  9
$LOFTNORMALS
280
    1
  9
$LATITUDE
 40
1
  9
$LONGITUDE
 40
1
  9
$NORTHDIRECTION
 40
0
  9
$TIMEZONE
 70
-8000
  9
$LIGHTGLYPHDISPLAY
280
    1
  9
$TILEMODELIGHTSYNCH
280
    1
  9
$SOLIDHIST
280
    1
  9
$SHOWHIST
280
    1
  9
$DWFFRAME
280
    2
  9
$DGNFRAME
280
    0
  9
$REALWORLDSCALE
290
    1
  9
$INTERFERECOLOR
 62
    1
  9
$CSHADOW
280
    0
  9
$SHADOWPLANELOCATION
 40
0
  0
ENDSEC
  0
SECTION
  2
CLASSES
  0
ENDSEC
  0
SECTION
  2
TABLES
  0
TABLE
  2
VPORT
  5
8
330
0
100
AcDbSymbolTable
 70
    1
  0
VPORT
  5
31
330
2
100
AcDbSymbolTableRecord
100
AcDbViewportTableRecord
  2
*ACTIVE
 70
    0
 10
0
 20
0
 11
1
 21
1
 12
54.45452508960574
 22
32.38575268817205
 13
0
 23
0
 14
10
 24
10
 15
0.01
 25
0.01
 16
0
 26
0
 36
1
 17
0
 27
0
 37
0
 40
117.3812724014337
 41
1.846332945285215
 42
50
 43
0
 44
0
 50
0
 51
0
 71
    0
 72
  100
 73
    1
 74
    3
 75
    0
 76
    1
 77
    0
 78
    0
281
    0
 65
    1
110
0
120
0
130
0
111
1
121
0
131
0
112
0
122
1
132
0
 79
    0
146
0
348
10020
 60
    3
 61
    5
292
1
282
    1
141
0
142
0
 63
  250
421
3358443
  0
ENDTAB
  0
TABLE
  2
LTYPE
  5
5
330
0
100
AcDbSymbolTable
 70
    4
  0
LTYPE
  5
14
330
5
100
AcDbSymbolTableRecord
100
AcDbLinetypeTableRecord
  2
ByBlock
 70
    0
  3

 72
   65
 73
    0
 40
0
  0
LTYPE
  5
15
330
5
100
AcDbSymbolTableRecord
100
AcDbLinetypeTableRecord
  2
ByLayer
 70
    0
  3

 72
   65
 73
    0
 40
0
  0
LTYPE
  5
16
330
5
100
AcDbSymbolTableRecord
100
AcDbLinetypeTableRecord
  2
Continuous
 70
    0
  3
Solid line
 72
   65
 73
    0
 40
0
  0
LTYPE
  5
32
330
5
100
AcDbSymbolTableRecord
100
AcDbLinetypeTableRecord
  2
DOT
 70
    0
  3
Dot . . . . . . . . . . . . . . . . . . . . . .
 72
   65
 73
    2
 40
6.35
 49
0
 74
    0
 49
-6.35
 74
    0
  0
LTYPE
  5
33
330
5
100
AcDbSymbolTableRecord
100
AcDbLinetypeTableRecord
  2
DOTTINY
 70
    0
  3
Dot (.15x) .....................................
 72
   65
 73
    2
 40
0.9525
 49
0
 74
    0
 49
-0.9525
 74
    0
  0
LTYPE
  5
34
330
5
100
AcDbSymbolTableRecord
100
AcDbLinetypeTableRecord
  2
DOT2
 70
    0
  3
Dot (.5x) .....................................
 72
   65
 73
    2
 40
3.175
 49
0
 74
    0
 49
-3.175
 74
    0
  0
LTYPE
  5
35
330
5
100
AcDbSymbolTableRecord
100
AcDbLinetypeTableRecord
  2
DOTX2
 70
    0
  3
Dot (2x) .  .  .  .  .  .  .  .  .  .  .  .  .
 72
   65
 73
    2
 40
12.7
 49
0
 74
    0
 49
-12.7
 74
    0
  0
LTYPE
  5
36
330
5
100
AcDbSymbolTableRecord
100
AcDbLinetypeTableRecord
  2
DASHED
 70
    0
  3
Dashed _ _ _ _ _ _ _ _ _ _ _ _ _ _ _ _ _
 72
   65
 73
    2
 40
19.05
 49
12.7
 74
    0
 49
-6.35
 74
    0
  0
LTYPE
  5
37
330
5
100
AcDbSymbolTableRecord
100
AcDbLinetypeTableRecord
  2
DASHEDTINY
 70
    0
  3
Dashed (.15x) _ _ _ _ _ _ _ _ _ _ _ _ _ _ _ _ _
 72
   65
 73
    2
 40
2.8575
 49
1.905
 74
    0
 49
-0.9525
 74
    0
  0
LTYPE
  5
38
330
5
100
AcDbSymbolTableRecord
100
AcDbLinetypeTableRecord
  2
DASHED2
 70
    0
  3
Dashed (.5x) _ _ _ _ _ _ _ _ _ _ _ _ _ _ _ _ _
 72
   65
 73
    2
 40
9.524999999999999
 49
6.35
 74
    0
 49
-3.175
 74
    0
  0
LTYPE
  5
39
330
5
100
AcDbSymbolTableRecord
100
AcDbLinetypeTableRecord
  2
DASHEDX2
 70
    0
  3
Dashed (2x) ____  ____  ____  ____  ____  ___
 72
   65
 73
    2
 40
38.09999999999999
 49
25.4
 74
    0
 49
-12.7
 74
    0
  0
LTYPE
  5
3A
330
5
100
AcDbSymbolTableRecord
100
AcDbLinetypeTableRecord
  2
DASHDOT
 70
    0
  3
Dash dot __ . __ . __ . __ . __ . __ . __ . __
 72
   65
 73
    4
 40
25.4
 49
12.7
 74
    0
 49
-6.35
 74
    0
 49
0
 74
    0
 49
-6.35
 74
    0
  0
LTYPE
  5
3B
330
5
100
AcDbSymbolTableRecord
100
AcDbLinetypeTableRecord
  2
DASHDOTTINY
 70
    0
  3
Dash dot (.15x) _._._._._._._._._._._._._._._.
 72
   65
 73
    4
 40
3.81
 49
1.905
 74
    0
 49
-0.9525
 74
    0
 49
0
 74
    0
 49
-0.9525
 74
    0
  0
LTYPE
  5
3C
330
5
100
AcDbSymbolTableRecord
100
AcDbLinetypeTableRecord
  2
DASHDOT2
 70
    0
  3
Dash dot (.5x) _._._._._._._._._._._._._._._.
 72
   65
 73
    4
 40
12.7
 49
6.35
 74
    0
 49
-3.175
 74
    0
 49
0
 74
    0
 49
-3.175
 74
    0
  0
LTYPE
  5
3D
330
5
100
AcDbSymbolTableRecord
100
AcDbLinetypeTableRecord
  2
DASHDOTX2
 70
    0
  3
Dash dot (2x) ____  .  ____  .  ____  .  ___
 72
   65
 73
    4
 40
50.8
 49
25.4
 74
    0
 49
-12.7
 74
    0
 49
0
 74
    0
 49
-12.7
 74
    0
  0
LTYPE
  5
3E
330
5
100
AcDbSymbolTableRecord
100
AcDbLinetypeTableRecord
  2
DIVIDE
 70
    0
  3
Divide ____ . . ____ . . ____ . . ____ . . ____
 72
   65
 73
    6
 40
31.75
 49
12.7
 74
    0
 49
-6.35
 74
    0
 49
0
 74
    0
 49
-6.35
 74
    0
 49
0
 74
    0
 49
-6.35
 74
    0
  0
LTYPE
  5
3F
330
5
100
AcDbSymbolTableRecord
100
AcDbLinetypeTableRecord
  2
DIVIDETINY
 70
    0
  3
Divide (.15x) __..__..__..__..__..__..__..__.._
 72
   65
 73
    6
 40
4.7625
 49
1.905
 74
    0
 49
-0.9525
 74
    0
 49
0
 74
    0
 49
-0.9525
 74
    0
 49
0
 74
    0
 49
-0.9525
 74
    0
  0
LTYPE
  5
40
330
5
100
AcDbSymbolTableRecord
100
AcDbLinetypeTableRecord
  2
DIVIDE2
 70
    0
  3
Divide (.5x) __..__..__..__..__..__..__..__.._
 72
   65
 73
    6
 40
15.875
 49
6.35
 74
    0
 49
-3.175
 74
    0
 49
0
 74
    0
 49
-3.175
 74
    0
 49
0
 74
    0
 49
-3.175
 74
    0
  0
LTYPE
  5
41
330
5
100
AcDbSymbolTableRecord
100
AcDbLinetypeTableRecord
  2
DIVIDEX2
 70
    0
  3
Divide (2x) ________  .  .  ________  .  .  _
 72
   65
 73
    6
 40
63.5
 49
25.4
 74
    0
 49
-12.7
 74
    0
 49
0
 74
    0
 49
-12.7
 74
    0
 49
0
 74
    0
 49
-12.7
 74
    0
  0
LTYPE
  5
42
330
5
100
AcDbSymbolTableRecord
100
AcDbLinetypeTableRecord
  2
BORDER
 70
    0
  3
Border __ __ . __ __ . __ __ . __ __ . __ __ .
 72
   65
 73
    6
 40
44.45
 49
12.7
 74
    0
 49
-6.35
 74
    0
 49
12.7
 74
    0
 49
-6.35
 74
    0
 49
0
 74
    0
 49
-6.35
 74
    0
  0
LTYPE
  5
43
330
5
100
AcDbSymbolTableRecord
100
AcDbLinetypeTableRecord
  2
BORDERTINY
 70
    0
  3
Border (.15x) __.__.__.__.__.__.__.__.__.__.__.
 72
   65
 73
    6
 40
6.6675
 49
1.905
 74
    0
 49
-0.9525
 74
    0
 49
1.905
 74
    0
 49
-0.9525
 74
    0
 49
0
 74
    0
 49
-0.9525
 74
    0
  0
LTYPE
  5
44
330
5
100
AcDbSymbolTableRecord
100
AcDbLinetypeTableRecord
  2
BORDER2
 70
    0
  3
Border (.5x) __.__.__.__.__.__.__.__.__.__.__.
 72
   65
 73
    6
 40
22.225
 49
6.35
 74
    0
 49
-3.175
 74
    0
 49
6.35
 74
    0
 49
-3.175
 74
    0
 49
0
 74
    0
 49
-3.175
 74
    0
  0
LTYPE
  5
45
330
5
100
AcDbSymbolTableRecord
100
AcDbLinetypeTableRecord
  2
BORDERX2
 70
    0
  3
Border (2x) ____  ____  .  ____  ____  .  ___
 72
   65
 73
    6
 40
88.89999999999999
 49
25.4
 74
    0
 49
-12.7
 74
    0
 49
25.4
 74
    0
 49
-12.7
 74
    0
 49
0
 74
    0
 49
-12.7
 74
    0
  0
LTYPE
  5
46
330
5
100
AcDbSymbolTableRecord
100
AcDbLinetypeTableRecord
  2
CENTER
 70
    0
  3
Center ____ _ ____ _ ____ _ ____ _ ____ _ ____
 72
   65
 73
    4
 40
50.8
 49
31.75
 74
    0
 49
-6.35
 74
    0
 49
6.35
 74
    0
 49
-6.35
 74
    0
  0
LTYPE
  5
47
330
5
100
AcDbSymbolTableRecord
100
AcDbLinetypeTableRecord
  2
CENTERTINY
 70
    0
  3
Center (.15x) ___ _ ___ _ ___ _ ___ _ ___ _ ___
 72
   65
 73
    4
 40
7.62
 49
4.7625
 74
    0
 49
-0.9525
 74
    0
 49
0.9525
 74
    0
 49
-0.9525
 74
    0
  0
LTYPE
  5
48
330
5
100
AcDbSymbolTableRecord
100
AcDbLinetypeTableRecord
  2
CENTER2
 70
    0
  3
Center (.5x) ___ _ ___ _ ___ _ ___ _ ___ _ ___
 72
   65
 73
    4
 40
28.575
 49
19.05
 74
    0
 49
-3.175
 74
    0
 49
3.175
 74
    0
 49
-3.175
 74
    0
  0
LTYPE
  5
49
330
5
100
AcDbSymbolTableRecord
100
AcDbLinetypeTableRecord
  2
CENTERX2
 70
    0
  3
Center (2x) ________  __  ________  __  _____
 72
   65
 73
    4
 40
101.6
 49
63.5
 74
    0
 49
-12.7
 74
    0
 49
12.7
 74
    0
 49
-12.7
 74
    0
  0
ENDTAB
  0
TABLE
  2
LAYER
  5
2
330
0
100
AcDbSymbolTable
 70
    1
  0
LAYER
  5
10
330
2
100
AcDbSymbolTableRecord
100
AcDbLayerTableRecord
  2
0
 70
    0
 62
    7
  6
CONTINUOUS
370
    0
390
F
  0
LAYER
  5
4A
330
2
100
AcDbSymbolTableRecord
100
AcDbLayerTableRecord
  2
Dimensions_holes
 70
    0
 62
    5
  6
CONTINUOUS
370
    0
390
F
  0
LAYER
  5
4B
330
2
100
AcDbSymbolTableRecord
100
AcDbLayerTableRecord
  2
Dimensions_outline
 70
    0
 62
    5
  6
CONTINUOUS
370
    0
390
F
  0
LAYER
  5
4C
330
2
100
AcDbSymbolTableRecord
100
AcDbLayerTableRecord
  2
Dimensions_screw_holes
 70
    0
 62
    5
  6
CONTINUOUS
370
    0
390
F
  0
LAYER
  5
4D
330
2
100
AcDbSymbolTableRecord
100
AcDbLayerTableRecord
  2
Dimensions_slots
 70
    0
 62
    5
  6
CONTINUOUS
370
    0
390
F
  0
ENDTAB
  0
TABLE
  2
STYLE
  5
3
330
0
100
AcDbSymbolTable
 70
    3
  0
STYLE
  5
4E
330
2
100
AcDbSymbolTableRecord
100
AcDbTextStyleTableRecord
  2
Standard
 70
    0
 40
0
 41
1
 50
0
 71
    0
 42
1
  3
txt
  4

  0
ENDTAB
  0
TABLE
  2
VIEW
  5
6
330
0
100
AcDbSymbolTable
 70
    0
  0
ENDTAB
  0
TABLE
  2
UCS
  5
7
330
0
100
AcDbSymbolTable
 70
    0
  0
ENDTAB
  0
TABLE
  2
APPID
  5
9
330
0
100
AcDbSymbolTable
 70
    1
  0
APPID
  5
12
330
9
100
AcDbSymbolTableRecord
100
AcDbRegAppTableRecord
  2
ACAD
 70
    0
  0
APPID
  5
4F
330
9
100
AcDbSymbolTableRecord
100
AcDbRegAppTableRecord
  2
LibreCad
 70
    0
  0
ENDTAB
  0
TABLE
  2
DIMSTYLE
  5
A
330
0
100
AcDbSymbolTable
 70
    1
100
AcDbDimStyleTable
 71
    1
  0
DIMSTYLE
105
50
330
A
100
AcDbSymbolTableRecord
100
AcDbDimStyleTableRecord
  2
Standard
 70
    0
 40
1
 41
2.5
 42
0.625
 43
0.38
 44
1.25
 45
0
 46
0
 47
0
 48
0
 49
1
140
2.5
141
0.09
142
0
143
25.4
144
1
145
0
146
1
147
0.625
148
0
 71
    0
 72
    0
 73
    0
 74
    1
 75
    0
 76
    0
 77
    0
 78
    1
 79
    0
170
    0
171
    2
172
    0
173
    0
174
    0
175
    0
176
    0
177
    0
178
    0
179
    2
271
    2
272
    4
273
    2
274
    2
275
    0
276
    0
277
    2
278
    0
279
    0
280
    0
281
    0
282
    0
283
    1
284
    0
285
    0
286
    0
288
    0
289
    3
340
standard
341

371
   -2
372
   -2
  0
ENDTAB
  0
TABLE
  2
BLOCK_RECORD
  5
1
330
0
100
AcDbSymbolTable
 70
    2
  0
BLOCK_RECORD
  5
1F
330
1
100
AcDbSymbolTableRecord
100
AcDbBlockTableRecord
  2
*Model_Space
 70
    0
280
    1
281
    0
  0
BLOCK_RECORD
  5
1E
330
1
100
AcDbSymbolTableRecord
100
AcDbBlockTableRecord
  2
*Paper_Space
 70
    0
280
    1
281
    0
  0
BLOCK_RECORD
  5
51
330
1
100
AcDbSymbolTableRecord
100
AcDbBlockTableRecord
  2
*D1
 70
    0
280
    1
281
    0
  0
BLOCK_RECORD
  5
54
330
1
100
AcDbSymbolTableRecord
100
AcDbBlockTableRecord
  2
*D4
 70
    0
280
    1
281
    0
  0
BLOCK_RECORD
  5
57
330
1
100
AcDbSymbolTableRecord
100
AcDbBlockTableRecord
  2
*D14
 70
    0
280
    1
281
    0
  0
BLOCK_RECORD
  5
5A
330
1
100
AcDbSymbolTableRecord
100
AcDbBlockTableRecord
  2
*D15
 70
    0
280
    1
281
    0
  0
BLOCK_RECORD
  5
5D
330
1
100
AcDbSymbolTableRecord
100
AcDbBlockTableRecord
  2
*D23
 70
    0
280
    1
281
    0
  0
BLOCK_RECORD
  5
60
330
1
100
AcDbSymbolTableRecord
100
AcDbBlockTableRecord
  2
*D13
 70
    0
280
    1
281
    0
  0
BLOCK_RECORD
  5
63
330
1
100
AcDbSymbolTableRecord
100
AcDbBlockTableRecord
  2
*D25
 70
    0
280
    1
281
    0
  0
BLOCK_RECORD
  5
66
330
1
100
AcDbSymbolTableRecord
100
AcDbBlockTableRecord
  2
*D8
 70
    0
280
    1
281
    0
  0
BLOCK_RECORD
  5
69
330
1
100
AcDbSymbolTableRecord
100
AcDbBlockTableRecord
  2
*D21
 70
    0
280
    1
281
    0
  0
BLOCK_RECORD
  5
6C
330
1
100
AcDbSymbolTableRecord
100
AcDbBlockTableRecord
  2
*D17
 70
    0
280
    1
281
    0
  0
BLOCK_RECORD
  5
6F
330
1
100
AcDbSymbolTableRecord
100
AcDbBlockTableRecord
  2
*D20
 70
    0
280
    1
281
    0
  0
BLOCK_RECORD
  5
72
330
1
100
AcDbSymbolTableRecord
100
AcDbBlockTableRecord
  2
*D22
 70
    0
280
    1
281
    0
  0
BLOCK_RECORD
  5
75
330
1
100
AcDbSymbolTableRecord
100
AcDbBlockTableRecord
  2
*D7
 70
    0
280
    1
281
    0
  0
BLOCK_RECORD
  5
78
330
1
100
AcDbSymbolTableRecord
100
AcDbBlockTableRecord
  2
*D5
 70
    0
280
    1
281
    0
  0
BLOCK_RECORD
  5
7B
330
1
100
AcDbSymbolTableRecord
100
AcDbBlockTableRecord
  2
*D31
 70
    0
280
    1
281
    0
  0
BLOCK_RECORD
  5
7E
330
1
100
AcDbSymbolTableRecord
100
AcDbBlockTableRecord
  2
*D16
 70
    0
280
    1
281
    0
  0
BLOCK_RECORD
  5
81
330
1
100
AcDbSymbolTableRecord
100
AcDbBlockTableRecord
  2
*D6
 70
    0
280
    1
281
    0
  0
BLOCK_RECORD
  5
84
330
1
100
AcDbSymbolTableRecord
100
AcDbBlockTableRecord
  2
*D26
 70
    0
280
    1
281
    0
  0
BLOCK_RECORD
  5
87
330
1
100
AcDbSymbolTableRecord
100
AcDbBlockTableRecord
  2
*D27
 70
    0
280
    1
281
    0
  0
BLOCK_RECORD
  5
8A
330
1
100
AcDbSymbolTableRecord
100
AcDbBlockTableRecord
  2
*D11
 70
    0
280
    1
281
    0
  0
BLOCK_RECORD
  5
8D
330
1
100
AcDbSymbolTableRecord
100
AcDbBlockTableRecord
  2
*D19
 70
    0
280
    1
281
    0
  0
BLOCK_RECORD
  5
90
330
1
100
AcDbSymbolTableRecord
100
AcDbBlockTableRecord
  2
*D28
 70
    0
280
    1
281
    0
  0
BLOCK_RECORD
  5
93
330
1
100
AcDbSymbolTableRecord
100
AcDbBlockTableRecord
  2
*D12
 70
    0
280
    1
281
    0
  0
BLOCK_RECORD
  5
96
330
1
100
AcDbSymbolTableRecord
100
AcDbBlockTableRecord
  2
*D10
 70
    0
280
    1
281
    0
  0
BLOCK_RECORD
  5
99
330
1
100
AcDbSymbolTableRecord
100
AcDbBlockTableRecord
  2
*D2
 70
    0
280
    1
281
    0
  0
BLOCK_RECORD
  5
9C
330
1
100
AcDbSymbolTableRecord
100
AcDbBlockTableRecord
  2
*D24
 70
    0
280
    1
281
    0
  0
BLOCK_RECORD
  5
9F
330
1
100
AcDbSymbolTableRecord
100
AcDbBlockTableRecord
  2
*D18
 70
    0
280
    1
281
    0
  0
BLOCK_RECORD
  5
A2
330
1
100
AcDbSymbolTableRecord
100
AcDbBlockTableRecord
  2
*D3
 70
    0
280
    1
281
    0
  0
BLOCK_RECORD
  5
A5
330
1
100
AcDbSymbolTableRecord
100
AcDbBlockTableRecord
  2
*D29
 70
    0
280
    1
281
    0
  0
BLOCK_RECORD
  5
A8
330
1
100
AcDbSymbolTableRecord
100
AcDbBlockTableRecord
  2
*D9
 70
    0
280
    1
281
    0
  0
BLOCK_RECORD
  5
AB
330
1
100
AcDbSymbolTableRecord
100
AcDbBlockTableRecord
  2
*D30
 70
    0
280
    1
281
    0
  0
ENDTAB
  0
ENDSEC
  0
SECTION
  2
BLOCKS
  0
BLOCK
  5
20
330
1F
100
AcDbEntity
  8
0
100
AcDbBlockBegin
  2
*Model_Space
 70
    0
 10
0
 20
0
 30
0
  3
*Model_Space
  1

  0
ENDBLK
  5
21
330
1F
100
AcDbEntity
  8
0
100
AcDbBlockEnd
  0
BLOCK
  5
1C
330
1B
100
AcDbEntity
  8
0
100
AcDbBlockBegin
  2
*Paper_Space
 70
    0
 10
0
 20
0
 30
0
  3
*Paper_Space
  1

  0
ENDBLK
  5
1D
330
1F
100
AcDbEntity
  8
0
100
AcDbBlockEnd
  0
BLOCK
  5
52
330
51
100
AcDbEntity
  8
0
100
AcDbBlockBegin
  2
*D1
 70
    1
 10
0
 20
0
  3
*D1
  1

  0
LINE
  5
AE
100
AcDbEntity
  8
Dimensions_outline
  6
ByBlock
 62
    0
370
   -2
100
AcDbLine
 10
-79.3
 20
60
 11
79.3
 21
60
  0
MTEXT
  5
AF
100
AcDbEntity
  8
Dimensions_outline
  6
CONTINUOUS
 62
    0
370
   -2
100
AcDbMText
 10
1.148068456708479e-16
 20
61.875
 30
0
 40
2.5
 41
9.166666666666977
 71
    5
 72
    1
  1
158.60
  7
standard
210
0
220
0
230
1
 50
0
 73
    2
 44
1
  0
SOLID
  5
B0
100
AcDbEntity
  8
Dimensions_outline
  6
ByBlock
 62
    0
370
   -2
100
AcDbTrace
 10
-79.3
 20
60
 30
0
 11
-76.8
 21
60.41628465777284
 31
0
 12
-76.8
 22
59.58371534222716
 32
0
 13
-76.8
 23
59.58371534222716
 33
0
  0
SOLID
  5
B1
100
AcDbEntity
  8
Dimensions_outline
  6
ByBlock
 62
    0
370
   -2
100
AcDbTrace
 10
79.3
 20
60
 30
0
 11
76.8
 21
59.58371534222716
 31
0
 12
76.8
 22
60.41628465777284
 32
0
 13
76.8
 23
60.41628465777284
 33
0
  0
LINE
  5
B2
100
AcDbEntity
  8
Dimensions_outline
  6
ByBlock
 62
    0
370
   -2
100
AcDbLine
 10
-79.3
 20
37.875
 11
-79.3
 21
61.25
  0
LINE
  5
B3
100
AcDbEntity
  8
Dimensions_outline
  6
ByBlock
 62
    0
370
   -2
100
AcDbLine
 10
79.3
 20
37.875
 11
79.3
 21
61.25
  0
ENDBLK
  5
53
330
51
100
AcDbEntity
  8
0
100
AcDbBlockEnd
  0
BLOCK
  5
55
330
54
100
AcDbEntity
  8
0
100
AcDbBlockBegin
  2
*D4
 70
    1
 10
0
 20
0
  3
*D4
  1

  0
LINE
  5
B4
100
AcDbEntity
  8
Dimensions_screw_holes
  6
ByBlock
 62
    0
370
   -2
100
AcDbLine
 10
-90
 20
37.25
 11
-90
 21
3.75
  0
MTEXT
  5
B5
100
AcDbEntity
  8
Dimensions_screw_holes
  6
CONTINUOUS
 62
    0
370
   -2
100
AcDbMText
 10
-91.875
 20
20.5
 30
0
 40
2.5
 41
20.13888888888935
 71
    5
 72
    1
  1
33.50 %%P 0.20
  7
standard
210
0
220
0
230
1
 50
90
 73
    2
 44
1
  0
SOLID
  5
B6
100
AcDbEntity
  8
Dimensions_screw_holes
  6
ByBlock
 62
    0
370
   -2
100
AcDbTrace
 10
-90
 20
37.25
 30
0
 11
-89.58371534222717
 21
34.75
 31
0
 12
-90.41628465777283
 22
34.75
 32
0
 13
-90.41628465777283
 23
34.75
 33
0
  0
SOLID
  5
B7
100
AcDbEntity
  8
Dimensions_screw_holes
  6
ByBlock
 62
    0
370
   -2
100
AcDbTrace
 10
-90
 20
3.75
 30
0
 11
-90.41628465777283
 21
6.25
 31
0
 12
-89.58371534222717
 22
6.25
 32
0
 13
-89.58371534222717
 23
6.25
 33
0
  0
LINE
  5
B8
100
AcDbEntity
  8
Dimensions_screw_holes
  6
ByBlock
 62
    0
370
   -2
100
AcDbLine
 10
-76.02500000000001
 20
37.25
 11
-91.25
 21
37.25
  0
LINE
  5
B9
100
AcDbEntity
  8
Dimensions_screw_holes
  6
ByBlock
 62
    0
370
   -2
100
AcDbLine
 10
-76.02500000000001
 20
3.75
 11
-91.25
 21
3.75
  0
ENDBLK
  5
56
330
54
100
AcDbEntity
  8
0
100
AcDbBlockEnd
  0
BLOCK
  5
58
330
57
100
AcDbEntity
  8
0
100
AcDbBlockBegin
  2
*D14
 70
    1
 10
0
 20
0
  3
*D14
  1

  0
LINE
  5
BA
100
AcDbEntity
  8
Dimensions_slots
  6
ByBlock
 62
    0
370
   -2
100
AcDbLine
 10
32
 20
2.750000000000001
 11
32
 21
16.45
  0
MTEXT
  5
BB
100
AcDbEntity
  8
Dimensions_slots
  6
CONTINUOUS
 62
    0
370
   -2
100
AcDbMText
 10
30.125
 20
14.99166666666674
 30
0
 40
2.5
 41
5.833333333333488
 71
    5
 72
    1
  1
3.70
  7
standard
210
0
220
0
230
1
 50
90
 73
    2
 44
1
  0
SOLID
  5
BC
100
AcDbEntity
  8
Dimensions_slots
  6
ByBlock
 62
    0
370
   -2
100
AcDbTrace
 10
32
 20
7.750000000000001
 30
0
 11
32.41628465777284
 21
5.250000000000001
 31
0
 12
31.58371534222716
 22
5.250000000000001
 32
0
 13
31.58371534222716
 23
5.250000000000001
 33
0
  0
SOLID
  5
BD
100
AcDbEntity
  8
Dimensions_slots
  6
ByBlock
 62
    0
370
   -2
100
AcDbTrace
 10
32
 20
11.45
 30
0
 11
31.58371534222716
 21
13.95
 31
0
 12
32.41628465777284
 22
13.95
 32
0
 13
32.41628465777284
 23
13.95
 33
0
  0
LINE
  5
BE
100
AcDbEntity
  8
Dimensions_slots
  6
ByBlock
 62
    0
370
   -2
100
AcDbLine
 10
33.975
 20
7.75
 11
30.75
 21
7.750000000000001
  0
LINE
  5
BF
100
AcDbEntity
  8
Dimensions_slots
  6
ByBlock
 62
    0
370
   -2
100
AcDbLine
 10
33.975
 20
11.45
 11
30.75
 21
11.45
  0
ENDBLK
  5
59
330
57
100
AcDbEntity
  8
0
100
AcDbBlockEnd
  0
BLOCK
  5
5B
330
5A
100
AcDbEntity
  8
0
100
AcDbBlockBegin
  2
*D15
 70
    1
 10
0
 20
0
  3
*D15
  1

  0
LINE
  5
C0
100
AcDbEntity
  8
Dimensions_slots
  6
ByBlock
 62
    0
370
   -2
100
AcDbLine
 10
48.52
 20
-30
 11
0
 21
-30
  0
MTEXT
  5
C1
100
AcDbEntity
  8
Dimensions_slots
  6
CONTINUOUS
 62
    0
370
   -2
100
AcDbMText
 10
24.26
 20
-28.125
 30
0
 40
2.5
 41
8.05555555555571
 71
    5
 72
    1
  1
48.52
  7
standard
210
0
220
0
230
1
 50
0
 73
    2
 44
1
  0
SOLID
  5
C2
100
AcDbEntity
  8
Dimensions_slots
  6
ByBlock
 62
    0
370
   -2
100
AcDbTrace
 10
48.52
 20
-30
 30
0
 11
46.02
 21
-30.41628465777284
 31
0
 12
46.02
 22
-29.58371534222716
 32
0
 13
46.02
 23
-29.58371534222716
 33
0
  0
SOLID
  5
C3
100
AcDbEntity
  8
Dimensions_slots
  6
ByBlock
 62
    0
370
   -2
100
AcDbTrace
 10
0
 20
-30
 30
0
 11
2.5
 21
-29.58371534222716
 31
0
 12
2.5
 22
-30.41628465777284
 32
0
 13
2.5
 23
-30.41628465777284
 33
0
  0
LINE
  5
C4
100
AcDbEntity
  8
Dimensions_slots
  6
ByBlock
 62
    0
370
   -2
100
AcDbLine
 10
48.52
 20
7.875
 11
48.52
 21
-31.25
  0
LINE
  5
C5
100
AcDbEntity
  8
Dimensions_slots
  6
ByBlock
 62
    0
370
   -2
100
AcDbLine
 10
-1.148068456708479e-16
 20
-0.625
 11
-2.296136913416957e-16
 21
-31.25
  0
ENDBLK
  5
5C
330
5A
100
AcDbEntity
  8
0
100
AcDbBlockEnd
  0
BLOCK
  5
5E
330
5D
100
AcDbEntity
  8
0
100
AcDbBlockBegin
  2
*D23
 70
    1
 10
0
 20
0
  3
*D23
  1

  0
LINE
  5
C6
100
AcDbEntity
  8
Dimensions_holes
  6
ByBlock
 62
    0
370
   -2
100
AcDbLine
 10
-41.275
 20
-29.99999999999999
 11
-63.5
 21
-29.99999999999999
  0
MTEXT
  5
C7
100
AcDbEntity
  8
Dimensions_holes
  6
CONTINUOUS
 62
    0
370
   -2
100
AcDbMText
 10
-52.3875
 20
-28.12499999999999
 30
0
 40
2.5
 41
7.777777777777933
 71
    5
 72
    1
  1
22.23
  7
standard
210
0
220
0
230
1
 50
0
 73
    2
 44
1
  0
SOLID
  5
C8
100
AcDbEntity
  8
Dimensions_holes
  6
ByBlock
 62
    0
370
   -2
100
AcDbTrace
 10
-41.275
 20
-29.99999999999999
 30
0
 11
-43.775
 21
-30.41628465777283
 31
0
 12
-43.775
 22
-29.58371534222715
 32
0
 13
-43.775
 23
-29.58371534222715
 33
0
  0
SOLID
  5
C9
100
AcDbEntity
  8
Dimensions_holes
  6
ByBlock
 62
    0
370
   -2
100
AcDbTrace
 10
-63.5
 20
-29.99999999999999
 30
0
 11
-61
 21
-29.58371534222715
 31
0
 12
-61
 22
-30.41628465777283
 32
0
 13
-61
 23
-30.41628465777283
 33
0
  0
LINE
  5
CA
100
AcDbEntity
  8
Dimensions_holes
  6
ByBlock
 62
    0
370
   -2
100
AcDbLine
 10
-41.275
 20
8.01
 11
-41.275
 21
-31.24999999999999
  0
LINE
  5
CB
100
AcDbEntity
  8
Dimensions_holes
  6
ByBlock
 62
    0
370
   -2
100
AcDbLine
 10
-63.5
 20
8.01
 11
-63.5
 21
-31.24999999999999
  0
ENDBLK
  5
5F
330
5D
100
AcDbEntity
  8
0
100
AcDbBlockEnd
  0
BLOCK
  5
61
330
60
100
AcDbEntity
  8
0
100
AcDbBlockBegin
  2
*D13
 70
    1
 10
0
 20
0
  3
*D13
  1

  0
LINE
  5
CC
100
AcDbEntity
  8
Dimensions_slots
  6
ByBlock
 62
    0
370
   -2
100
AcDbLine
 10
39
 20
7.75
 11
39
 21
-7.105427357601002e-17
  0
MTEXT
  5
CD
100
AcDbEntity
  8
Dimensions_slots
  6
CONTINUOUS
 62
    0
370
   -2
100
AcDbMText
 10
37.125
 20
3.875
 30
0
 40
2.5
 41
5.833333333333488
 71
    5
 72
    1
  1
7.75
  7
standard
210
0
220
0
230
1
 50
90
 73
    2
 44
1
  0
SOLID
  5
CE
100
AcDbEntity
  8
Dimensions_slots
  6
ByBlock
 62
    0
370
   -2
100
AcDbTrace
 10
39
 20
7.75
 30
0
 11
39.41628465777284
 21
5.25
 31
0
 12
38.58371534222716
 22
5.25
 32
0
 13
38.58371534222716
 23
5.25
 33
0
  0
SOLID
  5
CF
100
AcDbEntity
  8
Dimensions_slots
  6
ByBlock
 62
    0
370
   -2
100
AcDbTrace
 10
39
 20
-7.105427357601002e-17
 30
0
 11
38.58371534222716
 21
2.5
 31
0
 12
39.41628465777284
 22
2.5
 32
0
 13
39.41628465777284
 23
2.5
 33
0
  0
LINE
  5
D0
100
AcDbEntity
  8
Dimensions_slots
  6
ByBlock
 62
    0
370
   -2
100
AcDbLine
 10
38.725
 20
7.75
 11
40.25
 21
7.75
  0
LINE
  5
D1
100
AcDbEntity
  8
Dimensions_slots
  6
ByBlock
 62
    0
370
   -2
100
AcDbLine
 10
38.625
 20
0
 11
40.25
 21
-7.105427357601002e-17
  0
ENDBLK
  5
62
330
60
100
AcDbEntity
  8
0
100
AcDbBlockEnd
  0
BLOCK
  5
64
330
63
100
AcDbEntity
  8
0
100
AcDbBlockBegin
  2
*D25
 70
    1
 10
0
 20
0
  3
*D25
  1

  0
LINE
  5
D2
100
AcDbEntity
  8
Dimensions_outline
  6
ByBlock
 62
    0
370
   -2
100
AcDbLine
 10
79.3
 20
-50
 11
0
 21
-50
  0
MTEXT
  5
D3
100
AcDbEntity
  8
Dimensions_outline
  6
CONTINUOUS
 62
    0
370
   -2
100
AcDbMText
 10
39.65
 20
-48.125
 30
0
 40
2.5
 41
7.777777777777933
 71
    5
 72
    1
  1
79.30
  7
standard
210
0
220
0
230
1
 50
0
 73
    2
 44
1
  0
SOLID
  5
D4
100
AcDbEntity
  8
Dimensions_outline
  6
ByBlock
 62
    0
370
   -2
100
AcDbTrace
 10
79.3
 20
-50
 30
0
 11
76.8
 21
-50.41628465777284
 31
0
 12
76.8
 22
-49.58371534222716
 32
0
 13
76.8
 23
-49.58371534222716
 33
0
  0
SOLID
  5
D5
100
AcDbEntity
  8
Dimensions_outline
  6
ByBlock
 62
    0
370
   -2
100
AcDbTrace
 10
0
 20
-50
 30
0
 11
2.5
 21
-49.58371534222716
 31
0
 12
2.5
 22
-50.41628465777284
 32
0
 13
2.5
 23
-50.41628465777284
 33
0
  0
LINE
  5
D6
100
AcDbEntity
  8
Dimensions_outline
  6
ByBlock
 62
    0
370
   -2
100
AcDbLine
 10
79.3
 20
3.125
 11
79.3
 21
-51.25
  0
LINE
  5
D7
100
AcDbEntity
  8
Dimensions_outline
  6
ByBlock
 62
    0
370
   -2
100
AcDbLine
 10
-1.148068456708479e-16
 20
-0.625
 11
-2.296136913416957e-16
 21
-51.25
  0
ENDBLK
  5
65
330
63
100
AcDbEntity
  8
0
100
AcDbBlockEnd
  0
BLOCK
  5
67
330
66
100
AcDbEntity
  8
0
100
AcDbBlockBegin
  2
*D8
 70
    1
 10
0
 20
0
  3
*D8
  1

  0
LINE
  5
D8
100
AcDbEntity
  8
Dimensions_slots
  6
ByBlock
 62
    0
370
   -2
100
AcDbLine
 10
-4.999999999999999
 20
7.499999999999999
 11
-5
 21
3.108624468950438e-16
  0
MTEXT
  5
D9
100
AcDbEntity
  8
Dimensions_slots
  6
CONTINUOUS
 62
    0
370
   -2
100
AcDbMText
 10
-6.875
 20
3.75
 30
0
 40
2.5
 41
5.833333333333489
 71
    5
 72
    1
  1
7.50
  7
standard
210
0
220
0
230
1
 50
90
 73
    2
 44
1
  0
SOLID
  5
DA
100
AcDbEntity
  8
Dimensions_slots
  6
ByBlock
 62
    0
370
   -2
100
AcDbTrace
 10
-4.999999999999999
 20
7.499999999999999
 30
0
 11
-4.583715342227158
 21
4.999999999999999
 31
0
 12
-5.41628465777284
 22
4.999999999999999
 32
0
 13
-5.41628465777284
 23
4.999999999999999
 33
0
  0
SOLID
  5
DB
100
AcDbEntity
  8
Dimensions_slots
  6
ByBlock
 62
    0
370
   -2
100
AcDbTrace
 10
-5
 20
3.108624468950438e-16
 30
0
 11
-5.41628465777284
 21
2.5
 31
0
 12
-4.583715342227159
 22
2.5
 32
0
 13
-4.583715342227159
 23
2.5
 33
0
  0
LINE
  5
DC
100
AcDbEntity
  8
Dimensions_slots
  6
ByBlock
 62
    0
370
   -2
100
AcDbLine
 10
-8.135
 20
7.5
 11
-3.749999999999999
 21
7.499999999999999
  0
LINE
  5
DD
100
AcDbEntity
  8
Dimensions_slots
  6
ByBlock
 62
    0
370
   -2
100
AcDbLine
 10
-0.625
 20
7.653789711389858e-17
 11
-6.25
 21
4.63938241122841e-16
  0
ENDBLK
  5
68
330
66
100
AcDbEntity
  8
0
100
AcDbBlockEnd
  0
BLOCK
  5
6A
330
69
100
AcDbEntity
  8
0
100
AcDbBlockBegin
  2
*D21
 70
    1
 10
0
 20
0
  3
*D21
  1

  0
LINE
  5
DE
100
AcDbEntity
  8
Dimensions_holes
  6
ByBlock
 62
    0
370
   -2
100
AcDbLine
 10
-19.05
 20
-30
 11
0
 21
-30
  0
MTEXT
  5
DF
100
AcDbEntity
  8
Dimensions_holes
  6
CONTINUOUS
 62
    0
370
   -2
100
AcDbMText
 10
-9.525
 20
-28.125
 30
0
 40
2.5
 41
7.222222222222378
 71
    5
 72
    1
  1
19.05
  7
standard
210
0
220
0
230
1
 50
0
 73
    2
 44
1
  0
SOLID
  5
E0
100
AcDbEntity
  8
Dimensions_holes
  6
ByBlock
 62
    0
370
   -2
100
AcDbTrace
 10
-19.05
 20
-30
 30
0
 11
-16.55
 21
-29.58371534222716
 31
0
 12
-16.55
 22
-30.41628465777284
 32
0
 13
-16.55
 23
-30.41628465777284
 33
0
  0
SOLID
  5
E1
100
AcDbEntity
  8
Dimensions_holes
  6
ByBlock
 62
    0
370
   -2
100
AcDbTrace
 10
0
 20
-30
 30
0
 11
-2.5
 21
-30.41628465777284
 31
0
 12
-2.5
 22
-29.58371534222716
 32
0
 13
-2.5
 23
-29.58371534222716
 33
0
  0
LINE
  5
E2
100
AcDbEntity
  8
Dimensions_holes
  6
ByBlock
 62
    0
370
   -2
100
AcDbLine
 10
-19.05
 20
8.01
 11
-19.05
 21
-31.25
  0
LINE
  5
E3
100
AcDbEntity
  8
Dimensions_holes
  6
ByBlock
 62
    0
370
   -2
100
AcDbLine
 10
-1.148068456708479e-16
 20
-0.625
 11
-2.296136913416957e-16
 21
-31.25
  0
ENDBLK
  5
6B
330
69
100
AcDbEntity
  8
0
100
AcDbBlockEnd
  0
BLOCK
  5
6D
330
6C
100
AcDbEntity
  8
0
100
AcDbBlockBegin
  2
*D17
 70
    1
 10
0
 20
0
  3
*D17
  1

  0
LINE
  5
E4
100
AcDbEntity
  8
Dimensions_slots
  6
ByBlock
 62
    0
370
   -2
100
AcDbLine
 10
56
 20
7.5
 11
56
 21
7.105427357601002e-17
  0
MTEXT
  5
E5
100
AcDbEntity
  8
Dimensions_slots
  6
CONTINUOUS
 62
    0
370
   -2
100
AcDbMText
 10
54.125
 20
3.75
 30
0
 40
2.5
 41
5.833333333333489
 71
    5
 72
    1
  1
7.50
  7
standard
210
0
220
0
230
1
 50
90
 73
    2
 44
1
  0
SOLID
  5
E6
100
AcDbEntity
  8
Dimensions_slots
  6
ByBlock
 62
    0
370
   -2
100
AcDbTrace
 10
56
 20
7.5
 30
0
 11
56.41628465777284
 21
5
 31
0
 12
55.58371534222716
 22
5
 32
0
 13
55.58371534222716
 23
5
 33
0
  0
SOLID
  5
E7
100
AcDbEntity
  8
Dimensions_slots
  6
ByBlock
 62
    0
370
   -2
100
AcDbTrace
 10
56
 20
7.105427357601002e-17
 30
0
 11
55.58371534222716
 21
2.5
 31
0
 12
56.41628465777284
 22
2.5
 32
0
 13
56.41628465777284
 23
2.5
 33
0
  0
LINE
  5
E8
100
AcDbEntity
  8
Dimensions_slots
  6
ByBlock
 62
    0
370
   -2
100
AcDbLine
 10
56.52500000000001
 20
7.5
 11
54.75
 21
7.5
  0
LINE
  5
E9
100
AcDbEntity
  8
Dimensions_slots
  6
ByBlock
 62
    0
370
   -2
100
AcDbLine
 10
56.375
 20
7.653789711389858e-17
 11
54.75
 21
2.241300678038072e-16
  0
ENDBLK
  5
6E
330
6C
100
AcDbEntity
  8
0
100
AcDbBlockEnd
  0
BLOCK
  5
70
330
6F
100
AcDbEntity
  8
0
100
AcDbBlockBegin
  2
*D20
 70
    1
 10
0
 20
0
  3
*D20
  1

  0
SOLID
  5
EA
100
AcDbEntity
  8
Dimensions_slots
  6
ByBlock
 62
    0
370
   -2
100
AcDbTrace
 10
42.65457685966513
 20
10.87109436524145
 30
0
 11
44.54023754846115
 21
12.56448642942103
 31
0
 12
44.98722360952966
 22
11.86207976202766
 32
0
 13
44.98722360952966
 23
11.86207976202766
 33
0
  0
LINE
  5
EB
100
AcDbEntity
  8
Dimensions_slots
  6
ByBlock
 62
    0
370
   -2
100
AcDbLine
 10
41.6
 20
10.2
 11
56.71560165520038
 21
19.81901923512753
  0
MTEXT
  5
EC
100
AcDbEntity
  8
Dimensions_slots
  6
CONTINUOUS
 62
    0
370
   -2
100
AcDbMText
 10
48.67844770957058
 20
16.92692208968219
 30
0
 40
2.5
 41
11.66666666666682
 71
    5
 72
    1
  1
4-R1.25
  7
standard
210
0
220
0
230
1
 50
32.47119229084854
 73
    2
 44
1
  0
ENDBLK
  5
71
330
6F
100
AcDbEntity
  8
0
100
AcDbBlockEnd
  0
BLOCK
  5
73
330
72
100
AcDbEntity
  8
0
100
AcDbBlockBegin
  2
*D22
 70
    1
 10
0
 20
0
  3
*D22
  1

  0
LINE
  5
ED
100
AcDbEntity
  8
Dimensions_holes
  6
ByBlock
 62
    0
370
   -2
100
AcDbLine
 10
-19.05
 20
-29.99999999999999
 11
-41.275
 21
-29.99999999999999
  0
MTEXT
  5
EE
100
AcDbEntity
  8
Dimensions_holes
  6
CONTINUOUS
 62
    0
370
   -2
100
AcDbMText
 10
-30.1625
 20
-28.12499999999999
 30
0
 40
2.5
 41
7.777777777777933
 71
    5
 72
    1
  1
22.23
  7
standard
210
0
220
0
230
1
 50
0
 73
    2
 44
1
  0
SOLID
  5
EF
100
AcDbEntity
  8
Dimensions_holes
  6
ByBlock
 62
    0
370
   -2
100
AcDbTrace
 10
-19.05
 20
-29.99999999999999
 30
0
 11
-21.55
 21
-30.41628465777283
 31
0
 12
-21.55
 22
-29.58371534222715
 32
0
 13
-21.55
 23
-29.58371534222715
 33
0
  0
SOLID
  5
F0
100
AcDbEntity
  8
Dimensions_holes
  6
ByBlock
 62
    0
370
   -2
100
AcDbTrace
 10
-41.275
 20
-29.99999999999999
 30
0
 11
-38.775
 21
-29.58371534222715
 31
0
 12
-38.775
 22
-30.41628465777283
 32
0
 13
-38.775
 23
-30.41628465777283
 33
0
  0
LINE
  5
F1
100
AcDbEntity
  8
Dimensions_holes
  6
ByBlock
 62
    0
370
   -2
100
AcDbLine
 10
-19.05
 20
8.01
 11
-19.05
 21
-31.24999999999999
  0
LINE
  5
F2
100
AcDbEntity
  8
Dimensions_holes
  6
ByBlock
 62
    0
370
   -2
100
AcDbLine
 10
-41.275
 20
8.01
 11
-41.275
 21
-31.24999999999999
  0
ENDBLK
  5
74
330
72
100
AcDbEntity
  8
0
100
AcDbBlockEnd
  0
BLOCK
  5
76
330
75
100
AcDbEntity
  8
0
100
AcDbBlockBegin
  2
*D7
 70
    1
 10
0
 20
0
  3
*D7
  1

  0
LINE
  5
F3
100
AcDbEntity
  8
Dimensions_slots
  6
ByBlock
 62
    0
370
   -2
100
AcDbLine
 10
-9.760000000000002
 20
25
 11
27.54
 21
25
  0
MTEXT
  5
F4
100
AcDbEntity
  8
Dimensions_slots
  6
CONTINUOUS
 62
    0
370
   -2
100
AcDbMText
 10
8.890000000000001
 20
26.875
 30
0
 40
2.5
 41
7.777777777778088
 71
    5
 72
    1
  1
37.30
  7
standard
210
0
220
0
230
1
 50
0
 73
    2
 44
1
  0
SOLID
  5
F5
100
AcDbEntity
  8
Dimensions_slots
  6
ByBlock
 62
    0
370
   -2
100
AcDbTrace
 10
-9.760000000000002
 20
25
 30
0
 11
-7.260000000000002
 21
25.41628465777284
 31
0
 12
-7.260000000000002
 22
24.58371534222716
 32
0
 13
-7.260000000000002
 23
24.58371534222716
 33
0
  0
SOLID
  5
F6
100
AcDbEntity
  8
Dimensions_slots
  6
ByBlock
 62
    0
370
   -2
100
AcDbTrace
 10
27.54
 20
25
 30
0
 11
25.04
 21
24.58371534222716
 31
0
 12
25.04
 22
25.41628465777284
 32
0
 13
25.04
 23
25.41628465777284
 33
0
  0
LINE
  5
F7
100
AcDbEntity
  8
Dimensions_slots
  6
ByBlock
 62
    0
370
   -2
100
AcDbLine
 10
-9.76
 20
15.325
 11
-9.760000000000002
 21
26.25
  0
LINE
  5
F8
100
AcDbEntity
  8
Dimensions_slots
  6
ByBlock
 62
    0
370
   -2
100
AcDbLine
 10
27.54
 20
15.325
 11
27.54
 21
26.25
  0
ENDBLK
  5
77
330
75
100
AcDbEntity
  8
0
100
AcDbBlockEnd
  0
BLOCK
  5
79
330
78
100
AcDbEntity
  8
0
100
AcDbBlockBegin
  2
*D5
 70
    1
 10
0
 20
0
  3
*D5
  1

  0
LINE
  5
F9
100
AcDbEntity
  8
Dimensions_outline
  6
ByBlock
 62
    0
370
   -2
100
AcDbLine
 10
-100
 20
41
 11
-100
 21
0
  0
MTEXT
  5
FA
100
AcDbEntity
  8
Dimensions_outline
  6
CONTINUOUS
 62
    0
370
   -2
100
AcDbMText
 10
-101.875
 20
20.5
 30
0
 40
2.5
 41
7.5
 71
    5
 72
    1
  1
41.00
  7
standard
210
0
220
0
230
1
 50
90
 73
    2
 44
1
  0
SOLID
  5
FB
100
AcDbEntity
  8
Dimensions_outline
  6
ByBlock
 62
    0
370
   -2
100
AcDbTrace
 10
-100
 20
41
 30
0
 11
-99.58371534222717
 21
38.5
 31
0
 12
-100.4162846577728
 22
38.5
 32
0
 13
-100.4162846577728
 23
38.5
 33
0
  0
SOLID
  5
FC
100
AcDbEntity
  8
Dimensions_outline
  6
ByBlock
 62
    0
370
   -2
100
AcDbTrace
 10
-100
 20
0
 30
0
 11
-100.4162846577728
 21
2.5
 31
0
 12
-99.58371534222717
 22
2.5
 32
0
 13
-99.58371534222717
 23
2.5
 33
0
  0
LINE
  5
FD
100
AcDbEntity
  8
Dimensions_outline
  6
ByBlock
 62
    0
370
   -2
100
AcDbLine
 10
-76.175
 20
41
 11
-101.25
 21
41
  0
LINE
  5
FE
100
AcDbEntity
  8
Dimensions_outline
  6
ByBlock
 62
    0
370
   -2
100
AcDbLine
 10
-76.175
 20
7.653789711389858e-17
 11
-101.25
 21
1.530757942277972e-16
  0
ENDBLK
  5
7A
330
78
100
AcDbEntity
  8
0
100
AcDbBlockEnd
  0
BLOCK
  5
7C
330
7B
100
AcDbEntity
  8
0
100
AcDbBlockBegin
  2
*D31
 70
    1
 10
0
 20
0
  3
*D31
  1

  0
LINE
  5
FF
100
AcDbEntity
  8
Dimensions_screw_holes
  6
ByBlock
 62
    0
370
   -2
100
AcDbLine
 10
69.64928936413267
 20
33.8120751633402
 11
81.15071063586734
 21
40.6879248366598
  0
MTEXT
  5
100
100
AcDbEntity
  8
Dimensions_screw_holes
  6
CONTINUOUS
 62
    0
370
   -2
100
AcDbMText
 10
81.91715588721833
 20
43.33063842944128
 30
0
 40
2.5
 41
12.77777777777793
 71
    5
 72
    1
  1
4-%%C3.40
  7
standard
210
0
220
0
230
1
 50
30.87208336308025
 73
    2
 44
1
  0
SOLID
  5
101
100
AcDbEntity
  8
Dimensions_screw_holes
  6
ByBlock
 62
    0
370
   -2
100
AcDbTrace
 10
73.9408644655262
 20
36.37769071308632
 30
0
 11
72.00868219304999
 21
34.73757956373525
 31
0
 12
71.5814716366089
 22
35.45218631269126
 32
0
 13
71.5814716366089
 23
35.45218631269126
 33
0
  0
SOLID
  5
102
100
AcDbEntity
  8
Dimensions_screw_holes
  6
ByBlock
 62
    0
370
   -2
100
AcDbTrace
 10
76.85913553447381
 20
38.12230928691368
 30
0
 11
78.79131780695002
 21
39.76242043626475
 31
0
 12
79.21852836339113
 22
39.04781368730873
 32
0
 13
79.21852836339113
 23
39.04781368730873
 33
0
  0
ENDBLK
  5
7D
330
7B
100
AcDbEntity
  8
0
100
AcDbBlockEnd
  0
BLOCK
  5
7F
330
7E
100
AcDbEntity
  8
0
100
AcDbBlockBegin
  2
*D16
 70
    1
 10
0
 20
0
  3
*D16
  1

  0
LINE
  5
103
100
AcDbEntity
  8
Dimensions_slots
  6
ByBlock
 62
    0
370
   -2
100
AcDbLine
 10
48.52
 20
25
 11
65.78
 21
25
  0
MTEXT
  5
104
100
AcDbEntity
  8
Dimensions_slots
  6
CONTINUOUS
 62
    0
370
   -2
100
AcDbMText
 10
57.15000000000001
 20
26.875
 30
0
 40
2.5
 41
7.222222222222378
 71
    5
 72
    1
  1
17.26
  7
standard
210
0
220
0
230
1
 50
0
 73
    2
 44
1
  0
SOLID
  5
105
100
AcDbEntity
  8
Dimensions_slots
  6
ByBlock
 62
    0
370
   -2
100
AcDbTrace
 10
48.52
 20
25
 30
0
 11
51.02
 21
25.41628465777284
 31
0
 12
51.02
 22
24.58371534222716
 32
0
 13
51.02
 23
24.58371534222716
 33
0
  0
SOLID
  5
106
100
AcDbEntity
  8
Dimensions_slots
  6
ByBlock
 62
    0
370
   -2
100
AcDbTrace
 10
65.78
 20
25
 30
0
 11
63.28
 21
24.58371534222716
 31
0
 12
63.28
 22
25.41628465777284
 32
0
 13
63.28
 23
25.41628465777284
 33
0
  0
LINE
  5
107
100
AcDbEntity
  8
Dimensions_slots
  6
ByBlock
 62
    0
370
   -2
100
AcDbLine
 10
48.52
 20
21.965
 11
48.52
 21
26.25
  0
LINE
  5
108
100
AcDbEntity
  8
Dimensions_slots
  6
ByBlock
 62
    0
370
   -2
100
AcDbLine
 10
65.78
 20
21.965
 11
65.78
 21
26.25
  0
ENDBLK
  5
80
330
7E
100
AcDbEntity
  8
0
100
AcDbBlockEnd
  0
BLOCK
  5
82
330
81
100
AcDbEntity
  8
0
100
AcDbBlockBegin
  2
*D6
 70
    1
 10
0
 20
0
  3
*D6
  1

  0
LINE
  5
109
100
AcDbEntity
  8
Dimensions_slots
  6
ByBlock
 62
    0
370
   -2
100
AcDbLine
 10
-9.759999999999998
 20
-20
 11
0
 21
-20
  0
MTEXT
  5
10A
100
AcDbEntity
  8
Dimensions_slots
  6
CONTINUOUS
 62
    0
370
   -2
100
AcDbMText
 10
-4.879999999999999
 20
-18.125
 30
0
 40
2.5
 41
5.833333333333644
 71
    5
 72
    1
  1
9.76
  7
standard
210
0
220
0
230
1
 50
0
 73
    2
 44
1
  0
SOLID
  5
10B
100
AcDbEntity
  8
Dimensions_slots
  6
ByBlock
 62
    0
370
   -2
100
AcDbTrace
 10
-9.759999999999998
 20
-20
 30
0
 11
-7.259999999999998
 21
-19.58371534222716
 31
0
 12
-7.259999999999998
 22
-20.41628465777284
 32
0
 13
-7.259999999999998
 23
-20.41628465777284
 33
0
  0
SOLID
  5
10C
100
AcDbEntity
  8
Dimensions_slots
  6
ByBlock
 62
    0
370
   -2
100
AcDbTrace
 10
0
 20
-20
 30
0
 11
-2.5
 21
-20.41628465777284
 31
0
 12
-2.5
 22
-19.58371534222716
 32
0
 13
-2.5
 23
-19.58371534222716
 33
0
  0
LINE
  5
10D
100
AcDbEntity
  8
Dimensions_slots
  6
ByBlock
 62
    0
370
   -2
100
AcDbLine
 10
-9.76
 20
7.875
 11
-9.759999999999998
 21
-21.25
  0
LINE
  5
10E
100
AcDbEntity
  8
Dimensions_slots
  6
ByBlock
 62
    0
370
   -2
100
AcDbLine
 10
-1.148068456708479e-16
 20
-0.625
 11
-2.296136913416957e-16
 21
-21.25
  0
ENDBLK
  5
83
330
81
100
AcDbEntity
  8
0
100
AcDbBlockEnd
  0
BLOCK
  5
85
330
84
100
AcDbEntity
  8
0
100
AcDbBlockBegin
  2
*D26
 70
    1
 10
0
 20
0
  3
*D26
  1

  0
LINE
  5
10F
100
AcDbEntity
  8
Dimensions_outline
  6
ByBlock
 62
    0
370
   -2
100
AcDbLine
 10
-79.3
 20
-50
 11
0
 21
-50
  0
MTEXT
  5
110
100
AcDbEntity
  8
Dimensions_outline
  6
CONTINUOUS
 62
    0
370
   -2
100
AcDbMText
 10
-39.65
 20
-48.125
 30
0
 40
2.5
 41
7.777777777777933
 71
    5
 72
    1
  1
79.30
  7
standard
210
0
220
0
230
1
 50
0
 73
    2
 44
1
  0
SOLID
  5
111
100
AcDbEntity
  8
Dimensions_outline
  6
ByBlock
 62
    0
370
   -2
100
AcDbTrace
 10
-79.3
 20
-50
 30
0
 11
-76.8
 21
-49.58371534222716
 31
0
 12
-76.8
 22
-50.41628465777284
 32
0
 13
-76.8
 23
-50.41628465777284
 33
0
  0
SOLID
  5
112
100
AcDbEntity
  8
Dimensions_outline
  6
ByBlock
 62
    0
370
   -2
100
AcDbTrace
 10
0
 20
-50
 30
0
 11
-2.5
 21
-50.41628465777284
 31
0
 12
-2.5
 22
-49.58371534222716
 32
0
 13
-2.5
 23
-49.58371534222716
 33
0
  0
LINE
  5
113
100
AcDbEntity
  8
Dimensions_outline
  6
ByBlock
 62
    0
370
   -2
100
AcDbLine
 10
-79.3
 20
3.125
 11
-79.3
 21
-51.25
  0
LINE
  5
114
100
AcDbEntity
  8
Dimensions_outline
  6
ByBlock
 62
    0
370
   -2
100
AcDbLine
 10
-1.148068456708479e-16
 20
-0.625
 11
-2.296136913416957e-16
 21
-51.25
  0
ENDBLK
  5
86
330
84
100
AcDbEntity
  8
0
100
AcDbBlockEnd
  0
BLOCK
  5
88
330
87
100
AcDbEntity
  8
0
100
AcDbBlockBegin
  2
*D27
 70
    1
 10
0
 20
0
  3
*D27
  1

  0
LINE
  5
115
100
AcDbEntity
  8
Dimensions_screw_holes
  6
ByBlock
 62
    0
370
   -2
100
AcDbLine
 10
75.40000000000001
 20
-39.99999999999999
 11
-3.944304526105059e-31
 21
-39.99999999999999
  0
MTEXT
  5
116
100
AcDbEntity
  8
Dimensions_screw_holes
  6
CONTINUOUS
 62
    0
370
   -2
100
AcDbMText
 10
37.7
 20
-38.12499999999999
 30
0
 40
2.5
 41
8.055555555555712
 71
    5
 72
    1
  1
75.40
  7
standard
210
0
220
0
230
1
 50
0
 73
    2
 44
1
  0
SOLID
  5
117
100
AcDbEntity
  8
Dimensions_screw_holes
  6
ByBlock
 62
    0
370
   -2
100
AcDbTrace
 10
75.40000000000001
 20
-39.99999999999999
 30
0
 11
72.90000000000001
 21
-40.41628465777283
 31
0
 12
72.90000000000001
 22
-39.58371534222715
 32
0
 13
72.90000000000001
 23
-39.58371534222715
 33
0
  0
SOLID
  5
118
100
AcDbEntity
  8
Dimensions_screw_holes
  6
ByBlock
 62
    0
370
   -2
100
AcDbTrace
 10
-3.944304526105059e-31
 20
-39.99999999999999
 30
0
 11
2.5
 21
-39.58371534222715
 31
0
 12
2.5
 22
-40.41628465777283
 32
0
 13
2.5
 23
-40.41628465777283
 33
0
  0
LINE
  5
119
100
AcDbEntity
  8
Dimensions_screw_holes
  6
ByBlock
 62
    0
370
   -2
100
AcDbLine
 10
75.40000000000001
 20
3.125
 11
75.40000000000001
 21
-41.24999999999999
  0
LINE
  5
11A
100
AcDbEntity
  8
Dimensions_screw_holes
  6
ByBlock
 62
    0
370
   -2
100
AcDbLine
 10
-1.148068456708479e-16
 20
-0.625
 11
-2.296136913416961e-16
 21
-41.24999999999999
  0
ENDBLK
  5
89
330
87
100
AcDbEntity
  8
0
100
AcDbBlockEnd
  0
BLOCK
  5
8B
330
8A
100
AcDbEntity
  8
0
100
AcDbBlockBegin
  2
*D11
 70
    1
 10
0
 20
0
  3
*D11
  1

  0
LINE
  5
11B
100
AcDbEntity
  8
Dimensions_slots
  6
ByBlock
 62
    0
370
   -2
100
AcDbLine
 10
33.35
 20
-20
 11
-1.97215226305253e-31
 21
-20
  0
MTEXT
  5
11C
100
AcDbEntity
  8
Dimensions_slots
  6
CONTINUOUS
 62
    0
370
   -2
100
AcDbMText
 10
16.675
 20
-18.125
 30
0
 40
2.5
 41
7.777777777778397
 71
    5
 72
    1
  1
33.35
  7
standard
210
0
220
0
230
1
 50
0
 73
    2
 44
1
  0
SOLID
  5
11D
100
AcDbEntity
  8
Dimensions_slots
  6
ByBlock
 62
    0
370
   -2
100
AcDbTrace
 10
33.35
 20
-20
 30
0
 11
30.85
 21
-20.41628465777284
 31
0
 12
30.85
 22
-19.58371534222715
 32
0
 13
30.85
 23
-19.58371534222715
 33
0
  0
SOLID
  5
11E
100
AcDbEntity
  8
Dimensions_slots
  6
ByBlock
 62
    0
370
   -2
100
AcDbTrace
 10
-1.97215226305253e-31
 20
-20
 30
0
 11
2.5
 21
-19.58371534222715
 31
0
 12
2.5
 22
-20.41628465777284
 32
0
 13
2.5
 23
-20.41628465777284
 33
0
  0
LINE
  5
11F
100
AcDbEntity
  8
Dimensions_slots
  6
ByBlock
 62
    0
370
   -2
100
AcDbLine
 10
33.35
 20
8.975
 11
33.35
 21
-21.25
  0
LINE
  5
120
100
AcDbEntity
  8
Dimensions_slots
  6
ByBlock
 62
    0
370
   -2
100
AcDbLine
 10
-1.148068456708479e-16
 20
-0.625
 11
-2.296136913416959e-16
 21
-21.25
  0
ENDBLK
  5
8C
330
8A
100
AcDbEntity
  8
0
100
AcDbBlockEnd
  0
BLOCK
  5
8E
330
8D
100
AcDbEntity
  8
0
100
AcDbBlockBegin
  2
*D19
 70
    1
 10
0
 20
0
  3
*D19
  1

  0
SOLID
  5
121
100
AcDbEntity
  8
Dimensions_slots
  6
ByBlock
 62
    0
370
   -2
100
AcDbTrace
 10
65.55096175162709
 20
21.97688144699629
 30
0
 11
67.21324215549008
 21
23.89002461341906
 31
0
 12
67.74349010589953
 22
23.248145515555
 32
0
 13
67.74349010589953
 23
23.248145515555
 33
0
  0
LINE
  5
122
100
AcDbEntity
  8
Dimensions_slots
  6
ByBlock
 62
    0
370
   -2
100
AcDbLine
 10
64.78
 20
21.34
 11
78.4003242787452
 21
32.59157223026786
  0
MTEXT
  5
123
100
AcDbEntity
  8
Dimensions_slots
  6
CONTINUOUS
 62
    0
370
   -2
100
AcDbMText
 10
70.78149030206809
 20
28.72978012293287
 30
0
 40
2.5
 41
11.66666666666667
 71
    5
 72
    1
  1
4-R1.00
  7
standard
210
0
220
0
230
1
 50
39.5596679689947
 73
    2
 44
1
  0
ENDBLK
  5
8F
330
8D
100
AcDbEntity
  8
0
100
AcDbBlockEnd
  0
BLOCK
  5
91
330
90
100
AcDbEntity
  8
0
100
AcDbBlockBegin
  2
*D28
 70
    1
 10
0
 20
0
  3
*D28
  1

  0
LINE
  5
124
100
AcDbEntity
  8
Dimensions_screw_holes
  6
ByBlock
 62
    0
370
   -2
100
AcDbLine
 10
-75.40000000000001
 20
-40
 11
0
 21
-40
  0
MTEXT
  5
125
100
AcDbEntity
  8
Dimensions_screw_holes
  6
CONTINUOUS
 62
    0
370
   -2
100
AcDbMText
 10
-37.7
 20
-38.125
 30
0
 40
2.5
 41
8.055555555555712
 71
    5
 72
    1
  1
75.40
  7
standard
210
0
220
0
230
1
 50
0
 73
    2
 44
1
  0
SOLID
  5
126
100
AcDbEntity
  8
Dimensions_screw_holes
  6
ByBlock
 62
    0
370
   -2
100
AcDbTrace
 10
-75.40000000000001
 20
-40
 30
0
 11
-72.90000000000001
 21
-39.58371534222716
 31
0
 12
-72.90000000000001
 22
-40.41628465777284
 32
0
 13
-72.90000000000001
 23
-40.41628465777284
 33
0
  0
SOLID
  5
127
100
AcDbEntity
  8
Dimensions_screw_holes
  6
ByBlock
 62
    0
370
   -2
100
AcDbTrace
 10
0
 20
-40
 30
0
 11
-2.5
 21
-40.41628465777284
 31
0
 12
-2.5
 22
-39.58371534222716
 32
0
 13
-2.5
 23
-39.58371534222716
 33
0
  0
LINE
  5
128
100
AcDbEntity
  8
Dimensions_screw_holes
  6
ByBlock
 62
    0
370
   -2
100
AcDbLine
 10
-75.40000000000001
 20
3.125
 11
-75.40000000000001
 21
-41.25
  0
LINE
  5
129
100
AcDbEntity
  8
Dimensions_screw_holes
  6
ByBlock
 62
    0
370
   -2
100
AcDbLine
 10
-1.148068456708479e-16
 20
-0.625
 11
-2.296136913416957e-16
 21
-41.25
  0
ENDBLK
  5
92
330
90
100
AcDbEntity
  8
0
100
AcDbBlockEnd
  0
BLOCK
  5
94
330
93
100
AcDbEntity
  8
0
100
AcDbBlockBegin
  2
*D12
 70
    1
 10
0
 20
0
  3
*D12
  1

  0
LINE
  5
12A
100
AcDbEntity
  8
Dimensions_slots
  6
ByBlock
 62
    0
370
   -2
100
AcDbLine
 10
33.35
 20
15
 11
42.85
 21
15
  0
MTEXT
  5
12B
100
AcDbEntity
  8
Dimensions_slots
  6
CONTINUOUS
 62
    0
370
   -2
100
AcDbMText
 10
38.1
 20
16.875
 30
0
 40
2.5
 41
5.833333333333645
 71
    5
 72
    1
  1
9.50
  7
standard
210
0
220
0
230
1
 50
0
 73
    2
 44
1
  0
SOLID
  5
12C
100
AcDbEntity
  8
Dimensions_slots
  6
ByBlock
 62
    0
370
   -2
100
AcDbTrace
 10
33.35
 20
15
 30
0
 11
35.85
 21
15.41628465777284
 31
0
 12
35.85
 22
14.58371534222716
 32
0
 13
35.85
 23
14.58371534222716
 33
0
  0
SOLID
  5
12D
100
AcDbEntity
  8
Dimensions_slots
  6
ByBlock
 62
    0
370
   -2
100
AcDbTrace
 10
42.85
 20
15
 30
0
 11
40.35
 21
14.58371534222716
 31
0
 12
40.35
 22
15.41628465777284
 32
0
 13
40.35
 23
15.41628465777284
 33
0
  0
LINE
  5
12E
100
AcDbEntity
  8
Dimensions_slots
  6
ByBlock
 62
    0
370
   -2
100
AcDbLine
 10
33.35
 20
10.225
 11
33.35
 21
16.25
  0
LINE
  5
12F
100
AcDbEntity
  8
Dimensions_slots
  6
ByBlock
 62
    0
370
   -2
100
AcDbLine
 10
42.85
 20
10.225
 11
42.85
 21
16.25
  0
ENDBLK
  5
95
330
93
100
AcDbEntity
  8
0
100
AcDbBlockEnd
  0
BLOCK
  5
97
330
96
100
AcDbEntity
  8
0
100
AcDbBlockBegin
  2
*D10
 70
    1
 10
0
 20
0
  3
*D10
  1

  0
SOLID
  5
130
100
AcDbEntity
  8
Dimensions_slots
  6
ByBlock
 62
    0
370
   -2
100
AcDbTrace
 10
-9.463070113748373
 20
15.41112053489816
 30
0
 11
-11.51677396662463
 21
16.89624457045152
 31
0
 12
-10.92471682961398
 22
17.48159917383563
 32
0
 13
-10.92471682961398
 23
17.48159917383563
 33
0
  0
LINE
  5
131
100
AcDbEntity
  8
Dimensions_slots
  6
ByBlock
 62
    0
370
   -2
100
AcDbLine
 10
-8.76
 20
14.7
 11
-21.18090534288791
 21
27.26312944986756
  0
MTEXT
  5
132
100
AcDbEntity
  8
Dimensions_slots
  6
CONTINUOUS
 62
    0
370
   -2
100
AcDbMText
 10
-13.98863672538409
 20
22.65538145566106
 30
0
 40
2.5
 41
11.66666666666667
 71
    5
 72
    1
  1
4-R1.00
  7
standard
210
0
220
0
230
1
 50
314.673841590387
 73
    2
 44
1
  0
ENDBLK
  5
98
330
96
100
AcDbEntity
  8
0
100
AcDbBlockEnd
  0
BLOCK
  5
9A
330
99
100
AcDbEntity
  8
0
100
AcDbBlockBegin
  2
*D2
 70
    1
 10
0
 20
0
  3
*D2
  1

  0
SOLID
  5
133
100
AcDbEntity
  8
Dimensions_outline
  6
ByBlock
 62
    0
370
   -2
100
AcDbTrace
 10
-78.20165042944954
 20
39.90165042944956
 30
0
 11
-80.263775086831
 21
41.37505967800084
 31
0
 12
-79.67505967800081
 22
41.96377508683103
 32
0
 13
-79.67505967800081
 23
41.96377508683103
 33
0
  0
LINE
  5
134
100
AcDbEntity
  8
Dimensions_outline
  6
ByBlock
 62
    0
370
   -2
100
AcDbLine
 10
-75.55
 20
37.25
 11
-90.37960054988471
 21
52.07960054988479
  0
MTEXT
  5
135
100
AcDbEntity
  8
Dimensions_outline
  6
CONTINUOUS
 62
    0
370
   -2
100
AcDbMText
 10
-82.96480027494235
 20
47.31645070439195
 30
0
 40
2.5
 41
12.22222222222253
 71
    5
 72
    1
  1
4-R3.75
  7
standard
210
0
220
0
230
1
 50
314.9999999999998
 73
    2
 44
1
  0
ENDBLK
  5
9B
330
99
100
AcDbEntity
  8
0
100
AcDbBlockEnd
  0
BLOCK
  5
9D
330
9C
100
AcDbEntity
  8
0
100
AcDbBlockBegin
  2
*D24
 70
    1
 10
0
 20
0
  3
*D24
  1

  0
LINE
  5
136
100
AcDbEntity
  8
Dimensions_holes
  6
ByBlock
 62
    0
370
   -2
100
AcDbLine
 10
-50
 20
8.635
 11
-50
 21
7.105427357601002e-16
  0
MTEXT
  5
137
100
AcDbEntity
  8
Dimensions_holes
  6
CONTINUOUS
 62
    0
370
   -2
100
AcDbMText
 10
-51.875
 20
4.3175
 30
0
 40
2.5
 41
5.833333333333645
 71
    5
 72
    1
  1
8.63
  7
standard
210
0
220
0
230
1
 50
90
 73
    2
 44
1
  0
SOLID
  5
138
100
AcDbEntity
  8
Dimensions_holes
  6
ByBlock
 62
    0
370
   -2
100
AcDbTrace
 10
-50
 20
8.635
 30
0
 11
-49.58371534222716
 21
6.135
 31
0
 12
-50.41628465777284
 22
6.135
 32
0
 13
-50.41628465777284
 23
6.135
 33
0
  0
SOLID
  5
139
100
AcDbEntity
  8
Dimensions_holes
  6
ByBlock
 62
    0
370
   -2
100
AcDbTrace
 10
-50
 20
7.105427357601002e-16
 30
0
 11
-50.41628465777284
 21
2.500000000000001
 31
0
 12
-49.58371534222716
 22
2.500000000000001
 32
0
 13
-49.58371534222716
 23
2.500000000000001
 33
0
  0
LINE
  5
13A
100
AcDbEntity
  8
Dimensions_holes
  6
ByBlock
 62
    0
370
   -2
100
AcDbLine
 10
-41.9
 20
8.635
 11
-51.25
 21
8.635
  0
LINE
  5
13B
100
AcDbEntity
  8
Dimensions_holes
  6
ByBlock
 62
    0
370
   -2
100
AcDbLine
 10
-40.625
 20
7.653789711389858e-17
 11
-51.25
 21
8.636185299878974e-16
  0
ENDBLK
  5
9E
330
9C
100
AcDbEntity
  8
0
100
AcDbBlockEnd
  0
BLOCK
  5
A0
330
9F
100
AcDbEntity
  8
0
100
AcDbBlockBegin
  2
*D18
 70
    1
 10
0
 20
0
  3
*D18
  1

  0
LINE
  5
13C
100
AcDbEntity
  8
Dimensions_slots
  6
ByBlock
 62
    0
370
   -2
100
AcDbLine
 10
70
 20
7.5
 11
70
 21
22.34
  0
MTEXT
  5
13D
100
AcDbEntity
  8
Dimensions_slots
  6
CONTINUOUS
 62
    0
370
   -2
100
AcDbMText
 10
68.125
 20
14.92
 30
0
 40
2.5
 41
7.777777777777779
 71
    5
 72
    1
  1
14.84
  7
standard
210
0
220
0
230
1
 50
90
 73
    2
 44
1
  0
SOLID
  5
13E
100
AcDbEntity
  8
Dimensions_slots
  6
ByBlock
 62
    0
370
   -2
100
AcDbTrace
 10
70
 20
7.5
 30
0
 11
69.58371534222717
 21
10
 31
0
 12
70.41628465777283
 22
10
 32
0
 13
70.41628465777283
 23
10
 33
0
  0
SOLID
  5
13F
100
AcDbEntity
  8
Dimensions_slots
  6
ByBlock
 62
    0
370
   -2
100
AcDbTrace
 10
70
 20
22.34
 30
0
 11
70.41628465777283
 21
19.84
 31
0
 12
69.58371534222717
 22
19.84
 32
0
 13
69.58371534222717
 23
19.84
 33
0
  0
LINE
  5
140
100
AcDbEntity
  8
Dimensions_slots
  6
ByBlock
 62
    0
370
   -2
100
AcDbLine
 10
65.405
 20
7.5
 11
71.25
 21
7.5
  0
LINE
  5
141
100
AcDbEntity
  8
Dimensions_slots
  6
ByBlock
 62
    0
370
   -2
100
AcDbLine
 10
65.405
 20
22.34
 11
71.25
 21
22.34
  0
ENDBLK
  5
A1
330
9F
100
AcDbEntity
  8
0
100
AcDbBlockEnd
  0
BLOCK
  5
A3
330
A2
100
AcDbEntity
  8
0
100
AcDbBlockBegin
  2
*D3
 70
    1
 10
0
 20
0
  3
*D3
  1

  0
LINE
  5
142
100
AcDbEntity
  8
Dimensions_screw_holes
  6
ByBlock
 62
    0
370
   -2
100
AcDbLine
 10
-75.40000000000001
 20
50
 11
75.40000000000001
 21
50
  0
MTEXT
  5
143
100
AcDbEntity
  8
Dimensions_screw_holes
  6
CONTINUOUS
 62
    0
370
   -2
100
AcDbMText
 10
1.148068456708479e-16
 20
51.875
 30
0
 40
2.5
 41
21.52777777777793
 71
    5
 72
    1
  1
150.80 %%P 0.20
  7
standard
210
0
220
0
230
1
 50
0
 73
    2
 44
1
  0
SOLID
  5
144
100
AcDbEntity
  8
Dimensions_screw_holes
  6
ByBlock
 62
    0
370
   -2
100
AcDbTrace
 10
-75.40000000000001
 20
50
 30
0
 11
-72.90000000000001
 21
50.41628465777284
 31
0
 12
-72.90000000000001
 22
49.58371534222716
 32
0
 13
-72.90000000000001
 23
49.58371534222716
 33
0
  0
SOLID
  5
145
100
AcDbEntity
  8
Dimensions_screw_holes
  6
ByBlock
 62
    0
370
   -2
100
AcDbTrace
 10
75.40000000000001
 20
50
 30
0
 11
72.90000000000001
 21
49.58371534222716
 31
0
 12
72.90000000000001
 22
50.41628465777284
 32
0
 13
72.90000000000001
 23
50.41628465777284
 33
0
  0
LINE
  5
146
100
AcDbEntity
  8
Dimensions_screw_holes
  6
ByBlock
 62
    0
370
   -2
100
AcDbLine
 10
-75.40000000000001
 20
37.875
 11
-75.40000000000001
 21
51.25
  0
LINE
  5
147
100
AcDbEntity
  8
Dimensions_screw_holes
  6
ByBlock
 62
    0
370
   -2
100
AcDbLine
 10
75.40000000000001
 20
37.875
 11
75.40000000000001
 21
51.25
  0
ENDBLK
  5
A4
330
A2
100
AcDbEntity
  8
0
100
AcDbBlockEnd
  0
BLOCK
  5
A6
330
A5
100
AcDbEntity
  8
0
100
AcDbBlockBegin
  2
*D29
 70
    1
 10
0
 20
0
  3
*D29
  1

  0
LINE
  5
148
100
AcDbEntity
  8
Dimensions_screw_holes
  6
ByBlock
 62
    0
370
   -2
100
AcDbLine
 10
-84
 20
8.75
 11
-84
 21
-5
  0
MTEXT
  5
149
100
AcDbEntity
  8
Dimensions_screw_holes
  6
CONTINUOUS
 62
    0
370
   -2
100
AcDbMText
 10
-85.875
 20
7.291666666666822
 30
0
 40
2.5
 41
5.833333333333643
 71
    5
 72
    1
  1
3.75
  7
standard
210
0
220
0
230
1
 50
90
 73
    2
 44
1
  0
SOLID
  5
14A
100
AcDbEntity
  8
Dimensions_screw_holes
  6
ByBlock
 62
    0
370
   -2
100
AcDbTrace
 10
-84
 20
3.75
 30
0
 11
-84.41628465777283
 21
6.25
 31
0
 12
-83.58371534222717
 22
6.25
 32
0
 13
-83.58371534222717
 23
6.25
 33
0
  0
SOLID
  5
14B
100
AcDbEntity
  8
Dimensions_screw_holes
  6
ByBlock
 62
    0
370
   -2
100
AcDbTrace
 10
-84
 20
0
 30
0
 11
-83.58371534222717
 21
-2.5
 31
0
 12
-84.41628465777283
 22
-2.5
 32
0
 13
-84.41628465777283
 23
-2.5
 33
0
  0
LINE
  5
14C
100
AcDbEntity
  8
Dimensions_screw_holes
  6
ByBlock
 62
    0
370
   -2
100
AcDbLine
 10
-76.02500000000001
 20
3.75
 11
-85.25
 21
3.75
  0
LINE
  5
14D
100
AcDbEntity
  8
Dimensions_screw_holes
  6
ByBlock
 62
    0
370
   -2
100
AcDbLine
 10
-75.625
 20
7.653789711389858e-17
 11
-85.25
 21
1.530757942277972e-16
  0
ENDBLK
  5
A7
330
A5
100
AcDbEntity
  8
0
100
AcDbBlockEnd
  0
BLOCK
  5
A9
330
A8
100
AcDbEntity
  8
0
100
AcDbBlockBegin
  2
*D9
 70
    1
 10
0
 20
0
  3
*D9
  1

  0
LINE
  5
14E
100
AcDbEntity
  8
Dimensions_slots
  6
ByBlock
 62
    0
370
   -2
100
AcDbLine
 10
-11
 20
7.5
 11
-11
 21
15.7
  0
MTEXT
  5
14F
100
AcDbEntity
  8
Dimensions_slots
  6
CONTINUOUS
 62
    0
370
   -2
100
AcDbMText
 10
-12.875
 20
11.6
 30
0
 40
2.5
 41
5.833333333333334
 71
    5
 72
    1
  1
8.20
  7
standard
210
0
220
0
230
1
 50
90
 73
    2
 44
1
  0
SOLID
  5
150
100
AcDbEntity
  8
Dimensions_slots
  6
ByBlock
 62
    0
370
   -2
100
AcDbTrace
 10
-11
 20
7.5
 30
0
 11
-11.41628465777284
 21
10
 31
0
 12
-10.58371534222716
 22
10
 32
0
 13
-10.58371534222716
 23
10
 33
0
  0
SOLID
  5
151
100
AcDbEntity
  8
Dimensions_slots
  6
ByBlock
 62
    0
370
   -2
100
AcDbTrace
 10
-11
 20
15.7
 30
0
 11
-10.58371534222716
 21
13.2
 31
0
 12
-11.41628465777284
 22
13.2
 32
0
 13
-11.41628465777284
 23
13.2
 33
0
  0
LINE
  5
152
100
AcDbEntity
  8
Dimensions_slots
  6
ByBlock
 62
    0
370
   -2
100
AcDbLine
 10
-9.385
 20
7.5
 11
-12.25
 21
7.5
  0
LINE
  5
153
100
AcDbEntity
  8
Dimensions_slots
  6
ByBlock
 62
    0
370
   -2
100
AcDbLine
 10
-9.385
 20
15.7
 11
-12.25
 21
15.7
  0
ENDBLK
  5
AA
330
A8
100
AcDbEntity
  8
0
100
AcDbBlockEnd
  0
BLOCK
  5
AC
330
AB
100
AcDbEntity
  8
0
100
AcDbBlockBegin
  2
*D30
 70
    1
 10
0
 20
0
  3
*D30
  1

  0
LINE
  5
154
100
AcDbEntity
  8
Dimensions_holes
  6
ByBlock
 62
    0
370
   -2
100
AcDbLine
 10
-44.36859216769115
 20
5.541407832308856
 11
-38.18140783230885
 21
11.72859216769114
  0
MTEXT
  5
155
100
AcDbEntity
  8
Dimensions_holes
  6
CONTINUOUS
 62
    0
370
   -2
100
AcDbMText
 10
-34.7440832015408
 20
17.81756722790874
 30
0
 40
2.5
 41
12.22222222222253
 71
    5
 72
    1
  1
3-%%C8.75
  7
standard
210
0
220
0
230
1
 50
44.99999999999995
 73
    2
 44
1
  0
SOLID
  5
156
100
AcDbEntity
  8
Dimensions_holes
  6
ByBlock
 62
    0
370
   -2
100
AcDbTrace
 10
-44.36859216769115
 20
5.541407832308856
 30
0
 11
-42.89518291913987
 21
7.60353248969032
 31
0
 12
-42.30646751030968
 22
7.014817080860126
 32
0
 13
-42.30646751030968
 23
7.014817080860126
 33
0
  0
SOLID
  5
157
100
AcDbEntity
  8
Dimensions_holes
  6
ByBlock
 62
    0
370
   -2
100
AcDbTrace
 10
-38.18140783230885
 20
11.72859216769114
 30
0
 11
-39.65481708086013
 21
9.66646751030968
 31
0
 12
-40.24353248969032
 22
10.25518291913987
 32
0
 13
-40.24353248969032
 23
10.25518291913987
 33
0
  0
ENDBLK
  5
AD
330
AB
100
AcDbEntity
  8
0
100
AcDbBlockEnd
  0
ENDSEC
  0
SECTION
  2
ENTITIES
  0
LINE
  5
158
100
AcDbEntity
  8
0
  6
ByLayer
 62
  256
370
   -1
100
AcDbLine
 10
-79.3
 20
37.25
 11
-79.3
 21
3.75
  0
LINE
  5
159
100
AcDbEntity
  8
0
  6
ByLayer
 62
  256
370
   -1
100
AcDbLine
 10
-75.55
 20
41
 11
75.55
 21
41
  0
LINE
  5
15A
100
AcDbEntity
  8
0
  6
ByLayer
 62
  256
370
   -1
100
AcDbLine
 10
79.3
 20
37.25
 11
79.3
 21
3.75
  0
LINE
  5
15B
100
AcDbEntity
  8
0
  6
ByLayer
 62
  256
370
   -1
100
AcDbLine
 10
-75.55
 20
0
 11
75.55
 21
0
  0
ARC
  5
15C
100
AcDbEntity
  8
0
  6
ByLayer
 62
  256
370
   -1
100
AcDbCircle
 10
-75.55
 20
3.75
 40
3.75
100
AcDbArc
 50
180
 51
270
  0
ARC
  5
15D
100
AcDbEntity
  8
0
  6
ByLayer
 62
  256
370
   -1
100
AcDbCircle
 10
-75.55
 20
37.25
 40
3.75
100
AcDbArc
 50
90
 51
180
  0
ARC
  5
15E
100
AcDbEntity
  8
0
  6
ByLayer
 62
  256
370
   -1
100
AcDbCircle
 10
75.55
 20
37.25
 40
3.75
100
AcDbArc
 50
0
 51
90
  0
ARC
  5
15F
100
AcDbEntity
  8
0
  6
ByLayer
 62
  256
370
   -1
100
AcDbCircle
 10
75.55
 20
3.75
 40
3.75
100
AcDbArc
 50
270
 51
0
  0
CIRCLE
  5
160
100
AcDbEntity
  8
0
  6
ByLayer
 62
  256
370
   -1
100
AcDbCircle
 10
75.40000000000001
 20
3.75
 40
1.7
  0
CIRCLE
  5
161
100
AcDbEntity
  8
0
  6
ByLayer
 62
  256
370
   -1
100
AcDbCircle
 10
75.40000000000001
 20
37.25
 40
1.7
  0
CIRCLE
  5
162
100
AcDbEntity
  8
0
  6
ByLayer
 62
  256
370
   -1
100
AcDbCircle
 10
-75.40000000000001
 20
37.25
 40
1.7
  0
CIRCLE
  5
163
100
AcDbEntity
  8
0
  6
ByLayer
 62
  256
370
   -1
100
AcDbCircle
 10
-75.40000000000001
 20
3.75
 40
1.7
  0
CIRCLE
  5
164
100
AcDbEntity
  8
0
  6
ByLayer
 62
  256
370
   -1
100
AcDbCircle
 10
-63.5
 20
8.635
 40
4.375
  0
CIRCLE
  5
165
100
AcDbEntity
  8
0
  6
ByLayer
 62
  256
370
   -1
100
AcDbCircle
 10
-41.275
 20
8.635
 40
4.375
  0
CIRCLE
  5
166
100
AcDbEntity
  8
0
  6
ByLayer
 62
  256
370
   -1
100
AcDbCircle
 10
-19.05
 20
8.635
 40
4.375
  0
LINE
  5
167
100
AcDbEntity
  8
0
  6
ByLayer
 62
  256
370
   -1
100
AcDbLine
 10
-8.76
 20
15.7
 11
26.54
 21
15.7
  0
LINE
  5
168
100
AcDbEntity
  8
0
  6
ByLayer
 62
  256
370
   -1
100
AcDbLine
 10
-8.76
 20
7.5
 11
26.54
 21
7.5
  0
LINE
  5
169
100
AcDbEntity
  8
0
  6
ByLayer
 62
  256
370
   -1
100
AcDbLine
 10
-9.76
 20
14.7
 11
-9.76
 21
8.5
  0
LINE
  5
16A
100
AcDbEntity
  8
0
  6
ByLayer
 62
  256
370
   -1
100
AcDbLine
 10
27.54
 20
14.7
 11
27.54
 21
8.5
  0
ARC
  5
16B
100
AcDbEntity
  8
0
  6
ByLayer
 62
  256
370
   -1
100
AcDbCircle
 10
-8.76
 20
14.7
 40
1
100
AcDbArc
 50
90
 51
180
  0
ARC
  5
16C
100
AcDbEntity
  8
0
  6
ByLayer
 62
  256
370
   -1
100
AcDbCircle
 10
-8.76
 20
8.5
 40
1
100
AcDbArc
 50
180
 51
270
  0
ARC
  5
16D
100
AcDbEntity
  8
0
  6
ByLayer
 62
  256
370
   -1
100
AcDbCircle
 10
26.54
 20
8.5
 40
1
100
AcDbArc
 50
270
 51
0
  0
ARC
  5
16E
100
AcDbEntity
  8
0
  6
ByLayer
 62
  256
370
   -1
100
AcDbCircle
 10
26.54
 20
14.7
 40
1
100
AcDbArc
 50
0
 51
90
  0
LINE
  5
16F
100
AcDbEntity
  8
0
  6
ByLayer
 62
  256
370
   -1
100
AcDbLine
 10
42.85
 20
10.2
 11
42.85
 21
9
  0
LINE
  5
170
100
AcDbEntity
  8
0
  6
ByLayer
 62
  256
370
   -1
100
AcDbLine
 10
34.6
 20
11.45
 11
41.6
 21
11.45
  0
LINE
  5
171
100
AcDbEntity
  8
0
  6
ByLayer
 62
  256
370
   -1
100
AcDbLine
 10
33.35
 20
10.2
 11
33.35
 21
9
  0
ARC
  5
172
100
AcDbEntity
  8
0
  6
ByLayer
 62
  256
370
   -1
100
AcDbCircle
 10
34.6
 20
10.2
 40
1.25
100
AcDbArc
 50
90
 51
180
  0
LINE
  5
173
100
AcDbEntity
  8
0
  6
ByLayer
 62
  256
370
   -1
100
AcDbLine
 10
34.6
 20
7.75
 11
41.6
 21
7.75
  0
ARC
  5
174
100
AcDbEntity
  8
0
  6
ByLayer
 62
  256
370
   -1
100
AcDbCircle
 10
34.6
 20
9
 40
1.25
100
AcDbArc
 50
180
 51
270
  0
ARC
  5
175
100
AcDbEntity
  8
0
  6
ByLayer
 62
  256
370
   -1
100
AcDbCircle
 10
41.6
 20
9
 40
1.25
100
AcDbArc
 50
270
 51
0
  0
ARC
  5
176
100
AcDbEntity
  8
0
  6
ByLayer
 62
  256
370
   -1
100
AcDbCircle
 10
41.6
 20
10.2
 40
1.25
100
AcDbArc
 50
0
 51
90
  0
LINE
  5
177
100
AcDbEntity
  8
0
  6
ByLayer
 62
  256
370
   -1
100
AcDbLine
 10
49.52
 20
7.5
 11
64.78
 21
7.5
  0
LINE
  5
178
100
AcDbEntity
  8
0
  6
ByLayer
 62
  256
370
   -1
100
AcDbLine
 10
49.52
 20
22.34
 11
64.78
 21
22.34
  0
LINE
  5
179
100
AcDbEntity
  8
0
  6
ByLayer
 62
  256
370
   -1
100
AcDbLine
 10
48.52
 20
21.34
 11
48.52
 21
8.5
  0
LINE
  5
17A
100
AcDbEntity
  8
0
  6
ByLayer
 62
  256
370
   -1
100
AcDbLine
 10
65.78
 20
21.34
 11
65.78
 21
8.5
  0
ARC
  5
17B
100
AcDbEntity
  8
0
  6
ByLayer
 62
  256
370
   -1
100
AcDbCircle
 10
49.52
 20
21.34
 40
1
100
AcDbArc
 50
90
 51
180
  0
ARC
  5
17C
100
AcDbEntity
  8
0
  6
ByLayer
 62
  256
370
   -1
100
AcDbCircle
 10
49.52
 20
8.5
 40
1
100
AcDbArc
 50
180
 51
270
  0
ARC
  5
17D
100
AcDbEntity
  8
0
  6
ByLayer
 62
  256
370
   -1
100
AcDbCircle
 10
64.78
 20
8.5
 40
1
100
AcDbArc
 50
270
 51
0
  0
ARC
  5
17E
100
AcDbEntity
  8
0
  6
ByLayer
 62
  256
370
   -1
100
AcDbCircle
 10
64.78
 20
21.34
 40
1
100
AcDbArc
 50
0
 51
90
  0
DIMENSION
  5
17F
100
AcDbEntity
  8
Dimensions_outline
  6
ByLayer
 62
  256
370
   -1
100
AcDbDimension
  2
*D1
 10
79.3
 20
60
 30
0
 11
1.148068456708479e-16
 21
61.875
 31
0
 70
   32
 71
    5
  3
Standard
 53
0
210
0
220
0
230
1
100
AcDbAlignedDimension
 13
-79.3
 23
37.25
 33
0
 14
79.3
 24
37.25
 34
0
100
AcDbRotatedDimension
  0
LINE
  5
180
100
AcDbEntity
  8
Dimensions_outline
  6
DASHDOTX2
 62
    1
370
   -1
100
AcDbLine
 10
0
 20
0
 11
0
 21
50
  0
DIMENSION
  5
181
100
AcDbEntity
  8
Dimensions_outline
  6
ByLayer
 62
  256
370
   -1
100
AcDbDimension
  2
*D2
 10
-75.55
 20
37.25
 30
0
 11
-82.96480027494235
 21
47.31645070439195
 31
0
 70
   36
  1
4-R3.75
 71
    5
  3
Standard
 53
0
210
0
220
0
230
1
100
AcDbRadialDimension
 15
-78.20165042944954
 25
39.90165042944956
 35
0
 40
0
  0
CIRCLE
  5
182
100
AcDbEntity
  8
0
  6
DASHED
 62
  256
370
   -1
100
AcDbCircle
 10
-75.40000000000001
 20
37.25
 40
2.75
  0
CIRCLE
  5
183
100
AcDbEntity
  8
0
  6
DASHED
 62
  256
370
   -1
100
AcDbCircle
 10
75.40000000000001
 20
37.25
 40
2.75
  0
CIRCLE
  5
184
100
AcDbEntity
  8
0
  6
DASHED
 62
  256
370
   -1
100
AcDbCircle
 10
75.40000000000001
 20
3.75
 40
2.75
  0
CIRCLE
  5
185
100
AcDbEntity
  8
0
  6
DASHED
 62
  256
370
   -1
100
AcDbCircle
 10
-75.40000000000001
 20
3.75
 40
2.75
  0
DIMENSION
  5
186
100
AcDbEntity
  8
Dimensions_screw_holes
  6
ByLayer
 62
  256
370
   -1
100
AcDbDimension
  2
*D3
 10
75.40000000000001
 20
50
 30
0
 11
1.148068456708479e-16
 21
51.875
 31
0
 70
   32
  1
150.80 %%P 0.20
 71
    5
  3
Standard
 53
0
210
0
220
0
230
1
100
AcDbAlignedDimension
 13
-75.40000000000001
 23
37.25
 33
0
 14
75.40000000000001
 24
37.25
 34
0
100
AcDbRotatedDimension
  0
DIMENSION
  5
187
100
AcDbEntity
  8
Dimensions_screw_holes
  6
ByLayer
 62
  256
370
   -1
100
AcDbDimension
  2
*D4
 10
-90
 20
3.750000000000002
 30
0
 11
-91.875
 21
20.5
 31
0
 70
   32
  1
33.50 %%P 0.20
 71
    5
  3
Standard
 53
0
210
0
220
0
230
1
100
AcDbAlignedDimension
 13
-75.40000000000001
 23
37.25
 33
0
 14
-75.40000000000001
 24
3.75
 34
0
 50
90
100
AcDbRotatedDimension
  0
DIMENSION
  5
188
100
AcDbEntity
  8
Dimensions_outline
  6
ByLayer
 62
  256
370
   -1
100
AcDbDimension
  2
*D5
 10
-100
 20
2.994162535095712e-15
 30
0
 11
-101.875
 21
20.5
 31
0
 70
   32
 71
    5
  3
Standard
 53
0
210
0
220
0
230
1
100
AcDbAlignedDimension
 13
-75.55
 23
41
 33
0
 14
-75.55
 24
0
 34
0
 50
90
100
AcDbRotatedDimension
  0
DIMENSION
  5
189
100
AcDbEntity
  8
Dimensions_slots
  6
ByLayer
 62
  256
370
   -1
100
AcDbDimension
  2
*D6
 10
-1.224606353822377e-15
 20
-20
 30
0
 11
-4.879999999999999
 21
-18.125
 31
0
 70
   32
 71
    5
  3
Standard
 53
0
210
0
220
0
230
1
100
AcDbAlignedDimension
 13
-9.76
 23
8.5
 33
0
 14
0
 24
0
 34
0
100
AcDbRotatedDimension
  0
DIMENSION
  5
18A
100
AcDbEntity
  8
Dimensions_slots
  6
ByLayer
 62
  256
370
   -1
100
AcDbDimension
  2
*D7
 10
27.54
 20
25
 30
0
 11
8.890000000000001
 21
26.875
 31
0
 70
   32
 71
    5
  3
Standard
 53
0
210
0
220
0
230
1
100
AcDbAlignedDimension
 13
-9.76
 23
14.7
 33
0
 14
27.54
 24
14.7
 34
0
100
AcDbRotatedDimension
  0
DIMENSION
  5
18B
100
AcDbEntity
  8
Dimensions_slots
  6
ByLayer
 62
  256
370
   -1
100
AcDbDimension
  2
*D8
 10
-5
 20
6.123031769111886e-16
 30
0
 11
-6.875
 21
3.75
 31
0
 70
   32
 71
    5
  3
Standard
 53
0
210
0
220
0
230
1
100
AcDbAlignedDimension
 13
-8.76
 23
7.5
 33
0
 14
0
 24
0
 34
0
 50
90
100
AcDbRotatedDimension
  0
DIMENSION
  5
18C
100
AcDbEntity
  8
Dimensions_slots
  6
ByLayer
 62
  256
370
   -1
100
AcDbDimension
  2
*D9
 10
-11
 20
15.7
 30
0
 11
-12.875
 21
11.6
 31
0
 70
   32
 71
    5
  3
Standard
 53
0
210
0
220
0
230
1
100
AcDbAlignedDimension
 13
-8.76
 23
7.5
 33
0
 14
-8.76
 24
15.7
 34
0
 50
90
100
AcDbRotatedDimension
  0
DIMENSION
  5
18D
100
AcDbEntity
  8
Dimensions_slots
  6
ByLayer
 62
  256
370
   -1
100
AcDbDimension
  2
*D10
 10
-8.76
 20
14.7
 30
0
 11
-13.98863672538409
 21
22.65538145566106
 31
0
 70
   36
  1
4-R1.00
 71
    5
  3
Standard
 53
0
210
0
220
0
230
1
100
AcDbRadialDimension
 15
-9.463070113748373
 25
15.41112053489816
 35
0
 40
0
  0
DIMENSION
  5
18E
100
AcDbEntity
  8
Dimensions_slots
  6
ByLayer
 62
  256
370
   -1
100
AcDbDimension
  2
*D11
 10
-1.224606353822377e-15
 20
-20
 30
0
 11
16.675
 21
-18.125
 31
0
 70
   32
 71
    5
  3
Standard
 53
0
210
0
220
0
230
1
100
AcDbAlignedDimension
 13
33.35
 23
9.6
 33
0
 14
0
 24
0
 34
0
100
AcDbRotatedDimension
  0
DIMENSION
  5
18F
100
AcDbEntity
  8
Dimensions_slots
  6
ByLayer
 62
  256
370
   -1
100
AcDbDimension
  2
*D12
 10
42.85
 20
15
 30
0
 11
38.1
 21
16.875
 31
0
 70
   32
 71
    5
  3
Standard
 53
0
210
0
220
0
230
1
100
AcDbAlignedDimension
 13
33.35
 23
9.6
 33
0
 14
42.85
 24
9.6
 34
0
100
AcDbRotatedDimension
  0
DIMENSION
  5
190
100
AcDbEntity
  8
Dimensions_slots
  6
ByLayer
 62
  256
370
   -1
100
AcDbDimension
  2
*D13
 10
39
 20
-1.224606353822377e-16
 30
0
 11
37.125
 21
3.875
 31
0
 70
   32
 71
    5
  3
Standard
 53
0
210
0
220
0
230
1
100
AcDbAlignedDimension
 13
38.1
 23
7.75
 33
0
 14
38
 24
0
 34
0
 50
90
100
AcDbRotatedDimension
  0
DIMENSION
  5
191
100
AcDbEntity
  8
Dimensions_slots
  6
ByLayer
 62
  256
370
   -1
100
AcDbDimension
  2
*D14
 10
32
 20
11.45
 30
0
 11
30.125
 21
9.6
 31
0
 70
   32
 71
    5
  3
Standard
 53
0
210
0
220
0
230
1
100
AcDbAlignedDimension
 13
34.6
 23
7.75
 33
0
 14
34.6
 24
11.45
 34
0
 50
90
100
AcDbRotatedDimension
  0
DIMENSION
  5
192
100
AcDbEntity
  8
Dimensions_slots
  6
ByLayer
 62
  256
370
   -1
100
AcDbDimension
  2
*D15
 10
-1.836909530733566e-15
 20
-30
 30
0
 11
24.26
 21
-28.125
 31
0
 70
   32
 71
    5
  3
Standard
 53
0
210
0
220
0
230
1
100
AcDbAlignedDimension
 13
48.52
 23
8.5
 33
0
 14
0
 24
0
 34
0
100
AcDbRotatedDimension
  0
DIMENSION
  5
193
100
AcDbEntity
  8
Dimensions_slots
  6
ByLayer
 62
  256
370
   -1
100
AcDbDimension
  2
*D16
 10
65.78
 20
25
 30
0
 11
57.15000000000001
 21
26.875
 31
0
 70
   32
 71
    5
  3
Standard
 53
0
210
0
220
0
230
1
100
AcDbAlignedDimension
 13
48.52
 23
21.34
 33
0
 14
65.78
 24
21.34
 34
0
100
AcDbRotatedDimension
  0
DIMENSION
  5
194
100
AcDbEntity
  8
Dimensions_slots
  6
ByLayer
 62
  256
370
   -1
100
AcDbDimension
  2
*D17
 10
56
 20
1.224606353822377e-16
 30
0
 11
54.125
 21
3.75
 31
0
 70
   32
 71
    5
  3
Standard
 53
0
210
0
220
0
230
1
100
AcDbAlignedDimension
 13
57.15000000000001
 23
7.5
 33
0
 14
57
 24
0
 34
0
 50
90
100
AcDbRotatedDimension
  0
DIMENSION
  5
195
100
AcDbEntity
  8
Dimensions_slots
  6
ByLayer
 62
  256
370
   -1
100
AcDbDimension
  2
*D18
 10
70
 20
22.34
 30
0
 11
68.125
 21
14.92
 31
0
 70
   32
 71
    5
  3
Standard
 53
0
210
0
220
0
230
1
100
AcDbAlignedDimension
 13
64.78
 23
7.5
 33
0
 14
64.78
 24
22.34
 34
0
 50
90
100
AcDbRotatedDimension
  0
DIMENSION
  5
196
100
AcDbEntity
  8
Dimensions_slots
  6
ByLayer
 62
  256
370
   -1
100
AcDbDimension
  2
*D19
 10
64.78
 20
21.34
 30
0
 11
70.78149030206809
 21
28.72978012293287
 31
0
 70
   36
  1
4-R1.00
 71
    5
  3
Standard
 53
0
210
0
220
0
230
1
100
AcDbRadialDimension
 15
65.55096175162709
 25
21.97688144699629
 35
0
 40
0
  0
DIMENSION
  5
197
100
AcDbEntity
  8
Dimensions_slots
  6
ByLayer
 62
  256
370
   -1
100
AcDbDimension
  2
*D20
 10
41.6
 20
10.2
 30
0
 11
48.67844770957058
 21
16.92692208968219
 31
0
 70
   36
  1
4-R1.25
 71
    5
  3
Standard
 53
0
210
0
220
0
230
1
100
AcDbRadialDimension
 15
42.65457685966513
 25
10.87109436524145
 35
0
 40
0
  0
DIMENSION
  5
198
100
AcDbEntity
  8
Dimensions_holes
  6
ByLayer
 62
  256
370
   -1
100
AcDbDimension
  2
*D21
 10
-1.836909530733566e-15
 20
-30
 30
0
 11
-9.525
 21
-28.125
 31
0
 70
   32
 71
    5
  3
Standard
 53
0
210
0
220
0
230
1
100
AcDbAlignedDimension
 13
-19.05
 23
8.635
 33
0
 14
0
 24
0
 34
0
100
AcDbRotatedDimension
  0
DIMENSION
  5
199
100
AcDbEntity
  8
Dimensions_holes
  6
ByLayer
 62
  256
370
   -1
100
AcDbDimension
  2
*D22
 10
-41.275
 20
-29.99999999999999
 30
0
 11
-30.1625
 21
-28.12499999999999
 31
0
 70
   32
 71
    5
  3
Standard
 53
0
210
0
220
0
230
1
100
AcDbAlignedDimension
 13
-19.05
 23
8.635
 33
0
 14
-41.275
 24
8.635
 34
0
100
AcDbRotatedDimension
  0
DIMENSION
  5
19A
100
AcDbEntity
  8
Dimensions_holes
  6
ByLayer
 62
  256
370
   -1
100
AcDbDimension
  2
*D23
 10
-63.5
 20
-29.99999999999999
 30
0
 11
-52.3875
 21
-28.12499999999999
 31
0
 70
   32
 71
    5
  3
Standard
 53
0
210
0
220
0
230
1
100
AcDbAlignedDimension
 13
-41.275
 23
8.635
 33
0
 14
-63.5
 24
8.635
 34
0
100
AcDbRotatedDimension
  0
DIMENSION
  5
19B
100
AcDbEntity
  8
Dimensions_holes
  6
ByLayer
 62
  256
370
   -1
100
AcDbDimension
  2
*D24
 10
-50
 20
1.224606353822377e-15
 30
0
 11
-51.875
 21
4.3175
 31
0
 70
   32
 71
    5
  3
Standard
 53
0
210
0
220
0
230
1
100
AcDbAlignedDimension
 13
-41.275
 23
8.635
 33
0
 14
-40
 24
0
 34
0
 50
90
100
AcDbRotatedDimension
  0
DIMENSION
  5
19C
100
AcDbEntity
  8
Dimensions_outline
  6
ByLayer
 62
  256
370
   -1
100
AcDbDimension
  2
*D25
 10
-3.061515884555943e-15
 20
-50
 30
0
 11
39.65
 21
-48.125
 31
0
 70
   32
 71
    5
  3
Standard
 53
0
210
0
220
0
230
1
100
AcDbAlignedDimension
 13
79.3
 23
3.75
 33
0
 14
0
 24
0
 34
0
100
AcDbRotatedDimension
  0
DIMENSION
  5
19D
100
AcDbEntity
  8
Dimensions_outline
  6
ByLayer
 62
  256
370
   -1
100
AcDbDimension
  2
*D26
 10
-3.061515884555943e-15
 20
-50
 30
0
 11
-39.65
 21
-48.125
 31
0
 70
   32
 71
    5
  3
Standard
 53
0
210
0
220
0
230
1
100
AcDbAlignedDimension
 13
-79.3
 23
3.75
 33
0
 14
0
 24
0
 34
0
100
AcDbRotatedDimension
  0
DIMENSION
  5
19E
100
AcDbEntity
  8
Dimensions_screw_holes
  6
ByLayer
 62
  256
370
   -1
100
AcDbDimension
  2
*D27
 10
-2.449212707644754e-15
 20
-39.99999999999999
 30
0
 11
37.7
 21
-38.12499999999999
 31
0
 70
   32
 71
    5
  3
Standard
 53
0
210
0
220
0
230
1
100
AcDbAlignedDimension
 13
75.40000000000001
 23
3.75
 33
0
 14
0
 24
0
 34
0
100
AcDbRotatedDimension
  0
DIMENSION
  5
19F
100
AcDbEntity
  8
Dimensions_screw_holes
  6
ByLayer
 62
  256
370
   -1
100
AcDbDimension
  2
*D28
 10
-2.449212707644755e-15
 20
-40
 30
0
 11
-37.7
 21
-38.125
 31
0
 70
   32
 71
    5
  3
Standard
 53
0
210
0
220
0
230
1
100
AcDbAlignedDimension
 13
-75.40000000000001
 23
3.75
 33
0
 14
0
 24
0
 34
0
100
AcDbRotatedDimension
  0
DIMENSION
  5
1A0
100
AcDbEntity
  8
Dimensions_screw_holes
  6
ByLayer
 62
  256
370
   -1
100
AcDbDimension
  2
*D29
 10
-84
 20
1.10214571844014e-15
 30
0
 11
-85.875
 21
1.875
 31
0
 70
   32
 71
    5
  3
Standard
 53
0
210
0
220
0
230
1
100
AcDbAlignedDimension
 13
-75.40000000000001
 23
3.75
 33
0
 14
-75
 24
0
 34
0
 50
90
100
AcDbRotatedDimension
  0
DIMENSION
  5
1A1
100
AcDbEntity
  8
Dimensions_holes
  6
ByLayer
 62
  256
370
   -1
100
AcDbDimension
  2
*D30
 10
-44.36859216769115
 20
5.541407832308856
 30
0
 11
-42.60082521472477
 21
9.960825214724778
 31
0
 70
   35
  1
3-%%C8.75
 71
    5
  3
Standard
 53
0
210
0
220
0
230
1
100
AcDbDiametricDimension
 15
-38.18140783230885
 25
11.72859216769114
 35
0
 40
0
  0
DIMENSION
  5
1A2
100
AcDbEntity
  8
Dimensions_screw_holes
  6
ByLayer
 62
  256
370
   -1
100
AcDbDimension
  2
*D31
 10
73.9408644655262
 20
36.37769071308632
 30
0
 11
74.4378941688452
 21
38.85934066302257
 31
0
 70
   35
  1
4-%%C3.40
 71
    5
  3
Standard
 53
0
210
0
220
0
230
1
100
AcDbDiametricDimension
 15
76.85913553447381
 25
38.12230928691368
 35
0
 40
0
  0
MTEXT
  5
1A3
100
AcDbEntity
  8
Dimensions_screw_holes
  6
ByLayer
 62
  256
370
   -1
100
AcDbMText
 10
89
 20
46
 30
0
 40
1.5
 41
15.08333410476422
 71
    7
 72
    1
  1
Countersunk\Pfor M3.0 screw
  7

210
0
220
0
230
1
 50
0
 73
    2
 44
1
  0
MTEXT
  5
1A4
100
AcDbEntity
  8
Dimensions_outline
  6
ByLayer
 62
  256
370
   -1
100
AcDbMText
 10
-72
 20
43
 30
0
 40
2
 41
79.44444753016886
 71
    7
 72
    1
  1
Material: Aluminium. Thickness: 1.5mm. Finish: Red Anodize.
  7

210
0
220
0
230
1
 50
0
 73
    2
 44
1
  0
ENDSEC
  0
SECTION
  2
OBJECTS
  0
DICTIONARY
  5
C
330
0
100
AcDbDictionary
281
    1
  3
ACAD_GROUP
350
D
  0
DICTIONARY
  5
D
330
C
100
AcDbDictionary
281
    1
  0
PLOTSETTINGS
  5
1A5
100
AcDbPlotSettings
  6
1x1
 40
0
 41
0
 42
0
 43
0
  0
ENDSEC
  0
EOF
