999
dxfrw 0.6.3
  0
SECTION
  2
HEADER
  9
$ACADVER
  1
AC1021
  9
$DWGCODEPAGE
  3
ANSI_1252
  9
$INSBASE
 10
0
 20
0
 30
0
  9
$EXTMIN
 10
-23.12499999999999
 20
-31.25
 30
0
  9
$EXTMAX
 10
191.2528816576823
 20
123.125
 30
0
  9
$LIMMIN
 10
0
 20
0
  9
$LIMMAX
 10
420
 20
297
  9
$ORTHOMODE
 70
    0
  9
$REGENMODE
 70
    1
  9
$FILLMODE
 70
    1
  9
$QTEXTMODE
 70
    0
  9
$MIRRTEXT
 70
    0
  9
$LTSCALE
 40
1
  9
$ATTMODE
 70
    0
  9
$TEXTSIZE
 40
2.5
  9
$TRACEWID
 40
15.68
  9
$TEXTSTYLE
  7
STANDARD
  9
$CLAYER
  8
Dimensions
  9
$CELTYPE
  6
BYLAYER
  9
$CECOLOR
 62
  256
  9
$CELTSCALE
 40
1
  9
$DISPSILH
 70
    0
  9
$DIMSCALE
 40
1
  9
$DIMASZ
 40
2.5
  9
$DIMEXO
 40
0.625
  9
$DIMDLI
 40
3.75
  9
$DIMRND
 40
0
  9
$DIMDLE
 40
0
  9
$DIMEXE
 40
1.25
  9
$DIMTP
 40
0
  9
$DIMTM
 40
0
  9
$DIMTXT
 40
2.5
  9
$DIMCEN
 40
2.5
  9
$DIMTSZ
 40
0
  9
$DIMTOL
 70
    0
  9
$DIMLIM
 70
    0
  9
$DIMTIH
 70
    0
  9
$DIMTOH
 70
    0
  9
$DIMSE1
 70
    0
  9
$DIMSE2
 70
    0
  9
$DIMTAD
 70
    1
  9
$DIMZIN
 70
    1
  9
$DIMBLK
  1

  9
$DIMASO
 70
    1
  9
$DIMSHO
 70
    1
  9
$DIMPOST
  1

  9
$DIMAPOST
  1

  9
$DIMALT
 70
    0
  9
$DIMALTD
 70
    3
  9
$DIMALTF
 40
0.03937
  9
$DIMLFAC
 40
1
  9
$DIMTOFL
 70
    1
  9
$DIMTVP
 40
0
  9
$DIMTIX
 70
    0
  9
$DIMSOXD
 70
    0
  9
$DIMSAH
 70
    0
  9
$DIMBLK1
  1

  9
$DIMBLK2
  1

  9
$DIMSTYLE
  2
STANDARD
  9
$DIMCLRD
 70
    5
  9
$DIMCLRE
 70
    0
  9
$DIMCLRT
 70
    5
  9
$DIMTFAC
 40
1
  9
$DIMGAP
 40
0.625
  9
$DIMJUST
 70
    0
  9
$DIMSD1
 70
    0
  9
$DIMSD2
 70
    0
  9
$DIMTOLJ
 70
    0
  9
$DIMTZIN
 70
    8
  9
$DIMALTZ
 70
    0
  9
$DIMALTTZ
 70
    0
  9
$DIMUPT
 70
    0
  9
$DIMDEC
 70
    1
  9
$DIMTDEC
 70
    2
  9
$DIMALTU
 70
    2
  9
$DIMALTTD
 70
    3
  9
$DIMTXSTY
  7
STANDARD
  9
$DIMAUNIT
 70
    0
  9
$DIMADEC
 70
    2
  9
$DIMALTRND
 40
0
  9
$DIMAZIN
 70
    0
  9
$DIMDSEP
 70
   44
  9
$DIMATFIT
 70
    3
  9
$DIMFRAC
 70
    0
  9
$DIMLDRBLK
  1
STANDARD
  9
$DIMLUNIT
 70
    2
  9
$DIMLWD
 70
   -2
  9
$DIMLWE
 70
   -2
  9
$DIMTMOVE
 70
    0
  9
$DIMFXL
 40
1
  9
$DIMFXLON
 70
    0
  9
$DIMJOGANG
 40
0.7854
  9
$DIMTFILL
 70
    0
  9
$DIMTFILLCLR
 70
    0
  9
$DIMARCSYM
 70
    0
  9
$DIMLTYPE
  6

  9
$DIMLTEX1
  6

  9
$DIMLTEX2
  6

  9
$LUNITS
 70
    2
  9
$LUPREC
 70
    4
  9
$SKETCHINC
 40
1
  9
$FILLETRAD
 40
0
  9
$AUNITS
 70
    0
  9
$AUPREC
 70
    2
  9
$MENU
  1
.
  9
$ELEVATION
 40
0
  9
$PELEVATION
 40
0
  9
$THICKNESS
 40
0
  9
$LIMCHECK
 70
    0
  9
$CHAMFERA
 40
0
  9
$CHAMFERB
 40
0
  9
$CHAMFERC
 40
0
  9
$CHAMFERD
 40
0
  9
$SKPOLY
 70
    0
  9
$USRTIMER
 70
    1
  9
$ANGBASE
 50
0
  9
$ANGDIR
 70
    0
  9
$PDMODE
 70
   34
  9
$PDSIZE
 40
0
  9
$PLINEWID
 40
0
  9
$SPLFRAME
 70
    0
  9
$SPLINETYPE
 70
    2
  9
$SPLINESEGS
 70
    8
  9
$HANDSEED
  5
20000
  9
$SURFTAB1
 70
    6
  9
$SURFTAB2
 70
    6
  9
$SURFTYPE
 70
    6
  9
$SURFU
 70
    6
  9
$SURFV
 70
    6
  9
$UCSBASE
  2

  9
$UCSNAME
  2

  9
$UCSORG
 10
0
 20
0
 30
0
  9
$UCSXDIR
 10
1
 20
0
 30
0
  9
$UCSYDIR
 10
0
 20
1
 30
0
  9
$UCSORTHOREF
  2

  9
$UCSORTHOVIEW
 70
    0
  9
$UCSORGTOP
 10
0
 20
0
 30
0
  9
$UCSORGBOTTOM
 10
0
 20
0
 30
0
  9
$UCSORGLEFT
 10
0
 20
0
 30
0
  9
$UCSORGRIGHT
 10
0
 20
0
 30
0
  9
$UCSORGFRONT
 10
0
 20
0
 30
0
  9
$UCSORGBACK
 10
0
 20
0
 30
0
  9
$PUCSBASE
  2

  9
$PUCSNAME
  2

  9
$PUCSORG
 10
0
 20
0
 30
0
  9
$PUCSXDIR
 10
1
 20
0
 30
0
  9
$PUCSYDIR
 10
0
 20
1
 30
0
  9
$PUCSORTHOREF
  2

  9
$PUCSORTHOVIEW
 70
    0
  9
$PUCSORGTOP
 10
0
 20
0
 30
0
  9
$PUCSORGBOTTOM
 10
0
 20
0
 30
0
  9
$PUCSORGLEFT
 10
0
 20
0
 30
0
  9
$PUCSORGRIGHT
 10
0
 20
0
 30
0
  9
$PUCSORGFRONT
 10
0
 20
0
 30
0
  9
$PUCSORGBACK
 10
0
 20
0
 30
0
  9
$USERI1
 70
    0
  9
$USERI2
 70
    0
  9
$USERI3
 70
    0
  9
$USERI4
 70
    0
  9
$USERI5
 70
    0
  9
$USERR1
 40
0
  9
$USERR2
 40
0
  9
$USERR3
 40
0
  9
$USERR4
 40
0
  9
$USERR5
 40
0
  9
$WORLDVIEW
 70
    1
  9
$SHADEDGE
 70
    3
  9
$SHADEDIF
 70
   70
  9
$TILEMODE
 70
    1
  9
$MAXACTVP
 70
   64
  9
$PINSBASE
 10
34.14581328546319
 20
42.51012145748988
 30
0
  9
$PLIMCHECK
 70
    0
  9
$PEXTMIN
 10
0
 20
0
 30
0
  9
$PEXTMAX
 10
0
 20
0
 30
0
  9
$GRIDMODE
 70
    1
  9
$SNAPSTYLE
 70
    0
  9
$GRIDUNIT
 10
0.01
 20
0.01
  9
$PLIMMIN
 10
0
 20
0
  9
$PLIMMAX
 10
297
 20
210
  9
$UNITMODE
 70
    0
  9
$VISRETAIN
 70
    1
  9
$PLINEGEN
 70
    0
  9
$PSLTSCALE
 70
    1
  9
$TREEDEPTH
 70
 3020
  9
$CMLSTYLE
  2
Standard
  9
$CMLJUST
 70
    0
  9
$CMLSCALE
 40
20
  9
$PROXYGRAPHICS
 70
    1
  9
$MEASUREMENT
 70
    1
  9
$CELWEIGHT
370
   -1
  9
$ENDCAPS
280
    0
  9
$JOINSTYLE
280
    0
  9
$LWDISPLAY
290
    0
  9
$INSUNITS
 70
    4
  9
$HYPERLINKBASE
  1

  9
$STYLESHEET
  1

  9
$XEDIT
290
    1
  9
$CEPSNTYPE
380
    0
  9
$PSTYLEMODE
290
    1
  9
$EXTNAMES
290
    1
  9
$PSVPSCALE
 40
1.360323886639676
  9
$OLESTARTUP
290
    0
  9
$SORTENTS
280
  127
  9
$INDEXCTL
280
    0
  9
$HIDETEXT
280
    1
  9
$XCLIPFRAME
290
    0
  9
$HALOGAP
280
    0
  9
$OBSCOLOR
 70
  257
  9
$OBSLTYPE
280
    0
  9
$INTERSECTIONDISPLAY
280
    0
  9
$INTERSECTIONCOLOR
 70
  257
  9
$DIMASSOC
280
    1
  9
$PROJECTNAME
  1

  9
$CAMERADISPLAY
290
    0
  9
$LENSLENGTH
 40
50
  9
$CAMERAHEIGHT
 40
0
  9
$STEPSPERSEC
 40
2
  9
$STEPSIZE
 40
50
  9
$3DDWFPREC
 40
2
  9
$PSOLWIDTH
 40
5
  9
$PSOLHEIGHT
 40
80
  9
$LOFTANG1
 40
1.570796326794897
  9
$LOFTANG2
 40
1.570796326794897
  9
$LOFTMAG1
 40
0
  9
$LOFTMAG2
 40
0
  9
$LOFTPARAM
 70
    7
  9
$LOFTNORMALS
280
    1
  9
$LATITUDE
 40
1
  9
$LONGITUDE
 40
1
  9
$NORTHDIRECTION
 40
0
  9
$TIMEZONE
 70
-8000
  9
$LIGHTGLYPHDISPLAY
280
    1
  9
$TILEMODELIGHTSYNCH
280
    1
  9
$SOLIDHIST
280
    1
  9
$SHOWHIST
280
    1
  9
$DWFFRAME
280
    2
  9
$DGNFRAME
280
    0
  9
$REALWORLDSCALE
290
    1
  9
$INTERFERECOLOR
 62
    1
  9
$CSHADOW
280
    0
  9
$SHADOWPLANELOCATION
 40
0
  0
ENDSEC
  0
SECTION
  2
CLASSES
  0
ENDSEC
  0
SECTION
  2
TABLES
  0
TABLE
  2
VPORT
  5
8
330
0
100
AcDbSymbolTable
 70
    1
  0
VPORT
  5
31
330
2
100
AcDbSymbolTableRecord
100
AcDbViewportTableRecord
  2
*ACTIVE
 70
    0
 10
0
 20
0
 11
1
 21
1
 12
115.0912544696066
 22
62.65159415971392
 13
0
 23
0
 14
10
 24
10
 15
0.01
 25
0.01
 16
0
 26
0
 36
1
 17
0
 27
0
 37
0
 40
158.0549761620977
 41
1.846332945285215
 42
50
 43
0
 44
0
 50
0
 51
0
 71
    0
 72
  100
 73
    1
 74
    3
 75
    0
 76
    1
 77
    0
 78
    0
281
    0
 65
    1
110
0
120
0
130
0
111
1
121
0
131
0
112
0
122
1
132
0
 79
    0
146
0
348
10020
 60
    3
 61
    5
292
1
282
    1
141
0
142
0
 63
  250
421
3358443
  0
ENDTAB
  0
TABLE
  2
LTYPE
  5
5
330
0
100
AcDbSymbolTable
 70
    4
  0
LTYPE
  5
14
330
5
100
AcDbSymbolTableRecord
100
AcDbLinetypeTableRecord
  2
ByBlock
 70
    0
  3

 72
   65
 73
    0
 40
0
  0
LTYPE
  5
15
330
5
100
AcDbSymbolTableRecord
100
AcDbLinetypeTableRecord
  2
ByLayer
 70
    0
  3

 72
   65
 73
    0
 40
0
  0
LTYPE
  5
16
330
5
100
AcDbSymbolTableRecord
100
AcDbLinetypeTableRecord
  2
Continuous
 70
    0
  3
Solid line
 72
   65
 73
    0
 40
0
  0
LTYPE
  5
32
330
5
100
AcDbSymbolTableRecord
100
AcDbLinetypeTableRecord
  2
DOT
 70
    0
  3
Dot . . . . . . . . . . . . . . . . . . . . . .
 72
   65
 73
    2
 40
6.35
 49
0
 74
    0
 49
-6.35
 74
    0
  0
LTYPE
  5
33
330
5
100
AcDbSymbolTableRecord
100
AcDbLinetypeTableRecord
  2
DOTTINY
 70
    0
  3
Dot (.15x) .....................................
 72
   65
 73
    2
 40
0.9525
 49
0
 74
    0
 49
-0.9525
 74
    0
  0
LTYPE
  5
34
330
5
100
AcDbSymbolTableRecord
100
AcDbLinetypeTableRecord
  2
DOT2
 70
    0
  3
Dot (.5x) .....................................
 72
   65
 73
    2
 40
3.175
 49
0
 74
    0
 49
-3.175
 74
    0
  0
LTYPE
  5
35
330
5
100
AcDbSymbolTableRecord
100
AcDbLinetypeTableRecord
  2
DOTX2
 70
    0
  3
Dot (2x) .  .  .  .  .  .  .  .  .  .  .  .  .
 72
   65
 73
    2
 40
12.7
 49
0
 74
    0
 49
-12.7
 74
    0
  0
LTYPE
  5
36
330
5
100
AcDbSymbolTableRecord
100
AcDbLinetypeTableRecord
  2
DASHED
 70
    0
  3
Dashed _ _ _ _ _ _ _ _ _ _ _ _ _ _ _ _ _
 72
   65
 73
    2
 40
19.05
 49
12.7
 74
    0
 49
-6.35
 74
    0
  0
LTYPE
  5
37
330
5
100
AcDbSymbolTableRecord
100
AcDbLinetypeTableRecord
  2
DASHEDTINY
 70
    0
  3
Dashed (.15x) _ _ _ _ _ _ _ _ _ _ _ _ _ _ _ _ _
 72
   65
 73
    2
 40
2.8575
 49
1.905
 74
    0
 49
-0.9525
 74
    0
  0
LTYPE
  5
38
330
5
100
AcDbSymbolTableRecord
100
AcDbLinetypeTableRecord
  2
DASHED2
 70
    0
  3
Dashed (.5x) _ _ _ _ _ _ _ _ _ _ _ _ _ _ _ _ _
 72
   65
 73
    2
 40
9.524999999999999
 49
6.35
 74
    0
 49
-3.175
 74
    0
  0
LTYPE
  5
39
330
5
100
AcDbSymbolTableRecord
100
AcDbLinetypeTableRecord
  2
DASHEDX2
 70
    0
  3
Dashed (2x) ____  ____  ____  ____  ____  ___
 72
   65
 73
    2
 40
38.09999999999999
 49
25.4
 74
    0
 49
-12.7
 74
    0
  0
LTYPE
  5
3A
330
5
100
AcDbSymbolTableRecord
100
AcDbLinetypeTableRecord
  2
DASHDOT
 70
    0
  3
Dash dot __ . __ . __ . __ . __ . __ . __ . __
 72
   65
 73
    4
 40
25.4
 49
12.7
 74
    0
 49
-6.35
 74
    0
 49
0
 74
    0
 49
-6.35
 74
    0
  0
LTYPE
  5
3B
330
5
100
AcDbSymbolTableRecord
100
AcDbLinetypeTableRecord
  2
DASHDOTTINY
 70
    0
  3
Dash dot (.15x) _._._._._._._._._._._._._._._.
 72
   65
 73
    4
 40
3.81
 49
1.905
 74
    0
 49
-0.9525
 74
    0
 49
0
 74
    0
 49
-0.9525
 74
    0
  0
LTYPE
  5
3C
330
5
100
AcDbSymbolTableRecord
100
AcDbLinetypeTableRecord
  2
DASHDOT2
 70
    0
  3
Dash dot (.5x) _._._._._._._._._._._._._._._.
 72
   65
 73
    4
 40
12.7
 49
6.35
 74
    0
 49
-3.175
 74
    0
 49
0
 74
    0
 49
-3.175
 74
    0
  0
LTYPE
  5
3D
330
5
100
AcDbSymbolTableRecord
100
AcDbLinetypeTableRecord
  2
DASHDOTX2
 70
    0
  3
Dash dot (2x) ____  .  ____  .  ____  .  ___
 72
   65
 73
    4
 40
50.8
 49
25.4
 74
    0
 49
-12.7
 74
    0
 49
0
 74
    0
 49
-12.7
 74
    0
  0
LTYPE
  5
3E
330
5
100
AcDbSymbolTableRecord
100
AcDbLinetypeTableRecord
  2
DIVIDE
 70
    0
  3
Divide ____ . . ____ . . ____ . . ____ . . ____
 72
   65
 73
    6
 40
31.75
 49
12.7
 74
    0
 49
-6.35
 74
    0
 49
0
 74
    0
 49
-6.35
 74
    0
 49
0
 74
    0
 49
-6.35
 74
    0
  0
LTYPE
  5
3F
330
5
100
AcDbSymbolTableRecord
100
AcDbLinetypeTableRecord
  2
DIVIDETINY
 70
    0
  3
Divide (.15x) __..__..__..__..__..__..__..__.._
 72
   65
 73
    6
 40
4.7625
 49
1.905
 74
    0
 49
-0.9525
 74
    0
 49
0
 74
    0
 49
-0.9525
 74
    0
 49
0
 74
    0
 49
-0.9525
 74
    0
  0
LTYPE
  5
40
330
5
100
AcDbSymbolTableRecord
100
AcDbLinetypeTableRecord
  2
DIVIDE2
 70
    0
  3
Divide (.5x) __..__..__..__..__..__..__..__.._
 72
   65
 73
    6
 40
15.875
 49
6.35
 74
    0
 49
-3.175
 74
    0
 49
0
 74
    0
 49
-3.175
 74
    0
 49
0
 74
    0
 49
-3.175
 74
    0
  0
LTYPE
  5
41
330
5
100
AcDbSymbolTableRecord
100
AcDbLinetypeTableRecord
  2
DIVIDEX2
 70
    0
  3
Divide (2x) ________  .  .  ________  .  .  _
 72
   65
 73
    6
 40
63.5
 49
25.4
 74
    0
 49
-12.7
 74
    0
 49
0
 74
    0
 49
-12.7
 74
    0
 49
0
 74
    0
 49
-12.7
 74
    0
  0
LTYPE
  5
42
330
5
100
AcDbSymbolTableRecord
100
AcDbLinetypeTableRecord
  2
BORDER
 70
    0
  3
Border __ __ . __ __ . __ __ . __ __ . __ __ .
 72
   65
 73
    6
 40
44.45
 49
12.7
 74
    0
 49
-6.35
 74
    0
 49
12.7
 74
    0
 49
-6.35
 74
    0
 49
0
 74
    0
 49
-6.35
 74
    0
  0
LTYPE
  5
43
330
5
100
AcDbSymbolTableRecord
100
AcDbLinetypeTableRecord
  2
BORDERTINY
 70
    0
  3
Border (.15x) __.__.__.__.__.__.__.__.__.__.__.
 72
   65
 73
    6
 40
6.6675
 49
1.905
 74
    0
 49
-0.9525
 74
    0
 49
1.905
 74
    0
 49
-0.9525
 74
    0
 49
0
 74
    0
 49
-0.9525
 74
    0
  0
LTYPE
  5
44
330
5
100
AcDbSymbolTableRecord
100
AcDbLinetypeTableRecord
  2
BORDER2
 70
    0
  3
Border (.5x) __.__.__.__.__.__.__.__.__.__.__.
 72
   65
 73
    6
 40
22.225
 49
6.35
 74
    0
 49
-3.175
 74
    0
 49
6.35
 74
    0
 49
-3.175
 74
    0
 49
0
 74
    0
 49
-3.175
 74
    0
  0
LTYPE
  5
45
330
5
100
AcDbSymbolTableRecord
100
AcDbLinetypeTableRecord
  2
BORDERX2
 70
    0
  3
Border (2x) ____  ____  .  ____  ____  .  ___
 72
   65
 73
    6
 40
88.89999999999999
 49
25.4
 74
    0
 49
-12.7
 74
    0
 49
25.4
 74
    0
 49
-12.7
 74
    0
 49
0
 74
    0
 49
-12.7
 74
    0
  0
LTYPE
  5
46
330
5
100
AcDbSymbolTableRecord
100
AcDbLinetypeTableRecord
  2
CENTER
 70
    0
  3
Center ____ _ ____ _ ____ _ ____ _ ____ _ ____
 72
   65
 73
    4
 40
50.8
 49
31.75
 74
    0
 49
-6.35
 74
    0
 49
6.35
 74
    0
 49
-6.35
 74
    0
  0
LTYPE
  5
47
330
5
100
AcDbSymbolTableRecord
100
AcDbLinetypeTableRecord
  2
CENTERTINY
 70
    0
  3
Center (.15x) ___ _ ___ _ ___ _ ___ _ ___ _ ___
 72
   65
 73
    4
 40
7.62
 49
4.7625
 74
    0
 49
-0.9525
 74
    0
 49
0.9525
 74
    0
 49
-0.9525
 74
    0
  0
LTYPE
  5
48
330
5
100
AcDbSymbolTableRecord
100
AcDbLinetypeTableRecord
  2
CENTER2
 70
    0
  3
Center (.5x) ___ _ ___ _ ___ _ ___ _ ___ _ ___
 72
   65
 73
    4
 40
28.575
 49
19.05
 74
    0
 49
-3.175
 74
    0
 49
3.175
 74
    0
 49
-3.175
 74
    0
  0
LTYPE
  5
49
330
5
100
AcDbSymbolTableRecord
100
AcDbLinetypeTableRecord
  2
CENTERX2
 70
    0
  3
Center (2x) ________  __  ________  __  _____
 72
   65
 73
    4
 40
101.6
 49
63.5
 74
    0
 49
-12.7
 74
    0
 49
12.7
 74
    0
 49
-12.7
 74
    0
  0
ENDTAB
  0
TABLE
  2
LAYER
  5
2
330
0
100
AcDbSymbolTable
 70
    1
  0
LAYER
  5
10
330
2
100
AcDbSymbolTableRecord
100
AcDbLayerTableRecord
  2
0
 70
    0
 62
    7
  6
CONTINUOUS
370
    0
390
F
  0
LAYER
  5
4A
330
2
100
AcDbSymbolTableRecord
100
AcDbLayerTableRecord
  2
Dimensions
 70
    0
 62
    5
  6
CONTINUOUS
370
    0
390
F
  0
ENDTAB
  0
TABLE
  2
STYLE
  5
3
330
0
100
AcDbSymbolTable
 70
    3
  0
STYLE
  5
4B
330
2
100
AcDbSymbolTableRecord
100
AcDbTextStyleTableRecord
  2
Standard
 70
    0
 40
0
 41
1
 50
0
 71
    0
 42
1
  3
txt
  4

  0
ENDTAB
  0
TABLE
  2
VIEW
  5
6
330
0
100
AcDbSymbolTable
 70
    0
  0
ENDTAB
  0
TABLE
  2
UCS
  5
7
330
0
100
AcDbSymbolTable
 70
    0
  0
ENDTAB
  0
TABLE
  2
APPID
  5
9
330
0
100
AcDbSymbolTable
 70
    1
  0
APPID
  5
12
330
9
100
AcDbSymbolTableRecord
100
AcDbRegAppTableRecord
  2
ACAD
 70
    0
  0
APPID
  5
4C
330
9
100
AcDbSymbolTableRecord
100
AcDbRegAppTableRecord
  2
LibreCad
 70
    0
  0
ENDTAB
  0
TABLE
  2
DIMSTYLE
  5
A
330
0
100
AcDbSymbolTable
 70
    1
100
AcDbDimStyleTable
 71
    1
  0
DIMSTYLE
105
4D
330
A
100
AcDbSymbolTableRecord
100
AcDbDimStyleTableRecord
  2
Standard
 70
    0
 40
1
 41
2.5
 42
0.625
 43
0.38
 44
1.25
 45
0
 46
0
 47
0
 48
0
 49
1
140
2.5
141
0.09
142
0
143
25.4
144
1
145
0
146
1
147
0.625
148
0
 71
    0
 72
    0
 73
    0
 74
    1
 75
    0
 76
    0
 77
    0
 78
    1
 79
    0
170
    0
171
    2
172
    0
173
    0
174
    0
175
    0
176
    5
177
    0
178
    5
179
    2
271
    1
272
    4
273
    2
274
    2
275
    0
276
    0
277
    2
278
   44
279
    0
280
    0
281
    0
282
    0
283
    1
284
    0
285
    0
286
    0
288
    0
289
    3
340
STANDARD
341

371
   -2
372
   -2
  0
ENDTAB
  0
TABLE
  2
BLOCK_RECORD
  5
1
330
0
100
AcDbSymbolTable
 70
    2
  0
BLOCK_RECORD
  5
1F
330
1
100
AcDbSymbolTableRecord
100
AcDbBlockTableRecord
  2
*Model_Space
 70
    0
280
    1
281
    0
  0
BLOCK_RECORD
  5
1E
330
1
100
AcDbSymbolTableRecord
100
AcDbBlockTableRecord
  2
*Paper_Space
 70
    0
280
    1
281
    0
  0
BLOCK_RECORD
  5
4E
330
1
100
AcDbSymbolTableRecord
100
AcDbBlockTableRecord
  2
*D10
 70
    0
280
    1
281
    0
  0
BLOCK_RECORD
  5
51
330
1
100
AcDbSymbolTableRecord
100
AcDbBlockTableRecord
  2
*D8
 70
    0
280
    1
281
    0
  0
BLOCK_RECORD
  5
54
330
1
100
AcDbSymbolTableRecord
100
AcDbBlockTableRecord
  2
*D6
 70
    0
280
    1
281
    0
  0
BLOCK_RECORD
  5
57
330
1
100
AcDbSymbolTableRecord
100
AcDbBlockTableRecord
  2
*D4
 70
    0
280
    1
281
    0
  0
BLOCK_RECORD
  5
5A
330
1
100
AcDbSymbolTableRecord
100
AcDbBlockTableRecord
  2
*D22
 70
    0
280
    1
281
    0
  0
BLOCK_RECORD
  5
5D
330
1
100
AcDbSymbolTableRecord
100
AcDbBlockTableRecord
  2
*D5
 70
    0
280
    1
281
    0
  0
BLOCK_RECORD
  5
60
330
1
100
AcDbSymbolTableRecord
100
AcDbBlockTableRecord
  2
*D13
 70
    0
280
    1
281
    0
  0
BLOCK_RECORD
  5
63
330
1
100
AcDbSymbolTableRecord
100
AcDbBlockTableRecord
  2
*D15
 70
    0
280
    1
281
    0
  0
BLOCK_RECORD
  5
66
330
1
100
AcDbSymbolTableRecord
100
AcDbBlockTableRecord
  2
*D21
 70
    0
280
    1
281
    0
  0
BLOCK_RECORD
  5
69
330
1
100
AcDbSymbolTableRecord
100
AcDbBlockTableRecord
  2
*D17
 70
    0
280
    1
281
    0
  0
BLOCK_RECORD
  5
6C
330
1
100
AcDbSymbolTableRecord
100
AcDbBlockTableRecord
  2
*D18
 70
    0
280
    1
281
    0
  0
BLOCK_RECORD
  5
6F
330
1
100
AcDbSymbolTableRecord
100
AcDbBlockTableRecord
  2
*D11
 70
    0
280
    1
281
    0
  0
BLOCK_RECORD
  5
72
330
1
100
AcDbSymbolTableRecord
100
AcDbBlockTableRecord
  2
*D3
 70
    0
280
    1
281
    0
  0
BLOCK_RECORD
  5
75
330
1
100
AcDbSymbolTableRecord
100
AcDbBlockTableRecord
  2
*D12
 70
    0
280
    1
281
    0
  0
BLOCK_RECORD
  5
78
330
1
100
AcDbSymbolTableRecord
100
AcDbBlockTableRecord
  2
*D7
 70
    0
280
    1
281
    0
  0
BLOCK_RECORD
  5
7B
330
1
100
AcDbSymbolTableRecord
100
AcDbBlockTableRecord
  2
*D1
 70
    0
280
    1
281
    0
  0
BLOCK_RECORD
  5
7E
330
1
100
AcDbSymbolTableRecord
100
AcDbBlockTableRecord
  2
*D9
 70
    0
280
    1
281
    0
  0
BLOCK_RECORD
  5
81
330
1
100
AcDbSymbolTableRecord
100
AcDbBlockTableRecord
  2
*D16
 70
    0
280
    1
281
    0
  0
BLOCK_RECORD
  5
84
330
1
100
AcDbSymbolTableRecord
100
AcDbBlockTableRecord
  2
*D19
 70
    0
280
    1
281
    0
  0
BLOCK_RECORD
  5
87
330
1
100
AcDbSymbolTableRecord
100
AcDbBlockTableRecord
  2
*D2
 70
    0
280
    1
281
    0
  0
BLOCK_RECORD
  5
8A
330
1
100
AcDbSymbolTableRecord
100
AcDbBlockTableRecord
  2
*D20
 70
    0
280
    1
281
    0
  0
BLOCK_RECORD
  5
8D
330
1
100
AcDbSymbolTableRecord
100
AcDbBlockTableRecord
  2
*D14
 70
    0
280
    1
281
    0
  0
ENDTAB
  0
ENDSEC
  0
SECTION
  2
BLOCKS
  0
BLOCK
  5
20
330
1F
100
AcDbEntity
  8
0
100
AcDbBlockBegin
  2
*Model_Space
 70
    0
 10
0
 20
0
 30
0
  3
*Model_Space
  1

  0
ENDBLK
  5
21
330
1F
100
AcDbEntity
  8
0
100
AcDbBlockEnd
  0
BLOCK
  5
1C
330
1B
100
AcDbEntity
  8
0
100
AcDbBlockBegin
  2
*Paper_Space
 70
    0
 10
0
 20
0
 30
0
  3
*Paper_Space
  1

  0
ENDBLK
  5
1D
330
1F
100
AcDbEntity
  8
0
100
AcDbBlockEnd
  0
BLOCK
  5
4F
330
4E
100
AcDbEntity
  8
0
100
AcDbBlockBegin
  2
*D10
 70
    1
 10
0
 20
0
  3
*D10
  1

  0
LINE
  5
90
100
AcDbEntity
  8
Dimensions
  6
ByBlock
 62
    5
370
   -2
100
AcDbLine
 10
-10
 20
91.80000000000001
 11
-10
 21
101.8
  0
MTEXT
  5
91
100
AcDbEntity
  8
Dimensions
  6
CONTINUOUS
 62
    5
370
   -2
100
AcDbMText
 10
-11.875
 20
96.80000000000001
 30
0
 40
2.5
 41
5.416666666666667
 71
    5
 72
    1
  1
10,0
  7
STANDARD
210
0
220
0
230
1
 50
90
 73
    2
 44
1
  0
SOLID
  5
92
100
AcDbEntity
  8
Dimensions
  6
ByBlock
 62
    5
370
   -2
100
AcDbTrace
 10
-10
 20
91.80000000000001
 30
0
 11
-10.41628465777284
 21
94.30000000000001
 31
0
 12
-9.583715342227158
 22
94.30000000000001
 32
0
 13
-9.583715342227158
 23
94.30000000000001
 33
0
  0
SOLID
  5
93
100
AcDbEntity
  8
Dimensions
  6
ByBlock
 62
    5
370
   -2
100
AcDbTrace
 10
-10
 20
101.8
 30
0
 11
-9.58371534222716
 21
99.3
 31
0
 12
-10.41628465777284
 22
99.3
 32
0
 13
-10.41628465777284
 23
99.3
 33
0
  0
LINE
  5
94
100
AcDbEntity
  8
Dimensions
  6
ByBlock
 62
    0
370
   -2
100
AcDbLine
 10
3.375
 20
91.80000000000001
 11
-11.25
 21
91.80000000000001
  0
LINE
  5
95
100
AcDbEntity
  8
Dimensions
  6
ByBlock
 62
    0
370
   -2
100
AcDbLine
 10
-0.625
 20
101.8
 11
-11.25
 21
101.8
  0
ENDBLK
  5
50
330
4E
100
AcDbEntity
  8
0
100
AcDbBlockEnd
  0
BLOCK
  5
52
330
51
100
AcDbEntity
  8
0
100
AcDbBlockBegin
  2
*D8
 70
    1
 10
0
 20
0
  3
*D8
  1

  0
SOLID
  5
96
100
AcDbEntity
  8
Dimensions
  6
ByBlock
 62
    5
370
   -2
100
AcDbTrace
 10
2.438262381113939
 20
82.55060990489115
 30
0
 11
0.746141321589944
 21
80.66380858090061
 31
0
 12
0.2260393934227807
 22
81.31393599110956
 32
0
 13
0.2260393934227807
 23
81.31393599110956
 33
0
  0
LINE
  5
97
100
AcDbEntity
  8
Dimensions
  6
ByBlock
 62
    5
370
   -2
100
AcDbLine
 10
4.000000000000001
 20
83.8
 11
-9.274769760531523
 21
73.1801841915748
  0
MTEXT
  5
98
100
AcDbEntity
  8
Dimensions
  6
CONTINUOUS
 62
    5
370
   -2
100
AcDbMText
 10
-4.589556903873337
 20
79.32952606593865
 30
0
 40
2.5
 41
10
 71
    5
 72
    1
  1
2-R2.0
  7
STANDARD
210
0
220
0
230
1
 50
38.65980825409008
 73
    2
 44
1
  0
ENDBLK
  5
53
330
51
100
AcDbEntity
  8
0
100
AcDbBlockEnd
  0
BLOCK
  5
55
330
54
100
AcDbEntity
  8
0
100
AcDbBlockBegin
  2
*D6
 70
    1
 10
0
 20
0
  3
*D6
  1

  0
LINE
  5
99
100
AcDbEntity
  8
Dimensions
  6
ByBlock
 62
    5
370
   -2
100
AcDbLine
 10
0
 20
-30
 11
180.6
 21
-30
  0
MTEXT
  5
9A
100
AcDbEntity
  8
Dimensions
  6
CONTINUOUS
 62
    5
370
   -2
100
AcDbMText
 10
90.3
 20
-28.125
 30
0
 40
2.5
 41
7.361111111111267
 71
    5
 72
    1
  1
180,6
  7
STANDARD
210
0
220
0
230
1
 50
0
 73
    2
 44
1
  0
SOLID
  5
9B
100
AcDbEntity
  8
Dimensions
  6
ByBlock
 62
    5
370
   -2
100
AcDbTrace
 10
0
 20
-30
 30
0
 11
2.5
 21
-29.58371534222716
 31
0
 12
2.5
 22
-30.41628465777284
 32
0
 13
2.5
 23
-30.41628465777284
 33
0
  0
SOLID
  5
9C
100
AcDbEntity
  8
Dimensions
  6
ByBlock
 62
    5
370
   -2
100
AcDbTrace
 10
180.6
 20
-30
 30
0
 11
178.1
 21
-30.41628465777284
 31
0
 12
178.1
 22
-29.58371534222716
 32
0
 13
178.1
 23
-29.58371534222716
 33
0
  0
LINE
  5
9D
100
AcDbEntity
  8
Dimensions
  6
ByBlock
 62
    0
370
   -2
100
AcDbLine
 10
-1.148068456708479e-16
 20
-0.625
 11
-2.296136913416957e-16
 21
-31.25
  0
LINE
  5
9E
100
AcDbEntity
  8
Dimensions
  6
ByBlock
 62
    0
370
   -2
100
AcDbLine
 10
180.6
 20
-0.6250000000000002
 11
180.6
 21
-31.25
  0
ENDBLK
  5
56
330
54
100
AcDbEntity
  8
0
100
AcDbBlockEnd
  0
BLOCK
  5
58
330
57
100
AcDbEntity
  8
0
100
AcDbBlockBegin
  2
*D4
 70
    1
 10
0
 20
0
  3
*D4
  1

  0
LINE
  5
9F
100
AcDbEntity
  8
Dimensions
  6
ByBlock
 62
    5
370
   -2
100
AcDbLine
 10
-3
 20
-10
 11
11
 21
-10
  0
MTEXT
  5
A0
100
AcDbEntity
  8
Dimensions
  6
CONTINUOUS
 62
    5
370
   -2
100
AcDbMText
 10
8.777777777777779
 20
-8.125
 30
0
 40
2.5
 41
4.305555555555555
 71
    5
 72
    1
  1
4,0
  7
STANDARD
210
0
220
0
230
1
 50
0
 73
    2
 44
1
  0
SOLID
  5
A1
100
AcDbEntity
  8
Dimensions
  6
ByBlock
 62
    5
370
   -2
100
AcDbTrace
 10
2
 20
-10
 30
0
 11
-0.5000000000000006
 21
-10.41628465777284
 31
0
 12
-0.5000000000000004
 22
-9.58371534222716
 32
0
 13
-0.5000000000000004
 23
-9.58371534222716
 33
0
  0
SOLID
  5
A2
100
AcDbEntity
  8
Dimensions
  6
ByBlock
 62
    5
370
   -2
100
AcDbTrace
 10
6
 20
-10
 30
0
 11
8.5
 21
-9.58371534222716
 31
0
 12
8.5
 22
-10.41628465777284
 32
0
 13
8.5
 23
-10.41628465777284
 33
0
  0
LINE
  5
A3
100
AcDbEntity
  8
Dimensions
  6
ByBlock
 62
    0
370
   -2
100
AcDbLine
 10
2
 20
11.375
 11
1.999999999999999
 21
-11.25
  0
LINE
  5
A4
100
AcDbEntity
  8
Dimensions
  6
ByBlock
 62
    0
370
   -2
100
AcDbLine
 10
6
 20
11.375
 11
6
 21
-11.25
  0
ENDBLK
  5
59
330
57
100
AcDbEntity
  8
0
100
AcDbBlockEnd
  0
BLOCK
  5
5B
330
5A
100
AcDbEntity
  8
0
100
AcDbBlockBegin
  2
*D22
 70
    1
 10
0
 20
0
  3
*D22
  1

  0
LINE
  5
A5
100
AcDbEntity
  8
Dimensions
  6
ByBlock
 62
    5
370
   -2
100
AcDbLine
 10
183.6
 20
-20
 11
169.6
 21
-20
  0
MTEXT
  5
A6
100
AcDbEntity
  8
Dimensions
  6
CONTINUOUS
 62
    5
370
   -2
100
AcDbMText
 10
181.3777777777778
 20
-18.125
 30
0
 40
2.5
 41
4.305555555555555
 71
    5
 72
    1
  1
4,0
  7
STANDARD
210
0
220
0
230
1
 50
0
 73
    2
 44
1
  0
SOLID
  5
A7
100
AcDbEntity
  8
Dimensions
  6
ByBlock
 62
    5
370
   -2
100
AcDbTrace
 10
178.6
 20
-20
 30
0
 11
181.1
 21
-19.58371534222716
 31
0
 12
181.1
 22
-20.41628465777284
 32
0
 13
181.1
 23
-20.41628465777284
 33
0
  0
SOLID
  5
A8
100
AcDbEntity
  8
Dimensions
  6
ByBlock
 62
    5
370
   -2
100
AcDbTrace
 10
174.6
 20
-20
 30
0
 11
172.1
 21
-20.41628465777284
 31
0
 12
172.1
 22
-19.58371534222716
 32
0
 13
172.1
 23
-19.58371534222716
 33
0
  0
LINE
  5
A9
100
AcDbEntity
  8
Dimensions
  6
ByBlock
 62
    0
370
   -2
100
AcDbLine
 10
178.6
 20
11.375
 11
178.6
 21
-21.25
  0
LINE
  5
AA
100
AcDbEntity
  8
Dimensions
  6
ByBlock
 62
    0
370
   -2
100
AcDbLine
 10
174.6
 20
11.375
 11
174.6
 21
-21.25
  0
ENDBLK
  5
5C
330
5A
100
AcDbEntity
  8
0
100
AcDbBlockEnd
  0
BLOCK
  5
5E
330
5D
100
AcDbEntity
  8
0
100
AcDbBlockBegin
  2
*D5
 70
    1
 10
0
 20
0
  3
*D5
  1

  0
LINE
  5
AB
100
AcDbEntity
  8
Dimensions
  6
ByBlock
 62
    5
370
   -2
100
AcDbLine
 10
-5
 20
-20
 11
7
 21
-20
  0
MTEXT
  5
AC
100
AcDbEntity
  8
Dimensions
  6
CONTINUOUS
 62
    5
370
   -2
100
AcDbMText
 10
4.638888888888889
 20
-18.125
 30
0
 40
2.5
 41
4.027777777777778
 71
    5
 72
    1
  1
2,0
  7
STANDARD
210
0
220
0
230
1
 50
0
 73
    2
 44
1
  0
SOLID
  5
AD
100
AcDbEntity
  8
Dimensions
  6
ByBlock
 62
    5
370
   -2
100
AcDbTrace
 10
-2.220446049250313e-16
 20
-20
 30
0
 11
-2.5
 21
-20.41628465777284
 31
0
 12
-2.5
 22
-19.58371534222716
 32
0
 13
-2.5
 23
-19.58371534222716
 33
0
  0
SOLID
  5
AE
100
AcDbEntity
  8
Dimensions
  6
ByBlock
 62
    5
370
   -2
100
AcDbTrace
 10
2
 20
-20
 30
0
 11
4.5
 21
-19.58371534222716
 31
0
 12
4.5
 22
-20.41628465777284
 32
0
 13
4.5
 23
-20.41628465777284
 33
0
  0
LINE
  5
AF
100
AcDbEntity
  8
Dimensions
  6
ByBlock
 62
    0
370
   -2
100
AcDbLine
 10
-1.148068456708479e-16
 20
-0.625
 11
-4.51658296266727e-16
 21
-21.25
  0
LINE
  5
B0
100
AcDbEntity
  8
Dimensions
  6
ByBlock
 62
    0
370
   -2
100
AcDbLine
 10
2
 20
11.375
 11
2
 21
-21.25
  0
ENDBLK
  5
5F
330
5D
100
AcDbEntity
  8
0
100
AcDbBlockEnd
  0
BLOCK
  5
61
330
60
100
AcDbEntity
  8
0
100
AcDbBlockBegin
  2
*D13
 70
    1
 10
0
 20
0
  3
*D13
  1

  0
LINE
  5
B1
100
AcDbEntity
  8
Dimensions
  6
ByBlock
 62
    5
370
   -2
100
AcDbLine
 10
183.6
 20
120
 11
169.6
 21
120
  0
MTEXT
  5
B2
100
AcDbEntity
  8
Dimensions
  6
CONTINUOUS
 62
    5
370
   -2
100
AcDbMText
 10
181.3777777777778
 20
121.875
 30
0
 40
2.5
 41
4.305555555555555
 71
    5
 72
    1
  1
4,0
  7
STANDARD
210
0
220
0
230
1
 50
0
 73
    2
 44
1
  0
SOLID
  5
B3
100
AcDbEntity
  8
Dimensions
  6
ByBlock
 62
    5
370
   -2
100
AcDbTrace
 10
178.6
 20
120
 30
0
 11
181.1
 21
120.4162846577728
 31
0
 12
181.1
 22
119.5837153422272
 32
0
 13
181.1
 23
119.5837153422272
 33
0
  0
SOLID
  5
B4
100
AcDbEntity
  8
Dimensions
  6
ByBlock
 62
    5
370
   -2
100
AcDbTrace
 10
174.6
 20
120
 30
0
 11
172.1
 21
119.5837153422272
 31
0
 12
172.1
 22
120.4162846577728
 32
0
 13
172.1
 23
120.4162846577728
 33
0
  0
LINE
  5
B5
100
AcDbEntity
  8
Dimensions
  6
ByBlock
 62
    0
370
   -2
100
AcDbLine
 10
178.6
 20
90.42500000000001
 11
178.6
 21
121.25
  0
LINE
  5
B6
100
AcDbEntity
  8
Dimensions
  6
ByBlock
 62
    0
370
   -2
100
AcDbLine
 10
174.6
 20
90.42500000000001
 11
174.6
 21
121.25
  0
ENDBLK
  5
62
330
60
100
AcDbEntity
  8
0
100
AcDbBlockEnd
  0
BLOCK
  5
64
330
63
100
AcDbEntity
  8
0
100
AcDbBlockBegin
  2
*D15
 70
    1
 10
0
 20
0
  3
*D15
  1

  0
LINE
  5
B7
100
AcDbEntity
  8
Dimensions
  6
ByBlock
 62
    5
370
   -2
100
AcDbLine
 10
190
 20
91.80000000000001
 11
190
 21
101.8
  0
MTEXT
  5
B8
100
AcDbEntity
  8
Dimensions
  6
CONTINUOUS
 62
    5
370
   -2
100
AcDbMText
 10
188.125
 20
96.80000000000001
 30
0
 40
2.5
 41
5.416666666666667
 71
    5
 72
    1
  1
10,0
  7
STANDARD
210
0
220
0
230
1
 50
90
 73
    2
 44
1
  0
SOLID
  5
B9
100
AcDbEntity
  8
Dimensions
  6
ByBlock
 62
    5
370
   -2
100
AcDbTrace
 10
190
 20
91.80000000000001
 30
0
 11
189.5837153422272
 21
94.30000000000001
 31
0
 12
190.4162846577728
 22
94.30000000000001
 32
0
 13
190.4162846577728
 23
94.30000000000001
 33
0
  0
SOLID
  5
BA
100
AcDbEntity
  8
Dimensions
  6
ByBlock
 62
    5
370
   -2
100
AcDbTrace
 10
190
 20
101.8
 30
0
 11
190.4162846577728
 21
99.3
 31
0
 12
189.5837153422272
 22
99.3
 32
0
 13
189.5837153422272
 23
99.3
 33
0
  0
LINE
  5
BB
100
AcDbEntity
  8
Dimensions
  6
ByBlock
 62
    0
370
   -2
100
AcDbLine
 10
177.225
 20
91.80000000000001
 11
191.25
 21
91.80000000000001
  0
LINE
  5
BC
100
AcDbEntity
  8
Dimensions
  6
ByBlock
 62
    0
370
   -2
100
AcDbLine
 10
181.225
 20
101.8
 11
191.25
 21
101.8
  0
ENDBLK
  5
65
330
63
100
AcDbEntity
  8
0
100
AcDbBlockEnd
  0
BLOCK
  5
67
330
66
100
AcDbEntity
  8
0
100
AcDbBlockBegin
  2
*D21
 70
    1
 10
0
 20
0
  3
*D21
  1

  0
LINE
  5
BD
100
AcDbEntity
  8
Dimensions
  6
ByBlock
 62
    5
370
   -2
100
AcDbLine
 10
173.6
 20
-10
 11
185.6
 21
-10
  0
MTEXT
  5
BE
100
AcDbEntity
  8
Dimensions
  6
CONTINUOUS
 62
    5
370
   -2
100
AcDbMText
 10
183.2388888888889
 20
-8.125
 30
0
 40
2.5
 41
4.027777777777778
 71
    5
 72
    1
  1
2,0
  7
STANDARD
210
0
220
0
230
1
 50
0
 73
    2
 44
1
  0
SOLID
  5
BF
100
AcDbEntity
  8
Dimensions
  6
ByBlock
 62
    5
370
   -2
100
AcDbTrace
 10
178.6
 20
-10
 30
0
 11
176.1
 21
-10.41628465777284
 31
0
 12
176.1
 22
-9.58371534222716
 32
0
 13
176.1
 23
-9.58371534222716
 33
0
  0
SOLID
  5
C0
100
AcDbEntity
  8
Dimensions
  6
ByBlock
 62
    5
370
   -2
100
AcDbTrace
 10
180.6
 20
-10
 30
0
 11
183.1
 21
-9.58371534222716
 31
0
 12
183.1
 22
-10.41628465777284
 32
0
 13
183.1
 23
-10.41628465777284
 33
0
  0
LINE
  5
C1
100
AcDbEntity
  8
Dimensions
  6
ByBlock
 62
    0
370
   -2
100
AcDbLine
 10
178.6
 20
11.375
 11
178.6
 21
-11.25
  0
LINE
  5
C2
100
AcDbEntity
  8
Dimensions
  6
ByBlock
 62
    0
370
   -2
100
AcDbLine
 10
180.6
 20
-0.6249999999999998
 11
180.6
 21
-11.25
  0
ENDBLK
  5
68
330
66
100
AcDbEntity
  8
0
100
AcDbBlockEnd
  0
BLOCK
  5
6A
330
69
100
AcDbEntity
  8
0
100
AcDbBlockBegin
  2
*D17
 70
    1
 10
0
 20
0
  3
*D17
  1

  0
SOLID
  5
C3
100
AcDbEntity
  8
Dimensions
  6
ByBlock
 62
    5
370
   -2
100
AcDbTrace
 10
177.9514492570347
 20
82.32569171959851
 30
0
 11
179.9476267873074
 21
80.7641001648277
 31
0
 12
179.3338948693488
 22
80.20151257336565
 32
0
 13
179.3338948693488
 23
80.20151257336565
 33
0
  0
LINE
  5
C4
100
AcDbEntity
  8
Dimensions
  6
ByBlock
 62
    5
370
   -2
100
AcDbLine
 10
176.6
 20
83.8
 11
188.087318684795
 21
71.26837961658747
  0
MTEXT
  5
C5
100
AcDbEntity
  8
Dimensions
  6
CONTINUOUS
 62
    5
370
   -2
100
AcDbMText
 10
184.4015479837912
 20
78.06401934656303
 30
0
 40
2.5
 41
10
 71
    5
 72
    1
  1
2-R2.0
  7
STANDARD
210
0
220
0
230
1
 50
312.5104470780013
 73
    2
 44
1
  0
ENDBLK
  5
6B
330
69
100
AcDbEntity
  8
0
100
AcDbBlockEnd
  0
BLOCK
  5
6D
330
6C
100
AcDbEntity
  8
0
100
AcDbBlockBegin
  2
*D18
 70
    1
 10
0
 20
0
  3
*D18
  1

  0
SOLID
  5
C6
100
AcDbEntity
  8
Dimensions
  6
ByBlock
 62
    5
370
   -2
100
AcDbTrace
 10
178.3238684303156
 20
19.01404025312679
 30
0
 11
180.2676392683397
 21
20.6404005593149
 31
0
 12
180.6897686680804
 22
19.92278057975559
 32
0
 13
180.6897686680804
 23
19.92278057975559
 33
0
  0
LINE
  5
C7
100
AcDbEntity
  8
Dimensions
  6
ByBlock
 62
    5
370
   -2
100
AcDbLine
 10
176.6
 20
18
 11
191.2528816576823
 21
26.6193421515775
  0
MTEXT
  5
C8
100
AcDbEntity
  8
Dimensions
  6
CONTINUOUS
 62
    5
370
   -2
100
AcDbMText
 10
183.8377123066926
 20
24.43281785577298
 30
0
 40
2.5
 41
10
 71
    5
 72
    1
  1
2-R2.0
  7
STANDARD
210
0
220
0
230
1
 50
30.465544919459
 73
    2
 44
1
  0
ENDBLK
  5
6E
330
6C
100
AcDbEntity
  8
0
100
AcDbBlockEnd
  0
BLOCK
  5
70
330
6F
100
AcDbEntity
  8
0
100
AcDbBlockBegin
  2
*D11
 70
    1
 10
0
 20
0
  3
*D11
  1

  0
LINE
  5
C9
100
AcDbEntity
  8
Dimensions
  6
ByBlock
 62
    5
370
   -2
100
AcDbLine
 10
-3.000000000000001
 20
110
 11
11
 21
110
  0
MTEXT
  5
CA
100
AcDbEntity
  8
Dimensions
  6
CONTINUOUS
 62
    5
370
   -2
100
AcDbMText
 10
8.777777777777779
 20
111.875
 30
0
 40
2.5
 41
4.305555555555555
 71
    5
 72
    1
  1
4,0
  7
STANDARD
210
0
220
0
230
1
 50
0
 73
    2
 44
1
  0
SOLID
  5
CB
100
AcDbEntity
  8
Dimensions
  6
ByBlock
 62
    5
370
   -2
100
AcDbTrace
 10
1.999999999999999
 20
110
 30
0
 11
-0.500000000000001
 21
109.5837153422272
 31
0
 12
-0.5000000000000009
 22
110.4162846577728
 32
0
 13
-0.5000000000000009
 23
110.4162846577728
 33
0
  0
SOLID
  5
CC
100
AcDbEntity
  8
Dimensions
  6
ByBlock
 62
    5
370
   -2
100
AcDbTrace
 10
6
 20
110
 30
0
 11
8.5
 21
110.4162846577728
 31
0
 12
8.5
 22
109.5837153422272
 32
0
 13
8.5
 23
109.5837153422272
 33
0
  0
LINE
  5
CD
100
AcDbEntity
  8
Dimensions
  6
ByBlock
 62
    0
370
   -2
100
AcDbLine
 10
2
 20
90.22499999999999
 11
1.999999999999999
 21
111.25
  0
LINE
  5
CE
100
AcDbEntity
  8
Dimensions
  6
ByBlock
 62
    0
370
   -2
100
AcDbLine
 10
6
 20
90.22499999999999
 11
6
 21
111.25
  0
ENDBLK
  5
71
330
6F
100
AcDbEntity
  8
0
100
AcDbBlockEnd
  0
BLOCK
  5
73
330
72
100
AcDbEntity
  8
0
100
AcDbBlockBegin
  2
*D3
 70
    1
 10
0
 20
0
  3
*D3
  1

  0
LINE
  5
CF
100
AcDbEntity
  8
Dimensions
  6
ByBlock
 62
    5
370
   -2
100
AcDbLine
 10
-10
 20
0
 11
-10
 21
10
  0
MTEXT
  5
D0
100
AcDbEntity
  8
Dimensions
  6
CONTINUOUS
 62
    5
370
   -2
100
AcDbMText
 10
-11.875
 20
5
 30
0
 40
2.5
 41
5.416666666666667
 71
    5
 72
    1
  1
10,0
  7
STANDARD
210
0
220
0
230
1
 50
90
 73
    2
 44
1
  0
SOLID
  5
D1
100
AcDbEntity
  8
Dimensions
  6
ByBlock
 62
    5
370
   -2
100
AcDbTrace
 10
-10
 20
0
 30
0
 11
-10.41628465777284
 21
2.5
 31
0
 12
-9.583715342227158
 22
2.5
 32
0
 13
-9.583715342227158
 23
2.5
 33
0
  0
SOLID
  5
D2
100
AcDbEntity
  8
Dimensions
  6
ByBlock
 62
    5
370
   -2
100
AcDbTrace
 10
-10
 20
10
 30
0
 11
-9.58371534222716
 21
7.5
 31
0
 12
-10.41628465777284
 22
7.5
 32
0
 13
-10.41628465777284
 23
7.5
 33
0
  0
LINE
  5
D3
100
AcDbEntity
  8
Dimensions
  6
ByBlock
 62
    0
370
   -2
100
AcDbLine
 10
-0.625
 20
7.653789711389858e-17
 11
-11.25
 21
1.530757942277972e-16
  0
LINE
  5
D4
100
AcDbEntity
  8
Dimensions
  6
ByBlock
 62
    0
370
   -2
100
AcDbLine
 10
3.375
 20
10
 11
-11.25
 21
10
  0
ENDBLK
  5
74
330
72
100
AcDbEntity
  8
0
100
AcDbBlockEnd
  0
BLOCK
  5
76
330
75
100
AcDbEntity
  8
0
100
AcDbBlockBegin
  2
*D12
 70
    1
 10
0
 20
0
  3
*D12
  1

  0
LINE
  5
D5
100
AcDbEntity
  8
Dimensions
  6
ByBlock
 62
    5
370
   -2
100
AcDbLine
 10
7
 20
120
 11
-4.999999999999999
 21
120
  0
MTEXT
  5
D6
100
AcDbEntity
  8
Dimensions
  6
CONTINUOUS
 62
    5
370
   -2
100
AcDbMText
 10
4.638888888888888
 20
121.875
 30
0
 40
2.5
 41
4.027777777777778
 71
    5
 72
    1
  1
2,0
  7
STANDARD
210
0
220
0
230
1
 50
0
 73
    2
 44
1
  0
SOLID
  5
D7
100
AcDbEntity
  8
Dimensions
  6
ByBlock
 62
    5
370
   -2
100
AcDbTrace
 10
2
 20
120
 30
0
 11
4.5
 21
120.4162846577728
 31
0
 12
4.5
 22
119.5837153422272
 32
0
 13
4.5
 23
119.5837153422272
 33
0
  0
SOLID
  5
D8
100
AcDbEntity
  8
Dimensions
  6
ByBlock
 62
    5
370
   -2
100
AcDbTrace
 10
5.273559366969494e-16
 20
120
 30
0
 11
-2.5
 21
119.5837153422272
 31
0
 12
-2.5
 22
120.4162846577728
 32
0
 13
-2.5
 23
120.4162846577728
 33
0
  0
LINE
  5
D9
100
AcDbEntity
  8
Dimensions
  6
ByBlock
 62
    0
370
   -2
100
AcDbLine
 10
2
 20
90.22499999999999
 11
2
 21
121.25
  0
LINE
  5
DA
100
AcDbEntity
  8
Dimensions
  6
ByBlock
 62
    0
370
   -2
100
AcDbLine
 10
5.656248852538986e-16
 20
102.425
 11
6.038938338108479e-16
 21
121.25
  0
ENDBLK
  5
77
330
75
100
AcDbEntity
  8
0
100
AcDbBlockEnd
  0
BLOCK
  5
79
330
78
100
AcDbEntity
  8
0
100
AcDbBlockBegin
  2
*D7
 70
    1
 10
0
 20
0
  3
*D7
  1

  0
SOLID
  5
DB
100
AcDbEntity
  8
Dimensions
  6
ByBlock
 62
    5
370
   -2
100
AcDbTrace
 10
2.585786437626905
 20
19.4142135623731
 30
0
 11
0.523661780245441
 21
20.88762281092437
 31
0
 12
1.112377189075635
 22
21.47633821975457
 32
0
 13
1.112377189075635
 23
21.47633821975457
 33
0
  0
LINE
  5
DC
100
AcDbEntity
  8
Dimensions
  6
ByBlock
 62
    5
370
   -2
100
AcDbLine
 10
4
 20
18
 11
-8.020815280171293
 21
30.02081528017133
  0
MTEXT
  5
DD
100
AcDbEntity
  8
Dimensions
  6
CONTINUOUS
 62
    5
370
   -2
100
AcDbMText
 10
-1.391689206547415
 20
26.04333963599699
 30
0
 40
2.5
 41
10
 71
    5
 72
    1
  1
2-R2.0
  7
STANDARD
210
0
220
0
230
1
 50
314.9999999999999
 73
    2
 44
1
  0
ENDBLK
  5
7A
330
78
100
AcDbEntity
  8
0
100
AcDbBlockEnd
  0
BLOCK
  5
7C
330
7B
100
AcDbEntity
  8
0
100
AcDbBlockBegin
  2
*D1
 70
    1
 10
0
 20
0
  3
*D1
  1

  0
LINE
  5
DE
100
AcDbEntity
  8
Dimensions
  6
ByBlock
 62
    5
370
   -2
100
AcDbLine
 10
-20
 20
0
 11
-19.99999999999999
 21
101.8
  0
MTEXT
  5
DF
100
AcDbEntity
  8
Dimensions
  6
CONTINUOUS
 62
    5
370
   -2
100
AcDbMText
 10
-21.87499999999999
 20
50.9
 30
0
 40
2.5
 41
17.08333333333334
 71
    5
 72
    1
  1
101.8 %%P 0.2
  7
STANDARD
210
0
220
0
230
1
 50
90
 73
    2
 44
1
  0
SOLID
  5
E0
100
AcDbEntity
  8
Dimensions
  6
ByBlock
 62
    5
370
   -2
100
AcDbTrace
 10
-20
 20
0
 30
0
 11
-20.41628465777284
 21
2.5
 31
0
 12
-19.58371534222715
 22
2.5
 32
0
 13
-19.58371534222715
 23
2.5
 33
0
  0
SOLID
  5
E1
100
AcDbEntity
  8
Dimensions
  6
ByBlock
 62
    5
370
   -2
100
AcDbTrace
 10
-19.99999999999999
 20
101.8
 30
0
 11
-19.58371534222715
 21
99.3
 31
0
 12
-20.41628465777283
 22
99.3
 32
0
 13
-20.41628465777283
 23
99.3
 33
0
  0
LINE
  5
E2
100
AcDbEntity
  8
Dimensions
  6
ByBlock
 62
    0
370
   -2
100
AcDbLine
 10
-0.625
 20
7.653789711389858e-17
 11
-21.25
 21
1.530757942277972e-16
  0
LINE
  5
E3
100
AcDbEntity
  8
Dimensions
  6
ByBlock
 62
    0
370
   -2
100
AcDbLine
 10
-0.625
 20
101.8
 11
-21.24999999999999
 21
101.8
  0
ENDBLK
  5
7D
330
7B
100
AcDbEntity
  8
0
100
AcDbBlockEnd
  0
BLOCK
  5
7F
330
7E
100
AcDbEntity
  8
0
100
AcDbBlockBegin
  2
*D9
 70
    1
 10
0
 20
0
  3
*D9
  1

  0
LINE
  5
E4
100
AcDbEntity
  8
Dimensions
  6
ByBlock
 62
    5
370
   -2
100
AcDbLine
 10
-10
 20
91.80000000000001
 11
-10
 21
81.80000000000001
  0
MTEXT
  5
E5
100
AcDbEntity
  8
Dimensions
  6
CONTINUOUS
 62
    5
370
   -2
100
AcDbMText
 10
-11.875
 20
86.80000000000001
 30
0
 40
2.5
 41
5.416666666666667
 71
    5
 72
    1
  1
10,0
  7
STANDARD
210
0
220
0
230
1
 50
90
 73
    2
 44
1
  0
SOLID
  5
E6
100
AcDbEntity
  8
Dimensions
  6
ByBlock
 62
    5
370
   -2
100
AcDbTrace
 10
-10
 20
91.80000000000001
 30
0
 11
-9.58371534222716
 21
89.30000000000001
 31
0
 12
-10.41628465777284
 22
89.30000000000001
 32
0
 13
-10.41628465777284
 23
89.30000000000001
 33
0
  0
SOLID
  5
E7
100
AcDbEntity
  8
Dimensions
  6
ByBlock
 62
    5
370
   -2
100
AcDbTrace
 10
-10
 20
81.80000000000001
 30
0
 11
-10.41628465777284
 21
84.30000000000001
 31
0
 12
-9.583715342227158
 22
84.30000000000001
 32
0
 13
-9.583715342227158
 23
84.30000000000001
 33
0
  0
LINE
  5
E8
100
AcDbEntity
  8
Dimensions
  6
ByBlock
 62
    0
370
   -2
100
AcDbLine
 10
3.375
 20
91.80000000000001
 11
-11.25
 21
91.80000000000001
  0
LINE
  5
E9
100
AcDbEntity
  8
Dimensions
  6
ByBlock
 62
    0
370
   -2
100
AcDbLine
 10
3.375
 20
81.80000000000001
 11
-11.25
 21
81.80000000000001
  0
ENDBLK
  5
80
330
7E
100
AcDbEntity
  8
0
100
AcDbBlockEnd
  0
BLOCK
  5
82
330
81
100
AcDbEntity
  8
0
100
AcDbBlockBegin
  2
*D16
 70
    1
 10
0
 20
0
  3
*D16
  1

  0
LINE
  5
EA
100
AcDbEntity
  8
Dimensions
  6
ByBlock
 62
    5
370
   -2
100
AcDbLine
 10
190
 20
91.80000000000001
 11
190
 21
81.8
  0
MTEXT
  5
EB
100
AcDbEntity
  8
Dimensions
  6
CONTINUOUS
 62
    5
370
   -2
100
AcDbMText
 10
188.125
 20
86.80000000000001
 30
0
 40
2.5
 41
5.416666666666667
 71
    5
 72
    1
  1
10,0
  7
STANDARD
210
0
220
0
230
1
 50
90
 73
    2
 44
1
  0
SOLID
  5
EC
100
AcDbEntity
  8
Dimensions
  6
ByBlock
 62
    5
370
   -2
100
AcDbTrace
 10
190
 20
91.80000000000001
 30
0
 11
190.4162846577728
 21
89.30000000000001
 31
0
 12
189.5837153422272
 22
89.30000000000001
 32
0
 13
189.5837153422272
 23
89.30000000000001
 33
0
  0
SOLID
  5
ED
100
AcDbEntity
  8
Dimensions
  6
ByBlock
 62
    5
370
   -2
100
AcDbTrace
 10
190
 20
81.8
 30
0
 11
189.5837153422272
 21
84.3
 31
0
 12
190.4162846577728
 22
84.3
 32
0
 13
190.4162846577728
 23
84.3
 33
0
  0
LINE
  5
EE
100
AcDbEntity
  8
Dimensions
  6
ByBlock
 62
    0
370
   -2
100
AcDbLine
 10
177.225
 20
91.80000000000001
 11
191.25
 21
91.80000000000001
  0
LINE
  5
EF
100
AcDbEntity
  8
Dimensions
  6
ByBlock
 62
    0
370
   -2
100
AcDbLine
 10
177.225
 20
81.8
 11
191.25
 21
81.8
  0
ENDBLK
  5
83
330
81
100
AcDbEntity
  8
0
100
AcDbBlockEnd
  0
BLOCK
  5
85
330
84
100
AcDbEntity
  8
0
100
AcDbBlockBegin
  2
*D19
 70
    1
 10
0
 20
0
  3
*D19
  1

  0
LINE
  5
F0
100
AcDbEntity
  8
Dimensions
  6
ByBlock
 62
    5
370
   -2
100
AcDbLine
 10
190
 20
10
 11
190
 21
20
  0
MTEXT
  5
F1
100
AcDbEntity
  8
Dimensions
  6
CONTINUOUS
 62
    5
370
   -2
100
AcDbMText
 10
188.125
 20
15
 30
0
 40
2.5
 41
5.416666666666667
 71
    5
 72
    1
  1
10,0
  7
STANDARD
210
0
220
0
230
1
 50
90
 73
    2
 44
1
  0
SOLID
  5
F2
100
AcDbEntity
  8
Dimensions
  6
ByBlock
 62
    5
370
   -2
100
AcDbTrace
 10
190
 20
10
 30
0
 11
189.5837153422272
 21
12.5
 31
0
 12
190.4162846577728
 22
12.5
 32
0
 13
190.4162846577728
 23
12.5
 33
0
  0
SOLID
  5
F3
100
AcDbEntity
  8
Dimensions
  6
ByBlock
 62
    5
370
   -2
100
AcDbTrace
 10
190
 20
20
 30
0
 11
190.4162846577728
 21
17.5
 31
0
 12
189.5837153422272
 22
17.5
 32
0
 13
189.5837153422272
 23
17.5
 33
0
  0
LINE
  5
F4
100
AcDbEntity
  8
Dimensions
  6
ByBlock
 62
    0
370
   -2
100
AcDbLine
 10
177.225
 20
10
 11
191.25
 21
10
  0
LINE
  5
F5
100
AcDbEntity
  8
Dimensions
  6
ByBlock
 62
    0
370
   -2
100
AcDbLine
 10
177.225
 20
20
 11
191.25
 21
20
  0
ENDBLK
  5
86
330
84
100
AcDbEntity
  8
0
100
AcDbBlockEnd
  0
BLOCK
  5
88
330
87
100
AcDbEntity
  8
0
100
AcDbBlockBegin
  2
*D2
 70
    1
 10
0
 20
0
  3
*D2
  1

  0
LINE
  5
F6
100
AcDbEntity
  8
Dimensions
  6
ByBlock
 62
    5
370
   -2
100
AcDbLine
 10
-10
 20
10
 11
-10
 21
20
  0
MTEXT
  5
F7
100
AcDbEntity
  8
Dimensions
  6
CONTINUOUS
 62
    5
370
   -2
100
AcDbMText
 10
-11.875
 20
15
 30
0
 40
2.5
 41
5.416666666666667
 71
    5
 72
    1
  1
10,0
  7
STANDARD
210
0
220
0
230
1
 50
90
 73
    2
 44
1
  0
SOLID
  5
F8
100
AcDbEntity
  8
Dimensions
  6
ByBlock
 62
    5
370
   -2
100
AcDbTrace
 10
-10
 20
10
 30
0
 11
-10.41628465777284
 21
12.5
 31
0
 12
-9.583715342227158
 22
12.5
 32
0
 13
-9.583715342227158
 23
12.5
 33
0
  0
SOLID
  5
F9
100
AcDbEntity
  8
Dimensions
  6
ByBlock
 62
    5
370
   -2
100
AcDbTrace
 10
-10
 20
20
 30
0
 11
-9.58371534222716
 21
17.5
 31
0
 12
-10.41628465777284
 22
17.5
 32
0
 13
-10.41628465777284
 23
17.5
 33
0
  0
LINE
  5
FA
100
AcDbEntity
  8
Dimensions
  6
ByBlock
 62
    0
370
   -2
100
AcDbLine
 10
3.375
 20
10
 11
-11.25
 21
10
  0
LINE
  5
FB
100
AcDbEntity
  8
Dimensions
  6
ByBlock
 62
    0
370
   -2
100
AcDbLine
 10
3.375
 20
20
 11
-11.25
 21
20
  0
ENDBLK
  5
89
330
87
100
AcDbEntity
  8
0
100
AcDbBlockEnd
  0
BLOCK
  5
8B
330
8A
100
AcDbEntity
  8
0
100
AcDbBlockBegin
  2
*D20
 70
    1
 10
0
 20
0
  3
*D20
  1

  0
LINE
  5
FC
100
AcDbEntity
  8
Dimensions
  6
ByBlock
 62
    5
370
   -2
100
AcDbLine
 10
190
 20
10
 11
190
 21
1.665334536937735e-16
  0
MTEXT
  5
FD
100
AcDbEntity
  8
Dimensions
  6
CONTINUOUS
 62
    5
370
   -2
100
AcDbMText
 10
188.125
 20
5.000000000000001
 30
0
 40
2.5
 41
5.416666666666667
 71
    5
 72
    1
  1
10,0
  7
STANDARD
210
0
220
0
230
1
 50
90
 73
    2
 44
1
  0
SOLID
  5
FE
100
AcDbEntity
  8
Dimensions
  6
ByBlock
 62
    5
370
   -2
100
AcDbTrace
 10
190
 20
10
 30
0
 11
190.4162846577728
 21
7.500000000000002
 31
0
 12
189.5837153422272
 22
7.500000000000002
 32
0
 13
189.5837153422272
 23
7.500000000000002
 33
0
  0
SOLID
  5
FF
100
AcDbEntity
  8
Dimensions
  6
ByBlock
 62
    5
370
   -2
100
AcDbTrace
 10
190
 20
1.665334536937735e-16
 30
0
 11
189.5837153422272
 21
2.5
 31
0
 12
190.4162846577728
 22
2.5
 32
0
 13
190.4162846577728
 23
2.5
 33
0
  0
LINE
  5
100
100
AcDbEntity
  8
Dimensions
  6
ByBlock
 62
    0
370
   -2
100
AcDbLine
 10
177.225
 20
10
 11
191.25
 21
10
  0
LINE
  5
101
100
AcDbEntity
  8
Dimensions
  6
ByBlock
 62
    0
370
   -2
100
AcDbLine
 10
181.225
 20
1.665334536937735e-16
 11
191.25
 21
1.665334536937735e-16
  0
ENDBLK
  5
8C
330
8A
100
AcDbEntity
  8
0
100
AcDbBlockEnd
  0
BLOCK
  5
8E
330
8D
100
AcDbEntity
  8
0
100
AcDbBlockBegin
  2
*D14
 70
    1
 10
0
 20
0
  3
*D14
  1

  0
LINE
  5
102
100
AcDbEntity
  8
Dimensions
  6
ByBlock
 62
    5
370
   -2
100
AcDbLine
 10
173.6
 20
110
 11
185.6
 21
110
  0
MTEXT
  5
103
100
AcDbEntity
  8
Dimensions
  6
CONTINUOUS
 62
    5
370
   -2
100
AcDbMText
 10
183.2388888888889
 20
111.875
 30
0
 40
2.5
 41
4.027777777777778
 71
    5
 72
    1
  1
2,0
  7
STANDARD
210
0
220
0
230
1
 50
0
 73
    2
 44
1
  0
SOLID
  5
104
100
AcDbEntity
  8
Dimensions
  6
ByBlock
 62
    5
370
   -2
100
AcDbTrace
 10
178.6
 20
110
 30
0
 11
176.1
 21
109.5837153422272
 31
0
 12
176.1
 22
110.4162846577728
 32
0
 13
176.1
 23
110.4162846577728
 33
0
  0
SOLID
  5
105
100
AcDbEntity
  8
Dimensions
  6
ByBlock
 62
    5
370
   -2
100
AcDbTrace
 10
180.6
 20
110
 30
0
 11
183.1
 21
110.4162846577728
 31
0
 12
183.1
 22
109.5837153422272
 32
0
 13
183.1
 23
109.5837153422272
 33
0
  0
LINE
  5
106
100
AcDbEntity
  8
Dimensions
  6
ByBlock
 62
    0
370
   -2
100
AcDbLine
 10
178.6
 20
90.42500000000001
 11
178.6
 21
111.25
  0
LINE
  5
107
100
AcDbEntity
  8
Dimensions
  6
ByBlock
 62
    0
370
   -2
100
AcDbLine
 10
180.6
 20
102.425
 11
180.6
 21
111.25
  0
ENDBLK
  5
8F
330
8D
100
AcDbEntity
  8
0
100
AcDbBlockEnd
  0
ENDSEC
  0
SECTION
  2
ENTITIES
  0
LINE
  5
108
100
AcDbEntity
  8
0
  6
ByLayer
 62
  256
370
   -1
100
AcDbLine
 10
11
 20
0
 11
11
 21
101.8
  0
LINE
  5
109
100
AcDbEntity
  8
0
  6
ByLayer
 62
  256
370
   -1
100
AcDbLine
 10
169.6
 20
5.551115123125783e-17
 11
169.6
 21
101.8
  0
ARC
  5
10A
100
AcDbEntity
  8
0
  6
ByLayer
 62
  256
370
   -1
100
AcDbCircle
 10
4
 20
12
 40
2
100
AcDbArc
 50
180
 51
270
  0
ARC
  5
10B
100
AcDbEntity
  8
0
  6
ByLayer
 62
  256
370
   -1
100
AcDbCircle
 10
4
 20
12
 40
2
100
AcDbArc
 50
270
 51
0
  0
LINE
  5
10C
100
AcDbEntity
  8
0
  6
ByLayer
 62
  256
370
   -1
100
AcDbLine
 10
2
 20
12
 11
2
 21
18
  0
LINE
  5
10D
100
AcDbEntity
  8
0
  6
ByLayer
 62
  256
370
   -1
100
AcDbLine
 10
6
 20
12
 11
6
 21
18
  0
ARC
  5
10E
100
AcDbEntity
  8
0
  6
ByLayer
 62
  256
370
   -1
100
AcDbCircle
 10
4
 20
18
 40
2
100
AcDbArc
 50
90
 51
180
  0
ARC
  5
10F
100
AcDbEntity
  8
0
  6
ByLayer
 62
  256
370
   -1
100
AcDbCircle
 10
4
 20
18
 40
2
100
AcDbArc
 50
0
 51
90
  0
ARC
  5
110
100
AcDbEntity
  8
0
  6
ByLayer
 62
  256
370
   -1
100
AcDbCircle
 10
4.000000000000001
 20
83.8
 40
2
100
AcDbArc
 50
180
 51
270
  0
ARC
  5
111
100
AcDbEntity
  8
0
  6
ByLayer
 62
  256
370
   -1
100
AcDbCircle
 10
4.000000000000001
 20
83.8
 40
2
100
AcDbArc
 50
270
 51
0
  0
LINE
  5
112
100
AcDbEntity
  8
0
  6
ByLayer
 62
  256
370
   -1
100
AcDbLine
 10
2.000000000000001
 20
83.8
 11
2.000000000000001
 21
89.8
  0
LINE
  5
113
100
AcDbEntity
  8
0
  6
ByLayer
 62
  256
370
   -1
100
AcDbLine
 10
6.000000000000001
 20
83.8
 11
6.000000000000001
 21
89.8
  0
ARC
  5
114
100
AcDbEntity
  8
0
  6
ByLayer
 62
  256
370
   -1
100
AcDbCircle
 10
4.000000000000001
 20
89.8
 40
2
100
AcDbArc
 50
90
 51
180
  0
ARC
  5
115
100
AcDbEntity
  8
0
  6
ByLayer
 62
  256
370
   -1
100
AcDbCircle
 10
4.000000000000001
 20
89.8
 40
2
100
AcDbArc
 50
0
 51
90
  0
ARC
  5
116
100
AcDbEntity
  8
0
  6
ByLayer
 62
  256
370
   -1
100
AcDbCircle
 10
176.6
 20
12
 40
2
100
AcDbArc
 50
180
 51
270
  0
ARC
  5
117
100
AcDbEntity
  8
0
  6
ByLayer
 62
  256
370
   -1
100
AcDbCircle
 10
176.6
 20
12
 40
2
100
AcDbArc
 50
270
 51
0
  0
LINE
  5
118
100
AcDbEntity
  8
0
  6
ByLayer
 62
  256
370
   -1
100
AcDbLine
 10
174.6
 20
12
 11
174.6
 21
18
  0
LINE
  5
119
100
AcDbEntity
  8
0
  6
ByLayer
 62
  256
370
   -1
100
AcDbLine
 10
178.6
 20
12
 11
178.6
 21
18
  0
ARC
  5
11A
100
AcDbEntity
  8
0
  6
ByLayer
 62
  256
370
   -1
100
AcDbCircle
 10
176.6
 20
18
 40
2
100
AcDbArc
 50
90
 51
180
  0
ARC
  5
11B
100
AcDbEntity
  8
0
  6
ByLayer
 62
  256
370
   -1
100
AcDbCircle
 10
176.6
 20
18
 40
2
100
AcDbArc
 50
0
 51
90
  0
ARC
  5
11C
100
AcDbEntity
  8
0
  6
ByLayer
 62
  256
370
   -1
100
AcDbCircle
 10
176.6
 20
83.8
 40
2
100
AcDbArc
 50
180
 51
270
  0
ARC
  5
11D
100
AcDbEntity
  8
0
  6
ByLayer
 62
  256
370
   -1
100
AcDbCircle
 10
176.6
 20
83.8
 40
2
100
AcDbArc
 50
270
 51
0
  0
LINE
  5
11E
100
AcDbEntity
  8
0
  6
ByLayer
 62
  256
370
   -1
100
AcDbLine
 10
174.6
 20
83.8
 11
174.6
 21
89.8
  0
LINE
  5
11F
100
AcDbEntity
  8
0
  6
ByLayer
 62
  256
370
   -1
100
AcDbLine
 10
178.6
 20
83.8
 11
178.6
 21
89.8
  0
ARC
  5
120
100
AcDbEntity
  8
0
  6
ByLayer
 62
  256
370
   -1
100
AcDbCircle
 10
176.6
 20
89.8
 40
2
100
AcDbArc
 50
90
 51
180
  0
ARC
  5
121
100
AcDbEntity
  8
0
  6
ByLayer
 62
  256
370
   -1
100
AcDbCircle
 10
176.6
 20
89.8
 40
2
100
AcDbArc
 50
0
 51
90
  0
LWPOLYLINE
  5
122
100
AcDbEntity
  8
0
  6
ByLayer
 62
  256
370
   -1
100
AcDbPolyline
 90
    4
 70
    1
 43
0
 10
180.6
 20
101.8
 10
0
 20
101.8
 10
0
 20
0
 10
180.6
 20
0
  0
DIMENSION
  5
123
100
AcDbEntity
  8
Dimensions
  6
ByLayer
 62
  256
370
   -1
100
AcDbDimension
  2
*D1
 10
-19.99999999999999
 20
101.8
 30
0
 11
-21.87499999999999
 21
50.9
 31
0
 70
   32
  1
101.8 %%P 0.2
 71
    5
  3
Standard
 53
0
210
0
220
0
230
1
100
AcDbAlignedDimension
 13
0
 23
0
 33
0
 14
-5.551115123125783e-17
 24
101.8
 34
0
 50
90
100
AcDbRotatedDimension
  0
DIMENSION
  5
124
100
AcDbEntity
  8
Dimensions
  6
ByLayer
 62
  256
370
   -1
100
AcDbDimension
  2
*D2
 10
-10
 20
20
 30
0
 11
-11.875
 21
15
 31
0
 70
   32
 71
    5
  3
Standard
 53
0
210
0
220
0
230
1
100
AcDbAlignedDimension
 13
4
 23
10
 33
0
 14
4
 24
20
 34
0
 50
90
100
AcDbRotatedDimension
  0
DIMENSION
  5
125
100
AcDbEntity
  8
Dimensions
  6
ByLayer
 62
  256
370
   -1
100
AcDbDimension
  2
*D3
 10
-10
 20
10
 30
0
 11
-11.875
 21
5
 31
0
 70
   32
 71
    5
  3
Standard
 53
0
210
0
220
0
230
1
100
AcDbAlignedDimension
 13
0
 23
0
 33
0
 14
4
 24
10
 34
0
 50
90
100
AcDbRotatedDimension
  0
DIMENSION
  5
126
100
AcDbEntity
  8
Dimensions
  6
ByLayer
 62
  256
370
   -1
100
AcDbDimension
  2
*D4
 10
5.999999999999998
 20
-10
 30
0
 11
4
 21
-8.125
 31
0
 70
   32
 71
    5
  3
Standard
 53
0
210
0
220
0
230
1
100
AcDbAlignedDimension
 13
2
 23
12
 33
0
 14
6
 24
12
 34
0
100
AcDbRotatedDimension
  0
DIMENSION
  5
127
100
AcDbEntity
  8
Dimensions
  6
ByLayer
 62
  256
370
   -1
100
AcDbDimension
  2
*D5
 10
1.999999999999998
 20
-20
 30
0
 11
1
 21
-18.125
 31
0
 70
   32
 71
    5
  3
Standard
 53
0
210
0
220
0
230
1
100
AcDbAlignedDimension
 13
0
 23
0
 33
0
 14
2
 24
12
 34
0
100
AcDbRotatedDimension
  0
DIMENSION
  5
128
100
AcDbEntity
  8
Dimensions
  6
ByLayer
 62
  256
370
   -1
100
AcDbDimension
  2
*D6
 10
180.6
 20
-30
 30
0
 11
90.3
 21
-28.125
 31
0
 70
   32
 71
    5
  3
Standard
 53
0
210
0
220
0
230
1
100
AcDbAlignedDimension
 13
0
 23
0
 33
0
 14
180.6
 24
-1.665334536937735e-16
 34
0
100
AcDbRotatedDimension
  0
DIMENSION
  5
129
100
AcDbEntity
  8
Dimensions
  6
ByLayer
 62
  256
370
   -1
100
AcDbDimension
  2
*D7
 10
4
 20
18
 30
0
 11
-1.391689206547415
 21
26.04333963599699
 31
0
 70
   36
  1
2-R2.0
 71
    5
  3
Standard
 53
0
210
0
220
0
230
1
100
AcDbRadialDimension
 15
2.585786437626905
 25
19.4142135623731
 35
0
 40
0
  0
DIMENSION
  5
12A
100
AcDbEntity
  8
Dimensions
  6
ByLayer
 62
  256
370
   -1
100
AcDbDimension
  2
*D8
 10
4.000000000000001
 20
83.8
 30
0
 11
-4.589556903873337
 21
79.32952606593865
 31
0
 70
   36
  1
2-R2.0
 71
    5
  3
Standard
 53
0
210
0
220
0
230
1
100
AcDbRadialDimension
 15
2.438262381113939
 25
82.55060990489115
 35
0
 40
0
  0
DIMENSION
  5
12B
100
AcDbEntity
  8
Dimensions
  6
ByLayer
 62
  256
370
   -1
100
AcDbDimension
  2
*D9
 10
-10
 20
81.80000000000001
 30
0
 11
-11.875
 21
86.80000000000001
 31
0
 70
   32
 71
    5
  3
Standard
 53
0
210
0
220
0
230
1
100
AcDbAlignedDimension
 13
4
 23
91.80000000000001
 33
0
 14
4
 24
81.80000000000001
 34
0
 50
90
100
AcDbRotatedDimension
  0
DIMENSION
  5
12C
100
AcDbEntity
  8
Dimensions
  6
ByLayer
 62
  256
370
   -1
100
AcDbDimension
  2
*D10
 10
-10
 20
101.8
 30
0
 11
-11.875
 21
96.80000000000001
 31
0
 70
   32
 71
    5
  3
Standard
 53
0
210
0
220
0
230
1
100
AcDbAlignedDimension
 13
4
 23
91.80000000000001
 33
0
 14
-5.551115123125783e-17
 24
101.8
 34
0
 50
90
100
AcDbRotatedDimension
  0
DIMENSION
  5
12D
100
AcDbEntity
  8
Dimensions
  6
ByLayer
 62
  256
370
   -1
100
AcDbDimension
  2
*D11
 10
6.000000000000001
 20
110
 30
0
 11
4
 21
111.875
 31
0
 70
   32
 71
    5
  3
Standard
 53
0
210
0
220
0
230
1
100
AcDbAlignedDimension
 13
2
 23
89.59999999999999
 33
0
 14
6
 24
89.59999999999999
 34
0
100
AcDbRotatedDimension
  0
DIMENSION
  5
12E
100
AcDbEntity
  8
Dimensions
  6
ByLayer
 62
  256
370
   -1
100
AcDbDimension
  2
*D12
 10
1.641747718675312e-15
 20
120
 30
0
 11
1
 21
121.875
 31
0
 70
   32
 71
    5
  3
Standard
 53
0
210
0
220
0
230
1
100
AcDbAlignedDimension
 13
2
 23
89.59999999999999
 33
0
 14
5.273559366969494e-16
 24
101.8
 34
0
100
AcDbRotatedDimension
  0
DIMENSION
  5
12F
100
AcDbEntity
  8
Dimensions
  6
ByLayer
 62
  256
370
   -1
100
AcDbDimension
  2
*D13
 10
174.6
 20
120
 30
0
 11
176.6
 21
121.875
 31
0
 70
   32
 71
    5
  3
Standard
 53
0
210
0
220
0
230
1
100
AcDbAlignedDimension
 13
178.6
 23
89.80000000000001
 33
0
 14
174.6
 24
89.80000000000001
 34
0
100
AcDbRotatedDimension
  0
DIMENSION
  5
130
100
AcDbEntity
  8
Dimensions
  6
ByLayer
 62
  256
370
   -1
100
AcDbDimension
  2
*D14
 10
180.6
 20
110
 30
0
 11
179.6
 21
111.875
 31
0
 70
   32
 71
    5
  3
Standard
 53
0
210
0
220
0
230
1
100
AcDbAlignedDimension
 13
178.6
 23
89.80000000000001
 33
0
 14
180.6
 24
101.8
 34
0
100
AcDbRotatedDimension
  0
DIMENSION
  5
131
100
AcDbEntity
  8
Dimensions
  6
ByLayer
 62
  256
370
   -1
100
AcDbDimension
  2
*D15
 10
190
 20
101.8
 30
0
 11
188.125
 21
96.80000000000001
 31
0
 70
   32
 71
    5
  3
Standard
 53
0
210
0
220
0
230
1
100
AcDbAlignedDimension
 13
176.6
 23
91.80000000000001
 33
0
 14
180.6
 24
101.8
 34
0
 50
90
100
AcDbRotatedDimension
  0
DIMENSION
  5
132
100
AcDbEntity
  8
Dimensions
  6
ByLayer
 62
  256
370
   -1
100
AcDbDimension
  2
*D16
 10
190
 20
81.8
 30
0
 11
188.125
 21
86.80000000000001
 31
0
 70
   32
 71
    5
  3
Standard
 53
0
210
0
220
0
230
1
100
AcDbAlignedDimension
 13
176.6
 23
91.80000000000001
 33
0
 14
176.6
 24
81.8
 34
0
 50
90
100
AcDbRotatedDimension
  0
DIMENSION
  5
133
100
AcDbEntity
  8
Dimensions
  6
ByLayer
 62
  256
370
   -1
100
AcDbDimension
  2
*D17
 10
176.6
 20
83.8
 30
0
 11
184.4015479837912
 21
78.06401934656303
 31
0
 70
   36
  1
2-R2.0
 71
    5
  3
Standard
 53
0
210
0
220
0
230
1
100
AcDbRadialDimension
 15
177.9514492570347
 25
82.32569171959851
 35
0
 40
0
  0
DIMENSION
  5
134
100
AcDbEntity
  8
Dimensions
  6
ByLayer
 62
  256
370
   -1
100
AcDbDimension
  2
*D18
 10
176.6
 20
18
 30
0
 11
183.8377123066926
 21
24.43281785577298
 31
0
 70
   36
  1
2-R2.0
 71
    5
  3
Standard
 53
0
210
0
220
0
230
1
100
AcDbRadialDimension
 15
178.3238684303156
 25
19.01404025312679
 35
0
 40
0
  0
DIMENSION
  5
135
100
AcDbEntity
  8
Dimensions
  6
ByLayer
 62
  256
370
   -1
100
AcDbDimension
  2
*D19
 10
190
 20
20
 30
0
 11
188.125
 21
15
 31
0
 70
   32
 71
    5
  3
Standard
 53
0
210
0
220
0
230
1
100
AcDbAlignedDimension
 13
176.6
 23
10
 33
0
 14
176.6
 24
20
 34
0
 50
90
100
AcDbRotatedDimension
  0
DIMENSION
  5
136
100
AcDbEntity
  8
Dimensions
  6
ByLayer
 62
  256
370
   -1
100
AcDbDimension
  2
*D20
 10
190
 20
-9.845965188992583e-16
 30
0
 11
188.125
 21
5.000000000000001
 31
0
 70
   32
 71
    5
  3
Standard
 53
0
210
0
220
0
230
1
100
AcDbAlignedDimension
 13
176.6
 23
10
 33
0
 14
180.6
 24
1.665334536937735e-16
 34
0
 50
90
100
AcDbRotatedDimension
  0
DIMENSION
  5
137
100
AcDbEntity
  8
Dimensions
  6
ByLayer
 62
  256
370
   -1
100
AcDbDimension
  2
*D21
 10
180.6
 20
-10
 30
0
 11
179.6
 21
-8.125
 31
0
 70
   32
 71
    5
  3
Standard
 53
0
210
0
220
0
230
1
100
AcDbAlignedDimension
 13
178.6
 23
12
 33
0
 14
180.6
 24
2.498001805406602e-16
 34
0
100
AcDbRotatedDimension
  0
DIMENSION
  5
138
100
AcDbEntity
  8
Dimensions
  6
ByLayer
 62
  256
370
   -1
100
AcDbDimension
  2
*D22
 10
174.6
 20
-20
 30
0
 11
176.6
 21
-18.125
 31
0
 70
   32
 71
    5
  3
Standard
 53
0
210
0
220
0
230
1
100
AcDbAlignedDimension
 13
178.6
 23
12
 33
0
 14
174.6
 24
12
 34
0
100
AcDbRotatedDimension
  0
ENDSEC
  0
SECTION
  2
OBJECTS
  0
DICTIONARY
  5
C
330
0
100
AcDbDictionary
281
    1
  3
ACAD_GROUP
350
D
  0
DICTIONARY
  5
D
330
C
100
AcDbDictionary
281
    1
  0
PLOTSETTINGS
  5
139
100
AcDbPlotSettings
  6
1x1
 40
0
 41
0
 42
0
 43
0
  0
ENDSEC
  0
EOF
