999
dxfrw 0.6.3
  0
SECTION
  2
HEADER
  9
$ACADVER
  1
AC1021
  9
$DWGCODEPAGE
  3
ANSI_1252
  9
$INSBASE
 10
0
 20
0
 30
0
  9
$EXTMIN
 10
-105.625
 20
-51.25
 30
0
  9
$EXTMAX
 10
106.25
 20
63.125
 30
0
  9
$LIMMIN
 10
0
 20
0
  9
$LIMMAX
 10
420
 20
297
  9
$ORTHOMODE
 70
    0
  9
$REGENMODE
 70
    1
  9
$FILLMODE
 70
    1
  9
$QTEXTMODE
 70
    0
  9
$MIRRTEXT
 70
    0
  9
$LTSCALE
 40
1
  9
$ATTMODE
 70
    0
  9
$TEXTSIZE
 40
2.5
  9
$TRACEWID
 40
15.68
  9
$TEXTSTYLE
  7
STANDARD
  9
$CLAYER
  8
Dimensions
  9
$CELTYPE
  6
BYLAYER
  9
$CECOLOR
 62
  256
  9
$CELTSCALE
 40
1
  9
$DISPSILH
 70
    0
  9
$DIMSCALE
 40
1
  9
$DIMASZ
 40
1
  9
$DIMEXO
 40
0.625
  9
$DIMDLI
 40
3.75
  9
$DIMRND
 40
0
  9
$DIMDLE
 40
0
  9
$DIMEXE
 40
1.25
  9
$DIMTP
 40
0
  9
$DIMTM
 40
0
  9
$DIMTXT
 40
2.5
  9
$DIMCEN
 40
2.5
  9
$DIMTSZ
 40
0
  9
$DIMTOL
 70
    0
  9
$DIMLIM
 70
    0
  9
$DIMTIH
 70
    0
  9
$DIMTOH
 70
    0
  9
$DIMSE1
 70
    0
  9
$DIMSE2
 70
    0
  9
$DIMTAD
 70
    1
  9
$DIMZIN
 70
    1
  9
$DIMBLK
  1

  9
$DIMASO
 70
    1
  9
$DIMSHO
 70
    1
  9
$DIMPOST
  1

  9
$DIMAPOST
  1

  9
$DIMALT
 70
    0
  9
$DIMALTD
 70
    3
  9
$DIMALTF
 40
0.03937
  9
$DIMLFAC
 40
1
  9
$DIMTOFL
 70
    1
  9
$DIMTVP
 40
0
  9
$DIMTIX
 70
    0
  9
$DIMSOXD
 70
    0
  9
$DIMSAH
 70
    0
  9
$DIMBLK1
  1

  9
$DIMBLK2
  1

  9
$DIMSTYLE
  2
STANDARD
  9
$DIMCLRD
 70
    5
  9
$DIMCLRE
 70
    5
  9
$DIMCLRT
 70
    5
  9
$DIMTFAC
 40
1
  9
$DIMGAP
 40
0.625
  9
$DIMJUST
 70
    0
  9
$DIMSD1
 70
    0
  9
$DIMSD2
 70
    0
  9
$DIMTOLJ
 70
    0
  9
$DIMTZIN
 70
    8
  9
$DIMALTZ
 70
    0
  9
$DIMALTTZ
 70
    0
  9
$DIMUPT
 70
    0
  9
$DIMDEC
 70
    2
  9
$DIMTDEC
 70
    2
  9
$DIMALTU
 70
    2
  9
$DIMALTTD
 70
    3
  9
$DIMTXSTY
  7
standard
  9
$DIMAUNIT
 70
    0
  9
$DIMADEC
 70
    2
  9
$DIMALTRND
 40
0
  9
$DIMAZIN
 70
    0
  9
$DIMDSEP
 70
    0
  9
$DIMATFIT
 70
    3
  9
$DIMFRAC
 70
    0
  9
$DIMLDRBLK
  1
STANDARD
  9
$DIMLUNIT
 70
    2
  9
$DIMLWD
 70
   -2
  9
$DIMLWE
 70
   -2
  9
$DIMTMOVE
 70
    0
  9
$DIMFXL
 40
1
  9
$DIMFXLON
 70
    0
  9
$DIMJOGANG
 40
0.7854
  9
$DIMTFILL
 70
    0
  9
$DIMTFILLCLR
 70
    0
  9
$DIMARCSYM
 70
    0
  9
$DIMLTYPE
  6

  9
$DIMLTEX1
  6

  9
$DIMLTEX2
  6

  9
$LUNITS
 70
    2
  9
$LUPREC
 70
    2
  9
$SKETCHINC
 40
1
  9
$FILLETRAD
 40
0
  9
$AUNITS
 70
    0
  9
$AUPREC
 70
    2
  9
$MENU
  1
.
  9
$ELEVATION
 40
0
  9
$PELEVATION
 40
0
  9
$THICKNESS
 40
0
  9
$LIMCHECK
 70
    0
  9
$CHAMFERA
 40
0
  9
$CHAMFERB
 40
0
  9
$CHAMFERC
 40
0
  9
$CHAMFERD
 40
0
  9
$SKPOLY
 70
    0
  9
$USRTIMER
 70
    1
  9
$ANGBASE
 50
0
  9
$ANGDIR
 70
    0
  9
$PDMODE
 70
   34
  9
$PDSIZE
 40
0
  9
$PLINEWID
 40
0
  9
$SPLFRAME
 70
    0
  9
$SPLINETYPE
 70
    2
  9
$SPLINESEGS
 70
    8
  9
$HANDSEED
  5
20000
  9
$SURFTAB1
 70
    6
  9
$SURFTAB2
 70
    6
  9
$SURFTYPE
 70
    6
  9
$SURFU
 70
    6
  9
$SURFV
 70
    6
  9
$UCSBASE
  2

  9
$UCSNAME
  2

  9
$UCSORG
 10
0
 20
0
 30
0
  9
$UCSXDIR
 10
1
 20
0
 30
0
  9
$UCSYDIR
 10
0
 20
1
 30
0
  9
$UCSORTHOREF
  2

  9
$UCSORTHOVIEW
 70
    0
  9
$UCSORGTOP
 10
0
 20
0
 30
0
  9
$UCSORGBOTTOM
 10
0
 20
0
 30
0
  9
$UCSORGLEFT
 10
0
 20
0
 30
0
  9
$UCSORGRIGHT
 10
0
 20
0
 30
0
  9
$UCSORGFRONT
 10
0
 20
0
 30
0
  9
$UCSORGBACK
 10
0
 20
0
 30
0
  9
$PUCSBASE
  2

  9
$PUCSNAME
  2

  9
$PUCSORG
 10
0
 20
0
 30
0
  9
$PUCSXDIR
 10
1
 20
0
 30
0
  9
$PUCSYDIR
 10
0
 20
1
 30
0
  9
$PUCSORTHOREF
  2

  9
$PUCSORTHOVIEW
 70
    0
  9
$PUCSORGTOP
 10
0
 20
0
 30
0
  9
$PUCSORGBOTTOM
 10
0
 20
0
 30
0
  9
$PUCSORGLEFT
 10
0
 20
0
 30
0
  9
$PUCSORGRIGHT
 10
0
 20
0
 30
0
  9
$PUCSORGFRONT
 10
0
 20
0
 30
0
  9
$PUCSORGBACK
 10
0
 20
0
 30
0
  9
$USERI1
 70
    0
  9
$USERI2
 70
    0
  9
$USERI3
 70
    0
  9
$USERI4
 70
    0
  9
$USERI5
 70
    0
  9
$USERR1
 40
0
  9
$USERR2
 40
0
  9
$USERR3
 40
0
  9
$USERR4
 40
0
  9
$USERR5
 40
0
  9
$WORLDVIEW
 70
    1
  9
$SHADEDGE
 70
    3
  9
$SHADEDIF
 70
   70
  9
$TILEMODE
 70
    1
  9
$MAXACTVP
 70
   64
  9
$PINSBASE
 10
144.6484149855908
 20
96.86887608069165
 30
0
  9
$PLIMCHECK
 70
    0
  9
$PEXTMIN
 10
0
 20
0
 30
0
  9
$PEXTMAX
 10
0
 20
0
 30
0
  9
$GRIDMODE
 70
    1
  9
$SNAPSTYLE
 70
    0
  9
$GRIDUNIT
 10
0.05
 20
0.05
  9
$PLIMMIN
 10
0
 20
0
  9
$PLIMMAX
 10
297
 20
210
  9
$UNITMODE
 70
    0
  9
$VISRETAIN
 70
    1
  9
$PLINEGEN
 70
    0
  9
$PSLTSCALE
 70
    1
  9
$TREEDEPTH
 70
 3020
  9
$CMLSTYLE
  2
Standard
  9
$CMLJUST
 70
    0
  9
$CMLSCALE
 40
20
  9
$PROXYGRAPHICS
 70
    1
  9
$MEASUREMENT
 70
    1
  9
$CELWEIGHT
370
   -1
  9
$ENDCAPS
280
    0
  9
$JOINSTYLE
280
    0
  9
$LWDISPLAY
290
    0
  9
$INSUNITS
 70
    4
  9
$HYPERLINKBASE
  1

  9
$STYLESHEET
  1

  9
$XEDIT
290
    1
  9
$CEPSNTYPE
380
    0
  9
$PSTYLEMODE
290
    1
  9
$EXTNAMES
290
    1
  9
$PSVPSCALE
 40
1.369452449567723
  9
$OLESTARTUP
290
    0
  9
$SORTENTS
280
  127
  9
$INDEXCTL
280
    0
  9
$HIDETEXT
280
    1
  9
$XCLIPFRAME
290
    0
  9
$HALOGAP
280
    0
  9
$OBSCOLOR
 70
  257
  9
$OBSLTYPE
280
    0
  9
$INTERSECTIONDISPLAY
280
    0
  9
$INTERSECTIONCOLOR
 70
  257
  9
$DIMASSOC
280
    1
  9
$PROJECTNAME
  1

  9
$CAMERADISPLAY
290
    0
  9
$LENSLENGTH
 40
50
  9
$CAMERAHEIGHT
 40
0
  9
$STEPSPERSEC
 40
2
  9
$STEPSIZE
 40
50
  9
$3DDWFPREC
 40
2
  9
$PSOLWIDTH
 40
5
  9
$PSOLHEIGHT
 40
80
  9
$LOFTANG1
 40
1.570796326794897
  9
$LOFTANG2
 40
1.570796326794897
  9
$LOFTMAG1
 40
0
  9
$LOFTMAG2
 40
0
  9
$LOFTPARAM
 70
    7
  9
$LOFTNORMALS
280
    1
  9
$LATITUDE
 40
1
  9
$LONGITUDE
 40
1
  9
$NORTHDIRECTION
 40
0
  9
$TIMEZONE
 70
-8000
  9
$LIGHTGLYPHDISPLAY
280
    1
  9
$TILEMODELIGHTSYNCH
280
    1
  9
$SOLIDHIST
280
    1
  9
$SHOWHIST
280
    1
  9
$DWFFRAME
280
    2
  9
$DGNFRAME
280
    0
  9
$REALWORLDSCALE
290
    1
  9
$INTERFERECOLOR
 62
    1
  9
$CSHADOW
280
    0
  9
$SHADOWPLANELOCATION
 40
0
  0
ENDSEC
  0
SECTION
  2
CLASSES
  0
ENDSEC
  0
SECTION
  2
TABLES
  0
TABLE
  2
VPORT
  5
8
330
0
100
AcDbSymbolTable
 70
    1
  0
VPORT
  5
31
330
2
100
AcDbSymbolTableRecord
100
AcDbViewportTableRecord
  2
*ACTIVE
 70
    0
 10
0
 20
0
 11
1
 21
1
 12
54.25655542312276
 22
32.30855184743743
 13
0
 23
0
 14
10
 24
10
 15
0.05
 25
0.05
 16
0
 26
0
 36
1
 17
0
 27
0
 37
0
 40
117.1014600715137
 41
1.846332945285215
 42
50
 43
0
 44
0
 50
0
 51
0
 71
    0
 72
  100
 73
    1
 74
    3
 75
    0
 76
    1
 77
    0
 78
    0
281
    0
 65
    1
110
0
120
0
130
0
111
1
121
0
131
0
112
0
122
1
132
0
 79
    0
146
0
348
10020
 60
    3
 61
    5
292
1
282
    1
141
0
142
0
 63
  250
421
3358443
  0
ENDTAB
  0
TABLE
  2
LTYPE
  5
5
330
0
100
AcDbSymbolTable
 70
    4
  0
LTYPE
  5
14
330
5
100
AcDbSymbolTableRecord
100
AcDbLinetypeTableRecord
  2
ByBlock
 70
    0
  3

 72
   65
 73
    0
 40
0
  0
LTYPE
  5
15
330
5
100
AcDbSymbolTableRecord
100
AcDbLinetypeTableRecord
  2
ByLayer
 70
    0
  3

 72
   65
 73
    0
 40
0
  0
LTYPE
  5
16
330
5
100
AcDbSymbolTableRecord
100
AcDbLinetypeTableRecord
  2
Continuous
 70
    0
  3
Solid line
 72
   65
 73
    0
 40
0
  0
LTYPE
  5
32
330
5
100
AcDbSymbolTableRecord
100
AcDbLinetypeTableRecord
  2
DOT
 70
    0
  3
Dot . . . . . . . . . . . . . . . . . . . . . .
 72
   65
 73
    2
 40
6.35
 49
0
 74
    0
 49
-6.35
 74
    0
  0
LTYPE
  5
33
330
5
100
AcDbSymbolTableRecord
100
AcDbLinetypeTableRecord
  2
DOTTINY
 70
    0
  3
Dot (.15x) .....................................
 72
   65
 73
    2
 40
0.9525
 49
0
 74
    0
 49
-0.9525
 74
    0
  0
LTYPE
  5
34
330
5
100
AcDbSymbolTableRecord
100
AcDbLinetypeTableRecord
  2
DOT2
 70
    0
  3
Dot (.5x) .....................................
 72
   65
 73
    2
 40
3.175
 49
0
 74
    0
 49
-3.175
 74
    0
  0
LTYPE
  5
35
330
5
100
AcDbSymbolTableRecord
100
AcDbLinetypeTableRecord
  2
DOTX2
 70
    0
  3
Dot (2x) .  .  .  .  .  .  .  .  .  .  .  .  .
 72
   65
 73
    2
 40
12.7
 49
0
 74
    0
 49
-12.7
 74
    0
  0
LTYPE
  5
36
330
5
100
AcDbSymbolTableRecord
100
AcDbLinetypeTableRecord
  2
DASHED
 70
    0
  3
Dashed _ _ _ _ _ _ _ _ _ _ _ _ _ _ _ _ _
 72
   65
 73
    2
 40
19.05
 49
12.7
 74
    0
 49
-6.35
 74
    0
  0
LTYPE
  5
37
330
5
100
AcDbSymbolTableRecord
100
AcDbLinetypeTableRecord
  2
DASHEDTINY
 70
    0
  3
Dashed (.15x) _ _ _ _ _ _ _ _ _ _ _ _ _ _ _ _ _
 72
   65
 73
    2
 40
2.8575
 49
1.905
 74
    0
 49
-0.9525
 74
    0
  0
LTYPE
  5
38
330
5
100
AcDbSymbolTableRecord
100
AcDbLinetypeTableRecord
  2
DASHED2
 70
    0
  3
Dashed (.5x) _ _ _ _ _ _ _ _ _ _ _ _ _ _ _ _ _
 72
   65
 73
    2
 40
9.524999999999999
 49
6.35
 74
    0
 49
-3.175
 74
    0
  0
LTYPE
  5
39
330
5
100
AcDbSymbolTableRecord
100
AcDbLinetypeTableRecord
  2
DASHEDX2
 70
    0
  3
Dashed (2x) ____  ____  ____  ____  ____  ___
 72
   65
 73
    2
 40
38.09999999999999
 49
25.4
 74
    0
 49
-12.7
 74
    0
  0
LTYPE
  5
3A
330
5
100
AcDbSymbolTableRecord
100
AcDbLinetypeTableRecord
  2
DASHDOT
 70
    0
  3
Dash dot __ . __ . __ . __ . __ . __ . __ . __
 72
   65
 73
    4
 40
25.4
 49
12.7
 74
    0
 49
-6.35
 74
    0
 49
0
 74
    0
 49
-6.35
 74
    0
  0
LTYPE
  5
3B
330
5
100
AcDbSymbolTableRecord
100
AcDbLinetypeTableRecord
  2
DASHDOTTINY
 70
    0
  3
Dash dot (.15x) _._._._._._._._._._._._._._._.
 72
   65
 73
    4
 40
3.81
 49
1.905
 74
    0
 49
-0.9525
 74
    0
 49
0
 74
    0
 49
-0.9525
 74
    0
  0
LTYPE
  5
3C
330
5
100
AcDbSymbolTableRecord
100
AcDbLinetypeTableRecord
  2
DASHDOT2
 70
    0
  3
Dash dot (.5x) _._._._._._._._._._._._._._._.
 72
   65
 73
    4
 40
12.7
 49
6.35
 74
    0
 49
-3.175
 74
    0
 49
0
 74
    0
 49
-3.175
 74
    0
  0
LTYPE
  5
3D
330
5
100
AcDbSymbolTableRecord
100
AcDbLinetypeTableRecord
  2
DASHDOTX2
 70
    0
  3
Dash dot (2x) ____  .  ____  .  ____  .  ___
 72
   65
 73
    4
 40
50.8
 49
25.4
 74
    0
 49
-12.7
 74
    0
 49
0
 74
    0
 49
-12.7
 74
    0
  0
LTYPE
  5
3E
330
5
100
AcDbSymbolTableRecord
100
AcDbLinetypeTableRecord
  2
DIVIDE
 70
    0
  3
Divide ____ . . ____ . . ____ . . ____ . . ____
 72
   65
 73
    6
 40
31.75
 49
12.7
 74
    0
 49
-6.35
 74
    0
 49
0
 74
    0
 49
-6.35
 74
    0
 49
0
 74
    0
 49
-6.35
 74
    0
  0
LTYPE
  5
3F
330
5
100
AcDbSymbolTableRecord
100
AcDbLinetypeTableRecord
  2
DIVIDETINY
 70
    0
  3
Divide (.15x) __..__..__..__..__..__..__..__.._
 72
   65
 73
    6
 40
4.7625
 49
1.905
 74
    0
 49
-0.9525
 74
    0
 49
0
 74
    0
 49
-0.9525
 74
    0
 49
0
 74
    0
 49
-0.9525
 74
    0
  0
LTYPE
  5
40
330
5
100
AcDbSymbolTableRecord
100
AcDbLinetypeTableRecord
  2
DIVIDE2
 70
    0
  3
Divide (.5x) __..__..__..__..__..__..__..__.._
 72
   65
 73
    6
 40
15.875
 49
6.35
 74
    0
 49
-3.175
 74
    0
 49
0
 74
    0
 49
-3.175
 74
    0
 49
0
 74
    0
 49
-3.175
 74
    0
  0
LTYPE
  5
41
330
5
100
AcDbSymbolTableRecord
100
AcDbLinetypeTableRecord
  2
DIVIDEX2
 70
    0
  3
Divide (2x) ________  .  .  ________  .  .  _
 72
   65
 73
    6
 40
63.5
 49
25.4
 74
    0
 49
-12.7
 74
    0
 49
0
 74
    0
 49
-12.7
 74
    0
 49
0
 74
    0
 49
-12.7
 74
    0
  0
LTYPE
  5
42
330
5
100
AcDbSymbolTableRecord
100
AcDbLinetypeTableRecord
  2
BORDER
 70
    0
  3
Border __ __ . __ __ . __ __ . __ __ . __ __ .
 72
   65
 73
    6
 40
44.45
 49
12.7
 74
    0
 49
-6.35
 74
    0
 49
12.7
 74
    0
 49
-6.35
 74
    0
 49
0
 74
    0
 49
-6.35
 74
    0
  0
LTYPE
  5
43
330
5
100
AcDbSymbolTableRecord
100
AcDbLinetypeTableRecord
  2
BORDERTINY
 70
    0
  3
Border (.15x) __.__.__.__.__.__.__.__.__.__.__.
 72
   65
 73
    6
 40
6.6675
 49
1.905
 74
    0
 49
-0.9525
 74
    0
 49
1.905
 74
    0
 49
-0.9525
 74
    0
 49
0
 74
    0
 49
-0.9525
 74
    0
  0
LTYPE
  5
44
330
5
100
AcDbSymbolTableRecord
100
AcDbLinetypeTableRecord
  2
BORDER2
 70
    0
  3
Border (.5x) __.__.__.__.__.__.__.__.__.__.__.
 72
   65
 73
    6
 40
22.225
 49
6.35
 74
    0
 49
-3.175
 74
    0
 49
6.35
 74
    0
 49
-3.175
 74
    0
 49
0
 74
    0
 49
-3.175
 74
    0
  0
LTYPE
  5
45
330
5
100
AcDbSymbolTableRecord
100
AcDbLinetypeTableRecord
  2
BORDERX2
 70
    0
  3
Border (2x) ____  ____  .  ____  ____  .  ___
 72
   65
 73
    6
 40
88.89999999999999
 49
25.4
 74
    0
 49
-12.7
 74
    0
 49
25.4
 74
    0
 49
-12.7
 74
    0
 49
0
 74
    0
 49
-12.7
 74
    0
  0
LTYPE
  5
46
330
5
100
AcDbSymbolTableRecord
100
AcDbLinetypeTableRecord
  2
CENTER
 70
    0
  3
Center ____ _ ____ _ ____ _ ____ _ ____ _ ____
 72
   65
 73
    4
 40
50.8
 49
31.75
 74
    0
 49
-6.35
 74
    0
 49
6.35
 74
    0
 49
-6.35
 74
    0
  0
LTYPE
  5
47
330
5
100
AcDbSymbolTableRecord
100
AcDbLinetypeTableRecord
  2
CENTERTINY
 70
    0
  3
Center (.15x) ___ _ ___ _ ___ _ ___ _ ___ _ ___
 72
   65
 73
    4
 40
7.62
 49
4.7625
 74
    0
 49
-0.9525
 74
    0
 49
0.9525
 74
    0
 49
-0.9525
 74
    0
  0
LTYPE
  5
48
330
5
100
AcDbSymbolTableRecord
100
AcDbLinetypeTableRecord
  2
CENTER2
 70
    0
  3
Center (.5x) ___ _ ___ _ ___ _ ___ _ ___ _ ___
 72
   65
 73
    4
 40
28.575
 49
19.05
 74
    0
 49
-3.175
 74
    0
 49
3.175
 74
    0
 49
-3.175
 74
    0
  0
LTYPE
  5
49
330
5
100
AcDbSymbolTableRecord
100
AcDbLinetypeTableRecord
  2
CENTERX2
 70
    0
  3
Center (2x) ________  __  ________  __  _____
 72
   65
 73
    4
 40
101.6
 49
63.5
 74
    0
 49
-12.7
 74
    0
 49
12.7
 74
    0
 49
-12.7
 74
    0
  0
ENDTAB
  0
TABLE
  2
LAYER
  5
2
330
0
100
AcDbSymbolTable
 70
    1
  0
LAYER
  5
10
330
2
100
AcDbSymbolTableRecord
100
AcDbLayerTableRecord
  2
0
 70
    0
 62
    7
  6
CONTINUOUS
370
    0
390
F
  0
LAYER
  5
4A
330
2
100
AcDbSymbolTableRecord
100
AcDbLayerTableRecord
  2
Dimensions
 70
    0
 62
    5
  6
CONTINUOUS
370
    0
390
F
  0
ENDTAB
  0
TABLE
  2
STYLE
  5
3
330
0
100
AcDbSymbolTable
 70
    3
  0
STYLE
  5
4B
330
2
100
AcDbSymbolTableRecord
100
AcDbTextStyleTableRecord
  2
Standard
 70
    0
 40
0
 41
1
 50
0
 71
    0
 42
1
  3
txt
  4

  0
ENDTAB
  0
TABLE
  2
VIEW
  5
6
330
0
100
AcDbSymbolTable
 70
    0
  0
ENDTAB
  0
TABLE
  2
UCS
  5
7
330
0
100
AcDbSymbolTable
 70
    0
  0
ENDTAB
  0
TABLE
  2
APPID
  5
9
330
0
100
AcDbSymbolTable
 70
    1
  0
APPID
  5
12
330
9
100
AcDbSymbolTableRecord
100
AcDbRegAppTableRecord
  2
ACAD
 70
    0
  0
APPID
  5
4C
330
9
100
AcDbSymbolTableRecord
100
AcDbRegAppTableRecord
  2
LibreCad
 70
    0
  0
ENDTAB
  0
TABLE
  2
DIMSTYLE
  5
A
330
0
100
AcDbSymbolTable
 70
    1
100
AcDbDimStyleTable
 71
    1
  0
DIMSTYLE
105
4D
330
A
100
AcDbSymbolTableRecord
100
AcDbDimStyleTableRecord
  2
Standard
 70
    0
 40
1
 41
1
 42
0.625
 43
0.38
 44
1.25
 45
0
 46
0
 47
0
 48
0
 49
1
140
2.5
141
0.09
142
0
143
25.4
144
1
145
0
146
1
147
0.625
148
0
 71
    0
 72
    0
 73
    0
 74
    1
 75
    0
 76
    0
 77
    0
 78
    1
 79
    0
170
    0
171
    2
172
    0
173
    0
174
    0
175
    0
176
    5
177
    5
178
    5
179
    2
271
    2
272
    4
273
    2
274
    2
275
    0
276
    0
277
    2
278
    0
279
    0
280
    0
281
    0
282
    0
283
    1
284
    0
285
    0
286
    0
288
    0
289
    3
340
standard
341

371
   -2
372
   -2
  0
ENDTAB
  0
TABLE
  2
BLOCK_RECORD
  5
1
330
0
100
AcDbSymbolTable
 70
    2
  0
BLOCK_RECORD
  5
1F
330
1
100
AcDbSymbolTableRecord
100
AcDbBlockTableRecord
  2
*Model_Space
 70
    0
280
    1
281
    0
  0
BLOCK_RECORD
  5
1E
330
1
100
AcDbSymbolTableRecord
100
AcDbBlockTableRecord
  2
*Paper_Space
 70
    0
280
    1
281
    0
  0
BLOCK_RECORD
  5
4E
330
1
100
AcDbSymbolTableRecord
100
AcDbBlockTableRecord
  2
*D6
 70
    0
280
    1
281
    0
  0
BLOCK_RECORD
  5
51
330
1
100
AcDbSymbolTableRecord
100
AcDbBlockTableRecord
  2
*D9
 70
    0
280
    1
281
    0
  0
BLOCK_RECORD
  5
54
330
1
100
AcDbSymbolTableRecord
100
AcDbBlockTableRecord
  2
*D4
 70
    0
280
    1
281
    0
  0
BLOCK_RECORD
  5
57
330
1
100
AcDbSymbolTableRecord
100
AcDbBlockTableRecord
  2
*D8
 70
    0
280
    1
281
    0
  0
BLOCK_RECORD
  5
5A
330
1
100
AcDbSymbolTableRecord
100
AcDbBlockTableRecord
  2
*D25
 70
    0
280
    1
281
    0
  0
BLOCK_RECORD
  5
5D
330
1
100
AcDbSymbolTableRecord
100
AcDbBlockTableRecord
  2
*D10
 70
    0
280
    1
281
    0
  0
BLOCK_RECORD
  5
60
330
1
100
AcDbSymbolTableRecord
100
AcDbBlockTableRecord
  2
*D3
 70
    0
280
    1
281
    0
  0
BLOCK_RECORD
  5
63
330
1
100
AcDbSymbolTableRecord
100
AcDbBlockTableRecord
  2
*D12
 70
    0
280
    1
281
    0
  0
BLOCK_RECORD
  5
66
330
1
100
AcDbSymbolTableRecord
100
AcDbBlockTableRecord
  2
*D11
 70
    0
280
    1
281
    0
  0
BLOCK_RECORD
  5
69
330
1
100
AcDbSymbolTableRecord
100
AcDbBlockTableRecord
  2
*D16
 70
    0
280
    1
281
    0
  0
BLOCK_RECORD
  5
6C
330
1
100
AcDbSymbolTableRecord
100
AcDbBlockTableRecord
  2
*D2
 70
    0
280
    1
281
    0
  0
BLOCK_RECORD
  5
6F
330
1
100
AcDbSymbolTableRecord
100
AcDbBlockTableRecord
  2
*D27
 70
    0
280
    1
281
    0
  0
BLOCK_RECORD
  5
72
330
1
100
AcDbSymbolTableRecord
100
AcDbBlockTableRecord
  2
*D14
 70
    0
280
    1
281
    0
  0
BLOCK_RECORD
  5
75
330
1
100
AcDbSymbolTableRecord
100
AcDbBlockTableRecord
  2
*D15
 70
    0
280
    1
281
    0
  0
BLOCK_RECORD
  5
78
330
1
100
AcDbSymbolTableRecord
100
AcDbBlockTableRecord
  2
*D7
 70
    0
280
    1
281
    0
  0
BLOCK_RECORD
  5
7B
330
1
100
AcDbSymbolTableRecord
100
AcDbBlockTableRecord
  2
*D21
 70
    0
280
    1
281
    0
  0
BLOCK_RECORD
  5
7E
330
1
100
AcDbSymbolTableRecord
100
AcDbBlockTableRecord
  2
*D22
 70
    0
280
    1
281
    0
  0
BLOCK_RECORD
  5
81
330
1
100
AcDbSymbolTableRecord
100
AcDbBlockTableRecord
  2
*D23
 70
    0
280
    1
281
    0
  0
BLOCK_RECORD
  5
84
330
1
100
AcDbSymbolTableRecord
100
AcDbBlockTableRecord
  2
*D1
 70
    0
280
    1
281
    0
  0
BLOCK_RECORD
  5
87
330
1
100
AcDbSymbolTableRecord
100
AcDbBlockTableRecord
  2
*D20
 70
    0
280
    1
281
    0
  0
BLOCK_RECORD
  5
8A
330
1
100
AcDbSymbolTableRecord
100
AcDbBlockTableRecord
  2
*D26
 70
    0
280
    1
281
    0
  0
BLOCK_RECORD
  5
8D
330
1
100
AcDbSymbolTableRecord
100
AcDbBlockTableRecord
  2
*D24
 70
    0
280
    1
281
    0
  0
BLOCK_RECORD
  5
90
330
1
100
AcDbSymbolTableRecord
100
AcDbBlockTableRecord
  2
*D19
 70
    0
280
    1
281
    0
  0
BLOCK_RECORD
  5
93
330
1
100
AcDbSymbolTableRecord
100
AcDbBlockTableRecord
  2
*D13
 70
    0
280
    1
281
    0
  0
BLOCK_RECORD
  5
96
330
1
100
AcDbSymbolTableRecord
100
AcDbBlockTableRecord
  2
*D17
 70
    0
280
    1
281
    0
  0
BLOCK_RECORD
  5
99
330
1
100
AcDbSymbolTableRecord
100
AcDbBlockTableRecord
  2
*D5
 70
    0
280
    1
281
    0
  0
BLOCK_RECORD
  5
9C
330
1
100
AcDbSymbolTableRecord
100
AcDbBlockTableRecord
  2
*D18
 70
    0
280
    1
281
    0
  0
ENDTAB
  0
ENDSEC
  0
SECTION
  2
BLOCKS
  0
BLOCK
  5
20
330
1F
100
AcDbEntity
  8
0
100
AcDbBlockBegin
  2
*Model_Space
 70
    0
 10
0
 20
0
 30
0
  3
*Model_Space
  1

  0
ENDBLK
  5
21
330
1F
100
AcDbEntity
  8
0
100
AcDbBlockEnd
  0
BLOCK
  5
1C
330
1B
100
AcDbEntity
  8
0
100
AcDbBlockBegin
  2
*Paper_Space
 70
    0
 10
0
 20
0
 30
0
  3
*Paper_Space
  1

  0
ENDBLK
  5
1D
330
1F
100
AcDbEntity
  8
0
100
AcDbBlockEnd
  0
BLOCK
  5
4F
330
4E
100
AcDbEntity
  8
0
100
AcDbBlockBegin
  2
*D6
 70
    1
 10
0
 20
0
  3
*D6
  1

  0
LINE
  5
9F
100
AcDbEntity
  8
Dimensions
  6
ByBlock
 62
    5
370
   -2
100
AcDbLine
 10
-79.30000000000001
 20
-40
 11
79.30000000000001
 21
-40
  0
MTEXT
  5
A0
100
AcDbEntity
  8
Dimensions
  6
CONTINUOUS
 62
    5
370
   -2
100
AcDbMText
 10
1.148068456708479e-16
 20
-38.125
 30
0
 40
2.5
 41
9.166666666666977
 71
    5
 72
    1
  1
158.60
  7
standard
210
0
220
0
230
1
 50
0
 73
    2
 44
1
  0
SOLID
  5
A1
100
AcDbEntity
  8
Dimensions
  6
ByBlock
 62
    5
370
   -2
100
AcDbTrace
 10
-79.30000000000001
 20
-40
 30
0
 11
-78.30000000000001
 21
-39.83348613689086
 31
0
 12
-78.30000000000001
 22
-40.16651386310914
 32
0
 13
-78.30000000000001
 23
-40.16651386310914
 33
0
  0
SOLID
  5
A2
100
AcDbEntity
  8
Dimensions
  6
ByBlock
 62
    5
370
   -2
100
AcDbTrace
 10
79.30000000000001
 20
-40
 30
0
 11
78.30000000000001
 21
-40.16651386310914
 31
0
 12
78.30000000000001
 22
-39.83348613689086
 32
0
 13
78.30000000000001
 23
-39.83348613689086
 33
0
  0
LINE
  5
A3
100
AcDbEntity
  8
Dimensions
  6
ByBlock
 62
    5
370
   -2
100
AcDbLine
 10
-79.3
 20
4.375
 11
-79.30000000000001
 21
-41.25
  0
LINE
  5
A4
100
AcDbEntity
  8
Dimensions
  6
ByBlock
 62
    5
370
   -2
100
AcDbLine
 10
79.30000000000001
 20
4.375
 11
79.30000000000001
 21
-41.25
  0
ENDBLK
  5
50
330
4E
100
AcDbEntity
  8
0
100
AcDbBlockEnd
  0
BLOCK
  5
52
330
51
100
AcDbEntity
  8
0
100
AcDbBlockBegin
  2
*D9
 70
    1
 10
0
 20
0
  3
*D9
  1

  0
LINE
  5
A5
100
AcDbEntity
  8
Dimensions
  6
ByBlock
 62
    5
370
   -2
100
AcDbLine
 10
-78.3
 20
30
 11
-73.10000000000001
 21
30
  0
MTEXT
  5
A6
100
AcDbEntity
  8
Dimensions
  6
CONTINUOUS
 62
    5
370
   -2
100
AcDbMText
 10
-70.72500000000001
 20
31.875
 30
0
 40
2.5
 41
7.5
 71
    5
 72
    1
  1
4-1.2
  7
standard
210
0
220
0
230
1
 50
0
 73
    2
 44
1
  0
SOLID
  5
A7
100
AcDbEntity
  8
Dimensions
  6
ByBlock
 62
    5
370
   -2
100
AcDbTrace
 10
-76.3
 20
30
 30
0
 11
-77.3
 21
29.83348613689087
 31
0
 12
-77.3
 22
30.16651386310913
 32
0
 13
-77.3
 23
30.16651386310913
 33
0
  0
SOLID
  5
A8
100
AcDbEntity
  8
Dimensions
  6
ByBlock
 62
    5
370
   -2
100
AcDbTrace
 10
-75.10000000000001
 20
30
 30
0
 11
-74.10000000000001
 21
30.16651386310913
 31
0
 12
-74.10000000000001
 22
29.83348613689086
 32
0
 13
-74.10000000000001
 23
29.83348613689086
 33
0
  0
LINE
  5
A9
100
AcDbEntity
  8
Dimensions
  6
ByBlock
 62
    5
370
   -2
100
AcDbLine
 10
-76.3
 20
30.425
 11
-76.3
 21
28.75
  0
LINE
  5
AA
100
AcDbEntity
  8
Dimensions
  6
ByBlock
 62
    5
370
   -2
100
AcDbLine
 10
-75.10000000000001
 20
30.875
 11
-75.10000000000001
 21
28.75
  0
ENDBLK
  5
53
330
51
100
AcDbEntity
  8
0
100
AcDbBlockEnd
  0
BLOCK
  5
55
330
54
100
AcDbEntity
  8
0
100
AcDbBlockBegin
  2
*D4
 70
    1
 10
0
 20
0
  3
*D4
  1

  0
LINE
  5
AB
100
AcDbEntity
  8
Dimensions
  6
ByBlock
 62
    5
370
   -2
100
AcDbLine
 10
-90.5
 20
35.3
 11
-90.5
 21
29.8
  0
MTEXT
  5
AC
100
AcDbEntity
  8
Dimensions
  6
CONTINUOUS
 62
    5
370
   -2
100
AcDbMText
 10
-92.375
 20
36.56388888888896
 30
0
 40
2.5
 41
5.277777777777933
 71
    5
 72
    1
  1
1.50
  7
standard
210
0
220
0
230
1
 50
90
 73
    2
 44
1
  0
SOLID
  5
AD
100
AcDbEntity
  8
Dimensions
  6
ByBlock
 62
    5
370
   -2
100
AcDbTrace
 10
-90.5
 20
33.3
 30
0
 11
-90.66651386310913
 21
34.3
 31
0
 12
-90.33348613689087
 22
34.3
 32
0
 13
-90.33348613689087
 23
34.3
 33
0
  0
SOLID
  5
AE
100
AcDbEntity
  8
Dimensions
  6
ByBlock
 62
    5
370
   -2
100
AcDbTrace
 10
-90.5
 20
31.8
 30
0
 11
-90.33348613689087
 21
30.8
 31
0
 12
-90.66651386310913
 22
30.8
 32
0
 13
-90.66651386310913
 23
30.8
 33
0
  0
LINE
  5
AF
100
AcDbEntity
  8
Dimensions
  6
ByBlock
 62
    5
370
   -2
100
AcDbLine
 10
-79.12500000000001
 20
33.3
 11
-91.75
 21
33.3
  0
LINE
  5
B0
100
AcDbEntity
  8
Dimensions
  6
ByBlock
 62
    5
370
   -2
100
AcDbLine
 10
-79.12500000000001
 20
31.8
 11
-91.75
 21
31.8
  0
ENDBLK
  5
56
330
54
100
AcDbEntity
  8
0
100
AcDbBlockEnd
  0
BLOCK
  5
58
330
57
100
AcDbEntity
  8
0
100
AcDbBlockBegin
  2
*D8
 70
    1
 10
0
 20
0
  3
*D8
  1

  0
LINE
  5
B1
100
AcDbEntity
  8
Dimensions
  6
ByBlock
 62
    5
370
   -2
100
AcDbLine
 10
-70
 20
34.5
 11
-70
 21
40
  0
MTEXT
  5
B2
100
AcDbEntity
  8
Dimensions
  6
CONTINUOUS
 62
    5
370
   -2
100
AcDbMText
 10
-71.875
 20
42.37500000000008
 30
0
 40
2.5
 41
7.500000000000156
 71
    5
 72
    1
  1
4-1.5
  7
standard
210
0
220
0
230
1
 50
90
 73
    2
 44
1
  0
SOLID
  5
B3
100
AcDbEntity
  8
Dimensions
  6
ByBlock
 62
    5
370
   -2
100
AcDbTrace
 10
-70
 20
36.5
 30
0
 11
-69.83348613689087
 21
35.5
 31
0
 12
-70.16651386310913
 22
35.5
 32
0
 13
-70.16651386310913
 23
35.5
 33
0
  0
SOLID
  5
B4
100
AcDbEntity
  8
Dimensions
  6
ByBlock
 62
    5
370
   -2
100
AcDbTrace
 10
-70
 20
38
 30
0
 11
-70.16651386310913
 21
39
 31
0
 12
-69.83348613689087
 22
39
 32
0
 13
-69.83348613689087
 23
39
 33
0
  0
LINE
  5
B5
100
AcDbEntity
  8
Dimensions
  6
ByBlock
 62
    5
370
   -2
100
AcDbLine
 10
-73.375
 20
36.5
 11
-68.75
 21
36.5
  0
LINE
  5
B6
100
AcDbEntity
  8
Dimensions
  6
ByBlock
 62
    5
370
   -2
100
AcDbLine
 10
-73.375
 20
38
 11
-68.75
 21
38
  0
ENDBLK
  5
59
330
57
100
AcDbEntity
  8
0
100
AcDbBlockEnd
  0
BLOCK
  5
5B
330
5A
100
AcDbEntity
  8
0
100
AcDbBlockBegin
  2
*D25
 70
    1
 10
0
 20
0
  3
*D25
  1

  0
LINE
  5
B7
100
AcDbEntity
  8
Dimensions
  6
ByBlock
 62
    5
370
   -2
100
AcDbLine
 10
-95
 20
-2
 11
-95
 21
4
  0
MTEXT
  5
B8
100
AcDbEntity
  8
Dimensions
  6
CONTINUOUS
 62
    5
370
   -2
100
AcDbMText
 10
-96.875
 20
5.541666666666667
 30
0
 40
2.5
 41
5.833333333333334
 71
    5
 72
    1
  1
2.00
  7
standard
210
0
220
0
230
1
 50
90
 73
    2
 44
1
  0
SOLID
  5
B9
100
AcDbEntity
  8
Dimensions
  6
ByBlock
 62
    5
370
   -2
100
AcDbTrace
 10
-95
 20
0
 30
0
 11
-94.83348613689087
 21
-1
 31
0
 12
-95.16651386310913
 22
-1
 32
0
 13
-95.16651386310913
 23
-1
 33
0
  0
SOLID
  5
BA
100
AcDbEntity
  8
Dimensions
  6
ByBlock
 62
    5
370
   -2
100
AcDbTrace
 10
-95
 20
2
 30
0
 11
-95.16651386310913
 21
3
 31
0
 12
-94.83348613689087
 22
3
 32
0
 13
-94.83348613689087
 23
3
 33
0
  0
LINE
  5
BB
100
AcDbEntity
  8
Dimensions
  6
ByBlock
 62
    5
370
   -2
100
AcDbLine
 10
-90.925
 20
7.653789711389858e-17
 11
-96.25
 21
1.530757942277972e-16
  0
LINE
  5
BC
100
AcDbEntity
  8
Dimensions
  6
ByBlock
 62
    5
370
   -2
100
AcDbLine
 10
-90.925
 20
2
 11
-96.25
 21
2
  0
ENDBLK
  5
5C
330
5A
100
AcDbEntity
  8
0
100
AcDbBlockEnd
  0
BLOCK
  5
5E
330
5D
100
AcDbEntity
  8
0
100
AcDbBlockBegin
  2
*D10
 70
    1
 10
0
 20
0
  3
*D10
  1

  0
LINE
  5
BD
100
AcDbEntity
  8
Dimensions
  6
ByBlock
 62
    5
370
   -2
100
AcDbLine
 10
-45
 20
43
 11
-45
 21
37
  0
MTEXT
  5
BE
100
AcDbEntity
  8
Dimensions
  6
CONTINUOUS
 62
    5
370
   -2
100
AcDbMText
 10
-46.875
 20
44.54166666666666
 30
0
 40
2.5
 41
5.833333333333334
 71
    5
 72
    1
  1
2.00
  7
standard
210
0
220
0
230
1
 50
90
 73
    2
 44
1
  0
SOLID
  5
BF
100
AcDbEntity
  8
Dimensions
  6
ByBlock
 62
    5
370
   -2
100
AcDbTrace
 10
-45
 20
41
 30
0
 11
-45.16651386310914
 21
42
 31
0
 12
-44.83348613689086
 22
42
 32
0
 13
-44.83348613689086
 23
42
 33
0
  0
SOLID
  5
C0
100
AcDbEntity
  8
Dimensions
  6
ByBlock
 62
    5
370
   -2
100
AcDbTrace
 10
-45
 20
39
 30
0
 11
-44.83348613689086
 21
38
 31
0
 12
-45.16651386310914
 22
38
 32
0
 13
-45.16651386310914
 23
38
 33
0
  0
LINE
  5
C1
100
AcDbEntity
  8
Dimensions
  6
ByBlock
 62
    5
370
   -2
100
AcDbLine
 10
-49.375
 20
41
 11
-43.75
 21
41
  0
LINE
  5
C2
100
AcDbEntity
  8
Dimensions
  6
ByBlock
 62
    5
370
   -2
100
AcDbLine
 10
-49.375
 20
39
 11
-43.75
 21
39
  0
ENDBLK
  5
5F
330
5D
100
AcDbEntity
  8
0
100
AcDbBlockEnd
  0
BLOCK
  5
61
330
60
100
AcDbEntity
  8
0
100
AcDbBlockBegin
  2
*D3
 70
    1
 10
0
 20
0
  3
*D3
  1

  0
LINE
  5
C3
100
AcDbEntity
  8
Dimensions
  6
ByBlock
 62
    5
370
   -2
100
AcDbLine
 10
-95
 20
36.8
 11
-95
 21
31.3
  0
MTEXT
  5
C4
100
AcDbEntity
  8
Dimensions
  6
CONTINUOUS
 62
    5
370
   -2
100
AcDbMText
 10
-96.875
 20
38.06388888888896
 30
0
 40
2.5
 41
5.277777777777933
 71
    5
 72
    1
  1
1.50
  7
standard
210
0
220
0
230
1
 50
90
 73
    2
 44
1
  0
SOLID
  5
C5
100
AcDbEntity
  8
Dimensions
  6
ByBlock
 62
    5
370
   -2
100
AcDbTrace
 10
-95
 20
34.8
 30
0
 11
-95.16651386310913
 21
35.8
 31
0
 12
-94.83348613689087
 22
35.8
 32
0
 13
-94.83348613689087
 23
35.8
 33
0
  0
SOLID
  5
C6
100
AcDbEntity
  8
Dimensions
  6
ByBlock
 62
    5
370
   -2
100
AcDbTrace
 10
-95
 20
33.3
 30
0
 11
-94.83348613689087
 21
32.3
 31
0
 12
-95.16651386310913
 22
32.3
 32
0
 13
-95.16651386310913
 23
32.3
 33
0
  0
LINE
  5
C7
100
AcDbEntity
  8
Dimensions
  6
ByBlock
 62
    5
370
   -2
100
AcDbLine
 10
-79.12500000000001
 20
34.8
 11
-96.25
 21
34.8
  0
LINE
  5
C8
100
AcDbEntity
  8
Dimensions
  6
ByBlock
 62
    5
370
   -2
100
AcDbLine
 10
-79.12500000000001
 20
33.3
 11
-96.25
 21
33.3
  0
ENDBLK
  5
62
330
60
100
AcDbEntity
  8
0
100
AcDbBlockEnd
  0
BLOCK
  5
64
330
63
100
AcDbEntity
  8
0
100
AcDbBlockBegin
  2
*D12
 70
    1
 10
0
 20
0
  3
*D12
  1

  0
LINE
  5
C9
100
AcDbEntity
  8
Dimensions
  6
ByBlock
 62
    5
370
   -2
100
AcDbLine
 10
74.72847120246105
 20
38.19212018066392
 11
76.37152879753894
 21
36.30787981933608
  0
MTEXT
  5
CA
100
AcDbEntity
  8
Dimensions
  6
CONTINUOUS
 62
    5
370
   -2
100
AcDbMText
 10
81.66415061246877
 20
33.09127216250927
 30
0
 40
2.5
 41
10.55555555555571
 71
    5
 72
    1
  1
4-%%C2.5
  7
standard
210
0
220
0
230
1
 50
311.0884281874716
 73
    2
 44
1
  0
SOLID
  5
CB
100
AcDbEntity
  8
Dimensions
  6
ByBlock
 62
    5
370
   -2
100
AcDbTrace
 10
74.72847120246105
 20
38.19212018066392
 30
0
 11
75.51119509712855
 21
37.54786078311967
 31
0
 12
75.26019338385586
 22
37.32898728914589
 32
0
 13
75.26019338385586
 23
37.32898728914589
 33
0
  0
SOLID
  5
CC
100
AcDbEntity
  8
Dimensions
  6
ByBlock
 62
    5
370
   -2
100
AcDbTrace
 10
76.37152879753894
 20
36.30787981933608
 30
0
 11
75.58880490287144
 21
36.95213921688033
 31
0
 12
75.83980661614413
 22
37.17101271085411
 32
0
 13
75.83980661614413
 23
37.17101271085411
 33
0
  0
ENDBLK
  5
65
330
63
100
AcDbEntity
  8
0
100
AcDbBlockEnd
  0
BLOCK
  5
67
330
66
100
AcDbEntity
  8
0
100
AcDbBlockBegin
  2
*D11
 70
    1
 10
0
 20
0
  3
*D11
  1

  0
SOLID
  5
CD
100
AcDbEntity
  8
Dimensions
  6
ByBlock
 62
    5
370
   -2
100
AcDbTrace
 10
78.36189195761909
 20
39.73108113907567
 30
0
 11
79.00156063827626
 21
40.51756117416483
 31
0
 12
79.2218989876921
 22
40.26784437816021
 32
0
 13
79.2218989876921
 23
40.26784437816021
 33
0
  0
LINE
  5
CE
100
AcDbEntity
  8
Dimensions
  6
ByBlock
 62
    5
370
   -2
100
AcDbLine
 10
75.55000000000001
 20
37.25
 11
88.81796427409921
 21
48.9570273006758
  0
MTEXT
  5
CF
100
AcDbEntity
  8
Dimensions
  6
CONTINUOUS
 62
    5
370
   -2
100
AcDbMText
 10
82.34938754632131
 20
45.75000019868529
 30
0
 40
2.5
 41
11.94444444444476
 71
    5
 72
    1
  1
2-R3.75
  7
standard
210
0
220
0
230
1
 50
41.42366562500274
 73
    2
 44
1
  0
ENDBLK
  5
68
330
66
100
AcDbEntity
  8
0
100
AcDbBlockEnd
  0
BLOCK
  5
6A
330
69
100
AcDbEntity
  8
0
100
AcDbBlockBegin
  2
*D16
 70
    1
 10
0
 20
0
  3
*D16
  1

  0
LINE
  5
D0
100
AcDbEntity
  8
Dimensions
  6
ByBlock
 62
    5
370
   -2
100
AcDbLine
 10
-76.29999999999998
 20
60
 11
76.29999999999998
 21
60
  0
MTEXT
  5
D1
100
AcDbEntity
  8
Dimensions
  6
CONTINUOUS
 62
    5
370
   -2
100
AcDbMText
 10
1.148068456708479e-16
 20
61.875
 30
0
 40
2.5
 41
17.6388888888892
 71
    5
 72
    1
  1
152.6 %%P 0.2
  7
standard
210
0
220
0
230
1
 50
0
 73
    2
 44
1
  0
SOLID
  5
D2
100
AcDbEntity
  8
Dimensions
  6
ByBlock
 62
    5
370
   -2
100
AcDbTrace
 10
-76.29999999999998
 20
60
 30
0
 11
-75.29999999999998
 21
60.16651386310914
 31
0
 12
-75.29999999999998
 22
59.83348613689086
 32
0
 13
-75.29999999999998
 23
59.83348613689086
 33
0
  0
SOLID
  5
D3
100
AcDbEntity
  8
Dimensions
  6
ByBlock
 62
    5
370
   -2
100
AcDbTrace
 10
76.29999999999998
 20
60
 30
0
 11
75.29999999999998
 21
59.83348613689086
 31
0
 12
75.29999999999998
 22
60.16651386310914
 32
0
 13
75.29999999999998
 23
60.16651386310914
 33
0
  0
LINE
  5
D4
100
AcDbEntity
  8
Dimensions
  6
ByBlock
 62
    5
370
   -2
100
AcDbLine
 10
-76.3
 20
34.875
 11
-76.29999999999998
 21
61.25
  0
LINE
  5
D5
100
AcDbEntity
  8
Dimensions
  6
ByBlock
 62
    5
370
   -2
100
AcDbLine
 10
76.29999999999998
 20
34.875
 11
76.29999999999998
 21
61.25
  0
ENDBLK
  5
6B
330
69
100
AcDbEntity
  8
0
100
AcDbBlockEnd
  0
BLOCK
  5
6D
330
6C
100
AcDbEntity
  8
0
100
AcDbBlockBegin
  2
*D2
 70
    1
 10
0
 20
0
  3
*D2
  1

  0
LINE
  5
D6
100
AcDbEntity
  8
Dimensions
  6
ByBlock
 62
    5
370
   -2
100
AcDbLine
 10
-102.5
 20
6.3
 11
-102.5
 21
1.387778780781446e-17
  0
MTEXT
  5
D7
100
AcDbEntity
  8
Dimensions
  6
CONTINUOUS
 62
    5
370
   -2
100
AcDbMText
 10
-104.375
 20
3.15
 30
0
 40
2.5
 41
5.833333333333643
 71
    5
 72
    1
  1
6.30
  7
standard
210
0
220
0
230
1
 50
90
 73
    2
 44
1
  0
SOLID
  5
D8
100
AcDbEntity
  8
Dimensions
  6
ByBlock
 62
    5
370
   -2
100
AcDbTrace
 10
-102.5
 20
6.3
 30
0
 11
-102.3334861368909
 21
5.3
 31
0
 12
-102.6665138631091
 22
5.3
 32
0
 13
-102.6665138631091
 23
5.3
 33
0
  0
SOLID
  5
D9
100
AcDbEntity
  8
Dimensions
  6
ByBlock
 62
    5
370
   -2
100
AcDbTrace
 10
-102.5
 20
1.387778780781446e-17
 30
0
 11
-102.6665138631091
 21
1
 31
0
 12
-102.3334861368909
 22
1
 32
0
 13
-102.3334861368909
 23
1
 33
0
  0
LINE
  5
DA
100
AcDbEntity
  8
Dimensions
  6
ByBlock
 62
    5
370
   -2
100
AcDbLine
 10
-79.12500000000001
 20
6.3
 11
-103.75
 21
6.3
  0
LINE
  5
DB
100
AcDbEntity
  8
Dimensions
  6
ByBlock
 62
    5
370
   -2
100
AcDbLine
 10
-90.925
 20
9.041568492171304e-17
 11
-103.75
 21
1.669535820356116e-16
  0
ENDBLK
  5
6E
330
6C
100
AcDbEntity
  8
0
100
AcDbBlockEnd
  0
BLOCK
  5
70
330
6F
100
AcDbEntity
  8
0
100
AcDbBlockBegin
  2
*D27
 70
    1
 10
0
 20
0
  3
*D27
  1

  0
LINE
  5
DC
100
AcDbEntity
  8
Dimensions
  6
ByBlock
 62
    5
370
   -2
100
AcDbLine
 10
-80.3
 20
25
 11
-74.3
 21
25
  0
MTEXT
  5
DD
100
AcDbEntity
  8
Dimensions
  6
CONTINUOUS
 62
    5
370
   -2
100
AcDbMText
 10
-72.75833333333333
 20
26.875
 30
0
 40
2.5
 41
5.833333333333334
 71
    5
 72
    1
  1
2.00
  7
standard
210
0
220
0
230
1
 50
0
 73
    2
 44
1
  0
SOLID
  5
DE
100
AcDbEntity
  8
Dimensions
  6
ByBlock
 62
    5
370
   -2
100
AcDbTrace
 10
-78.3
 20
25
 30
0
 11
-79.3
 21
24.83348613689087
 31
0
 12
-79.3
 22
25.16651386310913
 32
0
 13
-79.3
 23
25.16651386310913
 33
0
  0
SOLID
  5
DF
100
AcDbEntity
  8
Dimensions
  6
ByBlock
 62
    5
370
   -2
100
AcDbTrace
 10
-76.3
 20
25
 30
0
 11
-75.3
 21
25.16651386310913
 31
0
 12
-75.3
 22
24.83348613689086
 32
0
 13
-75.3
 23
24.83348613689086
 33
0
  0
LINE
  5
E0
100
AcDbEntity
  8
Dimensions
  6
ByBlock
 62
    5
370
   -2
100
AcDbLine
 10
-78.3
 20
25.625
 11
-78.3
 21
26.25
  0
LINE
  5
E1
100
AcDbEntity
  8
Dimensions
  6
ByBlock
 62
    5
370
   -2
100
AcDbLine
 10
-76.3
 20
25.625
 11
-76.3
 21
26.25
  0
ENDBLK
  5
71
330
6F
100
AcDbEntity
  8
0
100
AcDbBlockEnd
  0
BLOCK
  5
73
330
72
100
AcDbEntity
  8
0
100
AcDbBlockBegin
  2
*D14
 70
    1
 10
0
 20
0
  3
*D14
  1

  0
LINE
  5
E2
100
AcDbEntity
  8
Dimensions
  6
ByBlock
 62
    5
370
   -2
100
AcDbLine
 10
-60
 20
4.399999999999999
 11
-60
 21
10.4
  0
MTEXT
  5
E3
100
AcDbEntity
  8
Dimensions
  6
CONTINUOUS
 62
    5
370
   -2
100
AcDbMText
 10
-61.875
 20
14.76574074074074
 30
0
 40
2.5
 41
11.48148148148148
 71
    5
 72
    1
  1
4-2.0\S+0^ -0.2;
  7
standard
210
0
220
0
230
1
 50
90
 73
    2
 44
1
  0
SOLID
  5
E4
100
AcDbEntity
  8
Dimensions
  6
ByBlock
 62
    5
370
   -2
100
AcDbTrace
 10
-60
 20
6.399999999999999
 30
0
 11
-59.83348613689086
 21
5.399999999999999
 31
0
 12
-60.16651386310914
 22
5.399999999999999
 32
0
 13
-60.16651386310914
 23
5.399999999999999
 33
0
  0
SOLID
  5
E5
100
AcDbEntity
  8
Dimensions
  6
ByBlock
 62
    5
370
   -2
100
AcDbTrace
 10
-60
 20
8.399999999999999
 30
0
 11
-60.16651386310914
 21
9.399999999999999
 31
0
 12
-59.83348613689086
 22
9.399999999999999
 32
0
 13
-59.83348613689086
 23
9.399999999999999
 33
0
  0
LINE
  5
E6
100
AcDbEntity
  8
Dimensions
  6
ByBlock
 62
    5
370
   -2
100
AcDbLine
 10
-75.125
 20
6.4
 11
-58.75
 21
6.399999999999999
  0
LINE
  5
E7
100
AcDbEntity
  8
Dimensions
  6
ByBlock
 62
    5
370
   -2
100
AcDbLine
 10
-75.125
 20
8.4
 11
-58.75
 21
8.399999999999999
  0
ENDBLK
  5
74
330
72
100
AcDbEntity
  8
0
100
AcDbBlockEnd
  0
BLOCK
  5
76
330
75
100
AcDbEntity
  8
0
100
AcDbBlockBegin
  2
*D15
 70
    1
 10
0
 20
0
  3
*D15
  1

  0
LINE
  5
E8
100
AcDbEntity
  8
Dimensions
  6
ByBlock
 62
    5
370
   -2
100
AcDbLine
 10
-75.55000000000001
 20
50
 11
75.55000000000001
 21
50
  0
MTEXT
  5
E9
100
AcDbEntity
  8
Dimensions
  6
CONTINUOUS
 62
    5
370
   -2
100
AcDbMText
 10
1.148068456708479e-16
 20
51.875
 30
0
 40
2.5
 41
16.52777777777793
 71
    5
 72
    1
  1
151.1 %%P 0.2
  7
standard
210
0
220
0
230
1
 50
0
 73
    2
 44
1
  0
SOLID
  5
EA
100
AcDbEntity
  8
Dimensions
  6
ByBlock
 62
    5
370
   -2
100
AcDbTrace
 10
-75.55000000000001
 20
50
 30
0
 11
-74.55000000000001
 21
50.16651386310914
 31
0
 12
-74.55000000000001
 22
49.83348613689086
 32
0
 13
-74.55000000000001
 23
49.83348613689086
 33
0
  0
SOLID
  5
EB
100
AcDbEntity
  8
Dimensions
  6
ByBlock
 62
    5
370
   -2
100
AcDbTrace
 10
75.55000000000001
 20
50
 30
0
 11
74.55000000000001
 21
49.83348613689086
 31
0
 12
74.55000000000001
 22
50.16651386310914
 32
0
 13
74.55000000000001
 23
50.16651386310914
 33
0
  0
LINE
  5
EC
100
AcDbEntity
  8
Dimensions
  6
ByBlock
 62
    5
370
   -2
100
AcDbLine
 10
-75.55
 20
37.875
 11
-75.55000000000001
 21
51.25
  0
LINE
  5
ED
100
AcDbEntity
  8
Dimensions
  6
ByBlock
 62
    5
370
   -2
100
AcDbLine
 10
75.55000000000001
 20
37.875
 11
75.55000000000001
 21
51.25
  0
ENDBLK
  5
77
330
75
100
AcDbEntity
  8
0
100
AcDbBlockEnd
  0
BLOCK
  5
79
330
78
100
AcDbEntity
  8
0
100
AcDbBlockBegin
  2
*D7
 70
    1
 10
0
 20
0
  3
*D7
  1

  0
LINE
  5
EE
100
AcDbEntity
  8
Dimensions
  6
ByBlock
 62
    5
370
   -2
100
AcDbLine
 10
-79.3
 20
20.5
 11
-76.3
 21
20.5
  0
MTEXT
  5
EF
100
AcDbEntity
  8
Dimensions
  6
CONTINUOUS
 62
    5
370
   -2
100
AcDbMText
 10
-72.75833333333325
 20
22.375
 30
0
 40
2.5
 41
5.833333333333488
 71
    5
 72
    1
  1
3.00
  7
standard
210
0
220
0
230
1
 50
0
 73
    2
 44
1
  0
SOLID
  5
F0
100
AcDbEntity
  8
Dimensions
  6
ByBlock
 62
    5
370
   -2
100
AcDbTrace
 10
-79.3
 20
20.5
 30
0
 11
-78.3
 21
20.66651386310913
 31
0
 12
-78.3
 22
20.33348613689086
 32
0
 13
-78.3
 23
20.33348613689086
 33
0
  0
SOLID
  5
F1
100
AcDbEntity
  8
Dimensions
  6
ByBlock
 62
    5
370
   -2
100
AcDbTrace
 10
-76.3
 20
20.5
 30
0
 11
-77.3
 21
20.33348613689087
 31
0
 12
-77.3
 22
20.66651386310913
 32
0
 13
-77.3
 23
20.66651386310913
 33
0
  0
LINE
  5
F2
100
AcDbEntity
  8
Dimensions
  6
ByBlock
 62
    5
370
   -2
100
AcDbLine
 10
-79.3
 20
19.925
 11
-79.3
 21
19.25
  0
LINE
  5
F3
100
AcDbEntity
  8
Dimensions
  6
ByBlock
 62
    5
370
   -2
100
AcDbLine
 10
-76.3
 20
19.925
 11
-76.3
 21
19.25
  0
ENDBLK
  5
7A
330
78
100
AcDbEntity
  8
0
100
AcDbBlockEnd
  0
BLOCK
  5
7C
330
7B
100
AcDbEntity
  8
0
100
AcDbBlockBegin
  2
*D21
 70
    1
 10
0
 20
0
  3
*D21
  1

  0
LINE
  5
F4
100
AcDbEntity
  8
Dimensions
  6
ByBlock
 62
    5
370
   -2
100
AcDbLine
 10
105
 20
7.105427357601002e-15
 11
105
 21
41
  0
MTEXT
  5
F5
100
AcDbEntity
  8
Dimensions
  6
CONTINUOUS
 62
    5
370
   -2
100
AcDbMText
 10
103.125
 20
20.5
 30
0
 40
2.5
 41
7.5
 71
    5
 72
    1
  1
41.00
  7
standard
210
0
220
0
230
1
 50
90
 73
    2
 44
1
  0
SOLID
  5
F6
100
AcDbEntity
  8
Dimensions
  6
ByBlock
 62
    5
370
   -2
100
AcDbTrace
 10
105
 20
7.105427357601002e-15
 30
0
 11
104.8334861368909
 21
1.000000000000007
 31
0
 12
105.1665138631091
 22
1.000000000000007
 32
0
 13
105.1665138631091
 23
1.000000000000007
 33
0
  0
SOLID
  5
F7
100
AcDbEntity
  8
Dimensions
  6
ByBlock
 62
    5
370
   -2
100
AcDbTrace
 10
105
 20
41
 30
0
 11
105.1665138631091
 21
40
 31
0
 12
104.8334861368909
 22
40
 32
0
 13
104.8334861368909
 23
40
 33
0
  0
LINE
  5
F8
100
AcDbEntity
  8
Dimensions
  6
ByBlock
 62
    5
370
   -2
100
AcDbLine
 10
90.925
 20
2.775557561562891e-16
 11
106.25
 21
7.66053886991358e-15
  0
LINE
  5
F9
100
AcDbEntity
  8
Dimensions
  6
ByBlock
 62
    5
370
   -2
100
AcDbLine
 10
75.625
 20
41
 11
106.25
 21
41
  0
ENDBLK
  5
7D
330
7B
100
AcDbEntity
  8
0
100
AcDbBlockEnd
  0
BLOCK
  5
7F
330
7E
100
AcDbEntity
  8
0
100
AcDbBlockBegin
  2
*D22
 70
    1
 10
0
 20
0
  3
*D22
  1

  0
LINE
  5
FA
100
AcDbEntity
  8
Dimensions
  6
ByBlock
 62
    5
370
   -2
100
AcDbLine
 10
-73.3
 20
-10
 11
73.3
 21
-10
  0
MTEXT
  5
FB
100
AcDbEntity
  8
Dimensions
  6
CONTINUOUS
 62
    5
370
   -2
100
AcDbMText
 10
1.148068456708479e-16
 20
-8.125
 30
0
 40
2.5
 41
9.444444444444756
 71
    5
 72
    1
  1
146.60
  7
standard
210
0
220
0
230
1
 50
0
 73
    2
 44
1
  0
SOLID
  5
FC
100
AcDbEntity
  8
Dimensions
  6
ByBlock
 62
    5
370
   -2
100
AcDbTrace
 10
-73.3
 20
-10
 30
0
 11
-72.3
 21
-9.833486136890864
 31
0
 12
-72.3
 22
-10.16651386310914
 32
0
 13
-72.3
 23
-10.16651386310914
 33
0
  0
SOLID
  5
FD
100
AcDbEntity
  8
Dimensions
  6
ByBlock
 62
    5
370
   -2
100
AcDbTrace
 10
73.3
 20
-10
 30
0
 11
72.3
 21
-10.16651386310914
 31
0
 12
72.3
 22
-9.833486136890864
 32
0
 13
72.3
 23
-9.833486136890864
 33
0
  0
LINE
  5
FE
100
AcDbEntity
  8
Dimensions
  6
ByBlock
 62
    5
370
   -2
100
AcDbLine
 10
-73.3
 20
-0.625
 11
-73.3
 21
-11.25
  0
LINE
  5
FF
100
AcDbEntity
  8
Dimensions
  6
ByBlock
 62
    5
370
   -2
100
AcDbLine
 10
73.3
 20
-0.625
 11
73.3
 21
-11.25
  0
ENDBLK
  5
80
330
7E
100
AcDbEntity
  8
0
100
AcDbBlockEnd
  0
BLOCK
  5
82
330
81
100
AcDbEntity
  8
0
100
AcDbBlockBegin
  2
*D23
 70
    1
 10
0
 20
0
  3
*D23
  1

  0
LINE
  5
100
100
AcDbEntity
  8
Dimensions
  6
ByBlock
 62
    5
370
   -2
100
AcDbLine
 10
-75.55
 20
-20
 11
75.55
 21
-20
  0
MTEXT
  5
101
100
AcDbEntity
  8
Dimensions
  6
CONTINUOUS
 62
    5
370
   -2
100
AcDbMText
 10
1.148068456708479e-16
 20
-18.125
 30
0
 40
2.5
 41
16.52777777777793
 71
    5
 72
    1
  1
151.1 %%P 0.2
  7
standard
210
0
220
0
230
1
 50
0
 73
    2
 44
1
  0
SOLID
  5
102
100
AcDbEntity
  8
Dimensions
  6
ByBlock
 62
    5
370
   -2
100
AcDbTrace
 10
-75.55
 20
-20
 30
0
 11
-74.55
 21
-19.83348613689087
 31
0
 12
-74.55
 22
-20.16651386310914
 32
0
 13
-74.55
 23
-20.16651386310914
 33
0
  0
SOLID
  5
103
100
AcDbEntity
  8
Dimensions
  6
ByBlock
 62
    5
370
   -2
100
AcDbTrace
 10
75.55
 20
-20
 30
0
 11
74.55
 21
-20.16651386310913
 31
0
 12
74.55
 22
-19.83348613689087
 32
0
 13
74.55
 23
-19.83348613689087
 33
0
  0
LINE
  5
104
100
AcDbEntity
  8
Dimensions
  6
ByBlock
 62
    5
370
   -2
100
AcDbLine
 10
-75.55
 20
3.125
 11
-75.55
 21
-21.25
  0
LINE
  5
105
100
AcDbEntity
  8
Dimensions
  6
ByBlock
 62
    5
370
   -2
100
AcDbLine
 10
75.55
 20
3.125
 11
75.55
 21
-21.25
  0
ENDBLK
  5
83
330
81
100
AcDbEntity
  8
0
100
AcDbBlockEnd
  0
BLOCK
  5
85
330
84
100
AcDbEntity
  8
0
100
AcDbBlockBegin
  2
*D1
 70
    1
 10
0
 20
0
  3
*D1
  1

  0
LINE
  5
106
100
AcDbEntity
  8
Dimensions
  6
ByBlock
 62
    5
370
   -2
100
AcDbLine
 10
-102.5
 20
6.300000000000001
 11
-102.5
 21
34.8
  0
MTEXT
  5
107
100
AcDbEntity
  8
Dimensions
  6
CONTINUOUS
 62
    5
370
   -2
100
AcDbMText
 10
-104.375
 20
20.55
 30
0
 40
2.5
 41
21.44444444444476
 71
    5
 72
    1
  1
1.5*19 = 28.5
  7
standard
210
0
220
0
230
1
 50
90
 73
    2
 44
1
  0
SOLID
  5
108
100
AcDbEntity
  8
Dimensions
  6
ByBlock
 62
    5
370
   -2
100
AcDbTrace
 10
-102.5
 20
6.300000000000001
 30
0
 11
-102.6665138631091
 21
7.300000000000001
 31
0
 12
-102.3334861368909
 22
7.300000000000001
 32
0
 13
-102.3334861368909
 23
7.300000000000001
 33
0
  0
SOLID
  5
109
100
AcDbEntity
  8
Dimensions
  6
ByBlock
 62
    5
370
   -2
100
AcDbTrace
 10
-102.5
 20
34.8
 30
0
 11
-102.3334861368909
 21
33.8
 31
0
 12
-102.6665138631091
 22
33.8
 32
0
 13
-102.6665138631091
 23
33.8
 33
0
  0
LINE
  5
10A
100
AcDbEntity
  8
Dimensions
  6
ByBlock
 62
    5
370
   -2
100
AcDbLine
 10
-79.125
 20
6.3
 11
-103.75
 21
6.300000000000001
  0
LINE
  5
10B
100
AcDbEntity
  8
Dimensions
  6
ByBlock
 62
    5
370
   -2
100
AcDbLine
 10
-79.125
 20
34.8
 11
-103.75
 21
34.8
  0
ENDBLK
  5
86
330
84
100
AcDbEntity
  8
0
100
AcDbBlockEnd
  0
BLOCK
  5
88
330
87
100
AcDbEntity
  8
0
100
AcDbBlockBegin
  2
*D20
 70
    1
 10
0
 20
0
  3
*D20
  1

  0
LINE
  5
10C
100
AcDbEntity
  8
Dimensions
  6
ByBlock
 62
    5
370
   -2
100
AcDbLine
 10
100
 20
3.75
 11
100
 21
1.97215226305253e-31
  0
MTEXT
  5
10D
100
AcDbEntity
  8
Dimensions
  6
CONTINUOUS
 62
    5
370
   -2
100
AcDbMText
 10
98.125
 20
7.291666666666822
 30
0
 40
2.5
 41
5.833333333333643
 71
    5
 72
    1
  1
3.75
  7
standard
210
0
220
0
230
1
 50
90
 73
    2
 44
1
  0
SOLID
  5
10E
100
AcDbEntity
  8
Dimensions
  6
ByBlock
 62
    5
370
   -2
100
AcDbTrace
 10
100
 20
3.75
 30
0
 11
100.1665138631091
 21
2.75
 31
0
 12
99.83348613689087
 22
2.75
 32
0
 13
99.83348613689087
 23
2.75
 33
0
  0
SOLID
  5
10F
100
AcDbEntity
  8
Dimensions
  6
ByBlock
 62
    5
370
   -2
100
AcDbTrace
 10
100
 20
1.97215226305253e-31
 30
0
 11
99.83348613689087
 21
1
 31
0
 12
100.1665138631091
 22
1
 32
0
 13
100.1665138631091
 23
1
 33
0
  0
LINE
  5
110
100
AcDbEntity
  8
Dimensions
  6
ByBlock
 62
    5
370
   -2
100
AcDbLine
 10
76.175
 20
3.75
 11
101.25
 21
3.75
  0
LINE
  5
111
100
AcDbEntity
  8
Dimensions
  6
ByBlock
 62
    5
370
   -2
100
AcDbLine
 10
90.925
 20
0
 11
101.25
 21
1.97215226305253e-31
  0
ENDBLK
  5
89
330
87
100
AcDbEntity
  8
0
100
AcDbBlockEnd
  0
BLOCK
  5
8B
330
8A
100
AcDbEntity
  8
0
100
AcDbBlockBegin
  2
*D26
 70
    1
 10
0
 20
0
  3
*D26
  1

  0
SOLID
  5
112
100
AcDbEntity
  8
Dimensions
  6
ByBlock
 62
    5
370
   -2
100
AcDbTrace
 10
80.25304524891996
 20
2.806834195271394
 30
0
 11
79.69245783542135
 21
1.962163479291213
 31
0
 12
79.44899616169855
 22
2.189394374765838
 32
0
 13
79.44899616169855
 23
2.189394374765838
 33
0
  0
LINE
  5
113
100
AcDbEntity
  8
Dimensions
  6
ByBlock
 62
    5
370
   -2
100
AcDbLine
 10
82.3
 20
5.000000000000001
 11
72.06522624459971
 21
-5.965829023643137
  0
MTEXT
  5
114
100
AcDbEntity
  8
Dimensions
  6
CONTINUOUS
 62
    5
370
   -2
100
AcDbMText
 10
74.78840711880446
 20
-0.3001506947608483
 30
0
 40
2.5
 41
10.00000000000015
 71
    5
 72
    1
  1
2-R3.0
  7
standard
210
0
220
0
230
1
 50
46.97493401088192
 73
    2
 44
1
  0
ENDBLK
  5
8C
330
8A
100
AcDbEntity
  8
0
100
AcDbBlockEnd
  0
BLOCK
  5
8E
330
8D
100
AcDbEntity
  8
0
100
AcDbBlockBegin
  2
*D24
 70
    1
 10
0
 20
0
  3
*D24
  1

  0
LINE
  5
115
100
AcDbEntity
  8
Dimensions
  6
ByBlock
 62
    5
370
   -2
100
AcDbLine
 10
-76.3
 20
-30
 11
76.3
 21
-30
  0
MTEXT
  5
116
100
AcDbEntity
  8
Dimensions
  6
CONTINUOUS
 62
    5
370
   -2
100
AcDbMText
 10
1.148068456708479e-16
 20
-28.125
 30
0
 40
2.5
 41
17.6388888888892
 71
    5
 72
    1
  1
152.6 %%P 0.2
  7
standard
210
0
220
0
230
1
 50
0
 73
    2
 44
1
  0
SOLID
  5
117
100
AcDbEntity
  8
Dimensions
  6
ByBlock
 62
    5
370
   -2
100
AcDbTrace
 10
-76.3
 20
-30
 30
0
 11
-75.3
 21
-29.83348613689087
 31
0
 12
-75.3
 22
-30.16651386310914
 32
0
 13
-75.3
 23
-30.16651386310914
 33
0
  0
SOLID
  5
118
100
AcDbEntity
  8
Dimensions
  6
ByBlock
 62
    5
370
   -2
100
AcDbTrace
 10
76.3
 20
-30
 30
0
 11
75.3
 21
-30.16651386310913
 31
0
 12
75.3
 22
-29.83348613689087
 32
0
 13
75.3
 23
-29.83348613689087
 33
0
  0
LINE
  5
119
100
AcDbEntity
  8
Dimensions
  6
ByBlock
 62
    5
370
   -2
100
AcDbLine
 10
-76.3
 20
5.775
 11
-76.3
 21
-31.25
  0
LINE
  5
11A
100
AcDbEntity
  8
Dimensions
  6
ByBlock
 62
    5
370
   -2
100
AcDbLine
 10
76.3
 20
5.775
 11
76.3
 21
-31.25
  0
ENDBLK
  5
8F
330
8D
100
AcDbEntity
  8
0
100
AcDbBlockEnd
  0
BLOCK
  5
91
330
90
100
AcDbEntity
  8
0
100
AcDbBlockBegin
  2
*D19
 70
    1
 10
0
 20
0
  3
*D19
  1

  0
LINE
  5
11B
100
AcDbEntity
  8
Dimensions
  6
ByBlock
 62
    5
370
   -2
100
AcDbLine
 10
95
 20
3.75
 11
95
 21
37.25
  0
MTEXT
  5
11C
100
AcDbEntity
  8
Dimensions
  6
CONTINUOUS
 62
    5
370
   -2
100
AcDbMText
 10
93.125
 20
20.5
 30
0
 40
2.5
 41
15.69444444444491
 71
    5
 72
    1
  1
33.5 %%P 0.1
  7
standard
210
0
220
0
230
1
 50
90
 73
    2
 44
1
  0
SOLID
  5
11D
100
AcDbEntity
  8
Dimensions
  6
ByBlock
 62
    5
370
   -2
100
AcDbTrace
 10
95
 20
3.75
 30
0
 11
94.83348613689087
 21
4.75
 31
0
 12
95.16651386310913
 22
4.75
 32
0
 13
95.16651386310913
 23
4.75
 33
0
  0
SOLID
  5
11E
100
AcDbEntity
  8
Dimensions
  6
ByBlock
 62
    5
370
   -2
100
AcDbTrace
 10
95
 20
37.25
 30
0
 11
95.16651386310913
 21
36.25
 31
0
 12
94.83348613689087
 22
36.25
 32
0
 13
94.83348613689087
 23
36.25
 33
0
  0
LINE
  5
11F
100
AcDbEntity
  8
Dimensions
  6
ByBlock
 62
    5
370
   -2
100
AcDbLine
 10
76.17500000000001
 20
3.75
 11
96.25
 21
3.75
  0
LINE
  5
120
100
AcDbEntity
  8
Dimensions
  6
ByBlock
 62
    5
370
   -2
100
AcDbLine
 10
76.175
 20
37.25
 11
96.25
 21
37.25
  0
ENDBLK
  5
92
330
90
100
AcDbEntity
  8
0
100
AcDbBlockEnd
  0
BLOCK
  5
94
330
93
100
AcDbEntity
  8
0
100
AcDbBlockBegin
  2
*D13
 70
    1
 10
0
 20
0
  3
*D13
  1

  0
LINE
  5
121
100
AcDbEntity
  8
Dimensions
  6
ByBlock
 62
    5
370
   -2
100
AcDbLine
 10
-65
 20
0
 11
-65
 21
6.4
  0
MTEXT
  5
122
100
AcDbEntity
  8
Dimensions
  6
CONTINUOUS
 62
    5
370
   -2
100
AcDbMText
 10
-66.875
 20
3.2
 30
0
 40
2.5
 41
6.111111111111266
 71
    5
 72
    1
  1
6.40
  7
standard
210
0
220
0
230
1
 50
90
 73
    2
 44
1
  0
SOLID
  5
123
100
AcDbEntity
  8
Dimensions
  6
ByBlock
 62
    5
370
   -2
100
AcDbTrace
 10
-65
 20
0
 30
0
 11
-65.16651386310913
 21
1
 31
0
 12
-64.83348613689087
 22
1
 32
0
 13
-64.83348613689087
 23
1
 33
0
  0
SOLID
  5
124
100
AcDbEntity
  8
Dimensions
  6
ByBlock
 62
    5
370
   -2
100
AcDbTrace
 10
-65
 20
6.4
 30
0
 11
-64.83348613689087
 21
5.4
 31
0
 12
-65.16651386310913
 22
5.4
 32
0
 13
-65.16651386310913
 23
5.4
 33
0
  0
LINE
  5
125
100
AcDbEntity
  8
Dimensions
  6
ByBlock
 62
    5
370
   -2
100
AcDbLine
 10
-72.675
 20
0
 11
-63.75
 21
0
  0
LINE
  5
126
100
AcDbEntity
  8
Dimensions
  6
ByBlock
 62
    5
370
   -2
100
AcDbLine
 10
-74.12500000000001
 20
6.4
 11
-63.75
 21
6.4
  0
ENDBLK
  5
95
330
93
100
AcDbEntity
  8
0
100
AcDbBlockEnd
  0
BLOCK
  5
97
330
96
100
AcDbEntity
  8
0
100
AcDbBlockBegin
  2
*D17
 70
    1
 10
0
 20
0
  3
*D17
  1

  0
LINE
  5
127
100
AcDbEntity
  8
Dimensions
  6
ByBlock
 62
    5
370
   -2
100
AcDbLine
 10
50
 20
-1.5
 11
50
 21
4.5
  0
MTEXT
  5
128
100
AcDbEntity
  8
Dimensions
  6
CONTINUOUS
 62
    5
370
   -2
100
AcDbMText
 10
48.125
 20
6.041666666666667
 30
0
 40
2.5
 41
5.833333333333334
 71
    5
 72
    1
  1
2.00
  7
standard
210
0
220
0
230
1
 50
90
 73
    2
 44
1
  0
SOLID
  5
129
100
AcDbEntity
  8
Dimensions
  6
ByBlock
 62
    5
370
   -2
100
AcDbTrace
 10
50
 20
0.5
 30
0
 11
50.16651386310914
 21
-0.5
 31
0
 12
49.83348613689086
 22
-0.5
 32
0
 13
49.83348613689086
 23
-0.5
 33
0
  0
SOLID
  5
12A
100
AcDbEntity
  8
Dimensions
  6
ByBlock
 62
    5
370
   -2
100
AcDbTrace
 10
50
 20
2.5
 30
0
 11
49.83348613689086
 21
3.5
 31
0
 12
50.16651386310914
 22
3.5
 32
0
 13
50.16651386310914
 23
3.5
 33
0
  0
LINE
  5
12B
100
AcDbEntity
  8
Dimensions
  6
ByBlock
 62
    5
370
   -2
100
AcDbLine
 10
49.375
 20
0.5000000000000001
 11
48.75
 21
0.5000000000000001
  0
LINE
  5
12C
100
AcDbEntity
  8
Dimensions
  6
ByBlock
 62
    5
370
   -2
100
AcDbLine
 10
49.375
 20
2.5
 11
48.75
 21
2.5
  0
ENDBLK
  5
98
330
96
100
AcDbEntity
  8
0
100
AcDbBlockEnd
  0
BLOCK
  5
9A
330
99
100
AcDbEntity
  8
0
100
AcDbBlockBegin
  2
*D5
 70
    1
 10
0
 20
0
  3
*D5
  1

  0
LINE
  5
12D
100
AcDbEntity
  8
Dimensions
  6
ByBlock
 62
    5
370
   -2
100
AcDbLine
 10
-90.30000000000004
 20
-50
 11
90.30000000000001
 21
-50
  0
MTEXT
  5
12E
100
AcDbEntity
  8
Dimensions
  6
CONTINUOUS
 62
    5
370
   -2
100
AcDbMText
 10
-1.409604786953116e-14
 20
-48.125
 30
0
 40
2.5
 41
9.166666666666822
 71
    5
 72
    1
  1
180.60
  7
standard
210
0
220
0
230
1
 50
0
 73
    2
 44
1
  0
SOLID
  5
12F
100
AcDbEntity
  8
Dimensions
  6
ByBlock
 62
    5
370
   -2
100
AcDbTrace
 10
-90.30000000000004
 20
-50
 30
0
 11
-89.30000000000004
 21
-49.83348613689086
 31
0
 12
-89.30000000000004
 22
-50.16651386310914
 32
0
 13
-89.30000000000004
 23
-50.16651386310914
 33
0
  0
SOLID
  5
130
100
AcDbEntity
  8
Dimensions
  6
ByBlock
 62
    5
370
   -2
100
AcDbTrace
 10
90.30000000000001
 20
-50
 30
0
 11
89.30000000000001
 21
-50.16651386310914
 31
0
 12
89.30000000000001
 22
-49.83348613689086
 32
0
 13
89.30000000000001
 23
-49.83348613689086
 33
0
  0
LINE
  5
131
100
AcDbEntity
  8
Dimensions
  6
ByBlock
 62
    5
370
   -2
100
AcDbLine
 10
-90.30000000000001
 20
-0.625
 11
-90.30000000000004
 21
-51.25
  0
LINE
  5
132
100
AcDbEntity
  8
Dimensions
  6
ByBlock
 62
    5
370
   -2
100
AcDbLine
 10
90.30000000000001
 20
-0.625
 11
90.30000000000001
 21
-51.25
  0
ENDBLK
  5
9B
330
99
100
AcDbEntity
  8
0
100
AcDbBlockEnd
  0
BLOCK
  5
9D
330
9C
100
AcDbEntity
  8
0
100
AcDbBlockBegin
  2
*D18
 70
    1
 10
0
 20
0
  3
*D18
  1

  0
LINE
  5
133
100
AcDbEntity
  8
Dimensions
  6
ByBlock
 62
    5
370
   -2
100
AcDbLine
 10
65
 20
0
 11
65
 21
2.5
  0
MTEXT
  5
134
100
AcDbEntity
  8
Dimensions
  6
CONTINUOUS
 62
    5
370
   -2
100
AcDbMText
 10
63.125
 20
6.041666666666744
 30
0
 40
2.5
 41
5.833333333333489
 71
    5
 72
    1
  1
2.50
  7
standard
210
0
220
0
230
1
 50
90
 73
    2
 44
1
  0
SOLID
  5
135
100
AcDbEntity
  8
Dimensions
  6
ByBlock
 62
    5
370
   -2
100
AcDbTrace
 10
65
 20
0
 30
0
 11
64.83348613689087
 21
1
 31
0
 12
65.16651386310913
 22
1
 32
0
 13
65.16651386310913
 23
1
 33
0
  0
SOLID
  5
136
100
AcDbEntity
  8
Dimensions
  6
ByBlock
 62
    5
370
   -2
100
AcDbTrace
 10
65
 20
2.5
 30
0
 11
65.16651386310913
 21
1.5
 31
0
 12
64.83348613689087
 22
1.5
 32
0
 13
64.83348613689087
 23
1.5
 33
0
  0
LINE
  5
137
100
AcDbEntity
  8
Dimensions
  6
ByBlock
 62
    5
370
   -2
100
AcDbLine
 10
72.675
 20
7.653789711389858e-17
 11
63.75
 21
1.530757942277972e-16
  0
LINE
  5
138
100
AcDbEntity
  8
Dimensions
  6
ByBlock
 62
    5
370
   -2
100
AcDbLine
 10
72.175
 20
2.5
 11
63.75
 21
2.5
  0
ENDBLK
  5
9E
330
9C
100
AcDbEntity
  8
0
100
AcDbBlockEnd
  0
ENDSEC
  0
SECTION
  2
ENTITIES
  0
ARC
  5
139
100
AcDbEntity
  8
0
  6
ByLayer
 62
  256
370
   -1
100
AcDbCircle
 10
-78.8
 20
8.300000000000001
 40
0.5
100
AcDbArc
 50
180
 51
270
  0
LINE
  5
13A
100
AcDbEntity
  8
0
  6
ByLayer
 62
  256
370
   -1
100
AcDbLine
 10
-79.3
 20
8.300000000000001
 11
-79.3
 21
8.800000000000001
  0
ARC
  5
13B
100
AcDbEntity
  8
0
  6
ByLayer
 62
  256
370
   -1
100
AcDbCircle
 10
-78.8
 20
8.800000000000001
 40
0.5
100
AcDbArc
 50
90
 51
180
  0
ARC
  5
13C
100
AcDbEntity
  8
0
  6
ByLayer
 62
  256
370
   -1
100
AcDbCircle
 10
-78.8
 20
11.3
 40
0.5
100
AcDbArc
 50
180
 51
270
  0
LINE
  5
13D
100
AcDbEntity
  8
0
  6
ByLayer
 62
  256
370
   -1
100
AcDbLine
 10
-79.3
 20
11.3
 11
-79.3
 21
11.8
  0
ARC
  5
13E
100
AcDbEntity
  8
0
  6
ByLayer
 62
  256
370
   -1
100
AcDbCircle
 10
-78.8
 20
11.8
 40
0.5
100
AcDbArc
 50
90
 51
180
  0
ARC
  5
13F
100
AcDbEntity
  8
0
  6
ByLayer
 62
  256
370
   -1
100
AcDbCircle
 10
-78.8
 20
14.3
 40
0.5
100
AcDbArc
 50
180
 51
270
  0
LINE
  5
140
100
AcDbEntity
  8
0
  6
ByLayer
 62
  256
370
   -1
100
AcDbLine
 10
-79.3
 20
14.3
 11
-79.3
 21
14.8
  0
ARC
  5
141
100
AcDbEntity
  8
0
  6
ByLayer
 62
  256
370
   -1
100
AcDbCircle
 10
-78.8
 20
14.8
 40
0.5
100
AcDbArc
 50
90
 51
180
  0
ARC
  5
142
100
AcDbEntity
  8
0
  6
ByLayer
 62
  256
370
   -1
100
AcDbCircle
 10
-78.8
 20
17.3
 40
0.5
100
AcDbArc
 50
180
 51
270
  0
LINE
  5
143
100
AcDbEntity
  8
0
  6
ByLayer
 62
  256
370
   -1
100
AcDbLine
 10
-79.3
 20
17.3
 11
-79.3
 21
17.8
  0
ARC
  5
144
100
AcDbEntity
  8
0
  6
ByLayer
 62
  256
370
   -1
100
AcDbCircle
 10
-78.8
 20
17.8
 40
0.5
100
AcDbArc
 50
90
 51
180
  0
ARC
  5
145
100
AcDbEntity
  8
0
  6
ByLayer
 62
  256
370
   -1
100
AcDbCircle
 10
-78.8
 20
20.3
 40
0.5
100
AcDbArc
 50
180
 51
270
  0
LINE
  5
146
100
AcDbEntity
  8
0
  6
ByLayer
 62
  256
370
   -1
100
AcDbLine
 10
-79.3
 20
20.3
 11
-79.3
 21
20.8
  0
ARC
  5
147
100
AcDbEntity
  8
0
  6
ByLayer
 62
  256
370
   -1
100
AcDbCircle
 10
-78.8
 20
20.8
 40
0.5
100
AcDbArc
 50
90
 51
180
  0
ARC
  5
148
100
AcDbEntity
  8
0
  6
ByLayer
 62
  256
370
   -1
100
AcDbCircle
 10
-78.8
 20
23.3
 40
0.5
100
AcDbArc
 50
180
 51
270
  0
LINE
  5
149
100
AcDbEntity
  8
0
  6
ByLayer
 62
  256
370
   -1
100
AcDbLine
 10
-79.3
 20
23.3
 11
-79.3
 21
23.8
  0
ARC
  5
14A
100
AcDbEntity
  8
0
  6
ByLayer
 62
  256
370
   -1
100
AcDbCircle
 10
-78.8
 20
23.8
 40
0.5
100
AcDbArc
 50
90
 51
180
  0
ARC
  5
14B
100
AcDbEntity
  8
0
  6
ByLayer
 62
  256
370
   -1
100
AcDbCircle
 10
-78.8
 20
26.3
 40
0.5
100
AcDbArc
 50
180
 51
270
  0
LINE
  5
14C
100
AcDbEntity
  8
0
  6
ByLayer
 62
  256
370
   -1
100
AcDbLine
 10
-79.3
 20
26.3
 11
-79.3
 21
26.8
  0
ARC
  5
14D
100
AcDbEntity
  8
0
  6
ByLayer
 62
  256
370
   -1
100
AcDbCircle
 10
-78.8
 20
26.8
 40
0.5
100
AcDbArc
 50
90
 51
180
  0
ARC
  5
14E
100
AcDbEntity
  8
0
  6
ByLayer
 62
  256
370
   -1
100
AcDbCircle
 10
-78.8
 20
29.30000000000001
 40
0.5
100
AcDbArc
 50
180
 51
270
  0
LINE
  5
14F
100
AcDbEntity
  8
0
  6
ByLayer
 62
  256
370
   -1
100
AcDbLine
 10
-79.3
 20
29.30000000000001
 11
-79.3
 21
29.80000000000001
  0
ARC
  5
150
100
AcDbEntity
  8
0
  6
ByLayer
 62
  256
370
   -1
100
AcDbCircle
 10
-78.8
 20
29.80000000000001
 40
0.5
100
AcDbArc
 50
90
 51
180
  0
ARC
  5
151
100
AcDbEntity
  8
0
  6
ByLayer
 62
  256
370
   -1
100
AcDbCircle
 10
-78.8
 20
32.3
 40
0.5
100
AcDbArc
 50
180
 51
270
  0
LINE
  5
152
100
AcDbEntity
  8
0
  6
ByLayer
 62
  256
370
   -1
100
AcDbLine
 10
-79.3
 20
32.3
 11
-79.3
 21
32.8
  0
ARC
  5
153
100
AcDbEntity
  8
0
  6
ByLayer
 62
  256
370
   -1
100
AcDbCircle
 10
-78.8
 20
32.8
 40
0.5
100
AcDbArc
 50
90
 51
180
  0
ARC
  5
154
100
AcDbEntity
  8
0
  6
ByLayer
 62
  256
370
   -1
100
AcDbCircle
 10
-78.8
 20
5.8
 40
0.5
100
AcDbArc
 50
90
 51
180
  0
ARC
  5
155
100
AcDbEntity
  8
0
  6
ByLayer
 62
  256
370
   -1
100
AcDbCircle
 10
-78.8
 20
35.3
 40
0.5
100
AcDbArc
 50
180
 51
270
  0
LINE
  5
156
100
AcDbEntity
  8
0
  6
ByLayer
 62
  256
370
   -1
100
AcDbLine
 10
-90.3
 20
0
 11
-73.3
 21
0
  0
ARC
  5
157
100
AcDbEntity
  8
0
  6
ByLayer
 62
  256
370
   -1
100
AcDbCircle
 10
78.80000000000001
 20
8.300000000000001
 40
0.5
100
AcDbArc
 50
270
 51
0
  0
LINE
  5
158
100
AcDbEntity
  8
0
  6
ByLayer
 62
  256
370
   -1
100
AcDbLine
 10
79.30000000000001
 20
8.300000000000001
 11
79.30000000000001
 21
8.800000000000001
  0
ARC
  5
159
100
AcDbEntity
  8
0
  6
ByLayer
 62
  256
370
   -1
100
AcDbCircle
 10
78.80000000000001
 20
8.800000000000001
 40
0.5
100
AcDbArc
 50
0
 51
90
  0
ARC
  5
15A
100
AcDbEntity
  8
0
  6
ByLayer
 62
  256
370
   -1
100
AcDbCircle
 10
78.80000000000001
 20
11.3
 40
0.5
100
AcDbArc
 50
270
 51
0
  0
LINE
  5
15B
100
AcDbEntity
  8
0
  6
ByLayer
 62
  256
370
   -1
100
AcDbLine
 10
79.30000000000001
 20
11.3
 11
79.30000000000001
 21
11.8
  0
ARC
  5
15C
100
AcDbEntity
  8
0
  6
ByLayer
 62
  256
370
   -1
100
AcDbCircle
 10
78.80000000000001
 20
11.8
 40
0.5
100
AcDbArc
 50
0
 51
90
  0
ARC
  5
15D
100
AcDbEntity
  8
0
  6
ByLayer
 62
  256
370
   -1
100
AcDbCircle
 10
78.80000000000001
 20
14.3
 40
0.5
100
AcDbArc
 50
270
 51
0
  0
LINE
  5
15E
100
AcDbEntity
  8
0
  6
ByLayer
 62
  256
370
   -1
100
AcDbLine
 10
79.30000000000001
 20
14.3
 11
79.30000000000001
 21
14.8
  0
ARC
  5
15F
100
AcDbEntity
  8
0
  6
ByLayer
 62
  256
370
   -1
100
AcDbCircle
 10
78.80000000000001
 20
14.8
 40
0.5
100
AcDbArc
 50
0
 51
90
  0
ARC
  5
160
100
AcDbEntity
  8
0
  6
ByLayer
 62
  256
370
   -1
100
AcDbCircle
 10
78.80000000000001
 20
17.3
 40
0.5
100
AcDbArc
 50
270
 51
0
  0
LINE
  5
161
100
AcDbEntity
  8
0
  6
ByLayer
 62
  256
370
   -1
100
AcDbLine
 10
79.30000000000001
 20
17.3
 11
79.30000000000001
 21
17.8
  0
ARC
  5
162
100
AcDbEntity
  8
0
  6
ByLayer
 62
  256
370
   -1
100
AcDbCircle
 10
78.80000000000001
 20
17.8
 40
0.5
100
AcDbArc
 50
0
 51
90
  0
ARC
  5
163
100
AcDbEntity
  8
0
  6
ByLayer
 62
  256
370
   -1
100
AcDbCircle
 10
78.80000000000001
 20
20.3
 40
0.5
100
AcDbArc
 50
270
 51
0
  0
LINE
  5
164
100
AcDbEntity
  8
0
  6
ByLayer
 62
  256
370
   -1
100
AcDbLine
 10
79.30000000000001
 20
20.3
 11
79.30000000000001
 21
20.8
  0
ARC
  5
165
100
AcDbEntity
  8
0
  6
ByLayer
 62
  256
370
   -1
100
AcDbCircle
 10
78.80000000000001
 20
20.8
 40
0.5
100
AcDbArc
 50
0
 51
90
  0
ARC
  5
166
100
AcDbEntity
  8
0
  6
ByLayer
 62
  256
370
   -1
100
AcDbCircle
 10
78.80000000000001
 20
23.3
 40
0.5
100
AcDbArc
 50
270
 51
0
  0
LINE
  5
167
100
AcDbEntity
  8
0
  6
ByLayer
 62
  256
370
   -1
100
AcDbLine
 10
79.30000000000001
 20
23.3
 11
79.30000000000001
 21
23.8
  0
ARC
  5
168
100
AcDbEntity
  8
0
  6
ByLayer
 62
  256
370
   -1
100
AcDbCircle
 10
78.80000000000001
 20
23.8
 40
0.5
100
AcDbArc
 50
0
 51
90
  0
ARC
  5
169
100
AcDbEntity
  8
0
  6
ByLayer
 62
  256
370
   -1
100
AcDbCircle
 10
78.80000000000001
 20
26.3
 40
0.5
100
AcDbArc
 50
270
 51
0
  0
LINE
  5
16A
100
AcDbEntity
  8
0
  6
ByLayer
 62
  256
370
   -1
100
AcDbLine
 10
79.30000000000001
 20
26.3
 11
79.30000000000001
 21
26.8
  0
ARC
  5
16B
100
AcDbEntity
  8
0
  6
ByLayer
 62
  256
370
   -1
100
AcDbCircle
 10
78.80000000000001
 20
26.8
 40
0.5
100
AcDbArc
 50
0
 51
90
  0
ARC
  5
16C
100
AcDbEntity
  8
0
  6
ByLayer
 62
  256
370
   -1
100
AcDbCircle
 10
78.80000000000001
 20
29.30000000000001
 40
0.5
100
AcDbArc
 50
270
 51
0
  0
LINE
  5
16D
100
AcDbEntity
  8
0
  6
ByLayer
 62
  256
370
   -1
100
AcDbLine
 10
79.30000000000001
 20
29.30000000000001
 11
79.30000000000001
 21
29.80000000000001
  0
ARC
  5
16E
100
AcDbEntity
  8
0
  6
ByLayer
 62
  256
370
   -1
100
AcDbCircle
 10
78.80000000000001
 20
29.80000000000001
 40
0.5
100
AcDbArc
 50
0
 51
90
  0
ARC
  5
16F
100
AcDbEntity
  8
0
  6
ByLayer
 62
  256
370
   -1
100
AcDbCircle
 10
78.80000000000001
 20
32.3
 40
0.5
100
AcDbArc
 50
270
 51
0
  0
LINE
  5
170
100
AcDbEntity
  8
0
  6
ByLayer
 62
  256
370
   -1
100
AcDbLine
 10
79.30000000000001
 20
32.3
 11
79.30000000000001
 21
32.8
  0
ARC
  5
171
100
AcDbEntity
  8
0
  6
ByLayer
 62
  256
370
   -1
100
AcDbCircle
 10
78.80000000000001
 20
32.8
 40
0.5
100
AcDbArc
 50
0
 51
90
  0
ARC
  5
172
100
AcDbEntity
  8
0
  6
ByLayer
 62
  256
370
   -1
100
AcDbCircle
 10
78.80000000000001
 20
5.8
 40
0.5
100
AcDbArc
 50
0
 51
90
  0
ARC
  5
173
100
AcDbEntity
  8
0
  6
ByLayer
 62
  256
370
   -1
100
AcDbCircle
 10
78.80000000000001
 20
35.3
 40
0.5
100
AcDbArc
 50
270
 51
0
  0
DIMENSION
  5
174
100
AcDbEntity
  8
Dimensions
  6
ByLayer
 62
  256
370
   -1
100
AcDbDimension
  2
*D1
 10
-102.5
 20
34.8
 30
0
 11
-104.375
 21
20.55
 31
0
 70
   32
  1
1.5*19 = 28.5
 71
    5
  3
Standard
 53
0
210
0
220
0
230
1
100
AcDbAlignedDimension
 13
-78.5
 23
6.3
 33
0
 14
-78.5
 24
34.8
 34
0
 50
90
100
AcDbRotatedDimension
  0
DIMENSION
  5
175
100
AcDbEntity
  8
Dimensions
  6
ByLayer
 62
  256
370
   -1
100
AcDbDimension
  2
*D2
 10
-102.5
 20
1.507897539471115e-15
 30
0
 11
-104.375
 21
3.15
 31
0
 70
   32
 71
    5
  3
Standard
 53
0
210
0
220
0
230
1
100
AcDbAlignedDimension
 13
-78.50000000000001
 23
6.3
 33
0
 14
-90.3
 24
1.387778780781446e-17
 34
0
 50
90
100
AcDbRotatedDimension
  0
DIMENSION
  5
176
100
AcDbEntity
  8
Dimensions
  6
ByLayer
 62
  256
370
   -1
100
AcDbDimension
  2
*D3
 10
-95
 20
33.3
 30
0
 11
-96.875
 21
34.05
 31
0
 70
   32
 71
    5
  3
Standard
 53
0
210
0
220
0
230
1
100
AcDbAlignedDimension
 13
-78.50000000000001
 23
34.8
 33
0
 14
-78.50000000000001
 24
33.3
 34
0
 50
90
100
AcDbRotatedDimension
  0
DIMENSION
  5
177
100
AcDbEntity
  8
Dimensions
  6
ByLayer
 62
  256
370
   -1
100
AcDbDimension
  2
*D4
 10
-90.5
 20
31.8
 30
0
 11
-92.375
 21
32.55
 31
0
 70
   32
 71
    5
  3
Standard
 53
0
210
0
220
0
230
1
100
AcDbAlignedDimension
 13
-78.50000000000001
 23
33.3
 33
0
 14
-78.50000000000001
 24
31.8
 34
0
 50
90
100
AcDbRotatedDimension
  0
DIMENSION
  5
178
100
AcDbEntity
  8
Dimensions
  6
ByLayer
 62
  256
370
   -1
100
AcDbDimension
  2
*D5
 10
90.30000000000001
 20
-50
 30
0
 11
-1.409604786953116e-14
 21
-48.125
 31
0
 70
   32
 71
    5
  3
Standard
 53
0
210
0
220
0
230
1
100
AcDbAlignedDimension
 13
-90.30000000000001
 23
-2.775557561562891e-17
 33
0
 14
90.30000000000001
 24
-1.387778780781446e-17
 34
0
100
AcDbRotatedDimension
  0
DIMENSION
  5
179
100
AcDbEntity
  8
Dimensions
  6
ByLayer
 62
  256
370
   -1
100
AcDbDimension
  2
*D6
 10
79.30000000000001
 20
-40
 30
0
 11
1.148068456708479e-16
 21
-38.125
 31
0
 70
   32
 71
    5
  3
Standard
 53
0
210
0
220
0
230
1
100
AcDbAlignedDimension
 13
-79.3
 23
5
 33
0
 14
79.30000000000001
 24
5
 34
0
100
AcDbRotatedDimension
  0
DIMENSION
  5
17A
100
AcDbEntity
  8
Dimensions
  6
ByLayer
 62
  256
370
   -1
100
AcDbDimension
  2
*D7
 10
-76.3
 20
20.5
 30
0
 11
-77.8
 21
22.375
 31
0
 70
   32
 71
    5
 72
    0
  3
Standard
 53
0
210
0
220
0
230
1
100
AcDbAlignedDimension
 13
-79.3
 23
20.55
 33
0
 14
-76.3
 24
20.55
 34
0
100
AcDbRotatedDimension
  0
LINE
  5
17B
100
AcDbEntity
  8
0
  6
ByLayer
 62
  256
370
   -1
100
AcDbLine
 10
-76.3
 20
32.25
 11
-75.5
 21
32.25
  0
ARC
  5
17C
100
AcDbEntity
  8
0
  6
ByLayer
 62
  256
370
   -1
100
AcDbCircle
 10
-75.5
 20
31.85000000000001
 40
0.4000000000000004
100
AcDbArc
 50
0
 51
90
  0
LINE
  5
17D
100
AcDbEntity
  8
0
  6
ByLayer
 62
  256
370
   -1
100
AcDbLine
 10
-75.09999999999999
 20
31.85000000000001
 11
-75.09999999999999
 21
31.45
  0
ARC
  5
17E
100
AcDbEntity
  8
0
  6
ByLayer
 62
  256
370
   -1
100
AcDbCircle
 10
-75.5
 20
31.45
 40
0.4000000000000004
100
AcDbArc
 50
270
 51
0
  0
LINE
  5
17F
100
AcDbEntity
  8
0
  6
ByLayer
 62
  256
370
   -1
100
AcDbLine
 10
-75.5
 20
31.05
 11
-76.3
 21
31.05
  0
ARC
  5
180
100
AcDbEntity
  8
0
  6
ByLayer
 62
  256
370
   -1
100
AcDbCircle
 10
-75.8
 20
37.24999999999999
 40
3
100
AcDbArc
 50
270
 51
328.1837538960602
  0
ARC
  5
181
100
AcDbEntity
  8
0
  6
ByLayer
 62
  256
370
   -1
100
AcDbCircle
 10
-73.625
 20
36
 40
0.5
100
AcDbArc
 50
324.462
 51
90
  0
LINE
  5
182
100
AcDbEntity
  8
0
  6
ByLayer
 62
  256
370
   -1
100
AcDbLine
 10
-76.3
 20
34.25
 11
-76.3
 21
32.25
  0
ARC
  5
183
100
AcDbEntity
  8
0
  6
ByLayer
 62
  256
370
   -1
100
AcDbCircle
 10
-73.40000000000001
 20
38.5
 40
0.5
100
AcDbArc
 50
270
 51
0
  0
ARC
  5
184
100
AcDbEntity
  8
0
  6
ByLayer
 62
  256
370
   -1
100
AcDbCircle
 10
-72.40000000000001
 20
38.5
 40
0.5
100
AcDbArc
 50
90
 51
180
  0
LINE
  5
185
100
AcDbEntity
  8
0
  6
ByLayer
 62
  256
370
   -1
100
AcDbLine
 10
-79.3
 20
37.25
 11
-79.3
 21
35.3
  0
LINE
  5
186
100
AcDbEntity
  8
0
  6
ByLayer
 62
  256
370
   -1
100
AcDbLine
 10
-75.3
 20
41
 11
-75.3
 21
41
  0
ARC
  5
187
100
AcDbEntity
  8
0
  6
ByLayer
 62
  256
370
   -1
100
AcDbCircle
 10
-75.55
 20
37.25
 40
1.25
100
AcDbArc
 50
36.8699
 51
323.13
  0
ARC
  5
188
100
AcDbEntity
  8
0
  6
ByLayer
 62
  256
370
   -1
100
AcDbCircle
 10
-75.55
 20
37.25
 40
3.75
100
AcDbArc
 50
90
 51
180
  0
DIMENSION
  5
189
100
AcDbEntity
  8
Dimensions
  6
ByLayer
 62
  256
370
   -1
100
AcDbDimension
  2
*D8
 10
-70
 20
38
 30
0
 11
-71.875
 21
37.25
 31
0
 70
   32
  1
4-1.5
 71
    5
  3
Standard
 53
0
210
0
220
0
230
1
100
AcDbAlignedDimension
 13
-74
 23
36.5
 33
0
 14
-74
 24
38
 34
0
 50
90
100
AcDbRotatedDimension
  0
DIMENSION
  5
18A
100
AcDbEntity
  8
Dimensions
  6
ByLayer
 62
  256
370
   -1
100
AcDbDimension
  2
*D9
 10
-75.10000000000001
 20
30
 30
0
 11
-75.7
 21
31.875
 31
0
 70
   32
  1
4-1.2
 71
    5
  3
Standard
 53
0
210
0
220
0
230
1
100
AcDbAlignedDimension
 13
-76.3
 23
31.05
 33
0
 14
-75.10000000000001
 24
31.5
 34
0
100
AcDbRotatedDimension
  0
DIMENSION
  5
18B
100
AcDbEntity
  8
Dimensions
  6
ByLayer
 62
  256
370
   -1
100
AcDbDimension
  2
*D10
 10
-45
 20
39
 30
0
 11
-46.875
 21
40
 31
0
 70
   32
 71
    5
  3
Standard
 53
0
210
0
220
0
230
1
100
AcDbAlignedDimension
 13
-50
 23
41
 33
0
 14
-50
 24
39
 34
0
 50
90
100
AcDbRotatedDimension
  0
LINE
  5
18C
100
AcDbEntity
  8
0
  6
ByLayer
 62
  256
370
   -1
100
AcDbLine
 10
76.3
 20
32.25
 11
75.5
 21
32.25
  0
ARC
  5
18D
100
AcDbEntity
  8
0
  6
ByLayer
 62
  256
370
   -1
100
AcDbCircle
 10
75.5
 20
31.85000000000001
 40
0.4000000000000004
100
AcDbArc
 50
90
 51
180
  0
LINE
  5
18E
100
AcDbEntity
  8
0
  6
ByLayer
 62
  256
370
   -1
100
AcDbLine
 10
75.09999999999999
 20
31.85000000000001
 11
75.09999999999999
 21
31.45
  0
ARC
  5
18F
100
AcDbEntity
  8
0
  6
ByLayer
 62
  256
370
   -1
100
AcDbCircle
 10
75.5
 20
31.45
 40
0.4000000000000004
100
AcDbArc
 50
180
 51
270
  0
LINE
  5
190
100
AcDbEntity
  8
0
  6
ByLayer
 62
  256
370
   -1
100
AcDbLine
 10
75.5
 20
31.05
 11
76.3
 21
31.05
  0
LINE
  5
191
100
AcDbEntity
  8
0
  6
ByLayer
 62
  256
370
   -1
100
AcDbLine
 10
-72.40000000000001
 20
39
 11
72.40000000000001
 21
39
  0
LINE
  5
192
100
AcDbEntity
  8
0
  6
ByLayer
 62
  256
370
   -1
100
AcDbLine
 10
76.3
 20
34.25
 11
76.3
 21
32.25
  0
LINE
  5
193
100
AcDbEntity
  8
0
  6
ByLayer
 62
  256
370
   -1
100
AcDbLine
 10
-76.3
 20
34.25
 11
-75.8
 21
34.25
  0
LINE
  5
194
100
AcDbEntity
  8
0
  6
ByLayer
 62
  256
370
   -1
100
AcDbLine
 10
-73.625
 20
36.5
 11
-74.55
 21
36.5
  0
ARC
  5
195
100
AcDbEntity
  8
0
  6
ByLayer
 62
  256
370
   -1
100
AcDbCircle
 10
73.625
 20
36
 40
0.5
100
AcDbArc
 50
90
 51
215.538
  0
ARC
  5
196
100
AcDbEntity
  8
0
  6
ByLayer
 62
  256
370
   -1
100
AcDbCircle
 10
75.8
 20
37.25
 40
3
100
AcDbArc
 50
211.8162461039397
 51
270
  0
LINE
  5
197
100
AcDbEntity
  8
0
  6
ByLayer
 62
  256
370
   -1
100
AcDbLine
 10
76.29999999999998
 20
34.25
 11
75.79999999999998
 21
34.25
  0
LINE
  5
198
100
AcDbEntity
  8
0
  6
ByLayer
 62
  256
370
   -1
100
AcDbLine
 10
73.625
 20
36.5
 11
74.55
 21
36.5
  0
LINE
  5
199
100
AcDbEntity
  8
0
  6
ByLayer
 62
  256
370
   -1
100
AcDbLine
 10
-74.55
 20
38
 11
-73.40000000000001
 21
38
  0
LINE
  5
19A
100
AcDbEntity
  8
0
  6
ByLayer
 62
  256
370
   -1
100
AcDbLine
 10
74.55
 20
38
 11
73.40000000000001
 21
38
  0
ARC
  5
19B
100
AcDbEntity
  8
0
  6
ByLayer
 62
  256
370
   -1
100
AcDbCircle
 10
73.40000000000001
 20
38.5
 40
0.5
100
AcDbArc
 50
180
 51
270
  0
ARC
  5
19C
100
AcDbEntity
  8
0
  6
ByLayer
 62
  256
370
   -1
100
AcDbCircle
 10
72.40000000000001
 20
38.5
 40
0.5
100
AcDbArc
 50
0
 51
90
  0
LINE
  5
19D
100
AcDbEntity
  8
0
  6
ByLayer
 62
  256
370
   -1
100
AcDbLine
 10
79.3
 20
37.25
 11
79.3
 21
35.3
  0
LINE
  5
19E
100
AcDbEntity
  8
0
  6
ByLayer
 62
  256
370
   -1
100
AcDbLine
 10
75.55
 20
41
 11
-75.55
 21
41
  0
ARC
  5
19F
100
AcDbEntity
  8
0
  6
ByLayer
 62
  256
370
   -1
100
AcDbCircle
 10
75.55000000000001
 20
37.25
 40
3.749999999999986
100
AcDbArc
 50
0
 51
90.00000000000021
  0
DIMENSION
  5
1A0
100
AcDbEntity
  8
Dimensions
  6
ByLayer
 62
  256
370
   -1
100
AcDbDimension
  2
*D11
 10
75.55000000000001
 20
37.25
 30
0
 11
82.34938754632131
 21
45.75000019868529
 31
0
 70
   36
  1
2-R3.75
 71
    5
  3
Standard
 53
0
210
0
220
0
230
1
100
AcDbRadialDimension
 15
78.36189195761909
 25
39.73108113907567
 35
0
 40
0
  0
DIMENSION
  5
1A1
100
AcDbEntity
  8
Dimensions
  6
ByLayer
 62
  256
370
   -1
100
AcDbDimension
  2
*D12
 10
74.72847120246105
 20
38.19212018066392
 30
0
 11
76.96318027099588
 21
38.48229319630842
 31
0
 70
   35
  1
4-%%C2.5
 71
    5
  3
Standard
 53
0
210
0
220
0
230
1
100
AcDbDiametricDimension
 15
76.37152879753894
 25
36.30787981933608
 35
0
 40
0
  0
LINE
  5
1A2
100
AcDbEntity
  8
0
  6
ByLayer
 62
  256
370
   -1
100
AcDbLine
 10
76.3
 20
31.05
 11
76.3
 21
9.6
  0
ARC
  5
1A3
100
AcDbEntity
  8
0
  6
ByLayer
 62
  256
370
   -1
100
AcDbCircle
 10
74.55000000000001
 20
5.4
 40
1
100
AcDbArc
 50
90
 51
180
  0
LINE
  5
1A4
100
AcDbEntity
  8
0
  6
ByLayer
 62
  256
370
   -1
100
AcDbLine
 10
73.55000000000001
 20
4.9
 11
73.55000000000001
 21
5.4
  0
ARC
  5
1A5
100
AcDbEntity
  8
0
  6
ByLayer
 62
  256
370
   -1
100
AcDbCircle
 10
73.95
 20
4.9
 40
0.403112887414919
100
AcDbArc
 50
180
 51
262.8749836496656
  0
LINE
  5
1A6
100
AcDbEntity
  8
0
  6
ByLayer
 62
  256
370
   -1
100
AcDbLine
 10
74.55000000000001
 20
4.5
 11
73.90000000000001
 21
4.5
  0
LINE
  5
1A7
100
AcDbEntity
  8
0
  6
ByLayer
 62
  256
370
   -1
100
AcDbLine
 10
75.10000000000002
 20
8.800000000000001
 11
75.10000000000002
 21
9.200000000000001
  0
ARC
  5
1A8
100
AcDbEntity
  8
0
  6
ByLayer
 62
  256
370
   -1
100
AcDbCircle
 10
75.50000000000003
 20
9.200000000000001
 40
0.4000000000000004
100
AcDbArc
 50
90
 51
180
  0
LINE
  5
1A9
100
AcDbEntity
  8
0
  6
ByLayer
 62
  256
370
   -1
100
AcDbLine
 10
75.50000000000003
 20
9.6
 11
76.30000000000003
 21
9.6
  0
LINE
  5
1AA
100
AcDbEntity
  8
0
  6
ByLayer
 62
  256
370
   -1
100
AcDbLine
 10
76.3
 20
6.4
 11
76.3
 21
8.4
  0
LINE
  5
1AB
100
AcDbEntity
  8
0
  6
ByLayer
 62
  256
370
   -1
100
AcDbLine
 10
76.3
 20
8.4
 11
75.5
 21
8.4
  0
ARC
  5
1AC
100
AcDbEntity
  8
0
  6
ByLayer
 62
  256
370
   -1
100
AcDbCircle
 10
75.5
 20
8.800000000000001
 40
0.4
100
AcDbArc
 50
180
 51
270
  0
ARC
  5
1AD
100
AcDbEntity
  8
0
  6
ByLayer
 62
  256
370
   -1
100
AcDbCircle
 10
73.20000133981436
 20
2.599998213584172
 40
0.3999999999999986
100
AcDbArc
 50
90
 51
180
  0
LINE
  5
1AE
100
AcDbEntity
  8
0
  6
ByLayer
 62
  256
370
   -1
100
AcDbLine
 10
73.2
 20
3
 11
74.55
 21
3
  0
LINE
  5
1AF
100
AcDbEntity
  8
0
  6
ByLayer
 62
  256
370
   -1
100
AcDbLine
 10
90.3
 20
0
 11
73.3
 21
0
  0
LINE
  5
1B0
100
AcDbEntity
  8
0
  6
ByLayer
 62
  256
370
   -1
100
AcDbLine
 10
73.30000000000001
 20
-1.110223024625157e-16
 11
72.80000000000001
 21
0.4999999999999999
  0
LINE
  5
1B1
100
AcDbEntity
  8
0
  6
ByLayer
 62
  256
370
   -1
100
AcDbLine
 10
72.80000133981437
 20
2.599998213584172
 11
72.8
 21
2.5
  0
LINE
  5
1B2
100
AcDbEntity
  8
0
  6
ByLayer
 62
  256
370
   -1
100
AcDbLine
 10
-72.8
 20
0.5
 11
72.8
 21
0.5
  0
LINE
  5
1B3
100
AcDbEntity
  8
0
  6
ByLayer
 62
  256
370
   -1
100
AcDbLine
 10
-73.3
 20
0
 11
-72.8
 21
0.5
  0
LINE
  5
1B4
100
AcDbEntity
  8
0
  6
ByLayer
 62
  256
370
   -1
100
AcDbLine
 10
72.8
 20
2.5
 11
-72.8
 21
2.5
  0
ARC
  5
1B5
100
AcDbEntity
  8
0
  6
ByLayer
 62
  256
370
   -1
100
AcDbCircle
 10
-75.55
 20
3.75
 40
1.25
100
AcDbArc
 50
36.8699
 51
323.13
  0
ARC
  5
1B6
100
AcDbEntity
  8
0
  6
ByLayer
 62
  256
370
   -1
100
AcDbCircle
 10
-73.2
 20
2.6
 40
0.4
100
AcDbArc
 50
0
 51
90
  0
LINE
  5
1B7
100
AcDbEntity
  8
0
  6
ByLayer
 62
  256
370
   -1
100
AcDbLine
 10
-74.55000133981436
 20
2.999998213584172
 11
-73.2
 21
3
  0
LINE
  5
1B8
100
AcDbEntity
  8
0
  6
ByLayer
 62
  256
370
   -1
100
AcDbLine
 10
-72.8
 20
2.6
 11
-72.8
 21
2.5
  0
ARC
  5
1B9
100
AcDbEntity
  8
0
  6
ByLayer
 62
  256
370
   -1
100
AcDbCircle
 10
-74.55
 20
5.4
 40
1
100
AcDbArc
 50
0
 51
90
  0
LINE
  5
1BA
100
AcDbEntity
  8
0
  6
ByLayer
 62
  256
370
   -1
100
AcDbLine
 10
-73.55
 20
4.9
 11
-73.55
 21
5.4
  0
ARC
  5
1BB
100
AcDbEntity
  8
0
  6
ByLayer
 62
  256
370
   -1
100
AcDbCircle
 10
-73.94999999999999
 20
4.9
 40
0.403112887414919
100
AcDbArc
 50
277.1250163503344
 51
0
  0
LINE
  5
1BC
100
AcDbEntity
  8
0
  6
ByLayer
 62
  256
370
   -1
100
AcDbLine
 10
-74.55
 20
4.5
 11
-73.89999999999999
 21
4.5
  0
LINE
  5
1BD
100
AcDbEntity
  8
0
  6
ByLayer
 62
  256
370
   -1
100
AcDbLine
 10
-76.3
 20
31.05
 11
-76.3
 21
9.6
  0
LINE
  5
1BE
100
AcDbEntity
  8
0
  6
ByLayer
 62
  256
370
   -1
100
AcDbLine
 10
-76.3
 20
6.4
 11
-76.3
 21
8.4
  0
LINE
  5
1BF
100
AcDbEntity
  8
0
  6
ByLayer
 62
  256
370
   -1
100
AcDbLine
 10
-76.3
 20
8.4
 11
-75.5
 21
8.4
  0
ARC
  5
1C0
100
AcDbEntity
  8
0
  6
ByLayer
 62
  256
370
   -1
100
AcDbCircle
 10
-75.5
 20
8.800000000000001
 40
0.4000000000000004
100
AcDbArc
 50
270
 51
0
  0
LINE
  5
1C1
100
AcDbEntity
  8
0
  6
ByLayer
 62
  256
370
   -1
100
AcDbLine
 10
-75.09999999999999
 20
8.800000000000001
 11
-75.09999999999999
 21
9.200000000000001
  0
ARC
  5
1C2
100
AcDbEntity
  8
0
  6
ByLayer
 62
  256
370
   -1
100
AcDbCircle
 10
-75.5
 20
9.200000000000001
 40
0.4000000000000004
100
AcDbArc
 50
0
 51
90
  0
LINE
  5
1C3
100
AcDbEntity
  8
0
  6
ByLayer
 62
  256
370
   -1
100
AcDbLine
 10
-75.5
 20
9.6
 11
-76.3
 21
9.6
  0
LINE
  5
1C4
100
AcDbEntity
  8
0
  6
ByLayer
 62
  256
370
   -1
100
AcDbLine
 10
76.3
 20
6.4
 11
74.55
 21
6.4
  0
LINE
  5
1C5
100
AcDbEntity
  8
0
  6
ByLayer
 62
  256
370
   -1
100
AcDbLine
 10
-76.3
 20
6.4
 11
-74.55
 21
6.4
  0
DIMENSION
  5
1C6
100
AcDbEntity
  8
Dimensions
  6
ByLayer
 62
  256
370
   -1
100
AcDbDimension
  2
*D13
 10
-65
 20
6.399999999999999
 30
0
 11
-66.875
 21
3.2
 31
0
 70
   32
 71
    5
  3
Standard
 53
0
210
0
220
0
230
1
100
AcDbAlignedDimension
 13
-73.3
 23
0
 33
0
 14
-74.75000000000001
 24
6.4
 34
0
 50
90
100
AcDbRotatedDimension
  0
DIMENSION
  5
1C7
100
AcDbEntity
  8
Dimensions
  6
ByLayer
 62
  256
370
   -1
100
AcDbDimension
  2
*D14
 10
-60
 20
8.399999999999999
 30
0
 11
-61.875
 21
7.399999999999999
 31
0
 70
   32
  1
4-2.0\S+0^ -0.2;
 71
    5
  3
Standard
 53
0
210
0
220
0
230
1
100
AcDbAlignedDimension
 13
-75.75
 23
6.4
 33
0
 14
-75.75
 24
8.4
 34
0
 50
90
100
AcDbRotatedDimension
  0
DIMENSION
  5
1C8
100
AcDbEntity
  8
Dimensions
  6
ByLayer
 62
  256
370
   -1
100
AcDbDimension
  2
*D15
 10
75.55000000000001
 20
50
 30
0
 11
1.148068456708479e-16
 21
51.875
 31
0
 70
   32
  1
151.1 %%P 0.2
 71
    5
  3
Standard
 53
0
210
0
220
0
230
1
100
AcDbAlignedDimension
 13
-75.55
 23
37.25
 33
0
 14
75.55000000000001
 24
37.25
 34
0
100
AcDbRotatedDimension
  0
DIMENSION
  5
1C9
100
AcDbEntity
  8
Dimensions
  6
ByLayer
 62
  256
370
   -1
100
AcDbDimension
  2
*D16
 10
76.29999999999998
 20
60
 30
0
 11
1.148068456708479e-16
 21
61.875
 31
0
 70
   32
  1
152.6 %%P 0.2
 71
    5
  3
Standard
 53
0
210
0
220
0
230
1
100
AcDbAlignedDimension
 13
-76.3
 23
34.25
 33
0
 14
76.29999999999998
 24
34.25
 34
0
100
AcDbRotatedDimension
  0
ARC
  5
1CA
100
AcDbEntity
  8
0
  6
ByLayer
 62
  256
370
   -1
100
AcDbCircle
 10
75.55
 20
37.25
 40
1.25
100
AcDbArc
 50
216.87
 51
143.13
  0
ARC
  5
1CB
100
AcDbEntity
  8
0
  6
ByLayer
 62
  256
370
   -1
100
AcDbCircle
 10
75.55
 20
3.75
 40
1.25
100
AcDbArc
 50
216.87
 51
143.13
  0
DIMENSION
  5
1CC
100
AcDbEntity
  8
Dimensions
  6
ByLayer
 62
  256
370
   -1
100
AcDbDimension
  2
*D17
 10
50
 20
2.5
 30
0
 11
48.125
 21
1.5
 31
0
 70
   32
 71
    5
  3
Standard
 53
0
210
0
220
0
230
1
100
AcDbAlignedDimension
 13
50
 23
0.5
 33
0
 14
50
 24
2.5
 34
0
 50
90
100
AcDbRotatedDimension
  0
DIMENSION
  5
1CD
100
AcDbEntity
  8
Dimensions
  6
ByLayer
 62
  256
370
   -1
100
AcDbDimension
  2
*D18
 10
65
 20
2.500000000000001
 30
0
 11
63.125
 21
1.25
 31
0
 70
   32
 71
    5
  3
Standard
 53
0
210
0
220
0
230
1
100
AcDbAlignedDimension
 13
73.3
 23
0
 33
0
 14
72.8
 24
2.5
 34
0
 50
90
100
AcDbRotatedDimension
  0
DIMENSION
  5
1CE
100
AcDbEntity
  8
Dimensions
  6
ByLayer
 62
  256
370
   -1
100
AcDbDimension
  2
*D19
 10
95
 20
37.25
 30
0
 11
93.125
 21
20.5
 31
0
 70
   32
  1
33.5 %%P 0.1
 71
    5
  3
Standard
 53
0
210
0
220
0
230
1
100
AcDbAlignedDimension
 13
75.55000000000001
 23
3.75
 33
0
 14
75.55
 24
37.25
 34
0
 50
90
100
AcDbRotatedDimension
  0
DIMENSION
  5
1CF
100
AcDbEntity
  8
Dimensions
  6
ByLayer
 62
  256
370
   -1
100
AcDbDimension
  2
*D20
 10
100
 20
-1.187868163207706e-15
 30
0
 11
98.125
 21
1.875
 31
0
 70
   32
 71
    5
  3
Standard
 53
0
210
0
220
0
230
1
100
AcDbAlignedDimension
 13
75.55
 23
3.75
 33
0
 14
90.3
 24
0
 34
0
 50
90
100
AcDbRotatedDimension
  0
DIMENSION
  5
1D0
100
AcDbEntity
  8
Dimensions
  6
ByLayer
 62
  256
370
   -1
100
AcDbDimension
  2
*D21
 10
105
 20
40.99999999999999
 30
0
 11
103.125
 21
20.5
 31
0
 70
   32
 71
    5
  3
Standard
 53
0
210
0
220
0
230
1
100
AcDbAlignedDimension
 13
90.3
 23
0
 33
0
 14
75
 24
41
 34
0
 50
90
100
AcDbRotatedDimension
  0
DIMENSION
  5
1D1
100
AcDbEntity
  8
Dimensions
  6
ByLayer
 62
  256
370
   -1
100
AcDbDimension
  2
*D22
 10
73.3
 20
-10
 30
0
 11
1.148068456708479e-16
 21
-8.125
 31
0
 70
   32
 71
    5
  3
Standard
 53
0
210
0
220
0
230
1
100
AcDbAlignedDimension
 13
-73.3
 23
0
 33
0
 14
73.3
 24
0
 34
0
100
AcDbRotatedDimension
  0
DIMENSION
  5
1D2
100
AcDbEntity
  8
Dimensions
  6
ByLayer
 62
  256
370
   -1
100
AcDbDimension
  2
*D23
 10
75.55
 20
-20
 30
0
 11
1.148068456708479e-16
 21
-18.125
 31
0
 70
   32
  1
151.1 %%P 0.2
 71
    5
  3
Standard
 53
0
210
0
220
0
230
1
100
AcDbAlignedDimension
 13
-75.55
 23
3.75
 33
0
 14
75.55
 24
3.75
 34
0
100
AcDbRotatedDimension
  0
DIMENSION
  5
1D3
100
AcDbEntity
  8
Dimensions
  6
ByLayer
 62
  256
370
   -1
100
AcDbDimension
  2
*D24
 10
76.3
 20
-30
 30
0
 11
1.148068456708479e-16
 21
-28.125
 31
0
 70
   32
  1
152.6 %%P 0.2
 71
    5
  3
Standard
 53
0
210
0
220
0
230
1
100
AcDbAlignedDimension
 13
-76.3
 23
6.4
 33
0
 14
76.3
 24
6.4
 34
0
100
AcDbRotatedDimension
  0
LINE
  5
1D4
100
AcDbEntity
  8
0
  6
ByLayer
 62
  256
370
   -1
100
AcDbLine
 10
-90.3
 20
0
 11
-90.3
 21
2
  0
LINE
  5
1D5
100
AcDbEntity
  8
0
  6
ByLayer
 62
  256
370
   -1
100
AcDbLine
 10
-90.29999999999998
 20
2
 11
-82.29999999999998
 21
2
  0
ARC
  5
1D6
100
AcDbEntity
  8
0
  6
ByLayer
 62
  256
370
   -1
100
AcDbCircle
 10
-82.29999999999998
 20
5.000000000000001
 40
3.000000000000001
100
AcDbArc
 50
270
 51
0
  0
DIMENSION
  5
1D7
100
AcDbEntity
  8
Dimensions
  6
ByLayer
 62
  256
370
   -1
100
AcDbDimension
  2
*D25
 10
-95
 20
2
 30
0
 11
-96.875
 21
1
 31
0
 70
   32
 71
    5
 72
    0
  3
Standard
 53
0
210
0
220
0
230
1
100
AcDbAlignedDimension
 13
-90.3
 23
0
 33
0
 14
-90.3
 24
2
 34
0
 50
90
100
AcDbRotatedDimension
  0
ARC
  5
1D8
100
AcDbEntity
  8
0
  6
ByLayer
 62
  256
370
   -1
100
AcDbCircle
 10
-78.79999999999998
 20
6.8
 40
0.5
100
AcDbArc
 50
270
 51
0
  0
LINE
  5
1D9
100
AcDbEntity
  8
0
  6
ByLayer
 62
  256
370
   -1
100
AcDbLine
 10
-78.29999999999998
 20
6.8
 11
-78.29999999999998
 21
7.3
  0
ARC
  5
1DA
100
AcDbEntity
  8
0
  6
ByLayer
 62
  256
370
   -1
100
AcDbCircle
 10
-78.79999999999998
 20
7.3
 40
0.5
100
AcDbArc
 50
0
 51
90
  0
ARC
  5
1DB
100
AcDbEntity
  8
0
  6
ByLayer
 62
  256
370
   -1
100
AcDbCircle
 10
-78.79999999999998
 20
9.799999999999997
 40
0.5
100
AcDbArc
 50
270
 51
0
  0
LINE
  5
1DC
100
AcDbEntity
  8
0
  6
ByLayer
 62
  256
370
   -1
100
AcDbLine
 10
-78.29999999999998
 20
9.799999999999997
 11
-78.29999999999998
 21
10.3
  0
ARC
  5
1DD
100
AcDbEntity
  8
0
  6
ByLayer
 62
  256
370
   -1
100
AcDbCircle
 10
-78.79999999999998
 20
10.3
 40
0.5
100
AcDbArc
 50
0
 51
90
  0
ARC
  5
1DE
100
AcDbEntity
  8
0
  6
ByLayer
 62
  256
370
   -1
100
AcDbCircle
 10
-78.79999999999998
 20
12.8
 40
0.5
100
AcDbArc
 50
270
 51
0
  0
LINE
  5
1DF
100
AcDbEntity
  8
0
  6
ByLayer
 62
  256
370
   -1
100
AcDbLine
 10
-78.29999999999998
 20
12.8
 11
-78.29999999999998
 21
13.3
  0
ARC
  5
1E0
100
AcDbEntity
  8
0
  6
ByLayer
 62
  256
370
   -1
100
AcDbCircle
 10
-78.79999999999998
 20
13.3
 40
0.5
100
AcDbArc
 50
0
 51
90
  0
ARC
  5
1E1
100
AcDbEntity
  8
0
  6
ByLayer
 62
  256
370
   -1
100
AcDbCircle
 10
-78.79999999999998
 20
15.8
 40
0.5
100
AcDbArc
 50
270
 51
0
  0
LINE
  5
1E2
100
AcDbEntity
  8
0
  6
ByLayer
 62
  256
370
   -1
100
AcDbLine
 10
-78.29999999999998
 20
15.8
 11
-78.29999999999998
 21
16.3
  0
ARC
  5
1E3
100
AcDbEntity
  8
0
  6
ByLayer
 62
  256
370
   -1
100
AcDbCircle
 10
-78.79999999999998
 20
16.3
 40
0.5
100
AcDbArc
 50
0
 51
90
  0
ARC
  5
1E4
100
AcDbEntity
  8
0
  6
ByLayer
 62
  256
370
   -1
100
AcDbCircle
 10
-78.79999999999998
 20
18.8
 40
0.5
100
AcDbArc
 50
270
 51
0
  0
LINE
  5
1E5
100
AcDbEntity
  8
0
  6
ByLayer
 62
  256
370
   -1
100
AcDbLine
 10
-78.29999999999998
 20
18.8
 11
-78.29999999999998
 21
19.3
  0
ARC
  5
1E6
100
AcDbEntity
  8
0
  6
ByLayer
 62
  256
370
   -1
100
AcDbCircle
 10
-78.79999999999998
 20
19.3
 40
0.5
100
AcDbArc
 50
0
 51
90
  0
ARC
  5
1E7
100
AcDbEntity
  8
0
  6
ByLayer
 62
  256
370
   -1
100
AcDbCircle
 10
-78.79999999999998
 20
21.8
 40
0.5
100
AcDbArc
 50
270
 51
0
  0
LINE
  5
1E8
100
AcDbEntity
  8
0
  6
ByLayer
 62
  256
370
   -1
100
AcDbLine
 10
-78.29999999999998
 20
21.8
 11
-78.29999999999998
 21
22.3
  0
ARC
  5
1E9
100
AcDbEntity
  8
0
  6
ByLayer
 62
  256
370
   -1
100
AcDbCircle
 10
-78.79999999999998
 20
22.3
 40
0.5
100
AcDbArc
 50
0
 51
90
  0
ARC
  5
1EA
100
AcDbEntity
  8
0
  6
ByLayer
 62
  256
370
   -1
100
AcDbCircle
 10
-78.79999999999998
 20
24.8
 40
0.5
100
AcDbArc
 50
270
 51
0
  0
LINE
  5
1EB
100
AcDbEntity
  8
0
  6
ByLayer
 62
  256
370
   -1
100
AcDbLine
 10
-78.29999999999998
 20
24.8
 11
-78.29999999999998
 21
25.3
  0
ARC
  5
1EC
100
AcDbEntity
  8
0
  6
ByLayer
 62
  256
370
   -1
100
AcDbCircle
 10
-78.79999999999998
 20
25.3
 40
0.5
100
AcDbArc
 50
0
 51
90
  0
ARC
  5
1ED
100
AcDbEntity
  8
0
  6
ByLayer
 62
  256
370
   -1
100
AcDbCircle
 10
-78.79999999999998
 20
27.80000000000001
 40
0.5
100
AcDbArc
 50
270
 51
0
  0
LINE
  5
1EE
100
AcDbEntity
  8
0
  6
ByLayer
 62
  256
370
   -1
100
AcDbLine
 10
-78.29999999999998
 20
27.80000000000001
 11
-78.29999999999998
 21
28.30000000000001
  0
ARC
  5
1EF
100
AcDbEntity
  8
0
  6
ByLayer
 62
  256
370
   -1
100
AcDbCircle
 10
-78.79999999999998
 20
28.30000000000001
 40
0.5
100
AcDbArc
 50
0
 51
90
  0
ARC
  5
1F0
100
AcDbEntity
  8
0
  6
ByLayer
 62
  256
370
   -1
100
AcDbCircle
 10
-78.79999999999998
 20
30.8
 40
0.5
100
AcDbArc
 50
270
 51
0
  0
LINE
  5
1F1
100
AcDbEntity
  8
0
  6
ByLayer
 62
  256
370
   -1
100
AcDbLine
 10
-78.29999999999998
 20
30.8
 11
-78.29999999999998
 21
31.3
  0
ARC
  5
1F2
100
AcDbEntity
  8
0
  6
ByLayer
 62
  256
370
   -1
100
AcDbCircle
 10
-78.79999999999998
 20
31.3
 40
0.5
100
AcDbArc
 50
0
 51
90
  0
ARC
  5
1F3
100
AcDbEntity
  8
0
  6
ByLayer
 62
  256
370
   -1
100
AcDbCircle
 10
-78.79999999999998
 20
33.8
 40
0.5
100
AcDbArc
 50
270
 51
0
  0
LINE
  5
1F4
100
AcDbEntity
  8
0
  6
ByLayer
 62
  256
370
   -1
100
AcDbLine
 10
-78.29999999999998
 20
33.8
 11
-78.29999999999998
 21
34.3
  0
ARC
  5
1F5
100
AcDbEntity
  8
0
  6
ByLayer
 62
  256
370
   -1
100
AcDbCircle
 10
-78.79999999999998
 20
34.3
 40
0.5
100
AcDbArc
 50
0
 51
90
  0
LINE
  5
1F6
100
AcDbEntity
  8
0
  6
ByLayer
 62
  256
370
   -1
100
AcDbLine
 10
90.3
 20
0
 11
90.3
 21
2
  0
LINE
  5
1F7
100
AcDbEntity
  8
0
  6
ByLayer
 62
  256
370
   -1
100
AcDbLine
 10
90.3
 20
2
 11
82.3
 21
2
  0
LINE
  5
1F8
100
AcDbEntity
  8
0
  6
ByLayer
 62
  256
370
   -1
100
AcDbLine
 10
79.3
 20
5.000000000000001
 11
79.30000000000001
 21
5.8
  0
LINE
  5
1F9
100
AcDbEntity
  8
0
  6
ByLayer
 62
  256
370
   -1
100
AcDbLine
 10
-79.29999999999998
 20
5.000000000000001
 11
-79.3
 21
5.8
  0
ARC
  5
1FA
100
AcDbEntity
  8
0
  6
ByLayer
 62
  256
370
   -1
100
AcDbCircle
 10
78.80000000000001
 20
6.8
 40
0.5
100
AcDbArc
 50
180
 51
270
  0
LINE
  5
1FB
100
AcDbEntity
  8
0
  6
ByLayer
 62
  256
370
   -1
100
AcDbLine
 10
78.30000000000001
 20
6.8
 11
78.30000000000001
 21
7.3
  0
ARC
  5
1FC
100
AcDbEntity
  8
0
  6
ByLayer
 62
  256
370
   -1
100
AcDbCircle
 10
78.80000000000001
 20
7.3
 40
0.5
100
AcDbArc
 50
90
 51
180
  0
ARC
  5
1FD
100
AcDbEntity
  8
0
  6
ByLayer
 62
  256
370
   -1
100
AcDbCircle
 10
78.80000000000001
 20
9.799999999999997
 40
0.5
100
AcDbArc
 50
180
 51
270
  0
LINE
  5
1FE
100
AcDbEntity
  8
0
  6
ByLayer
 62
  256
370
   -1
100
AcDbLine
 10
78.30000000000001
 20
9.799999999999997
 11
78.30000000000001
 21
10.3
  0
ARC
  5
1FF
100
AcDbEntity
  8
0
  6
ByLayer
 62
  256
370
   -1
100
AcDbCircle
 10
78.80000000000001
 20
10.3
 40
0.5
100
AcDbArc
 50
90
 51
180
  0
ARC
  5
200
100
AcDbEntity
  8
0
  6
ByLayer
 62
  256
370
   -1
100
AcDbCircle
 10
78.80000000000001
 20
12.8
 40
0.5
100
AcDbArc
 50
180
 51
270
  0
LINE
  5
201
100
AcDbEntity
  8
0
  6
ByLayer
 62
  256
370
   -1
100
AcDbLine
 10
78.30000000000001
 20
12.8
 11
78.30000000000001
 21
13.3
  0
ARC
  5
202
100
AcDbEntity
  8
0
  6
ByLayer
 62
  256
370
   -1
100
AcDbCircle
 10
78.80000000000001
 20
13.3
 40
0.5
100
AcDbArc
 50
90
 51
180
  0
ARC
  5
203
100
AcDbEntity
  8
0
  6
ByLayer
 62
  256
370
   -1
100
AcDbCircle
 10
78.80000000000001
 20
15.8
 40
0.5
100
AcDbArc
 50
180
 51
270
  0
LINE
  5
204
100
AcDbEntity
  8
0
  6
ByLayer
 62
  256
370
   -1
100
AcDbLine
 10
78.30000000000001
 20
15.8
 11
78.30000000000001
 21
16.3
  0
ARC
  5
205
100
AcDbEntity
  8
0
  6
ByLayer
 62
  256
370
   -1
100
AcDbCircle
 10
78.80000000000001
 20
16.3
 40
0.5
100
AcDbArc
 50
90
 51
180
  0
ARC
  5
206
100
AcDbEntity
  8
0
  6
ByLayer
 62
  256
370
   -1
100
AcDbCircle
 10
78.80000000000001
 20
18.8
 40
0.5
100
AcDbArc
 50
180
 51
270
  0
LINE
  5
207
100
AcDbEntity
  8
0
  6
ByLayer
 62
  256
370
   -1
100
AcDbLine
 10
78.30000000000001
 20
18.8
 11
78.30000000000001
 21
19.3
  0
ARC
  5
208
100
AcDbEntity
  8
0
  6
ByLayer
 62
  256
370
   -1
100
AcDbCircle
 10
78.80000000000001
 20
19.3
 40
0.5
100
AcDbArc
 50
90
 51
180
  0
ARC
  5
209
100
AcDbEntity
  8
0
  6
ByLayer
 62
  256
370
   -1
100
AcDbCircle
 10
78.80000000000001
 20
21.8
 40
0.5
100
AcDbArc
 50
180
 51
270
  0
LINE
  5
20A
100
AcDbEntity
  8
0
  6
ByLayer
 62
  256
370
   -1
100
AcDbLine
 10
78.30000000000001
 20
21.8
 11
78.30000000000001
 21
22.3
  0
ARC
  5
20B
100
AcDbEntity
  8
0
  6
ByLayer
 62
  256
370
   -1
100
AcDbCircle
 10
78.80000000000001
 20
22.3
 40
0.5
100
AcDbArc
 50
90
 51
180
  0
ARC
  5
20C
100
AcDbEntity
  8
0
  6
ByLayer
 62
  256
370
   -1
100
AcDbCircle
 10
78.80000000000001
 20
24.8
 40
0.5
100
AcDbArc
 50
180
 51
270
  0
LINE
  5
20D
100
AcDbEntity
  8
0
  6
ByLayer
 62
  256
370
   -1
100
AcDbLine
 10
78.30000000000001
 20
24.8
 11
78.30000000000001
 21
25.3
  0
ARC
  5
20E
100
AcDbEntity
  8
0
  6
ByLayer
 62
  256
370
   -1
100
AcDbCircle
 10
78.80000000000001
 20
25.3
 40
0.5
100
AcDbArc
 50
90
 51
180
  0
ARC
  5
20F
100
AcDbEntity
  8
0
  6
ByLayer
 62
  256
370
   -1
100
AcDbCircle
 10
78.80000000000001
 20
27.80000000000001
 40
0.5
100
AcDbArc
 50
180
 51
270
  0
LINE
  5
210
100
AcDbEntity
  8
0
  6
ByLayer
 62
  256
370
   -1
100
AcDbLine
 10
78.30000000000001
 20
27.80000000000001
 11
78.30000000000001
 21
28.30000000000001
  0
ARC
  5
211
100
AcDbEntity
  8
0
  6
ByLayer
 62
  256
370
   -1
100
AcDbCircle
 10
78.80000000000001
 20
28.30000000000001
 40
0.5
100
AcDbArc
 50
90
 51
180
  0
ARC
  5
212
100
AcDbEntity
  8
0
  6
ByLayer
 62
  256
370
   -1
100
AcDbCircle
 10
78.80000000000001
 20
30.8
 40
0.5
100
AcDbArc
 50
180
 51
270
  0
LINE
  5
213
100
AcDbEntity
  8
0
  6
ByLayer
 62
  256
370
   -1
100
AcDbLine
 10
78.30000000000001
 20
30.8
 11
78.30000000000001
 21
31.3
  0
ARC
  5
214
100
AcDbEntity
  8
0
  6
ByLayer
 62
  256
370
   -1
100
AcDbCircle
 10
78.80000000000001
 20
31.3
 40
0.5
100
AcDbArc
 50
90
 51
180
  0
ARC
  5
215
100
AcDbEntity
  8
0
  6
ByLayer
 62
  256
370
   -1
100
AcDbCircle
 10
78.80000000000001
 20
33.8
 40
0.5
100
AcDbArc
 50
180
 51
270
  0
LINE
  5
216
100
AcDbEntity
  8
0
  6
ByLayer
 62
  256
370
   -1
100
AcDbLine
 10
78.30000000000001
 20
33.8
 11
78.30000000000001
 21
34.3
  0
ARC
  5
217
100
AcDbEntity
  8
0
  6
ByLayer
 62
  256
370
   -1
100
AcDbCircle
 10
78.80000000000001
 20
34.3
 40
0.5
100
AcDbArc
 50
90
 51
180
  0
DIMENSION
  5
218
100
AcDbEntity
  8
Dimensions
  6
ByLayer
 62
  256
370
   -1
100
AcDbDimension
  2
*D26
 10
82.3
 20
5.000000000000001
 30
0
 11
74.78840711880446
 21
-0.3001506947608483
 31
0
 70
   36
  1
2-R3.0
 71
    5
 72
    0
  3
Standard
 53
0
210
0
220
0
230
1
100
AcDbRadialDimension
 15
80.25304524891996
 25
2.806834195271394
 35
0
 40
0
  0
ARC
  5
219
100
AcDbEntity
  8
0
  6
ByLayer
 62
  256
370
   -1
100
AcDbCircle
 10
82.3
 20
5
 40
3
100
AcDbArc
 50
180
 51
270
  0
DIMENSION
  5
21A
100
AcDbEntity
  8
Dimensions
  6
ByLayer
 62
  256
370
   -1
100
AcDbDimension
  2
*D27
 10
-76.3
 20
25
 30
0
 11
-77.3
 21
26.875
 31
0
 70
   32
 71
    5
  3
Standard
 53
0
210
0
220
0
230
1
100
AcDbAlignedDimension
 13
-78.3
 23
25
 33
0
 14
-76.3
 24
25
 34
0
100
AcDbRotatedDimension
  0
ENDSEC
  0
SECTION
  2
OBJECTS
  0
DICTIONARY
  5
C
330
0
100
AcDbDictionary
281
    1
  3
ACAD_GROUP
350
D
  0
DICTIONARY
  5
D
330
C
100
AcDbDictionary
281
    1
  0
PLOTSETTINGS
  5
21B
100
AcDbPlotSettings
  6
1x1
 40
0
 41
0
 42
0
 43
0
  0
ENDSEC
  0
EOF
