999
dxfrw 0.6.3
  0
SECTION
  2
HEADER
  9
$ACADVER
  1
AC1021
  9
$DWGCODEPAGE
  3
ANSI_1252
  9
$INSBASE
 10
0
 20
0
 30
0
  9
$EXTMIN
 10
-103.125
 20
-71.25
 30
0
  9
$EXTMAX
 10
105.0833341047642
 20
63.125
 30
0
  9
$LIMMIN
 10
0
 20
0
  9
$LIMMAX
 10
420
 20
297
  9
$ORTHOMODE
 70
    0
  9
$REGENMODE
 70
    1
  9
$FILLMODE
 70
    1
  9
$QTEXTMODE
 70
    0
  9
$MIRRTEXT
 70
    0
  9
$LTSCALE
 40
1
  9
$ATTMODE
 70
    0
  9
$TEXTSIZE
 40
2.5
  9
$TRACEWID
 40
15.68
  9
$TEXTSTYLE
  7
STANDARD
  9
$CLAYER
  8
Dimensions_screw_holes
  9
$CELTYPE
  6
BYLAYER
  9
$CECOLOR
 62
  256
  9
$CELTSCALE
 40
1
  9
$DISPSILH
 70
    0
  9
$DIMSCALE
 40
1
  9
$DIMASZ
 40
2.5
  9
$DIMEXO
 40
0.625
  9
$DIMDLI
 40
3.75
  9
$DIMRND
 40
0
  9
$DIMDLE
 40
0
  9
$DIMEXE
 40
1.25
  9
$DIMTP
 40
0
  9
$DIMTM
 40
0
  9
$DIMTXT
 40
2.5
  9
$DIMCEN
 40
2.5
  9
$DIMTSZ
 40
0
  9
$DIMTOL
 70
    0
  9
$DIMLIM
 70
    0
  9
$DIMTIH
 70
    0
  9
$DIMTOH
 70
    0
  9
$DIMSE1
 70
    0
  9
$DIMSE2
 70
    0
  9
$DIMTAD
 70
    1
  9
$DIMZIN
 70
    1
  9
$DIMBLK
  1

  9
$DIMASO
 70
    1
  9
$DIMSHO
 70
    1
  9
$DIMPOST
  1

  9
$DIMAPOST
  1

  9
$DIMALT
 70
    0
  9
$DIMALTD
 70
    3
  9
$DIMALTF
 40
0.03937
  9
$DIMLFAC
 40
1
  9
$DIMTOFL
 70
    1
  9
$DIMTVP
 40
0
  9
$DIMTIX
 70
    0
  9
$DIMSOXD
 70
    0
  9
$DIMSAH
 70
    0
  9
$DIMBLK1
  1

  9
$DIMBLK2
  1

  9
$DIMSTYLE
  2
Standard
  9
$DIMCLRD
 70
    0
  9
$DIMCLRE
 70
    0
  9
$DIMCLRT
 70
    0
  9
$DIMTFAC
 40
1
  9
$DIMGAP
 40
0.625
  9
$DIMJUST
 70
    0
  9
$DIMSD1
 70
    0
  9
$DIMSD2
 70
    0
  9
$DIMTOLJ
 70
    0
  9
$DIMTZIN
 70
    8
  9
$DIMALTZ
 70
    0
  9
$DIMALTTZ
 70
    0
  9
$DIMUPT
 70
    0
  9
$DIMDEC
 70
    2
  9
$DIMTDEC
 70
    2
  9
$DIMALTU
 70
    2
  9
$DIMALTTD
 70
    3
  9
$DIMTXSTY
  7
standard
  9
$DIMAUNIT
 70
    0
  9
$DIMADEC
 70
    2
  9
$DIMALTRND
 40
0
  9
$DIMAZIN
 70
    0
  9
$DIMDSEP
 70
    0
  9
$DIMATFIT
 70
    3
  9
$DIMFRAC
 70
    0
  9
$DIMLDRBLK
  1
STANDARD
  9
$DIMLUNIT
 70
    2
  9
$DIMLWD
 70
   -2
  9
$DIMLWE
 70
   -2
  9
$DIMTMOVE
 70
    0
  9
$DIMFXL
 40
1
  9
$DIMFXLON
 70
    0
  9
$DIMJOGANG
 40
0.7854
  9
$DIMTFILL
 70
    0
  9
$DIMTFILLCLR
 70
    0
  9
$DIMARCSYM
 70
    0
  9
$DIMLTYPE
  6

  9
$DIMLTEX1
  6

  9
$DIMLTEX2
  6

  9
$LUNITS
 70
    2
  9
$LUPREC
 70
    2
  9
$SKETCHINC
 40
1
  9
$FILLETRAD
 40
0
  9
$AUNITS
 70
    0
  9
$AUPREC
 70
    2
  9
$MENU
  1
.
  9
$ELEVATION
 40
0
  9
$PELEVATION
 40
0
  9
$THICKNESS
 40
0
  9
$LIMCHECK
 70
    0
  9
$CHAMFERA
 40
0
  9
$CHAMFERB
 40
0
  9
$CHAMFERC
 40
0
  9
$CHAMFERD
 40
0
  9
$SKPOLY
 70
    0
  9
$USRTIMER
 70
    1
  9
$ANGBASE
 50
0
  9
$ANGDIR
 70
    1
  9
$PDMODE
 70
   34
  9
$PDSIZE
 40
0
  9
$PLINEWID
 40
0
  9
$SPLFRAME
 70
    0
  9
$SPLINETYPE
 70
    2
  9
$SPLINESEGS
 70
    8
  9
$HANDSEED
  5
20000
  9
$SURFTAB1
 70
    6
  9
$SURFTAB2
 70
    6
  9
$SURFTYPE
 70
    6
  9
$SURFU
 70
    6
  9
$SURFV
 70
    6
  9
$UCSBASE
  2

  9
$UCSNAME
  2

  9
$UCSORG
 10
0
 20
0
 30
0
  9
$UCSXDIR
 10
1
 20
0
 30
0
  9
$UCSYDIR
 10
0
 20
1
 30
0
  9
$UCSORTHOREF
  2

  9
$UCSORTHOVIEW
 70
    0
  9
$UCSORGTOP
 10
0
 20
0
 30
0
  9
$UCSORGBOTTOM
 10
0
 20
0
 30
0
  9
$UCSORGLEFT
 10
0
 20
0
 30
0
  9
$UCSORGRIGHT
 10
0
 20
0
 30
0
  9
$UCSORGFRONT
 10
0
 20
0
 30
0
  9
$UCSORGBACK
 10
0
 20
0
 30
0
  9
$PUCSBASE
  2

  9
$PUCSNAME
  2

  9
$PUCSORG
 10
0
 20
0
 30
0
  9
$PUCSXDIR
 10
1
 20
0
 30
0
  9
$PUCSYDIR
 10
0
 20
1
 30
0
  9
$PUCSORTHOREF
  2

  9
$PUCSORTHOVIEW
 70
    0
  9
$PUCSORGTOP
 10
0
 20
0
 30
0
  9
$PUCSORGBOTTOM
 10
0
 20
0
 30
0
  9
$PUCSORGLEFT
 10
0
 20
0
 30
0
  9
$PUCSORGRIGHT
 10
0
 20
0
 30
0
  9
$PUCSORGFRONT
 10
0
 20
0
 30
0
  9
$PUCSORGBACK
 10
0
 20
0
 30
0
  9
$USERI1
 70
    0
  9
$USERI2
 70
    0
  9
$USERI3
 70
    0
  9
$USERI4
 70
    0
  9
$USERI5
 70
    0
  9
$USERR1
 40
0
  9
$USERR2
 40
0
  9
$USERR3
 40
0
  9
$USERR4
 40
0
  9
$USERR5
 40
0
  9
$WORLDVIEW
 70
    1
  9
$SHADEDGE
 70
    3
  9
$SHADEDIF
 70
   70
  9
$TILEMODE
 70
    1
  9
$MAXACTVP
 70
   64
  9
$PINSBASE
 10
176.4260458916128
 20
114.5302325581395
 30
0
  9
$PLIMCHECK
 70
    0
  9
$PEXTMIN
 10
0
 20
0
 30
0
  9
$PEXTMAX
 10
0
 20
0
 30
0
  9
$GRIDMODE
 70
    1
  9
$SNAPSTYLE
 70
    0
  9
$GRIDUNIT
 10
0.01
 20
0.01
  9
$PLIMMIN
 10
0
 20
0
  9
$PLIMMAX
 10
356
 20
216
  9
$UNITMODE
 70
    0
  9
$VISRETAIN
 70
    1
  9
$PLINEGEN
 70
    0
  9
$PSLTSCALE
 70
    1
  9
$TREEDEPTH
 70
 3020
  9
$CMLSTYLE
  2
Standard
  9
$CMLJUST
 70
    0
  9
$CMLSCALE
 40
20
  9
$PROXYGRAPHICS
 70
    1
  9
$MEASUREMENT
 70
    1
  9
$CELWEIGHT
370
   -1
  9
$ENDCAPS
280
    0
  9
$JOINSTYLE
280
    0
  9
$LWDISPLAY
290
    0
  9
$INSUNITS
 70
    4
  9
$HYPERLINKBASE
  1

  9
$STYLESHEET
  1

  9
$XEDIT
290
    1
  9
$CEPSNTYPE
380
    0
  9
$PSTYLEMODE
290
    1
  9
$EXTNAMES
290
    1
  9
$PSVPSCALE
 40
1.607441860465116
  9
$OLESTARTUP
290
    0
  9
$SORTENTS
280
  127
  9
$INDEXCTL
280
    0
  9
$HIDETEXT
280
    1
  9
$XCLIPFRAME
290
    0
  9
$HALOGAP
280
    0
  9
$OBSCOLOR
 70
  257
  9
$OBSLTYPE
280
    0
  9
$INTERSECTIONDISPLAY
280
    0
  9
$INTERSECTIONCOLOR
 70
  257
  9
$DIMASSOC
280
    1
  9
$PROJECTNAME
  1
CORS_Front_Panel
  9
$CAMERADISPLAY
290
    0
  9
$LENSLENGTH
 40
50
  9
$CAMERAHEIGHT
 40
0
  9
$STEPSPERSEC
 40
2
  9
$STEPSIZE
 40
50
  9
$3DDWFPREC
 40
2
  9
$PSOLWIDTH
 40
5
  9
$PSOLHEIGHT
 40
80
  9
$LOFTANG1
 40
1.570796326794897
  9
$LOFTANG2
 40
1.570796326794897
  9
$LOFTMAG1
 40
0
  9
$LOFTMAG2
 40
0
  9
$LOFTPARAM
 70
    7
  9
$LOFTNORMALS
280
    1
  9
$LATITUDE
 40
1
  9
$LONGITUDE
 40
1
  9
$NORTHDIRECTION
 40
0
  9
$TIMEZONE
 70
-8000
  9
$LIGHTGLYPHDISPLAY
280
    1
  9
$TILEMODELIGHTSYNCH
280
    1
  9
$SOLIDHIST
280
    1
  9
$SHOWHIST
280
    1
  9
$DWFFRAME
280
    2
  9
$DGNFRAME
280
    0
  9
$REALWORLDSCALE
290
    1
  9
$INTERFERECOLOR
 62
    1
  9
$CSHADOW
280
    0
  9
$SHADOWPLANELOCATION
 40
0
  0
ENDSEC
  0
SECTION
  2
CLASSES
  0
ENDSEC
  0
SECTION
  2
TABLES
  0
TABLE
  2
VPORT
  5
8
330
0
100
AcDbSymbolTable
 70
    1
  0
VPORT
  5
31
330
2
100
AcDbSymbolTableRecord
100
AcDbViewportTableRecord
  2
*ACTIVE
 70
    0
 10
0
 20
0
 11
1
 21
1
 12
64.06436233611441
 22
32.43258343265793
 13
0
 23
0
 14
10
 24
10
 15
0.01
 25
0.01
 16
0
 26
0
 36
1
 17
0
 27
0
 37
0
 40
137.5782181168057
 41
1.846332945285215
 42
50
 43
0
 44
0
 50
0
 51
0
 71
    0
 72
  100
 73
    1
 74
    3
 75
    0
 76
    1
 77
    0
 78
    0
281
    0
 65
    1
110
0
120
0
130
0
111
1
121
0
131
0
112
0
122
1
132
0
 79
    0
146
0
348
10020
 60
    3
 61
    5
292
1
282
    1
141
0
142
0
 63
  250
421
3358443
  0
ENDTAB
  0
TABLE
  2
LTYPE
  5
5
330
0
100
AcDbSymbolTable
 70
    4
  0
LTYPE
  5
14
330
5
100
AcDbSymbolTableRecord
100
AcDbLinetypeTableRecord
  2
ByBlock
 70
    0
  3

 72
   65
 73
    0
 40
0
  0
LTYPE
  5
15
330
5
100
AcDbSymbolTableRecord
100
AcDbLinetypeTableRecord
  2
ByLayer
 70
    0
  3

 72
   65
 73
    0
 40
0
  0
LTYPE
  5
16
330
5
100
AcDbSymbolTableRecord
100
AcDbLinetypeTableRecord
  2
Continuous
 70
    0
  3
Solid line
 72
   65
 73
    0
 40
0
  0
LTYPE
  5
32
330
5
100
AcDbSymbolTableRecord
100
AcDbLinetypeTableRecord
  2
DOT
 70
    0
  3
Dot . . . . . . . . . . . . . . . . . . . . . .
 72
   65
 73
    2
 40
6.35
 49
0
 74
    0
 49
-6.35
 74
    0
  0
LTYPE
  5
33
330
5
100
AcDbSymbolTableRecord
100
AcDbLinetypeTableRecord
  2
DOTTINY
 70
    0
  3
Dot (.15x) .....................................
 72
   65
 73
    2
 40
0.9525
 49
0
 74
    0
 49
-0.9525
 74
    0
  0
LTYPE
  5
34
330
5
100
AcDbSymbolTableRecord
100
AcDbLinetypeTableRecord
  2
DOT2
 70
    0
  3
Dot (.5x) .....................................
 72
   65
 73
    2
 40
3.175
 49
0
 74
    0
 49
-3.175
 74
    0
  0
LTYPE
  5
35
330
5
100
AcDbSymbolTableRecord
100
AcDbLinetypeTableRecord
  2
DOTX2
 70
    0
  3
Dot (2x) .  .  .  .  .  .  .  .  .  .  .  .  .
 72
   65
 73
    2
 40
12.7
 49
0
 74
    0
 49
-12.7
 74
    0
  0
LTYPE
  5
36
330
5
100
AcDbSymbolTableRecord
100
AcDbLinetypeTableRecord
  2
DASHED
 70
    0
  3
Dashed _ _ _ _ _ _ _ _ _ _ _ _ _ _ _ _ _
 72
   65
 73
    2
 40
19.05
 49
12.7
 74
    0
 49
-6.35
 74
    0
  0
LTYPE
  5
37
330
5
100
AcDbSymbolTableRecord
100
AcDbLinetypeTableRecord
  2
DASHEDTINY
 70
    0
  3
Dashed (.15x) _ _ _ _ _ _ _ _ _ _ _ _ _ _ _ _ _
 72
   65
 73
    2
 40
2.8575
 49
1.905
 74
    0
 49
-0.9525
 74
    0
  0
LTYPE
  5
38
330
5
100
AcDbSymbolTableRecord
100
AcDbLinetypeTableRecord
  2
DASHED2
 70
    0
  3
Dashed (.5x) _ _ _ _ _ _ _ _ _ _ _ _ _ _ _ _ _
 72
   65
 73
    2
 40
9.524999999999999
 49
6.35
 74
    0
 49
-3.175
 74
    0
  0
LTYPE
  5
39
330
5
100
AcDbSymbolTableRecord
100
AcDbLinetypeTableRecord
  2
DASHEDX2
 70
    0
  3
Dashed (2x) ____  ____  ____  ____  ____  ___
 72
   65
 73
    2
 40
38.09999999999999
 49
25.4
 74
    0
 49
-12.7
 74
    0
  0
LTYPE
  5
3A
330
5
100
AcDbSymbolTableRecord
100
AcDbLinetypeTableRecord
  2
DASHDOT
 70
    0
  3
Dash dot __ . __ . __ . __ . __ . __ . __ . __
 72
   65
 73
    4
 40
25.4
 49
12.7
 74
    0
 49
-6.35
 74
    0
 49
0
 74
    0
 49
-6.35
 74
    0
  0
LTYPE
  5
3B
330
5
100
AcDbSymbolTableRecord
100
AcDbLinetypeTableRecord
  2
DASHDOTTINY
 70
    0
  3
Dash dot (.15x) _._._._._._._._._._._._._._._.
 72
   65
 73
    4
 40
3.81
 49
1.905
 74
    0
 49
-0.9525
 74
    0
 49
0
 74
    0
 49
-0.9525
 74
    0
  0
LTYPE
  5
3C
330
5
100
AcDbSymbolTableRecord
100
AcDbLinetypeTableRecord
  2
DASHDOT2
 70
    0
  3
Dash dot (.5x) _._._._._._._._._._._._._._._.
 72
   65
 73
    4
 40
12.7
 49
6.35
 74
    0
 49
-3.175
 74
    0
 49
0
 74
    0
 49
-3.175
 74
    0
  0
LTYPE
  5
3D
330
5
100
AcDbSymbolTableRecord
100
AcDbLinetypeTableRecord
  2
DASHDOTX2
 70
    0
  3
Dash dot (2x) ____  .  ____  .  ____  .  ___
 72
   65
 73
    4
 40
50.8
 49
25.4
 74
    0
 49
-12.7
 74
    0
 49
0
 74
    0
 49
-12.7
 74
    0
  0
LTYPE
  5
3E
330
5
100
AcDbSymbolTableRecord
100
AcDbLinetypeTableRecord
  2
DIVIDE
 70
    0
  3
Divide ____ . . ____ . . ____ . . ____ . . ____
 72
   65
 73
    6
 40
31.75
 49
12.7
 74
    0
 49
-6.35
 74
    0
 49
0
 74
    0
 49
-6.35
 74
    0
 49
0
 74
    0
 49
-6.35
 74
    0
  0
LTYPE
  5
3F
330
5
100
AcDbSymbolTableRecord
100
AcDbLinetypeTableRecord
  2
DIVIDETINY
 70
    0
  3
Divide (.15x) __..__..__..__..__..__..__..__.._
 72
   65
 73
    6
 40
4.7625
 49
1.905
 74
    0
 49
-0.9525
 74
    0
 49
0
 74
    0
 49
-0.9525
 74
    0
 49
0
 74
    0
 49
-0.9525
 74
    0
  0
LTYPE
  5
40
330
5
100
AcDbSymbolTableRecord
100
AcDbLinetypeTableRecord
  2
DIVIDE2
 70
    0
  3
Divide (.5x) __..__..__..__..__..__..__..__.._
 72
   65
 73
    6
 40
15.875
 49
6.35
 74
    0
 49
-3.175
 74
    0
 49
0
 74
    0
 49
-3.175
 74
    0
 49
0
 74
    0
 49
-3.175
 74
    0
  0
LTYPE
  5
41
330
5
100
AcDbSymbolTableRecord
100
AcDbLinetypeTableRecord
  2
DIVIDEX2
 70
    0
  3
Divide (2x) ________  .  .  ________  .  .  _
 72
   65
 73
    6
 40
63.5
 49
25.4
 74
    0
 49
-12.7
 74
    0
 49
0
 74
    0
 49
-12.7
 74
    0
 49
0
 74
    0
 49
-12.7
 74
    0
  0
LTYPE
  5
42
330
5
100
AcDbSymbolTableRecord
100
AcDbLinetypeTableRecord
  2
BORDER
 70
    0
  3
Border __ __ . __ __ . __ __ . __ __ . __ __ .
 72
   65
 73
    6
 40
44.45
 49
12.7
 74
    0
 49
-6.35
 74
    0
 49
12.7
 74
    0
 49
-6.35
 74
    0
 49
0
 74
    0
 49
-6.35
 74
    0
  0
LTYPE
  5
43
330
5
100
AcDbSymbolTableRecord
100
AcDbLinetypeTableRecord
  2
BORDERTINY
 70
    0
  3
Border (.15x) __.__.__.__.__.__.__.__.__.__.__.
 72
   65
 73
    6
 40
6.6675
 49
1.905
 74
    0
 49
-0.9525
 74
    0
 49
1.905
 74
    0
 49
-0.9525
 74
    0
 49
0
 74
    0
 49
-0.9525
 74
    0
  0
LTYPE
  5
44
330
5
100
AcDbSymbolTableRecord
100
AcDbLinetypeTableRecord
  2
BORDER2
 70
    0
  3
Border (.5x) __.__.__.__.__.__.__.__.__.__.__.
 72
   65
 73
    6
 40
22.225
 49
6.35
 74
    0
 49
-3.175
 74
    0
 49
6.35
 74
    0
 49
-3.175
 74
    0
 49
0
 74
    0
 49
-3.175
 74
    0
  0
LTYPE
  5
45
330
5
100
AcDbSymbolTableRecord
100
AcDbLinetypeTableRecord
  2
BORDERX2
 70
    0
  3
Border (2x) ____  ____  .  ____  ____  .  ___
 72
   65
 73
    6
 40
88.89999999999999
 49
25.4
 74
    0
 49
-12.7
 74
    0
 49
25.4
 74
    0
 49
-12.7
 74
    0
 49
0
 74
    0
 49
-12.7
 74
    0
  0
LTYPE
  5
46
330
5
100
AcDbSymbolTableRecord
100
AcDbLinetypeTableRecord
  2
CENTER
 70
    0
  3
Center ____ _ ____ _ ____ _ ____ _ ____ _ ____
 72
   65
 73
    4
 40
50.8
 49
31.75
 74
    0
 49
-6.35
 74
    0
 49
6.35
 74
    0
 49
-6.35
 74
    0
  0
LTYPE
  5
47
330
5
100
AcDbSymbolTableRecord
100
AcDbLinetypeTableRecord
  2
CENTERTINY
 70
    0
  3
Center (.15x) ___ _ ___ _ ___ _ ___ _ ___ _ ___
 72
   65
 73
    4
 40
7.62
 49
4.7625
 74
    0
 49
-0.9525
 74
    0
 49
0.9525
 74
    0
 49
-0.9525
 74
    0
  0
LTYPE
  5
48
330
5
100
AcDbSymbolTableRecord
100
AcDbLinetypeTableRecord
  2
CENTER2
 70
    0
  3
Center (.5x) ___ _ ___ _ ___ _ ___ _ ___ _ ___
 72
   65
 73
    4
 40
28.575
 49
19.05
 74
    0
 49
-3.175
 74
    0
 49
3.175
 74
    0
 49
-3.175
 74
    0
  0
LTYPE
  5
49
330
5
100
AcDbSymbolTableRecord
100
AcDbLinetypeTableRecord
  2
CENTERX2
 70
    0
  3
Center (2x) ________  __  ________  __  _____
 72
   65
 73
    4
 40
101.6
 49
63.5
 74
    0
 49
-12.7
 74
    0
 49
12.7
 74
    0
 49
-12.7
 74
    0
  0
ENDTAB
  0
TABLE
  2
LAYER
  5
2
330
0
100
AcDbSymbolTable
 70
    1
  0
LAYER
  5
10
330
2
100
AcDbSymbolTableRecord
100
AcDbLayerTableRecord
  2
0
 70
    0
 62
    7
  6
CONTINUOUS
370
    0
390
F
  0
LAYER
  5
4A
330
2
100
AcDbSymbolTableRecord
100
AcDbLayerTableRecord
  2
Dimensions_display
 70
    0
 62
    5
  6
CONTINUOUS
370
    0
390
F
  0
LAYER
  5
4B
330
2
100
AcDbSymbolTableRecord
100
AcDbLayerTableRecord
  2
Dimensions_holes
 70
    0
 62
    5
  6
CONTINUOUS
370
    0
390
F
  0
LAYER
  5
4C
330
2
100
AcDbSymbolTableRecord
100
AcDbLayerTableRecord
  2
Dimensions_outline
 70
    0
 62
    5
  6
CONTINUOUS
370
    0
390
F
  0
LAYER
  5
4D
330
2
100
AcDbSymbolTableRecord
100
AcDbLayerTableRecord
  2
Dimensions_screw_holes
 70
    0
 62
    5
  6
CONTINUOUS
370
    0
390
F
  0
LAYER
  5
4E
330
2
100
AcDbSymbolTableRecord
100
AcDbLayerTableRecord
  2
Dimensions_slots
 70
    0
 62
    5
  6
CONTINUOUS
370
    0
390
F
  0
ENDTAB
  0
TABLE
  2
STYLE
  5
3
330
0
100
AcDbSymbolTable
 70
    3
  0
STYLE
  5
4F
330
2
100
AcDbSymbolTableRecord
100
AcDbTextStyleTableRecord
  2
Standard
 70
    0
 40
0
 41
1
 50
0
 71
    0
 42
1
  3
txt
  4

  0
ENDTAB
  0
TABLE
  2
VIEW
  5
6
330
0
100
AcDbSymbolTable
 70
    0
  0
ENDTAB
  0
TABLE
  2
UCS
  5
7
330
0
100
AcDbSymbolTable
 70
    0
  0
ENDTAB
  0
TABLE
  2
APPID
  5
9
330
0
100
AcDbSymbolTable
 70
    1
  0
APPID
  5
12
330
9
100
AcDbSymbolTableRecord
100
AcDbRegAppTableRecord
  2
ACAD
 70
    0
  0
APPID
  5
50
330
9
100
AcDbSymbolTableRecord
100
AcDbRegAppTableRecord
  2
LibreCad
 70
    0
  0
ENDTAB
  0
TABLE
  2
DIMSTYLE
  5
A
330
0
100
AcDbSymbolTable
 70
    1
100
AcDbDimStyleTable
 71
    1
  0
DIMSTYLE
105
51
330
A
100
AcDbSymbolTableRecord
100
AcDbDimStyleTableRecord
  2
Standard
 70
    0
 40
1
 41
2.5
 42
0.625
 43
0.38
 44
1.25
 45
0
 46
0
 47
0
 48
0
 49
1
140
2.5
141
0.09
142
0
143
25.4
144
1
145
0
146
1
147
0.625
148
0
 71
    0
 72
    0
 73
    0
 74
    1
 75
    0
 76
    0
 77
    0
 78
    1
 79
    0
170
    0
171
    2
172
    0
173
    0
174
    0
175
    0
176
    0
177
    0
178
    0
179
    2
271
    2
272
    4
273
    2
274
    2
275
    0
276
    0
277
    2
278
    0
279
    0
280
    0
281
    0
282
    0
283
    1
284
    0
285
    0
286
    0
288
    0
289
    3
340
standard
341

371
   -2
372
   -2
  0
ENDTAB
  0
TABLE
  2
BLOCK_RECORD
  5
1
330
0
100
AcDbSymbolTable
 70
    2
  0
BLOCK_RECORD
  5
1F
330
1
100
AcDbSymbolTableRecord
100
AcDbBlockTableRecord
  2
*Model_Space
 70
    0
280
    1
281
    0
  0
BLOCK_RECORD
  5
1E
330
1
100
AcDbSymbolTableRecord
100
AcDbBlockTableRecord
  2
*Paper_Space
 70
    0
280
    1
281
    0
  0
BLOCK_RECORD
  5
52
330
1
100
AcDbSymbolTableRecord
100
AcDbBlockTableRecord
  2
*D13
 70
    0
280
    1
281
    0
  0
BLOCK_RECORD
  5
55
330
1
100
AcDbSymbolTableRecord
100
AcDbBlockTableRecord
  2
*D11
 70
    0
280
    1
281
    0
  0
BLOCK_RECORD
  5
58
330
1
100
AcDbSymbolTableRecord
100
AcDbBlockTableRecord
  2
*D26
 70
    0
280
    1
281
    0
  0
BLOCK_RECORD
  5
5B
330
1
100
AcDbSymbolTableRecord
100
AcDbBlockTableRecord
  2
*D9
 70
    0
280
    1
281
    0
  0
BLOCK_RECORD
  5
5E
330
1
100
AcDbSymbolTableRecord
100
AcDbBlockTableRecord
  2
*D38
 70
    0
280
    1
281
    0
  0
BLOCK_RECORD
  5
61
330
1
100
AcDbSymbolTableRecord
100
AcDbBlockTableRecord
  2
*D7
 70
    0
280
    1
281
    0
  0
BLOCK_RECORD
  5
64
330
1
100
AcDbSymbolTableRecord
100
AcDbBlockTableRecord
  2
*D19
 70
    0
280
    1
281
    0
  0
BLOCK_RECORD
  5
67
330
1
100
AcDbSymbolTableRecord
100
AcDbBlockTableRecord
  2
*D36
 70
    0
280
    1
281
    0
  0
BLOCK_RECORD
  5
6A
330
1
100
AcDbSymbolTableRecord
100
AcDbBlockTableRecord
  2
*D20
 70
    0
280
    1
281
    0
  0
BLOCK_RECORD
  5
6D
330
1
100
AcDbSymbolTableRecord
100
AcDbBlockTableRecord
  2
*D21
 70
    0
280
    1
281
    0
  0
BLOCK_RECORD
  5
70
330
1
100
AcDbSymbolTableRecord
100
AcDbBlockTableRecord
  2
*D29
 70
    0
280
    1
281
    0
  0
BLOCK_RECORD
  5
73
330
1
100
AcDbSymbolTableRecord
100
AcDbBlockTableRecord
  2
*D22
 70
    0
280
    1
281
    0
  0
BLOCK_RECORD
  5
76
330
1
100
AcDbSymbolTableRecord
100
AcDbBlockTableRecord
  2
*D34
 70
    0
280
    1
281
    0
  0
BLOCK_RECORD
  5
79
330
1
100
AcDbSymbolTableRecord
100
AcDbBlockTableRecord
  2
*D12
 70
    0
280
    1
281
    0
  0
BLOCK_RECORD
  5
7C
330
1
100
AcDbSymbolTableRecord
100
AcDbBlockTableRecord
  2
*D28
 70
    0
280
    1
281
    0
  0
BLOCK_RECORD
  5
7F
330
1
100
AcDbSymbolTableRecord
100
AcDbBlockTableRecord
  2
*D37
 70
    0
280
    1
281
    0
  0
BLOCK_RECORD
  5
82
330
1
100
AcDbSymbolTableRecord
100
AcDbBlockTableRecord
  2
*D25
 70
    0
280
    1
281
    0
  0
BLOCK_RECORD
  5
85
330
1
100
AcDbSymbolTableRecord
100
AcDbBlockTableRecord
  2
*D3
 70
    0
280
    1
281
    0
  0
BLOCK_RECORD
  5
88
330
1
100
AcDbSymbolTableRecord
100
AcDbBlockTableRecord
  2
*D27
 70
    0
280
    1
281
    0
  0
BLOCK_RECORD
  5
8B
330
1
100
AcDbSymbolTableRecord
100
AcDbBlockTableRecord
  2
*D40
 70
    0
280
    1
281
    0
  0
BLOCK_RECORD
  5
8E
330
1
100
AcDbSymbolTableRecord
100
AcDbBlockTableRecord
  2
*D32
 70
    0
280
    1
281
    0
  0
BLOCK_RECORD
  5
91
330
1
100
AcDbSymbolTableRecord
100
AcDbBlockTableRecord
  2
*D10
 70
    0
280
    1
281
    0
  0
BLOCK_RECORD
  5
94
330
1
100
AcDbSymbolTableRecord
100
AcDbBlockTableRecord
  2
*D17
 70
    0
280
    1
281
    0
  0
BLOCK_RECORD
  5
97
330
1
100
AcDbSymbolTableRecord
100
AcDbBlockTableRecord
  2
*D24
 70
    0
280
    1
281
    0
  0
BLOCK_RECORD
  5
9A
330
1
100
AcDbSymbolTableRecord
100
AcDbBlockTableRecord
  2
*D6
 70
    0
280
    1
281
    0
  0
BLOCK_RECORD
  5
9D
330
1
100
AcDbSymbolTableRecord
100
AcDbBlockTableRecord
  2
*D33
 70
    0
280
    1
281
    0
  0
BLOCK_RECORD
  5
A0
330
1
100
AcDbSymbolTableRecord
100
AcDbBlockTableRecord
  2
*D15
 70
    0
280
    1
281
    0
  0
BLOCK_RECORD
  5
A3
330
1
100
AcDbSymbolTableRecord
100
AcDbBlockTableRecord
  2
*D2
 70
    0
280
    1
281
    0
  0
BLOCK_RECORD
  5
A6
330
1
100
AcDbSymbolTableRecord
100
AcDbBlockTableRecord
  2
*D35
 70
    0
280
    1
281
    0
  0
BLOCK_RECORD
  5
A9
330
1
100
AcDbSymbolTableRecord
100
AcDbBlockTableRecord
  2
*D5
 70
    0
280
    1
281
    0
  0
BLOCK_RECORD
  5
AC
330
1
100
AcDbSymbolTableRecord
100
AcDbBlockTableRecord
  2
*D14
 70
    0
280
    1
281
    0
  0
BLOCK_RECORD
  5
AF
330
1
100
AcDbSymbolTableRecord
100
AcDbBlockTableRecord
  2
*D18
 70
    0
280
    1
281
    0
  0
BLOCK_RECORD
  5
B2
330
1
100
AcDbSymbolTableRecord
100
AcDbBlockTableRecord
  2
*D30
 70
    0
280
    1
281
    0
  0
BLOCK_RECORD
  5
B5
330
1
100
AcDbSymbolTableRecord
100
AcDbBlockTableRecord
  2
*D23
 70
    0
280
    1
281
    0
  0
BLOCK_RECORD
  5
B8
330
1
100
AcDbSymbolTableRecord
100
AcDbBlockTableRecord
  2
*D8
 70
    0
280
    1
281
    0
  0
BLOCK_RECORD
  5
BB
330
1
100
AcDbSymbolTableRecord
100
AcDbBlockTableRecord
  2
*D4
 70
    0
280
    1
281
    0
  0
BLOCK_RECORD
  5
BE
330
1
100
AcDbSymbolTableRecord
100
AcDbBlockTableRecord
  2
*D39
 70
    0
280
    1
281
    0
  0
BLOCK_RECORD
  5
C1
330
1
100
AcDbSymbolTableRecord
100
AcDbBlockTableRecord
  2
*D31
 70
    0
280
    1
281
    0
  0
BLOCK_RECORD
  5
C4
330
1
100
AcDbSymbolTableRecord
100
AcDbBlockTableRecord
  2
*D1
 70
    0
280
    1
281
    0
  0
BLOCK_RECORD
  5
C7
330
1
100
AcDbSymbolTableRecord
100
AcDbBlockTableRecord
  2
*D16
 70
    0
280
    1
281
    0
  0
ENDTAB
  0
ENDSEC
  0
SECTION
  2
BLOCKS
  0
BLOCK
  5
20
330
1F
100
AcDbEntity
  8
0
100
AcDbBlockBegin
  2
*Model_Space
 70
    0
 10
0
 20
0
 30
0
  3
*Model_Space
  1

  0
ENDBLK
  5
21
330
1F
100
AcDbEntity
  8
0
100
AcDbBlockEnd
  0
BLOCK
  5
1C
330
1B
100
AcDbEntity
  8
0
100
AcDbBlockBegin
  2
*Paper_Space
 70
    0
 10
0
 20
0
 30
0
  3
*Paper_Space
  1

  0
ENDBLK
  5
1D
330
1F
100
AcDbEntity
  8
0
100
AcDbBlockEnd
  0
BLOCK
  5
53
330
52
100
AcDbEntity
  8
0
100
AcDbBlockBegin
  2
*D13
 70
    1
 10
0
 20
0
  3
*D13
  1

  0
SOLID
  5
CA
100
AcDbEntity
  8
Dimensions_slots
  6
ByBlock
 62
    0
370
   -2
100
AcDbTrace
 10
-30.58103526837755
 20
10.24329414624717
 30
0
 11
-29.21804538861648
 21
12.38000926623063
 31
0
 12
-28.59920149002637
 22
11.82304975749953
 32
0
 13
-28.59920149002637
 23
11.82304975749953
 33
0
  0
LINE
  5
CB
100
AcDbEntity
  8
Dimensions_slots
  6
ByBlock
 62
    0
370
   -2
100
AcDbLine
 10
-31.25
 20
9.5
 11
-20.7323878306026
 21
21.1862357437749
  0
MTEXT
  5
CC
100
AcDbEntity
  8
Dimensions_slots
  6
CONTINUOUS
 62
    0
370
   -2
100
AcDbMText
 10
-27.05038807370351
 20
16.96907381680312
 30
0
 40
2.5
 41
9.722222222222221
 71
    5
 72
    1
  1
4-R1.0
  7
standard
210
0
220
0
230
1
 50
48.01278750418338
 73
    2
 44
1
  0
ENDBLK
  5
54
330
52
100
AcDbEntity
  8
0
100
AcDbBlockEnd
  0
BLOCK
  5
56
330
55
100
AcDbEntity
  8
0
100
AcDbBlockBegin
  2
*D11
 70
    1
 10
0
 20
0
  3
*D11
  1

  0
LINE
  5
CD
100
AcDbEntity
  8
Dimensions_slots
  6
ByBlock
 62
    0
370
   -2
100
AcDbLine
 10
-30.25
 20
-40
 11
0
 21
-40
  0
MTEXT
  5
CE
100
AcDbEntity
  8
Dimensions_slots
  6
CONTINUOUS
 62
    0
370
   -2
100
AcDbMText
 10
-15.125
 20
-38.125
 30
0
 40
2.5
 41
7.777777777778088
 71
    5
 72
    1
  1
30.25
  7
standard
210
0
220
0
230
1
 50
0
 73
    2
 44
1
  0
SOLID
  5
CF
100
AcDbEntity
  8
Dimensions_slots
  6
ByBlock
 62
    0
370
   -2
100
AcDbTrace
 10
-30.25
 20
-40
 30
0
 11
-27.75
 21
-39.58371534222716
 31
0
 12
-27.75
 22
-40.41628465777284
 32
0
 13
-27.75
 23
-40.41628465777284
 33
0
  0
SOLID
  5
D0
100
AcDbEntity
  8
Dimensions_slots
  6
ByBlock
 62
    0
370
   -2
100
AcDbTrace
 10
0
 20
-40
 30
0
 11
-2.5
 21
-40.41628465777284
 31
0
 12
-2.5
 22
-39.58371534222716
 32
0
 13
-2.5
 23
-39.58371534222716
 33
0
  0
LINE
  5
D1
100
AcDbEntity
  8
Dimensions_slots
  6
ByBlock
 62
    0
370
   -2
100
AcDbLine
 10
-30.25
 20
7.875
 11
-30.25
 21
-41.25
  0
LINE
  5
D2
100
AcDbEntity
  8
Dimensions_slots
  6
ByBlock
 62
    0
370
   -2
100
AcDbLine
 10
-1.148068456708479e-16
 20
-0.625
 11
-2.296136913416957e-16
 21
-41.25
  0
ENDBLK
  5
57
330
55
100
AcDbEntity
  8
0
100
AcDbBlockEnd
  0
BLOCK
  5
59
330
58
100
AcDbEntity
  8
0
100
AcDbBlockBegin
  2
*D26
 70
    1
 10
0
 20
0
  3
*D26
  1

  0
LINE
  5
D3
100
AcDbEntity
  8
Dimensions_display
  6
ByBlock
 62
    0
370
   -2
100
AcDbLine
 10
-6.999999999999999
 20
-20
 11
0
 21
-20
  0
MTEXT
  5
D4
100
AcDbEntity
  8
Dimensions_display
  6
CONTINUOUS
 62
    0
370
   -2
100
AcDbMText
 10
-3.5
 20
-18.125
 30
0
 40
2.5
 41
5.833333333333334
 71
    5
 72
    1
  1
7.00
  7
standard
210
0
220
0
230
1
 50
0
 73
    2
 44
1
  0
SOLID
  5
D5
100
AcDbEntity
  8
Dimensions_display
  6
ByBlock
 62
    0
370
   -2
100
AcDbTrace
 10
-6.999999999999999
 20
-20
 30
0
 11
-4.499999999999999
 21
-19.58371534222716
 31
0
 12
-4.499999999999999
 22
-20.41628465777284
 32
0
 13
-4.499999999999999
 23
-20.41628465777284
 33
0
  0
SOLID
  5
D6
100
AcDbEntity
  8
Dimensions_display
  6
ByBlock
 62
    0
370
   -2
100
AcDbTrace
 10
0
 20
-20
 30
0
 11
-2.5
 21
-20.41628465777284
 31
0
 12
-2.5
 22
-19.58371534222716
 32
0
 13
-2.5
 23
-19.58371534222716
 33
0
  0
LINE
  5
D7
100
AcDbEntity
  8
Dimensions_display
  6
ByBlock
 62
    0
370
   -2
100
AcDbLine
 10
-7
 20
7.175
 11
-6.999999999999999
 21
-21.25
  0
LINE
  5
D8
100
AcDbEntity
  8
Dimensions_display
  6
ByBlock
 62
    0
370
   -2
100
AcDbLine
 10
-1.148068456708479e-16
 20
-0.625
 11
-2.296136913416957e-16
 21
-21.25
  0
ENDBLK
  5
5A
330
58
100
AcDbEntity
  8
0
100
AcDbBlockEnd
  0
BLOCK
  5
5C
330
5B
100
AcDbEntity
  8
0
100
AcDbBlockBegin
  2
*D9
 70
    1
 10
0
 20
0
  3
*D9
  1

  0
LINE
  5
D9
100
AcDbEntity
  8
Dimensions_slots
  6
ByBlock
 62
    0
370
   -2
100
AcDbLine
 10
-50
 20
2.500000000000001
 11
-50
 21
15.5
  0
MTEXT
  5
DA
100
AcDbEntity
  8
Dimensions_slots
  6
CONTINUOUS
 62
    0
370
   -2
100
AcDbMText
 10
-51.875
 20
14.04166666666674
 30
0
 40
2.5
 41
5.833333333333488
 71
    5
 72
    1
  1
3.00
  7
standard
210
0
220
0
230
1
 50
90
 73
    2
 44
1
  0
SOLID
  5
DB
100
AcDbEntity
  8
Dimensions_slots
  6
ByBlock
 62
    0
370
   -2
100
AcDbTrace
 10
-50
 20
7.500000000000001
 30
0
 11
-49.58371534222716
 21
5.000000000000001
 31
0
 12
-50.41628465777284
 22
5.000000000000001
 32
0
 13
-50.41628465777284
 23
5.000000000000001
 33
0
  0
SOLID
  5
DC
100
AcDbEntity
  8
Dimensions_slots
  6
ByBlock
 62
    0
370
   -2
100
AcDbTrace
 10
-50
 20
10.5
 30
0
 11
-50.41628465777284
 21
13
 31
0
 12
-49.58371534222716
 22
13
 32
0
 13
-49.58371534222716
 23
13
 33
0
  0
LINE
  5
DD
100
AcDbEntity
  8
Dimensions_slots
  6
ByBlock
 62
    0
370
   -2
100
AcDbLine
 10
-45.575
 20
7.5
 11
-51.25
 21
7.500000000000001
  0
LINE
  5
DE
100
AcDbEntity
  8
Dimensions_slots
  6
ByBlock
 62
    0
370
   -2
100
AcDbLine
 10
-45.575
 20
10.5
 11
-51.25
 21
10.5
  0
ENDBLK
  5
5D
330
5B
100
AcDbEntity
  8
0
100
AcDbBlockEnd
  0
BLOCK
  5
5F
330
5E
100
AcDbEntity
  8
0
100
AcDbBlockBegin
  2
*D38
 70
    1
 10
0
 20
0
  3
*D38
  1

  0
LINE
  5
DF
100
AcDbEntity
  8
Dimensions_screw_holes
  6
ByBlock
 62
    0
370
   -2
100
AcDbLine
 10
0
 20
-60
 11
75.40000000000001
 21
-60
  0
MTEXT
  5
E0
100
AcDbEntity
  8
Dimensions_screw_holes
  6
CONTINUOUS
 62
    0
370
   -2
100
AcDbMText
 10
37.7
 20
-58.125
 30
0
 40
2.5
 41
8.055555555555712
 71
    5
 72
    1
  1
75.40
  7
standard
210
0
220
0
230
1
 50
0
 73
    2
 44
1
  0
SOLID
  5
E1
100
AcDbEntity
  8
Dimensions_screw_holes
  6
ByBlock
 62
    0
370
   -2
100
AcDbTrace
 10
0
 20
-60
 30
0
 11
2.5
 21
-59.58371534222716
 31
0
 12
2.5
 22
-60.41628465777284
 32
0
 13
2.5
 23
-60.41628465777284
 33
0
  0
SOLID
  5
E2
100
AcDbEntity
  8
Dimensions_screw_holes
  6
ByBlock
 62
    0
370
   -2
100
AcDbTrace
 10
75.40000000000001
 20
-60
 30
0
 11
72.90000000000001
 21
-60.41628465777284
 31
0
 12
72.90000000000001
 22
-59.58371534222716
 32
0
 13
72.90000000000001
 23
-59.58371534222716
 33
0
  0
LINE
  5
E3
100
AcDbEntity
  8
Dimensions_screw_holes
  6
ByBlock
 62
    0
370
   -2
100
AcDbLine
 10
-1.148068456708479e-16
 20
-0.625
 11
-2.296136913416957e-16
 21
-61.25
  0
LINE
  5
E4
100
AcDbEntity
  8
Dimensions_screw_holes
  6
ByBlock
 62
    0
370
   -2
100
AcDbLine
 10
75.40000000000001
 20
3.125
 11
75.40000000000001
 21
-61.25
  0
ENDBLK
  5
60
330
5E
100
AcDbEntity
  8
0
100
AcDbBlockEnd
  0
BLOCK
  5
62
330
61
100
AcDbEntity
  8
0
100
AcDbBlockBegin
  2
*D7
 70
    1
 10
0
 20
0
  3
*D7
  1

  0
LINE
  5
E5
100
AcDbEntity
  8
Dimensions_holes
  6
ByBlock
 62
    0
370
   -2
100
AcDbLine
 10
25.4
 20
-50
 11
0
 21
-50
  0
MTEXT
  5
E6
100
AcDbEntity
  8
Dimensions_holes
  6
CONTINUOUS
 62
    0
370
   -2
100
AcDbMText
 10
12.7
 20
-48.125
 30
0
 40
2.5
 41
8.055555555555712
 71
    5
 72
    1
  1
25.40
  7
standard
210
0
220
0
230
1
 50
0
 73
    2
 44
1
  0
SOLID
  5
E7
100
AcDbEntity
  8
Dimensions_holes
  6
ByBlock
 62
    0
370
   -2
100
AcDbTrace
 10
25.4
 20
-50
 30
0
 11
22.9
 21
-50.41628465777284
 31
0
 12
22.9
 22
-49.58371534222716
 32
0
 13
22.9
 23
-49.58371534222716
 33
0
  0
SOLID
  5
E8
100
AcDbEntity
  8
Dimensions_holes
  6
ByBlock
 62
    0
370
   -2
100
AcDbTrace
 10
0
 20
-50
 30
0
 11
2.5
 21
-49.58371534222716
 31
0
 12
2.5
 22
-50.41628465777284
 32
0
 13
2.5
 23
-50.41628465777284
 33
0
  0
LINE
  5
E9
100
AcDbEntity
  8
Dimensions_holes
  6
ByBlock
 62
    0
370
   -2
100
AcDbLine
 10
25.4
 20
11.425
 11
25.4
 21
-51.25
  0
LINE
  5
EA
100
AcDbEntity
  8
Dimensions_holes
  6
ByBlock
 62
    0
370
   -2
100
AcDbLine
 10
-1.148068456708479e-16
 20
-0.625
 11
-2.296136913416957e-16
 21
-51.25
  0
ENDBLK
  5
63
330
61
100
AcDbEntity
  8
0
100
AcDbBlockEnd
  0
BLOCK
  5
65
330
64
100
AcDbEntity
  8
0
100
AcDbBlockBegin
  2
*D19
 70
    1
 10
0
 20
0
  3
*D19
  1

  0
LINE
  5
EB
100
AcDbEntity
  8
Dimensions_slots
  6
ByBlock
 62
    0
370
   -2
100
AcDbLine
 10
65
 20
7.75
 11
65
 21
0
  0
MTEXT
  5
EC
100
AcDbEntity
  8
Dimensions_slots
  6
CONTINUOUS
 62
    0
370
   -2
100
AcDbMText
 10
63.125
 20
3.875
 30
0
 40
2.5
 41
5.833333333333488
 71
    5
 72
    1
  1
7.75
  7
standard
210
0
220
0
230
1
 50
90
 73
    2
 44
1
  0
SOLID
  5
ED
100
AcDbEntity
  8
Dimensions_slots
  6
ByBlock
 62
    0
370
   -2
100
AcDbTrace
 10
65
 20
7.75
 30
0
 11
65.41628465777283
 21
5.25
 31
0
 12
64.58371534222717
 22
5.25
 32
0
 13
64.58371534222717
 23
5.25
 33
0
  0
SOLID
  5
EE
100
AcDbEntity
  8
Dimensions_slots
  6
ByBlock
 62
    0
370
   -2
100
AcDbTrace
 10
65
 20
0
 30
0
 11
64.58371534222717
 21
2.5
 31
0
 12
65.41628465777283
 22
2.5
 32
0
 13
65.41628465777283
 23
2.5
 33
0
  0
LINE
  5
EF
100
AcDbEntity
  8
Dimensions_slots
  6
ByBlock
 62
    0
370
   -2
100
AcDbLine
 10
66.375
 20
7.75
 11
63.75
 21
7.75
  0
LINE
  5
F0
100
AcDbEntity
  8
Dimensions_slots
  6
ByBlock
 62
    0
370
   -2
100
AcDbLine
 10
66.375
 20
7.653789711389858e-17
 11
63.75
 21
1.530757942277972e-16
  0
ENDBLK
  5
66
330
64
100
AcDbEntity
  8
0
100
AcDbBlockEnd
  0
BLOCK
  5
68
330
67
100
AcDbEntity
  8
0
100
AcDbBlockBegin
  2
*D36
 70
    1
 10
0
 20
0
  3
*D36
  1

  0
LINE
  5
F1
100
AcDbEntity
  8
Dimensions_screw_holes
  6
ByBlock
 62
    0
370
   -2
100
AcDbLine
 10
-84
 20
-5
 11
-84
 21
8.75
  0
MTEXT
  5
F2
100
AcDbEntity
  8
Dimensions_screw_holes
  6
CONTINUOUS
 62
    0
370
   -2
100
AcDbMText
 10
-85.875
 20
7.291666666666822
 30
0
 40
2.5
 41
5.833333333333643
 71
    5
 72
    1
  1
3.75
  7
standard
210
0
220
0
230
1
 50
90
 73
    2
 44
1
  0
SOLID
  5
F3
100
AcDbEntity
  8
Dimensions_screw_holes
  6
ByBlock
 62
    0
370
   -2
100
AcDbTrace
 10
-84
 20
-4.440892098500626e-16
 30
0
 11
-83.58371534222717
 21
-2.5
 31
0
 12
-84.41628465777283
 22
-2.5
 32
0
 13
-84.41628465777283
 23
-2.5
 33
0
  0
SOLID
  5
F4
100
AcDbEntity
  8
Dimensions_screw_holes
  6
ByBlock
 62
    0
370
   -2
100
AcDbTrace
 10
-84
 20
3.75
 30
0
 11
-84.41628465777283
 21
6.25
 31
0
 12
-83.58371534222717
 22
6.25
 32
0
 13
-83.58371534222717
 23
6.25
 33
0
  0
LINE
  5
F5
100
AcDbEntity
  8
Dimensions_screw_holes
  6
ByBlock
 62
    0
370
   -2
100
AcDbLine
 10
-76.175
 20
7.653789711389858e-17
 11
-85.25
 21
-2.910134156222655e-16
  0
LINE
  5
F6
100
AcDbEntity
  8
Dimensions_screw_holes
  6
ByBlock
 62
    0
370
   -2
100
AcDbLine
 10
-76.02500000000001
 20
3.75
 11
-85.25
 21
3.75
  0
ENDBLK
  5
69
330
67
100
AcDbEntity
  8
0
100
AcDbBlockEnd
  0
BLOCK
  5
6B
330
6A
100
AcDbEntity
  8
0
100
AcDbBlockBegin
  2
*D20
 70
    1
 10
0
 20
0
  3
*D20
  1

  0
SOLID
  5
F7
100
AcDbEntity
  8
Dimensions_slots
  6
ByBlock
 62
    0
370
   -2
100
AcDbTrace
 10
59.18382547241317
 20
11.14676245200072
 30
0
 11
57.23617827058087
 21
12.76847860888264
 31
0
 12
57.86677456389815
 22
13.31209610312167
 32
0
 13
57.86677456389815
 23
13.31209610312167
 33
0
  0
LINE
  5
F8
100
AcDbEntity
  8
Dimensions_slots
  6
ByBlock
 62
    0
370
   -2
100
AcDbLine
 10
60
 20
10.2
 11
48.301498437922
 21
23.77026181201042
  0
MTEXT
  5
F9
100
AcDbEntity
  8
Dimensions_slots
  6
CONTINUOUS
 62
    0
370
   -2
100
AcDbMText
 10
55.16280563316867
 20
18.68277392338582
 30
0
 40
2.5
 41
11.66666666666682
 71
    5
 72
    1
  1
4-R1.25
  7
standard
210
0
220
0
230
1
 50
310.7636052009413
 73
    2
 44
1
  0
ENDBLK
  5
6C
330
6A
100
AcDbEntity
  8
0
100
AcDbBlockEnd
  0
BLOCK
  5
6E
330
6D
100
AcDbEntity
  8
0
100
AcDbBlockBegin
  2
*D21
 70
    1
 10
0
 20
0
  3
*D21
  1

  0
LINE
  5
FA
100
AcDbEntity
  8
Dimensions_slots
  6
ByBlock
 62
    0
370
   -2
100
AcDbLine
 10
46
 20
2.75
 11
46
 21
16.45
  0
MTEXT
  5
FB
100
AcDbEntity
  8
Dimensions_slots
  6
CONTINUOUS
 62
    0
370
   -2
100
AcDbMText
 10
44.125
 20
14.99166666666674
 30
0
 40
2.5
 41
5.833333333333488
 71
    5
 72
    1
  1
3.70
  7
standard
210
0
220
0
230
1
 50
90
 73
    2
 44
1
  0
SOLID
  5
FC
100
AcDbEntity
  8
Dimensions_slots
  6
ByBlock
 62
    0
370
   -2
100
AcDbTrace
 10
46
 20
7.75
 30
0
 11
46.41628465777284
 21
5.25
 31
0
 12
45.58371534222716
 22
5.25
 32
0
 13
45.58371534222716
 23
5.25
 33
0
  0
SOLID
  5
FD
100
AcDbEntity
  8
Dimensions_slots
  6
ByBlock
 62
    0
370
   -2
100
AcDbTrace
 10
46
 20
11.45
 30
0
 11
45.58371534222716
 21
13.95
 31
0
 12
46.41628465777284
 22
13.95
 32
0
 13
46.41628465777284
 23
13.95
 33
0
  0
LINE
  5
FE
100
AcDbEntity
  8
Dimensions_slots
  6
ByBlock
 62
    0
370
   -2
100
AcDbLine
 10
42.225
 20
7.75
 11
47.25
 21
7.75
  0
LINE
  5
FF
100
AcDbEntity
  8
Dimensions_slots
  6
ByBlock
 62
    0
370
   -2
100
AcDbLine
 10
42.225
 20
11.45
 11
47.25
 21
11.45
  0
ENDBLK
  5
6F
330
6D
100
AcDbEntity
  8
0
100
AcDbBlockEnd
  0
BLOCK
  5
71
330
70
100
AcDbEntity
  8
0
100
AcDbBlockBegin
  2
*D29
 70
    1
 10
0
 20
0
  3
*D29
  1

  0
LINE
  5
100
100
AcDbEntity
  8
Dimensions_display
  6
ByBlock
 62
    0
370
   -2
100
AcDbLine
 10
4
 20
6.300000000000001
 11
4
 21
-2.486899575160351e-16
  0
MTEXT
  5
101
100
AcDbEntity
  8
Dimensions_display
  6
CONTINUOUS
 62
    0
370
   -2
100
AcDbMText
 10
2.125
 20
3.150000000000001
 30
0
 40
2.5
 41
5.833333333333643
 71
    5
 72
    1
  1
6.30
  7
standard
210
0
220
0
230
1
 50
90
 73
    2
 44
1
  0
SOLID
  5
102
100
AcDbEntity
  8
Dimensions_display
  6
ByBlock
 62
    0
370
   -2
100
AcDbTrace
 10
4
 20
6.300000000000001
 30
0
 11
4.416284657772841
 21
3.800000000000001
 31
0
 12
3.583715342227159
 22
3.800000000000001
 32
0
 13
3.583715342227159
 23
3.800000000000001
 33
0
  0
SOLID
  5
103
100
AcDbEntity
  8
Dimensions_display
  6
ByBlock
 62
    0
370
   -2
100
AcDbTrace
 10
4
 20
-2.486899575160351e-16
 30
0
 11
3.58371534222716
 21
2.5
 31
0
 12
4.416284657772841
 22
2.5
 32
0
 13
4.416284657772841
 23
2.5
 33
0
  0
LINE
  5
104
100
AcDbEntity
  8
Dimensions_display
  6
ByBlock
 62
    0
370
   -2
100
AcDbLine
 10
4.875
 20
6.3
 11
2.75
 21
6.300000000000002
  0
LINE
  5
105
100
AcDbEntity
  8
Dimensions_display
  6
ByBlock
 62
    0
370
   -2
100
AcDbLine
 10
0.625
 20
0
 11
5.25
 21
-2.486899575160351e-16
  0
ENDBLK
  5
72
330
70
100
AcDbEntity
  8
0
100
AcDbBlockEnd
  0
BLOCK
  5
74
330
73
100
AcDbEntity
  8
0
100
AcDbBlockBegin
  2
*D22
 70
    1
 10
0
 20
0
  3
*D22
  1

  0
LINE
  5
106
100
AcDbEntity
  8
Dimensions_slots
  6
ByBlock
 62
    0
370
   -2
100
AcDbLine
 10
40
 20
7.75
 11
40
 21
7.105427357601002e-17
  0
MTEXT
  5
107
100
AcDbEntity
  8
Dimensions_slots
  6
CONTINUOUS
 62
    0
370
   -2
100
AcDbMText
 10
38.125
 20
3.875
 30
0
 40
2.5
 41
5.833333333333488
 71
    5
 72
    1
  1
7.75
  7
standard
210
0
220
0
230
1
 50
90
 73
    2
 44
1
  0
SOLID
  5
108
100
AcDbEntity
  8
Dimensions_slots
  6
ByBlock
 62
    0
370
   -2
100
AcDbTrace
 10
40
 20
7.75
 30
0
 11
40.41628465777284
 21
5.25
 31
0
 12
39.58371534222716
 22
5.25
 32
0
 13
39.58371534222716
 23
5.25
 33
0
  0
SOLID
  5
109
100
AcDbEntity
  8
Dimensions_slots
  6
ByBlock
 62
    0
370
   -2
100
AcDbTrace
 10
40
 20
7.105427357601002e-17
 30
0
 11
39.58371534222716
 21
2.5
 31
0
 12
40.41628465777284
 22
2.5
 32
0
 13
40.41628465777284
 23
2.5
 33
0
  0
LINE
  5
10A
100
AcDbEntity
  8
Dimensions_slots
  6
ByBlock
 62
    0
370
   -2
100
AcDbLine
 10
40.975
 20
7.75
 11
38.75
 21
7.75
  0
LINE
  5
10B
100
AcDbEntity
  8
Dimensions_slots
  6
ByBlock
 62
    0
370
   -2
100
AcDbLine
 10
40.375
 20
7.653789711389858e-17
 11
38.75
 21
2.241300678038072e-16
  0
ENDBLK
  5
75
330
73
100
AcDbEntity
  8
0
100
AcDbBlockEnd
  0
BLOCK
  5
77
330
76
100
AcDbEntity
  8
0
100
AcDbBlockBegin
  2
*D34
 70
    1
 10
0
 20
0
  3
*D34
  1

  0
LINE
  5
10C
100
AcDbEntity
  8
Dimensions_screw_holes
  6
ByBlock
 62
    0
370
   -2
100
AcDbLine
 10
-90
 20
37.25
 11
-90
 21
3.75
  0
MTEXT
  5
10D
100
AcDbEntity
  8
Dimensions_screw_holes
  6
CONTINUOUS
 62
    0
370
   -2
100
AcDbMText
 10
-91.875
 20
20.5
 30
0
 40
2.5
 41
20.13888888888935
 71
    5
 72
    1
  1
33.50 %%P 0.20
  7
standard
210
0
220
0
230
1
 50
90
 73
    2
 44
1
  0
SOLID
  5
10E
100
AcDbEntity
  8
Dimensions_screw_holes
  6
ByBlock
 62
    0
370
   -2
100
AcDbTrace
 10
-90
 20
37.25
 30
0
 11
-89.58371534222717
 21
34.75
 31
0
 12
-90.41628465777283
 22
34.75
 32
0
 13
-90.41628465777283
 23
34.75
 33
0
  0
SOLID
  5
10F
100
AcDbEntity
  8
Dimensions_screw_holes
  6
ByBlock
 62
    0
370
   -2
100
AcDbTrace
 10
-90
 20
3.75
 30
0
 11
-90.41628465777283
 21
6.25
 31
0
 12
-89.58371534222717
 22
6.25
 32
0
 13
-89.58371534222717
 23
6.25
 33
0
  0
LINE
  5
110
100
AcDbEntity
  8
Dimensions_screw_holes
  6
ByBlock
 62
    0
370
   -2
100
AcDbLine
 10
-76.02500000000001
 20
37.25
 11
-91.25
 21
37.25
  0
LINE
  5
111
100
AcDbEntity
  8
Dimensions_screw_holes
  6
ByBlock
 62
    0
370
   -2
100
AcDbLine
 10
-76.02500000000001
 20
3.75
 11
-91.25
 21
3.75
  0
ENDBLK
  5
78
330
76
100
AcDbEntity
  8
0
100
AcDbBlockEnd
  0
BLOCK
  5
7A
330
79
100
AcDbEntity
  8
0
100
AcDbBlockBegin
  2
*D12
 70
    1
 10
0
 20
0
  3
*D12
  1

  0
LINE
  5
112
100
AcDbEntity
  8
Dimensions_slots
  6
ByBlock
 62
    0
370
   -2
100
AcDbLine
 10
-50
 20
7.500000000000001
 11
-50
 21
3.552713678800501e-16
  0
MTEXT
  5
113
100
AcDbEntity
  8
Dimensions_slots
  6
CONTINUOUS
 62
    0
370
   -2
100
AcDbMText
 10
-51.875
 20
3.750000000000001
 30
0
 40
2.5
 41
5.833333333333489
 71
    5
 72
    1
  1
7.50
  7
standard
210
0
220
0
230
1
 50
90
 73
    2
 44
1
  0
SOLID
  5
114
100
AcDbEntity
  8
Dimensions_slots
  6
ByBlock
 62
    0
370
   -2
100
AcDbTrace
 10
-50
 20
7.500000000000001
 30
0
 11
-49.58371534222716
 21
5.000000000000001
 31
0
 12
-50.41628465777284
 22
5.000000000000001
 32
0
 13
-50.41628465777284
 23
5.000000000000001
 33
0
  0
SOLID
  5
115
100
AcDbEntity
  8
Dimensions_slots
  6
ByBlock
 62
    0
370
   -2
100
AcDbTrace
 10
-50
 20
3.552713678800501e-16
 30
0
 11
-50.41628465777284
 21
2.5
 31
0
 12
-49.58371534222716
 22
2.5
 32
0
 13
-49.58371534222716
 23
2.5
 33
0
  0
LINE
  5
116
100
AcDbEntity
  8
Dimensions_slots
  6
ByBlock
 62
    0
370
   -2
100
AcDbLine
 10
-45.575
 20
7.5
 11
-51.25
 21
7.500000000000001
  0
LINE
  5
117
100
AcDbEntity
  8
Dimensions_slots
  6
ByBlock
 62
    0
370
   -2
100
AcDbLine
 10
-45.625
 20
7.653789711389858e-17
 11
-51.25
 21
5.083471621078473e-16
  0
ENDBLK
  5
7B
330
79
100
AcDbEntity
  8
0
100
AcDbBlockEnd
  0
BLOCK
  5
7D
330
7C
100
AcDbEntity
  8
0
100
AcDbBlockBegin
  2
*D28
 70
    1
 10
0
 20
0
  3
*D28
  1

  0
LINE
  5
118
100
AcDbEntity
  8
Dimensions_display
  6
ByBlock
 62
    0
370
   -2
100
AcDbLine
 10
-9.4
 20
-30
 11
0
 21
-30
  0
MTEXT
  5
119
100
AcDbEntity
  8
Dimensions_display
  6
CONTINUOUS
 62
    0
370
   -2
100
AcDbMText
 10
-4.7
 20
-28.125
 30
0
 40
2.5
 41
6.111111111111266
 71
    5
 72
    1
  1
9.40
  7
standard
210
0
220
0
230
1
 50
0
 73
    2
 44
1
  0
SOLID
  5
11A
100
AcDbEntity
  8
Dimensions_display
  6
ByBlock
 62
    0
370
   -2
100
AcDbTrace
 10
-9.4
 20
-30
 30
0
 11
-6.9
 21
-29.58371534222716
 31
0
 12
-6.9
 22
-30.41628465777284
 32
0
 13
-6.9
 23
-30.41628465777284
 33
0
  0
SOLID
  5
11B
100
AcDbEntity
  8
Dimensions_display
  6
ByBlock
 62
    0
370
   -2
100
AcDbTrace
 10
0
 20
-30
 30
0
 11
-2.5
 21
-30.41628465777284
 31
0
 12
-2.5
 22
-29.58371534222716
 32
0
 13
-2.5
 23
-29.58371534222716
 33
0
  0
LINE
  5
11C
100
AcDbEntity
  8
Dimensions_display
  6
ByBlock
 62
    0
370
   -2
100
AcDbLine
 10
-9.4
 20
11.825
 11
-9.4
 21
-31.25
  0
LINE
  5
11D
100
AcDbEntity
  8
Dimensions_display
  6
ByBlock
 62
    0
370
   -2
100
AcDbLine
 10
-1.148068456708479e-16
 20
-0.625
 11
-2.296136913416957e-16
 21
-31.25
  0
ENDBLK
  5
7E
330
7C
100
AcDbEntity
  8
0
100
AcDbBlockEnd
  0
BLOCK
  5
80
330
7F
100
AcDbEntity
  8
0
100
AcDbBlockBegin
  2
*D37
 70
    1
 10
0
 20
0
  3
*D37
  1

  0
LINE
  5
11E
100
AcDbEntity
  8
Dimensions_screw_holes
  6
ByBlock
 62
    0
370
   -2
100
AcDbLine
 10
0
 20
-60
 11
-75.40000000000001
 21
-60
  0
MTEXT
  5
11F
100
AcDbEntity
  8
Dimensions_screw_holes
  6
CONTINUOUS
 62
    0
370
   -2
100
AcDbMText
 10
-37.7
 20
-58.125
 30
0
 40
2.5
 41
8.055555555555712
 71
    5
 72
    1
  1
75.40
  7
standard
210
0
220
0
230
1
 50
0
 73
    2
 44
1
  0
SOLID
  5
120
100
AcDbEntity
  8
Dimensions_screw_holes
  6
ByBlock
 62
    0
370
   -2
100
AcDbTrace
 10
0
 20
-60
 30
0
 11
-2.5
 21
-60.41628465777284
 31
0
 12
-2.5
 22
-59.58371534222716
 32
0
 13
-2.5
 23
-59.58371534222716
 33
0
  0
SOLID
  5
121
100
AcDbEntity
  8
Dimensions_screw_holes
  6
ByBlock
 62
    0
370
   -2
100
AcDbTrace
 10
-75.40000000000001
 20
-60
 30
0
 11
-72.90000000000001
 21
-59.58371534222716
 31
0
 12
-72.90000000000001
 22
-60.41628465777284
 32
0
 13
-72.90000000000001
 23
-60.41628465777284
 33
0
  0
LINE
  5
122
100
AcDbEntity
  8
Dimensions_screw_holes
  6
ByBlock
 62
    0
370
   -2
100
AcDbLine
 10
-1.148068456708479e-16
 20
-0.625
 11
-2.296136913416957e-16
 21
-61.25
  0
LINE
  5
123
100
AcDbEntity
  8
Dimensions_screw_holes
  6
ByBlock
 62
    0
370
   -2
100
AcDbLine
 10
-75.40000000000001
 20
3.125
 11
-75.40000000000001
 21
-61.25
  0
ENDBLK
  5
81
330
7F
100
AcDbEntity
  8
0
100
AcDbBlockEnd
  0
BLOCK
  5
83
330
82
100
AcDbEntity
  8
0
100
AcDbBlockBegin
  2
*D25
 70
    1
 10
0
 20
0
  3
*D25
  1

  0
LINE
  5
124
100
AcDbEntity
  8
Dimensions_display
  6
ByBlock
 62
    0
370
   -2
100
AcDbLine
 10
7.000000000000001
 20
-20
 11
0
 21
-20
  0
MTEXT
  5
125
100
AcDbEntity
  8
Dimensions_display
  6
CONTINUOUS
 62
    0
370
   -2
100
AcDbMText
 10
3.5
 20
-18.125
 30
0
 40
2.5
 41
5.833333333333334
 71
    5
 72
    1
  1
7.00
  7
standard
210
0
220
0
230
1
 50
0
 73
    2
 44
1
  0
SOLID
  5
126
100
AcDbEntity
  8
Dimensions_display
  6
ByBlock
 62
    0
370
   -2
100
AcDbTrace
 10
7.000000000000001
 20
-20
 30
0
 11
4.500000000000001
 21
-20.41628465777284
 31
0
 12
4.500000000000001
 22
-19.58371534222716
 32
0
 13
4.500000000000001
 23
-19.58371534222716
 33
0
  0
SOLID
  5
127
100
AcDbEntity
  8
Dimensions_display
  6
ByBlock
 62
    0
370
   -2
100
AcDbTrace
 10
0
 20
-20
 30
0
 11
2.5
 21
-19.58371534222716
 31
0
 12
2.5
 22
-20.41628465777284
 32
0
 13
2.5
 23
-20.41628465777284
 33
0
  0
LINE
  5
128
100
AcDbEntity
  8
Dimensions_display
  6
ByBlock
 62
    0
370
   -2
100
AcDbLine
 10
7
 20
7.175000000000001
 11
7.000000000000001
 21
-21.25
  0
LINE
  5
129
100
AcDbEntity
  8
Dimensions_display
  6
ByBlock
 62
    0
370
   -2
100
AcDbLine
 10
-1.148068456708479e-16
 20
-0.625
 11
-2.296136913416957e-16
 21
-21.25
  0
ENDBLK
  5
84
330
82
100
AcDbEntity
  8
0
100
AcDbBlockEnd
  0
BLOCK
  5
86
330
85
100
AcDbEntity
  8
0
100
AcDbBlockBegin
  2
*D3
 70
    1
 10
0
 20
0
  3
*D3
  1

  0
SOLID
  5
12A
100
AcDbEntity
  8
Dimensions_outline
  6
ByBlock
 62
    0
370
   -2
100
AcDbTrace
 10
-78.74002107660945
 20
39.22136133947775
 30
0
 11
-81.08554112249604
 21
40.18148041055237
 31
0
 12
-80.64786246620213
 22
40.88972405437345
 32
0
 13
-80.64786246620213
 23
40.88972405437345
 33
0
  0
LINE
  5
12B
100
AcDbEntity
  8
Dimensions_outline
  6
ByBlock
 62
    0
370
   -2
100
AcDbLine
 10
-75.55
 20
37.25
 11
-93.39048824326052
 21
48.2750208244868
  0
MTEXT
  5
12C
100
AcDbEntity
  8
Dimensions_outline
  6
CONTINUOUS
 62
    0
370
   -2
100
AcDbMText
 10
-85.07957399019612
 20
45.343201620287
 30
0
 40
2.5
 41
12.22222222222253
 71
    5
 72
    1
  1
4-R3.75
  7
standard
210
0
220
0
230
1
 50
328.2848664849023
 73
    2
 44
1
  0
ENDBLK
  5
87
330
85
100
AcDbEntity
  8
0
100
AcDbBlockEnd
  0
BLOCK
  5
89
330
88
100
AcDbEntity
  8
0
100
AcDbBlockBegin
  2
*D27
 70
    1
 10
0
 20
0
  3
*D27
  1

  0
LINE
  5
12D
100
AcDbEntity
  8
Dimensions_display
  6
ByBlock
 62
    0
370
   -2
100
AcDbLine
 10
9.4
 20
-30
 11
0
 21
-30
  0
MTEXT
  5
12E
100
AcDbEntity
  8
Dimensions_display
  6
CONTINUOUS
 62
    0
370
   -2
100
AcDbMText
 10
4.7
 20
-28.125
 30
0
 40
2.5
 41
6.111111111111266
 71
    5
 72
    1
  1
9.40
  7
standard
210
0
220
0
230
1
 50
0
 73
    2
 44
1
  0
SOLID
  5
12F
100
AcDbEntity
  8
Dimensions_display
  6
ByBlock
 62
    0
370
   -2
100
AcDbTrace
 10
9.4
 20
-30
 30
0
 11
6.9
 21
-30.41628465777284
 31
0
 12
6.9
 22
-29.58371534222716
 32
0
 13
6.9
 23
-29.58371534222716
 33
0
  0
SOLID
  5
130
100
AcDbEntity
  8
Dimensions_display
  6
ByBlock
 62
    0
370
   -2
100
AcDbTrace
 10
0
 20
-30
 30
0
 11
2.5
 21
-29.58371534222716
 31
0
 12
2.5
 22
-30.41628465777284
 32
0
 13
2.5
 23
-30.41628465777284
 33
0
  0
LINE
  5
131
100
AcDbEntity
  8
Dimensions_display
  6
ByBlock
 62
    0
370
   -2
100
AcDbLine
 10
9.4
 20
11.825
 11
9.4
 21
-31.25
  0
LINE
  5
132
100
AcDbEntity
  8
Dimensions_display
  6
ByBlock
 62
    0
370
   -2
100
AcDbLine
 10
-1.148068456708479e-16
 20
-0.625
 11
-2.296136913416957e-16
 21
-31.25
  0
ENDBLK
  5
8A
330
88
100
AcDbEntity
  8
0
100
AcDbBlockEnd
  0
BLOCK
  5
8C
330
8B
100
AcDbEntity
  8
0
100
AcDbBlockBegin
  2
*D40
 70
    1
 10
0
 20
0
  3
*D40
  1

  0
LINE
  5
133
100
AcDbEntity
  8
Dimensions_outline
  6
ByBlock
 62
    0
370
   -2
100
AcDbLine
 10
-1.4210854715202e-14
 20
-70
 11
79.30000000000003
 21
-70
  0
MTEXT
  5
134
100
AcDbEntity
  8
Dimensions_outline
  6
CONTINUOUS
 62
    0
370
   -2
100
AcDbMText
 10
39.65000000000001
 20
-68.125
 30
0
 40
2.5
 41
7.777777777777933
 71
    5
 72
    1
  1
79.30
  7
standard
210
0
220
0
230
1
 50
0
 73
    2
 44
1
  0
SOLID
  5
135
100
AcDbEntity
  8
Dimensions_outline
  6
ByBlock
 62
    0
370
   -2
100
AcDbTrace
 10
-1.4210854715202e-14
 20
-70
 30
0
 11
2.499999999999986
 21
-69.58371534222717
 31
0
 12
2.499999999999986
 22
-70.41628465777283
 32
0
 13
2.499999999999986
 23
-70.41628465777283
 33
0
  0
SOLID
  5
136
100
AcDbEntity
  8
Dimensions_outline
  6
ByBlock
 62
    0
370
   -2
100
AcDbTrace
 10
79.30000000000003
 20
-70
 30
0
 11
76.80000000000003
 21
-70.41628465777283
 31
0
 12
76.80000000000003
 22
-69.58371534222717
 32
0
 13
76.80000000000003
 23
-69.58371534222717
 33
0
  0
LINE
  5
137
100
AcDbEntity
  8
Dimensions_outline
  6
ByBlock
 62
    0
370
   -2
100
AcDbLine
 10
-1.148068456708479e-16
 20
-0.625
 11
-1.44404684065437e-14
 21
-71.25
  0
LINE
  5
138
100
AcDbEntity
  8
Dimensions_outline
  6
ByBlock
 62
    0
370
   -2
100
AcDbLine
 10
79.30000000000003
 20
3.124999999999998
 11
79.30000000000003
 21
-71.25
  0
ENDBLK
  5
8D
330
8B
100
AcDbEntity
  8
0
100
AcDbBlockEnd
  0
BLOCK
  5
8F
330
8E
100
AcDbEntity
  8
0
100
AcDbBlockBegin
  2
*D32
 70
    1
 10
0
 20
0
  3
*D32
  1

  0
SOLID
  5
139
100
AcDbEntity
  8
Dimensions_display
  6
ByBlock
 62
    0
370
   -2
100
AcDbTrace
 10
-10.45491146225002
 20
27.41637789118752
 30
0
 11
-12.50904173632639
 21
28.90091207180444
 31
0
 12
-11.91715272900703
 22
29.48643668119564
 32
0
 13
-11.91715272900703
 23
29.48643668119564
 33
0
  0
LINE
  5
13A
100
AcDbEntity
  8
Dimensions_display
  6
ByBlock
 62
    0
370
   -2
100
AcDbLine
 10
-9.4
 20
26.35
 11
-21.98079595720412
 21
39.06754373934762
  0
MTEXT
  5
13B
100
AcDbEntity
  8
Dimensions_display
  6
CONTINUOUS
 62
    0
370
   -2
100
AcDbMText
 10
-14.88488134574268
 20
34.56060014308009
 30
0
 40
2.5
 41
11.3888888888892
 71
    5
 72
    1
  1
6-R1.50
  7
standard
210
0
220
0
230
1
 50
314.6902961000412
 73
    2
 44
1
  0
ENDBLK
  5
90
330
8E
100
AcDbEntity
  8
0
100
AcDbBlockEnd
  0
BLOCK
  5
92
330
91
100
AcDbEntity
  8
0
100
AcDbBlockBegin
  2
*D10
 70
    1
 10
0
 20
0
  3
*D10
  1

  0
LINE
  5
13C
100
AcDbEntity
  8
Dimensions_slots
  6
ByBlock
 62
    0
370
   -2
100
AcDbLine
 10
-45.95
 20
15
 11
-30.25
 21
15
  0
MTEXT
  5
13D
100
AcDbEntity
  8
Dimensions_slots
  6
CONTINUOUS
 62
    0
370
   -2
100
AcDbMText
 10
-38.1
 20
16.875
 30
0
 40
2.5
 41
7.222222222222378
 71
    5
 72
    1
  1
15.70
  7
standard
210
0
220
0
230
1
 50
0
 73
    2
 44
1
  0
SOLID
  5
13E
100
AcDbEntity
  8
Dimensions_slots
  6
ByBlock
 62
    0
370
   -2
100
AcDbTrace
 10
-45.95
 20
15
 30
0
 11
-43.45
 21
15.41628465777284
 31
0
 12
-43.45
 22
14.58371534222716
 32
0
 13
-43.45
 23
14.58371534222716
 33
0
  0
SOLID
  5
13F
100
AcDbEntity
  8
Dimensions_slots
  6
ByBlock
 62
    0
370
   -2
100
AcDbTrace
 10
-30.25
 20
15
 30
0
 11
-32.75
 21
14.58371534222716
 31
0
 12
-32.75
 22
15.41628465777284
 32
0
 13
-32.75
 23
15.41628465777284
 33
0
  0
LINE
  5
140
100
AcDbEntity
  8
Dimensions_slots
  6
ByBlock
 62
    0
370
   -2
100
AcDbLine
 10
-45.95
 20
10.125
 11
-45.95
 21
16.25
  0
LINE
  5
141
100
AcDbEntity
  8
Dimensions_slots
  6
ByBlock
 62
    0
370
   -2
100
AcDbLine
 10
-30.25
 20
10.125
 11
-30.25
 21
16.25
  0
ENDBLK
  5
93
330
91
100
AcDbEntity
  8
0
100
AcDbBlockEnd
  0
BLOCK
  5
95
330
94
100
AcDbEntity
  8
0
100
AcDbBlockBegin
  2
*D17
 70
    1
 10
0
 20
0
  3
*D17
  1

  0
LINE
  5
142
100
AcDbEntity
  8
Dimensions_slots
  6
ByBlock
 62
    0
370
   -2
100
AcDbLine
 10
58.75
 20
-30
 11
68.25
 21
-30
  0
MTEXT
  5
143
100
AcDbEntity
  8
Dimensions_slots
  6
CONTINUOUS
 62
    0
370
   -2
100
AcDbMText
 10
63.5
 20
-28.125
 30
0
 40
2.5
 41
5.833333333333645
 71
    5
 72
    1
  1
9.50
  7
standard
210
0
220
0
230
1
 50
0
 73
    2
 44
1
  0
SOLID
  5
144
100
AcDbEntity
  8
Dimensions_slots
  6
ByBlock
 62
    0
370
   -2
100
AcDbTrace
 10
58.75
 20
-30
 30
0
 11
61.25
 21
-29.58371534222716
 31
0
 12
61.25
 22
-30.41628465777284
 32
0
 13
61.25
 23
-30.41628465777284
 33
0
  0
SOLID
  5
145
100
AcDbEntity
  8
Dimensions_slots
  6
ByBlock
 62
    0
370
   -2
100
AcDbTrace
 10
68.25
 20
-30
 30
0
 11
65.75
 21
-30.41628465777284
 31
0
 12
65.75
 22
-29.58371534222716
 32
0
 13
65.75
 23
-29.58371534222716
 33
0
  0
LINE
  5
146
100
AcDbEntity
  8
Dimensions_slots
  6
ByBlock
 62
    0
370
   -2
100
AcDbLine
 10
58.75
 20
8.375
 11
58.75
 21
-31.25
  0
LINE
  5
147
100
AcDbEntity
  8
Dimensions_slots
  6
ByBlock
 62
    0
370
   -2
100
AcDbLine
 10
68.25
 20
8.375
 11
68.25
 21
-31.25
  0
ENDBLK
  5
96
330
94
100
AcDbEntity
  8
0
100
AcDbBlockEnd
  0
BLOCK
  5
98
330
97
100
AcDbEntity
  8
0
100
AcDbBlockBegin
  2
*D24
 70
    1
 10
0
 20
0
  3
*D24
  1

  0
LINE
  5
148
100
AcDbEntity
  8
Dimensions_holes
  6
ByBlock
 62
    0
370
   -2
100
AcDbLine
 10
22.12225409740202
 20
6.006655992084998
 11
28.67774590259797
 21
18.093344007915
  0
MTEXT
  5
149
100
AcDbEntity
  8
Dimensions_holes
  6
CONTINUOUS
 62
    0
370
   -2
100
AcDbMText
 10
27.85727478493384
 20
20.51337168031939
 30
0
 40
2.5
 41
12.22222222222253
 71
    5
 72
    1
  1
2-%%C3.75
  7
standard
210
0
220
0
230
1
 50
61.52579638992563
 73
    2
 44
1
  0
SOLID
  5
14A
100
AcDbEntity
  8
Dimensions_holes
  6
ByBlock
 62
    0
370
   -2
100
AcDbTrace
 10
24.50606929929146
 20
10.40181527056864
 30
0
 11
23.68008917356688
 21
8.005766492224369
 31
0
 12
22.94823422312661
 22
8.402704770429263
 32
0
 13
22.94823422312661
 23
8.402704770429263
 33
0
  0
SOLID
  5
14B
100
AcDbEntity
  8
Dimensions_holes
  6
ByBlock
 62
    0
370
   -2
100
AcDbTrace
 10
26.29393070070854
 20
13.69818472943137
 30
0
 11
27.11991082643312
 21
16.09423350777563
 31
0
 12
27.85176577687339
 22
15.69729522957074
 32
0
 13
27.85176577687339
 23
15.69729522957074
 33
0
  0
ENDBLK
  5
99
330
97
100
AcDbEntity
  8
0
100
AcDbBlockEnd
  0
BLOCK
  5
9B
330
9A
100
AcDbEntity
  8
0
100
AcDbBlockBegin
  2
*D6
 70
    1
 10
0
 20
0
  3
*D6
  1

  0
LINE
  5
14C
100
AcDbEntity
  8
Dimensions_holes
  6
ByBlock
 62
    0
370
   -2
100
AcDbLine
 10
-67.68241238908335
 20
4.575436673029981
 11
-59.31758761091665
 21
17.62456332697002
  0
MTEXT
  5
14D
100
AcDbEntity
  8
Dimensions_holes
  6
CONTINUOUS
 62
    0
370
   -2
100
AcDbMText
 10
-61.00854143704058
 20
18.46104580478682
 30
0
 40
2.5
 41
8.333333333333645
 71
    5
 72
    1
  1
%%C5.50
  7
standard
210
0
220
0
230
1
 50
57.33908727832614
 73
    2
 44
1
  0
SOLID
  5
14E
100
AcDbEntity
  8
Dimensions_holes
  6
ByBlock
 62
    0
370
   -2
100
AcDbTrace
 10
-64.98408181548119
 20
8.784832367849347
 30
0
 11
-65.9827857330326
 21
6.455479796561669
 31
0
 12
-66.68370847153194
 22
6.904789244317658
 32
0
 13
-66.68370847153194
 23
6.904789244317658
 33
0
  0
SOLID
  5
14F
100
AcDbEntity
  8
Dimensions_holes
  6
ByBlock
 62
    0
370
   -2
100
AcDbTrace
 10
-62.01591818451881
 20
13.41516763215065
 30
0
 11
-61.0172142669674
 21
15.74452020343833
 31
0
 12
-60.31629152846806
 22
15.29521075568234
 32
0
 13
-60.31629152846806
 23
15.29521075568234
 33
0
  0
ENDBLK
  5
9C
330
9A
100
AcDbEntity
  8
0
100
AcDbBlockEnd
  0
BLOCK
  5
9E
330
9D
100
AcDbEntity
  8
0
100
AcDbBlockBegin
  2
*D33
 70
    1
 10
0
 20
0
  3
*D33
  1

  0
LINE
  5
150
100
AcDbEntity
  8
Dimensions_screw_holes
  6
ByBlock
 62
    0
370
   -2
100
AcDbLine
 10
81.46183919561273
 20
40.10378793299948
 11
69.33816080438729
 21
34.39621206700052
  0
MTEXT
  5
151
100
AcDbEntity
  8
Dimensions_screw_holes
  6
CONTINUOUS
 62
    0
370
   -2
100
AcDbMText
 10
82.48527475201601
 20
42.6579909630423
 30
0
 40
2.5
 41
12.77777777777793
 71
    5
 72
    1
  1
4-%%C3.40
  7
standard
210
0
220
0
230
1
 50
25.21008170974113
 73
    2
 44
1
  0
SOLID
  5
152
100
AcDbEntity
  8
Dimensions_screw_holes
  6
ByBlock
 62
    0
370
   -2
100
AcDbTrace
 10
76.93807860187189
 20
37.97409544568644
 30
0
 11
79.02264723709381
 21
39.41557611546529
 31
0
 12
79.37727056039081
 22
38.66230726322063
 32
0
 13
79.37727056039081
 23
38.66230726322063
 33
0
  0
SOLID
  5
153
100
AcDbEntity
  8
Dimensions_screw_holes
  6
ByBlock
 62
    0
370
   -2
100
AcDbTrace
 10
73.86192139812812
 20
36.52590455431356
 30
0
 11
71.7773527629062
 21
35.08442388453471
 31
0
 12
71.4227294396092
 22
35.83769273677937
 32
0
 13
71.4227294396092
 23
35.83769273677937
 33
0
  0
ENDBLK
  5
9F
330
9D
100
AcDbEntity
  8
0
100
AcDbBlockEnd
  0
BLOCK
  5
A1
330
A0
100
AcDbEntity
  8
0
100
AcDbBlockBegin
  2
*D15
 70
    1
 10
0
 20
0
  3
*D15
  1

  0
LINE
  5
154
100
AcDbEntity
  8
Dimensions_slots
  6
ByBlock
 62
    0
370
   -2
100
AcDbLine
 10
33.35
 20
-40
 11
58.75
 21
-40
  0
MTEXT
  5
155
100
AcDbEntity
  8
Dimensions_slots
  6
CONTINUOUS
 62
    0
370
   -2
100
AcDbMText
 10
46.05
 20
-38.125
 30
0
 40
2.5
 41
8.055555555555712
 71
    5
 72
    1
  1
25.40
  7
standard
210
0
220
0
230
1
 50
0
 73
    2
 44
1
  0
SOLID
  5
156
100
AcDbEntity
  8
Dimensions_slots
  6
ByBlock
 62
    0
370
   -2
100
AcDbTrace
 10
33.35
 20
-40
 30
0
 11
35.85
 21
-39.58371534222716
 31
0
 12
35.85
 22
-40.41628465777284
 32
0
 13
35.85
 23
-40.41628465777284
 33
0
  0
SOLID
  5
157
100
AcDbEntity
  8
Dimensions_slots
  6
ByBlock
 62
    0
370
   -2
100
AcDbTrace
 10
58.75
 20
-40
 30
0
 11
56.25
 21
-40.41628465777284
 31
0
 12
56.25
 22
-39.58371534222716
 32
0
 13
56.25
 23
-39.58371534222716
 33
0
  0
LINE
  5
158
100
AcDbEntity
  8
Dimensions_slots
  6
ByBlock
 62
    0
370
   -2
100
AcDbLine
 10
33.35
 20
8.375
 11
33.35
 21
-41.25
  0
LINE
  5
159
100
AcDbEntity
  8
Dimensions_slots
  6
ByBlock
 62
    0
370
   -2
100
AcDbLine
 10
58.75
 20
8.375
 11
58.75
 21
-41.25
  0
ENDBLK
  5
A2
330
A0
100
AcDbEntity
  8
0
100
AcDbBlockEnd
  0
BLOCK
  5
A4
330
A3
100
AcDbEntity
  8
0
100
AcDbBlockBegin
  2
*D2
 70
    1
 10
0
 20
0
  3
*D2
  1

  0
LINE
  5
15A
100
AcDbEntity
  8
Dimensions_outline
  6
ByBlock
 62
    0
370
   -2
100
AcDbLine
 10
-79.30000000000001
 20
60
 11
79.30000000000001
 21
60
  0
MTEXT
  5
15B
100
AcDbEntity
  8
Dimensions_outline
  6
CONTINUOUS
 62
    0
370
   -2
100
AcDbMText
 10
1.148068456708479e-16
 20
61.875
 30
0
 40
2.5
 41
9.166666666666977
 71
    5
 72
    1
  1
158.60
  7
standard
210
0
220
0
230
1
 50
0
 73
    2
 44
1
  0
SOLID
  5
15C
100
AcDbEntity
  8
Dimensions_outline
  6
ByBlock
 62
    0
370
   -2
100
AcDbTrace
 10
-79.30000000000001
 20
60
 30
0
 11
-76.80000000000001
 21
60.41628465777284
 31
0
 12
-76.80000000000001
 22
59.58371534222716
 32
0
 13
-76.80000000000001
 23
59.58371534222716
 33
0
  0
SOLID
  5
15D
100
AcDbEntity
  8
Dimensions_outline
  6
ByBlock
 62
    0
370
   -2
100
AcDbTrace
 10
79.30000000000001
 20
60
 30
0
 11
76.80000000000001
 21
59.58371534222716
 31
0
 12
76.80000000000001
 22
60.41628465777284
 32
0
 13
76.80000000000001
 23
60.41628465777284
 33
0
  0
LINE
  5
15E
100
AcDbEntity
  8
Dimensions_outline
  6
ByBlock
 62
    0
370
   -2
100
AcDbLine
 10
-79.30000000000001
 20
37.625
 11
-79.30000000000001
 21
61.25
  0
LINE
  5
15F
100
AcDbEntity
  8
Dimensions_outline
  6
ByBlock
 62
    0
370
   -2
100
AcDbLine
 10
79.30000000000001
 20
37.625
 11
79.30000000000001
 21
61.25
  0
ENDBLK
  5
A5
330
A3
100
AcDbEntity
  8
0
100
AcDbBlockEnd
  0
BLOCK
  5
A7
330
A6
100
AcDbEntity
  8
0
100
AcDbBlockBegin
  2
*D35
 70
    1
 10
0
 20
0
  3
*D35
  1

  0
LINE
  5
160
100
AcDbEntity
  8
Dimensions_screw_holes
  6
ByBlock
 62
    0
370
   -2
100
AcDbLine
 10
-75.40000000000001
 20
50
 11
75.40000000000001
 21
50
  0
MTEXT
  5
161
100
AcDbEntity
  8
Dimensions_screw_holes
  6
CONTINUOUS
 62
    0
370
   -2
100
AcDbMText
 10
1.148068456708479e-16
 20
51.875
 30
0
 40
2.5
 41
21.52777777777793
 71
    5
 72
    1
  1
150.80 %%P 0.20
  7
standard
210
0
220
0
230
1
 50
0
 73
    2
 44
1
  0
SOLID
  5
162
100
AcDbEntity
  8
Dimensions_screw_holes
  6
ByBlock
 62
    0
370
   -2
100
AcDbTrace
 10
-75.40000000000001
 20
50
 30
0
 11
-72.90000000000001
 21
50.41628465777284
 31
0
 12
-72.90000000000001
 22
49.58371534222716
 32
0
 13
-72.90000000000001
 23
49.58371534222716
 33
0
  0
SOLID
  5
163
100
AcDbEntity
  8
Dimensions_screw_holes
  6
ByBlock
 62
    0
370
   -2
100
AcDbTrace
 10
75.40000000000001
 20
50
 30
0
 11
72.90000000000001
 21
49.58371534222716
 31
0
 12
72.90000000000001
 22
50.41628465777284
 32
0
 13
72.90000000000001
 23
50.41628465777284
 33
0
  0
LINE
  5
164
100
AcDbEntity
  8
Dimensions_screw_holes
  6
ByBlock
 62
    0
370
   -2
100
AcDbLine
 10
-75.40000000000001
 20
37.875
 11
-75.40000000000001
 21
51.25
  0
LINE
  5
165
100
AcDbEntity
  8
Dimensions_screw_holes
  6
ByBlock
 62
    0
370
   -2
100
AcDbLine
 10
75.40000000000001
 20
37.875
 11
75.40000000000001
 21
51.25
  0
ENDBLK
  5
A8
330
A6
100
AcDbEntity
  8
0
100
AcDbBlockEnd
  0
BLOCK
  5
AA
330
A9
100
AcDbEntity
  8
0
100
AcDbBlockBegin
  2
*D5
 70
    1
 10
0
 20
0
  3
*D5
  1

  0
LINE
  5
166
100
AcDbEntity
  8
Dimensions_holes
  6
ByBlock
 62
    0
370
   -2
100
AcDbLine
 10
-69
 20
11.1
 11
-69
 21
0
  0
MTEXT
  5
167
100
AcDbEntity
  8
Dimensions_holes
  6
CONTINUOUS
 62
    0
370
   -2
100
AcDbMText
 10
-70.875
 20
5.55
 30
0
 40
2.5
 41
6.111111111111112
 71
    5
 72
    1
  1
11.10
  7
standard
210
0
220
0
230
1
 50
90
 73
    2
 44
1
  0
SOLID
  5
168
100
AcDbEntity
  8
Dimensions_holes
  6
ByBlock
 62
    0
370
   -2
100
AcDbTrace
 10
-69
 20
11.1
 30
0
 11
-68.58371534222717
 21
8.6
 31
0
 12
-69.41628465777283
 22
8.6
 32
0
 13
-69.41628465777283
 23
8.6
 33
0
  0
SOLID
  5
169
100
AcDbEntity
  8
Dimensions_holes
  6
ByBlock
 62
    0
370
   -2
100
AcDbTrace
 10
-69
 20
0
 30
0
 11
-69.41628465777283
 21
2.5
 31
0
 12
-68.58371534222717
 22
2.5
 32
0
 13
-68.58371534222717
 23
2.5
 33
0
  0
LINE
  5
16A
100
AcDbEntity
  8
Dimensions_holes
  6
ByBlock
 62
    0
370
   -2
100
AcDbLine
 10
-64.125
 20
11.1
 11
-70.25
 21
11.1
  0
LINE
  5
16B
100
AcDbEntity
  8
Dimensions_holes
  6
ByBlock
 62
    0
370
   -2
100
AcDbLine
 10
-64.125
 20
7.653789711389858e-17
 11
-70.25
 21
1.530757942277972e-16
  0
ENDBLK
  5
AB
330
A9
100
AcDbEntity
  8
0
100
AcDbBlockEnd
  0
BLOCK
  5
AD
330
AC
100
AcDbEntity
  8
0
100
AcDbBlockBegin
  2
*D14
 70
    1
 10
0
 20
0
  3
*D14
  1

  0
LINE
  5
16C
100
AcDbEntity
  8
Dimensions_slots
  6
ByBlock
 62
    0
370
   -2
100
AcDbLine
 10
33.35
 20
-40
 11
0
 21
-40
  0
MTEXT
  5
16D
100
AcDbEntity
  8
Dimensions_slots
  6
CONTINUOUS
 62
    0
370
   -2
100
AcDbMText
 10
16.675
 20
-38.125
 30
0
 40
2.5
 41
7.777777777778397
 71
    5
 72
    1
  1
33.35
  7
standard
210
0
220
0
230
1
 50
0
 73
    2
 44
1
  0
SOLID
  5
16E
100
AcDbEntity
  8
Dimensions_slots
  6
ByBlock
 62
    0
370
   -2
100
AcDbTrace
 10
33.35
 20
-40
 30
0
 11
30.85
 21
-40.41628465777284
 31
0
 12
30.85
 22
-39.58371534222716
 32
0
 13
30.85
 23
-39.58371534222716
 33
0
  0
SOLID
  5
16F
100
AcDbEntity
  8
Dimensions_slots
  6
ByBlock
 62
    0
370
   -2
100
AcDbTrace
 10
0
 20
-40
 30
0
 11
2.5
 21
-39.58371534222716
 31
0
 12
2.5
 22
-40.41628465777284
 32
0
 13
2.5
 23
-40.41628465777284
 33
0
  0
LINE
  5
170
100
AcDbEntity
  8
Dimensions_slots
  6
ByBlock
 62
    0
370
   -2
100
AcDbLine
 10
33.35
 20
8.375
 11
33.35
 21
-41.25
  0
LINE
  5
171
100
AcDbEntity
  8
Dimensions_slots
  6
ByBlock
 62
    0
370
   -2
100
AcDbLine
 10
-1.148068456708479e-16
 20
-0.625
 11
-2.296136913416957e-16
 21
-41.25
  0
ENDBLK
  5
AE
330
AC
100
AcDbEntity
  8
0
100
AcDbBlockEnd
  0
BLOCK
  5
B0
330
AF
100
AcDbEntity
  8
0
100
AcDbBlockBegin
  2
*D18
 70
    1
 10
0
 20
0
  3
*D18
  1

  0
LINE
  5
172
100
AcDbEntity
  8
Dimensions_slots
  6
ByBlock
 62
    0
370
   -2
100
AcDbLine
 10
72
 20
2.75
 11
72
 21
16.45
  0
MTEXT
  5
173
100
AcDbEntity
  8
Dimensions_slots
  6
CONTINUOUS
 62
    0
370
   -2
100
AcDbMText
 10
70.125
 20
14.99166666666674
 30
0
 40
2.5
 41
5.833333333333488
 71
    5
 72
    1
  1
3.70
  7
standard
210
0
220
0
230
1
 50
90
 73
    2
 44
1
  0
SOLID
  5
174
100
AcDbEntity
  8
Dimensions_slots
  6
ByBlock
 62
    0
370
   -2
100
AcDbTrace
 10
72
 20
7.75
 30
0
 11
72.41628465777283
 21
5.25
 31
0
 12
71.58371534222717
 22
5.25
 32
0
 13
71.58371534222717
 23
5.25
 33
0
  0
SOLID
  5
175
100
AcDbEntity
  8
Dimensions_slots
  6
ByBlock
 62
    0
370
   -2
100
AcDbTrace
 10
72
 20
11.45
 30
0
 11
71.58371534222717
 21
13.95
 31
0
 12
72.41628465777283
 22
13.95
 32
0
 13
72.41628465777283
 23
13.95
 33
0
  0
LINE
  5
176
100
AcDbEntity
  8
Dimensions_slots
  6
ByBlock
 62
    0
370
   -2
100
AcDbLine
 10
67.625
 20
7.75
 11
73.25
 21
7.75
  0
LINE
  5
177
100
AcDbEntity
  8
Dimensions_slots
  6
ByBlock
 62
    0
370
   -2
100
AcDbLine
 10
67.625
 20
11.45
 11
73.25
 21
11.45
  0
ENDBLK
  5
B1
330
AF
100
AcDbEntity
  8
0
100
AcDbBlockEnd
  0
BLOCK
  5
B3
330
B2
100
AcDbEntity
  8
0
100
AcDbBlockBegin
  2
*D30
 70
    1
 10
0
 20
0
  3
*D30
  1

  0
LINE
  5
178
100
AcDbEntity
  8
Dimensions_display
  6
ByBlock
 62
    0
370
   -2
100
AcDbLine
 10
15
 20
9.449999999999999
 11
15
 21
-7.993605777301126e-16
  0
MTEXT
  5
179
100
AcDbEntity
  8
Dimensions_display
  6
CONTINUOUS
 62
    0
370
   -2
100
AcDbMText
 10
13.125
 20
4.725
 30
0
 40
2.5
 41
6.111111111111422
 71
    5
 72
    1
  1
9.45
  7
standard
210
0
220
0
230
1
 50
90
 73
    2
 44
1
  0
SOLID
  5
17A
100
AcDbEntity
  8
Dimensions_display
  6
ByBlock
 62
    0
370
   -2
100
AcDbTrace
 10
15
 20
9.449999999999999
 30
0
 11
15.41628465777284
 21
6.949999999999999
 31
0
 12
14.58371534222716
 22
6.949999999999999
 32
0
 13
14.58371534222716
 23
6.949999999999999
 33
0
  0
SOLID
  5
17B
100
AcDbEntity
  8
Dimensions_display
  6
ByBlock
 62
    0
370
   -2
100
AcDbTrace
 10
15
 20
-7.993605777301126e-16
 30
0
 11
14.58371534222716
 21
2.499999999999999
 31
0
 12
15.41628465777284
 22
2.499999999999999
 32
0
 13
15.41628465777284
 23
2.499999999999999
 33
0
  0
LINE
  5
17C
100
AcDbEntity
  8
Dimensions_display
  6
ByBlock
 62
    0
370
   -2
100
AcDbLine
 10
7.625
 20
9.449999999999999
 11
16.25
 21
9.449999999999999
  0
LINE
  5
17D
100
AcDbEntity
  8
Dimensions_display
  6
ByBlock
 62
    0
370
   -2
100
AcDbLine
 10
0.625
 20
0
 11
16.25
 21
-7.993605777301126e-16
  0
ENDBLK
  5
B4
330
B2
100
AcDbEntity
  8
0
100
AcDbBlockEnd
  0
BLOCK
  5
B6
330
B5
100
AcDbEntity
  8
0
100
AcDbBlockBegin
  2
*D23
 70
    1
 10
0
 20
0
  3
*D23
  1

  0
LINE
  5
17E
100
AcDbEntity
  8
Dimensions_holes
  6
ByBlock
 62
    0
370
   -2
100
AcDbLine
 10
22
 20
12.05
 11
22
 21
2.1316282072803e-16
  0
MTEXT
  5
17F
100
AcDbEntity
  8
Dimensions_holes
  6
CONTINUOUS
 62
    0
370
   -2
100
AcDbMText
 10
20.125
 20
6.025
 30
0
 40
2.5
 41
7.222222222222378
 71
    5
 72
    1
  1
12.05
  7
standard
210
0
220
0
230
1
 50
90
 73
    2
 44
1
  0
SOLID
  5
180
100
AcDbEntity
  8
Dimensions_holes
  6
ByBlock
 62
    0
370
   -2
100
AcDbTrace
 10
22
 20
12.05
 30
0
 11
22.41628465777284
 21
9.550000000000001
 31
0
 12
21.58371534222716
 22
9.550000000000001
 32
0
 13
21.58371534222716
 23
9.550000000000001
 33
0
  0
SOLID
  5
181
100
AcDbEntity
  8
Dimensions_holes
  6
ByBlock
 62
    0
370
   -2
100
AcDbTrace
 10
22
 20
2.1316282072803e-16
 30
0
 11
21.58371534222716
 21
2.5
 31
0
 12
22.41628465777284
 22
2.5
 32
0
 13
22.41628465777284
 23
2.5
 33
0
  0
LINE
  5
182
100
AcDbEntity
  8
Dimensions_holes
  6
ByBlock
 62
    0
370
   -2
100
AcDbLine
 10
24.775
 20
12.05
 11
20.75
 21
12.05
  0
LINE
  5
183
100
AcDbEntity
  8
Dimensions_holes
  6
ByBlock
 62
    0
370
   -2
100
AcDbLine
 10
24.375
 20
7.653789711389858e-17
 11
20.75
 21
3.662386149558272e-16
  0
ENDBLK
  5
B7
330
B5
100
AcDbEntity
  8
0
100
AcDbBlockEnd
  0
BLOCK
  5
B9
330
B8
100
AcDbEntity
  8
0
100
AcDbBlockBegin
  2
*D8
 70
    1
 10
0
 20
0
  3
*D8
  1

  0
LINE
  5
184
100
AcDbEntity
  8
Dimensions_holes
  6
ByBlock
 62
    0
370
   -2
100
AcDbLine
 10
25.4
 20
-50
 11
50.8
 21
-50
  0
MTEXT
  5
185
100
AcDbEntity
  8
Dimensions_holes
  6
CONTINUOUS
 62
    0
370
   -2
100
AcDbMText
 10
38.09999999999999
 20
-48.125
 30
0
 40
2.5
 41
8.055555555555712
 71
    5
 72
    1
  1
25.40
  7
standard
210
0
220
0
230
1
 50
0
 73
    2
 44
1
  0
SOLID
  5
186
100
AcDbEntity
  8
Dimensions_holes
  6
ByBlock
 62
    0
370
   -2
100
AcDbTrace
 10
25.4
 20
-50
 30
0
 11
27.9
 21
-49.58371534222716
 31
0
 12
27.9
 22
-50.41628465777284
 32
0
 13
27.9
 23
-50.41628465777284
 33
0
  0
SOLID
  5
187
100
AcDbEntity
  8
Dimensions_holes
  6
ByBlock
 62
    0
370
   -2
100
AcDbTrace
 10
50.8
 20
-50
 30
0
 11
48.3
 21
-50.41628465777284
 31
0
 12
48.3
 22
-49.58371534222716
 32
0
 13
48.3
 23
-49.58371534222716
 33
0
  0
LINE
  5
188
100
AcDbEntity
  8
Dimensions_holes
  6
ByBlock
 62
    0
370
   -2
100
AcDbLine
 10
25.4
 20
11.425
 11
25.4
 21
-51.25
  0
LINE
  5
189
100
AcDbEntity
  8
Dimensions_holes
  6
ByBlock
 62
    0
370
   -2
100
AcDbLine
 10
50.8
 20
11.425
 11
50.8
 21
-51.25
  0
ENDBLK
  5
BA
330
B8
100
AcDbEntity
  8
0
100
AcDbBlockEnd
  0
BLOCK
  5
BC
330
BB
100
AcDbEntity
  8
0
100
AcDbBlockBegin
  2
*D4
 70
    1
 10
0
 20
0
  3
*D4
  1

  0
LINE
  5
18A
100
AcDbEntity
  8
Dimensions_holes
  6
ByBlock
 62
    0
370
   -2
100
AcDbLine
 10
-63.5
 20
-50
 11
0
 21
-50
  0
MTEXT
  5
18B
100
AcDbEntity
  8
Dimensions_holes
  6
CONTINUOUS
 62
    0
370
   -2
100
AcDbMText
 10
-31.75
 20
-48.125
 30
0
 40
2.5
 41
7.777777777778243
 71
    5
 72
    1
  1
63.50
  7
standard
210
0
220
0
230
1
 50
0
 73
    2
 44
1
  0
SOLID
  5
18C
100
AcDbEntity
  8
Dimensions_holes
  6
ByBlock
 62
    0
370
   -2
100
AcDbTrace
 10
-63.5
 20
-50
 30
0
 11
-61
 21
-49.58371534222716
 31
0
 12
-61
 22
-50.41628465777284
 32
0
 13
-61
 23
-50.41628465777284
 33
0
  0
SOLID
  5
18D
100
AcDbEntity
  8
Dimensions_holes
  6
ByBlock
 62
    0
370
   -2
100
AcDbTrace
 10
0
 20
-50
 30
0
 11
-2.5
 21
-50.41628465777284
 31
0
 12
-2.5
 22
-49.58371534222716
 32
0
 13
-2.5
 23
-49.58371534222716
 33
0
  0
LINE
  5
18E
100
AcDbEntity
  8
Dimensions_holes
  6
ByBlock
 62
    0
370
   -2
100
AcDbLine
 10
-63.5
 20
10.475
 11
-63.5
 21
-51.25
  0
LINE
  5
18F
100
AcDbEntity
  8
Dimensions_holes
  6
ByBlock
 62
    0
370
   -2
100
AcDbLine
 10
-1.148068456708479e-16
 20
-0.625
 11
-2.296136913416957e-16
 21
-51.25
  0
ENDBLK
  5
BD
330
BB
100
AcDbEntity
  8
0
100
AcDbBlockEnd
  0
BLOCK
  5
BF
330
BE
100
AcDbEntity
  8
0
100
AcDbBlockBegin
  2
*D39
 70
    1
 10
0
 20
0
  3
*D39
  1

  0
LINE
  5
190
100
AcDbEntity
  8
Dimensions_outline
  6
ByBlock
 62
    0
370
   -2
100
AcDbLine
 10
0
 20
-70
 11
-79.3
 21
-70
  0
MTEXT
  5
191
100
AcDbEntity
  8
Dimensions_outline
  6
CONTINUOUS
 62
    0
370
   -2
100
AcDbMText
 10
-39.65
 20
-68.125
 30
0
 40
2.5
 41
7.777777777777933
 71
    5
 72
    1
  1
79.30
  7
standard
210
0
220
0
230
1
 50
0
 73
    2
 44
1
  0
SOLID
  5
192
100
AcDbEntity
  8
Dimensions_outline
  6
ByBlock
 62
    0
370
   -2
100
AcDbTrace
 10
0
 20
-70
 30
0
 11
-2.5
 21
-70.41628465777283
 31
0
 12
-2.5
 22
-69.58371534222717
 32
0
 13
-2.5
 23
-69.58371534222717
 33
0
  0
SOLID
  5
193
100
AcDbEntity
  8
Dimensions_outline
  6
ByBlock
 62
    0
370
   -2
100
AcDbTrace
 10
-79.3
 20
-70
 30
0
 11
-76.8
 21
-69.58371534222717
 31
0
 12
-76.8
 22
-70.41628465777283
 32
0
 13
-76.8
 23
-70.41628465777283
 33
0
  0
LINE
  5
194
100
AcDbEntity
  8
Dimensions_outline
  6
ByBlock
 62
    0
370
   -2
100
AcDbLine
 10
-1.148068456708479e-16
 20
-0.625
 11
-2.296136913416957e-16
 21
-71.25
  0
LINE
  5
195
100
AcDbEntity
  8
Dimensions_outline
  6
ByBlock
 62
    0
370
   -2
100
AcDbLine
 10
-79.3
 20
3.125
 11
-79.3
 21
-71.25
  0
ENDBLK
  5
C0
330
BE
100
AcDbEntity
  8
0
100
AcDbBlockEnd
  0
BLOCK
  5
C2
330
C1
100
AcDbEntity
  8
0
100
AcDbBlockBegin
  2
*D31
 70
    1
 10
0
 20
0
  3
*D31
  1

  0
LINE
  5
196
100
AcDbEntity
  8
Dimensions_display
  6
ByBlock
 62
    0
370
   -2
100
AcDbLine
 10
15
 20
9.449999999999999
 11
15
 21
27.85
  0
MTEXT
  5
197
100
AcDbEntity
  8
Dimensions_display
  6
CONTINUOUS
 62
    0
370
   -2
100
AcDbMText
 10
13.125
 20
18.65
 30
0
 40
2.5
 41
7.5
 71
    5
 72
    1
  1
18.40
  7
standard
210
0
220
0
230
1
 50
90
 73
    2
 44
1
  0
SOLID
  5
198
100
AcDbEntity
  8
Dimensions_display
  6
ByBlock
 62
    0
370
   -2
100
AcDbTrace
 10
15
 20
9.449999999999999
 30
0
 11
14.58371534222716
 21
11.95
 31
0
 12
15.41628465777284
 22
11.95
 32
0
 13
15.41628465777284
 23
11.95
 33
0
  0
SOLID
  5
199
100
AcDbEntity
  8
Dimensions_display
  6
ByBlock
 62
    0
370
   -2
100
AcDbTrace
 10
15
 20
27.85
 30
0
 11
15.41628465777284
 21
25.35
 31
0
 12
14.58371534222716
 22
25.35
 32
0
 13
14.58371534222716
 23
25.35
 33
0
  0
LINE
  5
19A
100
AcDbEntity
  8
Dimensions_display
  6
ByBlock
 62
    0
370
   -2
100
AcDbLine
 10
7.625
 20
9.449999999999999
 11
16.25
 21
9.449999999999999
  0
LINE
  5
19B
100
AcDbEntity
  8
Dimensions_display
  6
ByBlock
 62
    0
370
   -2
100
AcDbLine
 10
10.025
 20
27.85
 11
16.25
 21
27.85
  0
ENDBLK
  5
C3
330
C1
100
AcDbEntity
  8
0
100
AcDbBlockEnd
  0
BLOCK
  5
C5
330
C4
100
AcDbEntity
  8
0
100
AcDbBlockBegin
  2
*D1
 70
    1
 10
0
 20
0
  3
*D1
  1

  0
LINE
  5
19C
100
AcDbEntity
  8
Dimensions_outline
  6
ByBlock
 62
    0
370
   -2
100
AcDbLine
 10
-100
 20
0
 11
-100
 21
41
  0
MTEXT
  5
19D
100
AcDbEntity
  8
Dimensions_outline
  6
CONTINUOUS
 62
    0
370
   -2
100
AcDbMText
 10
-101.875
 20
20.5
 30
0
 40
2.5
 41
7.5
 71
    5
 72
    1
  1
41.00
  7
standard
210
0
220
0
230
1
 50
90
 73
    2
 44
1
  0
SOLID
  5
19E
100
AcDbEntity
  8
Dimensions_outline
  6
ByBlock
 62
    0
370
   -2
100
AcDbTrace
 10
-100
 20
0
 30
0
 11
-100.4162846577728
 21
2.5
 31
0
 12
-99.58371534222717
 22
2.5
 32
0
 13
-99.58371534222717
 23
2.5
 33
0
  0
SOLID
  5
19F
100
AcDbEntity
  8
Dimensions_outline
  6
ByBlock
 62
    0
370
   -2
100
AcDbTrace
 10
-100
 20
41
 30
0
 11
-99.58371534222717
 21
38.5
 31
0
 12
-100.4162846577728
 22
38.5
 32
0
 13
-100.4162846577728
 23
38.5
 33
0
  0
LINE
  5
1A0
100
AcDbEntity
  8
Dimensions_outline
  6
ByBlock
 62
    0
370
   -2
100
AcDbLine
 10
-75.625
 20
7.653789711389858e-17
 11
-101.25
 21
1.530757942277972e-16
  0
LINE
  5
1A1
100
AcDbEntity
  8
Dimensions_outline
  6
ByBlock
 62
    0
370
   -2
100
AcDbLine
 10
-75.625
 20
41
 11
-101.25
 21
41
  0
ENDBLK
  5
C6
330
C4
100
AcDbEntity
  8
0
100
AcDbBlockEnd
  0
BLOCK
  5
C8
330
C7
100
AcDbEntity
  8
0
100
AcDbBlockBegin
  2
*D16
 70
    1
 10
0
 20
0
  3
*D16
  1

  0
LINE
  5
1A2
100
AcDbEntity
  8
Dimensions_slots
  6
ByBlock
 62
    0
370
   -2
100
AcDbLine
 10
33.35
 20
-30
 11
42.85
 21
-30
  0
MTEXT
  5
1A3
100
AcDbEntity
  8
Dimensions_slots
  6
CONTINUOUS
 62
    0
370
   -2
100
AcDbMText
 10
38.1
 20
-28.125
 30
0
 40
2.5
 41
5.833333333333645
 71
    5
 72
    1
  1
9.50
  7
standard
210
0
220
0
230
1
 50
0
 73
    2
 44
1
  0
SOLID
  5
1A4
100
AcDbEntity
  8
Dimensions_slots
  6
ByBlock
 62
    0
370
   -2
100
AcDbTrace
 10
33.35
 20
-30
 30
0
 11
35.85
 21
-29.58371534222716
 31
0
 12
35.85
 22
-30.41628465777284
 32
0
 13
35.85
 23
-30.41628465777284
 33
0
  0
SOLID
  5
1A5
100
AcDbEntity
  8
Dimensions_slots
  6
ByBlock
 62
    0
370
   -2
100
AcDbTrace
 10
42.85
 20
-30
 30
0
 11
40.35
 21
-30.41628465777284
 31
0
 12
40.35
 22
-29.58371534222716
 32
0
 13
40.35
 23
-29.58371534222716
 33
0
  0
LINE
  5
1A6
100
AcDbEntity
  8
Dimensions_slots
  6
ByBlock
 62
    0
370
   -2
100
AcDbLine
 10
33.35
 20
8.375
 11
33.35
 21
-31.25
  0
LINE
  5
1A7
100
AcDbEntity
  8
Dimensions_slots
  6
ByBlock
 62
    0
370
   -2
100
AcDbLine
 10
42.85
 20
8.375
 11
42.85
 21
-31.25
  0
ENDBLK
  5
C9
330
C7
100
AcDbEntity
  8
0
100
AcDbBlockEnd
  0
ENDSEC
  0
SECTION
  2
ENTITIES
  0
DIMENSION
  5
1A8
100
AcDbEntity
  8
Dimensions_outline
  6
ByLayer
 62
  256
370
   -1
100
AcDbDimension
  2
*D1
 10
-100
 20
41
 30
0
 11
-101.875
 21
20.5
 31
0
 70
   32
 71
    5
  3
Standard
 53
0
210
0
220
0
230
1
100
AcDbAlignedDimension
 13
-75
 23
0
 33
0
 14
-75
 24
41
 34
0
 50
90
100
AcDbRotatedDimension
  0
DIMENSION
  5
1A9
100
AcDbEntity
  8
Dimensions_outline
  6
ByLayer
 62
  256
370
   -1
100
AcDbDimension
  2
*D2
 10
79.30000000000001
 20
60
 30
0
 11
1.148068456708479e-16
 21
61.875
 31
0
 70
   32
 71
    5
  3
Standard
 53
0
210
0
220
0
230
1
100
AcDbAlignedDimension
 13
-79.30000000000001
 23
37
 33
0
 14
79.30000000000001
 24
37
 34
0
100
AcDbRotatedDimension
  0
LINE
  5
1AA
100
AcDbEntity
  8
0
  6
ByLayer
 62
  256
370
   -1
100
AcDbLine
 10
75.55
 20
0
 11
-75.55
 21
0
  0
LINE
  5
1AB
100
AcDbEntity
  8
0
  6
ByLayer
 62
  256
370
   -1
100
AcDbLine
 10
75.55
 20
41
 11
-75.55
 21
41
  0
ARC
  5
1AC
100
AcDbEntity
  8
0
  6
ByLayer
 62
  256
370
   -1
100
AcDbCircle
 10
-75.55
 20
3.75
 40
3.75
100
AcDbArc
 50
180
 51
270
  0
LINE
  5
1AD
100
AcDbEntity
  8
0
  6
ByLayer
 62
  256
370
   -1
100
AcDbLine
 10
-79.3
 20
37.25
 11
-79.3
 21
3.75
  0
LINE
  5
1AE
100
AcDbEntity
  8
0
  6
ByLayer
 62
  256
370
   -1
100
AcDbLine
 10
79.30000000000003
 20
37.25
 11
79.30000000000003
 21
3.749999999999998
  0
ARC
  5
1AF
100
AcDbEntity
  8
0
  6
ByLayer
 62
  256
370
   -1
100
AcDbCircle
 10
75.55
 20
3.75
 40
3.75
100
AcDbArc
 50
270
 51
0
  0
ARC
  5
1B0
100
AcDbEntity
  8
0
  6
ByLayer
 62
  256
370
   -1
100
AcDbCircle
 10
75.55
 20
37.25
 40
3.75
100
AcDbArc
 50
0
 51
90
  0
ARC
  5
1B1
100
AcDbEntity
  8
0
  6
ByLayer
 62
  256
370
   -1
100
AcDbCircle
 10
-75.55
 20
37.25
 40
3.75
100
AcDbArc
 50
90
 51
180
  0
CIRCLE
  5
1B2
100
AcDbEntity
  8
0
  6
ByLayer
 62
  256
370
   -1
100
AcDbCircle
 10
-75.40000000000001
 20
3.75
 40
1.7
  0
CIRCLE
  5
1B3
100
AcDbEntity
  8
0
  6
ByLayer
 62
  256
370
   -1
100
AcDbCircle
 10
75.40000000000001
 20
37.25
 40
1.7
  0
DIMENSION
  5
1B4
100
AcDbEntity
  8
Dimensions_outline
  6
ByLayer
 62
  256
370
   -1
100
AcDbDimension
  2
*D3
 10
-75.55
 20
37.25
 30
0
 11
-85.07957399019612
 21
45.343201620287
 31
0
 70
   36
  1
4-R3.75
 71
    5
  3
Standard
 53
0
210
0
220
0
230
1
100
AcDbRadialDimension
 15
-78.74002107660945
 25
39.22136133947775
 35
0
 40
0
  0
CIRCLE
  5
1B5
100
AcDbEntity
  8
0
  6
DASHED
 62
  256
370
   -1
100
AcDbCircle
 10
-75.40000000000001
 20
37.25
 40
2.75
  0
CIRCLE
  5
1B6
100
AcDbEntity
  8
0
  6
DASHED
 62
  256
370
   -1
100
AcDbCircle
 10
75.40000000000001
 20
37.25
 40
2.75
  0
CIRCLE
  5
1B7
100
AcDbEntity
  8
0
  6
DASHED
 62
  256
370
   -1
100
AcDbCircle
 10
75.40000000000001
 20
3.75
 40
2.75
  0
CIRCLE
  5
1B8
100
AcDbEntity
  8
0
  6
DASHED
 62
  256
370
   -1
100
AcDbCircle
 10
-75.40000000000001
 20
3.75
 40
2.75
  0
CIRCLE
  5
1B9
100
AcDbEntity
  8
0
  6
ByLayer
 62
  256
370
   -1
100
AcDbCircle
 10
-63.5
 20
11.1
 40
2.75
  0
DIMENSION
  5
1BA
100
AcDbEntity
  8
Dimensions_holes
  6
ByLayer
 62
  256
370
   -1
100
AcDbDimension
  2
*D4
 10
-3.061515884555943e-15
 20
-50
 30
0
 11
-31.75
 21
-48.125
 31
0
 70
   32
 71
    5
  3
Standard
 53
0
210
0
220
0
230
1
100
AcDbAlignedDimension
 13
-63.5
 23
11.1
 33
0
 14
0
 24
0
 34
0
100
AcDbRotatedDimension
  0
DIMENSION
  5
1BB
100
AcDbEntity
  8
Dimensions_holes
  6
ByLayer
 62
  256
370
   -1
100
AcDbDimension
  2
*D5
 10
-69
 20
6.735334946023075e-16
 30
0
 11
-70.875
 21
5.55
 31
0
 70
   32
 71
    5
  3
Standard
 53
0
210
0
220
0
230
1
100
AcDbAlignedDimension
 13
-63.5
 23
11.1
 33
0
 14
-63.5
 24
-0
 34
0
 50
90
100
AcDbRotatedDimension
  0
DIMENSION
  5
1BC
100
AcDbEntity
  8
Dimensions_holes
  6
ByLayer
 62
  256
370
   -1
100
AcDbDimension
  2
*D6
 10
-64.98408181548119
 20
8.784832367849347
 30
0
 11
-65.07852338555726
 21
12.11187396510081
 31
0
 70
   35
  1
%%C<>
 71
    5
  3
Standard
 53
0
210
0
220
0
230
1
100
AcDbDiametricDimension
 15
-62.01591818451881
 25
13.41516763215065
 35
0
 40
0
  0
CIRCLE
  5
1BD
100
AcDbEntity
  8
0
  6
ByLayer
 62
  256
370
   -1
100
AcDbCircle
 10
50.8
 20
12.05
 40
1.875
  0
CIRCLE
  5
1BE
100
AcDbEntity
  8
0
  6
ByLayer
 62
  256
370
   -1
100
AcDbCircle
 10
25.4
 20
12.05
 40
1.875
  0
DIMENSION
  5
1BF
100
AcDbEntity
  8
Dimensions_holes
  6
ByLayer
 62
  256
370
   -1
100
AcDbDimension
  2
*D7
 10
-3.061515884555943e-15
 20
-50
 30
0
 11
12.7
 21
-48.125
 31
0
 70
   32
 71
    5
  3
Standard
 53
0
210
0
220
0
230
1
100
AcDbAlignedDimension
 13
25.4
 23
12.05
 33
0
 14
0
 24
0
 34
0
100
AcDbRotatedDimension
  0
DIMENSION
  5
1C0
100
AcDbEntity
  8
Dimensions_holes
  6
ByLayer
 62
  256
370
   -1
100
AcDbDimension
  2
*D8
 10
50.79999999999999
 20
-50
 30
0
 11
38.09999999999999
 21
-48.125
 31
0
 70
   32
 71
    5
  3
Standard
 53
0
210
0
220
0
230
1
100
AcDbAlignedDimension
 13
25.4
 23
12.05
 33
0
 14
50.8
 24
12.05
 34
0
100
AcDbRotatedDimension
  0
LINE
  5
1C1
100
AcDbEntity
  8
0
  6
ByLayer
 62
  256
370
   -1
100
AcDbLine
 10
-44.95
 20
7.5
 11
-31.25
 21
7.5
  0
LINE
  5
1C2
100
AcDbEntity
  8
0
  6
ByLayer
 62
  256
370
   -1
100
AcDbLine
 10
-44.95
 20
10.5
 11
-31.25
 21
10.5
  0
LINE
  5
1C3
100
AcDbEntity
  8
0
  6
ByLayer
 62
  256
370
   -1
100
AcDbLine
 10
-45.95
 20
9.5
 11
-45.95
 21
8.5
  0
LINE
  5
1C4
100
AcDbEntity
  8
0
  6
ByLayer
 62
  256
370
   -1
100
AcDbLine
 10
-30.25
 20
9.5
 11
-30.25
 21
8.5
  0
ARC
  5
1C5
100
AcDbEntity
  8
0
  6
ByLayer
 62
  256
370
   -1
100
AcDbCircle
 10
-44.95
 20
9.5
 40
1
100
AcDbArc
 50
90
 51
180
  0
ARC
  5
1C6
100
AcDbEntity
  8
0
  6
ByLayer
 62
  256
370
   -1
100
AcDbCircle
 10
-44.95
 20
8.5
 40
1
100
AcDbArc
 50
180
 51
270
  0
ARC
  5
1C7
100
AcDbEntity
  8
0
  6
ByLayer
 62
  256
370
   -1
100
AcDbCircle
 10
-31.25
 20
9.5
 40
1
100
AcDbArc
 50
0
 51
90
  0
ARC
  5
1C8
100
AcDbEntity
  8
0
  6
ByLayer
 62
  256
370
   -1
100
AcDbCircle
 10
-31.25
 20
8.5
 40
1
100
AcDbArc
 50
270
 51
0
  0
DIMENSION
  5
1C9
100
AcDbEntity
  8
Dimensions_slots
  6
ByLayer
 62
  256
370
   -1
100
AcDbDimension
  2
*D9
 10
-50
 20
10.5
 30
0
 11
-51.875
 21
9
 31
0
 70
   32
 71
    5
  3
Standard
 53
0
210
0
220
0
230
1
100
AcDbAlignedDimension
 13
-44.95
 23
7.5
 33
0
 14
-44.95
 24
10.5
 34
0
 50
90
100
AcDbRotatedDimension
  0
DIMENSION
  5
1CA
100
AcDbEntity
  8
Dimensions_slots
  6
ByLayer
 62
  256
370
   -1
100
AcDbDimension
  2
*D10
 10
-30.25
 20
15
 30
0
 11
-38.1
 21
16.875
 31
0
 70
   32
 71
    5
  3
Standard
 53
0
210
0
220
0
230
1
100
AcDbAlignedDimension
 13
-45.95
 23
9.5
 33
0
 14
-30.25
 24
9.5
 34
0
100
AcDbRotatedDimension
  0
DIMENSION
  5
1CB
100
AcDbEntity
  8
Dimensions_slots
  6
ByLayer
 62
  256
370
   -1
100
AcDbDimension
  2
*D11
 10
-2.449212707644755e-15
 20
-40
 30
0
 11
-15.125
 21
-38.125
 31
0
 70
   32
 71
    5
  3
Standard
 53
0
210
0
220
0
230
1
100
AcDbAlignedDimension
 13
-30.25
 23
8.5
 33
0
 14
0
 24
0
 34
0
100
AcDbRotatedDimension
  0
DIMENSION
  5
1CC
100
AcDbEntity
  8
Dimensions_slots
  6
ByLayer
 62
  256
370
   -1
100
AcDbDimension
  2
*D12
 10
-50
 20
6.123031769111886e-16
 30
0
 11
-51.875
 21
3.750000000000001
 31
0
 70
   32
 71
    5
  3
Standard
 53
0
210
0
220
0
230
1
100
AcDbAlignedDimension
 13
-44.95
 23
7.5
 33
0
 14
-45
 24
0
 34
0
 50
90
100
AcDbRotatedDimension
  0
DIMENSION
  5
1CD
100
AcDbEntity
  8
Dimensions_slots
  6
ByLayer
 62
  256
370
   -1
100
AcDbDimension
  2
*D13
 10
-31.25
 20
9.5
 30
0
 11
-27.05038807370351
 21
16.96907381680312
 31
0
 70
   36
  1
4-R1.0
 71
    5
  3
Standard
 53
0
210
0
220
0
230
1
100
AcDbRadialDimension
 15
-30.58103526837755
 25
10.24329414624717
 35
0
 40
0
  0
LINE
  5
1CE
100
AcDbEntity
  8
0
  6
ByLayer
 62
  256
370
   -1
100
AcDbLine
 10
34.6
 20
7.75
 11
41.6
 21
7.75
  0
LINE
  5
1CF
100
AcDbEntity
  8
0
  6
ByLayer
 62
  256
370
   -1
100
AcDbLine
 10
42.85
 20
10.2
 11
42.85
 21
9
  0
LINE
  5
1D0
100
AcDbEntity
  8
0
  6
ByLayer
 62
  256
370
   -1
100
AcDbLine
 10
34.6
 20
11.45
 11
41.6
 21
11.45
  0
LINE
  5
1D1
100
AcDbEntity
  8
0
  6
ByLayer
 62
  256
370
   -1
100
AcDbLine
 10
33.35
 20
10.2
 11
33.35
 21
9
  0
ARC
  5
1D2
100
AcDbEntity
  8
0
  6
ByLayer
 62
  256
370
   -1
100
AcDbCircle
 10
34.6
 20
10.2
 40
1.25
100
AcDbArc
 50
90
 51
180
  0
ARC
  5
1D3
100
AcDbEntity
  8
0
  6
ByLayer
 62
  256
370
   -1
100
AcDbCircle
 10
41.6
 20
10.2
 40
1.25
100
AcDbArc
 50
0
 51
90
  0
ARC
  5
1D4
100
AcDbEntity
  8
0
  6
ByLayer
 62
  256
370
   -1
100
AcDbCircle
 10
41.6
 20
9
 40
1.25
100
AcDbArc
 50
270
 51
0
  0
ARC
  5
1D5
100
AcDbEntity
  8
0
  6
ByLayer
 62
  256
370
   -1
100
AcDbCircle
 10
34.6
 20
9
 40
1.25
100
AcDbArc
 50
180
 51
270
  0
LINE
  5
1D6
100
AcDbEntity
  8
0
  6
ByLayer
 62
  256
370
   -1
100
AcDbLine
 10
60
 20
7.75
 11
67
 21
7.75
  0
LINE
  5
1D7
100
AcDbEntity
  8
0
  6
ByLayer
 62
  256
370
   -1
100
AcDbLine
 10
68.25
 20
10.2
 11
68.25
 21
9
  0
LINE
  5
1D8
100
AcDbEntity
  8
0
  6
ByLayer
 62
  256
370
   -1
100
AcDbLine
 10
60
 20
11.45
 11
67
 21
11.45
  0
LINE
  5
1D9
100
AcDbEntity
  8
0
  6
ByLayer
 62
  256
370
   -1
100
AcDbLine
 10
58.75
 20
10.2
 11
58.75
 21
9
  0
ARC
  5
1DA
100
AcDbEntity
  8
0
  6
ByLayer
 62
  256
370
   -1
100
AcDbCircle
 10
60
 20
10.2
 40
1.25
100
AcDbArc
 50
90
 51
180
  0
ARC
  5
1DB
100
AcDbEntity
  8
0
  6
ByLayer
 62
  256
370
   -1
100
AcDbCircle
 10
67
 20
10.2
 40
1.25
100
AcDbArc
 50
0
 51
90
  0
ARC
  5
1DC
100
AcDbEntity
  8
0
  6
ByLayer
 62
  256
370
   -1
100
AcDbCircle
 10
67
 20
9
 40
1.25
100
AcDbArc
 50
270
 51
0
  0
ARC
  5
1DD
100
AcDbEntity
  8
0
  6
ByLayer
 62
  256
370
   -1
100
AcDbCircle
 10
60
 20
9
 40
1.25
100
AcDbArc
 50
180
 51
270
  0
DIMENSION
  5
1DE
100
AcDbEntity
  8
Dimensions_slots
  6
ByLayer
 62
  256
370
   -1
100
AcDbDimension
  2
*D14
 10
-2.449212707644755e-15
 20
-40
 30
0
 11
16.675
 21
-38.125
 31
0
 70
   32
 71
    5
  3
Standard
 53
0
210
0
220
0
230
1
100
AcDbAlignedDimension
 13
33.35
 23
9
 33
0
 14
0
 24
0
 34
0
100
AcDbRotatedDimension
  0
DIMENSION
  5
1DF
100
AcDbEntity
  8
Dimensions_slots
  6
ByLayer
 62
  256
370
   -1
100
AcDbDimension
  2
*D15
 10
58.75
 20
-40
 30
0
 11
46.05
 21
-38.125
 31
0
 70
   32
 71
    5
  3
Standard
 53
0
210
0
220
0
230
1
100
AcDbAlignedDimension
 13
33.35
 23
9
 33
0
 14
58.75
 24
9
 34
0
100
AcDbRotatedDimension
  0
DIMENSION
  5
1E0
100
AcDbEntity
  8
Dimensions_slots
  6
ByLayer
 62
  256
370
   -1
100
AcDbDimension
  2
*D16
 10
42.85
 20
-30
 30
0
 11
38.1
 21
-28.125
 31
0
 70
   32
 71
    5
  3
Standard
 53
0
210
0
220
0
230
1
100
AcDbAlignedDimension
 13
33.35
 23
9
 33
0
 14
42.85
 24
9
 34
0
100
AcDbRotatedDimension
  0
DIMENSION
  5
1E1
100
AcDbEntity
  8
Dimensions_slots
  6
ByLayer
 62
  256
370
   -1
100
AcDbDimension
  2
*D17
 10
68.25
 20
-30
 30
0
 11
63.5
 21
-28.125
 31
0
 70
   32
 71
    5
  3
Standard
 53
0
210
0
220
0
230
1
100
AcDbAlignedDimension
 13
58.75
 23
9
 33
0
 14
68.25
 24
9
 34
0
100
AcDbRotatedDimension
  0
DIMENSION
  5
1E2
100
AcDbEntity
  8
Dimensions_slots
  6
ByLayer
 62
  256
370
   -1
100
AcDbDimension
  2
*D18
 10
72
 20
11.45
 30
0
 11
70.125
 21
9.6
 31
0
 70
   32
 71
    5
  3
Standard
 53
0
210
0
220
0
230
1
100
AcDbAlignedDimension
 13
67
 23
7.75
 33
0
 14
67
 24
11.45
 34
0
 50
90
100
AcDbRotatedDimension
  0
DIMENSION
  5
1E3
100
AcDbEntity
  8
Dimensions_slots
  6
ByLayer
 62
  256
370
   -1
100
AcDbDimension
  2
*D19
 10
65
 20
2.449212707644755e-16
 30
0
 11
63.125
 21
3.875
 31
0
 70
   32
 71
    5
  3
Standard
 53
0
210
0
220
0
230
1
100
AcDbAlignedDimension
 13
67
 23
7.75
 33
0
 14
67
 24
0
 34
0
 50
90
100
AcDbRotatedDimension
  0
DIMENSION
  5
1E4
100
AcDbEntity
  8
Dimensions_slots
  6
ByLayer
 62
  256
370
   -1
100
AcDbDimension
  2
*D20
 10
60
 20
10.2
 30
0
 11
55.16280563316867
 21
18.68277392338582
 31
0
 70
   36
  1
4-R1.25
 71
    5
  3
Standard
 53
0
210
0
220
0
230
1
100
AcDbRadialDimension
 15
59.18382547241317
 25
11.14676245200072
 35
0
 40
0
  0
DIMENSION
  5
1E5
100
AcDbEntity
  8
Dimensions_slots
  6
ByLayer
 62
  256
370
   -1
100
AcDbDimension
  2
*D21
 10
46
 20
11.45
 30
0
 11
44.125
 21
9.6
 31
0
 70
   32
 71
    5
  3
Standard
 53
0
210
0
220
0
230
1
100
AcDbAlignedDimension
 13
41.6
 23
7.75
 33
0
 14
41.6
 24
11.45
 34
0
 50
90
100
AcDbRotatedDimension
  0
DIMENSION
  5
1E6
100
AcDbEntity
  8
Dimensions_slots
  6
ByLayer
 62
  256
370
   -1
100
AcDbDimension
  2
*D22
 10
40
 20
1.224606353822377e-16
 30
0
 11
38.125
 21
3.875
 31
0
 70
   32
 71
    5
  3
Standard
 53
0
210
0
220
0
230
1
100
AcDbAlignedDimension
 13
41.6
 23
7.75
 33
0
 14
41
 24
0
 34
0
 50
90
100
AcDbRotatedDimension
  0
DIMENSION
  5
1E7
100
AcDbEntity
  8
Dimensions_holes
  6
ByLayer
 62
  256
370
   -1
100
AcDbDimension
  2
*D23
 10
22
 20
3.673819061467132e-16
 30
0
 11
20.125
 21
6.025
 31
0
 70
   32
 71
    5
  3
Standard
 53
0
210
0
220
0
230
1
100
AcDbAlignedDimension
 13
25.4
 23
12.05
 33
0
 14
25
 24
0
 34
0
 50
90
100
AcDbRotatedDimension
  0
DIMENSION
  5
1E8
100
AcDbEntity
  8
Dimensions_holes
  6
ByLayer
 62
  256
370
   -1
100
AcDbDimension
  2
*D24
 10
24.50606929929146
 20
10.40181527056864
 30
0
 11
23.75181527056863
 21
12.94393070070854
 31
0
 70
   35
  1
2-%%C3.75
 71
    5
  3
Standard
 53
0
210
0
220
0
230
1
100
AcDbDiametricDimension
 15
26.29393070070854
 25
13.69818472943137
 35
0
 40
0
  0
LINE
  5
1E9
100
AcDbEntity
  8
0
  6
ByLayer
 62
  256
370
   -1
100
AcDbLine
 10
-7
 20
9.449999999999999
 11
-9.4
 21
9.449999999999999
  0
LINE
  5
1EA
100
AcDbEntity
  8
0
  6
ByLayer
 62
  256
370
   -1
100
AcDbLine
 10
-9.4
 20
12.45
 11
-9.4
 21
24.85
  0
LINE
  5
1EB
100
AcDbEntity
  8
0
  6
ByLayer
 62
  256
370
   -1
100
AcDbLine
 10
7
 20
9.449999999999999
 11
7
 21
7.800000000000001
  0
LINE
  5
1EC
100
AcDbEntity
  8
0
  6
ByLayer
 62
  256
370
   -1
100
AcDbLine
 10
-7
 20
9.449999999999999
 11
-7
 21
7.8
  0
LINE
  5
1ED
100
AcDbEntity
  8
0
  6
ByLayer
 62
  256
370
   -1
100
AcDbLine
 10
-5.5
 20
6.3
 11
5.5
 21
6.3
  0
ARC
  5
1EE
100
AcDbEntity
  8
0
  6
ByLayer
 62
  256
370
   -1
100
AcDbCircle
 10
5.5
 20
7.8
 40
1.5
100
AcDbArc
 50
270
 51
0
  0
LINE
  5
1EF
100
AcDbEntity
  8
0
  6
ByLayer
 62
  256
370
   -1
100
AcDbLine
 10
9.4
 20
24.85
 11
9.4
 21
12.45
  0
LINE
  5
1F0
100
AcDbEntity
  8
0
  6
ByLayer
 62
  256
370
   -1
100
AcDbLine
 10
7
 20
9.449999999999999
 11
9.4
 21
9.449999999999999
  0
ARC
  5
1F1
100
AcDbEntity
  8
0
  6
ByLayer
 62
  256
370
   -1
100
AcDbCircle
 10
9.4
 20
10.95
 40
1.5
100
AcDbArc
 50
270
 51
90
  0
LINE
  5
1F2
100
AcDbEntity
  8
0
  6
ByLayer
 62
  256
370
   -1
100
AcDbLine
 10
-9.4
 20
27.85
 11
9.4
 21
27.85
  0
ARC
  5
1F3
100
AcDbEntity
  8
0
  6
ByLayer
 62
  256
370
   -1
100
AcDbCircle
 10
9.4
 20
26.35
 40
1.5
100
AcDbArc
 50
270
 51
90
  0
ARC
  5
1F4
100
AcDbEntity
  8
0
  6
ByLayer
 62
  256
370
   -1
100
AcDbCircle
 10
-9.4
 20
26.35
 40
1.5
100
AcDbArc
 50
90
 51
270
  0
ARC
  5
1F5
100
AcDbEntity
  8
0
  6
ByLayer
 62
  256
370
   -1
100
AcDbCircle
 10
-9.4
 20
10.95
 40
1.5
100
AcDbArc
 50
90
 51
270
  0
DIMENSION
  5
1F6
100
AcDbEntity
  8
Dimensions_display
  6
ByLayer
 62
  256
370
   -1
100
AcDbDimension
  2
*D25
 10
-1.224606353822377e-15
 20
-20
 30
0
 11
3.5
 21
-18.125
 31
0
 70
   32
 71
    5
  3
Standard
 53
0
210
0
220
0
230
1
100
AcDbAlignedDimension
 13
7
 23
7.800000000000001
 33
0
 14
0
 24
0
 34
0
100
AcDbRotatedDimension
  0
DIMENSION
  5
1F7
100
AcDbEntity
  8
Dimensions_display
  6
ByLayer
 62
  256
370
   -1
100
AcDbDimension
  2
*D26
 10
-1.224606353822377e-15
 20
-20
 30
0
 11
-3.5
 21
-18.125
 31
0
 70
   32
 71
    5
  3
Standard
 53
0
210
0
220
0
230
1
100
AcDbAlignedDimension
 13
-7
 23
7.8
 33
0
 14
0
 24
0
 34
0
100
AcDbRotatedDimension
  0
DIMENSION
  5
1F8
100
AcDbEntity
  8
Dimensions_display
  6
ByLayer
 62
  256
370
   -1
100
AcDbDimension
  2
*D27
 10
-1.836909530733566e-15
 20
-30
 30
0
 11
4.7
 21
-28.125
 31
0
 70
   32
 71
    5
  3
Standard
 53
0
210
0
220
0
230
1
100
AcDbAlignedDimension
 13
9.4
 23
12.45
 33
0
 14
0
 24
0
 34
0
100
AcDbRotatedDimension
  0
DIMENSION
  5
1F9
100
AcDbEntity
  8
Dimensions_display
  6
ByLayer
 62
  256
370
   -1
100
AcDbDimension
  2
*D28
 10
-1.836909530733566e-15
 20
-30
 30
0
 11
-4.7
 21
-28.125
 31
0
 70
   32
 71
    5
  3
Standard
 53
0
210
0
220
0
230
1
100
AcDbAlignedDimension
 13
-9.4
 23
12.45
 33
0
 14
0
 24
0
 34
0
100
AcDbRotatedDimension
  0
DIMENSION
  5
1FA
100
AcDbEntity
  8
Dimensions_display
  6
ByLayer
 62
  256
370
   -1
100
AcDbDimension
  2
*D29
 10
4
 20
-4.898425415289509e-16
 30
0
 11
2.125
 21
3.150000000000001
 31
0
 70
   32
 71
    5
  3
Standard
 53
0
210
0
220
0
230
1
100
AcDbAlignedDimension
 13
5.5
 23
6.3
 33
0
 14
0
 24
0
 34
0
 50
90
100
AcDbRotatedDimension
  0
DIMENSION
  5
1FB
100
AcDbEntity
  8
Dimensions_display
  6
ByLayer
 62
  256
370
   -1
100
AcDbDimension
  2
*D30
 10
15
 20
-1.836909530733566e-15
 30
0
 11
13.125
 21
4.725
 31
0
 70
   32
 71
    5
  3
Standard
 53
0
210
0
220
0
230
1
100
AcDbAlignedDimension
 13
7
 23
9.449999999999999
 33
0
 14
0
 24
0
 34
0
 50
90
100
AcDbRotatedDimension
  0
DIMENSION
  5
1FC
100
AcDbEntity
  8
Dimensions_display
  6
ByLayer
 62
  256
370
   -1
100
AcDbDimension
  2
*D31
 10
15
 20
27.85
 30
0
 11
13.125
 21
18.65
 31
0
 70
   32
 71
    5
  3
Standard
 53
0
210
0
220
0
230
1
100
AcDbAlignedDimension
 13
7
 23
9.449999999999999
 33
0
 14
9.4
 24
27.85
 34
0
 50
90
100
AcDbRotatedDimension
  0
ARC
  5
1FD
100
AcDbEntity
  8
0
  6
ByLayer
 62
  256
370
   -1
100
AcDbCircle
 10
-5.5
 20
7.8
 40
1.5
100
AcDbArc
 50
180
 51
270
  0
DIMENSION
  5
1FE
100
AcDbEntity
  8
Dimensions_display
  6
ByLayer
 62
  256
370
   -1
100
AcDbDimension
  2
*D32
 10
-9.4
 20
26.35
 30
0
 11
-14.88488134574268
 21
34.56060014308009
 31
0
 70
   36
  1
6-R1.50
 71
    5
  3
Standard
 53
0
210
0
220
0
230
1
100
AcDbRadialDimension
 15
-10.45491146225002
 25
27.41637789118752
 35
0
 40
0
  0
CIRCLE
  5
1FF
100
AcDbEntity
  8
0
  6
ByLayer
 62
  256
370
   -1
100
AcDbCircle
 10
-75.40000000000001
 20
37.25
 40
1.7
  0
DIMENSION
  5
200
100
AcDbEntity
  8
Dimensions_screw_holes
  6
ByLayer
 62
  256
370
   -1
100
AcDbDimension
  2
*D33
 10
76.93807860187189
 20
37.97409544568644
 30
0
 11
74.60136531725762
 21
38.94641022265281
 31
0
 70
   35
  1
4-%%C3.40
 71
    5
  3
Standard
 53
0
210
0
220
0
230
1
100
AcDbDiametricDimension
 15
73.86192139812812
 25
36.52590455431356
 35
0
 40
0
  0
CIRCLE
  5
201
100
AcDbEntity
  8
0
  6
ByLayer
 62
  256
370
   -1
100
AcDbCircle
 10
75.40000000000001
 20
3.75
 40
1.7
  0
MTEXT
  5
202
100
AcDbEntity
  8
Dimensions_screw_holes
  6
ByLayer
 62
  256
370
   -1
100
AcDbMText
 10
90
 20
44
 30
0
 40
1.5
 41
15.08333410476422
 71
    7
 72
    1
  1
Countersink\Pfor M3.0 screw
  7

210
0
220
0
230
1
 50
0
 73
    2
 44
1
  0
DIMENSION
  5
203
100
AcDbEntity
  8
Dimensions_screw_holes
  6
ByLayer
 62
  256
370
   -1
100
AcDbDimension
  2
*D34
 10
-90
 20
3.750000000000002
 30
0
 11
-91.875
 21
20.5
 31
0
 70
   32
  1
33.50 %%P 0.20
 71
    5
  3
Standard
 53
0
210
0
220
0
230
1
100
AcDbAlignedDimension
 13
-75.40000000000001
 23
37.25
 33
0
 14
-75.40000000000001
 24
3.75
 34
0
 50
90
100
AcDbRotatedDimension
  0
DIMENSION
  5
204
100
AcDbEntity
  8
Dimensions_screw_holes
  6
ByLayer
 62
  256
370
   -1
100
AcDbDimension
  2
*D35
 10
75.40000000000001
 20
50
 30
0
 11
1.148068456708479e-16
 21
51.875
 31
0
 70
   32
  1
150.80 %%P 0.20
 71
    5
  3
Standard
 53
0
210
0
220
0
230
1
100
AcDbAlignedDimension
 13
-75.40000000000001
 23
37.25
 33
0
 14
75.40000000000001
 24
37.25
 34
0
100
AcDbRotatedDimension
  0
LINE
  5
205
100
AcDbEntity
  8
Dimensions_outline
  6
DASHDOTX2
 62
    1
370
   -1
100
AcDbLine
 10
0
 20
0
 11
0
 21
46
  0
DIMENSION
  5
206
100
AcDbEntity
  8
Dimensions_screw_holes
  6
ByLayer
 62
  256
370
   -1
100
AcDbDimension
  2
*D36
 10
-84
 20
3.750000000000001
 30
0
 11
-85.875
 21
1.875
 31
0
 70
   32
 71
    5
  3
Standard
 53
0
210
0
220
0
230
1
100
AcDbAlignedDimension
 13
-75.55
 23
0
 33
0
 14
-75.40000000000001
 24
3.75
 34
0
 50
90
100
AcDbRotatedDimension
  0
DIMENSION
  5
207
100
AcDbEntity
  8
Dimensions_screw_holes
  6
ByLayer
 62
  256
370
   -1
100
AcDbDimension
  2
*D37
 10
-75.40000000000001
 20
-60
 30
0
 11
-37.7
 21
-58.125
 31
0
 70
   32
 71
    5
  3
Standard
 53
0
210
0
220
0
230
1
100
AcDbAlignedDimension
 13
0
 23
0
 33
0
 14
-75.40000000000001
 24
3.75
 34
0
100
AcDbRotatedDimension
  0
DIMENSION
  5
208
100
AcDbEntity
  8
Dimensions_screw_holes
  6
ByLayer
 62
  256
370
   -1
100
AcDbDimension
  2
*D38
 10
75.40000000000001
 20
-60
 30
0
 11
37.7
 21
-58.125
 31
0
 70
   32
 71
    5
  3
Standard
 53
0
210
0
220
0
230
1
100
AcDbAlignedDimension
 13
0
 23
0
 33
0
 14
75.40000000000001
 24
3.75
 34
0
100
AcDbRotatedDimension
  0
DIMENSION
  5
209
100
AcDbEntity
  8
Dimensions_outline
  6
ByLayer
 62
  256
370
   -1
100
AcDbDimension
  2
*D39
 10
-79.3
 20
-70
 30
0
 11
-39.65
 21
-68.125
 31
0
 70
   32
 71
    5
  3
Standard
 53
0
210
0
220
0
230
1
100
AcDbAlignedDimension
 13
0
 23
0
 33
0
 14
-79.3
 24
3.75
 34
0
100
AcDbRotatedDimension
  0
DIMENSION
  5
20A
100
AcDbEntity
  8
Dimensions_outline
  6
ByLayer
 62
  256
370
   -1
100
AcDbDimension
  2
*D40
 10
79.30000000000003
 20
-70
 30
0
 11
39.65000000000001
 21
-68.125
 31
0
 70
   32
 71
    5
  3
Standard
 53
0
210
0
220
0
230
1
100
AcDbAlignedDimension
 13
0
 23
0
 33
0
 14
79.30000000000003
 24
3.749999999999998
 34
0
100
AcDbRotatedDimension
  0
MTEXT
  5
20B
100
AcDbEntity
  8
Dimensions_screw_holes
  6
ByLayer
 62
  256
370
   -1
100
AcDbMText
 10
-70
 20
44
 30
0
 40
2
 41
80.33333641905774
 71
    7
 72
    1
  1
Material: Aluminium. Thickness: 1.5mm. Finish: Red Anodized
  7

210
0
220
0
230
1
 50
0
 73
    2
 44
1
  0
ENDSEC
  0
SECTION
  2
OBJECTS
  0
DICTIONARY
  5
C
330
0
100
AcDbDictionary
281
    1
  3
ACAD_GROUP
350
D
  0
DICTIONARY
  5
D
330
C
100
AcDbDictionary
281
    1
  0
PLOTSETTINGS
  5
20C
100
AcDbPlotSettings
  6
1x1
 40
0
 41
0
 42
0
 43
0
  0
ENDSEC
  0
EOF
