999
dxfrw 0.6.3
  0
SECTION
  2
HEADER
  9
$ACADVER
  1
AC1014
  9
$DWGCODEPAGE
  3
ANSI_1252
  9
$INSBASE
 10
0
 20
0
 30
0
  9
$EXTMIN
 10
-78.3
 20
-26.25
 30
0
  9
$EXTMAX
 10
91.25
 20
57.125
 30
0
  9
$LIMMIN
 10
0
 20
0
  9
$LIMMAX
 10
420
 20
297
  9
$ORTHOMODE
 70
    0
  9
$REGENMODE
 70
    1
  9
$FILLMODE
 70
    1
  9
$QTEXTMODE
 70
    0
  9
$MIRRTEXT
 70
    0
  9
$LTSCALE
 40
1
  9
$ATTMODE
 70
    0
  9
$TEXTSIZE
 40
2.5
  9
$TRACEWID
 40
15.68
  9
$TEXTSTYLE
  7
STANDARD
  9
$CLAYER
  8
Dimensions_DieCut
  9
$CELTYPE
  6
BYLAYER
  9
$CECOLOR
 62
  256
  9
$CELTSCALE
 40
1
  9
$DISPSILH
 70
    0
  9
$DIMSCALE
 40
1
  9
$DIMASZ
 40
2.5
  9
$DIMEXO
 40
0.625
  9
$DIMDLI
 40
3.75
  9
$DIMRND
 40
0
  9
$DIMDLE
 40
0
  9
$DIMEXE
 40
1.25
  9
$DIMTP
 40
0
  9
$DIMTM
 40
0
  9
$DIMTXT
 40
2.5
  9
$DIMCEN
 40
2.5
  9
$DIMTSZ
 40
0
  9
$DIMTOL
 70
    0
  9
$DIMLIM
 70
    0
  9
$DIMTIH
 70
    0
  9
$DIMTOH
 70
    0
  9
$DIMSE1
 70
    0
  9
$DIMSE2
 70
    0
  9
$DIMTAD
 70
    1
  9
$DIMZIN
 70
    8
  9
$DIMBLK
  1

  9
$DIMASO
 70
    1
  9
$DIMSHO
 70
    1
  9
$DIMPOST
  1

  9
$DIMAPOST
  1

  9
$DIMALT
 70
    0
  9
$DIMALTD
 70
    3
  9
$DIMALTF
 40
0.03937
  9
$DIMLFAC
 40
1
  9
$DIMTOFL
 70
    1
  9
$DIMTVP
 40
0
  9
$DIMTIX
 70
    0
  9
$DIMSOXD
 70
    0
  9
$DIMSAH
 70
    0
  9
$DIMBLK1
  1

  9
$DIMBLK2
  1

  9
$DIMSTYLE
  2
STANDARD
  9
$DIMCLRD
 70
    0
  9
$DIMCLRE
 70
    0
  9
$DIMCLRT
 70
    0
  9
$DIMTFAC
 40
1
  9
$DIMGAP
 40
0.625
  9
$DIMJUST
 70
    0
  9
$DIMSD1
 70
    0
  9
$DIMSD2
 70
    0
  9
$DIMTOLJ
 70
    0
  9
$DIMTZIN
 70
    8
  9
$DIMALTZ
 70
    0
  9
$DIMALTTZ
 70
    0
  9
$DIMUPT
 70
    0
  9
$DIMDEC
 70
    3
  9
$DIMTDEC
 70
    2
  9
$DIMALTU
 70
    2
  9
$DIMALTTD
 70
    3
  9
$DIMTXSTY
  7
standard
  9
$DIMAUNIT
 70
    0
  9
$DIMADEC
 70
    0
  9
$DIMALTRND
 40
0
  9
$DIMAZIN
 70
    0
  9
$DIMDSEP
 70
    0
  9
$DIMATFIT
 70
    3
  9
$DIMFRAC
 70
    0
  9
$DIMLDRBLK
  1
STANDARD
  9
$DIMUNIT
 70
    2
  9
$DIMLWD
 70
   -2
  9
$DIMLWE
 70
   -2
  9
$DIMTMOVE
 70
    0
  9
$LUNITS
 70
    2
  9
$LUPREC
 70
    3
  9
$SKETCHINC
 40
1
  9
$FILLETRAD
 40
0
  9
$AUNITS
 70
    0
  9
$AUPREC
 70
    2
  9
$MENU
  1
.
  9
$ELEVATION
 40
0
  9
$PELEVATION
 40
0
  9
$THICKNESS
 40
0
  9
$LIMCHECK
 70
    0
  9
$BLIPMODE
 70
    0
  9
$CHAMFERA
 40
0
  9
$CHAMFERB
 40
0
  9
$CHAMFERC
 40
0
  9
$CHAMFERD
 40
0
  9
$SKPOLY
 70
    0
  9
$USRTIMER
 70
    1
  9
$ANGBASE
 50
0
  9
$ANGDIR
 70
    0
  9
$PDMODE
 70
   34
  9
$PDSIZE
 40
0
  9
$PLINEWID
 40
0
  9
$SPLFRAME
 70
    0
  9
$SPLINETYPE
 70
    2
  9
$SPLINESEGS
 70
    8
  9
$HANDSEED
  5
20000
  9
$SURFTAB1
 70
    6
  9
$SURFTAB2
 70
    6
  9
$SURFTYPE
 70
    6
  9
$SURFU
 70
    6
  9
$SURFV
 70
    6
  9
$UCSBASE
  2

  9
$UCSNAME
  2

  9
$UCSORG
 10
0
 20
0
 30
0
  9
$UCSXDIR
 10
1
 20
0
 30
0
  9
$UCSYDIR
 10
0
 20
1
 30
0
  9
$UCSORTHOREF
  2

  9
$UCSORTHOVIEW
 70
    0
  9
$UCSORGTOP
 10
0
 20
0
 30
0
  9
$UCSORGBOTTOM
 10
0
 20
0
 30
0
  9
$UCSORGLEFT
 10
0
 20
0
 30
0
  9
$UCSORGRIGHT
 10
0
 20
0
 30
0
  9
$UCSORGFRONT
 10
0
 20
0
 30
0
  9
$UCSORGBACK
 10
0
 20
0
 30
0
  9
$PUCSBASE
  2

  9
$PUCSNAME
  2

  9
$PUCSORG
 10
0
 20
0
 30
0
  9
$PUCSXDIR
 10
1
 20
0
 30
0
  9
$PUCSYDIR
 10
0
 20
1
 30
0
  9
$PUCSORTHOREF
  2

  9
$PUCSORTHOVIEW
 70
    0
  9
$PUCSORGTOP
 10
0
 20
0
 30
0
  9
$PUCSORGBOTTOM
 10
0
 20
0
 30
0
  9
$PUCSORGLEFT
 10
0
 20
0
 30
0
  9
$PUCSORGRIGHT
 10
0
 20
0
 30
0
  9
$PUCSORGFRONT
 10
0
 20
0
 30
0
  9
$PUCSORGBACK
 10
0
 20
0
 30
0
  9
$USERI1
 70
    0
  9
$USERI2
 70
    0
  9
$USERI3
 70
    0
  9
$USERI4
 70
    0
  9
$USERI5
 70
    0
  9
$USERR1
 40
0
  9
$USERR2
 40
0
  9
$USERR3
 40
0
  9
$USERR4
 40
0
  9
$USERR5
 40
0
  9
$WORLDVIEW
 70
    1
  9
$SHADEDGE
 70
    3
  9
$SHADEDIF
 70
   70
  9
$TILEMODE
 70
    1
  9
$MAXACTVP
 70
   64
  9
$PINSBASE
 10
96.98024181657327
 20
129.3795340607491
 30
0
  9
$PLIMCHECK
 70
    0
  9
$PEXTMIN
 10
0
 20
0
 30
0
  9
$PEXTMAX
 10
0
 20
0
 30
0
  9
$GRIDMODE
 70
    1
  9
$SNAPSTYLE
 70
    0
  9
$GRIDUNIT
 10
0
 20
0
  9
$PLIMMIN
 10
0
 20
0
  9
$PLIMMAX
 10
210
 20
297
  9
$UNITMODE
 70
    0
  9
$VISRETAIN
 70
    1
  9
$PLINEGEN
 70
    0
  9
$PSLTSCALE
 70
    1
  9
$TREEDEPTH
 70
 3020
  9
$CMLSTYLE
  2
Standard
  9
$CMLJUST
 70
    0
  9
$CMLSCALE
 40
20
  9
$PROXYGRAPHICS
 70
    1
  9
$MEASUREMENT
 70
    1
  9
$CELWEIGHT
370
   -1
  9
$ENDCAPS
280
    0
  9
$JOINSTYLE
280
    0
  9
$LWDISPLAY
290
    0
  9
$HYPERLINKBASE
  1

  9
$STYLESHEET
  1

  9
$XEDIT
290
    1
  9
$CEPSNTYPE
380
    0
  9
$PSTYLEMODE
290
    1
  9
$EXTNAMES
290
    1
  9
$PSVPSCALE
 40
1.238572692421115
  9
$OLESTARTUP
290
    0
  0
ENDSEC
  0
SECTION
  2
CLASSES
  0
ENDSEC
  0
SECTION
  2
TABLES
  0
TABLE
  2
VPORT
  5
8
100
AcDbSymbolTable
 70
    1
  0
VPORT
  5
31
330
2
100
AcDbSymbolTableRecord
100
AcDbViewportTableRecord
  2
*ACTIVE
 70
    0
 10
0
 20
0
 11
1
 21
1
 12
46.17693167305237
 22
31.01920498084291
 13
0
 23
0
 14
10
 24
10
 15
10
 25
10
 16
0
 26
0
 36
1
 17
0
 27
0
 37
0
 40
93.00348020434228
 41
1.846332945285215
 42
50
 43
0
 44
0
 50
0
 51
0
 71
    0
 72
  100
 73
    1
 74
    3
 75
    0
 76
    1
 77
    0
 78
    0
  0
ENDTAB
  0
TABLE
  2
LTYPE
  5
5
100
AcDbSymbolTable
 70
    4
  0
LTYPE
  5
14
100
AcDbSymbolTableRecord
100
AcDbLinetypeTableRecord
  2
ByBlock
 70
    0
  3

 72
   65
 73
    0
 40
0
  0
LTYPE
  5
15
100
AcDbSymbolTableRecord
100
AcDbLinetypeTableRecord
  2
ByLayer
 70
    0
  3

 72
   65
 73
    0
 40
0
  0
LTYPE
  5
16
100
AcDbSymbolTableRecord
100
AcDbLinetypeTableRecord
  2
Continuous
 70
    0
  3
Solid line
 72
   65
 73
    0
 40
0
  0
LTYPE
  5
32
330
5
100
AcDbSymbolTableRecord
100
AcDbLinetypeTableRecord
  2
DOT
 70
    0
  3
Dot . . . . . . . . . . . . . . . . . . . . . .
 72
   65
 73
    2
 40
6.35
 49
0
 74
    0
 49
-6.35
 74
    0
  0
LTYPE
  5
33
330
5
100
AcDbSymbolTableRecord
100
AcDbLinetypeTableRecord
  2
DOTTINY
 70
    0
  3
Dot (.15x) .....................................
 72
   65
 73
    2
 40
0.9525
 49
0
 74
    0
 49
-0.9525
 74
    0
  0
LTYPE
  5
34
330
5
100
AcDbSymbolTableRecord
100
AcDbLinetypeTableRecord
  2
DOT2
 70
    0
  3
Dot (.5x) .....................................
 72
   65
 73
    2
 40
3.175
 49
0
 74
    0
 49
-3.175
 74
    0
  0
LTYPE
  5
35
330
5
100
AcDbSymbolTableRecord
100
AcDbLinetypeTableRecord
  2
DOTX2
 70
    0
  3
Dot (2x) .  .  .  .  .  .  .  .  .  .  .  .  .
 72
   65
 73
    2
 40
12.7
 49
0
 74
    0
 49
-12.7
 74
    0
  0
LTYPE
  5
36
330
5
100
AcDbSymbolTableRecord
100
AcDbLinetypeTableRecord
  2
DASHED
 70
    0
  3
Dashed _ _ _ _ _ _ _ _ _ _ _ _ _ _ _ _ _
 72
   65
 73
    2
 40
19.05
 49
12.7
 74
    0
 49
-6.35
 74
    0
  0
LTYPE
  5
37
330
5
100
AcDbSymbolTableRecord
100
AcDbLinetypeTableRecord
  2
DASHEDTINY
 70
    0
  3
Dashed (.15x) _ _ _ _ _ _ _ _ _ _ _ _ _ _ _ _ _
 72
   65
 73
    2
 40
2.8575
 49
1.905
 74
    0
 49
-0.9525
 74
    0
  0
LTYPE
  5
38
330
5
100
AcDbSymbolTableRecord
100
AcDbLinetypeTableRecord
  2
DASHED2
 70
    0
  3
Dashed (.5x) _ _ _ _ _ _ _ _ _ _ _ _ _ _ _ _ _
 72
   65
 73
    2
 40
9.524999999999999
 49
6.35
 74
    0
 49
-3.175
 74
    0
  0
LTYPE
  5
39
330
5
100
AcDbSymbolTableRecord
100
AcDbLinetypeTableRecord
  2
DASHEDX2
 70
    0
  3
Dashed (2x) ____  ____  ____  ____  ____  ___
 72
   65
 73
    2
 40
38.09999999999999
 49
25.4
 74
    0
 49
-12.7
 74
    0
  0
LTYPE
  5
3A
330
5
100
AcDbSymbolTableRecord
100
AcDbLinetypeTableRecord
  2
DASHDOT
 70
    0
  3
Dash dot __ . __ . __ . __ . __ . __ . __ . __
 72
   65
 73
    4
 40
25.4
 49
12.7
 74
    0
 49
-6.35
 74
    0
 49
0
 74
    0
 49
-6.35
 74
    0
  0
LTYPE
  5
3B
330
5
100
AcDbSymbolTableRecord
100
AcDbLinetypeTableRecord
  2
DASHDOTTINY
 70
    0
  3
Dash dot (.15x) _._._._._._._._._._._._._._._.
 72
   65
 73
    4
 40
3.81
 49
1.905
 74
    0
 49
-0.9525
 74
    0
 49
0
 74
    0
 49
-0.9525
 74
    0
  0
LTYPE
  5
3C
330
5
100
AcDbSymbolTableRecord
100
AcDbLinetypeTableRecord
  2
DASHDOT2
 70
    0
  3
Dash dot (.5x) _._._._._._._._._._._._._._._.
 72
   65
 73
    4
 40
12.7
 49
6.35
 74
    0
 49
-3.175
 74
    0
 49
0
 74
    0
 49
-3.175
 74
    0
  0
LTYPE
  5
3D
330
5
100
AcDbSymbolTableRecord
100
AcDbLinetypeTableRecord
  2
DASHDOTX2
 70
    0
  3
Dash dot (2x) ____  .  ____  .  ____  .  ___
 72
   65
 73
    4
 40
50.8
 49
25.4
 74
    0
 49
-12.7
 74
    0
 49
0
 74
    0
 49
-12.7
 74
    0
  0
LTYPE
  5
3E
330
5
100
AcDbSymbolTableRecord
100
AcDbLinetypeTableRecord
  2
DIVIDE
 70
    0
  3
Divide ____ . . ____ . . ____ . . ____ . . ____
 72
   65
 73
    6
 40
31.75
 49
12.7
 74
    0
 49
-6.35
 74
    0
 49
0
 74
    0
 49
-6.35
 74
    0
 49
0
 74
    0
 49
-6.35
 74
    0
  0
LTYPE
  5
3F
330
5
100
AcDbSymbolTableRecord
100
AcDbLinetypeTableRecord
  2
DIVIDETINY
 70
    0
  3
Divide (.15x) __..__..__..__..__..__..__..__.._
 72
   65
 73
    6
 40
4.7625
 49
1.905
 74
    0
 49
-0.9525
 74
    0
 49
0
 74
    0
 49
-0.9525
 74
    0
 49
0
 74
    0
 49
-0.9525
 74
    0
  0
LTYPE
  5
40
330
5
100
AcDbSymbolTableRecord
100
AcDbLinetypeTableRecord
  2
DIVIDE2
 70
    0
  3
Divide (.5x) __..__..__..__..__..__..__..__.._
 72
   65
 73
    6
 40
15.875
 49
6.35
 74
    0
 49
-3.175
 74
    0
 49
0
 74
    0
 49
-3.175
 74
    0
 49
0
 74
    0
 49
-3.175
 74
    0
  0
LTYPE
  5
41
330
5
100
AcDbSymbolTableRecord
100
AcDbLinetypeTableRecord
  2
DIVIDEX2
 70
    0
  3
Divide (2x) ________  .  .  ________  .  .  _
 72
   65
 73
    6
 40
63.5
 49
25.4
 74
    0
 49
-12.7
 74
    0
 49
0
 74
    0
 49
-12.7
 74
    0
 49
0
 74
    0
 49
-12.7
 74
    0
  0
LTYPE
  5
42
330
5
100
AcDbSymbolTableRecord
100
AcDbLinetypeTableRecord
  2
BORDER
 70
    0
  3
Border __ __ . __ __ . __ __ . __ __ . __ __ .
 72
   65
 73
    6
 40
44.45
 49
12.7
 74
    0
 49
-6.35
 74
    0
 49
12.7
 74
    0
 49
-6.35
 74
    0
 49
0
 74
    0
 49
-6.35
 74
    0
  0
LTYPE
  5
43
330
5
100
AcDbSymbolTableRecord
100
AcDbLinetypeTableRecord
  2
BORDERTINY
 70
    0
  3
Border (.15x) __.__.__.__.__.__.__.__.__.__.__.
 72
   65
 73
    6
 40
6.6675
 49
1.905
 74
    0
 49
-0.9525
 74
    0
 49
1.905
 74
    0
 49
-0.9525
 74
    0
 49
0
 74
    0
 49
-0.9525
 74
    0
  0
LTYPE
  5
44
330
5
100
AcDbSymbolTableRecord
100
AcDbLinetypeTableRecord
  2
BORDER2
 70
    0
  3
Border (.5x) __.__.__.__.__.__.__.__.__.__.__.
 72
   65
 73
    6
 40
22.225
 49
6.35
 74
    0
 49
-3.175
 74
    0
 49
6.35
 74
    0
 49
-3.175
 74
    0
 49
0
 74
    0
 49
-3.175
 74
    0
  0
LTYPE
  5
45
330
5
100
AcDbSymbolTableRecord
100
AcDbLinetypeTableRecord
  2
BORDERX2
 70
    0
  3
Border (2x) ____  ____  .  ____  ____  .  ___
 72
   65
 73
    6
 40
88.89999999999999
 49
25.4
 74
    0
 49
-12.7
 74
    0
 49
25.4
 74
    0
 49
-12.7
 74
    0
 49
0
 74
    0
 49
-12.7
 74
    0
  0
LTYPE
  5
46
330
5
100
AcDbSymbolTableRecord
100
AcDbLinetypeTableRecord
  2
CENTER
 70
    0
  3
Center ____ _ ____ _ ____ _ ____ _ ____ _ ____
 72
   65
 73
    4
 40
50.8
 49
31.75
 74
    0
 49
-6.35
 74
    0
 49
6.35
 74
    0
 49
-6.35
 74
    0
  0
LTYPE
  5
47
330
5
100
AcDbSymbolTableRecord
100
AcDbLinetypeTableRecord
  2
CENTERTINY
 70
    0
  3
Center (.15x) ___ _ ___ _ ___ _ ___ _ ___ _ ___
 72
   65
 73
    4
 40
7.62
 49
4.7625
 74
    0
 49
-0.9525
 74
    0
 49
0.9525
 74
    0
 49
-0.9525
 74
    0
  0
LTYPE
  5
48
330
5
100
AcDbSymbolTableRecord
100
AcDbLinetypeTableRecord
  2
CENTER2
 70
    0
  3
Center (.5x) ___ _ ___ _ ___ _ ___ _ ___ _ ___
 72
   65
 73
    4
 40
28.575
 49
19.05
 74
    0
 49
-3.175
 74
    0
 49
3.175
 74
    0
 49
-3.175
 74
    0
  0
LTYPE
  5
49
330
5
100
AcDbSymbolTableRecord
100
AcDbLinetypeTableRecord
  2
CENTERX2
 70
    0
  3
Center (2x) ________  __  ________  __  _____
 72
   65
 73
    4
 40
101.6
 49
63.5
 74
    0
 49
-12.7
 74
    0
 49
12.7
 74
    0
 49
-12.7
 74
    0
  0
ENDTAB
  0
TABLE
  2
LAYER
  5
2
100
AcDbSymbolTable
 70
    1
  0
LAYER
  5
10
330
2
100
AcDbSymbolTableRecord
100
AcDbLayerTableRecord
  2
0
 70
    0
 62
    7
  6
CONTINUOUS
370
    0
390
F
  0
LAYER
  5
4A
330
2
100
AcDbSymbolTableRecord
100
AcDbLayerTableRecord
  2
Dimensions
 70
    0
 62
    5
  6
CONTINUOUS
370
    0
390
F
  0
LAYER
  5
4B
330
2
100
AcDbSymbolTableRecord
100
AcDbLayerTableRecord
  2
Dimensions_DieCut
 70
    0
 62
    5
  6
CONTINUOUS
370
    0
390
F
  0
ENDTAB
  0
TABLE
  2
STYLE
  5
3
100
AcDbSymbolTable
 70
    3
  0
STYLE
  5
4C
330
2
100
AcDbSymbolTableRecord
100
AcDbTextStyleTableRecord
  2
Standard
 70
    0
 40
0
 41
1
 50
0
 71
    0
 42
1
  3
txt
  4

  0
ENDTAB
  0
TABLE
  2
VIEW
  5
6
100
AcDbSymbolTable
 70
    0
  0
ENDTAB
  0
TABLE
  2
UCS
  5
7
100
AcDbSymbolTable
 70
    0
  0
ENDTAB
  0
TABLE
  2
APPID
  5
9
100
AcDbSymbolTable
 70
    1
  0
APPID
  5
12
100
AcDbSymbolTableRecord
100
AcDbRegAppTableRecord
  2
ACAD
 70
    0
  0
APPID
  5
4D
100
AcDbSymbolTableRecord
100
AcDbRegAppTableRecord
  2
LibreCad
 70
    0
  0
ENDTAB
  0
TABLE
  2
DIMSTYLE
  5
A
100
AcDbSymbolTable
 70
    1
  0
DIMSTYLE
105
4E
330
A
100
AcDbSymbolTableRecord
100
AcDbDimStyleTableRecord
  2
Standard
 70
    0
 40
1
 41
2.5
 42
0.625
 43
0.38
 44
1.25
 45
0
 46
0
 47
0
 48
0
 49
1
140
2.5
141
0.09
142
0
143
25.4
144
1
145
0
146
1
147
0.625
 71
    0
 72
    0
 73
    0
 74
    1
 75
    0
 76
    0
 77
    0
 78
    8
170
    0
171
    2
172
    0
173
    0
174
    0
175
    0
176
    0
177
    0
178
    0
270
    2
271
    3
272
    4
273
    2
274
    2
275
    0
280
    0
281
    0
282
    0
283
    1
284
    0
285
    0
286
    0
287
    3
288
    0
340
standard
  0
ENDTAB
  0
TABLE
  2
BLOCK_RECORD
  5
1
100
AcDbSymbolTable
 70
    2
  0
BLOCK_RECORD
  5
1F
100
AcDbSymbolTableRecord
100
AcDbBlockTableRecord
  2
*Model_Space
  0
BLOCK_RECORD
  5
1E
100
AcDbSymbolTableRecord
100
AcDbBlockTableRecord
  2
*Paper_Space
  0
BLOCK_RECORD
  5
4F
100
AcDbSymbolTableRecord
100
AcDbBlockTableRecord
  2
*D3
  0
BLOCK_RECORD
  5
52
100
AcDbSymbolTableRecord
100
AcDbBlockTableRecord
  2
*D22
  0
BLOCK_RECORD
  5
55
100
AcDbSymbolTableRecord
100
AcDbBlockTableRecord
  2
*D18
  0
BLOCK_RECORD
  5
58
100
AcDbSymbolTableRecord
100
AcDbBlockTableRecord
  2
*D9
  0
BLOCK_RECORD
  5
5B
100
AcDbSymbolTableRecord
100
AcDbBlockTableRecord
  2
*D15
  0
BLOCK_RECORD
  5
5E
100
AcDbSymbolTableRecord
100
AcDbBlockTableRecord
  2
*D10
  0
BLOCK_RECORD
  5
61
100
AcDbSymbolTableRecord
100
AcDbBlockTableRecord
  2
*D6
  0
BLOCK_RECORD
  5
64
100
AcDbSymbolTableRecord
100
AcDbBlockTableRecord
  2
*D21
  0
BLOCK_RECORD
  5
67
100
AcDbSymbolTableRecord
100
AcDbBlockTableRecord
  2
*D4
  0
BLOCK_RECORD
  5
6A
100
AcDbSymbolTableRecord
100
AcDbBlockTableRecord
  2
*D12
  0
BLOCK_RECORD
  5
6D
100
AcDbSymbolTableRecord
100
AcDbBlockTableRecord
  2
*D2
  0
BLOCK_RECORD
  5
70
100
AcDbSymbolTableRecord
100
AcDbBlockTableRecord
  2
*D19
  0
BLOCK_RECORD
  5
73
100
AcDbSymbolTableRecord
100
AcDbBlockTableRecord
  2
*D20
  0
BLOCK_RECORD
  5
76
100
AcDbSymbolTableRecord
100
AcDbBlockTableRecord
  2
*D7
  0
BLOCK_RECORD
  5
79
100
AcDbSymbolTableRecord
100
AcDbBlockTableRecord
  2
*D16
  0
BLOCK_RECORD
  5
7C
100
AcDbSymbolTableRecord
100
AcDbBlockTableRecord
  2
*D13
  0
BLOCK_RECORD
  5
7F
100
AcDbSymbolTableRecord
100
AcDbBlockTableRecord
  2
*D14
  0
BLOCK_RECORD
  5
82
100
AcDbSymbolTableRecord
100
AcDbBlockTableRecord
  2
*D1
  0
BLOCK_RECORD
  5
85
100
AcDbSymbolTableRecord
100
AcDbBlockTableRecord
  2
*D8
  0
BLOCK_RECORD
  5
88
100
AcDbSymbolTableRecord
100
AcDbBlockTableRecord
  2
*D11
  0
BLOCK_RECORD
  5
8B
100
AcDbSymbolTableRecord
100
AcDbBlockTableRecord
  2
*D17
  0
BLOCK_RECORD
  5
8E
100
AcDbSymbolTableRecord
100
AcDbBlockTableRecord
  2
*D5
  0
BLOCK_RECORD
  5
91
100
AcDbSymbolTableRecord
100
AcDbBlockTableRecord
  2
RECT
  0
BLOCK_RECORD
  5
94
100
AcDbSymbolTableRecord
100
AcDbBlockTableRecord
  2
PIE
  0
BLOCK_RECORD
  5
97
100
AcDbSymbolTableRecord
100
AcDbBlockTableRecord
  2
OCTAGONP
  0
BLOCK_RECORD
  5
9A
100
AcDbSymbolTableRecord
100
AcDbBlockTableRecord
  2
SQUAREP
  0
BLOCK_RECORD
  5
9D
100
AcDbSymbolTableRecord
100
AcDbBlockTableRecord
  2
ROUNDP
  0
BLOCK_RECORD
  5
A0
100
AcDbSymbolTableRecord
100
AcDbBlockTableRecord
  2
ANNULUSP
  0
BLOCK_RECORD
  5
A3
100
AcDbSymbolTableRecord
100
AcDbBlockTableRecord
  2
THERMALP
  0
BLOCK_RECORD
  5
A6
100
AcDbSymbolTableRecord
100
AcDbBlockTableRecord
  2
OCTAGONV
  0
BLOCK_RECORD
  5
A9
100
AcDbSymbolTableRecord
100
AcDbBlockTableRecord
  2
SQUAREV
  0
BLOCK_RECORD
  5
AC
100
AcDbSymbolTableRecord
100
AcDbBlockTableRecord
  2
ROUNDV
  0
BLOCK_RECORD
  5
AF
100
AcDbSymbolTableRecord
100
AcDbBlockTableRecord
  2
ANNULUSV
  0
BLOCK_RECORD
  5
B2
100
AcDbSymbolTableRecord
100
AcDbBlockTableRecord
  2
THERMALV
  0
ENDTAB
  0
ENDSEC
  0
SECTION
  2
BLOCKS
  0
BLOCK
  5
20
100
AcDbEntity
  8
0
100
AcDbBlockBegin
  2
*Model_Space
 70
    0
 10
0
 20
0
 30
0
  3
*Model_Space
  1

  0
ENDBLK
  5
21
100
AcDbEntity
  8
0
100
AcDbBlockEnd
  0
BLOCK
  5
1C
100
AcDbEntity
  8
0
100
AcDbBlockBegin
  2
*Paper_Space
 70
    0
 10
0
 20
0
 30
0
  3
*Paper_Space
  1

  0
ENDBLK
  5
1D
100
AcDbEntity
  8
0
100
AcDbBlockEnd
  0
BLOCK
  5
50
100
AcDbEntity
  8
0
100
AcDbBlockBegin
  2
*D3
 70
    1
 10
0
 20
0
  3
*D3
  1

  0
SOLID
  5
B5
100
AcDbEntity
  8
Dimensions
  6
ByBlock
 62
    0
100
AcDbTrace
 10
69.94884431143755
 20
37.96609094316194
 30
0
 11
71.64256374693306
 21
39.85145758923421
 31
0
 12
72.16211453310125
 22
39.20088964829319
 32
0
 13
72.16211453310125
 23
39.20088964829319
 33
0
  0
LINE
  5
B6
100
AcDbEntity
  8
Dimensions
  6
ByBlock
 62
    0
100
AcDbLine
 10
67.8
 20
36.25
 11
83.18919814958831
 21
48.53998463335176
  0
MTEXT
  5
B7
100
AcDbEntity
  8
Dimensions
  6
CONTINUOUS
 62
    0
100
AcDbMText
 10
75.3989592238116
 20
44.71815890969155
 30
0
 40
2.5
 41
11.9444444444446
 71
    5
 72
    1
  1
8-R2.75
  7
standard
210
0
220
0
230
1
 50
38.61125252036399
 73
    2
 44
1
  0
ENDBLK
  5
51
100
AcDbEntity
  8
0
100
AcDbBlockEnd
  0
BLOCK
  5
53
100
AcDbEntity
  8
0
100
AcDbBlockBegin
  2
*D22
 70
    1
 10
0
 20
0
  3
*D22
  1

  0
SOLID
  5
B8
100
AcDbEntity
  8
Dimensions_DieCut
  6
ByBlock
 62
    0
100
AcDbTrace
 10
52.57716087323351
 20
20.99820456486526
 30
0
 11
50.42106259428783
 21
22.33032059878443
 31
0
 12
50.96906351834674
 22
22.95711135527241
 32
0
 13
50.96906351834674
 23
22.95711135527241
 33
0
  0
LINE
  5
B9
100
AcDbEntity
  8
Dimensions_DieCut
  6
ByBlock
 62
    0
100
AcDbLine
 10
53.33
 20
20.34
 11
41.49369595139353
 21
30.68843843649274
  0
MTEXT
  5
BA
100
AcDbEntity
  8
Dimensions_DieCut
  6
CONTINUOUS
 62
    0
100
AcDbMText
 10
48.26956197143589
 20
27.25489486336617
 30
0
 40
2.5
 41
9.722222222222221
 71
    5
 72
    1
  1
4-R1.0
  7
standard
210
0
220
0
230
1
 50
318.8369139692139
 73
    2
 44
1
  0
ENDBLK
  5
54
100
AcDbEntity
  8
0
100
AcDbBlockEnd
  0
BLOCK
  5
56
100
AcDbEntity
  8
0
100
AcDbBlockBegin
  2
*D18
 70
    1
 10
0
 20
0
  3
*D18
  1

  0
LINE
  5
BB
100
AcDbEntity
  8
Dimensions_DieCut
  6
ByBlock
 62
    0
100
AcDbLine
 10
52.33
 20
-20
 11
0
 21
-20
  0
MTEXT
  5
BC
100
AcDbEntity
  8
Dimensions_DieCut
  6
CONTINUOUS
 62
    0
100
AcDbMText
 10
26.165
 20
-18.125
 30
0
 40
2.5
 41
7.777777777778244
 71
    5
 72
    1
  1
52.33
  7
standard
210
0
220
0
230
1
 50
0
 73
    2
 44
1
  0
SOLID
  5
BD
100
AcDbEntity
  8
Dimensions_DieCut
  6
ByBlock
 62
    0
100
AcDbTrace
 10
52.33
 20
-20
 30
0
 11
49.83
 21
-20.41628465777284
 31
0
 12
49.83
 22
-19.58371534222716
 32
0
 13
49.83
 23
-19.58371534222716
 33
0
  0
SOLID
  5
BE
100
AcDbEntity
  8
Dimensions_DieCut
  6
ByBlock
 62
    0
100
AcDbTrace
 10
0
 20
-20
 30
0
 11
2.5
 21
-19.58371534222716
 31
0
 12
2.5
 22
-20.41628465777284
 32
0
 13
2.5
 23
-20.41628465777284
 33
0
  0
LINE
  5
BF
100
AcDbEntity
  8
Dimensions_DieCut
  6
ByBlock
 62
    0
100
AcDbLine
 10
52.33
 20
6.875
 11
52.33
 21
-21.25
  0
LINE
  5
C0
100
AcDbEntity
  8
Dimensions_DieCut
  6
ByBlock
 62
    0
100
AcDbLine
 10
-1.148068456708479e-16
 20
-0.625
 11
-2.296136913416957e-16
 21
-21.25
  0
ENDBLK
  5
57
100
AcDbEntity
  8
0
100
AcDbBlockEnd
  0
BLOCK
  5
59
100
AcDbEntity
  8
0
100
AcDbBlockBegin
  2
*D9
 70
    1
 10
0
 20
0
  3
*D9
  1

  0
LINE
  5
C1
100
AcDbEntity
  8
Dimensions_DieCut
  6
ByBlock
 62
    0
100
AcDbLine
 10
-1.894525417408902
 20
3.913239507614398
 11
3.164525417408901
 21
11.3567604923856
  0
MTEXT
  5
C2
100
AcDbEntity
  8
Dimensions_DieCut
  6
CONTINUOUS
 62
    0
100
AcDbMText
 10
4.931842194960528
 20
17.29266833378709
 30
0
 40
2.5
 41
10.55555555555556
 71
    5
 72
    1
  1
4-%%C9.0
  7
standard
210
0
220
0
230
1
 50
55.79768746905124
 73
    2
 44
1
  0
SOLID
  5
C3
100
AcDbEntity
  8
Dimensions_DieCut
  6
ByBlock
 62
    0
100
AcDbTrace
 10
-1.894525417408902
 20
3.913239507614398
 30
0
 11
-0.8335250283784497
 21
6.21488480843168
 31
0
 12
-0.1449420093183522
 22
5.746883642781118
 32
0
 13
-0.1449420093183522
 23
5.746883642781118
 33
0
  0
SOLID
  5
C4
100
AcDbEntity
  8
Dimensions_DieCut
  6
ByBlock
 62
    0
100
AcDbTrace
 10
3.164525417408901
 20
11.3567604923856
 30
0
 11
2.103525028378449
 21
9.055115191568319
 31
0
 12
1.414942009318352
 22
9.523116357218882
 32
0
 13
1.414942009318352
 23
9.523116357218882
 33
0
  0
ENDBLK
  5
5A
100
AcDbEntity
  8
0
100
AcDbBlockEnd
  0
BLOCK
  5
5C
100
AcDbEntity
  8
0
100
AcDbBlockBegin
  2
*D15
 70
    1
 10
0
 20
0
  3
*D15
  1

  0
LINE
  5
C5
100
AcDbEntity
  8
Dimensions_DieCut
  6
ByBlock
 62
    0
100
AcDbLine
 10
45
 20
6.5
 11
45
 21
1.4210854715202e-16
  0
MTEXT
  5
C6
100
AcDbEntity
  8
Dimensions_DieCut
  6
CONTINUOUS
 62
    0
100
AcDbMText
 10
43.125
 20
3.25
 30
0
 40
2.5
 41
3.888888888889199
 71
    5
 72
    1
  1
6.5
  7
standard
210
0
220
0
230
1
 50
90
 73
    2
 44
1
  0
SOLID
  5
C7
100
AcDbEntity
  8
Dimensions_DieCut
  6
ByBlock
 62
    0
100
AcDbTrace
 10
45
 20
6.5
 30
0
 11
45.41628465777284
 21
4
 31
0
 12
44.58371534222716
 22
4
 32
0
 13
44.58371534222716
 23
4
 33
0
  0
SOLID
  5
C8
100
AcDbEntity
  8
Dimensions_DieCut
  6
ByBlock
 62
    0
100
AcDbTrace
 10
45
 20
1.4210854715202e-16
 30
0
 11
44.58371534222716
 21
2.5
 31
0
 12
45.41628465777284
 22
2.5
 32
0
 13
45.41628465777284
 23
2.5
 33
0
  0
LINE
  5
C9
100
AcDbEntity
  8
Dimensions_DieCut
  6
ByBlock
 62
    0
100
AcDbLine
 10
46.235
 20
6.5
 11
43.75
 21
6.5
  0
LINE
  5
CA
100
AcDbEntity
  8
Dimensions_DieCut
  6
ByBlock
 62
    0
100
AcDbLine
 10
46.375
 20
7.653789711389858e-17
 11
43.75
 21
2.951843413798172e-16
  0
ENDBLK
  5
5D
100
AcDbEntity
  8
0
100
AcDbBlockEnd
  0
BLOCK
  5
5F
100
AcDbEntity
  8
0
100
AcDbBlockBegin
  2
*D10
 70
    1
 10
0
 20
0
  3
*D10
  1

  0
LINE
  5
CB
100
AcDbEntity
  8
Dimensions_DieCut
  6
ByBlock
 62
    0
100
AcDbLine
 10
-21.59
 20
-15
 11
0
 21
-15
  0
MTEXT
  5
CC
100
AcDbEntity
  8
Dimensions_DieCut
  6
CONTINUOUS
 62
    0
100
AcDbMText
 10
-10.795
 20
-13.125
 30
0
 40
2.5
 41
7.222222222222378
 71
    5
 72
    1
  1
21.59
  7
standard
210
0
220
0
230
1
 50
0
 73
    2
 44
1
  0
SOLID
  5
CD
100
AcDbEntity
  8
Dimensions_DieCut
  6
ByBlock
 62
    0
100
AcDbTrace
 10
-21.59
 20
-15
 30
0
 11
-19.09
 21
-14.58371534222716
 31
0
 12
-19.09
 22
-15.41628465777284
 32
0
 13
-19.09
 23
-15.41628465777284
 33
0
  0
SOLID
  5
CE
100
AcDbEntity
  8
Dimensions_DieCut
  6
ByBlock
 62
    0
100
AcDbTrace
 10
0
 20
-15
 30
0
 11
-2.5
 21
-15.41628465777284
 31
0
 12
-2.5
 22
-14.58371534222716
 32
0
 13
-2.5
 23
-14.58371534222716
 33
0
  0
LINE
  5
CF
100
AcDbEntity
  8
Dimensions_DieCut
  6
ByBlock
 62
    0
100
AcDbLine
 10
-21.59
 20
2.51
 11
-21.59
 21
-16.25
  0
LINE
  5
D0
100
AcDbEntity
  8
Dimensions_DieCut
  6
ByBlock
 62
    0
100
AcDbLine
 10
-1.148068456708479e-16
 20
-0.625
 11
-2.296136913416957e-16
 21
-16.25
  0
ENDBLK
  5
60
100
AcDbEntity
  8
0
100
AcDbBlockEnd
  0
BLOCK
  5
62
100
AcDbEntity
  8
0
100
AcDbBlockBegin
  2
*D6
 70
    1
 10
0
 20
0
  3
*D6
  1

  0
LINE
  5
D1
100
AcDbEntity
  8
Dimensions
  6
ByBlock
 62
    0
100
AcDbLine
 10
90
 20
0
 11
90
 21
39
  0
MTEXT
  5
D2
100
AcDbEntity
  8
Dimensions
  6
CONTINUOUS
 62
    0
100
AcDbMText
 10
88.125
 20
19.5
 30
0
 40
2.5
 41
26.25000000000063
 71
    5
 72
    1
  1
39.0mm %%P 0.2mm
  7
standard
210
0
220
0
230
1
 50
90
 73
    2
 44
1
  0
SOLID
  5
D3
100
AcDbEntity
  8
Dimensions
  6
ByBlock
 62
    0
100
AcDbTrace
 10
90
 20
0
 30
0
 11
89.58371534222717
 21
2.5
 31
0
 12
90.41628465777283
 22
2.5
 32
0
 13
90.41628465777283
 23
2.5
 33
0
  0
SOLID
  5
D4
100
AcDbEntity
  8
Dimensions
  6
ByBlock
 62
    0
100
AcDbTrace
 10
90
 20
39
 30
0
 11
90.41628465777283
 21
36.5
 31
0
 12
89.58371534222717
 22
36.5
 32
0
 13
89.58371534222717
 23
36.5
 33
0
  0
LINE
  5
D5
100
AcDbEntity
  8
Dimensions
  6
ByBlock
 62
    0
100
AcDbLine
 10
68.425
 20
0
 11
91.25
 21
0
  0
LINE
  5
D6
100
AcDbEntity
  8
Dimensions
  6
ByBlock
 62
    0
100
AcDbLine
 10
68.425
 20
39
 11
91.25
 21
39
  0
ENDBLK
  5
63
100
AcDbEntity
  8
0
100
AcDbBlockEnd
  0
BLOCK
  5
65
100
AcDbEntity
  8
0
100
AcDbBlockBegin
  2
*D21
 70
    1
 10
0
 20
0
  3
*D21
  1

  0
LINE
  5
D7
100
AcDbEntity
  8
Dimensions_DieCut
  6
ByBlock
 62
    0
100
AcDbLine
 10
57
 20
21.34
 11
57
 21
6.5
  0
MTEXT
  5
D8
100
AcDbEntity
  8
Dimensions_DieCut
  6
CONTINUOUS
 62
    0
100
AcDbMText
 10
55.125
 20
13.92
 30
0
 40
2.5
 41
7.777777777777779
 71
    5
 72
    1
  1
14.84
  7
standard
210
0
220
0
230
1
 50
90
 73
    2
 44
1
  0
SOLID
  5
D9
100
AcDbEntity
  8
Dimensions_DieCut
  6
ByBlock
 62
    0
100
AcDbTrace
 10
57
 20
21.34
 30
0
 11
57.41628465777284
 21
18.84
 31
0
 12
56.58371534222716
 22
18.84
 32
0
 13
56.58371534222716
 23
18.84
 33
0
  0
SOLID
  5
DA
100
AcDbEntity
  8
Dimensions_DieCut
  6
ByBlock
 62
    0
100
AcDbTrace
 10
57
 20
6.5
 30
0
 11
56.58371534222716
 21
9
 31
0
 12
57.41628465777284
 22
9
 32
0
 13
57.41628465777284
 23
9
 33
0
  0
LINE
  5
DB
100
AcDbEntity
  8
Dimensions_DieCut
  6
ByBlock
 62
    0
100
AcDbLine
 10
53.955
 20
21.34
 11
58.25
 21
21.34
  0
LINE
  5
DC
100
AcDbEntity
  8
Dimensions_DieCut
  6
ByBlock
 62
    0
100
AcDbLine
 10
53.955
 20
6.5
 11
58.25
 21
6.5
  0
ENDBLK
  5
66
100
AcDbEntity
  8
0
100
AcDbBlockEnd
  0
BLOCK
  5
68
100
AcDbEntity
  8
0
100
AcDbBlockBegin
  2
*D4
 70
    1
 10
0
 20
0
  3
*D4
  1

  0
LINE
  5
DD
100
AcDbEntity
  8
Dimensions
  6
ByBlock
 62
    0
100
AcDbLine
 10
-78.3
 20
54
 11
78.3
 21
54
  0
MTEXT
  5
DE
100
AcDbEntity
  8
Dimensions
  6
CONTINUOUS
 62
    0
100
AcDbMText
 10
1.148068456708479e-16
 20
55.875
 30
0
 40
2.5
 41
27.63888888888982
 71
    5
 72
    1
  1
156.6mm %%P 0.2mm
  7
standard
210
0
220
0
230
1
 50
0
 73
    2
 44
1
  0
SOLID
  5
DF
100
AcDbEntity
  8
Dimensions
  6
ByBlock
 62
    0
100
AcDbTrace
 10
-78.3
 20
54
 30
0
 11
-75.8
 21
54.41628465777284
 31
0
 12
-75.8
 22
53.58371534222716
 32
0
 13
-75.8
 23
53.58371534222716
 33
0
  0
SOLID
  5
E0
100
AcDbEntity
  8
Dimensions
  6
ByBlock
 62
    0
100
AcDbTrace
 10
78.3
 20
54
 30
0
 11
75.8
 21
53.58371534222716
 31
0
 12
75.8
 22
54.41628465777284
 32
0
 13
75.8
 23
54.41628465777284
 33
0
  0
LINE
  5
E1
100
AcDbEntity
  8
Dimensions
  6
ByBlock
 62
    0
100
AcDbLine
 10
-78.3
 20
29.125
 11
-78.3
 21
55.25
  0
LINE
  5
E2
100
AcDbEntity
  8
Dimensions
  6
ByBlock
 62
    0
100
AcDbLine
 10
78.3
 20
29.125
 11
78.3
 21
55.25
  0
ENDBLK
  5
69
100
AcDbEntity
  8
0
100
AcDbBlockEnd
  0
BLOCK
  5
6B
100
AcDbEntity
  8
0
100
AcDbBlockBegin
  2
*D12
 70
    1
 10
0
 20
0
  3
*D12
  1

  0
LINE
  5
E3
100
AcDbEntity
  8
Dimensions_DieCut
  6
ByBlock
 62
    0
100
AcDbLine
 10
-66.04000000000001
 20
-25
 11
0
 21
-25
  0
MTEXT
  5
E4
100
AcDbEntity
  8
Dimensions_DieCut
  6
CONTINUOUS
 62
    0
100
AcDbMText
 10
-33.02
 20
-23.125
 30
0
 40
2.5
 41
8.055555555555866
 71
    5
 72
    1
  1
66.04
  7
standard
210
0
220
0
230
1
 50
0
 73
    2
 44
1
  0
SOLID
  5
E5
100
AcDbEntity
  8
Dimensions_DieCut
  6
ByBlock
 62
    0
100
AcDbTrace
 10
-66.04000000000001
 20
-25
 30
0
 11
-63.54000000000001
 21
-24.58371534222716
 31
0
 12
-63.54000000000001
 22
-25.41628465777284
 32
0
 13
-63.54000000000001
 23
-25.41628465777284
 33
0
  0
SOLID
  5
E6
100
AcDbEntity
  8
Dimensions_DieCut
  6
ByBlock
 62
    0
100
AcDbTrace
 10
0
 20
-25
 30
0
 11
-2.5
 21
-25.41628465777284
 31
0
 12
-2.5
 22
-24.58371534222716
 32
0
 13
-2.5
 23
-24.58371534222716
 33
0
  0
LINE
  5
E7
100
AcDbEntity
  8
Dimensions_DieCut
  6
ByBlock
 62
    0
100
AcDbLine
 10
-66.04000000000001
 20
2.51
 11
-66.04000000000001
 21
-26.25
  0
LINE
  5
E8
100
AcDbEntity
  8
Dimensions_DieCut
  6
ByBlock
 62
    0
100
AcDbLine
 10
-1.148068456708479e-16
 20
-0.625
 11
-2.296136913416957e-16
 21
-26.25
  0
ENDBLK
  5
6C
100
AcDbEntity
  8
0
100
AcDbBlockEnd
  0
BLOCK
  5
6E
100
AcDbEntity
  8
0
100
AcDbBlockBegin
  2
*D2
 70
    1
 10
0
 20
0
  3
*D2
  1

  0
SOLID
  5
E9
100
AcDbEntity
  8
Dimensions
  6
ByBlock
 62
    0
100
AcDbTrace
 10
71.51347693215517
 20
33.2993252428035
 30
0
 11
69.74087952453246
 21
31.48791933942726
 31
0
 12
69.24955127193306
 22
32.16005638898324
 32
0
 13
69.24955127193306
 23
32.16005638898324
 33
0
  0
LINE
  5
EA
100
AcDbEntity
  8
Dimensions
  6
ByBlock
 62
    0
100
AcDbLine
 10
75.55
 20
36.25
 11
59.17965644707364
 21
24.28337459581412
  0
MTEXT
  5
EB
100
AcDbEntity
  8
Dimensions
  6
CONTINUOUS
 62
    0
100
AcDbMText
 10
64.24006365566572
 20
30.30504606975062
 30
0
 40
2.5
 41
10.27777777777793
 71
    5
 72
    1
  1
4-R5.0
  7
standard
210
0
220
0
230
1
 50
36.1665853487809
 73
    2
 44
1
  0
ENDBLK
  5
6F
100
AcDbEntity
  8
0
100
AcDbBlockEnd
  0
BLOCK
  5
71
100
AcDbEntity
  8
0
100
AcDbBlockBegin
  2
*D19
 70
    1
 10
0
 20
0
  3
*D19
  1

  0
LINE
  5
EC
100
AcDbEntity
  8
Dimensions_DieCut
  6
ByBlock
 62
    0
100
AcDbLine
 10
52.33
 20
-20
 11
69.59
 21
-20
  0
MTEXT
  5
ED
100
AcDbEntity
  8
Dimensions_DieCut
  6
CONTINUOUS
 62
    0
100
AcDbMText
 10
60.96
 20
-18.125
 30
0
 40
2.5
 41
7.222222222222378
 71
    5
 72
    1
  1
17.26
  7
standard
210
0
220
0
230
1
 50
0
 73
    2
 44
1
  0
SOLID
  5
EE
100
AcDbEntity
  8
Dimensions_DieCut
  6
ByBlock
 62
    0
100
AcDbTrace
 10
52.33
 20
-20
 30
0
 11
54.83
 21
-19.58371534222716
 31
0
 12
54.83
 22
-20.41628465777284
 32
0
 13
54.83
 23
-20.41628465777284
 33
0
  0
SOLID
  5
EF
100
AcDbEntity
  8
Dimensions_DieCut
  6
ByBlock
 62
    0
100
AcDbTrace
 10
69.59
 20
-20
 30
0
 11
67.09
 21
-20.41628465777284
 31
0
 12
67.09
 22
-19.58371534222716
 32
0
 13
67.09
 23
-19.58371534222716
 33
0
  0
LINE
  5
F0
100
AcDbEntity
  8
Dimensions_DieCut
  6
ByBlock
 62
    0
100
AcDbLine
 10
52.33
 20
6.875
 11
52.33
 21
-21.25
  0
LINE
  5
F1
100
AcDbEntity
  8
Dimensions_DieCut
  6
ByBlock
 62
    0
100
AcDbLine
 10
69.59
 20
6.875
 11
69.59
 21
-21.25
  0
ENDBLK
  5
72
100
AcDbEntity
  8
0
100
AcDbBlockEnd
  0
BLOCK
  5
74
100
AcDbEntity
  8
0
100
AcDbBlockBegin
  2
*D20
 70
    1
 10
0
 20
0
  3
*D20
  1

  0
LINE
  5
F2
100
AcDbEntity
  8
Dimensions_DieCut
  6
ByBlock
 62
    0
100
AcDbLine
 10
66
 20
6.5
 11
66
 21
0
  0
MTEXT
  5
F3
100
AcDbEntity
  8
Dimensions_DieCut
  6
CONTINUOUS
 62
    0
100
AcDbMText
 10
64.125
 20
3.25
 30
0
 40
2.5
 41
3.888888888889199
 71
    5
 72
    1
  1
6.5
  7
standard
210
0
220
0
230
1
 50
90
 73
    2
 44
1
  0
SOLID
  5
F4
100
AcDbEntity
  8
Dimensions_DieCut
  6
ByBlock
 62
    0
100
AcDbTrace
 10
66
 20
6.5
 30
0
 11
66.41628465777283
 21
4
 31
0
 12
65.58371534222717
 22
4
 32
0
 13
65.58371534222717
 23
4
 33
0
  0
SOLID
  5
F5
100
AcDbEntity
  8
Dimensions_DieCut
  6
ByBlock
 62
    0
100
AcDbTrace
 10
66
 20
0
 30
0
 11
65.58371534222717
 21
2.5
 31
0
 12
66.41628465777283
 22
2.5
 32
0
 13
66.41628465777283
 23
2.5
 33
0
  0
LINE
  5
F6
100
AcDbEntity
  8
Dimensions_DieCut
  6
ByBlock
 62
    0
100
AcDbLine
 10
67.965
 20
6.5
 11
64.75
 21
6.5
  0
LINE
  5
F7
100
AcDbEntity
  8
Dimensions_DieCut
  6
ByBlock
 62
    0
100
AcDbLine
 10
67.175
 20
7.653789711389858e-17
 11
64.75
 21
1.530757942277972e-16
  0
ENDBLK
  5
75
100
AcDbEntity
  8
0
100
AcDbBlockEnd
  0
BLOCK
  5
77
100
AcDbEntity
  8
0
100
AcDbBlockBegin
  2
*D7
 70
    1
 10
0
 20
0
  3
*D7
  1

  0
LINE
  5
F8
100
AcDbEntity
  8
Dimensions_DieCut
  6
ByBlock
 62
    0
100
AcDbLine
 10
5.634999999999999
 20
-10
 11
-5
 21
-10
  0
MTEXT
  5
F9
100
AcDbEntity
  8
Dimensions_DieCut
  6
CONTINUOUS
 62
    0
100
AcDbMText
 10
5.148888888889122
 20
-8.125
 30
0
 40
2.5
 41
7.777777777778244
 71
    5
 72
    1
  1
0.635
  7
standard
210
0
220
0
230
1
 50
0
 73
    2
 44
1
  0
SOLID
  5
FA
100
AcDbEntity
  8
Dimensions_DieCut
  6
ByBlock
 62
    0
100
AcDbTrace
 10
0.6349999999999992
 20
-10
 30
0
 11
3.134999999999999
 21
-9.58371534222716
 31
0
 12
3.134999999999999
 22
-10.41628465777284
 32
0
 13
3.134999999999999
 23
-10.41628465777284
 33
0
  0
SOLID
  5
FB
100
AcDbEntity
  8
Dimensions_DieCut
  6
ByBlock
 62
    0
100
AcDbTrace
 10
0
 20
-10
 30
0
 11
-2.5
 21
-10.41628465777284
 31
0
 12
-2.5
 22
-9.58371534222716
 32
0
 13
-2.5
 23
-9.58371534222716
 33
0
  0
LINE
  5
FC
100
AcDbEntity
  8
Dimensions_DieCut
  6
ByBlock
 62
    0
100
AcDbLine
 10
0.6349999999999991
 20
2.51
 11
0.634999999999999
 21
-11.25
  0
LINE
  5
FD
100
AcDbEntity
  8
Dimensions_DieCut
  6
ByBlock
 62
    0
100
AcDbLine
 10
-1.148068456708479e-16
 20
-0.625
 11
-2.296136913416957e-16
 21
-11.25
  0
ENDBLK
  5
78
100
AcDbEntity
  8
0
100
AcDbBlockEnd
  0
BLOCK
  5
7A
100
AcDbEntity
  8
0
100
AcDbBlockBegin
  2
*D16
 70
    1
 10
0
 20
0
  3
*D16
  1

  0
LINE
  5
FE
100
AcDbEntity
  8
Dimensions_DieCut
  6
ByBlock
 62
    0
100
AcDbLine
 10
15
 20
6.5
 11
15
 21
14.7
  0
MTEXT
  5
FF
100
AcDbEntity
  8
Dimensions_DieCut
  6
CONTINUOUS
 62
    0
100
AcDbMText
 10
13.125
 20
10.6
 30
0
 40
2.5
 41
3.888888888888889
 71
    5
 72
    1
  1
8.2
  7
standard
210
0
220
0
230
1
 50
90
 73
    2
 44
1
  0
SOLID
  5
100
100
AcDbEntity
  8
Dimensions_DieCut
  6
ByBlock
 62
    0
100
AcDbTrace
 10
15
 20
6.5
 30
0
 11
14.58371534222716
 21
9
 31
0
 12
15.41628465777284
 22
9
 32
0
 13
15.41628465777284
 23
9
 33
0
  0
SOLID
  5
101
100
AcDbEntity
  8
Dimensions_DieCut
  6
ByBlock
 62
    0
100
AcDbTrace
 10
15
 20
14.7
 30
0
 11
15.41628465777284
 21
12.2
 31
0
 12
14.58371534222716
 22
12.2
 32
0
 13
14.58371534222716
 23
12.2
 33
0
  0
LINE
  5
102
100
AcDbEntity
  8
Dimensions_DieCut
  6
ByBlock
 62
    0
100
AcDbLine
 10
12.185
 20
6.5
 11
16.25
 21
6.5
  0
LINE
  5
103
100
AcDbEntity
  8
Dimensions_DieCut
  6
ByBlock
 62
    0
100
AcDbLine
 10
12.185
 20
14.7
 11
16.25
 21
14.7
  0
ENDBLK
  5
7B
100
AcDbEntity
  8
0
100
AcDbBlockEnd
  0
BLOCK
  5
7D
100
AcDbEntity
  8
0
100
AcDbBlockBegin
  2
*D13
 70
    1
 10
0
 20
0
  3
*D13
  1

  0
LINE
  5
104
100
AcDbEntity
  8
Dimensions_DieCut
  6
ByBlock
 62
    0
100
AcDbLine
 10
10.56
 20
-15
 11
0
 21
-15
  0
MTEXT
  5
105
100
AcDbEntity
  8
Dimensions_DieCut
  6
CONTINUOUS
 62
    0
100
AcDbMText
 10
5.28
 20
-13.125
 30
0
 40
2.5
 41
7.222222222222532
 71
    5
 72
    1
  1
10.56
  7
standard
210
0
220
0
230
1
 50
0
 73
    2
 44
1
  0
SOLID
  5
106
100
AcDbEntity
  8
Dimensions_DieCut
  6
ByBlock
 62
    0
100
AcDbTrace
 10
10.56
 20
-15
 30
0
 11
8.06
 21
-15.41628465777284
 31
0
 12
8.06
 22
-14.58371534222716
 32
0
 13
8.06
 23
-14.58371534222716
 33
0
  0
SOLID
  5
107
100
AcDbEntity
  8
Dimensions_DieCut
  6
ByBlock
 62
    0
100
AcDbTrace
 10
0
 20
-15
 30
0
 11
2.5
 21
-14.58371534222716
 31
0
 12
2.5
 22
-15.41628465777284
 32
0
 13
2.5
 23
-15.41628465777284
 33
0
  0
LINE
  5
108
100
AcDbEntity
  8
Dimensions_DieCut
  6
ByBlock
 62
    0
100
AcDbLine
 10
10.56
 20
6.875
 11
10.56
 21
-16.25
  0
LINE
  5
109
100
AcDbEntity
  8
Dimensions_DieCut
  6
ByBlock
 62
    0
100
AcDbLine
 10
-1.148068456708479e-16
 20
-0.625
 11
-2.296136913416957e-16
 21
-16.25
  0
ENDBLK
  5
7E
100
AcDbEntity
  8
0
100
AcDbBlockEnd
  0
BLOCK
  5
80
100
AcDbEntity
  8
0
100
AcDbBlockBegin
  2
*D14
 70
    1
 10
0
 20
0
  3
*D14
  1

  0
LINE
  5
10A
100
AcDbEntity
  8
Dimensions_DieCut
  6
ByBlock
 62
    0
100
AcDbLine
 10
10.56
 20
-15
 11
47.86
 21
-15
  0
MTEXT
  5
10B
100
AcDbEntity
  8
Dimensions_DieCut
  6
CONTINUOUS
 62
    0
100
AcDbMText
 10
29.21
 20
-13.125
 30
0
 40
2.5
 41
5.833333333333643
 71
    5
 72
    1
  1
37.3
  7
standard
210
0
220
0
230
1
 50
0
 73
    2
 44
1
  0
SOLID
  5
10C
100
AcDbEntity
  8
Dimensions_DieCut
  6
ByBlock
 62
    0
100
AcDbTrace
 10
10.56
 20
-15
 30
0
 11
13.06
 21
-14.58371534222716
 31
0
 12
13.06
 22
-15.41628465777284
 32
0
 13
13.06
 23
-15.41628465777284
 33
0
  0
SOLID
  5
10D
100
AcDbEntity
  8
Dimensions_DieCut
  6
ByBlock
 62
    0
100
AcDbTrace
 10
47.86
 20
-15
 30
0
 11
45.36
 21
-15.41628465777284
 31
0
 12
45.36
 22
-14.58371534222716
 32
0
 13
45.36
 23
-14.58371534222716
 33
0
  0
LINE
  5
10E
100
AcDbEntity
  8
Dimensions_DieCut
  6
ByBlock
 62
    0
100
AcDbLine
 10
10.56
 20
6.875
 11
10.56
 21
-16.25
  0
LINE
  5
10F
100
AcDbEntity
  8
Dimensions_DieCut
  6
ByBlock
 62
    0
100
AcDbLine
 10
47.86
 20
6.875
 11
47.86
 21
-16.25
  0
ENDBLK
  5
81
100
AcDbEntity
  8
0
100
AcDbBlockEnd
  0
BLOCK
  5
83
100
AcDbEntity
  8
0
100
AcDbBlockBegin
  2
*D1
 70
    1
 10
0
 20
0
  3
*D1
  1

  0
LINE
  5
110
100
AcDbEntity
  8
Dimensions
  6
ByBlock
 62
    0
100
AcDbLine
 10
-67.8
 20
49
 11
67.8
 21
49
  0
MTEXT
  5
111
100
AcDbEntity
  8
Dimensions
  6
CONTINUOUS
 62
    0
100
AcDbMText
 10
1.148068456708479e-16
 20
50.875
 30
0
 40
2.5
 41
7.222222222222687
 71
    5
 72
    1
  1
135.6
  7
standard
210
0
220
0
230
1
 50
0
 73
    2
 44
1
  0
SOLID
  5
112
100
AcDbEntity
  8
Dimensions
  6
ByBlock
 62
    0
100
AcDbTrace
 10
-67.8
 20
49
 30
0
 11
-65.3
 21
49.41628465777284
 31
0
 12
-65.3
 22
48.58371534222716
 32
0
 13
-65.3
 23
48.58371534222716
 33
0
  0
SOLID
  5
113
100
AcDbEntity
  8
Dimensions
  6
ByBlock
 62
    0
100
AcDbTrace
 10
67.8
 20
49
 30
0
 11
65.3
 21
48.58371534222716
 31
0
 12
65.3
 22
49.41628465777284
 32
0
 13
65.3
 23
49.41628465777284
 33
0
  0
LINE
  5
114
100
AcDbEntity
  8
Dimensions
  6
ByBlock
 62
    0
100
AcDbLine
 10
-67.8
 20
39.625
 11
-67.8
 21
50.25
  0
LINE
  5
115
100
AcDbEntity
  8
Dimensions
  6
ByBlock
 62
    0
100
AcDbLine
 10
67.8
 20
39.625
 11
67.8
 21
50.25
  0
ENDBLK
  5
84
100
AcDbEntity
  8
0
100
AcDbBlockEnd
  0
BLOCK
  5
86
100
AcDbEntity
  8
0
100
AcDbBlockBegin
  2
*D8
 70
    1
 10
0
 20
0
  3
*D8
  1

  0
LINE
  5
116
100
AcDbEntity
  8
Dimensions_DieCut
  6
ByBlock
 62
    0
100
AcDbLine
 10
-5.999999999999999
 20
7.635000000000001
 11
-6
 21
3.730349362740526e-16
  0
MTEXT
  5
117
100
AcDbEntity
  8
Dimensions_DieCut
  6
CONTINUOUS
 62
    0
100
AcDbMText
 10
-7.874999999999999
 20
12.14888888888912
 30
0
 40
2.5
 41
7.777777777778244
 71
    5
 72
    1
  1
7.635
  7
standard
210
0
220
0
230
1
 50
90
 73
    2
 44
1
  0
SOLID
  5
118
100
AcDbEntity
  8
Dimensions_DieCut
  6
ByBlock
 62
    0
100
AcDbTrace
 10
-5.999999999999999
 20
7.635000000000001
 30
0
 11
-5.583715342227158
 21
5.135000000000001
 31
0
 12
-6.41628465777284
 22
5.135000000000001
 32
0
 13
-6.41628465777284
 23
5.135000000000001
 33
0
  0
SOLID
  5
119
100
AcDbEntity
  8
Dimensions_DieCut
  6
ByBlock
 62
    0
100
AcDbTrace
 10
-6
 20
3.730349362740526e-16
 30
0
 11
-6.41628465777284
 21
2.5
 31
0
 12
-5.583715342227159
 22
2.5
 32
0
 13
-5.583715342227159
 23
2.5
 33
0
  0
LINE
  5
11A
100
AcDbEntity
  8
Dimensions_DieCut
  6
ByBlock
 62
    0
100
AcDbLine
 10
-4.49
 20
7.635000000000001
 11
-7.249999999999999
 21
7.635000000000001
  0
LINE
  5
11B
100
AcDbEntity
  8
Dimensions_DieCut
  6
ByBlock
 62
    0
100
AcDbLine
 10
-0.625
 20
7.653789711389858e-17
 11
-7.25
 21
5.261107305018497e-16
  0
ENDBLK
  5
87
100
AcDbEntity
  8
0
100
AcDbBlockEnd
  0
BLOCK
  5
89
100
AcDbEntity
  8
0
100
AcDbBlockBegin
  2
*D11
 70
    1
 10
0
 20
0
  3
*D11
  1

  0
LINE
  5
11C
100
AcDbEntity
  8
Dimensions_DieCut
  6
ByBlock
 62
    0
100
AcDbLine
 10
-43.815
 20
-20
 11
0
 21
-20
  0
MTEXT
  5
11D
100
AcDbEntity
  8
Dimensions_DieCut
  6
CONTINUOUS
 62
    0
100
AcDbMText
 10
-21.9075
 20
-18.125
 30
0
 40
2.5
 41
9.444444444444756
 71
    5
 72
    1
  1
43.815
  7
standard
210
0
220
0
230
1
 50
0
 73
    2
 44
1
  0
SOLID
  5
11E
100
AcDbEntity
  8
Dimensions_DieCut
  6
ByBlock
 62
    0
100
AcDbTrace
 10
-43.815
 20
-20
 30
0
 11
-41.315
 21
-19.58371534222716
 31
0
 12
-41.315
 22
-20.41628465777284
 32
0
 13
-41.315
 23
-20.41628465777284
 33
0
  0
SOLID
  5
11F
100
AcDbEntity
  8
Dimensions_DieCut
  6
ByBlock
 62
    0
100
AcDbTrace
 10
0
 20
-20
 30
0
 11
-2.5
 21
-20.41628465777284
 31
0
 12
-2.5
 22
-19.58371534222716
 32
0
 13
-2.5
 23
-19.58371534222716
 33
0
  0
LINE
  5
120
100
AcDbEntity
  8
Dimensions_DieCut
  6
ByBlock
 62
    0
100
AcDbLine
 10
-43.815
 20
2.51
 11
-43.815
 21
-21.25
  0
LINE
  5
121
100
AcDbEntity
  8
Dimensions_DieCut
  6
ByBlock
 62
    0
100
AcDbLine
 10
-1.148068456708479e-16
 20
-0.625
 11
-2.296136913416957e-16
 21
-21.25
  0
ENDBLK
  5
8A
100
AcDbEntity
  8
0
100
AcDbBlockEnd
  0
BLOCK
  5
8C
100
AcDbEntity
  8
0
100
AcDbBlockBegin
  2
*D17
 70
    1
 10
0
 20
0
  3
*D17
  1

  0
SOLID
  5
122
100
AcDbEntity
  8
Dimensions_DieCut
  6
ByBlock
 62
    0
100
AcDbTrace
 10
11.87700718512681
 20
14.64842313583019
 30
0
 11
12.2747111474209
 21
17.15144620297772
 31
0
 12
13.06433914846673
 22
16.88751574783364
 32
0
 13
13.06433914846673
 23
16.88751574783364
 33
0
  0
LINE
  5
123
100
AcDbEntity
  8
Dimensions_DieCut
  6
ByBlock
 62
    0
100
AcDbLine
 10
11.56
 20
13.7
 11
16.54405741060476
 21
28.61131930221917
  0
MTEXT
  5
124
100
AcDbEntity
  8
Dimensions_DieCut
  6
CONTINUOUS
 62
    0
100
AcDbMText
 10
12.43223891818417
 20
22.22425969113744
 30
0
 40
2.5
 41
9.722222222222221
 71
    5
 72
    1
  1
4-R1.0
  7
standard
210
0
220
0
230
1
 50
71.51797166465555
 73
    2
 44
1
  0
ENDBLK
  5
8D
100
AcDbEntity
  8
0
100
AcDbBlockEnd
  0
BLOCK
  5
8F
100
AcDbEntity
  8
0
100
AcDbBlockBegin
  2
*D5
 70
    1
 10
0
 20
0
  3
*D5
  1

  0
LINE
  5
125
100
AcDbEntity
  8
Dimensions
  6
ByBlock
 62
    0
100
AcDbLine
 10
85
 20
10.5
 11
85
 21
28.5
  0
MTEXT
  5
126
100
AcDbEntity
  8
Dimensions
  6
CONTINUOUS
 62
    0
100
AcDbMText
 10
83.125
 20
19.5
 30
0
 40
2.5
 41
2.5
 71
    5
 72
    1
  1
18
  7
standard
210
0
220
0
230
1
 50
90
 73
    2
 44
1
  0
SOLID
  5
127
100
AcDbEntity
  8
Dimensions
  6
ByBlock
 62
    0
100
AcDbTrace
 10
85
 20
10.5
 30
0
 11
84.58371534222717
 21
13
 31
0
 12
85.41628465777283
 22
13
 32
0
 13
85.41628465777283
 23
13
 33
0
  0
SOLID
  5
128
100
AcDbEntity
  8
Dimensions
  6
ByBlock
 62
    0
100
AcDbTrace
 10
85
 20
28.5
 30
0
 11
85.41628465777283
 21
26
 31
0
 12
84.58371534222717
 22
26
 32
0
 13
84.58371534222717
 23
26
 33
0
  0
LINE
  5
129
100
AcDbEntity
  8
Dimensions
  6
ByBlock
 62
    0
100
AcDbLine
 10
78.925
 20
10.5
 11
86.25
 21
10.5
  0
LINE
  5
12A
100
AcDbEntity
  8
Dimensions
  6
ByBlock
 62
    0
100
AcDbLine
 10
78.925
 20
28.5
 11
86.25
 21
28.5
  0
ENDBLK
  5
90
100
AcDbEntity
  8
0
100
AcDbBlockEnd
  0
BLOCK
  5
92
100
AcDbEntity
  8
0
100
AcDbBlockBegin
  2
RECT
 70
    0
 10
0
 20
0
  3
RECT
  1

  0
SOLID
  5
12B
100
AcDbEntity
  8
0
  6
ByLayer
 62
  256
100
AcDbTrace
 10
-0.5
 20
-0.5
 30
0
 11
0.5
 21
-0.5
 31
0
 12
-0.5
 22
0.5
 32
0
 13
0.5
 23
0.5
 33
0
  0
ENDBLK
  5
93
100
AcDbEntity
  8
0
100
AcDbBlockEnd
  0
BLOCK
  5
95
100
AcDbEntity
  8
0
100
AcDbBlockBegin
  2
PIE
 70
    0
 10
0
 20
0
  3
PIE
  1

  0
CIRCLE
  5
12C
100
AcDbEntity
  8
0
  6
ByLayer
 62
  256
100
AcDbCircle
 10
0
 20
0
 40
0.5
  0
ENDBLK
  5
96
100
AcDbEntity
  8
0
100
AcDbBlockEnd
  0
BLOCK
  5
98
100
AcDbEntity
  8
0
100
AcDbBlockBegin
  2
OCTAGONP
 70
    0
 10
0
 20
0
  3
OCTAGONP
  1

  0
LWPOLYLINE
  5
12D
100
AcDbEntity
  8
0
  6
ByLayer
 62
  256
100
AcDbPolyline
 90
    8
 70
    1
 43
0
 10
-0.5
 20
-0.2071
 10
-0.5
 20
0.2071
 10
-0.2071
 20
0.5
 10
0.2071
 20
0.5
 10
0.5
 20
0.2071
 10
0.5
 20
-0.2071
 10
0.2071
 20
-0.5
 10
-0.2071
 20
-0.5
  0
ENDBLK
  5
99
100
AcDbEntity
  8
0
100
AcDbBlockEnd
  0
BLOCK
  5
9B
100
AcDbEntity
  8
0
100
AcDbBlockBegin
  2
SQUAREP
 70
    0
 10
0
 20
0
  3
SQUAREP
  1

  0
SOLID
  5
12E
100
AcDbEntity
  8
0
  6
ByLayer
 62
  256
100
AcDbTrace
 10
-0.5
 20
-0.5
 30
0
 11
0.5
 21
-0.5
 31
0
 12
-0.5
 22
0.5
 32
0
 13
0.5
 23
0.5
 33
0
  0
ENDBLK
  5
9C
100
AcDbEntity
  8
0
100
AcDbBlockEnd
  0
BLOCK
  5
9E
100
AcDbEntity
  8
0
100
AcDbBlockBegin
  2
ROUNDP
 70
    0
 10
0
 20
0
  3
ROUNDP
  1

  0
CIRCLE
  5
12F
100
AcDbEntity
  8
0
  6
ByLayer
 62
  256
100
AcDbCircle
 10
0
 20
0
 40
0.5
  0
ENDBLK
  5
9F
100
AcDbEntity
  8
0
100
AcDbBlockEnd
  0
BLOCK
  5
A1
100
AcDbEntity
  8
0
100
AcDbBlockBegin
  2
ANNULUSP
 70
    0
 10
0
 20
0
  3
ANNULUSP
  1

  0
CIRCLE
  5
130
100
AcDbEntity
  8
0
  6
ByLayer
 62
  256
100
AcDbCircle
 10
0
 20
0
 40
0.5
  0
ENDBLK
  5
A2
100
AcDbEntity
  8
0
100
AcDbBlockEnd
  0
BLOCK
  5
A4
100
AcDbEntity
  8
0
100
AcDbBlockBegin
  2
THERMALP
 70
    0
 10
0
 20
0
  3
THERMALP
  1

  0
LINE
  5
131
100
AcDbEntity
  8
0
  6
ByLayer
 62
  256
100
AcDbLine
 10
-0.2379
 20
0.45
 11
0.2379
 21
0.45
  0
LINE
  5
132
100
AcDbEntity
  8
0
  6
ByLayer
 62
  256
100
AcDbLine
 10
0.45
 20
0.2379
 11
0.45
 21
-0.2379
  0
LINE
  5
133
100
AcDbEntity
  8
0
  6
ByLayer
 62
  256
100
AcDbLine
 10
0.2379
 20
-0.45
 11
-0.2379
 21
-0.45
  0
LINE
  5
134
100
AcDbEntity
  8
0
  6
ByLayer
 62
  256
100
AcDbLine
 10
-0.45
 20
-0.2379
 11
-0.45
 21
0.2379
  0
ENDBLK
  5
A5
100
AcDbEntity
  8
0
100
AcDbBlockEnd
  0
BLOCK
  5
A7
100
AcDbEntity
  8
0
100
AcDbBlockBegin
  2
OCTAGONV
 70
    0
 10
0
 20
0
  3
OCTAGONV
  1

  0
LWPOLYLINE
  5
135
100
AcDbEntity
  8
0
  6
ByLayer
 62
  256
100
AcDbPolyline
 90
    8
 70
    1
 43
0
 10
-0.5
 20
-0.2071
 10
-0.5
 20
0.2071
 10
-0.2071
 20
0.5
 10
0.2071
 20
0.5
 10
0.5
 20
0.2071
 10
0.5
 20
-0.2071
 10
0.2071
 20
-0.5
 10
-0.2071
 20
-0.5
  0
ENDBLK
  5
A8
100
AcDbEntity
  8
0
100
AcDbBlockEnd
  0
BLOCK
  5
AA
100
AcDbEntity
  8
0
100
AcDbBlockBegin
  2
SQUAREV
 70
    0
 10
0
 20
0
  3
SQUAREV
  1

  0
SOLID
  5
136
100
AcDbEntity
  8
0
  6
ByLayer
 62
  256
100
AcDbTrace
 10
-0.5
 20
-0.5
 30
0
 11
0.5
 21
-0.5
 31
0
 12
-0.5
 22
0.5
 32
0
 13
0.5
 23
0.5
 33
0
  0
ENDBLK
  5
AB
100
AcDbEntity
  8
0
100
AcDbBlockEnd
  0
BLOCK
  5
AD
100
AcDbEntity
  8
0
100
AcDbBlockBegin
  2
ROUNDV
 70
    0
 10
0
 20
0
  3
ROUNDV
  1

  0
CIRCLE
  5
137
100
AcDbEntity
  8
0
  6
ByLayer
 62
  256
100
AcDbCircle
 10
0
 20
0
 40
0.5
  0
ENDBLK
  5
AE
100
AcDbEntity
  8
0
100
AcDbBlockEnd
  0
BLOCK
  5
B0
100
AcDbEntity
  8
0
100
AcDbBlockBegin
  2
ANNULUSV
 70
    0
 10
0
 20
0
  3
ANNULUSV
  1

  0
CIRCLE
  5
138
100
AcDbEntity
  8
0
  6
ByLayer
 62
  256
100
AcDbCircle
 10
0
 20
0
 40
0.5
  0
ENDBLK
  5
B1
100
AcDbEntity
  8
0
100
AcDbBlockEnd
  0
BLOCK
  5
B3
100
AcDbEntity
  8
0
100
AcDbBlockBegin
  2
THERMALV
 70
    0
 10
0
 20
0
  3
THERMALV
  1

  0
LINE
  5
139
100
AcDbEntity
  8
0
  6
ByLayer
 62
  256
100
AcDbLine
 10
-0.2379
 20
0.45
 11
0.2379
 21
0.45
  0
LINE
  5
13A
100
AcDbEntity
  8
0
  6
ByLayer
 62
  256
100
AcDbLine
 10
0.45
 20
0.2379
 11
0.45
 21
-0.2379
  0
LINE
  5
13B
100
AcDbEntity
  8
0
  6
ByLayer
 62
  256
100
AcDbLine
 10
0.2379
 20
-0.45
 11
-0.2379
 21
-0.45
  0
LINE
  5
13C
100
AcDbEntity
  8
0
  6
ByLayer
 62
  256
100
AcDbLine
 10
-0.45
 20
-0.2379
 11
-0.45
 21
0.2379
  0
ENDBLK
  5
B4
100
AcDbEntity
  8
0
100
AcDbBlockEnd
  0
ENDSEC
  0
SECTION
  2
ENTITIES
  0
LINE
  5
13D
100
AcDbEntity
  8
0
  6
ByLayer
 62
  256
100
AcDbLine
 10
11.56
 20
14.7
 11
46.86
 21
14.7
  0
ARC
  5
13E
100
AcDbEntity
  8
0
  6
ByLayer
 62
  256
100
AcDbCircle
 10
11.56
 20
13.7
 40
1
100
AcDbArc
 50
90
 51
180
  0
LINE
  5
13F
100
AcDbEntity
  8
0
  6
ByLayer
 62
  256
100
AcDbLine
 10
10.56
 20
7.5
 11
10.56
 21
13.7
  0
ARC
  5
140
100
AcDbEntity
  8
0
  6
ByLayer
 62
  256
100
AcDbCircle
 10
11.56
 20
7.5
 40
1
100
AcDbArc
 50
180
 51
270
  0
LINE
  5
141
100
AcDbEntity
  8
0
  6
ByLayer
 62
  256
100
AcDbLine
 10
46.86
 20
6.5
 11
11.56
 21
6.5
  0
ARC
  5
142
100
AcDbEntity
  8
0
  6
ByLayer
 62
  256
100
AcDbCircle
 10
46.86
 20
7.5
 40
1
100
AcDbArc
 50
270
 51
0
  0
LINE
  5
143
100
AcDbEntity
  8
0
  6
ByLayer
 62
  256
100
AcDbLine
 10
47.86
 20
13.7
 11
47.86
 21
7.5
  0
ARC
  5
144
100
AcDbEntity
  8
0
  6
ByLayer
 62
  256
100
AcDbCircle
 10
46.86
 20
13.7
 40
1
100
AcDbArc
 50
0
 51
90
  0
LINE
  5
145
100
AcDbEntity
  8
0
  6
ByLayer
 62
  256
100
AcDbLine
 10
52.33
 20
7.5
 11
52.33
 21
20.34
  0
ARC
  5
146
100
AcDbEntity
  8
0
  6
ByLayer
 62
  256
100
AcDbCircle
 10
53.33
 20
7.5
 40
1
100
AcDbArc
 50
180
 51
270
  0
LINE
  5
147
100
AcDbEntity
  8
0
  6
ByLayer
 62
  256
100
AcDbLine
 10
68.59
 20
6.5
 11
53.33
 21
6.5
  0
ARC
  5
148
100
AcDbEntity
  8
0
  6
ByLayer
 62
  256
100
AcDbCircle
 10
68.59
 20
7.5
 40
1
100
AcDbArc
 50
270
 51
0
  0
LINE
  5
149
100
AcDbEntity
  8
0
  6
ByLayer
 62
  256
100
AcDbLine
 10
69.59
 20
20.34
 11
69.59
 21
7.5
  0
ARC
  5
14A
100
AcDbEntity
  8
0
  6
ByLayer
 62
  256
100
AcDbCircle
 10
68.59
 20
20.34
 40
1
100
AcDbArc
 50
0
 51
90
  0
LINE
  5
14B
100
AcDbEntity
  8
0
  6
ByLayer
 62
  256
100
AcDbLine
 10
53.33
 20
21.34
 11
68.59
 21
21.34
  0
ARC
  5
14C
100
AcDbEntity
  8
0
  6
ByLayer
 62
  256
100
AcDbCircle
 10
53.33
 20
20.34
 40
1
100
AcDbArc
 50
90
 51
180
  0
LINE
  5
14D
100
AcDbEntity
  8
0
  6
ByLayer
 62
  256
100
AcDbLine
 10
67.8
 20
39
 11
-67.8
 21
39
  0
ARC
  5
14E
100
AcDbEntity
  8
0
  6
ByLayer
 62
  256
100
AcDbCircle
 10
-67.8
 20
36.25
 40
2.75
100
AcDbArc
 50
90
 51
180
  0
ARC
  5
14F
100
AcDbEntity
  8
0
  6
ByLayer
 62
  256
100
AcDbCircle
 10
-75.55
 20
36.25
 40
5
100
AcDbArc
 50
270
 51
0
  0
ARC
  5
150
100
AcDbEntity
  8
0
  6
ByLayer
 62
  256
100
AcDbCircle
 10
-75.55
 20
28.5
 40
2.75
100
AcDbArc
 50
90
 51
180
  0
LINE
  5
151
100
AcDbEntity
  8
0
  6
ByLayer
 62
  256
100
AcDbLine
 10
-78.3
 20
28.5
 11
-78.3
 21
10.5
  0
ARC
  5
152
100
AcDbEntity
  8
0
  6
ByLayer
 62
  256
100
AcDbCircle
 10
-75.55
 20
10.5
 40
2.75
100
AcDbArc
 50
180
 51
270
  0
ARC
  5
153
100
AcDbEntity
  8
0
  6
ByLayer
 62
  256
100
AcDbCircle
 10
-75.55
 20
2.75
 40
5
100
AcDbArc
 50
0
 51
90
  0
ARC
  5
154
100
AcDbEntity
  8
0
  6
ByLayer
 62
  256
100
AcDbCircle
 10
-67.8
 20
2.75
 40
2.75
100
AcDbArc
 50
180
 51
270
  0
LINE
  5
155
100
AcDbEntity
  8
0
  6
ByLayer
 62
  256
100
AcDbLine
 10
-67.8
 20
0
 11
67.8
 21
0
  0
ARC
  5
156
100
AcDbEntity
  8
0
  6
ByLayer
 62
  256
100
AcDbCircle
 10
67.8
 20
2.75
 40
2.75
100
AcDbArc
 50
270
 51
0
  0
ARC
  5
157
100
AcDbEntity
  8
0
  6
ByLayer
 62
  256
100
AcDbCircle
 10
75.55
 20
2.75
 40
5
100
AcDbArc
 50
90
 51
180
  0
ARC
  5
158
100
AcDbEntity
  8
0
  6
ByLayer
 62
  256
100
AcDbCircle
 10
75.55
 20
10.5
 40
2.75
100
AcDbArc
 50
270
 51
0
  0
LINE
  5
159
100
AcDbEntity
  8
0
  6
ByLayer
 62
  256
100
AcDbLine
 10
78.3
 20
10.5
 11
78.3
 21
28.5
  0
ARC
  5
15A
100
AcDbEntity
  8
0
  6
ByLayer
 62
  256
100
AcDbCircle
 10
75.55
 20
28.5
 40
2.75
100
AcDbArc
 50
0
 51
90
  0
ARC
  5
15B
100
AcDbEntity
  8
0
  6
ByLayer
 62
  256
100
AcDbCircle
 10
75.55
 20
36.25
 40
5
100
AcDbArc
 50
180
 51
270
  0
ARC
  5
15C
100
AcDbEntity
  8
0
  6
ByLayer
 62
  256
100
AcDbCircle
 10
67.8
 20
36.25
 40
2.75
100
AcDbArc
 50
0
 51
90
  0
CIRCLE
  5
15D
100
AcDbEntity
  8
0
  6
ByLayer
 62
  256
100
AcDbCircle
 10
-66.04000000000001
 20
7.635
 40
4.5
  0
CIRCLE
  5
15E
100
AcDbEntity
  8
0
  6
ByLayer
 62
  256
100
AcDbCircle
 10
-43.815
 20
7.635
 40
4.5
  0
CIRCLE
  5
15F
100
AcDbEntity
  8
0
  6
ByLayer
 62
  256
100
AcDbCircle
 10
-21.59
 20
7.635
 40
4.5
  0
CIRCLE
  5
160
100
AcDbEntity
  8
0
  6
ByLayer
 62
  256
100
AcDbCircle
 10
0.635
 20
7.635
 40
4.5
  0
DIMENSION
  5
161
100
AcDbEntity
  8
Dimensions
  6
ByLayer
 62
  256
100
AcDbDimension
  2
*D1
 10
67.8
 20
49
 30
0
 11
1.148068456708479e-16
 21
50.875
 31
0
 70
   32
 71
    5
  3
Standard
 53
0
210
0
220
0
230
1
100
AcDbAlignedDimension
 13
-67.8
 23
39
 33
0
 14
67.8
 24
39
 34
0
100
AcDbRotatedDimension
  0
DIMENSION
  5
162
100
AcDbEntity
  8
Dimensions
  6
ByLayer
 62
  256
100
AcDbDimension
  2
*D2
 10
75.55
 20
36.25
 30
0
 11
64.24006365566572
 21
30.30504606975062
 31
0
 70
   36
  1
4-R5.0
 71
    5
  3
Standard
 53
0
210
0
220
0
230
1
100
AcDbRadialDimension
 15
71.51347693215517
 25
33.2993252428035
 35
0
 40
0
  0
DIMENSION
  5
163
100
AcDbEntity
  8
Dimensions
  6
ByLayer
 62
  256
100
AcDbDimension
  2
*D3
 10
67.8
 20
36.25
 30
0
 11
75.3989592238116
 21
44.71815890969155
 31
0
 70
   36
  1
8-R2.75
 71
    5
  3
Standard
 53
0
210
0
220
0
230
1
100
AcDbRadialDimension
 15
69.94884431143755
 25
37.96609094316194
 35
0
 40
0
  0
DIMENSION
  5
164
100
AcDbEntity
  8
Dimensions
  6
ByLayer
 62
  256
100
AcDbDimension
  2
*D4
 10
78.3
 20
54
 30
0
 11
1.148068456708479e-16
 21
55.875
 31
0
 70
   32
  1
156.6mm %%P 0.2mm
 71
    5
  3
Standard
 53
0
210
0
220
0
230
1
100
AcDbAlignedDimension
 13
-78.3
 23
28.5
 33
0
 14
78.3
 24
28.5
 34
0
100
AcDbRotatedDimension
  0
DIMENSION
  5
165
100
AcDbEntity
  8
Dimensions
  6
ByLayer
 62
  256
100
AcDbDimension
  2
*D5
 10
85
 20
28.5
 30
0
 11
83.125
 21
19.5
 31
0
 70
   32
 71
    5
  3
Standard
 53
0
210
0
220
0
230
1
100
AcDbAlignedDimension
 13
78.3
 23
10.5
 33
0
 14
78.3
 24
28.5
 34
0
 50
90
100
AcDbRotatedDimension
  0
DIMENSION
  5
166
100
AcDbEntity
  8
Dimensions
  6
ByLayer
 62
  256
100
AcDbDimension
  2
*D6
 10
90
 20
39
 30
0
 11
88.125
 21
19.5
 31
0
 70
   32
  1
39.0mm %%P 0.2mm
 71
    5
  3
Standard
 53
0
210
0
220
0
230
1
100
AcDbAlignedDimension
 13
67.8
 23
0
 33
0
 14
67.8
 24
39
 34
0
 50
90
100
AcDbRotatedDimension
  0
LINE
  5
167
100
AcDbEntity
  8
Dimensions
  6
DASHDOTX2
 62
    1
100
AcDbLine
 10
0
 20
-6
 11
0
 21
44
  0
DIMENSION
  5
168
100
AcDbEntity
  8
Dimensions_DieCut
  6
ByLayer
 62
  256
100
AcDbDimension
  2
*D7
 10
-6.123031769111886e-16
 20
-10
 30
0
 11
0.3174999999999997
 21
-8.125
 31
0
 70
   32
 71
    5
  3
Standard
 53
0
210
0
220
0
230
1
100
AcDbAlignedDimension
 13
0.6349999999999992
 23
3.135
 33
0
 14
0
 24
0
 34
0
100
AcDbRotatedDimension
  0
DIMENSION
  5
169
100
AcDbEntity
  8
Dimensions_DieCut
  6
ByLayer
 62
  256
100
AcDbDimension
  2
*D8
 10
-6
 20
7.347638122934264e-16
 30
0
 11
-7.875
 21
3.817500000000001
 31
0
 70
   32
 71
    5
  3
Standard
 53
0
210
0
220
0
230
1
100
AcDbAlignedDimension
 13
-3.865
 23
7.635000000000001
 33
0
 14
0
 24
0
 34
0
 50
90
100
AcDbRotatedDimension
  0
DIMENSION
  5
16A
100
AcDbEntity
  8
Dimensions_DieCut
  6
ByLayer
 62
  256
100
AcDbDimension
  2
*D9
 10
-1.894525417408902
 20
3.913239507614398
 30
0
 11
-0.9157335384940012
 21
8.688968923920376
 31
0
 70
   35
  1
4-%%C9.0
 71
    5
  3
Standard
 53
0
210
0
220
0
230
1
100
AcDbDiametricDimension
 15
3.164525417408901
 25
11.3567604923856
 35
0
 40
0
  0
DIMENSION
  5
16B
100
AcDbEntity
  8
Dimensions_DieCut
  6
ByLayer
 62
  256
100
AcDbDimension
  2
*D10
 10
-9.184547653667829e-16
 20
-15
 30
0
 11
-10.795
 21
-13.125
 31
0
 70
   32
 71
    5
  3
Standard
 53
0
210
0
220
0
230
1
100
AcDbAlignedDimension
 13
-21.59
 23
3.135
 33
0
 14
0
 24
0
 34
0
100
AcDbRotatedDimension
  0
DIMENSION
  5
16C
100
AcDbEntity
  8
Dimensions_DieCut
  6
ByLayer
 62
  256
100
AcDbDimension
  2
*D11
 10
-1.224606353822377e-15
 20
-20
 30
0
 11
-21.9075
 21
-18.125
 31
0
 70
   32
 71
    5
  3
Standard
 53
0
210
0
220
0
230
1
100
AcDbAlignedDimension
 13
-43.815
 23
3.135
 33
0
 14
0
 24
0
 34
0
100
AcDbRotatedDimension
  0
DIMENSION
  5
16D
100
AcDbEntity
  8
Dimensions_DieCut
  6
ByLayer
 62
  256
100
AcDbDimension
  2
*D12
 10
-1.530757942277972e-15
 20
-25
 30
0
 11
-33.02
 21
-23.125
 31
0
 70
   32
 71
    5
  3
Standard
 53
0
210
0
220
0
230
1
100
AcDbAlignedDimension
 13
-66.04000000000001
 23
3.135
 33
0
 14
0
 24
0
 34
0
100
AcDbRotatedDimension
  0
DIMENSION
  5
16E
100
AcDbEntity
  8
Dimensions_DieCut
  6
ByLayer
 62
  256
100
AcDbDimension
  2
*D13
 10
-9.184547653667829e-16
 20
-15
 30
0
 11
5.28
 21
-13.125
 31
0
 70
   32
 71
    5
  3
Standard
 53
0
210
0
220
0
230
1
100
AcDbAlignedDimension
 13
10.56
 23
7.5
 33
0
 14
0
 24
0
 34
0
100
AcDbRotatedDimension
  0
DIMENSION
  5
16F
100
AcDbEntity
  8
Dimensions_DieCut
  6
ByLayer
 62
  256
100
AcDbDimension
  2
*D14
 10
47.86
 20
-15
 30
0
 11
29.21
 21
-13.125
 31
0
 70
   32
 71
    5
  3
Standard
 53
0
210
0
220
0
230
1
100
AcDbAlignedDimension
 13
10.56
 23
7.5
 33
0
 14
47.86
 24
7.5
 34
0
100
AcDbRotatedDimension
  0
DIMENSION
  5
170
100
AcDbEntity
  8
Dimensions_DieCut
  6
ByLayer
 62
  256
100
AcDbDimension
  2
*D15
 10
45
 20
2.449212707644755e-16
 30
0
 11
43.125
 21
3.25
 31
0
 70
   32
 71
    5
  3
Standard
 53
0
210
0
220
0
230
1
100
AcDbAlignedDimension
 13
46.86
 23
6.5
 33
0
 14
47
 24
0
 34
0
 50
90
100
AcDbRotatedDimension
  0
DIMENSION
  5
171
100
AcDbEntity
  8
Dimensions_DieCut
  6
ByLayer
 62
  256
100
AcDbDimension
  2
*D16
 10
15
 20
14.7
 30
0
 11
13.125
 21
10.6
 31
0
 70
   32
 71
    5
  3
Standard
 53
0
210
0
220
0
230
1
100
AcDbAlignedDimension
 13
11.56
 23
6.5
 33
0
 14
11.56
 24
14.7
 34
0
 50
90
100
AcDbRotatedDimension
  0
DIMENSION
  5
172
100
AcDbEntity
  8
Dimensions_DieCut
  6
ByLayer
 62
  256
100
AcDbDimension
  2
*D17
 10
11.56
 20
13.7
 30
0
 11
12.43223891818417
 21
22.22425969113744
 31
0
 70
   36
  1
4-R1.0
 71
    5
  3
Standard
 53
0
210
0
220
0
230
1
100
AcDbRadialDimension
 15
11.87700718512681
 25
14.64842313583019
 35
0
 40
0
  0
DIMENSION
  5
173
100
AcDbEntity
  8
Dimensions_DieCut
  6
ByLayer
 62
  256
100
AcDbDimension
  2
*D18
 10
-1.224606353822377e-15
 20
-20
 30
0
 11
26.165
 21
-18.125
 31
0
 70
   32
 71
    5
  3
Standard
 53
0
210
0
220
0
230
1
100
AcDbAlignedDimension
 13
52.33
 23
7.5
 33
0
 14
0
 24
0
 34
0
100
AcDbRotatedDimension
  0
DIMENSION
  5
174
100
AcDbEntity
  8
Dimensions_DieCut
  6
ByLayer
 62
  256
100
AcDbDimension
  2
*D19
 10
69.59
 20
-20
 30
0
 11
60.96
 21
-18.125
 31
0
 70
   32
 71
    5
  3
Standard
 53
0
210
0
220
0
230
1
100
AcDbAlignedDimension
 13
52.33
 23
7.5
 33
0
 14
69.59
 24
7.5
 34
0
100
AcDbRotatedDimension
  0
DIMENSION
  5
175
100
AcDbEntity
  8
Dimensions_DieCut
  6
ByLayer
 62
  256
100
AcDbDimension
  2
*D20
 10
66
 20
2.204291436880276e-16
 30
0
 11
64.125
 21
3.25
 31
0
 70
   32
 71
    5
  3
Standard
 53
0
210
0
220
0
230
1
100
AcDbAlignedDimension
 13
68.59
 23
6.5
 33
0
 14
67.8
 24
0
 34
0
 50
90
100
AcDbRotatedDimension
  0
DIMENSION
  5
176
100
AcDbEntity
  8
Dimensions_DieCut
  6
ByLayer
 62
  256
100
AcDbDimension
  2
*D21
 10
57
 20
6.499999999999999
 30
0
 11
55.125
 21
13.92
 31
0
 70
   32
 71
    5
  3
Standard
 53
0
210
0
220
0
230
1
100
AcDbAlignedDimension
 13
53.33
 23
21.34
 33
0
 14
53.33
 24
6.5
 34
0
 50
90
100
AcDbRotatedDimension
  0
DIMENSION
  5
177
100
AcDbEntity
  8
Dimensions_DieCut
  6
ByLayer
 62
  256
100
AcDbDimension
  2
*D22
 10
53.33
 20
20.34
 30
0
 11
48.26956197143589
 21
27.25489486336617
 31
0
 70
   36
  1
4-R1.0
 71
    5
  3
Standard
 53
0
210
0
220
0
230
1
100
AcDbRadialDimension
 15
52.57716087323351
 25
20.99820456486526
 35
0
 40
0
  0
ENDSEC
  0
SECTION
  2
OBJECTS
  0
DICTIONARY
  5
C
100
AcDbDictionary
281
    1
  3
ACAD_GROUP
350
D
  0
DICTIONARY
  5
D
330
C
100
AcDbDictionary
281
    1
  0
PLOTSETTINGS
  5
178
100
AcDbPlotSettings
  6
1x1
 40
0
 41
0
 42
0
 43
0
  0
ENDSEC
  0
EOF
