G04 EAGLE Gerber RS-274X export*
G75*
%MOMM*%
%FSLAX34Y34*%
%LPD*%
%IN*%
%IPPOS*%
%AMOC8*
5,1,8,0,0,1.08239X$1,22.5*%
G01*
%ADD10C,0.203200*%
%ADD11C,0.800000*%
%ADD12C,0.381000*%
%ADD13C,0.279400*%
%ADD14C,0.254000*%
%ADD15C,0.000000*%
%ADD16C,0.600000*%
%ADD17C,0.254000*%


D10*
X0Y0D02*
X631825Y0D01*
X631825Y63500D01*
X631829Y63807D01*
X631840Y64114D01*
X631858Y64420D01*
X631884Y64726D01*
X631918Y65031D01*
X631958Y65335D01*
X632006Y65638D01*
X632062Y65940D01*
X632124Y66240D01*
X632194Y66539D01*
X632271Y66836D01*
X632355Y67132D01*
X632447Y67425D01*
X632545Y67715D01*
X632650Y68003D01*
X632763Y68289D01*
X632882Y68572D01*
X633008Y68852D01*
X633140Y69129D01*
X633280Y69402D01*
X633426Y69672D01*
X633578Y69938D01*
X633737Y70201D01*
X633902Y70460D01*
X634073Y70714D01*
X634250Y70965D01*
X634434Y71211D01*
X634623Y71453D01*
X634818Y71689D01*
X635019Y71922D01*
X635225Y72149D01*
X635437Y72371D01*
X635654Y72588D01*
X635876Y72800D01*
X636103Y73006D01*
X636336Y73207D01*
X636572Y73402D01*
X636814Y73591D01*
X637060Y73775D01*
X637311Y73952D01*
X637565Y74123D01*
X637824Y74288D01*
X638087Y74447D01*
X638353Y74599D01*
X638623Y74745D01*
X638896Y74885D01*
X639173Y75017D01*
X639453Y75143D01*
X639736Y75262D01*
X640022Y75375D01*
X640310Y75480D01*
X640600Y75578D01*
X640893Y75670D01*
X641189Y75754D01*
X641486Y75831D01*
X641785Y75901D01*
X642085Y75963D01*
X642387Y76019D01*
X642690Y76067D01*
X642994Y76107D01*
X643299Y76141D01*
X643605Y76167D01*
X643911Y76185D01*
X644218Y76196D01*
X644525Y76200D01*
X873125Y76200D01*
X873432Y76196D01*
X873739Y76185D01*
X874045Y76167D01*
X874351Y76141D01*
X874656Y76107D01*
X874960Y76067D01*
X875263Y76019D01*
X875565Y75963D01*
X875865Y75901D01*
X876164Y75831D01*
X876461Y75754D01*
X876757Y75670D01*
X877050Y75578D01*
X877340Y75480D01*
X877628Y75375D01*
X877914Y75262D01*
X878197Y75143D01*
X878477Y75017D01*
X878754Y74885D01*
X879027Y74745D01*
X879297Y74599D01*
X879563Y74447D01*
X879826Y74288D01*
X880085Y74123D01*
X880339Y73952D01*
X880590Y73775D01*
X880836Y73591D01*
X881078Y73402D01*
X881314Y73207D01*
X881547Y73006D01*
X881774Y72800D01*
X881996Y72588D01*
X882213Y72371D01*
X882425Y72149D01*
X882631Y71922D01*
X882832Y71689D01*
X883027Y71453D01*
X883216Y71211D01*
X883400Y70965D01*
X883577Y70714D01*
X883748Y70460D01*
X883913Y70201D01*
X884072Y69938D01*
X884224Y69672D01*
X884370Y69402D01*
X884510Y69129D01*
X884642Y68852D01*
X884768Y68572D01*
X884887Y68289D01*
X885000Y68003D01*
X885105Y67715D01*
X885203Y67425D01*
X885295Y67132D01*
X885379Y66836D01*
X885456Y66539D01*
X885526Y66240D01*
X885588Y65940D01*
X885644Y65638D01*
X885692Y65335D01*
X885732Y65031D01*
X885766Y64726D01*
X885792Y64420D01*
X885810Y64114D01*
X885821Y63807D01*
X885825Y63500D01*
X885825Y0D01*
X1517650Y0D01*
X1517650Y1016000D01*
X0Y1016000D01*
X0Y0D01*
D11*
X47825Y945000D02*
X113825Y945000D01*
X130325Y928500D01*
X130325Y852000D01*
X142825Y839500D01*
X142825Y824000D01*
X180825Y786000D01*
X180825Y519000D01*
X171825Y510000D01*
X47825Y510000D01*
D12*
X-2540Y-68580D02*
X-2540Y1089660D01*
D13*
X-42921Y1105027D02*
X-46251Y1115018D01*
X-39590Y1115018D02*
X-42921Y1105027D01*
X-32806Y1110855D02*
X-22815Y1110855D01*
X-14261Y1110855D02*
X-10098Y1109190D01*
X-14261Y1110854D02*
X-14346Y1110890D01*
X-14429Y1110930D01*
X-14510Y1110973D01*
X-14590Y1111020D01*
X-14667Y1111070D01*
X-14743Y1111123D01*
X-14816Y1111179D01*
X-14886Y1111239D01*
X-14954Y1111301D01*
X-15019Y1111366D01*
X-15081Y1111434D01*
X-15141Y1111505D01*
X-15197Y1111578D01*
X-15250Y1111653D01*
X-15300Y1111731D01*
X-15346Y1111810D01*
X-15389Y1111892D01*
X-15429Y1111975D01*
X-15465Y1112060D01*
X-15497Y1112146D01*
X-15526Y1112234D01*
X-15550Y1112323D01*
X-15571Y1112413D01*
X-15588Y1112503D01*
X-15602Y1112594D01*
X-15611Y1112686D01*
X-15616Y1112778D01*
X-15618Y1112870D01*
X-15616Y1112962D01*
X-15609Y1113054D01*
X-15599Y1113146D01*
X-15585Y1113237D01*
X-15567Y1113328D01*
X-15545Y1113417D01*
X-15519Y1113506D01*
X-15489Y1113593D01*
X-15456Y1113679D01*
X-15419Y1113763D01*
X-15379Y1113846D01*
X-15335Y1113927D01*
X-15288Y1114006D01*
X-15237Y1114083D01*
X-15183Y1114158D01*
X-15126Y1114231D01*
X-15066Y1114301D01*
X-15003Y1114368D01*
X-14937Y1114432D01*
X-14869Y1114494D01*
X-14798Y1114553D01*
X-14724Y1114608D01*
X-14648Y1114661D01*
X-14570Y1114710D01*
X-14490Y1114756D01*
X-14409Y1114798D01*
X-14325Y1114837D01*
X-14240Y1114872D01*
X-14153Y1114903D01*
X-14065Y1114931D01*
X-13976Y1114955D01*
X-13886Y1114975D01*
X-13796Y1114992D01*
X-13704Y1115004D01*
X-13612Y1115013D01*
X-13520Y1115017D01*
X-13428Y1115018D01*
X-13201Y1115012D01*
X-12974Y1115001D01*
X-12747Y1114984D01*
X-12521Y1114961D01*
X-12295Y1114934D01*
X-12070Y1114900D01*
X-11846Y1114862D01*
X-11623Y1114818D01*
X-11401Y1114769D01*
X-11180Y1114714D01*
X-10961Y1114654D01*
X-10743Y1114589D01*
X-10527Y1114518D01*
X-10313Y1114443D01*
X-10100Y1114362D01*
X-9890Y1114276D01*
X-9681Y1114185D01*
X-10098Y1109190D02*
X-10013Y1109154D01*
X-9930Y1109114D01*
X-9849Y1109071D01*
X-9769Y1109024D01*
X-9692Y1108974D01*
X-9616Y1108921D01*
X-9543Y1108865D01*
X-9473Y1108805D01*
X-9405Y1108743D01*
X-9340Y1108678D01*
X-9278Y1108610D01*
X-9218Y1108539D01*
X-9162Y1108466D01*
X-9109Y1108391D01*
X-9059Y1108313D01*
X-9013Y1108234D01*
X-8970Y1108152D01*
X-8930Y1108069D01*
X-8894Y1107984D01*
X-8862Y1107898D01*
X-8833Y1107810D01*
X-8809Y1107721D01*
X-8788Y1107631D01*
X-8771Y1107541D01*
X-8757Y1107450D01*
X-8748Y1107358D01*
X-8743Y1107266D01*
X-8741Y1107174D01*
X-8743Y1107082D01*
X-8750Y1106990D01*
X-8760Y1106898D01*
X-8774Y1106807D01*
X-8792Y1106716D01*
X-8814Y1106627D01*
X-8840Y1106538D01*
X-8870Y1106451D01*
X-8903Y1106365D01*
X-8940Y1106281D01*
X-8980Y1106198D01*
X-9024Y1106117D01*
X-9071Y1106038D01*
X-9122Y1105961D01*
X-9176Y1105886D01*
X-9233Y1105813D01*
X-9293Y1105743D01*
X-9356Y1105676D01*
X-9422Y1105612D01*
X-9490Y1105550D01*
X-9561Y1105491D01*
X-9635Y1105436D01*
X-9711Y1105383D01*
X-9789Y1105334D01*
X-9869Y1105288D01*
X-9950Y1105246D01*
X-10034Y1105207D01*
X-10119Y1105172D01*
X-10206Y1105141D01*
X-10294Y1105113D01*
X-10383Y1105089D01*
X-10473Y1105069D01*
X-10563Y1105052D01*
X-10655Y1105040D01*
X-10747Y1105031D01*
X-10839Y1105027D01*
X-10931Y1105026D01*
X-10931Y1105027D02*
X-11265Y1105036D01*
X-11598Y1105053D01*
X-11931Y1105077D01*
X-12264Y1105110D01*
X-12595Y1105150D01*
X-12926Y1105198D01*
X-13255Y1105254D01*
X-13583Y1105317D01*
X-13909Y1105389D01*
X-14233Y1105468D01*
X-14556Y1105554D01*
X-14876Y1105649D01*
X-15194Y1105751D01*
X-15510Y1105860D01*
X562Y1105027D02*
X3892Y1105027D01*
X562Y1105027D02*
X464Y1105029D01*
X366Y1105035D01*
X268Y1105044D01*
X171Y1105058D01*
X75Y1105075D01*
X-21Y1105096D01*
X-116Y1105121D01*
X-210Y1105149D01*
X-303Y1105181D01*
X-394Y1105217D01*
X-484Y1105256D01*
X-572Y1105299D01*
X-659Y1105346D01*
X-743Y1105395D01*
X-826Y1105448D01*
X-906Y1105504D01*
X-985Y1105563D01*
X-1060Y1105626D01*
X-1134Y1105691D01*
X-1204Y1105759D01*
X-1272Y1105829D01*
X-1338Y1105903D01*
X-1400Y1105979D01*
X-1459Y1106057D01*
X-1515Y1106137D01*
X-1568Y1106220D01*
X-1618Y1106304D01*
X-1664Y1106391D01*
X-1707Y1106479D01*
X-1746Y1106569D01*
X-1782Y1106660D01*
X-1814Y1106753D01*
X-1842Y1106847D01*
X-1867Y1106942D01*
X-1888Y1107038D01*
X-1905Y1107134D01*
X-1919Y1107231D01*
X-1928Y1107329D01*
X-1934Y1107427D01*
X-1936Y1107525D01*
X-1936Y1112520D01*
X-1934Y1112618D01*
X-1928Y1112716D01*
X-1919Y1112814D01*
X-1905Y1112911D01*
X-1888Y1113007D01*
X-1867Y1113103D01*
X-1842Y1113198D01*
X-1814Y1113292D01*
X-1782Y1113385D01*
X-1746Y1113476D01*
X-1707Y1113566D01*
X-1664Y1113654D01*
X-1617Y1113741D01*
X-1568Y1113825D01*
X-1515Y1113908D01*
X-1459Y1113988D01*
X-1400Y1114066D01*
X-1337Y1114142D01*
X-1272Y1114216D01*
X-1204Y1114286D01*
X-1134Y1114354D01*
X-1060Y1114419D01*
X-984Y1114482D01*
X-906Y1114541D01*
X-826Y1114597D01*
X-743Y1114650D01*
X-659Y1114699D01*
X-572Y1114746D01*
X-484Y1114789D01*
X-394Y1114828D01*
X-303Y1114864D01*
X-210Y1114896D01*
X-116Y1114924D01*
X-21Y1114949D01*
X75Y1114970D01*
X171Y1114987D01*
X268Y1115001D01*
X366Y1115010D01*
X464Y1115016D01*
X562Y1115018D01*
X3892Y1115018D01*
X10022Y1111687D02*
X10022Y1108357D01*
X10022Y1111687D02*
X10024Y1111801D01*
X10030Y1111914D01*
X10039Y1112028D01*
X10053Y1112140D01*
X10070Y1112253D01*
X10092Y1112365D01*
X10117Y1112475D01*
X10145Y1112585D01*
X10178Y1112694D01*
X10214Y1112802D01*
X10254Y1112909D01*
X10298Y1113014D01*
X10345Y1113117D01*
X10395Y1113219D01*
X10449Y1113319D01*
X10507Y1113417D01*
X10568Y1113513D01*
X10631Y1113607D01*
X10699Y1113699D01*
X10769Y1113789D01*
X10842Y1113875D01*
X10918Y1113960D01*
X10997Y1114042D01*
X11079Y1114121D01*
X11164Y1114197D01*
X11250Y1114270D01*
X11340Y1114340D01*
X11432Y1114408D01*
X11526Y1114471D01*
X11622Y1114532D01*
X11720Y1114590D01*
X11820Y1114644D01*
X11922Y1114694D01*
X12025Y1114741D01*
X12130Y1114785D01*
X12237Y1114825D01*
X12345Y1114861D01*
X12454Y1114894D01*
X12564Y1114922D01*
X12674Y1114947D01*
X12786Y1114969D01*
X12899Y1114986D01*
X13011Y1115000D01*
X13125Y1115009D01*
X13238Y1115015D01*
X13352Y1115017D01*
X13466Y1115015D01*
X13579Y1115009D01*
X13693Y1115000D01*
X13805Y1114986D01*
X13918Y1114969D01*
X14030Y1114947D01*
X14140Y1114922D01*
X14250Y1114894D01*
X14359Y1114861D01*
X14467Y1114825D01*
X14574Y1114785D01*
X14679Y1114741D01*
X14782Y1114694D01*
X14884Y1114644D01*
X14984Y1114590D01*
X15082Y1114532D01*
X15178Y1114471D01*
X15272Y1114408D01*
X15364Y1114340D01*
X15454Y1114270D01*
X15540Y1114197D01*
X15625Y1114121D01*
X15707Y1114042D01*
X15786Y1113960D01*
X15862Y1113875D01*
X15935Y1113789D01*
X16005Y1113699D01*
X16073Y1113607D01*
X16136Y1113513D01*
X16197Y1113417D01*
X16255Y1113319D01*
X16309Y1113219D01*
X16359Y1113117D01*
X16406Y1113014D01*
X16450Y1112909D01*
X16490Y1112802D01*
X16526Y1112694D01*
X16559Y1112585D01*
X16587Y1112475D01*
X16612Y1112365D01*
X16634Y1112253D01*
X16651Y1112140D01*
X16665Y1112028D01*
X16674Y1111914D01*
X16680Y1111801D01*
X16682Y1111687D01*
X16682Y1108357D01*
X16680Y1108243D01*
X16674Y1108130D01*
X16665Y1108016D01*
X16651Y1107904D01*
X16634Y1107791D01*
X16612Y1107679D01*
X16587Y1107569D01*
X16559Y1107459D01*
X16526Y1107350D01*
X16490Y1107242D01*
X16450Y1107135D01*
X16406Y1107030D01*
X16359Y1106927D01*
X16309Y1106825D01*
X16255Y1106725D01*
X16197Y1106627D01*
X16136Y1106531D01*
X16073Y1106437D01*
X16005Y1106345D01*
X15935Y1106255D01*
X15862Y1106169D01*
X15786Y1106084D01*
X15707Y1106002D01*
X15625Y1105923D01*
X15540Y1105847D01*
X15454Y1105774D01*
X15364Y1105704D01*
X15272Y1105636D01*
X15178Y1105573D01*
X15082Y1105512D01*
X14984Y1105454D01*
X14884Y1105400D01*
X14782Y1105350D01*
X14679Y1105303D01*
X14574Y1105259D01*
X14467Y1105219D01*
X14359Y1105183D01*
X14250Y1105150D01*
X14140Y1105122D01*
X14030Y1105097D01*
X13918Y1105075D01*
X13805Y1105058D01*
X13693Y1105044D01*
X13579Y1105035D01*
X13466Y1105029D01*
X13352Y1105027D01*
X13238Y1105029D01*
X13125Y1105035D01*
X13011Y1105044D01*
X12899Y1105058D01*
X12786Y1105075D01*
X12674Y1105097D01*
X12564Y1105122D01*
X12454Y1105150D01*
X12345Y1105183D01*
X12237Y1105219D01*
X12130Y1105259D01*
X12025Y1105303D01*
X11922Y1105350D01*
X11820Y1105400D01*
X11720Y1105454D01*
X11622Y1105512D01*
X11526Y1105573D01*
X11432Y1105636D01*
X11340Y1105704D01*
X11250Y1105774D01*
X11164Y1105847D01*
X11079Y1105923D01*
X10997Y1106002D01*
X10918Y1106084D01*
X10842Y1106169D01*
X10769Y1106255D01*
X10699Y1106345D01*
X10631Y1106437D01*
X10568Y1106531D01*
X10507Y1106627D01*
X10449Y1106725D01*
X10395Y1106825D01*
X10345Y1106927D01*
X10298Y1107030D01*
X10254Y1107135D01*
X10214Y1107242D01*
X10178Y1107350D01*
X10145Y1107459D01*
X10117Y1107569D01*
X10092Y1107679D01*
X10070Y1107791D01*
X10053Y1107904D01*
X10039Y1108016D01*
X10030Y1108130D01*
X10024Y1108243D01*
X10022Y1108357D01*
X24218Y1105027D02*
X24218Y1115018D01*
X29213Y1115018D01*
X29213Y1113353D01*
X37008Y1105027D02*
X41171Y1105027D01*
X37008Y1105027D02*
X36910Y1105029D01*
X36812Y1105035D01*
X36714Y1105044D01*
X36617Y1105058D01*
X36521Y1105075D01*
X36425Y1105096D01*
X36330Y1105121D01*
X36236Y1105149D01*
X36143Y1105181D01*
X36052Y1105217D01*
X35962Y1105256D01*
X35874Y1105299D01*
X35787Y1105346D01*
X35703Y1105395D01*
X35620Y1105448D01*
X35540Y1105504D01*
X35462Y1105563D01*
X35386Y1105626D01*
X35312Y1105691D01*
X35242Y1105759D01*
X35174Y1105829D01*
X35109Y1105903D01*
X35046Y1105979D01*
X34987Y1106057D01*
X34931Y1106137D01*
X34878Y1106220D01*
X34829Y1106304D01*
X34782Y1106391D01*
X34739Y1106479D01*
X34700Y1106569D01*
X34664Y1106660D01*
X34632Y1106753D01*
X34604Y1106847D01*
X34579Y1106942D01*
X34558Y1107038D01*
X34541Y1107134D01*
X34527Y1107231D01*
X34518Y1107329D01*
X34512Y1107427D01*
X34510Y1107525D01*
X34510Y1111687D01*
X34511Y1111687D02*
X34513Y1111801D01*
X34519Y1111914D01*
X34528Y1112028D01*
X34542Y1112140D01*
X34559Y1112253D01*
X34581Y1112365D01*
X34606Y1112475D01*
X34634Y1112585D01*
X34667Y1112694D01*
X34703Y1112802D01*
X34743Y1112909D01*
X34787Y1113014D01*
X34834Y1113117D01*
X34884Y1113219D01*
X34938Y1113319D01*
X34996Y1113417D01*
X35057Y1113513D01*
X35120Y1113607D01*
X35188Y1113699D01*
X35258Y1113789D01*
X35331Y1113875D01*
X35407Y1113960D01*
X35486Y1114042D01*
X35568Y1114121D01*
X35653Y1114197D01*
X35739Y1114270D01*
X35829Y1114340D01*
X35921Y1114408D01*
X36015Y1114471D01*
X36111Y1114532D01*
X36209Y1114590D01*
X36309Y1114644D01*
X36411Y1114694D01*
X36514Y1114741D01*
X36619Y1114785D01*
X36726Y1114825D01*
X36834Y1114861D01*
X36943Y1114894D01*
X37053Y1114922D01*
X37163Y1114947D01*
X37275Y1114969D01*
X37388Y1114986D01*
X37500Y1115000D01*
X37614Y1115009D01*
X37727Y1115015D01*
X37841Y1115017D01*
X37955Y1115015D01*
X38068Y1115009D01*
X38182Y1115000D01*
X38294Y1114986D01*
X38407Y1114969D01*
X38519Y1114947D01*
X38629Y1114922D01*
X38739Y1114894D01*
X38848Y1114861D01*
X38956Y1114825D01*
X39063Y1114785D01*
X39168Y1114741D01*
X39271Y1114694D01*
X39373Y1114644D01*
X39473Y1114590D01*
X39571Y1114532D01*
X39667Y1114471D01*
X39761Y1114408D01*
X39853Y1114340D01*
X39943Y1114270D01*
X40029Y1114197D01*
X40114Y1114121D01*
X40196Y1114042D01*
X40275Y1113960D01*
X40351Y1113875D01*
X40424Y1113789D01*
X40494Y1113699D01*
X40562Y1113607D01*
X40625Y1113513D01*
X40686Y1113417D01*
X40744Y1113319D01*
X40798Y1113219D01*
X40848Y1113117D01*
X40895Y1113014D01*
X40939Y1112909D01*
X40979Y1112802D01*
X41015Y1112694D01*
X41048Y1112585D01*
X41076Y1112475D01*
X41101Y1112365D01*
X41123Y1112253D01*
X41140Y1112140D01*
X41154Y1112028D01*
X41163Y1111914D01*
X41169Y1111801D01*
X41171Y1111687D01*
X41171Y1110022D01*
X34510Y1110022D01*
D12*
X1520190Y1089660D02*
X1520190Y-68580D01*
D13*
X1479809Y1105027D02*
X1476479Y1115018D01*
X1483140Y1115018D02*
X1479809Y1105027D01*
X1489924Y1110855D02*
X1499915Y1110855D01*
X1508469Y1110855D02*
X1512632Y1109190D01*
X1508469Y1110854D02*
X1508384Y1110890D01*
X1508301Y1110930D01*
X1508220Y1110973D01*
X1508140Y1111020D01*
X1508063Y1111070D01*
X1507987Y1111123D01*
X1507914Y1111179D01*
X1507844Y1111239D01*
X1507776Y1111301D01*
X1507711Y1111366D01*
X1507649Y1111434D01*
X1507589Y1111505D01*
X1507533Y1111578D01*
X1507480Y1111653D01*
X1507430Y1111731D01*
X1507384Y1111810D01*
X1507341Y1111892D01*
X1507301Y1111975D01*
X1507265Y1112060D01*
X1507233Y1112146D01*
X1507204Y1112234D01*
X1507180Y1112323D01*
X1507159Y1112413D01*
X1507142Y1112503D01*
X1507128Y1112594D01*
X1507119Y1112686D01*
X1507114Y1112778D01*
X1507112Y1112870D01*
X1507114Y1112962D01*
X1507121Y1113054D01*
X1507131Y1113146D01*
X1507145Y1113237D01*
X1507163Y1113328D01*
X1507185Y1113417D01*
X1507211Y1113506D01*
X1507241Y1113593D01*
X1507274Y1113679D01*
X1507311Y1113763D01*
X1507351Y1113846D01*
X1507395Y1113927D01*
X1507442Y1114006D01*
X1507493Y1114083D01*
X1507547Y1114158D01*
X1507604Y1114231D01*
X1507664Y1114301D01*
X1507727Y1114368D01*
X1507793Y1114432D01*
X1507861Y1114494D01*
X1507932Y1114553D01*
X1508006Y1114608D01*
X1508082Y1114661D01*
X1508160Y1114710D01*
X1508240Y1114756D01*
X1508321Y1114798D01*
X1508405Y1114837D01*
X1508490Y1114872D01*
X1508577Y1114903D01*
X1508665Y1114931D01*
X1508754Y1114955D01*
X1508844Y1114975D01*
X1508934Y1114992D01*
X1509026Y1115004D01*
X1509118Y1115013D01*
X1509210Y1115017D01*
X1509302Y1115018D01*
X1509529Y1115012D01*
X1509756Y1115001D01*
X1509983Y1114984D01*
X1510209Y1114961D01*
X1510435Y1114934D01*
X1510660Y1114900D01*
X1510884Y1114862D01*
X1511107Y1114818D01*
X1511329Y1114769D01*
X1511550Y1114714D01*
X1511769Y1114654D01*
X1511987Y1114589D01*
X1512203Y1114518D01*
X1512417Y1114443D01*
X1512630Y1114362D01*
X1512840Y1114276D01*
X1513049Y1114185D01*
X1512632Y1109190D02*
X1512717Y1109154D01*
X1512800Y1109114D01*
X1512881Y1109071D01*
X1512961Y1109024D01*
X1513038Y1108974D01*
X1513114Y1108921D01*
X1513187Y1108865D01*
X1513257Y1108805D01*
X1513325Y1108743D01*
X1513390Y1108678D01*
X1513452Y1108610D01*
X1513512Y1108539D01*
X1513568Y1108466D01*
X1513621Y1108391D01*
X1513671Y1108313D01*
X1513717Y1108234D01*
X1513760Y1108152D01*
X1513800Y1108069D01*
X1513836Y1107984D01*
X1513868Y1107898D01*
X1513897Y1107810D01*
X1513921Y1107721D01*
X1513942Y1107631D01*
X1513959Y1107541D01*
X1513973Y1107450D01*
X1513982Y1107358D01*
X1513987Y1107266D01*
X1513989Y1107174D01*
X1513987Y1107082D01*
X1513980Y1106990D01*
X1513970Y1106898D01*
X1513956Y1106807D01*
X1513938Y1106716D01*
X1513916Y1106627D01*
X1513890Y1106538D01*
X1513860Y1106451D01*
X1513827Y1106365D01*
X1513790Y1106281D01*
X1513750Y1106198D01*
X1513706Y1106117D01*
X1513659Y1106038D01*
X1513608Y1105961D01*
X1513554Y1105886D01*
X1513497Y1105813D01*
X1513437Y1105743D01*
X1513374Y1105676D01*
X1513308Y1105612D01*
X1513240Y1105550D01*
X1513169Y1105491D01*
X1513095Y1105436D01*
X1513019Y1105383D01*
X1512941Y1105334D01*
X1512861Y1105288D01*
X1512780Y1105246D01*
X1512696Y1105207D01*
X1512611Y1105172D01*
X1512524Y1105141D01*
X1512436Y1105113D01*
X1512347Y1105089D01*
X1512257Y1105069D01*
X1512167Y1105052D01*
X1512075Y1105040D01*
X1511983Y1105031D01*
X1511891Y1105027D01*
X1511799Y1105026D01*
X1511799Y1105027D02*
X1511465Y1105036D01*
X1511132Y1105053D01*
X1510799Y1105077D01*
X1510466Y1105110D01*
X1510135Y1105150D01*
X1509804Y1105198D01*
X1509475Y1105254D01*
X1509147Y1105317D01*
X1508821Y1105389D01*
X1508497Y1105468D01*
X1508174Y1105554D01*
X1507854Y1105649D01*
X1507536Y1105751D01*
X1507220Y1105860D01*
X1523292Y1105027D02*
X1526622Y1105027D01*
X1523292Y1105027D02*
X1523194Y1105029D01*
X1523096Y1105035D01*
X1522998Y1105044D01*
X1522901Y1105058D01*
X1522805Y1105075D01*
X1522709Y1105096D01*
X1522614Y1105121D01*
X1522520Y1105149D01*
X1522427Y1105181D01*
X1522336Y1105217D01*
X1522246Y1105256D01*
X1522158Y1105299D01*
X1522071Y1105346D01*
X1521987Y1105395D01*
X1521904Y1105448D01*
X1521824Y1105504D01*
X1521746Y1105563D01*
X1521670Y1105626D01*
X1521596Y1105691D01*
X1521526Y1105759D01*
X1521458Y1105829D01*
X1521393Y1105903D01*
X1521330Y1105979D01*
X1521271Y1106057D01*
X1521215Y1106137D01*
X1521162Y1106220D01*
X1521113Y1106304D01*
X1521066Y1106391D01*
X1521023Y1106479D01*
X1520984Y1106569D01*
X1520948Y1106660D01*
X1520916Y1106753D01*
X1520888Y1106847D01*
X1520863Y1106942D01*
X1520842Y1107038D01*
X1520825Y1107134D01*
X1520811Y1107231D01*
X1520802Y1107329D01*
X1520796Y1107427D01*
X1520794Y1107525D01*
X1520794Y1112520D01*
X1520796Y1112618D01*
X1520802Y1112716D01*
X1520811Y1112814D01*
X1520825Y1112911D01*
X1520842Y1113007D01*
X1520863Y1113103D01*
X1520888Y1113198D01*
X1520916Y1113292D01*
X1520948Y1113385D01*
X1520984Y1113476D01*
X1521023Y1113566D01*
X1521066Y1113654D01*
X1521113Y1113741D01*
X1521162Y1113825D01*
X1521215Y1113908D01*
X1521271Y1113988D01*
X1521330Y1114067D01*
X1521393Y1114142D01*
X1521458Y1114216D01*
X1521526Y1114286D01*
X1521596Y1114354D01*
X1521670Y1114420D01*
X1521746Y1114482D01*
X1521824Y1114541D01*
X1521904Y1114597D01*
X1521987Y1114650D01*
X1522071Y1114700D01*
X1522158Y1114746D01*
X1522246Y1114789D01*
X1522336Y1114828D01*
X1522427Y1114864D01*
X1522520Y1114896D01*
X1522614Y1114924D01*
X1522709Y1114949D01*
X1522805Y1114970D01*
X1522901Y1114987D01*
X1522998Y1115001D01*
X1523096Y1115010D01*
X1523194Y1115016D01*
X1523292Y1115018D01*
X1526622Y1115018D01*
X1532752Y1111687D02*
X1532752Y1108357D01*
X1532752Y1111687D02*
X1532754Y1111801D01*
X1532760Y1111914D01*
X1532769Y1112028D01*
X1532783Y1112140D01*
X1532800Y1112253D01*
X1532822Y1112365D01*
X1532847Y1112475D01*
X1532875Y1112585D01*
X1532908Y1112694D01*
X1532944Y1112802D01*
X1532984Y1112909D01*
X1533028Y1113014D01*
X1533075Y1113117D01*
X1533125Y1113219D01*
X1533179Y1113319D01*
X1533237Y1113417D01*
X1533298Y1113513D01*
X1533361Y1113607D01*
X1533429Y1113699D01*
X1533499Y1113789D01*
X1533572Y1113875D01*
X1533648Y1113960D01*
X1533727Y1114042D01*
X1533809Y1114121D01*
X1533894Y1114197D01*
X1533980Y1114270D01*
X1534070Y1114340D01*
X1534162Y1114408D01*
X1534256Y1114471D01*
X1534352Y1114532D01*
X1534450Y1114590D01*
X1534550Y1114644D01*
X1534652Y1114694D01*
X1534755Y1114741D01*
X1534860Y1114785D01*
X1534967Y1114825D01*
X1535075Y1114861D01*
X1535184Y1114894D01*
X1535294Y1114922D01*
X1535404Y1114947D01*
X1535516Y1114969D01*
X1535629Y1114986D01*
X1535741Y1115000D01*
X1535855Y1115009D01*
X1535968Y1115015D01*
X1536082Y1115017D01*
X1536196Y1115015D01*
X1536309Y1115009D01*
X1536423Y1115000D01*
X1536535Y1114986D01*
X1536648Y1114969D01*
X1536760Y1114947D01*
X1536870Y1114922D01*
X1536980Y1114894D01*
X1537089Y1114861D01*
X1537197Y1114825D01*
X1537304Y1114785D01*
X1537409Y1114741D01*
X1537512Y1114694D01*
X1537614Y1114644D01*
X1537714Y1114590D01*
X1537812Y1114532D01*
X1537908Y1114471D01*
X1538002Y1114408D01*
X1538094Y1114340D01*
X1538184Y1114270D01*
X1538270Y1114197D01*
X1538355Y1114121D01*
X1538437Y1114042D01*
X1538516Y1113960D01*
X1538592Y1113875D01*
X1538665Y1113789D01*
X1538735Y1113699D01*
X1538803Y1113607D01*
X1538866Y1113513D01*
X1538927Y1113417D01*
X1538985Y1113319D01*
X1539039Y1113219D01*
X1539089Y1113117D01*
X1539136Y1113014D01*
X1539180Y1112909D01*
X1539220Y1112802D01*
X1539256Y1112694D01*
X1539289Y1112585D01*
X1539317Y1112475D01*
X1539342Y1112365D01*
X1539364Y1112253D01*
X1539381Y1112140D01*
X1539395Y1112028D01*
X1539404Y1111914D01*
X1539410Y1111801D01*
X1539412Y1111687D01*
X1539412Y1108357D01*
X1539410Y1108243D01*
X1539404Y1108130D01*
X1539395Y1108016D01*
X1539381Y1107904D01*
X1539364Y1107791D01*
X1539342Y1107679D01*
X1539317Y1107569D01*
X1539289Y1107459D01*
X1539256Y1107350D01*
X1539220Y1107242D01*
X1539180Y1107135D01*
X1539136Y1107030D01*
X1539089Y1106927D01*
X1539039Y1106825D01*
X1538985Y1106725D01*
X1538927Y1106627D01*
X1538866Y1106531D01*
X1538803Y1106437D01*
X1538735Y1106345D01*
X1538665Y1106255D01*
X1538592Y1106169D01*
X1538516Y1106084D01*
X1538437Y1106002D01*
X1538355Y1105923D01*
X1538270Y1105847D01*
X1538184Y1105774D01*
X1538094Y1105704D01*
X1538002Y1105636D01*
X1537908Y1105573D01*
X1537812Y1105512D01*
X1537714Y1105454D01*
X1537614Y1105400D01*
X1537512Y1105350D01*
X1537409Y1105303D01*
X1537304Y1105259D01*
X1537197Y1105219D01*
X1537089Y1105183D01*
X1536980Y1105150D01*
X1536870Y1105122D01*
X1536760Y1105097D01*
X1536648Y1105075D01*
X1536535Y1105058D01*
X1536423Y1105044D01*
X1536309Y1105035D01*
X1536196Y1105029D01*
X1536082Y1105027D01*
X1535968Y1105029D01*
X1535855Y1105035D01*
X1535741Y1105044D01*
X1535629Y1105058D01*
X1535516Y1105075D01*
X1535404Y1105097D01*
X1535294Y1105122D01*
X1535184Y1105150D01*
X1535075Y1105183D01*
X1534967Y1105219D01*
X1534860Y1105259D01*
X1534755Y1105303D01*
X1534652Y1105350D01*
X1534550Y1105400D01*
X1534450Y1105454D01*
X1534352Y1105512D01*
X1534256Y1105573D01*
X1534162Y1105636D01*
X1534070Y1105704D01*
X1533980Y1105774D01*
X1533894Y1105847D01*
X1533809Y1105923D01*
X1533727Y1106002D01*
X1533648Y1106084D01*
X1533572Y1106169D01*
X1533499Y1106255D01*
X1533429Y1106345D01*
X1533361Y1106437D01*
X1533298Y1106531D01*
X1533237Y1106627D01*
X1533179Y1106725D01*
X1533125Y1106825D01*
X1533075Y1106927D01*
X1533028Y1107030D01*
X1532984Y1107135D01*
X1532944Y1107242D01*
X1532908Y1107350D01*
X1532875Y1107459D01*
X1532847Y1107569D01*
X1532822Y1107679D01*
X1532800Y1107791D01*
X1532783Y1107904D01*
X1532769Y1108016D01*
X1532760Y1108130D01*
X1532754Y1108243D01*
X1532752Y1108357D01*
X1546948Y1105027D02*
X1546948Y1115018D01*
X1551943Y1115018D01*
X1551943Y1113353D01*
X1559738Y1105027D02*
X1563901Y1105027D01*
X1559738Y1105027D02*
X1559640Y1105029D01*
X1559542Y1105035D01*
X1559444Y1105044D01*
X1559347Y1105058D01*
X1559251Y1105075D01*
X1559155Y1105096D01*
X1559060Y1105121D01*
X1558966Y1105149D01*
X1558873Y1105181D01*
X1558782Y1105217D01*
X1558692Y1105256D01*
X1558604Y1105299D01*
X1558517Y1105346D01*
X1558433Y1105395D01*
X1558350Y1105448D01*
X1558270Y1105504D01*
X1558192Y1105563D01*
X1558116Y1105626D01*
X1558042Y1105691D01*
X1557972Y1105759D01*
X1557904Y1105829D01*
X1557839Y1105903D01*
X1557776Y1105979D01*
X1557717Y1106057D01*
X1557661Y1106137D01*
X1557608Y1106220D01*
X1557559Y1106304D01*
X1557512Y1106391D01*
X1557469Y1106479D01*
X1557430Y1106569D01*
X1557394Y1106660D01*
X1557362Y1106753D01*
X1557334Y1106847D01*
X1557309Y1106942D01*
X1557288Y1107038D01*
X1557271Y1107134D01*
X1557257Y1107231D01*
X1557248Y1107329D01*
X1557242Y1107427D01*
X1557240Y1107525D01*
X1557240Y1111687D01*
X1557241Y1111687D02*
X1557243Y1111801D01*
X1557249Y1111914D01*
X1557258Y1112028D01*
X1557272Y1112140D01*
X1557289Y1112253D01*
X1557311Y1112365D01*
X1557336Y1112475D01*
X1557364Y1112585D01*
X1557397Y1112694D01*
X1557433Y1112802D01*
X1557473Y1112909D01*
X1557517Y1113014D01*
X1557564Y1113117D01*
X1557614Y1113219D01*
X1557668Y1113319D01*
X1557726Y1113417D01*
X1557787Y1113513D01*
X1557850Y1113607D01*
X1557918Y1113699D01*
X1557988Y1113789D01*
X1558061Y1113875D01*
X1558137Y1113960D01*
X1558216Y1114042D01*
X1558298Y1114121D01*
X1558383Y1114197D01*
X1558469Y1114270D01*
X1558559Y1114340D01*
X1558651Y1114408D01*
X1558745Y1114471D01*
X1558841Y1114532D01*
X1558939Y1114590D01*
X1559039Y1114644D01*
X1559141Y1114694D01*
X1559244Y1114741D01*
X1559349Y1114785D01*
X1559456Y1114825D01*
X1559564Y1114861D01*
X1559673Y1114894D01*
X1559783Y1114922D01*
X1559893Y1114947D01*
X1560005Y1114969D01*
X1560118Y1114986D01*
X1560230Y1115000D01*
X1560344Y1115009D01*
X1560457Y1115015D01*
X1560571Y1115017D01*
X1560685Y1115015D01*
X1560798Y1115009D01*
X1560912Y1115000D01*
X1561024Y1114986D01*
X1561137Y1114969D01*
X1561249Y1114947D01*
X1561359Y1114922D01*
X1561469Y1114894D01*
X1561578Y1114861D01*
X1561686Y1114825D01*
X1561793Y1114785D01*
X1561898Y1114741D01*
X1562001Y1114694D01*
X1562103Y1114644D01*
X1562203Y1114590D01*
X1562301Y1114532D01*
X1562397Y1114471D01*
X1562491Y1114408D01*
X1562583Y1114340D01*
X1562673Y1114270D01*
X1562759Y1114197D01*
X1562844Y1114121D01*
X1562926Y1114042D01*
X1563005Y1113960D01*
X1563081Y1113875D01*
X1563154Y1113789D01*
X1563224Y1113699D01*
X1563292Y1113607D01*
X1563355Y1113513D01*
X1563416Y1113417D01*
X1563474Y1113319D01*
X1563528Y1113219D01*
X1563578Y1113117D01*
X1563625Y1113014D01*
X1563669Y1112909D01*
X1563709Y1112802D01*
X1563745Y1112694D01*
X1563778Y1112585D01*
X1563806Y1112475D01*
X1563831Y1112365D01*
X1563853Y1112253D01*
X1563870Y1112140D01*
X1563884Y1112028D01*
X1563893Y1111914D01*
X1563899Y1111801D01*
X1563901Y1111687D01*
X1563901Y1110022D01*
X1557240Y1110022D01*
D12*
X1649730Y-2540D02*
X-68580Y-2540D01*
D13*
X1682219Y-42D02*
X1685549Y-10033D01*
X1688880Y-42D01*
X1695664Y-4205D02*
X1705655Y-4205D01*
X1714209Y-4205D02*
X1718372Y-5870D01*
X1714209Y-4206D02*
X1714124Y-4170D01*
X1714041Y-4130D01*
X1713960Y-4087D01*
X1713880Y-4040D01*
X1713803Y-3990D01*
X1713727Y-3937D01*
X1713654Y-3881D01*
X1713584Y-3821D01*
X1713516Y-3759D01*
X1713451Y-3694D01*
X1713389Y-3626D01*
X1713329Y-3555D01*
X1713273Y-3482D01*
X1713220Y-3407D01*
X1713170Y-3329D01*
X1713124Y-3250D01*
X1713081Y-3168D01*
X1713041Y-3085D01*
X1713005Y-3000D01*
X1712973Y-2914D01*
X1712944Y-2826D01*
X1712920Y-2737D01*
X1712899Y-2647D01*
X1712882Y-2557D01*
X1712868Y-2466D01*
X1712859Y-2374D01*
X1712854Y-2282D01*
X1712852Y-2190D01*
X1712854Y-2098D01*
X1712861Y-2006D01*
X1712871Y-1914D01*
X1712885Y-1823D01*
X1712903Y-1732D01*
X1712925Y-1643D01*
X1712951Y-1554D01*
X1712981Y-1467D01*
X1713014Y-1381D01*
X1713051Y-1297D01*
X1713091Y-1214D01*
X1713135Y-1133D01*
X1713182Y-1054D01*
X1713233Y-977D01*
X1713287Y-902D01*
X1713344Y-829D01*
X1713404Y-759D01*
X1713467Y-692D01*
X1713533Y-628D01*
X1713601Y-566D01*
X1713672Y-507D01*
X1713746Y-452D01*
X1713822Y-399D01*
X1713900Y-350D01*
X1713980Y-304D01*
X1714061Y-262D01*
X1714145Y-223D01*
X1714230Y-188D01*
X1714317Y-157D01*
X1714405Y-129D01*
X1714494Y-105D01*
X1714584Y-85D01*
X1714674Y-68D01*
X1714766Y-56D01*
X1714858Y-47D01*
X1714950Y-43D01*
X1715042Y-42D01*
X1715269Y-48D01*
X1715496Y-59D01*
X1715723Y-76D01*
X1715949Y-99D01*
X1716175Y-126D01*
X1716400Y-160D01*
X1716624Y-198D01*
X1716847Y-242D01*
X1717069Y-291D01*
X1717290Y-346D01*
X1717509Y-406D01*
X1717727Y-471D01*
X1717943Y-542D01*
X1718157Y-617D01*
X1718370Y-698D01*
X1718580Y-784D01*
X1718789Y-875D01*
X1718372Y-5870D02*
X1718457Y-5906D01*
X1718540Y-5946D01*
X1718621Y-5989D01*
X1718701Y-6036D01*
X1718778Y-6086D01*
X1718854Y-6139D01*
X1718927Y-6195D01*
X1718997Y-6255D01*
X1719065Y-6317D01*
X1719130Y-6382D01*
X1719192Y-6450D01*
X1719252Y-6521D01*
X1719308Y-6594D01*
X1719361Y-6669D01*
X1719411Y-6747D01*
X1719457Y-6826D01*
X1719500Y-6908D01*
X1719540Y-6991D01*
X1719576Y-7076D01*
X1719608Y-7162D01*
X1719637Y-7250D01*
X1719661Y-7339D01*
X1719682Y-7429D01*
X1719699Y-7519D01*
X1719713Y-7610D01*
X1719722Y-7702D01*
X1719727Y-7794D01*
X1719729Y-7886D01*
X1719727Y-7978D01*
X1719720Y-8070D01*
X1719710Y-8162D01*
X1719696Y-8253D01*
X1719678Y-8344D01*
X1719656Y-8433D01*
X1719630Y-8522D01*
X1719600Y-8609D01*
X1719567Y-8695D01*
X1719530Y-8779D01*
X1719490Y-8862D01*
X1719446Y-8943D01*
X1719399Y-9022D01*
X1719348Y-9099D01*
X1719294Y-9174D01*
X1719237Y-9247D01*
X1719177Y-9317D01*
X1719114Y-9384D01*
X1719048Y-9448D01*
X1718980Y-9510D01*
X1718909Y-9569D01*
X1718835Y-9624D01*
X1718759Y-9677D01*
X1718681Y-9726D01*
X1718601Y-9772D01*
X1718520Y-9814D01*
X1718436Y-9853D01*
X1718351Y-9888D01*
X1718264Y-9919D01*
X1718176Y-9947D01*
X1718087Y-9971D01*
X1717997Y-9991D01*
X1717907Y-10008D01*
X1717815Y-10020D01*
X1717723Y-10029D01*
X1717631Y-10033D01*
X1717539Y-10034D01*
X1717539Y-10033D02*
X1717205Y-10024D01*
X1716872Y-10007D01*
X1716539Y-9983D01*
X1716206Y-9950D01*
X1715875Y-9910D01*
X1715544Y-9862D01*
X1715215Y-9806D01*
X1714887Y-9743D01*
X1714561Y-9671D01*
X1714237Y-9592D01*
X1713914Y-9506D01*
X1713594Y-9411D01*
X1713276Y-9309D01*
X1712960Y-9200D01*
X1729032Y-10033D02*
X1732362Y-10033D01*
X1729032Y-10033D02*
X1728934Y-10031D01*
X1728836Y-10025D01*
X1728738Y-10016D01*
X1728641Y-10002D01*
X1728545Y-9985D01*
X1728449Y-9964D01*
X1728354Y-9939D01*
X1728260Y-9911D01*
X1728167Y-9879D01*
X1728076Y-9843D01*
X1727986Y-9804D01*
X1727898Y-9761D01*
X1727811Y-9714D01*
X1727727Y-9665D01*
X1727644Y-9612D01*
X1727564Y-9556D01*
X1727486Y-9497D01*
X1727410Y-9435D01*
X1727336Y-9369D01*
X1727266Y-9301D01*
X1727198Y-9231D01*
X1727133Y-9157D01*
X1727070Y-9082D01*
X1727011Y-9003D01*
X1726955Y-8923D01*
X1726902Y-8840D01*
X1726853Y-8756D01*
X1726806Y-8669D01*
X1726763Y-8581D01*
X1726724Y-8491D01*
X1726688Y-8400D01*
X1726656Y-8307D01*
X1726628Y-8213D01*
X1726603Y-8118D01*
X1726582Y-8022D01*
X1726565Y-7926D01*
X1726551Y-7829D01*
X1726542Y-7731D01*
X1726536Y-7633D01*
X1726534Y-7535D01*
X1726534Y-2540D01*
X1726536Y-2442D01*
X1726542Y-2344D01*
X1726551Y-2246D01*
X1726565Y-2149D01*
X1726582Y-2053D01*
X1726603Y-1957D01*
X1726628Y-1862D01*
X1726656Y-1768D01*
X1726688Y-1675D01*
X1726724Y-1584D01*
X1726763Y-1494D01*
X1726806Y-1406D01*
X1726853Y-1319D01*
X1726902Y-1235D01*
X1726955Y-1152D01*
X1727011Y-1072D01*
X1727070Y-994D01*
X1727133Y-918D01*
X1727198Y-844D01*
X1727266Y-774D01*
X1727336Y-706D01*
X1727410Y-641D01*
X1727486Y-578D01*
X1727564Y-519D01*
X1727644Y-463D01*
X1727727Y-410D01*
X1727811Y-361D01*
X1727898Y-314D01*
X1727986Y-271D01*
X1728076Y-232D01*
X1728167Y-196D01*
X1728260Y-164D01*
X1728354Y-136D01*
X1728449Y-111D01*
X1728545Y-90D01*
X1728641Y-73D01*
X1728738Y-59D01*
X1728836Y-50D01*
X1728934Y-44D01*
X1729032Y-42D01*
X1732362Y-42D01*
X1738492Y-3373D02*
X1738492Y-6703D01*
X1738492Y-3373D02*
X1738494Y-3259D01*
X1738500Y-3146D01*
X1738509Y-3032D01*
X1738523Y-2920D01*
X1738540Y-2807D01*
X1738562Y-2695D01*
X1738587Y-2585D01*
X1738615Y-2475D01*
X1738648Y-2366D01*
X1738684Y-2258D01*
X1738724Y-2151D01*
X1738768Y-2046D01*
X1738815Y-1943D01*
X1738865Y-1841D01*
X1738919Y-1741D01*
X1738977Y-1643D01*
X1739038Y-1547D01*
X1739101Y-1453D01*
X1739169Y-1361D01*
X1739239Y-1271D01*
X1739312Y-1185D01*
X1739388Y-1100D01*
X1739467Y-1018D01*
X1739549Y-939D01*
X1739634Y-863D01*
X1739720Y-790D01*
X1739810Y-720D01*
X1739902Y-652D01*
X1739996Y-589D01*
X1740092Y-528D01*
X1740190Y-470D01*
X1740290Y-416D01*
X1740392Y-366D01*
X1740495Y-319D01*
X1740600Y-275D01*
X1740707Y-235D01*
X1740815Y-199D01*
X1740924Y-166D01*
X1741034Y-138D01*
X1741144Y-113D01*
X1741256Y-91D01*
X1741369Y-74D01*
X1741481Y-60D01*
X1741595Y-51D01*
X1741708Y-45D01*
X1741822Y-43D01*
X1741936Y-45D01*
X1742049Y-51D01*
X1742163Y-60D01*
X1742275Y-74D01*
X1742388Y-91D01*
X1742500Y-113D01*
X1742610Y-138D01*
X1742720Y-166D01*
X1742829Y-199D01*
X1742937Y-235D01*
X1743044Y-275D01*
X1743149Y-319D01*
X1743252Y-366D01*
X1743354Y-416D01*
X1743454Y-470D01*
X1743552Y-528D01*
X1743648Y-589D01*
X1743742Y-652D01*
X1743834Y-720D01*
X1743924Y-790D01*
X1744010Y-863D01*
X1744095Y-939D01*
X1744177Y-1018D01*
X1744256Y-1100D01*
X1744332Y-1185D01*
X1744405Y-1271D01*
X1744475Y-1361D01*
X1744543Y-1453D01*
X1744606Y-1547D01*
X1744667Y-1643D01*
X1744725Y-1741D01*
X1744779Y-1841D01*
X1744829Y-1943D01*
X1744876Y-2046D01*
X1744920Y-2151D01*
X1744960Y-2258D01*
X1744996Y-2366D01*
X1745029Y-2475D01*
X1745057Y-2585D01*
X1745082Y-2695D01*
X1745104Y-2807D01*
X1745121Y-2920D01*
X1745135Y-3032D01*
X1745144Y-3146D01*
X1745150Y-3259D01*
X1745152Y-3373D01*
X1745152Y-6703D01*
X1745150Y-6817D01*
X1745144Y-6930D01*
X1745135Y-7044D01*
X1745121Y-7156D01*
X1745104Y-7269D01*
X1745082Y-7381D01*
X1745057Y-7491D01*
X1745029Y-7601D01*
X1744996Y-7710D01*
X1744960Y-7818D01*
X1744920Y-7925D01*
X1744876Y-8030D01*
X1744829Y-8133D01*
X1744779Y-8235D01*
X1744725Y-8335D01*
X1744667Y-8433D01*
X1744606Y-8529D01*
X1744543Y-8623D01*
X1744475Y-8715D01*
X1744405Y-8805D01*
X1744332Y-8891D01*
X1744256Y-8976D01*
X1744177Y-9058D01*
X1744095Y-9137D01*
X1744010Y-9213D01*
X1743924Y-9286D01*
X1743834Y-9356D01*
X1743742Y-9424D01*
X1743648Y-9487D01*
X1743552Y-9548D01*
X1743454Y-9606D01*
X1743354Y-9660D01*
X1743252Y-9710D01*
X1743149Y-9757D01*
X1743044Y-9801D01*
X1742937Y-9841D01*
X1742829Y-9877D01*
X1742720Y-9910D01*
X1742610Y-9938D01*
X1742500Y-9963D01*
X1742388Y-9985D01*
X1742275Y-10002D01*
X1742163Y-10016D01*
X1742049Y-10025D01*
X1741936Y-10031D01*
X1741822Y-10033D01*
X1741708Y-10031D01*
X1741595Y-10025D01*
X1741481Y-10016D01*
X1741369Y-10002D01*
X1741256Y-9985D01*
X1741144Y-9963D01*
X1741034Y-9938D01*
X1740924Y-9910D01*
X1740815Y-9877D01*
X1740707Y-9841D01*
X1740600Y-9801D01*
X1740495Y-9757D01*
X1740392Y-9710D01*
X1740290Y-9660D01*
X1740190Y-9606D01*
X1740092Y-9548D01*
X1739996Y-9487D01*
X1739902Y-9424D01*
X1739810Y-9356D01*
X1739720Y-9286D01*
X1739634Y-9213D01*
X1739549Y-9137D01*
X1739467Y-9058D01*
X1739388Y-8976D01*
X1739312Y-8891D01*
X1739239Y-8805D01*
X1739169Y-8715D01*
X1739101Y-8623D01*
X1739038Y-8529D01*
X1738977Y-8433D01*
X1738919Y-8335D01*
X1738865Y-8235D01*
X1738815Y-8133D01*
X1738768Y-8030D01*
X1738724Y-7925D01*
X1738684Y-7818D01*
X1738648Y-7710D01*
X1738615Y-7601D01*
X1738587Y-7491D01*
X1738562Y-7381D01*
X1738540Y-7269D01*
X1738523Y-7156D01*
X1738509Y-7044D01*
X1738500Y-6930D01*
X1738494Y-6817D01*
X1738492Y-6703D01*
X1752688Y-10033D02*
X1752688Y-42D01*
X1757683Y-42D01*
X1757683Y-1707D01*
X1765478Y-10033D02*
X1769641Y-10033D01*
X1765478Y-10033D02*
X1765380Y-10031D01*
X1765282Y-10025D01*
X1765184Y-10016D01*
X1765087Y-10002D01*
X1764991Y-9985D01*
X1764895Y-9964D01*
X1764800Y-9939D01*
X1764706Y-9911D01*
X1764613Y-9879D01*
X1764522Y-9843D01*
X1764432Y-9804D01*
X1764344Y-9761D01*
X1764257Y-9714D01*
X1764173Y-9665D01*
X1764090Y-9612D01*
X1764010Y-9556D01*
X1763932Y-9497D01*
X1763856Y-9435D01*
X1763782Y-9369D01*
X1763712Y-9301D01*
X1763644Y-9231D01*
X1763579Y-9157D01*
X1763516Y-9082D01*
X1763457Y-9003D01*
X1763401Y-8923D01*
X1763348Y-8840D01*
X1763299Y-8756D01*
X1763252Y-8669D01*
X1763209Y-8581D01*
X1763170Y-8491D01*
X1763134Y-8400D01*
X1763102Y-8307D01*
X1763074Y-8213D01*
X1763049Y-8118D01*
X1763028Y-8022D01*
X1763011Y-7926D01*
X1762997Y-7829D01*
X1762988Y-7731D01*
X1762982Y-7633D01*
X1762980Y-7535D01*
X1762980Y-3373D01*
X1762981Y-3373D02*
X1762983Y-3259D01*
X1762989Y-3146D01*
X1762998Y-3032D01*
X1763012Y-2920D01*
X1763029Y-2807D01*
X1763051Y-2695D01*
X1763076Y-2585D01*
X1763104Y-2475D01*
X1763137Y-2366D01*
X1763173Y-2258D01*
X1763213Y-2151D01*
X1763257Y-2046D01*
X1763304Y-1943D01*
X1763354Y-1841D01*
X1763408Y-1741D01*
X1763466Y-1643D01*
X1763527Y-1547D01*
X1763590Y-1453D01*
X1763658Y-1361D01*
X1763728Y-1271D01*
X1763801Y-1185D01*
X1763877Y-1100D01*
X1763956Y-1018D01*
X1764038Y-939D01*
X1764123Y-863D01*
X1764209Y-790D01*
X1764299Y-720D01*
X1764391Y-652D01*
X1764485Y-589D01*
X1764581Y-528D01*
X1764679Y-470D01*
X1764779Y-416D01*
X1764881Y-366D01*
X1764984Y-319D01*
X1765089Y-275D01*
X1765196Y-235D01*
X1765304Y-199D01*
X1765413Y-166D01*
X1765523Y-138D01*
X1765633Y-113D01*
X1765745Y-91D01*
X1765858Y-74D01*
X1765970Y-60D01*
X1766084Y-51D01*
X1766197Y-45D01*
X1766311Y-43D01*
X1766425Y-45D01*
X1766538Y-51D01*
X1766652Y-60D01*
X1766764Y-74D01*
X1766877Y-91D01*
X1766989Y-113D01*
X1767099Y-138D01*
X1767209Y-166D01*
X1767318Y-199D01*
X1767426Y-235D01*
X1767533Y-275D01*
X1767638Y-319D01*
X1767741Y-366D01*
X1767843Y-416D01*
X1767943Y-470D01*
X1768041Y-528D01*
X1768137Y-589D01*
X1768231Y-652D01*
X1768323Y-720D01*
X1768413Y-790D01*
X1768499Y-863D01*
X1768584Y-939D01*
X1768666Y-1018D01*
X1768745Y-1100D01*
X1768821Y-1185D01*
X1768894Y-1271D01*
X1768964Y-1361D01*
X1769032Y-1453D01*
X1769095Y-1547D01*
X1769156Y-1643D01*
X1769214Y-1741D01*
X1769268Y-1841D01*
X1769318Y-1943D01*
X1769365Y-2046D01*
X1769409Y-2151D01*
X1769449Y-2258D01*
X1769485Y-2366D01*
X1769518Y-2475D01*
X1769546Y-2585D01*
X1769571Y-2695D01*
X1769593Y-2807D01*
X1769610Y-2920D01*
X1769624Y-3032D01*
X1769633Y-3146D01*
X1769639Y-3259D01*
X1769641Y-3373D01*
X1769641Y-5038D01*
X1762980Y-5038D01*
D12*
X1649730Y1018540D02*
X-68580Y1018540D01*
D13*
X1682219Y1021038D02*
X1685549Y1011047D01*
X1688880Y1021038D01*
X1695664Y1016875D02*
X1705655Y1016875D01*
X1714209Y1016875D02*
X1718372Y1015210D01*
X1714209Y1016874D02*
X1714124Y1016910D01*
X1714041Y1016950D01*
X1713960Y1016993D01*
X1713880Y1017040D01*
X1713803Y1017090D01*
X1713727Y1017143D01*
X1713654Y1017199D01*
X1713584Y1017259D01*
X1713516Y1017321D01*
X1713451Y1017386D01*
X1713389Y1017454D01*
X1713329Y1017525D01*
X1713273Y1017598D01*
X1713220Y1017673D01*
X1713170Y1017751D01*
X1713124Y1017830D01*
X1713081Y1017912D01*
X1713041Y1017995D01*
X1713005Y1018080D01*
X1712973Y1018166D01*
X1712944Y1018254D01*
X1712920Y1018343D01*
X1712899Y1018433D01*
X1712882Y1018523D01*
X1712868Y1018614D01*
X1712859Y1018706D01*
X1712854Y1018798D01*
X1712852Y1018890D01*
X1712854Y1018982D01*
X1712861Y1019074D01*
X1712871Y1019166D01*
X1712885Y1019257D01*
X1712903Y1019348D01*
X1712925Y1019437D01*
X1712951Y1019526D01*
X1712981Y1019613D01*
X1713014Y1019699D01*
X1713051Y1019783D01*
X1713091Y1019866D01*
X1713135Y1019947D01*
X1713182Y1020026D01*
X1713233Y1020103D01*
X1713287Y1020178D01*
X1713344Y1020251D01*
X1713404Y1020321D01*
X1713467Y1020388D01*
X1713533Y1020452D01*
X1713601Y1020514D01*
X1713672Y1020573D01*
X1713746Y1020628D01*
X1713822Y1020681D01*
X1713900Y1020730D01*
X1713980Y1020776D01*
X1714061Y1020818D01*
X1714145Y1020857D01*
X1714230Y1020892D01*
X1714317Y1020923D01*
X1714405Y1020951D01*
X1714494Y1020975D01*
X1714584Y1020995D01*
X1714674Y1021012D01*
X1714766Y1021024D01*
X1714858Y1021033D01*
X1714950Y1021037D01*
X1715042Y1021038D01*
X1715269Y1021032D01*
X1715496Y1021021D01*
X1715723Y1021004D01*
X1715949Y1020981D01*
X1716175Y1020954D01*
X1716400Y1020920D01*
X1716624Y1020882D01*
X1716847Y1020838D01*
X1717069Y1020789D01*
X1717290Y1020734D01*
X1717509Y1020674D01*
X1717727Y1020609D01*
X1717943Y1020538D01*
X1718157Y1020463D01*
X1718370Y1020382D01*
X1718580Y1020296D01*
X1718789Y1020205D01*
X1718372Y1015210D02*
X1718457Y1015174D01*
X1718540Y1015134D01*
X1718621Y1015091D01*
X1718701Y1015044D01*
X1718778Y1014994D01*
X1718854Y1014941D01*
X1718927Y1014885D01*
X1718997Y1014825D01*
X1719065Y1014763D01*
X1719130Y1014698D01*
X1719192Y1014630D01*
X1719252Y1014559D01*
X1719308Y1014486D01*
X1719361Y1014411D01*
X1719411Y1014333D01*
X1719457Y1014254D01*
X1719500Y1014172D01*
X1719540Y1014089D01*
X1719576Y1014004D01*
X1719608Y1013918D01*
X1719637Y1013830D01*
X1719661Y1013741D01*
X1719682Y1013651D01*
X1719699Y1013561D01*
X1719713Y1013470D01*
X1719722Y1013378D01*
X1719727Y1013286D01*
X1719729Y1013194D01*
X1719727Y1013102D01*
X1719720Y1013010D01*
X1719710Y1012918D01*
X1719696Y1012827D01*
X1719678Y1012736D01*
X1719656Y1012647D01*
X1719630Y1012558D01*
X1719600Y1012471D01*
X1719567Y1012385D01*
X1719530Y1012301D01*
X1719490Y1012218D01*
X1719446Y1012137D01*
X1719399Y1012058D01*
X1719348Y1011981D01*
X1719294Y1011906D01*
X1719237Y1011833D01*
X1719177Y1011763D01*
X1719114Y1011696D01*
X1719048Y1011632D01*
X1718980Y1011570D01*
X1718909Y1011511D01*
X1718835Y1011456D01*
X1718759Y1011403D01*
X1718681Y1011354D01*
X1718601Y1011308D01*
X1718520Y1011266D01*
X1718436Y1011227D01*
X1718351Y1011192D01*
X1718264Y1011161D01*
X1718176Y1011133D01*
X1718087Y1011109D01*
X1717997Y1011089D01*
X1717907Y1011072D01*
X1717815Y1011060D01*
X1717723Y1011051D01*
X1717631Y1011047D01*
X1717539Y1011046D01*
X1717539Y1011047D02*
X1717205Y1011056D01*
X1716872Y1011073D01*
X1716539Y1011097D01*
X1716206Y1011130D01*
X1715875Y1011170D01*
X1715544Y1011218D01*
X1715215Y1011274D01*
X1714887Y1011337D01*
X1714561Y1011409D01*
X1714237Y1011488D01*
X1713914Y1011574D01*
X1713594Y1011669D01*
X1713276Y1011771D01*
X1712960Y1011880D01*
X1729032Y1011047D02*
X1732362Y1011047D01*
X1729032Y1011047D02*
X1728934Y1011049D01*
X1728836Y1011055D01*
X1728738Y1011064D01*
X1728641Y1011078D01*
X1728545Y1011095D01*
X1728449Y1011116D01*
X1728354Y1011141D01*
X1728260Y1011169D01*
X1728167Y1011201D01*
X1728076Y1011237D01*
X1727986Y1011276D01*
X1727898Y1011319D01*
X1727811Y1011366D01*
X1727727Y1011415D01*
X1727644Y1011468D01*
X1727564Y1011524D01*
X1727486Y1011583D01*
X1727410Y1011646D01*
X1727336Y1011711D01*
X1727266Y1011779D01*
X1727198Y1011849D01*
X1727133Y1011923D01*
X1727070Y1011999D01*
X1727011Y1012077D01*
X1726955Y1012157D01*
X1726902Y1012240D01*
X1726853Y1012324D01*
X1726806Y1012411D01*
X1726763Y1012499D01*
X1726724Y1012589D01*
X1726688Y1012680D01*
X1726656Y1012773D01*
X1726628Y1012867D01*
X1726603Y1012962D01*
X1726582Y1013058D01*
X1726565Y1013154D01*
X1726551Y1013251D01*
X1726542Y1013349D01*
X1726536Y1013447D01*
X1726534Y1013545D01*
X1726534Y1018540D01*
X1726536Y1018638D01*
X1726542Y1018736D01*
X1726551Y1018834D01*
X1726565Y1018931D01*
X1726582Y1019027D01*
X1726603Y1019123D01*
X1726628Y1019218D01*
X1726656Y1019312D01*
X1726688Y1019405D01*
X1726724Y1019496D01*
X1726763Y1019586D01*
X1726806Y1019674D01*
X1726853Y1019761D01*
X1726902Y1019845D01*
X1726955Y1019928D01*
X1727011Y1020008D01*
X1727070Y1020087D01*
X1727133Y1020162D01*
X1727198Y1020236D01*
X1727266Y1020306D01*
X1727336Y1020374D01*
X1727410Y1020440D01*
X1727486Y1020502D01*
X1727564Y1020561D01*
X1727644Y1020617D01*
X1727727Y1020670D01*
X1727811Y1020720D01*
X1727898Y1020766D01*
X1727986Y1020809D01*
X1728076Y1020848D01*
X1728167Y1020884D01*
X1728260Y1020916D01*
X1728354Y1020944D01*
X1728449Y1020969D01*
X1728545Y1020990D01*
X1728641Y1021007D01*
X1728738Y1021021D01*
X1728836Y1021030D01*
X1728934Y1021036D01*
X1729032Y1021038D01*
X1732362Y1021038D01*
X1738492Y1017707D02*
X1738492Y1014377D01*
X1738492Y1017707D02*
X1738494Y1017821D01*
X1738500Y1017934D01*
X1738509Y1018048D01*
X1738523Y1018160D01*
X1738540Y1018273D01*
X1738562Y1018385D01*
X1738587Y1018495D01*
X1738615Y1018605D01*
X1738648Y1018714D01*
X1738684Y1018822D01*
X1738724Y1018929D01*
X1738768Y1019034D01*
X1738815Y1019137D01*
X1738865Y1019239D01*
X1738919Y1019339D01*
X1738977Y1019437D01*
X1739038Y1019533D01*
X1739101Y1019627D01*
X1739169Y1019719D01*
X1739239Y1019809D01*
X1739312Y1019895D01*
X1739388Y1019980D01*
X1739467Y1020062D01*
X1739549Y1020141D01*
X1739634Y1020217D01*
X1739720Y1020290D01*
X1739810Y1020360D01*
X1739902Y1020428D01*
X1739996Y1020491D01*
X1740092Y1020552D01*
X1740190Y1020610D01*
X1740290Y1020664D01*
X1740392Y1020714D01*
X1740495Y1020761D01*
X1740600Y1020805D01*
X1740707Y1020845D01*
X1740815Y1020881D01*
X1740924Y1020914D01*
X1741034Y1020942D01*
X1741144Y1020967D01*
X1741256Y1020989D01*
X1741369Y1021006D01*
X1741481Y1021020D01*
X1741595Y1021029D01*
X1741708Y1021035D01*
X1741822Y1021037D01*
X1741936Y1021035D01*
X1742049Y1021029D01*
X1742163Y1021020D01*
X1742275Y1021006D01*
X1742388Y1020989D01*
X1742500Y1020967D01*
X1742610Y1020942D01*
X1742720Y1020914D01*
X1742829Y1020881D01*
X1742937Y1020845D01*
X1743044Y1020805D01*
X1743149Y1020761D01*
X1743252Y1020714D01*
X1743354Y1020664D01*
X1743454Y1020610D01*
X1743552Y1020552D01*
X1743648Y1020491D01*
X1743742Y1020428D01*
X1743834Y1020360D01*
X1743924Y1020290D01*
X1744010Y1020217D01*
X1744095Y1020141D01*
X1744177Y1020062D01*
X1744256Y1019980D01*
X1744332Y1019895D01*
X1744405Y1019809D01*
X1744475Y1019719D01*
X1744543Y1019627D01*
X1744606Y1019533D01*
X1744667Y1019437D01*
X1744725Y1019339D01*
X1744779Y1019239D01*
X1744829Y1019137D01*
X1744876Y1019034D01*
X1744920Y1018929D01*
X1744960Y1018822D01*
X1744996Y1018714D01*
X1745029Y1018605D01*
X1745057Y1018495D01*
X1745082Y1018385D01*
X1745104Y1018273D01*
X1745121Y1018160D01*
X1745135Y1018048D01*
X1745144Y1017934D01*
X1745150Y1017821D01*
X1745152Y1017707D01*
X1745152Y1014377D01*
X1745150Y1014263D01*
X1745144Y1014150D01*
X1745135Y1014036D01*
X1745121Y1013924D01*
X1745104Y1013811D01*
X1745082Y1013699D01*
X1745057Y1013589D01*
X1745029Y1013479D01*
X1744996Y1013370D01*
X1744960Y1013262D01*
X1744920Y1013155D01*
X1744876Y1013050D01*
X1744829Y1012947D01*
X1744779Y1012845D01*
X1744725Y1012745D01*
X1744667Y1012647D01*
X1744606Y1012551D01*
X1744543Y1012457D01*
X1744475Y1012365D01*
X1744405Y1012275D01*
X1744332Y1012189D01*
X1744256Y1012104D01*
X1744177Y1012022D01*
X1744095Y1011943D01*
X1744010Y1011867D01*
X1743924Y1011794D01*
X1743834Y1011724D01*
X1743742Y1011656D01*
X1743648Y1011593D01*
X1743552Y1011532D01*
X1743454Y1011474D01*
X1743354Y1011420D01*
X1743252Y1011370D01*
X1743149Y1011323D01*
X1743044Y1011279D01*
X1742937Y1011239D01*
X1742829Y1011203D01*
X1742720Y1011170D01*
X1742610Y1011142D01*
X1742500Y1011117D01*
X1742388Y1011095D01*
X1742275Y1011078D01*
X1742163Y1011064D01*
X1742049Y1011055D01*
X1741936Y1011049D01*
X1741822Y1011047D01*
X1741708Y1011049D01*
X1741595Y1011055D01*
X1741481Y1011064D01*
X1741369Y1011078D01*
X1741256Y1011095D01*
X1741144Y1011117D01*
X1741034Y1011142D01*
X1740924Y1011170D01*
X1740815Y1011203D01*
X1740707Y1011239D01*
X1740600Y1011279D01*
X1740495Y1011323D01*
X1740392Y1011370D01*
X1740290Y1011420D01*
X1740190Y1011474D01*
X1740092Y1011532D01*
X1739996Y1011593D01*
X1739902Y1011656D01*
X1739810Y1011724D01*
X1739720Y1011794D01*
X1739634Y1011867D01*
X1739549Y1011943D01*
X1739467Y1012022D01*
X1739388Y1012104D01*
X1739312Y1012189D01*
X1739239Y1012275D01*
X1739169Y1012365D01*
X1739101Y1012457D01*
X1739038Y1012551D01*
X1738977Y1012647D01*
X1738919Y1012745D01*
X1738865Y1012845D01*
X1738815Y1012947D01*
X1738768Y1013050D01*
X1738724Y1013155D01*
X1738684Y1013262D01*
X1738648Y1013370D01*
X1738615Y1013479D01*
X1738587Y1013589D01*
X1738562Y1013699D01*
X1738540Y1013811D01*
X1738523Y1013924D01*
X1738509Y1014036D01*
X1738500Y1014150D01*
X1738494Y1014263D01*
X1738492Y1014377D01*
X1752688Y1011047D02*
X1752688Y1021038D01*
X1757683Y1021038D01*
X1757683Y1019373D01*
X1765478Y1011047D02*
X1769641Y1011047D01*
X1765478Y1011047D02*
X1765380Y1011049D01*
X1765282Y1011055D01*
X1765184Y1011064D01*
X1765087Y1011078D01*
X1764991Y1011095D01*
X1764895Y1011116D01*
X1764800Y1011141D01*
X1764706Y1011169D01*
X1764613Y1011201D01*
X1764522Y1011237D01*
X1764432Y1011276D01*
X1764344Y1011319D01*
X1764257Y1011366D01*
X1764173Y1011415D01*
X1764090Y1011468D01*
X1764010Y1011524D01*
X1763932Y1011583D01*
X1763856Y1011646D01*
X1763782Y1011711D01*
X1763712Y1011779D01*
X1763644Y1011849D01*
X1763579Y1011923D01*
X1763516Y1011999D01*
X1763457Y1012077D01*
X1763401Y1012157D01*
X1763348Y1012240D01*
X1763299Y1012324D01*
X1763252Y1012411D01*
X1763209Y1012499D01*
X1763170Y1012589D01*
X1763134Y1012680D01*
X1763102Y1012773D01*
X1763074Y1012867D01*
X1763049Y1012962D01*
X1763028Y1013058D01*
X1763011Y1013154D01*
X1762997Y1013251D01*
X1762988Y1013349D01*
X1762982Y1013447D01*
X1762980Y1013545D01*
X1762980Y1017707D01*
X1762981Y1017707D02*
X1762983Y1017821D01*
X1762989Y1017934D01*
X1762998Y1018048D01*
X1763012Y1018160D01*
X1763029Y1018273D01*
X1763051Y1018385D01*
X1763076Y1018495D01*
X1763104Y1018605D01*
X1763137Y1018714D01*
X1763173Y1018822D01*
X1763213Y1018929D01*
X1763257Y1019034D01*
X1763304Y1019137D01*
X1763354Y1019239D01*
X1763408Y1019339D01*
X1763466Y1019437D01*
X1763527Y1019533D01*
X1763590Y1019627D01*
X1763658Y1019719D01*
X1763728Y1019809D01*
X1763801Y1019895D01*
X1763877Y1019980D01*
X1763956Y1020062D01*
X1764038Y1020141D01*
X1764123Y1020217D01*
X1764209Y1020290D01*
X1764299Y1020360D01*
X1764391Y1020428D01*
X1764485Y1020491D01*
X1764581Y1020552D01*
X1764679Y1020610D01*
X1764779Y1020664D01*
X1764881Y1020714D01*
X1764984Y1020761D01*
X1765089Y1020805D01*
X1765196Y1020845D01*
X1765304Y1020881D01*
X1765413Y1020914D01*
X1765523Y1020942D01*
X1765633Y1020967D01*
X1765745Y1020989D01*
X1765858Y1021006D01*
X1765970Y1021020D01*
X1766084Y1021029D01*
X1766197Y1021035D01*
X1766311Y1021037D01*
X1766425Y1021035D01*
X1766538Y1021029D01*
X1766652Y1021020D01*
X1766764Y1021006D01*
X1766877Y1020989D01*
X1766989Y1020967D01*
X1767099Y1020942D01*
X1767209Y1020914D01*
X1767318Y1020881D01*
X1767426Y1020845D01*
X1767533Y1020805D01*
X1767638Y1020761D01*
X1767741Y1020714D01*
X1767843Y1020664D01*
X1767943Y1020610D01*
X1768041Y1020552D01*
X1768137Y1020491D01*
X1768231Y1020428D01*
X1768323Y1020360D01*
X1768413Y1020290D01*
X1768499Y1020217D01*
X1768584Y1020141D01*
X1768666Y1020062D01*
X1768745Y1019980D01*
X1768821Y1019895D01*
X1768894Y1019809D01*
X1768964Y1019719D01*
X1769032Y1019627D01*
X1769095Y1019533D01*
X1769156Y1019437D01*
X1769214Y1019339D01*
X1769268Y1019239D01*
X1769318Y1019137D01*
X1769365Y1019034D01*
X1769409Y1018929D01*
X1769449Y1018822D01*
X1769485Y1018714D01*
X1769518Y1018605D01*
X1769546Y1018495D01*
X1769571Y1018385D01*
X1769593Y1018273D01*
X1769610Y1018160D01*
X1769624Y1018048D01*
X1769633Y1017934D01*
X1769639Y1017821D01*
X1769641Y1017707D01*
X1769641Y1016042D01*
X1762980Y1016042D01*
D14*
X1522730Y-5080D02*
X-5080Y-5080D01*
X-68580Y-68580D02*
X1586230Y-68580D01*
X1586230Y1084580D01*
X1522730Y1021080D02*
X1522730Y-5080D01*
X1586230Y1084580D02*
X-68580Y1084580D01*
X-5080Y1021080D02*
X1522730Y1021080D01*
X-5080Y1021080D02*
X-5080Y-5080D01*
X-68580Y-68580D02*
X-68580Y1084580D01*
D15*
X1480185Y25400D02*
X1480190Y25774D01*
X1480203Y26148D01*
X1480226Y26521D01*
X1480258Y26894D01*
X1480300Y27266D01*
X1480350Y27636D01*
X1480409Y28005D01*
X1480478Y28373D01*
X1480555Y28739D01*
X1480642Y29103D01*
X1480737Y29465D01*
X1480841Y29824D01*
X1480954Y30181D01*
X1481076Y30534D01*
X1481206Y30885D01*
X1481345Y31232D01*
X1481492Y31576D01*
X1481648Y31916D01*
X1481812Y32252D01*
X1481985Y32584D01*
X1482165Y32912D01*
X1482353Y33235D01*
X1482549Y33553D01*
X1482753Y33867D01*
X1482965Y34175D01*
X1483184Y34478D01*
X1483411Y34776D01*
X1483644Y35068D01*
X1483885Y35354D01*
X1484133Y35635D01*
X1484387Y35909D01*
X1484649Y36176D01*
X1484916Y36438D01*
X1485190Y36692D01*
X1485471Y36940D01*
X1485757Y37181D01*
X1486049Y37414D01*
X1486347Y37641D01*
X1486650Y37860D01*
X1486958Y38072D01*
X1487272Y38276D01*
X1487590Y38472D01*
X1487913Y38660D01*
X1488241Y38840D01*
X1488573Y39013D01*
X1488909Y39177D01*
X1489249Y39333D01*
X1489593Y39480D01*
X1489940Y39619D01*
X1490291Y39749D01*
X1490644Y39871D01*
X1491001Y39984D01*
X1491360Y40088D01*
X1491722Y40183D01*
X1492086Y40270D01*
X1492452Y40347D01*
X1492820Y40416D01*
X1493189Y40475D01*
X1493559Y40525D01*
X1493931Y40567D01*
X1494304Y40599D01*
X1494677Y40622D01*
X1495051Y40635D01*
X1495425Y40640D01*
X1495799Y40635D01*
X1496173Y40622D01*
X1496546Y40599D01*
X1496919Y40567D01*
X1497291Y40525D01*
X1497661Y40475D01*
X1498030Y40416D01*
X1498398Y40347D01*
X1498764Y40270D01*
X1499128Y40183D01*
X1499490Y40088D01*
X1499849Y39984D01*
X1500206Y39871D01*
X1500559Y39749D01*
X1500910Y39619D01*
X1501257Y39480D01*
X1501601Y39333D01*
X1501941Y39177D01*
X1502277Y39013D01*
X1502609Y38840D01*
X1502937Y38660D01*
X1503260Y38472D01*
X1503578Y38276D01*
X1503892Y38072D01*
X1504200Y37860D01*
X1504503Y37641D01*
X1504801Y37414D01*
X1505093Y37181D01*
X1505379Y36940D01*
X1505660Y36692D01*
X1505934Y36438D01*
X1506201Y36176D01*
X1506463Y35909D01*
X1506717Y35635D01*
X1506965Y35354D01*
X1507206Y35068D01*
X1507439Y34776D01*
X1507666Y34478D01*
X1507885Y34175D01*
X1508097Y33867D01*
X1508301Y33553D01*
X1508497Y33235D01*
X1508685Y32912D01*
X1508865Y32584D01*
X1509038Y32252D01*
X1509202Y31916D01*
X1509358Y31576D01*
X1509505Y31232D01*
X1509644Y30885D01*
X1509774Y30534D01*
X1509896Y30181D01*
X1510009Y29824D01*
X1510113Y29465D01*
X1510208Y29103D01*
X1510295Y28739D01*
X1510372Y28373D01*
X1510441Y28005D01*
X1510500Y27636D01*
X1510550Y27266D01*
X1510592Y26894D01*
X1510624Y26521D01*
X1510647Y26148D01*
X1510660Y25774D01*
X1510665Y25400D01*
X1510660Y25026D01*
X1510647Y24652D01*
X1510624Y24279D01*
X1510592Y23906D01*
X1510550Y23534D01*
X1510500Y23164D01*
X1510441Y22795D01*
X1510372Y22427D01*
X1510295Y22061D01*
X1510208Y21697D01*
X1510113Y21335D01*
X1510009Y20976D01*
X1509896Y20619D01*
X1509774Y20266D01*
X1509644Y19915D01*
X1509505Y19568D01*
X1509358Y19224D01*
X1509202Y18884D01*
X1509038Y18548D01*
X1508865Y18216D01*
X1508685Y17888D01*
X1508497Y17565D01*
X1508301Y17247D01*
X1508097Y16933D01*
X1507885Y16625D01*
X1507666Y16322D01*
X1507439Y16024D01*
X1507206Y15732D01*
X1506965Y15446D01*
X1506717Y15165D01*
X1506463Y14891D01*
X1506201Y14624D01*
X1505934Y14362D01*
X1505660Y14108D01*
X1505379Y13860D01*
X1505093Y13619D01*
X1504801Y13386D01*
X1504503Y13159D01*
X1504200Y12940D01*
X1503892Y12728D01*
X1503578Y12524D01*
X1503260Y12328D01*
X1502937Y12140D01*
X1502609Y11960D01*
X1502277Y11787D01*
X1501941Y11623D01*
X1501601Y11467D01*
X1501257Y11320D01*
X1500910Y11181D01*
X1500559Y11051D01*
X1500206Y10929D01*
X1499849Y10816D01*
X1499490Y10712D01*
X1499128Y10617D01*
X1498764Y10530D01*
X1498398Y10453D01*
X1498030Y10384D01*
X1497661Y10325D01*
X1497291Y10275D01*
X1496919Y10233D01*
X1496546Y10201D01*
X1496173Y10178D01*
X1495799Y10165D01*
X1495425Y10160D01*
X1495051Y10165D01*
X1494677Y10178D01*
X1494304Y10201D01*
X1493931Y10233D01*
X1493559Y10275D01*
X1493189Y10325D01*
X1492820Y10384D01*
X1492452Y10453D01*
X1492086Y10530D01*
X1491722Y10617D01*
X1491360Y10712D01*
X1491001Y10816D01*
X1490644Y10929D01*
X1490291Y11051D01*
X1489940Y11181D01*
X1489593Y11320D01*
X1489249Y11467D01*
X1488909Y11623D01*
X1488573Y11787D01*
X1488241Y11960D01*
X1487913Y12140D01*
X1487590Y12328D01*
X1487272Y12524D01*
X1486958Y12728D01*
X1486650Y12940D01*
X1486347Y13159D01*
X1486049Y13386D01*
X1485757Y13619D01*
X1485471Y13860D01*
X1485190Y14108D01*
X1484916Y14362D01*
X1484649Y14624D01*
X1484387Y14891D01*
X1484133Y15165D01*
X1483885Y15446D01*
X1483644Y15732D01*
X1483411Y16024D01*
X1483184Y16322D01*
X1482965Y16625D01*
X1482753Y16933D01*
X1482549Y17247D01*
X1482353Y17565D01*
X1482165Y17888D01*
X1481985Y18216D01*
X1481812Y18548D01*
X1481648Y18884D01*
X1481492Y19224D01*
X1481345Y19568D01*
X1481206Y19915D01*
X1481076Y20266D01*
X1480954Y20619D01*
X1480841Y20976D01*
X1480737Y21335D01*
X1480642Y21697D01*
X1480555Y22061D01*
X1480478Y22427D01*
X1480409Y22795D01*
X1480350Y23164D01*
X1480300Y23534D01*
X1480258Y23906D01*
X1480226Y24279D01*
X1480203Y24652D01*
X1480190Y25026D01*
X1480185Y25400D01*
X1480185Y990600D02*
X1480190Y990974D01*
X1480203Y991348D01*
X1480226Y991721D01*
X1480258Y992094D01*
X1480300Y992466D01*
X1480350Y992836D01*
X1480409Y993205D01*
X1480478Y993573D01*
X1480555Y993939D01*
X1480642Y994303D01*
X1480737Y994665D01*
X1480841Y995024D01*
X1480954Y995381D01*
X1481076Y995734D01*
X1481206Y996085D01*
X1481345Y996432D01*
X1481492Y996776D01*
X1481648Y997116D01*
X1481812Y997452D01*
X1481985Y997784D01*
X1482165Y998112D01*
X1482353Y998435D01*
X1482549Y998753D01*
X1482753Y999067D01*
X1482965Y999375D01*
X1483184Y999678D01*
X1483411Y999976D01*
X1483644Y1000268D01*
X1483885Y1000554D01*
X1484133Y1000835D01*
X1484387Y1001109D01*
X1484649Y1001376D01*
X1484916Y1001638D01*
X1485190Y1001892D01*
X1485471Y1002140D01*
X1485757Y1002381D01*
X1486049Y1002614D01*
X1486347Y1002841D01*
X1486650Y1003060D01*
X1486958Y1003272D01*
X1487272Y1003476D01*
X1487590Y1003672D01*
X1487913Y1003860D01*
X1488241Y1004040D01*
X1488573Y1004213D01*
X1488909Y1004377D01*
X1489249Y1004533D01*
X1489593Y1004680D01*
X1489940Y1004819D01*
X1490291Y1004949D01*
X1490644Y1005071D01*
X1491001Y1005184D01*
X1491360Y1005288D01*
X1491722Y1005383D01*
X1492086Y1005470D01*
X1492452Y1005547D01*
X1492820Y1005616D01*
X1493189Y1005675D01*
X1493559Y1005725D01*
X1493931Y1005767D01*
X1494304Y1005799D01*
X1494677Y1005822D01*
X1495051Y1005835D01*
X1495425Y1005840D01*
X1495799Y1005835D01*
X1496173Y1005822D01*
X1496546Y1005799D01*
X1496919Y1005767D01*
X1497291Y1005725D01*
X1497661Y1005675D01*
X1498030Y1005616D01*
X1498398Y1005547D01*
X1498764Y1005470D01*
X1499128Y1005383D01*
X1499490Y1005288D01*
X1499849Y1005184D01*
X1500206Y1005071D01*
X1500559Y1004949D01*
X1500910Y1004819D01*
X1501257Y1004680D01*
X1501601Y1004533D01*
X1501941Y1004377D01*
X1502277Y1004213D01*
X1502609Y1004040D01*
X1502937Y1003860D01*
X1503260Y1003672D01*
X1503578Y1003476D01*
X1503892Y1003272D01*
X1504200Y1003060D01*
X1504503Y1002841D01*
X1504801Y1002614D01*
X1505093Y1002381D01*
X1505379Y1002140D01*
X1505660Y1001892D01*
X1505934Y1001638D01*
X1506201Y1001376D01*
X1506463Y1001109D01*
X1506717Y1000835D01*
X1506965Y1000554D01*
X1507206Y1000268D01*
X1507439Y999976D01*
X1507666Y999678D01*
X1507885Y999375D01*
X1508097Y999067D01*
X1508301Y998753D01*
X1508497Y998435D01*
X1508685Y998112D01*
X1508865Y997784D01*
X1509038Y997452D01*
X1509202Y997116D01*
X1509358Y996776D01*
X1509505Y996432D01*
X1509644Y996085D01*
X1509774Y995734D01*
X1509896Y995381D01*
X1510009Y995024D01*
X1510113Y994665D01*
X1510208Y994303D01*
X1510295Y993939D01*
X1510372Y993573D01*
X1510441Y993205D01*
X1510500Y992836D01*
X1510550Y992466D01*
X1510592Y992094D01*
X1510624Y991721D01*
X1510647Y991348D01*
X1510660Y990974D01*
X1510665Y990600D01*
X1510660Y990226D01*
X1510647Y989852D01*
X1510624Y989479D01*
X1510592Y989106D01*
X1510550Y988734D01*
X1510500Y988364D01*
X1510441Y987995D01*
X1510372Y987627D01*
X1510295Y987261D01*
X1510208Y986897D01*
X1510113Y986535D01*
X1510009Y986176D01*
X1509896Y985819D01*
X1509774Y985466D01*
X1509644Y985115D01*
X1509505Y984768D01*
X1509358Y984424D01*
X1509202Y984084D01*
X1509038Y983748D01*
X1508865Y983416D01*
X1508685Y983088D01*
X1508497Y982765D01*
X1508301Y982447D01*
X1508097Y982133D01*
X1507885Y981825D01*
X1507666Y981522D01*
X1507439Y981224D01*
X1507206Y980932D01*
X1506965Y980646D01*
X1506717Y980365D01*
X1506463Y980091D01*
X1506201Y979824D01*
X1505934Y979562D01*
X1505660Y979308D01*
X1505379Y979060D01*
X1505093Y978819D01*
X1504801Y978586D01*
X1504503Y978359D01*
X1504200Y978140D01*
X1503892Y977928D01*
X1503578Y977724D01*
X1503260Y977528D01*
X1502937Y977340D01*
X1502609Y977160D01*
X1502277Y976987D01*
X1501941Y976823D01*
X1501601Y976667D01*
X1501257Y976520D01*
X1500910Y976381D01*
X1500559Y976251D01*
X1500206Y976129D01*
X1499849Y976016D01*
X1499490Y975912D01*
X1499128Y975817D01*
X1498764Y975730D01*
X1498398Y975653D01*
X1498030Y975584D01*
X1497661Y975525D01*
X1497291Y975475D01*
X1496919Y975433D01*
X1496546Y975401D01*
X1496173Y975378D01*
X1495799Y975365D01*
X1495425Y975360D01*
X1495051Y975365D01*
X1494677Y975378D01*
X1494304Y975401D01*
X1493931Y975433D01*
X1493559Y975475D01*
X1493189Y975525D01*
X1492820Y975584D01*
X1492452Y975653D01*
X1492086Y975730D01*
X1491722Y975817D01*
X1491360Y975912D01*
X1491001Y976016D01*
X1490644Y976129D01*
X1490291Y976251D01*
X1489940Y976381D01*
X1489593Y976520D01*
X1489249Y976667D01*
X1488909Y976823D01*
X1488573Y976987D01*
X1488241Y977160D01*
X1487913Y977340D01*
X1487590Y977528D01*
X1487272Y977724D01*
X1486958Y977928D01*
X1486650Y978140D01*
X1486347Y978359D01*
X1486049Y978586D01*
X1485757Y978819D01*
X1485471Y979060D01*
X1485190Y979308D01*
X1484916Y979562D01*
X1484649Y979824D01*
X1484387Y980091D01*
X1484133Y980365D01*
X1483885Y980646D01*
X1483644Y980932D01*
X1483411Y981224D01*
X1483184Y981522D01*
X1482965Y981825D01*
X1482753Y982133D01*
X1482549Y982447D01*
X1482353Y982765D01*
X1482165Y983088D01*
X1481985Y983416D01*
X1481812Y983748D01*
X1481648Y984084D01*
X1481492Y984424D01*
X1481345Y984768D01*
X1481206Y985115D01*
X1481076Y985466D01*
X1480954Y985819D01*
X1480841Y986176D01*
X1480737Y986535D01*
X1480642Y986897D01*
X1480555Y987261D01*
X1480478Y987627D01*
X1480409Y987995D01*
X1480350Y988364D01*
X1480300Y988734D01*
X1480258Y989106D01*
X1480226Y989479D01*
X1480203Y989852D01*
X1480190Y990226D01*
X1480185Y990600D01*
X6985Y990600D02*
X6990Y990974D01*
X7003Y991348D01*
X7026Y991721D01*
X7058Y992094D01*
X7100Y992466D01*
X7150Y992836D01*
X7209Y993205D01*
X7278Y993573D01*
X7355Y993939D01*
X7442Y994303D01*
X7537Y994665D01*
X7641Y995024D01*
X7754Y995381D01*
X7876Y995734D01*
X8006Y996085D01*
X8145Y996432D01*
X8292Y996776D01*
X8448Y997116D01*
X8612Y997452D01*
X8785Y997784D01*
X8965Y998112D01*
X9153Y998435D01*
X9349Y998753D01*
X9553Y999067D01*
X9765Y999375D01*
X9984Y999678D01*
X10211Y999976D01*
X10444Y1000268D01*
X10685Y1000554D01*
X10933Y1000835D01*
X11187Y1001109D01*
X11449Y1001376D01*
X11716Y1001638D01*
X11990Y1001892D01*
X12271Y1002140D01*
X12557Y1002381D01*
X12849Y1002614D01*
X13147Y1002841D01*
X13450Y1003060D01*
X13758Y1003272D01*
X14072Y1003476D01*
X14390Y1003672D01*
X14713Y1003860D01*
X15041Y1004040D01*
X15373Y1004213D01*
X15709Y1004377D01*
X16049Y1004533D01*
X16393Y1004680D01*
X16740Y1004819D01*
X17091Y1004949D01*
X17444Y1005071D01*
X17801Y1005184D01*
X18160Y1005288D01*
X18522Y1005383D01*
X18886Y1005470D01*
X19252Y1005547D01*
X19620Y1005616D01*
X19989Y1005675D01*
X20359Y1005725D01*
X20731Y1005767D01*
X21104Y1005799D01*
X21477Y1005822D01*
X21851Y1005835D01*
X22225Y1005840D01*
X22599Y1005835D01*
X22973Y1005822D01*
X23346Y1005799D01*
X23719Y1005767D01*
X24091Y1005725D01*
X24461Y1005675D01*
X24830Y1005616D01*
X25198Y1005547D01*
X25564Y1005470D01*
X25928Y1005383D01*
X26290Y1005288D01*
X26649Y1005184D01*
X27006Y1005071D01*
X27359Y1004949D01*
X27710Y1004819D01*
X28057Y1004680D01*
X28401Y1004533D01*
X28741Y1004377D01*
X29077Y1004213D01*
X29409Y1004040D01*
X29737Y1003860D01*
X30060Y1003672D01*
X30378Y1003476D01*
X30692Y1003272D01*
X31000Y1003060D01*
X31303Y1002841D01*
X31601Y1002614D01*
X31893Y1002381D01*
X32179Y1002140D01*
X32460Y1001892D01*
X32734Y1001638D01*
X33001Y1001376D01*
X33263Y1001109D01*
X33517Y1000835D01*
X33765Y1000554D01*
X34006Y1000268D01*
X34239Y999976D01*
X34466Y999678D01*
X34685Y999375D01*
X34897Y999067D01*
X35101Y998753D01*
X35297Y998435D01*
X35485Y998112D01*
X35665Y997784D01*
X35838Y997452D01*
X36002Y997116D01*
X36158Y996776D01*
X36305Y996432D01*
X36444Y996085D01*
X36574Y995734D01*
X36696Y995381D01*
X36809Y995024D01*
X36913Y994665D01*
X37008Y994303D01*
X37095Y993939D01*
X37172Y993573D01*
X37241Y993205D01*
X37300Y992836D01*
X37350Y992466D01*
X37392Y992094D01*
X37424Y991721D01*
X37447Y991348D01*
X37460Y990974D01*
X37465Y990600D01*
X37460Y990226D01*
X37447Y989852D01*
X37424Y989479D01*
X37392Y989106D01*
X37350Y988734D01*
X37300Y988364D01*
X37241Y987995D01*
X37172Y987627D01*
X37095Y987261D01*
X37008Y986897D01*
X36913Y986535D01*
X36809Y986176D01*
X36696Y985819D01*
X36574Y985466D01*
X36444Y985115D01*
X36305Y984768D01*
X36158Y984424D01*
X36002Y984084D01*
X35838Y983748D01*
X35665Y983416D01*
X35485Y983088D01*
X35297Y982765D01*
X35101Y982447D01*
X34897Y982133D01*
X34685Y981825D01*
X34466Y981522D01*
X34239Y981224D01*
X34006Y980932D01*
X33765Y980646D01*
X33517Y980365D01*
X33263Y980091D01*
X33001Y979824D01*
X32734Y979562D01*
X32460Y979308D01*
X32179Y979060D01*
X31893Y978819D01*
X31601Y978586D01*
X31303Y978359D01*
X31000Y978140D01*
X30692Y977928D01*
X30378Y977724D01*
X30060Y977528D01*
X29737Y977340D01*
X29409Y977160D01*
X29077Y976987D01*
X28741Y976823D01*
X28401Y976667D01*
X28057Y976520D01*
X27710Y976381D01*
X27359Y976251D01*
X27006Y976129D01*
X26649Y976016D01*
X26290Y975912D01*
X25928Y975817D01*
X25564Y975730D01*
X25198Y975653D01*
X24830Y975584D01*
X24461Y975525D01*
X24091Y975475D01*
X23719Y975433D01*
X23346Y975401D01*
X22973Y975378D01*
X22599Y975365D01*
X22225Y975360D01*
X21851Y975365D01*
X21477Y975378D01*
X21104Y975401D01*
X20731Y975433D01*
X20359Y975475D01*
X19989Y975525D01*
X19620Y975584D01*
X19252Y975653D01*
X18886Y975730D01*
X18522Y975817D01*
X18160Y975912D01*
X17801Y976016D01*
X17444Y976129D01*
X17091Y976251D01*
X16740Y976381D01*
X16393Y976520D01*
X16049Y976667D01*
X15709Y976823D01*
X15373Y976987D01*
X15041Y977160D01*
X14713Y977340D01*
X14390Y977528D01*
X14072Y977724D01*
X13758Y977928D01*
X13450Y978140D01*
X13147Y978359D01*
X12849Y978586D01*
X12557Y978819D01*
X12271Y979060D01*
X11990Y979308D01*
X11716Y979562D01*
X11449Y979824D01*
X11187Y980091D01*
X10933Y980365D01*
X10685Y980646D01*
X10444Y980932D01*
X10211Y981224D01*
X9984Y981522D01*
X9765Y981825D01*
X9553Y982133D01*
X9349Y982447D01*
X9153Y982765D01*
X8965Y983088D01*
X8785Y983416D01*
X8612Y983748D01*
X8448Y984084D01*
X8292Y984424D01*
X8145Y984768D01*
X8006Y985115D01*
X7876Y985466D01*
X7754Y985819D01*
X7641Y986176D01*
X7537Y986535D01*
X7442Y986897D01*
X7355Y987261D01*
X7278Y987627D01*
X7209Y987995D01*
X7150Y988364D01*
X7100Y988734D01*
X7058Y989106D01*
X7026Y989479D01*
X7003Y989852D01*
X6990Y990226D01*
X6985Y990600D01*
X1107675Y49050D02*
X1107677Y49163D01*
X1107683Y49277D01*
X1107693Y49390D01*
X1107707Y49502D01*
X1107724Y49614D01*
X1107746Y49726D01*
X1107772Y49836D01*
X1107801Y49946D01*
X1107834Y50054D01*
X1107871Y50162D01*
X1107912Y50267D01*
X1107956Y50372D01*
X1108004Y50475D01*
X1108055Y50576D01*
X1108110Y50675D01*
X1108169Y50772D01*
X1108231Y50867D01*
X1108296Y50960D01*
X1108364Y51051D01*
X1108435Y51139D01*
X1108510Y51225D01*
X1108587Y51308D01*
X1108667Y51388D01*
X1108750Y51465D01*
X1108836Y51540D01*
X1108924Y51611D01*
X1109015Y51679D01*
X1109108Y51744D01*
X1109203Y51806D01*
X1109300Y51865D01*
X1109399Y51920D01*
X1109500Y51971D01*
X1109603Y52019D01*
X1109708Y52063D01*
X1109813Y52104D01*
X1109921Y52141D01*
X1110029Y52174D01*
X1110139Y52203D01*
X1110249Y52229D01*
X1110361Y52251D01*
X1110473Y52268D01*
X1110585Y52282D01*
X1110698Y52292D01*
X1110812Y52298D01*
X1110925Y52300D01*
X1111038Y52298D01*
X1111152Y52292D01*
X1111265Y52282D01*
X1111377Y52268D01*
X1111489Y52251D01*
X1111601Y52229D01*
X1111711Y52203D01*
X1111821Y52174D01*
X1111929Y52141D01*
X1112037Y52104D01*
X1112142Y52063D01*
X1112247Y52019D01*
X1112350Y51971D01*
X1112451Y51920D01*
X1112550Y51865D01*
X1112647Y51806D01*
X1112742Y51744D01*
X1112835Y51679D01*
X1112926Y51611D01*
X1113014Y51540D01*
X1113100Y51465D01*
X1113183Y51388D01*
X1113263Y51308D01*
X1113340Y51225D01*
X1113415Y51139D01*
X1113486Y51051D01*
X1113554Y50960D01*
X1113619Y50867D01*
X1113681Y50772D01*
X1113740Y50675D01*
X1113795Y50576D01*
X1113846Y50475D01*
X1113894Y50372D01*
X1113938Y50267D01*
X1113979Y50162D01*
X1114016Y50054D01*
X1114049Y49946D01*
X1114078Y49836D01*
X1114104Y49726D01*
X1114126Y49614D01*
X1114143Y49502D01*
X1114157Y49390D01*
X1114167Y49277D01*
X1114173Y49163D01*
X1114175Y49050D01*
X1114173Y48937D01*
X1114167Y48823D01*
X1114157Y48710D01*
X1114143Y48598D01*
X1114126Y48486D01*
X1114104Y48374D01*
X1114078Y48264D01*
X1114049Y48154D01*
X1114016Y48046D01*
X1113979Y47938D01*
X1113938Y47833D01*
X1113894Y47728D01*
X1113846Y47625D01*
X1113795Y47524D01*
X1113740Y47425D01*
X1113681Y47328D01*
X1113619Y47233D01*
X1113554Y47140D01*
X1113486Y47049D01*
X1113415Y46961D01*
X1113340Y46875D01*
X1113263Y46792D01*
X1113183Y46712D01*
X1113100Y46635D01*
X1113014Y46560D01*
X1112926Y46489D01*
X1112835Y46421D01*
X1112742Y46356D01*
X1112647Y46294D01*
X1112550Y46235D01*
X1112451Y46180D01*
X1112350Y46129D01*
X1112247Y46081D01*
X1112142Y46037D01*
X1112037Y45996D01*
X1111929Y45959D01*
X1111821Y45926D01*
X1111711Y45897D01*
X1111601Y45871D01*
X1111489Y45849D01*
X1111377Y45832D01*
X1111265Y45818D01*
X1111152Y45808D01*
X1111038Y45802D01*
X1110925Y45800D01*
X1110812Y45802D01*
X1110698Y45808D01*
X1110585Y45818D01*
X1110473Y45832D01*
X1110361Y45849D01*
X1110249Y45871D01*
X1110139Y45897D01*
X1110029Y45926D01*
X1109921Y45959D01*
X1109813Y45996D01*
X1109708Y46037D01*
X1109603Y46081D01*
X1109500Y46129D01*
X1109399Y46180D01*
X1109300Y46235D01*
X1109203Y46294D01*
X1109108Y46356D01*
X1109015Y46421D01*
X1108924Y46489D01*
X1108836Y46560D01*
X1108750Y46635D01*
X1108667Y46712D01*
X1108587Y46792D01*
X1108510Y46875D01*
X1108435Y46961D01*
X1108364Y47049D01*
X1108296Y47140D01*
X1108231Y47233D01*
X1108169Y47328D01*
X1108110Y47425D01*
X1108055Y47524D01*
X1108004Y47625D01*
X1107956Y47728D01*
X1107912Y47833D01*
X1107871Y47938D01*
X1107834Y48046D01*
X1107801Y48154D01*
X1107772Y48264D01*
X1107746Y48374D01*
X1107724Y48486D01*
X1107707Y48598D01*
X1107693Y48710D01*
X1107683Y48823D01*
X1107677Y48937D01*
X1107675Y49050D01*
X1165475Y49050D02*
X1165477Y49163D01*
X1165483Y49277D01*
X1165493Y49390D01*
X1165507Y49502D01*
X1165524Y49614D01*
X1165546Y49726D01*
X1165572Y49836D01*
X1165601Y49946D01*
X1165634Y50054D01*
X1165671Y50162D01*
X1165712Y50267D01*
X1165756Y50372D01*
X1165804Y50475D01*
X1165855Y50576D01*
X1165910Y50675D01*
X1165969Y50772D01*
X1166031Y50867D01*
X1166096Y50960D01*
X1166164Y51051D01*
X1166235Y51139D01*
X1166310Y51225D01*
X1166387Y51308D01*
X1166467Y51388D01*
X1166550Y51465D01*
X1166636Y51540D01*
X1166724Y51611D01*
X1166815Y51679D01*
X1166908Y51744D01*
X1167003Y51806D01*
X1167100Y51865D01*
X1167199Y51920D01*
X1167300Y51971D01*
X1167403Y52019D01*
X1167508Y52063D01*
X1167613Y52104D01*
X1167721Y52141D01*
X1167829Y52174D01*
X1167939Y52203D01*
X1168049Y52229D01*
X1168161Y52251D01*
X1168273Y52268D01*
X1168385Y52282D01*
X1168498Y52292D01*
X1168612Y52298D01*
X1168725Y52300D01*
X1168838Y52298D01*
X1168952Y52292D01*
X1169065Y52282D01*
X1169177Y52268D01*
X1169289Y52251D01*
X1169401Y52229D01*
X1169511Y52203D01*
X1169621Y52174D01*
X1169729Y52141D01*
X1169837Y52104D01*
X1169942Y52063D01*
X1170047Y52019D01*
X1170150Y51971D01*
X1170251Y51920D01*
X1170350Y51865D01*
X1170447Y51806D01*
X1170542Y51744D01*
X1170635Y51679D01*
X1170726Y51611D01*
X1170814Y51540D01*
X1170900Y51465D01*
X1170983Y51388D01*
X1171063Y51308D01*
X1171140Y51225D01*
X1171215Y51139D01*
X1171286Y51051D01*
X1171354Y50960D01*
X1171419Y50867D01*
X1171481Y50772D01*
X1171540Y50675D01*
X1171595Y50576D01*
X1171646Y50475D01*
X1171694Y50372D01*
X1171738Y50267D01*
X1171779Y50162D01*
X1171816Y50054D01*
X1171849Y49946D01*
X1171878Y49836D01*
X1171904Y49726D01*
X1171926Y49614D01*
X1171943Y49502D01*
X1171957Y49390D01*
X1171967Y49277D01*
X1171973Y49163D01*
X1171975Y49050D01*
X1171973Y48937D01*
X1171967Y48823D01*
X1171957Y48710D01*
X1171943Y48598D01*
X1171926Y48486D01*
X1171904Y48374D01*
X1171878Y48264D01*
X1171849Y48154D01*
X1171816Y48046D01*
X1171779Y47938D01*
X1171738Y47833D01*
X1171694Y47728D01*
X1171646Y47625D01*
X1171595Y47524D01*
X1171540Y47425D01*
X1171481Y47328D01*
X1171419Y47233D01*
X1171354Y47140D01*
X1171286Y47049D01*
X1171215Y46961D01*
X1171140Y46875D01*
X1171063Y46792D01*
X1170983Y46712D01*
X1170900Y46635D01*
X1170814Y46560D01*
X1170726Y46489D01*
X1170635Y46421D01*
X1170542Y46356D01*
X1170447Y46294D01*
X1170350Y46235D01*
X1170251Y46180D01*
X1170150Y46129D01*
X1170047Y46081D01*
X1169942Y46037D01*
X1169837Y45996D01*
X1169729Y45959D01*
X1169621Y45926D01*
X1169511Y45897D01*
X1169401Y45871D01*
X1169289Y45849D01*
X1169177Y45832D01*
X1169065Y45818D01*
X1168952Y45808D01*
X1168838Y45802D01*
X1168725Y45800D01*
X1168612Y45802D01*
X1168498Y45808D01*
X1168385Y45818D01*
X1168273Y45832D01*
X1168161Y45849D01*
X1168049Y45871D01*
X1167939Y45897D01*
X1167829Y45926D01*
X1167721Y45959D01*
X1167613Y45996D01*
X1167508Y46037D01*
X1167403Y46081D01*
X1167300Y46129D01*
X1167199Y46180D01*
X1167100Y46235D01*
X1167003Y46294D01*
X1166908Y46356D01*
X1166815Y46421D01*
X1166724Y46489D01*
X1166636Y46560D01*
X1166550Y46635D01*
X1166467Y46712D01*
X1166387Y46792D01*
X1166310Y46875D01*
X1166235Y46961D01*
X1166164Y47049D01*
X1166096Y47140D01*
X1166031Y47233D01*
X1165969Y47328D01*
X1165910Y47425D01*
X1165855Y47524D01*
X1165804Y47625D01*
X1165756Y47728D01*
X1165712Y47833D01*
X1165671Y47938D01*
X1165634Y48046D01*
X1165601Y48154D01*
X1165572Y48264D01*
X1165546Y48374D01*
X1165524Y48486D01*
X1165507Y48598D01*
X1165493Y48710D01*
X1165483Y48823D01*
X1165477Y48937D01*
X1165475Y49050D01*
D16*
X1096645Y48850D02*
X1096645Y59850D01*
X1183005Y59850D02*
X1183005Y48850D01*
X1096645Y15700D02*
X1096645Y9500D01*
X1183005Y9500D02*
X1183005Y15700D01*
D15*
X504925Y20320D02*
X504927Y20461D01*
X504933Y20602D01*
X504943Y20742D01*
X504957Y20882D01*
X504975Y21022D01*
X504996Y21161D01*
X505022Y21300D01*
X505051Y21438D01*
X505085Y21574D01*
X505122Y21710D01*
X505163Y21845D01*
X505208Y21979D01*
X505257Y22111D01*
X505309Y22242D01*
X505365Y22371D01*
X505425Y22498D01*
X505488Y22624D01*
X505554Y22748D01*
X505625Y22871D01*
X505698Y22991D01*
X505775Y23109D01*
X505855Y23225D01*
X505939Y23338D01*
X506025Y23449D01*
X506115Y23558D01*
X506208Y23664D01*
X506303Y23767D01*
X506402Y23868D01*
X506503Y23966D01*
X506607Y24061D01*
X506714Y24153D01*
X506823Y24242D01*
X506935Y24327D01*
X507049Y24410D01*
X507165Y24490D01*
X507284Y24566D01*
X507405Y24638D01*
X507527Y24708D01*
X507652Y24773D01*
X507778Y24836D01*
X507906Y24894D01*
X508036Y24949D01*
X508167Y25001D01*
X508300Y25048D01*
X508434Y25092D01*
X508569Y25133D01*
X508705Y25169D01*
X508842Y25201D01*
X508980Y25230D01*
X509118Y25255D01*
X509258Y25275D01*
X509398Y25292D01*
X509538Y25305D01*
X509679Y25314D01*
X509819Y25319D01*
X509960Y25320D01*
X510101Y25317D01*
X510242Y25310D01*
X510382Y25299D01*
X510522Y25284D01*
X510662Y25265D01*
X510801Y25243D01*
X510939Y25216D01*
X511077Y25186D01*
X511213Y25151D01*
X511349Y25113D01*
X511483Y25071D01*
X511617Y25025D01*
X511749Y24976D01*
X511879Y24922D01*
X512008Y24865D01*
X512135Y24805D01*
X512261Y24741D01*
X512384Y24673D01*
X512506Y24602D01*
X512626Y24528D01*
X512743Y24450D01*
X512858Y24369D01*
X512971Y24285D01*
X513082Y24198D01*
X513190Y24107D01*
X513295Y24014D01*
X513398Y23917D01*
X513498Y23818D01*
X513595Y23716D01*
X513689Y23611D01*
X513780Y23504D01*
X513868Y23394D01*
X513953Y23282D01*
X514035Y23167D01*
X514114Y23050D01*
X514189Y22931D01*
X514261Y22810D01*
X514329Y22687D01*
X514394Y22562D01*
X514456Y22435D01*
X514513Y22306D01*
X514568Y22176D01*
X514618Y22045D01*
X514665Y21912D01*
X514708Y21778D01*
X514747Y21642D01*
X514782Y21506D01*
X514814Y21369D01*
X514841Y21231D01*
X514865Y21092D01*
X514885Y20952D01*
X514901Y20812D01*
X514913Y20672D01*
X514921Y20531D01*
X514925Y20390D01*
X514925Y20250D01*
X514921Y20109D01*
X514913Y19968D01*
X514901Y19828D01*
X514885Y19688D01*
X514865Y19548D01*
X514841Y19409D01*
X514814Y19271D01*
X514782Y19134D01*
X514747Y18998D01*
X514708Y18862D01*
X514665Y18728D01*
X514618Y18595D01*
X514568Y18464D01*
X514513Y18334D01*
X514456Y18205D01*
X514394Y18078D01*
X514329Y17953D01*
X514261Y17830D01*
X514189Y17709D01*
X514114Y17590D01*
X514035Y17473D01*
X513953Y17358D01*
X513868Y17246D01*
X513780Y17136D01*
X513689Y17029D01*
X513595Y16924D01*
X513498Y16822D01*
X513398Y16723D01*
X513295Y16626D01*
X513190Y16533D01*
X513082Y16442D01*
X512971Y16355D01*
X512858Y16271D01*
X512743Y16190D01*
X512626Y16112D01*
X512506Y16038D01*
X512384Y15967D01*
X512261Y15899D01*
X512135Y15835D01*
X512008Y15775D01*
X511879Y15718D01*
X511749Y15664D01*
X511617Y15615D01*
X511483Y15569D01*
X511349Y15527D01*
X511213Y15489D01*
X511077Y15454D01*
X510939Y15424D01*
X510801Y15397D01*
X510662Y15375D01*
X510522Y15356D01*
X510382Y15341D01*
X510242Y15330D01*
X510101Y15323D01*
X509960Y15320D01*
X509819Y15321D01*
X509679Y15326D01*
X509538Y15335D01*
X509398Y15348D01*
X509258Y15365D01*
X509118Y15385D01*
X508980Y15410D01*
X508842Y15439D01*
X508705Y15471D01*
X508569Y15507D01*
X508434Y15548D01*
X508300Y15592D01*
X508167Y15639D01*
X508036Y15691D01*
X507906Y15746D01*
X507778Y15804D01*
X507652Y15867D01*
X507527Y15932D01*
X507405Y16002D01*
X507284Y16074D01*
X507165Y16150D01*
X507049Y16230D01*
X506935Y16313D01*
X506823Y16398D01*
X506714Y16487D01*
X506607Y16579D01*
X506503Y16674D01*
X506402Y16772D01*
X506303Y16873D01*
X506208Y16976D01*
X506115Y17082D01*
X506025Y17191D01*
X505939Y17302D01*
X505855Y17415D01*
X505775Y17531D01*
X505698Y17649D01*
X505625Y17769D01*
X505554Y17892D01*
X505488Y18016D01*
X505425Y18142D01*
X505365Y18269D01*
X505309Y18398D01*
X505257Y18529D01*
X505208Y18661D01*
X505163Y18795D01*
X505122Y18930D01*
X505085Y19066D01*
X505051Y19202D01*
X505022Y19340D01*
X504996Y19479D01*
X504975Y19618D01*
X504957Y19758D01*
X504943Y19898D01*
X504933Y20038D01*
X504927Y20179D01*
X504925Y20320D01*
X424925Y20320D02*
X424927Y20461D01*
X424933Y20602D01*
X424943Y20742D01*
X424957Y20882D01*
X424975Y21022D01*
X424996Y21161D01*
X425022Y21300D01*
X425051Y21438D01*
X425085Y21574D01*
X425122Y21710D01*
X425163Y21845D01*
X425208Y21979D01*
X425257Y22111D01*
X425309Y22242D01*
X425365Y22371D01*
X425425Y22498D01*
X425488Y22624D01*
X425554Y22748D01*
X425625Y22871D01*
X425698Y22991D01*
X425775Y23109D01*
X425855Y23225D01*
X425939Y23338D01*
X426025Y23449D01*
X426115Y23558D01*
X426208Y23664D01*
X426303Y23767D01*
X426402Y23868D01*
X426503Y23966D01*
X426607Y24061D01*
X426714Y24153D01*
X426823Y24242D01*
X426935Y24327D01*
X427049Y24410D01*
X427165Y24490D01*
X427284Y24566D01*
X427405Y24638D01*
X427527Y24708D01*
X427652Y24773D01*
X427778Y24836D01*
X427906Y24894D01*
X428036Y24949D01*
X428167Y25001D01*
X428300Y25048D01*
X428434Y25092D01*
X428569Y25133D01*
X428705Y25169D01*
X428842Y25201D01*
X428980Y25230D01*
X429118Y25255D01*
X429258Y25275D01*
X429398Y25292D01*
X429538Y25305D01*
X429679Y25314D01*
X429819Y25319D01*
X429960Y25320D01*
X430101Y25317D01*
X430242Y25310D01*
X430382Y25299D01*
X430522Y25284D01*
X430662Y25265D01*
X430801Y25243D01*
X430939Y25216D01*
X431077Y25186D01*
X431213Y25151D01*
X431349Y25113D01*
X431483Y25071D01*
X431617Y25025D01*
X431749Y24976D01*
X431879Y24922D01*
X432008Y24865D01*
X432135Y24805D01*
X432261Y24741D01*
X432384Y24673D01*
X432506Y24602D01*
X432626Y24528D01*
X432743Y24450D01*
X432858Y24369D01*
X432971Y24285D01*
X433082Y24198D01*
X433190Y24107D01*
X433295Y24014D01*
X433398Y23917D01*
X433498Y23818D01*
X433595Y23716D01*
X433689Y23611D01*
X433780Y23504D01*
X433868Y23394D01*
X433953Y23282D01*
X434035Y23167D01*
X434114Y23050D01*
X434189Y22931D01*
X434261Y22810D01*
X434329Y22687D01*
X434394Y22562D01*
X434456Y22435D01*
X434513Y22306D01*
X434568Y22176D01*
X434618Y22045D01*
X434665Y21912D01*
X434708Y21778D01*
X434747Y21642D01*
X434782Y21506D01*
X434814Y21369D01*
X434841Y21231D01*
X434865Y21092D01*
X434885Y20952D01*
X434901Y20812D01*
X434913Y20672D01*
X434921Y20531D01*
X434925Y20390D01*
X434925Y20250D01*
X434921Y20109D01*
X434913Y19968D01*
X434901Y19828D01*
X434885Y19688D01*
X434865Y19548D01*
X434841Y19409D01*
X434814Y19271D01*
X434782Y19134D01*
X434747Y18998D01*
X434708Y18862D01*
X434665Y18728D01*
X434618Y18595D01*
X434568Y18464D01*
X434513Y18334D01*
X434456Y18205D01*
X434394Y18078D01*
X434329Y17953D01*
X434261Y17830D01*
X434189Y17709D01*
X434114Y17590D01*
X434035Y17473D01*
X433953Y17358D01*
X433868Y17246D01*
X433780Y17136D01*
X433689Y17029D01*
X433595Y16924D01*
X433498Y16822D01*
X433398Y16723D01*
X433295Y16626D01*
X433190Y16533D01*
X433082Y16442D01*
X432971Y16355D01*
X432858Y16271D01*
X432743Y16190D01*
X432626Y16112D01*
X432506Y16038D01*
X432384Y15967D01*
X432261Y15899D01*
X432135Y15835D01*
X432008Y15775D01*
X431879Y15718D01*
X431749Y15664D01*
X431617Y15615D01*
X431483Y15569D01*
X431349Y15527D01*
X431213Y15489D01*
X431077Y15454D01*
X430939Y15424D01*
X430801Y15397D01*
X430662Y15375D01*
X430522Y15356D01*
X430382Y15341D01*
X430242Y15330D01*
X430101Y15323D01*
X429960Y15320D01*
X429819Y15321D01*
X429679Y15326D01*
X429538Y15335D01*
X429398Y15348D01*
X429258Y15365D01*
X429118Y15385D01*
X428980Y15410D01*
X428842Y15439D01*
X428705Y15471D01*
X428569Y15507D01*
X428434Y15548D01*
X428300Y15592D01*
X428167Y15639D01*
X428036Y15691D01*
X427906Y15746D01*
X427778Y15804D01*
X427652Y15867D01*
X427527Y15932D01*
X427405Y16002D01*
X427284Y16074D01*
X427165Y16150D01*
X427049Y16230D01*
X426935Y16313D01*
X426823Y16398D01*
X426714Y16487D01*
X426607Y16579D01*
X426503Y16674D01*
X426402Y16772D01*
X426303Y16873D01*
X426208Y16976D01*
X426115Y17082D01*
X426025Y17191D01*
X425939Y17302D01*
X425855Y17415D01*
X425775Y17531D01*
X425698Y17649D01*
X425625Y17769D01*
X425554Y17892D01*
X425488Y18016D01*
X425425Y18142D01*
X425365Y18269D01*
X425309Y18398D01*
X425257Y18529D01*
X425208Y18661D01*
X425163Y18795D01*
X425122Y18930D01*
X425085Y19066D01*
X425051Y19202D01*
X425022Y19340D01*
X424996Y19479D01*
X424975Y19618D01*
X424957Y19758D01*
X424943Y19898D01*
X424933Y20038D01*
X424927Y20179D01*
X424925Y20320D01*
X6985Y25400D02*
X6990Y25774D01*
X7003Y26148D01*
X7026Y26521D01*
X7058Y26894D01*
X7100Y27266D01*
X7150Y27636D01*
X7209Y28005D01*
X7278Y28373D01*
X7355Y28739D01*
X7442Y29103D01*
X7537Y29465D01*
X7641Y29824D01*
X7754Y30181D01*
X7876Y30534D01*
X8006Y30885D01*
X8145Y31232D01*
X8292Y31576D01*
X8448Y31916D01*
X8612Y32252D01*
X8785Y32584D01*
X8965Y32912D01*
X9153Y33235D01*
X9349Y33553D01*
X9553Y33867D01*
X9765Y34175D01*
X9984Y34478D01*
X10211Y34776D01*
X10444Y35068D01*
X10685Y35354D01*
X10933Y35635D01*
X11187Y35909D01*
X11449Y36176D01*
X11716Y36438D01*
X11990Y36692D01*
X12271Y36940D01*
X12557Y37181D01*
X12849Y37414D01*
X13147Y37641D01*
X13450Y37860D01*
X13758Y38072D01*
X14072Y38276D01*
X14390Y38472D01*
X14713Y38660D01*
X15041Y38840D01*
X15373Y39013D01*
X15709Y39177D01*
X16049Y39333D01*
X16393Y39480D01*
X16740Y39619D01*
X17091Y39749D01*
X17444Y39871D01*
X17801Y39984D01*
X18160Y40088D01*
X18522Y40183D01*
X18886Y40270D01*
X19252Y40347D01*
X19620Y40416D01*
X19989Y40475D01*
X20359Y40525D01*
X20731Y40567D01*
X21104Y40599D01*
X21477Y40622D01*
X21851Y40635D01*
X22225Y40640D01*
X22599Y40635D01*
X22973Y40622D01*
X23346Y40599D01*
X23719Y40567D01*
X24091Y40525D01*
X24461Y40475D01*
X24830Y40416D01*
X25198Y40347D01*
X25564Y40270D01*
X25928Y40183D01*
X26290Y40088D01*
X26649Y39984D01*
X27006Y39871D01*
X27359Y39749D01*
X27710Y39619D01*
X28057Y39480D01*
X28401Y39333D01*
X28741Y39177D01*
X29077Y39013D01*
X29409Y38840D01*
X29737Y38660D01*
X30060Y38472D01*
X30378Y38276D01*
X30692Y38072D01*
X31000Y37860D01*
X31303Y37641D01*
X31601Y37414D01*
X31893Y37181D01*
X32179Y36940D01*
X32460Y36692D01*
X32734Y36438D01*
X33001Y36176D01*
X33263Y35909D01*
X33517Y35635D01*
X33765Y35354D01*
X34006Y35068D01*
X34239Y34776D01*
X34466Y34478D01*
X34685Y34175D01*
X34897Y33867D01*
X35101Y33553D01*
X35297Y33235D01*
X35485Y32912D01*
X35665Y32584D01*
X35838Y32252D01*
X36002Y31916D01*
X36158Y31576D01*
X36305Y31232D01*
X36444Y30885D01*
X36574Y30534D01*
X36696Y30181D01*
X36809Y29824D01*
X36913Y29465D01*
X37008Y29103D01*
X37095Y28739D01*
X37172Y28373D01*
X37241Y28005D01*
X37300Y27636D01*
X37350Y27266D01*
X37392Y26894D01*
X37424Y26521D01*
X37447Y26148D01*
X37460Y25774D01*
X37465Y25400D01*
X37460Y25026D01*
X37447Y24652D01*
X37424Y24279D01*
X37392Y23906D01*
X37350Y23534D01*
X37300Y23164D01*
X37241Y22795D01*
X37172Y22427D01*
X37095Y22061D01*
X37008Y21697D01*
X36913Y21335D01*
X36809Y20976D01*
X36696Y20619D01*
X36574Y20266D01*
X36444Y19915D01*
X36305Y19568D01*
X36158Y19224D01*
X36002Y18884D01*
X35838Y18548D01*
X35665Y18216D01*
X35485Y17888D01*
X35297Y17565D01*
X35101Y17247D01*
X34897Y16933D01*
X34685Y16625D01*
X34466Y16322D01*
X34239Y16024D01*
X34006Y15732D01*
X33765Y15446D01*
X33517Y15165D01*
X33263Y14891D01*
X33001Y14624D01*
X32734Y14362D01*
X32460Y14108D01*
X32179Y13860D01*
X31893Y13619D01*
X31601Y13386D01*
X31303Y13159D01*
X31000Y12940D01*
X30692Y12728D01*
X30378Y12524D01*
X30060Y12328D01*
X29737Y12140D01*
X29409Y11960D01*
X29077Y11787D01*
X28741Y11623D01*
X28401Y11467D01*
X28057Y11320D01*
X27710Y11181D01*
X27359Y11051D01*
X27006Y10929D01*
X26649Y10816D01*
X26290Y10712D01*
X25928Y10617D01*
X25564Y10530D01*
X25198Y10453D01*
X24830Y10384D01*
X24461Y10325D01*
X24091Y10275D01*
X23719Y10233D01*
X23346Y10201D01*
X22973Y10178D01*
X22599Y10165D01*
X22225Y10160D01*
X21851Y10165D01*
X21477Y10178D01*
X21104Y10201D01*
X20731Y10233D01*
X20359Y10275D01*
X19989Y10325D01*
X19620Y10384D01*
X19252Y10453D01*
X18886Y10530D01*
X18522Y10617D01*
X18160Y10712D01*
X17801Y10816D01*
X17444Y10929D01*
X17091Y11051D01*
X16740Y11181D01*
X16393Y11320D01*
X16049Y11467D01*
X15709Y11623D01*
X15373Y11787D01*
X15041Y11960D01*
X14713Y12140D01*
X14390Y12328D01*
X14072Y12524D01*
X13758Y12728D01*
X13450Y12940D01*
X13147Y13159D01*
X12849Y13386D01*
X12557Y13619D01*
X12271Y13860D01*
X11990Y14108D01*
X11716Y14362D01*
X11449Y14624D01*
X11187Y14891D01*
X10933Y15165D01*
X10685Y15446D01*
X10444Y15732D01*
X10211Y16024D01*
X9984Y16322D01*
X9765Y16625D01*
X9553Y16933D01*
X9349Y17247D01*
X9153Y17565D01*
X8965Y17888D01*
X8785Y18216D01*
X8612Y18548D01*
X8448Y18884D01*
X8292Y19224D01*
X8145Y19568D01*
X8006Y19915D01*
X7876Y20266D01*
X7754Y20619D01*
X7641Y20976D01*
X7537Y21335D01*
X7442Y21697D01*
X7355Y22061D01*
X7278Y22427D01*
X7209Y22795D01*
X7150Y23164D01*
X7100Y23534D01*
X7058Y23906D01*
X7026Y24279D01*
X7003Y24652D01*
X6990Y25026D01*
X6985Y25400D01*
X1361675Y49050D02*
X1361677Y49163D01*
X1361683Y49277D01*
X1361693Y49390D01*
X1361707Y49502D01*
X1361724Y49614D01*
X1361746Y49726D01*
X1361772Y49836D01*
X1361801Y49946D01*
X1361834Y50054D01*
X1361871Y50162D01*
X1361912Y50267D01*
X1361956Y50372D01*
X1362004Y50475D01*
X1362055Y50576D01*
X1362110Y50675D01*
X1362169Y50772D01*
X1362231Y50867D01*
X1362296Y50960D01*
X1362364Y51051D01*
X1362435Y51139D01*
X1362510Y51225D01*
X1362587Y51308D01*
X1362667Y51388D01*
X1362750Y51465D01*
X1362836Y51540D01*
X1362924Y51611D01*
X1363015Y51679D01*
X1363108Y51744D01*
X1363203Y51806D01*
X1363300Y51865D01*
X1363399Y51920D01*
X1363500Y51971D01*
X1363603Y52019D01*
X1363708Y52063D01*
X1363813Y52104D01*
X1363921Y52141D01*
X1364029Y52174D01*
X1364139Y52203D01*
X1364249Y52229D01*
X1364361Y52251D01*
X1364473Y52268D01*
X1364585Y52282D01*
X1364698Y52292D01*
X1364812Y52298D01*
X1364925Y52300D01*
X1365038Y52298D01*
X1365152Y52292D01*
X1365265Y52282D01*
X1365377Y52268D01*
X1365489Y52251D01*
X1365601Y52229D01*
X1365711Y52203D01*
X1365821Y52174D01*
X1365929Y52141D01*
X1366037Y52104D01*
X1366142Y52063D01*
X1366247Y52019D01*
X1366350Y51971D01*
X1366451Y51920D01*
X1366550Y51865D01*
X1366647Y51806D01*
X1366742Y51744D01*
X1366835Y51679D01*
X1366926Y51611D01*
X1367014Y51540D01*
X1367100Y51465D01*
X1367183Y51388D01*
X1367263Y51308D01*
X1367340Y51225D01*
X1367415Y51139D01*
X1367486Y51051D01*
X1367554Y50960D01*
X1367619Y50867D01*
X1367681Y50772D01*
X1367740Y50675D01*
X1367795Y50576D01*
X1367846Y50475D01*
X1367894Y50372D01*
X1367938Y50267D01*
X1367979Y50162D01*
X1368016Y50054D01*
X1368049Y49946D01*
X1368078Y49836D01*
X1368104Y49726D01*
X1368126Y49614D01*
X1368143Y49502D01*
X1368157Y49390D01*
X1368167Y49277D01*
X1368173Y49163D01*
X1368175Y49050D01*
X1368173Y48937D01*
X1368167Y48823D01*
X1368157Y48710D01*
X1368143Y48598D01*
X1368126Y48486D01*
X1368104Y48374D01*
X1368078Y48264D01*
X1368049Y48154D01*
X1368016Y48046D01*
X1367979Y47938D01*
X1367938Y47833D01*
X1367894Y47728D01*
X1367846Y47625D01*
X1367795Y47524D01*
X1367740Y47425D01*
X1367681Y47328D01*
X1367619Y47233D01*
X1367554Y47140D01*
X1367486Y47049D01*
X1367415Y46961D01*
X1367340Y46875D01*
X1367263Y46792D01*
X1367183Y46712D01*
X1367100Y46635D01*
X1367014Y46560D01*
X1366926Y46489D01*
X1366835Y46421D01*
X1366742Y46356D01*
X1366647Y46294D01*
X1366550Y46235D01*
X1366451Y46180D01*
X1366350Y46129D01*
X1366247Y46081D01*
X1366142Y46037D01*
X1366037Y45996D01*
X1365929Y45959D01*
X1365821Y45926D01*
X1365711Y45897D01*
X1365601Y45871D01*
X1365489Y45849D01*
X1365377Y45832D01*
X1365265Y45818D01*
X1365152Y45808D01*
X1365038Y45802D01*
X1364925Y45800D01*
X1364812Y45802D01*
X1364698Y45808D01*
X1364585Y45818D01*
X1364473Y45832D01*
X1364361Y45849D01*
X1364249Y45871D01*
X1364139Y45897D01*
X1364029Y45926D01*
X1363921Y45959D01*
X1363813Y45996D01*
X1363708Y46037D01*
X1363603Y46081D01*
X1363500Y46129D01*
X1363399Y46180D01*
X1363300Y46235D01*
X1363203Y46294D01*
X1363108Y46356D01*
X1363015Y46421D01*
X1362924Y46489D01*
X1362836Y46560D01*
X1362750Y46635D01*
X1362667Y46712D01*
X1362587Y46792D01*
X1362510Y46875D01*
X1362435Y46961D01*
X1362364Y47049D01*
X1362296Y47140D01*
X1362231Y47233D01*
X1362169Y47328D01*
X1362110Y47425D01*
X1362055Y47524D01*
X1362004Y47625D01*
X1361956Y47728D01*
X1361912Y47833D01*
X1361871Y47938D01*
X1361834Y48046D01*
X1361801Y48154D01*
X1361772Y48264D01*
X1361746Y48374D01*
X1361724Y48486D01*
X1361707Y48598D01*
X1361693Y48710D01*
X1361683Y48823D01*
X1361677Y48937D01*
X1361675Y49050D01*
X1419475Y49050D02*
X1419477Y49163D01*
X1419483Y49277D01*
X1419493Y49390D01*
X1419507Y49502D01*
X1419524Y49614D01*
X1419546Y49726D01*
X1419572Y49836D01*
X1419601Y49946D01*
X1419634Y50054D01*
X1419671Y50162D01*
X1419712Y50267D01*
X1419756Y50372D01*
X1419804Y50475D01*
X1419855Y50576D01*
X1419910Y50675D01*
X1419969Y50772D01*
X1420031Y50867D01*
X1420096Y50960D01*
X1420164Y51051D01*
X1420235Y51139D01*
X1420310Y51225D01*
X1420387Y51308D01*
X1420467Y51388D01*
X1420550Y51465D01*
X1420636Y51540D01*
X1420724Y51611D01*
X1420815Y51679D01*
X1420908Y51744D01*
X1421003Y51806D01*
X1421100Y51865D01*
X1421199Y51920D01*
X1421300Y51971D01*
X1421403Y52019D01*
X1421508Y52063D01*
X1421613Y52104D01*
X1421721Y52141D01*
X1421829Y52174D01*
X1421939Y52203D01*
X1422049Y52229D01*
X1422161Y52251D01*
X1422273Y52268D01*
X1422385Y52282D01*
X1422498Y52292D01*
X1422612Y52298D01*
X1422725Y52300D01*
X1422838Y52298D01*
X1422952Y52292D01*
X1423065Y52282D01*
X1423177Y52268D01*
X1423289Y52251D01*
X1423401Y52229D01*
X1423511Y52203D01*
X1423621Y52174D01*
X1423729Y52141D01*
X1423837Y52104D01*
X1423942Y52063D01*
X1424047Y52019D01*
X1424150Y51971D01*
X1424251Y51920D01*
X1424350Y51865D01*
X1424447Y51806D01*
X1424542Y51744D01*
X1424635Y51679D01*
X1424726Y51611D01*
X1424814Y51540D01*
X1424900Y51465D01*
X1424983Y51388D01*
X1425063Y51308D01*
X1425140Y51225D01*
X1425215Y51139D01*
X1425286Y51051D01*
X1425354Y50960D01*
X1425419Y50867D01*
X1425481Y50772D01*
X1425540Y50675D01*
X1425595Y50576D01*
X1425646Y50475D01*
X1425694Y50372D01*
X1425738Y50267D01*
X1425779Y50162D01*
X1425816Y50054D01*
X1425849Y49946D01*
X1425878Y49836D01*
X1425904Y49726D01*
X1425926Y49614D01*
X1425943Y49502D01*
X1425957Y49390D01*
X1425967Y49277D01*
X1425973Y49163D01*
X1425975Y49050D01*
X1425973Y48937D01*
X1425967Y48823D01*
X1425957Y48710D01*
X1425943Y48598D01*
X1425926Y48486D01*
X1425904Y48374D01*
X1425878Y48264D01*
X1425849Y48154D01*
X1425816Y48046D01*
X1425779Y47938D01*
X1425738Y47833D01*
X1425694Y47728D01*
X1425646Y47625D01*
X1425595Y47524D01*
X1425540Y47425D01*
X1425481Y47328D01*
X1425419Y47233D01*
X1425354Y47140D01*
X1425286Y47049D01*
X1425215Y46961D01*
X1425140Y46875D01*
X1425063Y46792D01*
X1424983Y46712D01*
X1424900Y46635D01*
X1424814Y46560D01*
X1424726Y46489D01*
X1424635Y46421D01*
X1424542Y46356D01*
X1424447Y46294D01*
X1424350Y46235D01*
X1424251Y46180D01*
X1424150Y46129D01*
X1424047Y46081D01*
X1423942Y46037D01*
X1423837Y45996D01*
X1423729Y45959D01*
X1423621Y45926D01*
X1423511Y45897D01*
X1423401Y45871D01*
X1423289Y45849D01*
X1423177Y45832D01*
X1423065Y45818D01*
X1422952Y45808D01*
X1422838Y45802D01*
X1422725Y45800D01*
X1422612Y45802D01*
X1422498Y45808D01*
X1422385Y45818D01*
X1422273Y45832D01*
X1422161Y45849D01*
X1422049Y45871D01*
X1421939Y45897D01*
X1421829Y45926D01*
X1421721Y45959D01*
X1421613Y45996D01*
X1421508Y46037D01*
X1421403Y46081D01*
X1421300Y46129D01*
X1421199Y46180D01*
X1421100Y46235D01*
X1421003Y46294D01*
X1420908Y46356D01*
X1420815Y46421D01*
X1420724Y46489D01*
X1420636Y46560D01*
X1420550Y46635D01*
X1420467Y46712D01*
X1420387Y46792D01*
X1420310Y46875D01*
X1420235Y46961D01*
X1420164Y47049D01*
X1420096Y47140D01*
X1420031Y47233D01*
X1419969Y47328D01*
X1419910Y47425D01*
X1419855Y47524D01*
X1419804Y47625D01*
X1419756Y47728D01*
X1419712Y47833D01*
X1419671Y47938D01*
X1419634Y48046D01*
X1419601Y48154D01*
X1419572Y48264D01*
X1419546Y48374D01*
X1419524Y48486D01*
X1419507Y48598D01*
X1419493Y48710D01*
X1419483Y48823D01*
X1419477Y48937D01*
X1419475Y49050D01*
D16*
X1350645Y48850D02*
X1350645Y59850D01*
X1437005Y59850D02*
X1437005Y48850D01*
X1350645Y15700D02*
X1350645Y9500D01*
X1437005Y9500D02*
X1437005Y15700D01*
D15*
X190125Y922020D02*
X190130Y922419D01*
X190145Y922817D01*
X190169Y923215D01*
X190203Y923613D01*
X190247Y924009D01*
X190301Y924404D01*
X190364Y924798D01*
X190437Y925190D01*
X190520Y925580D01*
X190612Y925968D01*
X190714Y926354D01*
X190825Y926737D01*
X190945Y927117D01*
X191075Y927494D01*
X191214Y927868D01*
X191362Y928239D01*
X191519Y928605D01*
X191685Y928968D01*
X191860Y929326D01*
X192044Y929680D01*
X192236Y930030D01*
X192437Y930374D01*
X192646Y930714D01*
X192864Y931048D01*
X193089Y931377D01*
X193323Y931700D01*
X193564Y932018D01*
X193814Y932329D01*
X194070Y932634D01*
X194335Y932933D01*
X194606Y933225D01*
X194885Y933510D01*
X195170Y933789D01*
X195462Y934060D01*
X195761Y934325D01*
X196066Y934581D01*
X196377Y934831D01*
X196695Y935072D01*
X197018Y935306D01*
X197347Y935531D01*
X197681Y935749D01*
X198021Y935958D01*
X198365Y936159D01*
X198715Y936351D01*
X199069Y936535D01*
X199427Y936710D01*
X199790Y936876D01*
X200156Y937033D01*
X200527Y937181D01*
X200901Y937320D01*
X201278Y937450D01*
X201658Y937570D01*
X202041Y937681D01*
X202427Y937783D01*
X202815Y937875D01*
X203205Y937958D01*
X203597Y938031D01*
X203991Y938094D01*
X204386Y938148D01*
X204782Y938192D01*
X205180Y938226D01*
X205578Y938250D01*
X205976Y938265D01*
X206375Y938270D01*
X206774Y938265D01*
X207172Y938250D01*
X207570Y938226D01*
X207968Y938192D01*
X208364Y938148D01*
X208759Y938094D01*
X209153Y938031D01*
X209545Y937958D01*
X209935Y937875D01*
X210323Y937783D01*
X210709Y937681D01*
X211092Y937570D01*
X211472Y937450D01*
X211849Y937320D01*
X212223Y937181D01*
X212594Y937033D01*
X212960Y936876D01*
X213323Y936710D01*
X213681Y936535D01*
X214035Y936351D01*
X214385Y936159D01*
X214729Y935958D01*
X215069Y935749D01*
X215403Y935531D01*
X215732Y935306D01*
X216055Y935072D01*
X216373Y934831D01*
X216684Y934581D01*
X216989Y934325D01*
X217288Y934060D01*
X217580Y933789D01*
X217865Y933510D01*
X218144Y933225D01*
X218415Y932933D01*
X218680Y932634D01*
X218936Y932329D01*
X219186Y932018D01*
X219427Y931700D01*
X219661Y931377D01*
X219886Y931048D01*
X220104Y930714D01*
X220313Y930374D01*
X220514Y930030D01*
X220706Y929680D01*
X220890Y929326D01*
X221065Y928968D01*
X221231Y928605D01*
X221388Y928239D01*
X221536Y927868D01*
X221675Y927494D01*
X221805Y927117D01*
X221925Y926737D01*
X222036Y926354D01*
X222138Y925968D01*
X222230Y925580D01*
X222313Y925190D01*
X222386Y924798D01*
X222449Y924404D01*
X222503Y924009D01*
X222547Y923613D01*
X222581Y923215D01*
X222605Y922817D01*
X222620Y922419D01*
X222625Y922020D01*
X222620Y921621D01*
X222605Y921223D01*
X222581Y920825D01*
X222547Y920427D01*
X222503Y920031D01*
X222449Y919636D01*
X222386Y919242D01*
X222313Y918850D01*
X222230Y918460D01*
X222138Y918072D01*
X222036Y917686D01*
X221925Y917303D01*
X221805Y916923D01*
X221675Y916546D01*
X221536Y916172D01*
X221388Y915801D01*
X221231Y915435D01*
X221065Y915072D01*
X220890Y914714D01*
X220706Y914360D01*
X220514Y914010D01*
X220313Y913666D01*
X220104Y913326D01*
X219886Y912992D01*
X219661Y912663D01*
X219427Y912340D01*
X219186Y912022D01*
X218936Y911711D01*
X218680Y911406D01*
X218415Y911107D01*
X218144Y910815D01*
X217865Y910530D01*
X217580Y910251D01*
X217288Y909980D01*
X216989Y909715D01*
X216684Y909459D01*
X216373Y909209D01*
X216055Y908968D01*
X215732Y908734D01*
X215403Y908509D01*
X215069Y908291D01*
X214729Y908082D01*
X214385Y907881D01*
X214035Y907689D01*
X213681Y907505D01*
X213323Y907330D01*
X212960Y907164D01*
X212594Y907007D01*
X212223Y906859D01*
X211849Y906720D01*
X211472Y906590D01*
X211092Y906470D01*
X210709Y906359D01*
X210323Y906257D01*
X209935Y906165D01*
X209545Y906082D01*
X209153Y906009D01*
X208759Y905946D01*
X208364Y905892D01*
X207968Y905848D01*
X207570Y905814D01*
X207172Y905790D01*
X206774Y905775D01*
X206375Y905770D01*
X205976Y905775D01*
X205578Y905790D01*
X205180Y905814D01*
X204782Y905848D01*
X204386Y905892D01*
X203991Y905946D01*
X203597Y906009D01*
X203205Y906082D01*
X202815Y906165D01*
X202427Y906257D01*
X202041Y906359D01*
X201658Y906470D01*
X201278Y906590D01*
X200901Y906720D01*
X200527Y906859D01*
X200156Y907007D01*
X199790Y907164D01*
X199427Y907330D01*
X199069Y907505D01*
X198715Y907689D01*
X198365Y907881D01*
X198021Y908082D01*
X197681Y908291D01*
X197347Y908509D01*
X197018Y908734D01*
X196695Y908968D01*
X196377Y909209D01*
X196066Y909459D01*
X195761Y909715D01*
X195462Y909980D01*
X195170Y910251D01*
X194885Y910530D01*
X194606Y910815D01*
X194335Y911107D01*
X194070Y911406D01*
X193814Y911711D01*
X193564Y912022D01*
X193323Y912340D01*
X193089Y912663D01*
X192864Y912992D01*
X192646Y913326D01*
X192437Y913666D01*
X192236Y914010D01*
X192044Y914360D01*
X191860Y914714D01*
X191685Y915072D01*
X191519Y915435D01*
X191362Y915801D01*
X191214Y916172D01*
X191075Y916546D01*
X190945Y916923D01*
X190825Y917303D01*
X190714Y917686D01*
X190612Y918072D01*
X190520Y918460D01*
X190437Y918850D01*
X190364Y919242D01*
X190301Y919636D01*
X190247Y920031D01*
X190203Y920427D01*
X190169Y920825D01*
X190145Y921223D01*
X190130Y921621D01*
X190125Y922020D01*
X75825Y922020D02*
X75830Y922419D01*
X75845Y922817D01*
X75869Y923215D01*
X75903Y923613D01*
X75947Y924009D01*
X76001Y924404D01*
X76064Y924798D01*
X76137Y925190D01*
X76220Y925580D01*
X76312Y925968D01*
X76414Y926354D01*
X76525Y926737D01*
X76645Y927117D01*
X76775Y927494D01*
X76914Y927868D01*
X77062Y928239D01*
X77219Y928605D01*
X77385Y928968D01*
X77560Y929326D01*
X77744Y929680D01*
X77936Y930030D01*
X78137Y930374D01*
X78346Y930714D01*
X78564Y931048D01*
X78789Y931377D01*
X79023Y931700D01*
X79264Y932018D01*
X79514Y932329D01*
X79770Y932634D01*
X80035Y932933D01*
X80306Y933225D01*
X80585Y933510D01*
X80870Y933789D01*
X81162Y934060D01*
X81461Y934325D01*
X81766Y934581D01*
X82077Y934831D01*
X82395Y935072D01*
X82718Y935306D01*
X83047Y935531D01*
X83381Y935749D01*
X83721Y935958D01*
X84065Y936159D01*
X84415Y936351D01*
X84769Y936535D01*
X85127Y936710D01*
X85490Y936876D01*
X85856Y937033D01*
X86227Y937181D01*
X86601Y937320D01*
X86978Y937450D01*
X87358Y937570D01*
X87741Y937681D01*
X88127Y937783D01*
X88515Y937875D01*
X88905Y937958D01*
X89297Y938031D01*
X89691Y938094D01*
X90086Y938148D01*
X90482Y938192D01*
X90880Y938226D01*
X91278Y938250D01*
X91676Y938265D01*
X92075Y938270D01*
X92474Y938265D01*
X92872Y938250D01*
X93270Y938226D01*
X93668Y938192D01*
X94064Y938148D01*
X94459Y938094D01*
X94853Y938031D01*
X95245Y937958D01*
X95635Y937875D01*
X96023Y937783D01*
X96409Y937681D01*
X96792Y937570D01*
X97172Y937450D01*
X97549Y937320D01*
X97923Y937181D01*
X98294Y937033D01*
X98660Y936876D01*
X99023Y936710D01*
X99381Y936535D01*
X99735Y936351D01*
X100085Y936159D01*
X100429Y935958D01*
X100769Y935749D01*
X101103Y935531D01*
X101432Y935306D01*
X101755Y935072D01*
X102073Y934831D01*
X102384Y934581D01*
X102689Y934325D01*
X102988Y934060D01*
X103280Y933789D01*
X103565Y933510D01*
X103844Y933225D01*
X104115Y932933D01*
X104380Y932634D01*
X104636Y932329D01*
X104886Y932018D01*
X105127Y931700D01*
X105361Y931377D01*
X105586Y931048D01*
X105804Y930714D01*
X106013Y930374D01*
X106214Y930030D01*
X106406Y929680D01*
X106590Y929326D01*
X106765Y928968D01*
X106931Y928605D01*
X107088Y928239D01*
X107236Y927868D01*
X107375Y927494D01*
X107505Y927117D01*
X107625Y926737D01*
X107736Y926354D01*
X107838Y925968D01*
X107930Y925580D01*
X108013Y925190D01*
X108086Y924798D01*
X108149Y924404D01*
X108203Y924009D01*
X108247Y923613D01*
X108281Y923215D01*
X108305Y922817D01*
X108320Y922419D01*
X108325Y922020D01*
X108320Y921621D01*
X108305Y921223D01*
X108281Y920825D01*
X108247Y920427D01*
X108203Y920031D01*
X108149Y919636D01*
X108086Y919242D01*
X108013Y918850D01*
X107930Y918460D01*
X107838Y918072D01*
X107736Y917686D01*
X107625Y917303D01*
X107505Y916923D01*
X107375Y916546D01*
X107236Y916172D01*
X107088Y915801D01*
X106931Y915435D01*
X106765Y915072D01*
X106590Y914714D01*
X106406Y914360D01*
X106214Y914010D01*
X106013Y913666D01*
X105804Y913326D01*
X105586Y912992D01*
X105361Y912663D01*
X105127Y912340D01*
X104886Y912022D01*
X104636Y911711D01*
X104380Y911406D01*
X104115Y911107D01*
X103844Y910815D01*
X103565Y910530D01*
X103280Y910251D01*
X102988Y909980D01*
X102689Y909715D01*
X102384Y909459D01*
X102073Y909209D01*
X101755Y908968D01*
X101432Y908734D01*
X101103Y908509D01*
X100769Y908291D01*
X100429Y908082D01*
X100085Y907881D01*
X99735Y907689D01*
X99381Y907505D01*
X99023Y907330D01*
X98660Y907164D01*
X98294Y907007D01*
X97923Y906859D01*
X97549Y906720D01*
X97172Y906590D01*
X96792Y906470D01*
X96409Y906359D01*
X96023Y906257D01*
X95635Y906165D01*
X95245Y906082D01*
X94853Y906009D01*
X94459Y905946D01*
X94064Y905892D01*
X93668Y905848D01*
X93270Y905814D01*
X92872Y905790D01*
X92474Y905775D01*
X92075Y905770D01*
X91676Y905775D01*
X91278Y905790D01*
X90880Y905814D01*
X90482Y905848D01*
X90086Y905892D01*
X89691Y905946D01*
X89297Y906009D01*
X88905Y906082D01*
X88515Y906165D01*
X88127Y906257D01*
X87741Y906359D01*
X87358Y906470D01*
X86978Y906590D01*
X86601Y906720D01*
X86227Y906859D01*
X85856Y907007D01*
X85490Y907164D01*
X85127Y907330D01*
X84769Y907505D01*
X84415Y907689D01*
X84065Y907881D01*
X83721Y908082D01*
X83381Y908291D01*
X83047Y908509D01*
X82718Y908734D01*
X82395Y908968D01*
X82077Y909209D01*
X81766Y909459D01*
X81461Y909715D01*
X81162Y909980D01*
X80870Y910251D01*
X80585Y910530D01*
X80306Y910815D01*
X80035Y911107D01*
X79770Y911406D01*
X79514Y911711D01*
X79264Y912022D01*
X79023Y912340D01*
X78789Y912663D01*
X78564Y912992D01*
X78346Y913326D01*
X78137Y913666D01*
X77936Y914010D01*
X77744Y914360D01*
X77560Y914714D01*
X77385Y915072D01*
X77219Y915435D01*
X77062Y915801D01*
X76914Y916172D01*
X76775Y916546D01*
X76645Y916923D01*
X76525Y917303D01*
X76414Y917686D01*
X76312Y918072D01*
X76220Y918460D01*
X76137Y918850D01*
X76064Y919242D01*
X76001Y919636D01*
X75947Y920031D01*
X75903Y920427D01*
X75869Y920825D01*
X75845Y921223D01*
X75830Y921621D01*
X75825Y922020D01*
X635635Y101600D02*
X635640Y101974D01*
X635653Y102348D01*
X635676Y102721D01*
X635708Y103094D01*
X635750Y103466D01*
X635800Y103836D01*
X635859Y104205D01*
X635928Y104573D01*
X636005Y104939D01*
X636092Y105303D01*
X636187Y105665D01*
X636291Y106024D01*
X636404Y106381D01*
X636526Y106734D01*
X636656Y107085D01*
X636795Y107432D01*
X636942Y107776D01*
X637098Y108116D01*
X637262Y108452D01*
X637435Y108784D01*
X637615Y109112D01*
X637803Y109435D01*
X637999Y109753D01*
X638203Y110067D01*
X638415Y110375D01*
X638634Y110678D01*
X638861Y110976D01*
X639094Y111268D01*
X639335Y111554D01*
X639583Y111835D01*
X639837Y112109D01*
X640099Y112376D01*
X640366Y112638D01*
X640640Y112892D01*
X640921Y113140D01*
X641207Y113381D01*
X641499Y113614D01*
X641797Y113841D01*
X642100Y114060D01*
X642408Y114272D01*
X642722Y114476D01*
X643040Y114672D01*
X643363Y114860D01*
X643691Y115040D01*
X644023Y115213D01*
X644359Y115377D01*
X644699Y115533D01*
X645043Y115680D01*
X645390Y115819D01*
X645741Y115949D01*
X646094Y116071D01*
X646451Y116184D01*
X646810Y116288D01*
X647172Y116383D01*
X647536Y116470D01*
X647902Y116547D01*
X648270Y116616D01*
X648639Y116675D01*
X649009Y116725D01*
X649381Y116767D01*
X649754Y116799D01*
X650127Y116822D01*
X650501Y116835D01*
X650875Y116840D01*
X651249Y116835D01*
X651623Y116822D01*
X651996Y116799D01*
X652369Y116767D01*
X652741Y116725D01*
X653111Y116675D01*
X653480Y116616D01*
X653848Y116547D01*
X654214Y116470D01*
X654578Y116383D01*
X654940Y116288D01*
X655299Y116184D01*
X655656Y116071D01*
X656009Y115949D01*
X656360Y115819D01*
X656707Y115680D01*
X657051Y115533D01*
X657391Y115377D01*
X657727Y115213D01*
X658059Y115040D01*
X658387Y114860D01*
X658710Y114672D01*
X659028Y114476D01*
X659342Y114272D01*
X659650Y114060D01*
X659953Y113841D01*
X660251Y113614D01*
X660543Y113381D01*
X660829Y113140D01*
X661110Y112892D01*
X661384Y112638D01*
X661651Y112376D01*
X661913Y112109D01*
X662167Y111835D01*
X662415Y111554D01*
X662656Y111268D01*
X662889Y110976D01*
X663116Y110678D01*
X663335Y110375D01*
X663547Y110067D01*
X663751Y109753D01*
X663947Y109435D01*
X664135Y109112D01*
X664315Y108784D01*
X664488Y108452D01*
X664652Y108116D01*
X664808Y107776D01*
X664955Y107432D01*
X665094Y107085D01*
X665224Y106734D01*
X665346Y106381D01*
X665459Y106024D01*
X665563Y105665D01*
X665658Y105303D01*
X665745Y104939D01*
X665822Y104573D01*
X665891Y104205D01*
X665950Y103836D01*
X666000Y103466D01*
X666042Y103094D01*
X666074Y102721D01*
X666097Y102348D01*
X666110Y101974D01*
X666115Y101600D01*
X666110Y101226D01*
X666097Y100852D01*
X666074Y100479D01*
X666042Y100106D01*
X666000Y99734D01*
X665950Y99364D01*
X665891Y98995D01*
X665822Y98627D01*
X665745Y98261D01*
X665658Y97897D01*
X665563Y97535D01*
X665459Y97176D01*
X665346Y96819D01*
X665224Y96466D01*
X665094Y96115D01*
X664955Y95768D01*
X664808Y95424D01*
X664652Y95084D01*
X664488Y94748D01*
X664315Y94416D01*
X664135Y94088D01*
X663947Y93765D01*
X663751Y93447D01*
X663547Y93133D01*
X663335Y92825D01*
X663116Y92522D01*
X662889Y92224D01*
X662656Y91932D01*
X662415Y91646D01*
X662167Y91365D01*
X661913Y91091D01*
X661651Y90824D01*
X661384Y90562D01*
X661110Y90308D01*
X660829Y90060D01*
X660543Y89819D01*
X660251Y89586D01*
X659953Y89359D01*
X659650Y89140D01*
X659342Y88928D01*
X659028Y88724D01*
X658710Y88528D01*
X658387Y88340D01*
X658059Y88160D01*
X657727Y87987D01*
X657391Y87823D01*
X657051Y87667D01*
X656707Y87520D01*
X656360Y87381D01*
X656009Y87251D01*
X655656Y87129D01*
X655299Y87016D01*
X654940Y86912D01*
X654578Y86817D01*
X654214Y86730D01*
X653848Y86653D01*
X653480Y86584D01*
X653111Y86525D01*
X652741Y86475D01*
X652369Y86433D01*
X651996Y86401D01*
X651623Y86378D01*
X651249Y86365D01*
X650875Y86360D01*
X650501Y86365D01*
X650127Y86378D01*
X649754Y86401D01*
X649381Y86433D01*
X649009Y86475D01*
X648639Y86525D01*
X648270Y86584D01*
X647902Y86653D01*
X647536Y86730D01*
X647172Y86817D01*
X646810Y86912D01*
X646451Y87016D01*
X646094Y87129D01*
X645741Y87251D01*
X645390Y87381D01*
X645043Y87520D01*
X644699Y87667D01*
X644359Y87823D01*
X644023Y87987D01*
X643691Y88160D01*
X643363Y88340D01*
X643040Y88528D01*
X642722Y88724D01*
X642408Y88928D01*
X642100Y89140D01*
X641797Y89359D01*
X641499Y89586D01*
X641207Y89819D01*
X640921Y90060D01*
X640640Y90308D01*
X640366Y90562D01*
X640099Y90824D01*
X639837Y91091D01*
X639583Y91365D01*
X639335Y91646D01*
X639094Y91932D01*
X638861Y92224D01*
X638634Y92522D01*
X638415Y92825D01*
X638203Y93133D01*
X637999Y93447D01*
X637803Y93765D01*
X637615Y94088D01*
X637435Y94416D01*
X637262Y94748D01*
X637098Y95084D01*
X636942Y95424D01*
X636795Y95768D01*
X636656Y96115D01*
X636526Y96466D01*
X636404Y96819D01*
X636291Y97176D01*
X636187Y97535D01*
X636092Y97897D01*
X636005Y98261D01*
X635928Y98627D01*
X635859Y98995D01*
X635800Y99364D01*
X635750Y99734D01*
X635708Y100106D01*
X635676Y100479D01*
X635653Y100852D01*
X635640Y101226D01*
X635635Y101600D01*
X851535Y101600D02*
X851540Y101974D01*
X851553Y102348D01*
X851576Y102721D01*
X851608Y103094D01*
X851650Y103466D01*
X851700Y103836D01*
X851759Y104205D01*
X851828Y104573D01*
X851905Y104939D01*
X851992Y105303D01*
X852087Y105665D01*
X852191Y106024D01*
X852304Y106381D01*
X852426Y106734D01*
X852556Y107085D01*
X852695Y107432D01*
X852842Y107776D01*
X852998Y108116D01*
X853162Y108452D01*
X853335Y108784D01*
X853515Y109112D01*
X853703Y109435D01*
X853899Y109753D01*
X854103Y110067D01*
X854315Y110375D01*
X854534Y110678D01*
X854761Y110976D01*
X854994Y111268D01*
X855235Y111554D01*
X855483Y111835D01*
X855737Y112109D01*
X855999Y112376D01*
X856266Y112638D01*
X856540Y112892D01*
X856821Y113140D01*
X857107Y113381D01*
X857399Y113614D01*
X857697Y113841D01*
X858000Y114060D01*
X858308Y114272D01*
X858622Y114476D01*
X858940Y114672D01*
X859263Y114860D01*
X859591Y115040D01*
X859923Y115213D01*
X860259Y115377D01*
X860599Y115533D01*
X860943Y115680D01*
X861290Y115819D01*
X861641Y115949D01*
X861994Y116071D01*
X862351Y116184D01*
X862710Y116288D01*
X863072Y116383D01*
X863436Y116470D01*
X863802Y116547D01*
X864170Y116616D01*
X864539Y116675D01*
X864909Y116725D01*
X865281Y116767D01*
X865654Y116799D01*
X866027Y116822D01*
X866401Y116835D01*
X866775Y116840D01*
X867149Y116835D01*
X867523Y116822D01*
X867896Y116799D01*
X868269Y116767D01*
X868641Y116725D01*
X869011Y116675D01*
X869380Y116616D01*
X869748Y116547D01*
X870114Y116470D01*
X870478Y116383D01*
X870840Y116288D01*
X871199Y116184D01*
X871556Y116071D01*
X871909Y115949D01*
X872260Y115819D01*
X872607Y115680D01*
X872951Y115533D01*
X873291Y115377D01*
X873627Y115213D01*
X873959Y115040D01*
X874287Y114860D01*
X874610Y114672D01*
X874928Y114476D01*
X875242Y114272D01*
X875550Y114060D01*
X875853Y113841D01*
X876151Y113614D01*
X876443Y113381D01*
X876729Y113140D01*
X877010Y112892D01*
X877284Y112638D01*
X877551Y112376D01*
X877813Y112109D01*
X878067Y111835D01*
X878315Y111554D01*
X878556Y111268D01*
X878789Y110976D01*
X879016Y110678D01*
X879235Y110375D01*
X879447Y110067D01*
X879651Y109753D01*
X879847Y109435D01*
X880035Y109112D01*
X880215Y108784D01*
X880388Y108452D01*
X880552Y108116D01*
X880708Y107776D01*
X880855Y107432D01*
X880994Y107085D01*
X881124Y106734D01*
X881246Y106381D01*
X881359Y106024D01*
X881463Y105665D01*
X881558Y105303D01*
X881645Y104939D01*
X881722Y104573D01*
X881791Y104205D01*
X881850Y103836D01*
X881900Y103466D01*
X881942Y103094D01*
X881974Y102721D01*
X881997Y102348D01*
X882010Y101974D01*
X882015Y101600D01*
X882010Y101226D01*
X881997Y100852D01*
X881974Y100479D01*
X881942Y100106D01*
X881900Y99734D01*
X881850Y99364D01*
X881791Y98995D01*
X881722Y98627D01*
X881645Y98261D01*
X881558Y97897D01*
X881463Y97535D01*
X881359Y97176D01*
X881246Y96819D01*
X881124Y96466D01*
X880994Y96115D01*
X880855Y95768D01*
X880708Y95424D01*
X880552Y95084D01*
X880388Y94748D01*
X880215Y94416D01*
X880035Y94088D01*
X879847Y93765D01*
X879651Y93447D01*
X879447Y93133D01*
X879235Y92825D01*
X879016Y92522D01*
X878789Y92224D01*
X878556Y91932D01*
X878315Y91646D01*
X878067Y91365D01*
X877813Y91091D01*
X877551Y90824D01*
X877284Y90562D01*
X877010Y90308D01*
X876729Y90060D01*
X876443Y89819D01*
X876151Y89586D01*
X875853Y89359D01*
X875550Y89140D01*
X875242Y88928D01*
X874928Y88724D01*
X874610Y88528D01*
X874287Y88340D01*
X873959Y88160D01*
X873627Y87987D01*
X873291Y87823D01*
X872951Y87667D01*
X872607Y87520D01*
X872260Y87381D01*
X871909Y87251D01*
X871556Y87129D01*
X871199Y87016D01*
X870840Y86912D01*
X870478Y86817D01*
X870114Y86730D01*
X869748Y86653D01*
X869380Y86584D01*
X869011Y86525D01*
X868641Y86475D01*
X868269Y86433D01*
X867896Y86401D01*
X867523Y86378D01*
X867149Y86365D01*
X866775Y86360D01*
X866401Y86365D01*
X866027Y86378D01*
X865654Y86401D01*
X865281Y86433D01*
X864909Y86475D01*
X864539Y86525D01*
X864170Y86584D01*
X863802Y86653D01*
X863436Y86730D01*
X863072Y86817D01*
X862710Y86912D01*
X862351Y87016D01*
X861994Y87129D01*
X861641Y87251D01*
X861290Y87381D01*
X860943Y87520D01*
X860599Y87667D01*
X860259Y87823D01*
X859923Y87987D01*
X859591Y88160D01*
X859263Y88340D01*
X858940Y88528D01*
X858622Y88724D01*
X858308Y88928D01*
X858000Y89140D01*
X857697Y89359D01*
X857399Y89586D01*
X857107Y89819D01*
X856821Y90060D01*
X856540Y90308D01*
X856266Y90562D01*
X855999Y90824D01*
X855737Y91091D01*
X855483Y91365D01*
X855235Y91646D01*
X854994Y91932D01*
X854761Y92224D01*
X854534Y92522D01*
X854315Y92825D01*
X854103Y93133D01*
X853899Y93447D01*
X853703Y93765D01*
X853515Y94088D01*
X853335Y94416D01*
X853162Y94748D01*
X852998Y95084D01*
X852842Y95424D01*
X852695Y95768D01*
X852556Y96115D01*
X852426Y96466D01*
X852304Y96819D01*
X852191Y97176D01*
X852087Y97535D01*
X851992Y97897D01*
X851905Y98261D01*
X851828Y98627D01*
X851759Y98995D01*
X851700Y99364D01*
X851650Y99734D01*
X851608Y100106D01*
X851576Y100479D01*
X851553Y100852D01*
X851540Y101226D01*
X851535Y101600D01*
X318955Y26160D02*
X318957Y26282D01*
X318963Y26404D01*
X318973Y26526D01*
X318987Y26647D01*
X319005Y26768D01*
X319026Y26888D01*
X319052Y27007D01*
X319081Y27126D01*
X319115Y27243D01*
X319152Y27359D01*
X319193Y27474D01*
X319238Y27588D01*
X319286Y27700D01*
X319338Y27811D01*
X319393Y27919D01*
X319452Y28026D01*
X319515Y28131D01*
X319581Y28234D01*
X319650Y28334D01*
X319722Y28433D01*
X319798Y28529D01*
X319876Y28622D01*
X319958Y28713D01*
X320043Y28801D01*
X320130Y28886D01*
X320220Y28968D01*
X320313Y29048D01*
X320408Y29124D01*
X320506Y29197D01*
X320606Y29267D01*
X320708Y29334D01*
X320812Y29397D01*
X320919Y29457D01*
X321027Y29514D01*
X321137Y29566D01*
X321249Y29616D01*
X321362Y29661D01*
X321477Y29703D01*
X321593Y29741D01*
X321710Y29776D01*
X321828Y29806D01*
X321947Y29833D01*
X322067Y29855D01*
X322188Y29874D01*
X322309Y29889D01*
X322431Y29900D01*
X322552Y29907D01*
X322674Y29910D01*
X322797Y29909D01*
X322919Y29904D01*
X323040Y29895D01*
X323162Y29882D01*
X323283Y29865D01*
X323403Y29844D01*
X323522Y29820D01*
X323641Y29791D01*
X323759Y29759D01*
X323875Y29723D01*
X323991Y29683D01*
X324105Y29639D01*
X324217Y29592D01*
X324328Y29541D01*
X324437Y29486D01*
X324545Y29428D01*
X324650Y29366D01*
X324753Y29301D01*
X324855Y29233D01*
X324953Y29161D01*
X325050Y29086D01*
X325144Y29009D01*
X325235Y28928D01*
X325324Y28844D01*
X325410Y28757D01*
X325493Y28668D01*
X325573Y28576D01*
X325650Y28481D01*
X325724Y28384D01*
X325795Y28284D01*
X325863Y28183D01*
X325927Y28079D01*
X325988Y27973D01*
X326045Y27865D01*
X326099Y27756D01*
X326149Y27644D01*
X326195Y27531D01*
X326238Y27417D01*
X326277Y27301D01*
X326312Y27185D01*
X326344Y27067D01*
X326371Y26948D01*
X326395Y26828D01*
X326415Y26707D01*
X326431Y26586D01*
X326443Y26465D01*
X326451Y26343D01*
X326455Y26221D01*
X326455Y26099D01*
X326451Y25977D01*
X326443Y25855D01*
X326431Y25734D01*
X326415Y25613D01*
X326395Y25492D01*
X326371Y25372D01*
X326344Y25253D01*
X326312Y25135D01*
X326277Y25019D01*
X326238Y24903D01*
X326195Y24789D01*
X326149Y24676D01*
X326099Y24564D01*
X326045Y24455D01*
X325988Y24347D01*
X325927Y24241D01*
X325863Y24137D01*
X325795Y24036D01*
X325724Y23936D01*
X325650Y23839D01*
X325573Y23744D01*
X325493Y23652D01*
X325410Y23563D01*
X325324Y23476D01*
X325235Y23392D01*
X325144Y23311D01*
X325050Y23234D01*
X324953Y23159D01*
X324855Y23087D01*
X324753Y23019D01*
X324650Y22954D01*
X324545Y22892D01*
X324437Y22834D01*
X324328Y22779D01*
X324217Y22728D01*
X324105Y22681D01*
X323991Y22637D01*
X323875Y22597D01*
X323759Y22561D01*
X323641Y22529D01*
X323522Y22500D01*
X323403Y22476D01*
X323283Y22455D01*
X323162Y22438D01*
X323040Y22425D01*
X322919Y22416D01*
X322797Y22411D01*
X322674Y22410D01*
X322552Y22413D01*
X322431Y22420D01*
X322309Y22431D01*
X322188Y22446D01*
X322067Y22465D01*
X321947Y22487D01*
X321828Y22514D01*
X321710Y22544D01*
X321593Y22579D01*
X321477Y22617D01*
X321362Y22659D01*
X321249Y22704D01*
X321137Y22754D01*
X321027Y22806D01*
X320919Y22863D01*
X320812Y22923D01*
X320708Y22986D01*
X320606Y23053D01*
X320506Y23123D01*
X320408Y23196D01*
X320313Y23272D01*
X320220Y23352D01*
X320130Y23434D01*
X320043Y23519D01*
X319958Y23607D01*
X319876Y23698D01*
X319798Y23791D01*
X319722Y23887D01*
X319650Y23986D01*
X319581Y24086D01*
X319515Y24189D01*
X319452Y24294D01*
X319393Y24401D01*
X319338Y24509D01*
X319286Y24620D01*
X319238Y24732D01*
X319193Y24846D01*
X319152Y24961D01*
X319115Y25077D01*
X319081Y25194D01*
X319052Y25313D01*
X319026Y25432D01*
X319005Y25552D01*
X318987Y25673D01*
X318973Y25794D01*
X318963Y25916D01*
X318957Y26038D01*
X318955Y26160D01*
X233955Y26160D02*
X233957Y26282D01*
X233963Y26404D01*
X233973Y26526D01*
X233987Y26647D01*
X234005Y26768D01*
X234026Y26888D01*
X234052Y27007D01*
X234081Y27126D01*
X234115Y27243D01*
X234152Y27359D01*
X234193Y27474D01*
X234238Y27588D01*
X234286Y27700D01*
X234338Y27811D01*
X234393Y27919D01*
X234452Y28026D01*
X234515Y28131D01*
X234581Y28234D01*
X234650Y28334D01*
X234722Y28433D01*
X234798Y28529D01*
X234876Y28622D01*
X234958Y28713D01*
X235043Y28801D01*
X235130Y28886D01*
X235220Y28968D01*
X235313Y29048D01*
X235408Y29124D01*
X235506Y29197D01*
X235606Y29267D01*
X235708Y29334D01*
X235812Y29397D01*
X235919Y29457D01*
X236027Y29514D01*
X236137Y29566D01*
X236249Y29616D01*
X236362Y29661D01*
X236477Y29703D01*
X236593Y29741D01*
X236710Y29776D01*
X236828Y29806D01*
X236947Y29833D01*
X237067Y29855D01*
X237188Y29874D01*
X237309Y29889D01*
X237431Y29900D01*
X237552Y29907D01*
X237674Y29910D01*
X237797Y29909D01*
X237919Y29904D01*
X238040Y29895D01*
X238162Y29882D01*
X238283Y29865D01*
X238403Y29844D01*
X238522Y29820D01*
X238641Y29791D01*
X238759Y29759D01*
X238875Y29723D01*
X238991Y29683D01*
X239105Y29639D01*
X239217Y29592D01*
X239328Y29541D01*
X239437Y29486D01*
X239545Y29428D01*
X239650Y29366D01*
X239753Y29301D01*
X239855Y29233D01*
X239953Y29161D01*
X240050Y29086D01*
X240144Y29009D01*
X240235Y28928D01*
X240324Y28844D01*
X240410Y28757D01*
X240493Y28668D01*
X240573Y28576D01*
X240650Y28481D01*
X240724Y28384D01*
X240795Y28284D01*
X240863Y28183D01*
X240927Y28079D01*
X240988Y27973D01*
X241045Y27865D01*
X241099Y27756D01*
X241149Y27644D01*
X241195Y27531D01*
X241238Y27417D01*
X241277Y27301D01*
X241312Y27185D01*
X241344Y27067D01*
X241371Y26948D01*
X241395Y26828D01*
X241415Y26707D01*
X241431Y26586D01*
X241443Y26465D01*
X241451Y26343D01*
X241455Y26221D01*
X241455Y26099D01*
X241451Y25977D01*
X241443Y25855D01*
X241431Y25734D01*
X241415Y25613D01*
X241395Y25492D01*
X241371Y25372D01*
X241344Y25253D01*
X241312Y25135D01*
X241277Y25019D01*
X241238Y24903D01*
X241195Y24789D01*
X241149Y24676D01*
X241099Y24564D01*
X241045Y24455D01*
X240988Y24347D01*
X240927Y24241D01*
X240863Y24137D01*
X240795Y24036D01*
X240724Y23936D01*
X240650Y23839D01*
X240573Y23744D01*
X240493Y23652D01*
X240410Y23563D01*
X240324Y23476D01*
X240235Y23392D01*
X240144Y23311D01*
X240050Y23234D01*
X239953Y23159D01*
X239855Y23087D01*
X239753Y23019D01*
X239650Y22954D01*
X239545Y22892D01*
X239437Y22834D01*
X239328Y22779D01*
X239217Y22728D01*
X239105Y22681D01*
X238991Y22637D01*
X238875Y22597D01*
X238759Y22561D01*
X238641Y22529D01*
X238522Y22500D01*
X238403Y22476D01*
X238283Y22455D01*
X238162Y22438D01*
X238040Y22425D01*
X237919Y22416D01*
X237797Y22411D01*
X237674Y22410D01*
X237552Y22413D01*
X237431Y22420D01*
X237309Y22431D01*
X237188Y22446D01*
X237067Y22465D01*
X236947Y22487D01*
X236828Y22514D01*
X236710Y22544D01*
X236593Y22579D01*
X236477Y22617D01*
X236362Y22659D01*
X236249Y22704D01*
X236137Y22754D01*
X236027Y22806D01*
X235919Y22863D01*
X235812Y22923D01*
X235708Y22986D01*
X235606Y23053D01*
X235506Y23123D01*
X235408Y23196D01*
X235313Y23272D01*
X235220Y23352D01*
X235130Y23434D01*
X235043Y23519D01*
X234958Y23607D01*
X234876Y23698D01*
X234798Y23791D01*
X234722Y23887D01*
X234650Y23986D01*
X234581Y24086D01*
X234515Y24189D01*
X234452Y24294D01*
X234393Y24401D01*
X234338Y24509D01*
X234286Y24620D01*
X234238Y24732D01*
X234193Y24846D01*
X234152Y24961D01*
X234115Y25077D01*
X234081Y25194D01*
X234052Y25313D01*
X234026Y25432D01*
X234005Y25552D01*
X233987Y25673D01*
X233973Y25794D01*
X233963Y25916D01*
X233957Y26038D01*
X233955Y26160D01*
D17*
X-68580Y-68580D02*
X1586230Y-68580D01*
X1586230Y1084580D01*
X-68580Y1084580D01*
X-68580Y-68580D01*
X-5080Y-5080D02*
X1522730Y-5080D01*
X1522730Y1021080D01*
X-5080Y1021080D01*
X-5080Y-5080D01*
X0Y0D02*
X631825Y0D01*
X631825Y63500D01*
X631873Y64607D01*
X632018Y65705D01*
X632258Y66787D01*
X632591Y67844D01*
X633015Y68867D01*
X633526Y69850D01*
X634122Y70784D01*
X634796Y71663D01*
X635545Y72480D01*
X636362Y73229D01*
X637241Y73903D01*
X638175Y74499D01*
X639158Y75010D01*
X640181Y75434D01*
X641238Y75767D01*
X642320Y76007D01*
X643418Y76152D01*
X644525Y76200D01*
X873125Y76200D01*
X874232Y76152D01*
X875330Y76007D01*
X876412Y75767D01*
X877469Y75434D01*
X878492Y75010D01*
X879475Y74499D01*
X880409Y73903D01*
X881288Y73229D01*
X882105Y72480D01*
X882854Y71663D01*
X883528Y70784D01*
X884124Y69850D01*
X884635Y68867D01*
X885059Y67844D01*
X885392Y66787D01*
X885632Y65705D01*
X885777Y64607D01*
X885825Y63500D01*
X885825Y0D01*
X1517650Y0D01*
X1517650Y1016000D01*
X0Y1016000D01*
X0Y0D01*
X1510665Y24856D02*
X1510587Y23770D01*
X1510432Y22692D01*
X1510201Y21629D01*
X1509894Y20584D01*
X1509514Y19564D01*
X1509062Y18574D01*
X1508540Y17619D01*
X1507951Y16703D01*
X1507299Y15831D01*
X1506586Y15009D01*
X1505816Y14239D01*
X1504994Y13526D01*
X1504122Y12874D01*
X1503206Y12285D01*
X1502251Y11763D01*
X1501261Y11311D01*
X1500241Y10931D01*
X1499196Y10624D01*
X1498133Y10393D01*
X1497055Y10238D01*
X1495969Y10160D01*
X1494881Y10160D01*
X1493795Y10238D01*
X1492717Y10393D01*
X1491654Y10624D01*
X1490609Y10931D01*
X1489589Y11311D01*
X1488599Y11763D01*
X1487644Y12285D01*
X1486728Y12874D01*
X1485856Y13526D01*
X1485034Y14239D01*
X1484264Y15009D01*
X1483551Y15831D01*
X1482899Y16703D01*
X1482310Y17619D01*
X1481788Y18574D01*
X1481336Y19564D01*
X1480956Y20584D01*
X1480649Y21629D01*
X1480418Y22692D01*
X1480263Y23770D01*
X1480185Y24856D01*
X1480185Y25944D01*
X1480263Y27030D01*
X1480418Y28108D01*
X1480649Y29171D01*
X1480956Y30216D01*
X1481336Y31236D01*
X1481788Y32226D01*
X1482310Y33181D01*
X1482899Y34097D01*
X1483551Y34969D01*
X1484264Y35791D01*
X1485034Y36561D01*
X1485856Y37274D01*
X1486728Y37926D01*
X1487644Y38515D01*
X1488599Y39037D01*
X1489589Y39489D01*
X1490609Y39869D01*
X1491654Y40176D01*
X1492717Y40407D01*
X1493795Y40562D01*
X1494881Y40640D01*
X1495969Y40640D01*
X1497055Y40562D01*
X1498133Y40407D01*
X1499196Y40176D01*
X1500241Y39869D01*
X1501261Y39489D01*
X1502251Y39037D01*
X1503206Y38515D01*
X1504122Y37926D01*
X1504994Y37274D01*
X1505816Y36561D01*
X1506586Y35791D01*
X1507299Y34969D01*
X1507951Y34097D01*
X1508540Y33181D01*
X1509062Y32226D01*
X1509514Y31236D01*
X1509894Y30216D01*
X1510201Y29171D01*
X1510432Y28108D01*
X1510587Y27030D01*
X1510665Y25944D01*
X1510665Y24856D01*
X1510665Y990056D02*
X1510587Y988970D01*
X1510432Y987892D01*
X1510201Y986829D01*
X1509894Y985784D01*
X1509514Y984764D01*
X1509062Y983774D01*
X1508540Y982819D01*
X1507951Y981903D01*
X1507299Y981031D01*
X1506586Y980209D01*
X1505816Y979439D01*
X1504994Y978726D01*
X1504122Y978074D01*
X1503206Y977485D01*
X1502251Y976963D01*
X1501261Y976511D01*
X1500241Y976131D01*
X1499196Y975824D01*
X1498133Y975593D01*
X1497055Y975438D01*
X1495969Y975360D01*
X1494881Y975360D01*
X1493795Y975438D01*
X1492717Y975593D01*
X1491654Y975824D01*
X1490609Y976131D01*
X1489589Y976511D01*
X1488599Y976963D01*
X1487644Y977485D01*
X1486728Y978074D01*
X1485856Y978726D01*
X1485034Y979439D01*
X1484264Y980209D01*
X1483551Y981031D01*
X1482899Y981903D01*
X1482310Y982819D01*
X1481788Y983774D01*
X1481336Y984764D01*
X1480956Y985784D01*
X1480649Y986829D01*
X1480418Y987892D01*
X1480263Y988970D01*
X1480185Y990056D01*
X1480185Y991144D01*
X1480263Y992230D01*
X1480418Y993308D01*
X1480649Y994371D01*
X1480956Y995416D01*
X1481336Y996436D01*
X1481788Y997426D01*
X1482310Y998381D01*
X1482899Y999297D01*
X1483551Y1000169D01*
X1484264Y1000991D01*
X1485034Y1001761D01*
X1485856Y1002474D01*
X1486728Y1003126D01*
X1487644Y1003715D01*
X1488599Y1004237D01*
X1489589Y1004689D01*
X1490609Y1005069D01*
X1491654Y1005376D01*
X1492717Y1005607D01*
X1493795Y1005762D01*
X1494881Y1005840D01*
X1495969Y1005840D01*
X1497055Y1005762D01*
X1498133Y1005607D01*
X1499196Y1005376D01*
X1500241Y1005069D01*
X1501261Y1004689D01*
X1502251Y1004237D01*
X1503206Y1003715D01*
X1504122Y1003126D01*
X1504994Y1002474D01*
X1505816Y1001761D01*
X1506586Y1000991D01*
X1507299Y1000169D01*
X1507951Y999297D01*
X1508540Y998381D01*
X1509062Y997426D01*
X1509514Y996436D01*
X1509894Y995416D01*
X1510201Y994371D01*
X1510432Y993308D01*
X1510587Y992230D01*
X1510665Y991144D01*
X1510665Y990056D01*
X37465Y990056D02*
X37387Y988970D01*
X37232Y987892D01*
X37001Y986829D01*
X36694Y985784D01*
X36314Y984764D01*
X35862Y983774D01*
X35340Y982819D01*
X34751Y981903D01*
X34099Y981031D01*
X33386Y980209D01*
X32616Y979439D01*
X31794Y978726D01*
X30922Y978074D01*
X30006Y977485D01*
X29051Y976963D01*
X28061Y976511D01*
X27041Y976131D01*
X25996Y975824D01*
X24933Y975593D01*
X23855Y975438D01*
X22769Y975360D01*
X21681Y975360D01*
X20595Y975438D01*
X19517Y975593D01*
X18454Y975824D01*
X17409Y976131D01*
X16389Y976511D01*
X15399Y976963D01*
X14444Y977485D01*
X13528Y978074D01*
X12656Y978726D01*
X11834Y979439D01*
X11064Y980209D01*
X10351Y981031D01*
X9699Y981903D01*
X9110Y982819D01*
X8588Y983774D01*
X8136Y984764D01*
X7756Y985784D01*
X7449Y986829D01*
X7218Y987892D01*
X7063Y988970D01*
X6985Y990056D01*
X6985Y991144D01*
X7063Y992230D01*
X7218Y993308D01*
X7449Y994371D01*
X7756Y995416D01*
X8136Y996436D01*
X8588Y997426D01*
X9110Y998381D01*
X9699Y999297D01*
X10351Y1000169D01*
X11064Y1000991D01*
X11834Y1001761D01*
X12656Y1002474D01*
X13528Y1003126D01*
X14444Y1003715D01*
X15399Y1004237D01*
X16389Y1004689D01*
X17409Y1005069D01*
X18454Y1005376D01*
X19517Y1005607D01*
X20595Y1005762D01*
X21681Y1005840D01*
X22769Y1005840D01*
X23855Y1005762D01*
X24933Y1005607D01*
X25996Y1005376D01*
X27041Y1005069D01*
X28061Y1004689D01*
X29051Y1004237D01*
X30006Y1003715D01*
X30922Y1003126D01*
X31794Y1002474D01*
X32616Y1001761D01*
X33386Y1000991D01*
X34099Y1000169D01*
X34751Y999297D01*
X35340Y998381D01*
X35862Y997426D01*
X36314Y996436D01*
X36694Y995416D01*
X37001Y994371D01*
X37232Y993308D01*
X37387Y992230D01*
X37465Y991144D01*
X37465Y990056D01*
X1114175Y48837D02*
X1114119Y48415D01*
X1114009Y48003D01*
X1113846Y47609D01*
X1113633Y47241D01*
X1113374Y46903D01*
X1113072Y46601D01*
X1112734Y46342D01*
X1112366Y46129D01*
X1111972Y45966D01*
X1111560Y45856D01*
X1111138Y45800D01*
X1110712Y45800D01*
X1110290Y45856D01*
X1109878Y45966D01*
X1109484Y46129D01*
X1109116Y46342D01*
X1108778Y46601D01*
X1108476Y46903D01*
X1108217Y47241D01*
X1108004Y47609D01*
X1107841Y48003D01*
X1107731Y48415D01*
X1107675Y48837D01*
X1107675Y49263D01*
X1107731Y49685D01*
X1107841Y50097D01*
X1108004Y50491D01*
X1108217Y50859D01*
X1108476Y51197D01*
X1108778Y51499D01*
X1109116Y51758D01*
X1109484Y51971D01*
X1109878Y52134D01*
X1110290Y52244D01*
X1110712Y52300D01*
X1111138Y52300D01*
X1111560Y52244D01*
X1111972Y52134D01*
X1112366Y51971D01*
X1112734Y51758D01*
X1113072Y51499D01*
X1113374Y51197D01*
X1113633Y50859D01*
X1113846Y50491D01*
X1114009Y50097D01*
X1114119Y49685D01*
X1114175Y49263D01*
X1114175Y48837D01*
X1171975Y48837D02*
X1171919Y48415D01*
X1171809Y48003D01*
X1171646Y47609D01*
X1171433Y47241D01*
X1171174Y46903D01*
X1170872Y46601D01*
X1170534Y46342D01*
X1170166Y46129D01*
X1169772Y45966D01*
X1169360Y45856D01*
X1168938Y45800D01*
X1168512Y45800D01*
X1168090Y45856D01*
X1167678Y45966D01*
X1167284Y46129D01*
X1166916Y46342D01*
X1166578Y46601D01*
X1166276Y46903D01*
X1166017Y47241D01*
X1165804Y47609D01*
X1165641Y48003D01*
X1165531Y48415D01*
X1165475Y48837D01*
X1165475Y49263D01*
X1165531Y49685D01*
X1165641Y50097D01*
X1165804Y50491D01*
X1166017Y50859D01*
X1166276Y51197D01*
X1166578Y51499D01*
X1166916Y51758D01*
X1167284Y51971D01*
X1167678Y52134D01*
X1168090Y52244D01*
X1168512Y52300D01*
X1168938Y52300D01*
X1169360Y52244D01*
X1169772Y52134D01*
X1170166Y51971D01*
X1170534Y51758D01*
X1170872Y51499D01*
X1171174Y51197D01*
X1171433Y50859D01*
X1171646Y50491D01*
X1171809Y50097D01*
X1171919Y49685D01*
X1171975Y49263D01*
X1171975Y48837D01*
X514925Y20039D02*
X514862Y19481D01*
X514737Y18934D01*
X514552Y18404D01*
X514308Y17898D01*
X514009Y17422D01*
X513659Y16983D01*
X513262Y16586D01*
X512823Y16236D01*
X512347Y15937D01*
X511841Y15693D01*
X511311Y15508D01*
X510764Y15383D01*
X510206Y15320D01*
X509644Y15320D01*
X509086Y15383D01*
X508539Y15508D01*
X508009Y15693D01*
X507503Y15937D01*
X507027Y16236D01*
X506588Y16586D01*
X506191Y16983D01*
X505841Y17422D01*
X505542Y17898D01*
X505298Y18404D01*
X505113Y18934D01*
X504988Y19481D01*
X504925Y20039D01*
X504925Y20601D01*
X504988Y21159D01*
X505113Y21706D01*
X505298Y22236D01*
X505542Y22742D01*
X505841Y23218D01*
X506191Y23657D01*
X506588Y24054D01*
X507027Y24404D01*
X507503Y24703D01*
X508009Y24947D01*
X508539Y25132D01*
X509086Y25257D01*
X509644Y25320D01*
X510206Y25320D01*
X510764Y25257D01*
X511311Y25132D01*
X511841Y24947D01*
X512347Y24703D01*
X512823Y24404D01*
X513262Y24054D01*
X513659Y23657D01*
X514009Y23218D01*
X514308Y22742D01*
X514552Y22236D01*
X514737Y21706D01*
X514862Y21159D01*
X514925Y20601D01*
X514925Y20039D01*
X434925Y20039D02*
X434862Y19481D01*
X434737Y18934D01*
X434552Y18404D01*
X434308Y17898D01*
X434009Y17422D01*
X433659Y16983D01*
X433262Y16586D01*
X432823Y16236D01*
X432347Y15937D01*
X431841Y15693D01*
X431311Y15508D01*
X430764Y15383D01*
X430206Y15320D01*
X429644Y15320D01*
X429086Y15383D01*
X428539Y15508D01*
X428009Y15693D01*
X427503Y15937D01*
X427027Y16236D01*
X426588Y16586D01*
X426191Y16983D01*
X425841Y17422D01*
X425542Y17898D01*
X425298Y18404D01*
X425113Y18934D01*
X424988Y19481D01*
X424925Y20039D01*
X424925Y20601D01*
X424988Y21159D01*
X425113Y21706D01*
X425298Y22236D01*
X425542Y22742D01*
X425841Y23218D01*
X426191Y23657D01*
X426588Y24054D01*
X427027Y24404D01*
X427503Y24703D01*
X428009Y24947D01*
X428539Y25132D01*
X429086Y25257D01*
X429644Y25320D01*
X430206Y25320D01*
X430764Y25257D01*
X431311Y25132D01*
X431841Y24947D01*
X432347Y24703D01*
X432823Y24404D01*
X433262Y24054D01*
X433659Y23657D01*
X434009Y23218D01*
X434308Y22742D01*
X434552Y22236D01*
X434737Y21706D01*
X434862Y21159D01*
X434925Y20601D01*
X434925Y20039D01*
X37465Y24856D02*
X37387Y23770D01*
X37232Y22692D01*
X37001Y21629D01*
X36694Y20584D01*
X36314Y19564D01*
X35862Y18574D01*
X35340Y17619D01*
X34751Y16703D01*
X34099Y15831D01*
X33386Y15009D01*
X32616Y14239D01*
X31794Y13526D01*
X30922Y12874D01*
X30006Y12285D01*
X29051Y11763D01*
X28061Y11311D01*
X27041Y10931D01*
X25996Y10624D01*
X24933Y10393D01*
X23855Y10238D01*
X22769Y10160D01*
X21681Y10160D01*
X20595Y10238D01*
X19517Y10393D01*
X18454Y10624D01*
X17409Y10931D01*
X16389Y11311D01*
X15399Y11763D01*
X14444Y12285D01*
X13528Y12874D01*
X12656Y13526D01*
X11834Y14239D01*
X11064Y15009D01*
X10351Y15831D01*
X9699Y16703D01*
X9110Y17619D01*
X8588Y18574D01*
X8136Y19564D01*
X7756Y20584D01*
X7449Y21629D01*
X7218Y22692D01*
X7063Y23770D01*
X6985Y24856D01*
X6985Y25944D01*
X7063Y27030D01*
X7218Y28108D01*
X7449Y29171D01*
X7756Y30216D01*
X8136Y31236D01*
X8588Y32226D01*
X9110Y33181D01*
X9699Y34097D01*
X10351Y34969D01*
X11064Y35791D01*
X11834Y36561D01*
X12656Y37274D01*
X13528Y37926D01*
X14444Y38515D01*
X15399Y39037D01*
X16389Y39489D01*
X17409Y39869D01*
X18454Y40176D01*
X19517Y40407D01*
X20595Y40562D01*
X21681Y40640D01*
X22769Y40640D01*
X23855Y40562D01*
X24933Y40407D01*
X25996Y40176D01*
X27041Y39869D01*
X28061Y39489D01*
X29051Y39037D01*
X30006Y38515D01*
X30922Y37926D01*
X31794Y37274D01*
X32616Y36561D01*
X33386Y35791D01*
X34099Y34969D01*
X34751Y34097D01*
X35340Y33181D01*
X35862Y32226D01*
X36314Y31236D01*
X36694Y30216D01*
X37001Y29171D01*
X37232Y28108D01*
X37387Y27030D01*
X37465Y25944D01*
X37465Y24856D01*
X1368175Y48837D02*
X1368119Y48415D01*
X1368009Y48003D01*
X1367846Y47609D01*
X1367633Y47241D01*
X1367374Y46903D01*
X1367072Y46601D01*
X1366734Y46342D01*
X1366366Y46129D01*
X1365972Y45966D01*
X1365560Y45856D01*
X1365138Y45800D01*
X1364712Y45800D01*
X1364290Y45856D01*
X1363878Y45966D01*
X1363484Y46129D01*
X1363116Y46342D01*
X1362778Y46601D01*
X1362476Y46903D01*
X1362217Y47241D01*
X1362004Y47609D01*
X1361841Y48003D01*
X1361731Y48415D01*
X1361675Y48837D01*
X1361675Y49263D01*
X1361731Y49685D01*
X1361841Y50097D01*
X1362004Y50491D01*
X1362217Y50859D01*
X1362476Y51197D01*
X1362778Y51499D01*
X1363116Y51758D01*
X1363484Y51971D01*
X1363878Y52134D01*
X1364290Y52244D01*
X1364712Y52300D01*
X1365138Y52300D01*
X1365560Y52244D01*
X1365972Y52134D01*
X1366366Y51971D01*
X1366734Y51758D01*
X1367072Y51499D01*
X1367374Y51197D01*
X1367633Y50859D01*
X1367846Y50491D01*
X1368009Y50097D01*
X1368119Y49685D01*
X1368175Y49263D01*
X1368175Y48837D01*
X1425975Y48837D02*
X1425919Y48415D01*
X1425809Y48003D01*
X1425646Y47609D01*
X1425433Y47241D01*
X1425174Y46903D01*
X1424872Y46601D01*
X1424534Y46342D01*
X1424166Y46129D01*
X1423772Y45966D01*
X1423360Y45856D01*
X1422938Y45800D01*
X1422512Y45800D01*
X1422090Y45856D01*
X1421678Y45966D01*
X1421284Y46129D01*
X1420916Y46342D01*
X1420578Y46601D01*
X1420276Y46903D01*
X1420017Y47241D01*
X1419804Y47609D01*
X1419641Y48003D01*
X1419531Y48415D01*
X1419475Y48837D01*
X1419475Y49263D01*
X1419531Y49685D01*
X1419641Y50097D01*
X1419804Y50491D01*
X1420017Y50859D01*
X1420276Y51197D01*
X1420578Y51499D01*
X1420916Y51758D01*
X1421284Y51971D01*
X1421678Y52134D01*
X1422090Y52244D01*
X1422512Y52300D01*
X1422938Y52300D01*
X1423360Y52244D01*
X1423772Y52134D01*
X1424166Y51971D01*
X1424534Y51758D01*
X1424872Y51499D01*
X1425174Y51197D01*
X1425433Y50859D01*
X1425646Y50491D01*
X1425809Y50097D01*
X1425919Y49685D01*
X1425975Y49263D01*
X1425975Y48837D01*
X190125Y922552D02*
X190195Y923614D01*
X190333Y924668D01*
X190541Y925712D01*
X190816Y926740D01*
X191158Y927747D01*
X191566Y928730D01*
X192036Y929684D01*
X192568Y930606D01*
X193159Y931490D01*
X193807Y932334D01*
X194508Y933134D01*
X195261Y933887D01*
X196061Y934588D01*
X196905Y935236D01*
X197789Y935827D01*
X198711Y936359D01*
X199665Y936829D01*
X200648Y937237D01*
X201655Y937579D01*
X202683Y937854D01*
X203727Y938062D01*
X204781Y938200D01*
X205843Y938270D01*
X206907Y938270D01*
X207969Y938200D01*
X209023Y938062D01*
X210067Y937854D01*
X211095Y937579D01*
X212102Y937237D01*
X213085Y936829D01*
X214039Y936359D01*
X214961Y935827D01*
X215845Y935236D01*
X216689Y934588D01*
X217489Y933887D01*
X218242Y933134D01*
X218943Y932334D01*
X219591Y931490D01*
X220182Y930606D01*
X220714Y929684D01*
X221184Y928730D01*
X221592Y927747D01*
X221934Y926740D01*
X222209Y925712D01*
X222417Y924668D01*
X222555Y923614D01*
X222625Y922552D01*
X222625Y921488D01*
X222555Y920426D01*
X222417Y919372D01*
X222209Y918328D01*
X221934Y917300D01*
X221592Y916293D01*
X221184Y915310D01*
X220714Y914356D01*
X220182Y913434D01*
X219591Y912550D01*
X218943Y911706D01*
X218242Y910906D01*
X217489Y910153D01*
X216689Y909452D01*
X215845Y908804D01*
X214961Y908213D01*
X214039Y907681D01*
X213085Y907211D01*
X212102Y906803D01*
X211095Y906461D01*
X210067Y906186D01*
X209023Y905978D01*
X207969Y905840D01*
X206907Y905770D01*
X205843Y905770D01*
X204781Y905840D01*
X203727Y905978D01*
X202683Y906186D01*
X201655Y906461D01*
X200648Y906803D01*
X199665Y907211D01*
X198711Y907681D01*
X197789Y908213D01*
X196905Y908804D01*
X196061Y909452D01*
X195261Y910153D01*
X194508Y910906D01*
X193807Y911706D01*
X193159Y912550D01*
X192568Y913434D01*
X192036Y914356D01*
X191566Y915310D01*
X191158Y916293D01*
X190816Y917300D01*
X190541Y918328D01*
X190333Y919372D01*
X190195Y920426D01*
X190125Y921488D01*
X190125Y922552D01*
X75825Y922552D02*
X75895Y923614D01*
X76033Y924668D01*
X76241Y925712D01*
X76516Y926740D01*
X76858Y927747D01*
X77266Y928730D01*
X77736Y929684D01*
X78268Y930606D01*
X78859Y931490D01*
X79507Y932334D01*
X80208Y933134D01*
X80961Y933887D01*
X81761Y934588D01*
X82605Y935236D01*
X83489Y935827D01*
X84411Y936359D01*
X85365Y936829D01*
X86348Y937237D01*
X87355Y937579D01*
X88383Y937854D01*
X89427Y938062D01*
X90481Y938200D01*
X91543Y938270D01*
X92607Y938270D01*
X93669Y938200D01*
X94723Y938062D01*
X95767Y937854D01*
X96795Y937579D01*
X97802Y937237D01*
X98785Y936829D01*
X99739Y936359D01*
X100661Y935827D01*
X101545Y935236D01*
X102389Y934588D01*
X103189Y933887D01*
X103942Y933134D01*
X104643Y932334D01*
X105291Y931490D01*
X105882Y930606D01*
X106414Y929684D01*
X106884Y928730D01*
X107292Y927747D01*
X107634Y926740D01*
X107909Y925712D01*
X108117Y924668D01*
X108255Y923614D01*
X108325Y922552D01*
X108325Y921488D01*
X108255Y920426D01*
X108117Y919372D01*
X107909Y918328D01*
X107634Y917300D01*
X107292Y916293D01*
X106884Y915310D01*
X106414Y914356D01*
X105882Y913434D01*
X105291Y912550D01*
X104643Y911706D01*
X103942Y910906D01*
X103189Y910153D01*
X102389Y909452D01*
X101545Y908804D01*
X100661Y908213D01*
X99739Y907681D01*
X98785Y907211D01*
X97802Y906803D01*
X96795Y906461D01*
X95767Y906186D01*
X94723Y905978D01*
X93669Y905840D01*
X92607Y905770D01*
X91543Y905770D01*
X90481Y905840D01*
X89427Y905978D01*
X88383Y906186D01*
X87355Y906461D01*
X86348Y906803D01*
X85365Y907211D01*
X84411Y907681D01*
X83489Y908213D01*
X82605Y908804D01*
X81761Y909452D01*
X80961Y910153D01*
X80208Y910906D01*
X79507Y911706D01*
X78859Y912550D01*
X78268Y913434D01*
X77736Y914356D01*
X77266Y915310D01*
X76858Y916293D01*
X76516Y917300D01*
X76241Y918328D01*
X76033Y919372D01*
X75895Y920426D01*
X75825Y921488D01*
X75825Y922552D01*
X666115Y101056D02*
X666037Y99970D01*
X665882Y98892D01*
X665651Y97829D01*
X665344Y96784D01*
X664964Y95764D01*
X664512Y94774D01*
X663990Y93819D01*
X663401Y92903D01*
X662749Y92031D01*
X662036Y91209D01*
X661266Y90439D01*
X660444Y89726D01*
X659572Y89074D01*
X658656Y88485D01*
X657701Y87963D01*
X656711Y87511D01*
X655691Y87131D01*
X654646Y86824D01*
X653583Y86593D01*
X652505Y86438D01*
X651419Y86360D01*
X650331Y86360D01*
X649245Y86438D01*
X648167Y86593D01*
X647104Y86824D01*
X646059Y87131D01*
X645039Y87511D01*
X644049Y87963D01*
X643094Y88485D01*
X642178Y89074D01*
X641306Y89726D01*
X640484Y90439D01*
X639714Y91209D01*
X639001Y92031D01*
X638349Y92903D01*
X637760Y93819D01*
X637238Y94774D01*
X636786Y95764D01*
X636406Y96784D01*
X636099Y97829D01*
X635868Y98892D01*
X635713Y99970D01*
X635635Y101056D01*
X635635Y102144D01*
X635713Y103230D01*
X635868Y104308D01*
X636099Y105371D01*
X636406Y106416D01*
X636786Y107436D01*
X637238Y108426D01*
X637760Y109381D01*
X638349Y110297D01*
X639001Y111169D01*
X639714Y111991D01*
X640484Y112761D01*
X641306Y113474D01*
X642178Y114126D01*
X643094Y114715D01*
X644049Y115237D01*
X645039Y115689D01*
X646059Y116069D01*
X647104Y116376D01*
X648167Y116607D01*
X649245Y116762D01*
X650331Y116840D01*
X651419Y116840D01*
X652505Y116762D01*
X653583Y116607D01*
X654646Y116376D01*
X655691Y116069D01*
X656711Y115689D01*
X657701Y115237D01*
X658656Y114715D01*
X659572Y114126D01*
X660444Y113474D01*
X661266Y112761D01*
X662036Y111991D01*
X662749Y111169D01*
X663401Y110297D01*
X663990Y109381D01*
X664512Y108426D01*
X664964Y107436D01*
X665344Y106416D01*
X665651Y105371D01*
X665882Y104308D01*
X666037Y103230D01*
X666115Y102144D01*
X666115Y101056D01*
X882015Y101056D02*
X881937Y99970D01*
X881782Y98892D01*
X881551Y97829D01*
X881244Y96784D01*
X880864Y95764D01*
X880412Y94774D01*
X879890Y93819D01*
X879301Y92903D01*
X878649Y92031D01*
X877936Y91209D01*
X877166Y90439D01*
X876344Y89726D01*
X875472Y89074D01*
X874556Y88485D01*
X873601Y87963D01*
X872611Y87511D01*
X871591Y87131D01*
X870546Y86824D01*
X869483Y86593D01*
X868405Y86438D01*
X867319Y86360D01*
X866231Y86360D01*
X865145Y86438D01*
X864067Y86593D01*
X863004Y86824D01*
X861959Y87131D01*
X860939Y87511D01*
X859949Y87963D01*
X858994Y88485D01*
X858078Y89074D01*
X857206Y89726D01*
X856384Y90439D01*
X855614Y91209D01*
X854901Y92031D01*
X854249Y92903D01*
X853660Y93819D01*
X853138Y94774D01*
X852686Y95764D01*
X852306Y96784D01*
X851999Y97829D01*
X851768Y98892D01*
X851613Y99970D01*
X851535Y101056D01*
X851535Y102144D01*
X851613Y103230D01*
X851768Y104308D01*
X851999Y105371D01*
X852306Y106416D01*
X852686Y107436D01*
X853138Y108426D01*
X853660Y109381D01*
X854249Y110297D01*
X854901Y111169D01*
X855614Y111991D01*
X856384Y112761D01*
X857206Y113474D01*
X858078Y114126D01*
X858994Y114715D01*
X859949Y115237D01*
X860939Y115689D01*
X861959Y116069D01*
X863004Y116376D01*
X864067Y116607D01*
X865145Y116762D01*
X866231Y116840D01*
X867319Y116840D01*
X868405Y116762D01*
X869483Y116607D01*
X870546Y116376D01*
X871591Y116069D01*
X872611Y115689D01*
X873601Y115237D01*
X874556Y114715D01*
X875472Y114126D01*
X876344Y113474D01*
X877166Y112761D01*
X877936Y111991D01*
X878649Y111169D01*
X879301Y110297D01*
X879890Y109381D01*
X880412Y108426D01*
X880864Y107436D01*
X881244Y106416D01*
X881551Y105371D01*
X881782Y104308D01*
X881937Y103230D01*
X882015Y102144D01*
X882015Y101056D01*
X326455Y25914D02*
X326391Y25427D01*
X326264Y24952D01*
X326076Y24498D01*
X325830Y24072D01*
X325530Y23682D01*
X325183Y23335D01*
X324793Y23035D01*
X324367Y22790D01*
X323913Y22601D01*
X323438Y22474D01*
X322951Y22410D01*
X322459Y22410D01*
X321972Y22474D01*
X321497Y22601D01*
X321043Y22790D01*
X320617Y23035D01*
X320227Y23335D01*
X319880Y23682D01*
X319580Y24072D01*
X319335Y24498D01*
X319146Y24952D01*
X319019Y25427D01*
X318955Y25914D01*
X318955Y26406D01*
X319019Y26893D01*
X319146Y27368D01*
X319335Y27822D01*
X319580Y28248D01*
X319880Y28638D01*
X320227Y28985D01*
X320617Y29285D01*
X321043Y29531D01*
X321497Y29719D01*
X321972Y29846D01*
X322459Y29910D01*
X322951Y29910D01*
X323438Y29846D01*
X323913Y29719D01*
X324367Y29531D01*
X324793Y29285D01*
X325183Y28985D01*
X325530Y28638D01*
X325830Y28248D01*
X326076Y27822D01*
X326264Y27368D01*
X326391Y26893D01*
X326455Y26406D01*
X326455Y25914D01*
X241455Y25914D02*
X241391Y25427D01*
X241264Y24952D01*
X241076Y24498D01*
X240830Y24072D01*
X240530Y23682D01*
X240183Y23335D01*
X239793Y23035D01*
X239367Y22790D01*
X238913Y22601D01*
X238438Y22474D01*
X237951Y22410D01*
X237459Y22410D01*
X236972Y22474D01*
X236497Y22601D01*
X236043Y22790D01*
X235617Y23035D01*
X235227Y23335D01*
X234880Y23682D01*
X234580Y24072D01*
X234335Y24498D01*
X234146Y24952D01*
X234019Y25427D01*
X233955Y25914D01*
X233955Y26406D01*
X234019Y26893D01*
X234146Y27368D01*
X234335Y27822D01*
X234580Y28248D01*
X234880Y28638D01*
X235227Y28985D01*
X235617Y29285D01*
X236043Y29531D01*
X236497Y29719D01*
X236972Y29846D01*
X237459Y29910D01*
X237951Y29910D01*
X238438Y29846D01*
X238913Y29719D01*
X239367Y29531D01*
X239793Y29285D01*
X240183Y28985D01*
X240530Y28638D01*
X240830Y28248D01*
X241076Y27822D01*
X241264Y27368D01*
X241391Y26893D01*
X241455Y26406D01*
X241455Y25914D01*
M02*
