M48
;GenerationSoftware,Autodesk,EAGLE,9.6.2*%
;CreationDate,2023-07-07T17:16:03Z*%
FMAT,2
ICI,OFF
METRIC,TZ,000.000
T15C0.300
T14C0.400
T13C0.500
T12C0.650
T11C0.750
T10C0.900
T9C0.950
T8C1.000
T7C1.016
T6C1.200
T5C1.400
T4C1.499
T3C1.700
T2C3.048
T1C3.250
%
G90
M71
T1
X20638Y92202
X9208Y92202
T2
X149543Y2540
X149543Y99060
X2223Y99060
X2223Y2540
X65087Y10160
X86678Y10160
T3
X7047Y89152
X22797Y89152
T4
X16192Y39370
X16192Y46990
X36513Y36830
X36513Y26670
X16192Y34290
X36513Y46990
T5
X41423Y94990
X55422Y94990
X62422Y94990
X58922Y94990
X51922Y94990
X48422Y94990
X44922Y94990
X30922Y94990
X34423Y94990
X37923Y94990
T6
X97782Y6310
X130182Y5421
X123182Y5421
X104782Y6310
T7
X32702Y87630
X73343Y77470
X9843Y80010
X7302Y77470
X75883Y71120
X73343Y68580
X73343Y71120
X75883Y68580
X7302Y80010
X49212Y50800
X75883Y77470
X30162Y87630
X46672Y50800
X9843Y77470
X30162Y90170
X32702Y90170
T8
X42993Y2032
X50992Y2032
X13652Y5635
X11112Y5635
X128932Y2921
X124432Y2921
X99032Y3810
X103532Y3810
T9
X106362Y87630
X70803Y38100
X126682Y12700
X51752Y22860
X56832Y24130
X108902Y15240
X111442Y15240
X47942Y69850
X41593Y43180
X41593Y45720
X46672Y31750
X70803Y48260
X63182Y58420
X49212Y54610
X46672Y54610
X70803Y11430
X80963Y11430
X59372Y99060
X54292Y99060
X51752Y99060
X41593Y48260
X41593Y40640
X101282Y24130
X101282Y16510
X16192Y12700
X97472Y31750
X47942Y15240
X41593Y15240
X50482Y15240
X44132Y15240
X39053Y15240
X94932Y66040
X56832Y99060
X61912Y22860
X80963Y27940
X100012Y31750
X84773Y25400
X58102Y40640
X49212Y99060
X46672Y99060
T10
X19013Y96262
X16828Y85852
X18098Y83312
X19368Y85852
X9208Y85852
X20638Y83312
X8293Y96262
X10833Y96262
X10478Y83312
X11747Y85852
X13017Y83312
X14287Y85852
X15557Y83312
X21553Y96262
T11
X23770Y2616
X32270Y2616
T12
X142273Y4905
X116872Y4905
X136493Y4905
X111092Y4905
T13
X12382Y43180
X116522Y7620
X12382Y44450
X136843Y7620
X141923Y7620
X111442Y7620
T14
X135065Y5435
X143701Y5435
X143701Y1255
X135065Y1255
X109664Y5435
X118300Y1255
X109664Y1255
X118300Y5435
T15
X127571Y75438
X135954Y75438
X127571Y81788
X129730Y81788
X131763Y81788
X133795Y81788
X135954Y81788
X123507Y81153
X123507Y83439
X125031Y84455
X127317Y86360
X126301Y86360
X127317Y87630
X127317Y88900
X127317Y90170
X127317Y91440
X126809Y92202
X125412Y92075
X123761Y92075
X121983Y92075
X120713Y92075
X119189Y92583
X118554Y93980
X117284Y95250
X117157Y96647
X115760Y99314
X115760Y98044
X116014Y96901
X115760Y100330
X123634Y100330
X123634Y99314
X123634Y98044
X123380Y96774
X122364Y96647
X120967Y95885
X121729Y94869
X123761Y94869
X125412Y96393
X126936Y95123
X128079Y94107
X129222Y92710
X129222Y91440
X129222Y90170
X129222Y88900
X129222Y87630
X129222Y86360
X130492Y86360
X134303Y86360
X133033Y86360
X134303Y87630
X134303Y88900
X134303Y90170
X134303Y91440
X134303Y92710
X134811Y94107
X135573Y95123
X136843Y96266
X137986Y99314
X137986Y100330
X137986Y98044
X138240Y96647
X139383Y96647
X140653Y95250
X138494Y95250
X145860Y99314
X145860Y100330
X145860Y98044
X145606Y96647
X144590Y96647
X144209Y95250
X143193Y94107
X142685Y92964
X141415Y92202
X140399Y92075
X138621Y92075
X136970Y92075
X136081Y91059
X135827Y88900
X135827Y87249
X136081Y85979
X137224Y85979
X101536Y99060
X101536Y100330
X101536Y97790
X101282Y96520
X100012Y96520
X98742Y95250
X98742Y93472
X98742Y91694
X98742Y89916
X96202Y89916
X96202Y91694
X94551Y91694
X93027Y90424
X91122Y91440
X95059Y95250
X94424Y94488
X94932Y96520
X93662Y96647
X93408Y99060
X93408Y97790
X93408Y100330
X94932Y89154
X94932Y85090
X96202Y85090
X97472Y85090
X98742Y85090
X96202Y81280
X97472Y81280
X93535Y86868
X93535Y85090
X93535Y83312
X93789Y80899
X92138Y81915
X90360Y80645
X90360Y79629
X90360Y78486
X94043Y78486
X95440Y79629
X97726Y79756
X97726Y78232
X98234Y76708
X99758Y75438
X99758Y77724
X99758Y79756
X99758Y81280
X100393Y82804
X100393Y85090
X100393Y87630
X101409Y78613
X103822Y76708
X108902Y76708
X112966Y76708
X112966Y72517
X108902Y72517
X104711Y68326
X108902Y68326
X112966Y68326
X104711Y64135
X108902Y64135
X112966Y64135
X117792Y67818
X117792Y77597
X100012Y63373
X117792Y73279
X71184Y99060
X79312Y99060
X71184Y100457
X71184Y97536
X79312Y97409
X79312Y100457
X72708Y96520
X72835Y94615
X77788Y96647
X76899Y95504
X76391Y94615
X76518Y92456
X77788Y90805
X76645Y89027
X73978Y89027
X75248Y89027
X72835Y90678
X73978Y92456
X48069Y21844
X46291Y21844
X49720Y21844
X44640Y13843
X44767Y11176
X40831Y37592
X45021Y33528
X78423Y12446
X78423Y11430
X82614Y16383
X67628Y21844
X71692Y21844
X80328Y21717
X83757Y21971
X110172Y13462
X117792Y13462
X113982Y11557
X139764Y32512
X145987Y25273
X145987Y23495
X124650Y22860
X124650Y26162
X129095Y24892
X72581Y66548
X72581Y64897
X81471Y66675
X81471Y80645
X124396Y50800
X118808Y52197
X116268Y50800
X52006Y71882
X53022Y71882
X51244Y73660
X54546Y71882
X57340Y74168
X51244Y76581
X51498Y78105
X43371Y73025
X43371Y71120
X43371Y69215
X63944Y73660
X63944Y71755
X49212Y65278
X51117Y65278
X53022Y65278
X54927Y65278
X56832Y65278
X58737Y65278
X48069Y83312
X63436Y82931
X61531Y82931
X40323Y83312
X37275Y71120
X37275Y84455
X37021Y86741
X37021Y88392
X37783Y77470
X72581Y73533
X95567Y70358
X112585Y3683
X107378Y17526
X83630Y52705
X83630Y51689
X83630Y33655
X83630Y34671
X89979Y41656
X92392Y39370
X89979Y39370
X92392Y44069
X89979Y44069
X94805Y41656
X94805Y44069
X94805Y39370
X102425Y35433
X95567Y28448
X89852Y28448
X86043Y28448
X84011Y28448
X135573Y13462
X143193Y13462
X139383Y13970
X138113Y3810
X117284Y6985
X108521Y5969
X142685Y6985
X133922Y5969
X130111Y14478
X131763Y14478
X133414Y14478
X136716Y14478
X138113Y32512
X55562Y59690
X55562Y57150
X55562Y54610
X56324Y52070
X56324Y49530
X63182Y59690
X63182Y57150
X69533Y60452
X73343Y60452
X77153Y60452
X82233Y60452
X84773Y60452
X70803Y58674
X73343Y58674
X75883Y58674
X78169Y58674
X81598Y58674
X83503Y58674
X86043Y58674
X84773Y63373
X87313Y60452
X87313Y63373
X84773Y67310
X87313Y67310
X87313Y69850
X84773Y69850
X84773Y72390
X84773Y74930
X84773Y78740
X84773Y81280
X87313Y72390
X63944Y41910
X87313Y78740
X87313Y81280
X84773Y83820
X84773Y86360
X84773Y88900
X84773Y91440
X86043Y93980
X88582Y94615
X91122Y94615
X87313Y83820
X87313Y86360
X87313Y88900
X88582Y91440
X103822Y74676
X103822Y78867
X100012Y64770
X135065Y58674
X123507Y69088
X145098Y88900
X144971Y87122
X108902Y81788
X113474Y86614
X114998Y86614
X116776Y86614
X140018Y80010
X123507Y78994
X123507Y74549
X123507Y73533
X140018Y72390
X123507Y62484
X111315Y27051
X111315Y25400
X106870Y76708
X104711Y72644
X68898Y24765
X70549Y24765
X72708Y24638
X72708Y26670
X82995Y31369
X92519Y29591
X108267Y28067
X108267Y24384
X112077Y18796
X85027Y31369
X28892Y73660
X28892Y72390
X114871Y8166
X113220Y11557
X113474Y16510
X114363Y7112
X113220Y7112
X114744Y11557
X114490Y16510
X109537Y20574
X89725Y47526
X110807Y19939
X88455Y46990
X105219Y19431
X99758Y19400
X106362Y21209
X102806Y21240
X67320Y77470
X68263Y55880
X87186Y35334
X75248Y35306
X68263Y35687
X99758Y21209
X94932Y24130
X102552Y18796
X101282Y41910
X124523Y24511
X129095Y23622
X136970Y22098
X136970Y26162
X132982Y28067
X129095Y26162
X76772Y66548
X76772Y64897
X96710Y73279
X41485Y88392
X41485Y86741
X51752Y84582
X53530Y84582
X55308Y84582
X59753Y73660
X43371Y67310
X42736Y67310
X76772Y75184
X104457Y82169
X116776Y82169
X113474Y82169
X115125Y82169
X72835Y46609
X69914Y40894
X110172Y86487
X132987Y20447
X55054Y31750
X62801Y32766
X72581Y27940
X67600Y72644
X78550Y73231
X68744Y56362
X90868Y55499
X112204Y83566
X90868Y63223
X90995Y48641
X67968Y72049
X78550Y72136
X69226Y56843
X87059Y56162
X108140Y83566
X88328Y63500
X87186Y48133
X98742Y62278
X67755Y55372
X67755Y36322
X75883Y36322
X94805Y36322
X102806Y86360
X69787Y63881
X96202Y38100
X80963Y38100
X80963Y64135
X66712Y54330
X65468Y14942
X65468Y28829
X74613Y54257
X93408Y54229
X67247Y54864
X66485Y15903
X66485Y29210
X85789Y54737
X73978Y54810
X66231Y53848
X65977Y15423
X65977Y30099
X75248Y53777
X94678Y53721
X78677Y37338
X93408Y37310
X65723Y53340
X65723Y36830
X75248Y36830
X98488Y36830
X131763Y32512
X117792Y76327
X132779Y32512
X117792Y75438
X28892Y71120
X28892Y69850
X139383Y8763
X126682Y45652
X145733Y45720
X49212Y80518
X47942Y76200
X47942Y74168
X47942Y72644
X55562Y69596
X53530Y69596
X52514Y69596
X40323Y79375
X33084Y79629
X37275Y82550
X50482Y80899
X52641Y80899
X56578Y80899
X37402Y80645
X43053Y78550
X37529Y78359
X43244Y80645
X43371Y74930
X37275Y74930
X33084Y69215
X9843Y68580
X11112Y68580
X9843Y67310
X9843Y66040
X9843Y64770
X11112Y64770
X11112Y66040
X11112Y67310
X10478Y67945
X9208Y67945
X9208Y66675
X9208Y65405
X9208Y64135
X10478Y64135
X10478Y65405
X10478Y66675
X8573Y62230
X9843Y62230
X11112Y62230
X9843Y60960
X8573Y60960
X8573Y59690
X8573Y58420
X9843Y58420
X11112Y58420
X11112Y59690
X9843Y59690
X11112Y60960
X10478Y61595
X9208Y61595
X10478Y60325
X9208Y60325
X26352Y68580
X10478Y59055
X70803Y16383
X78423Y16424
X70125Y57870
X116903Y55880
X69707Y57325
X112839Y55880
X99631Y71628
X79693Y65405
X79693Y38100
X78598Y48260
X78725Y64361
X100139Y72136
X86043Y59563
X84773Y59563
X62547Y47498
X63944Y43688
X63944Y69850
X17463Y97790
X16192Y96520
X63944Y67945
X9843Y3810
X93662Y76200
X107378Y83566
X98234Y72771
X98996Y58166
X129603Y57912
X64960Y14462
X69025Y35179
X88328Y35814
X116677Y80391
X117157Y81026
X128460Y32512
X93535Y72136
X94170Y70993
X129476Y32512
X136081Y32512
X133033Y58674
X135192Y32512
X133795Y58039
X134938Y20320
X129349Y21082
X132271Y20447
X133668Y20447
X21019Y18161
X28892Y16510
X140145Y70104
X140145Y69088
X26352Y16510
X140145Y67945
X25209Y16510
X140145Y66929
X23812Y16510
X120884Y56515
X129222Y49530
X140653Y53594
X141923Y53594
X143193Y53594
X133121Y46228
X122618Y46228
X104076Y86360
X69279Y63320
X26352Y67310
X26352Y66040
X109410Y86487
X111061Y86487
X103568Y56769
X76899Y56769
X76899Y27940
X73343Y27940
X119824Y37465
X119951Y45974
X120586Y37846
X120713Y46482
X78423Y14679
X73978Y16383
X70803Y15621
X99758Y56543
X76418Y28448
X66993Y28448
X66993Y16383
X76137Y56769
X82233Y50800
X95948Y50800
X26352Y64770
X26352Y63500
X26352Y62230
X26352Y60960
X26352Y59690
X27622Y59690
X27622Y60960
X27622Y62230
X27622Y63500
X27622Y64770
X27622Y66040
X27622Y67310
X27622Y68580
X28892Y68580
X28892Y67310
X28892Y66040
X28892Y64770
X28892Y63500
X87313Y74930
X28892Y62230
X28892Y60960
X28892Y59690
X28257Y60325
X26987Y60325
X26987Y61595
X28257Y61595
X28257Y62865
X26987Y62865
X26987Y64135
X26987Y65405
X26987Y66675
X28257Y67945
X26987Y67945
X28257Y66675
X28257Y65405
X28257Y64135
X26987Y59055
X28257Y59055
X27622Y58420
X26352Y58420
X28892Y58420
X41593Y59690
X42863Y59690
X44132Y59690
X45402Y59690
X46672Y59690
X45402Y58420
X46672Y58420
X44132Y58420
X42228Y59055
X43498Y59055
X44767Y59055
X44767Y57785
X46037Y59055
X46037Y57785
X40323Y59690
X39053Y59690
X39053Y58420
X40323Y58420
X40958Y59055
X39688Y59055
X39688Y57785
X40958Y57785
X21019Y17145
X16447Y17145
X26860Y21082
X28511Y21082
X29781Y21082
X25209Y21082
X23558Y21082
X30289Y16002
X62928Y28194
X63944Y26670
X63944Y24511
X49720Y26670
X49720Y24765
X54673Y25781
X54673Y27432
X56832Y32893
X56832Y30734
X51752Y30734
X51752Y32893
X63944Y29210
X54800Y36195
X54800Y38100
X63944Y38100
X63944Y36195
X63944Y34290
X49720Y34290
X54800Y34290
X32702Y61595
X31813Y61595
X33592Y61595
X37783Y57785
X41085Y54483
X50863Y59690
X63944Y45720
X60642Y47752
X59499Y42799
X70168Y42037
X71438Y45593
X49212Y44450
X49212Y45466
X49212Y43434
X142050Y48768
X141034Y48768
X143066Y48768
X118427Y49403
X131763Y54610
X131763Y49530
X129222Y52070
X129222Y46990
X127571Y62992
X129603Y62992
X131763Y62992
X133922Y62992
X135954Y62992
X125158Y60325
X138240Y60325
X127571Y69342
X135954Y69342
X9208Y59055
M30