G04 EAGLE Gerber RS-274X export*
G75*
%MOMM*%
%FSLAX34Y34*%
%LPD*%
%INSoldermask Bottom*%
%IPPOS*%
%AMOC8*
5,1,8,0,0,1.08239X$1,22.5*%
G01*
%ADD10C,0.965200*%
%ADD11C,1.127000*%
%ADD12C,3.175000*%
%ADD13C,0.777000*%
%ADD14C,0.228344*%
%ADD15C,1.727000*%
%ADD16C,0.227778*%
%ADD17C,3.377000*%
%ADD18C,2.677000*%
%ADD19C,1.627000*%
%ADD20C,0.228600*%
%ADD21C,2.006600*%
%ADD22C,1.927000*%
%ADD23C,2.127000*%
%ADD24C,2.327000*%
%ADD25C,0.877000*%
%ADD26C,2.667000*%
%ADD27C,1.270000*%

G36*
X292793Y579383D02*
X292793Y579383D01*
X292851Y579381D01*
X292933Y579403D01*
X293017Y579415D01*
X293070Y579439D01*
X293126Y579453D01*
X293199Y579496D01*
X293276Y579531D01*
X293321Y579569D01*
X293371Y579599D01*
X293429Y579660D01*
X293493Y579715D01*
X293525Y579763D01*
X293565Y579806D01*
X293604Y579881D01*
X293651Y579951D01*
X293668Y580007D01*
X293695Y580059D01*
X293706Y580127D01*
X293736Y580222D01*
X293739Y580322D01*
X293750Y580390D01*
X293750Y689610D01*
X293742Y689668D01*
X293744Y689726D01*
X293722Y689808D01*
X293710Y689892D01*
X293687Y689945D01*
X293672Y690001D01*
X293629Y690074D01*
X293594Y690151D01*
X293556Y690196D01*
X293527Y690246D01*
X293465Y690304D01*
X293411Y690368D01*
X293362Y690400D01*
X293319Y690440D01*
X293244Y690479D01*
X293174Y690526D01*
X293118Y690543D01*
X293066Y690570D01*
X292998Y690581D01*
X292903Y690611D01*
X292803Y690614D01*
X292735Y690625D01*
X259715Y690625D01*
X259657Y690617D01*
X259599Y690619D01*
X259517Y690597D01*
X259434Y690585D01*
X259380Y690562D01*
X259324Y690547D01*
X259251Y690504D01*
X259174Y690469D01*
X259129Y690431D01*
X259079Y690402D01*
X259021Y690340D01*
X258957Y690286D01*
X258925Y690237D01*
X258885Y690194D01*
X258846Y690119D01*
X258800Y690049D01*
X258782Y689993D01*
X258755Y689941D01*
X258744Y689873D01*
X258714Y689778D01*
X258711Y689678D01*
X258700Y689610D01*
X258700Y580390D01*
X258708Y580332D01*
X258706Y580274D01*
X258728Y580192D01*
X258740Y580109D01*
X258764Y580055D01*
X258778Y579999D01*
X258821Y579926D01*
X258856Y579849D01*
X258894Y579804D01*
X258924Y579754D01*
X258985Y579696D01*
X259040Y579632D01*
X259088Y579600D01*
X259131Y579560D01*
X259206Y579521D01*
X259276Y579475D01*
X259332Y579457D01*
X259384Y579430D01*
X259452Y579419D01*
X259547Y579389D01*
X259647Y579386D01*
X259715Y579375D01*
X292735Y579375D01*
X292793Y579383D01*
G37*
G36*
X413443Y575573D02*
X413443Y575573D01*
X413501Y575571D01*
X413583Y575593D01*
X413667Y575605D01*
X413720Y575629D01*
X413776Y575643D01*
X413849Y575686D01*
X413926Y575721D01*
X413971Y575759D01*
X414021Y575789D01*
X414079Y575850D01*
X414143Y575905D01*
X414175Y575953D01*
X414215Y575996D01*
X414254Y576071D01*
X414301Y576141D01*
X414318Y576197D01*
X414345Y576249D01*
X414356Y576317D01*
X414386Y576412D01*
X414389Y576512D01*
X414400Y576580D01*
X414400Y585725D01*
X440310Y585725D01*
X440310Y576580D01*
X440318Y576522D01*
X440316Y576464D01*
X440338Y576382D01*
X440350Y576299D01*
X440374Y576245D01*
X440388Y576189D01*
X440431Y576116D01*
X440466Y576039D01*
X440504Y575994D01*
X440534Y575944D01*
X440595Y575886D01*
X440650Y575822D01*
X440698Y575790D01*
X440741Y575750D01*
X440816Y575711D01*
X440886Y575665D01*
X440942Y575647D01*
X440994Y575620D01*
X441062Y575609D01*
X441157Y575579D01*
X441257Y575576D01*
X441325Y575565D01*
X467995Y575565D01*
X468053Y575573D01*
X468111Y575571D01*
X468193Y575593D01*
X468277Y575605D01*
X468330Y575629D01*
X468386Y575643D01*
X468459Y575686D01*
X468536Y575721D01*
X468581Y575759D01*
X468631Y575789D01*
X468689Y575850D01*
X468753Y575905D01*
X468785Y575953D01*
X468825Y575996D01*
X468864Y576071D01*
X468911Y576141D01*
X468928Y576197D01*
X468955Y576249D01*
X468966Y576317D01*
X468996Y576412D01*
X468999Y576512D01*
X469010Y576580D01*
X469010Y600710D01*
X469002Y600768D01*
X469004Y600826D01*
X468982Y600908D01*
X468970Y600992D01*
X468947Y601045D01*
X468932Y601101D01*
X468889Y601174D01*
X468854Y601251D01*
X468816Y601296D01*
X468787Y601346D01*
X468725Y601404D01*
X468671Y601468D01*
X468622Y601500D01*
X468579Y601540D01*
X468504Y601579D01*
X468434Y601626D01*
X468378Y601643D01*
X468326Y601670D01*
X468258Y601681D01*
X468163Y601711D01*
X468063Y601714D01*
X467995Y601725D01*
X389255Y601725D01*
X389197Y601717D01*
X389139Y601719D01*
X389057Y601697D01*
X388974Y601685D01*
X388920Y601662D01*
X388864Y601647D01*
X388791Y601604D01*
X388714Y601569D01*
X388669Y601531D01*
X388619Y601502D01*
X388561Y601440D01*
X388497Y601386D01*
X388465Y601337D01*
X388425Y601294D01*
X388386Y601219D01*
X388340Y601149D01*
X388322Y601093D01*
X388295Y601041D01*
X388284Y600973D01*
X388254Y600878D01*
X388251Y600778D01*
X388240Y600710D01*
X388240Y576580D01*
X388248Y576522D01*
X388246Y576464D01*
X388268Y576382D01*
X388280Y576299D01*
X388304Y576245D01*
X388318Y576189D01*
X388361Y576116D01*
X388396Y576039D01*
X388434Y575994D01*
X388464Y575944D01*
X388525Y575886D01*
X388580Y575822D01*
X388628Y575790D01*
X388671Y575750D01*
X388746Y575711D01*
X388816Y575665D01*
X388872Y575647D01*
X388924Y575620D01*
X388992Y575609D01*
X389087Y575579D01*
X389187Y575576D01*
X389255Y575565D01*
X413385Y575565D01*
X413443Y575573D01*
G37*
G36*
X114993Y579383D02*
X114993Y579383D01*
X115051Y579381D01*
X115133Y579403D01*
X115217Y579415D01*
X115270Y579439D01*
X115326Y579453D01*
X115399Y579496D01*
X115476Y579531D01*
X115521Y579569D01*
X115571Y579599D01*
X115629Y579660D01*
X115693Y579715D01*
X115725Y579763D01*
X115765Y579806D01*
X115804Y579881D01*
X115851Y579951D01*
X115868Y580007D01*
X115895Y580059D01*
X115906Y580127D01*
X115936Y580222D01*
X115939Y580322D01*
X115950Y580390D01*
X115950Y626110D01*
X115943Y626163D01*
X115944Y626193D01*
X115943Y626196D01*
X115944Y626226D01*
X115922Y626308D01*
X115910Y626392D01*
X115887Y626445D01*
X115872Y626501D01*
X115829Y626574D01*
X115794Y626651D01*
X115756Y626696D01*
X115727Y626746D01*
X115665Y626804D01*
X115611Y626868D01*
X115562Y626900D01*
X115519Y626940D01*
X115444Y626979D01*
X115374Y627026D01*
X115318Y627043D01*
X115266Y627070D01*
X115198Y627081D01*
X115103Y627111D01*
X115003Y627114D01*
X114935Y627125D01*
X81915Y627125D01*
X81857Y627117D01*
X81799Y627119D01*
X81717Y627097D01*
X81634Y627085D01*
X81580Y627062D01*
X81524Y627047D01*
X81451Y627004D01*
X81374Y626969D01*
X81329Y626931D01*
X81279Y626902D01*
X81221Y626840D01*
X81157Y626786D01*
X81125Y626737D01*
X81085Y626694D01*
X81046Y626619D01*
X81000Y626549D01*
X80982Y626493D01*
X80955Y626441D01*
X80944Y626373D01*
X80914Y626278D01*
X80911Y626178D01*
X80900Y626110D01*
X80900Y580390D01*
X80908Y580332D01*
X80906Y580274D01*
X80928Y580192D01*
X80940Y580109D01*
X80964Y580055D01*
X80978Y579999D01*
X81021Y579926D01*
X81056Y579849D01*
X81094Y579804D01*
X81124Y579754D01*
X81185Y579696D01*
X81240Y579632D01*
X81288Y579600D01*
X81331Y579560D01*
X81406Y579521D01*
X81476Y579475D01*
X81532Y579457D01*
X81584Y579430D01*
X81652Y579419D01*
X81747Y579389D01*
X81847Y579386D01*
X81915Y579375D01*
X114935Y579375D01*
X114993Y579383D01*
G37*
G36*
X114993Y636533D02*
X114993Y636533D01*
X115051Y636531D01*
X115133Y636553D01*
X115217Y636565D01*
X115270Y636589D01*
X115326Y636603D01*
X115399Y636646D01*
X115476Y636681D01*
X115521Y636719D01*
X115571Y636749D01*
X115629Y636810D01*
X115693Y636865D01*
X115725Y636913D01*
X115765Y636956D01*
X115804Y637031D01*
X115851Y637101D01*
X115868Y637157D01*
X115895Y637209D01*
X115906Y637277D01*
X115936Y637372D01*
X115939Y637472D01*
X115950Y637540D01*
X115950Y689610D01*
X115942Y689668D01*
X115944Y689726D01*
X115922Y689808D01*
X115910Y689892D01*
X115887Y689945D01*
X115872Y690001D01*
X115829Y690074D01*
X115794Y690151D01*
X115756Y690196D01*
X115727Y690246D01*
X115665Y690304D01*
X115611Y690368D01*
X115562Y690400D01*
X115519Y690440D01*
X115444Y690479D01*
X115374Y690526D01*
X115318Y690543D01*
X115266Y690570D01*
X115198Y690581D01*
X115103Y690611D01*
X115003Y690614D01*
X114935Y690625D01*
X88265Y690625D01*
X88207Y690617D01*
X88149Y690619D01*
X88067Y690597D01*
X87984Y690585D01*
X87930Y690562D01*
X87874Y690547D01*
X87801Y690504D01*
X87724Y690469D01*
X87679Y690431D01*
X87629Y690402D01*
X87571Y690340D01*
X87507Y690286D01*
X87475Y690237D01*
X87435Y690194D01*
X87396Y690119D01*
X87350Y690049D01*
X87332Y689993D01*
X87305Y689941D01*
X87294Y689873D01*
X87264Y689778D01*
X87261Y689678D01*
X87250Y689610D01*
X87250Y637540D01*
X87258Y637482D01*
X87256Y637424D01*
X87278Y637342D01*
X87290Y637259D01*
X87314Y637205D01*
X87328Y637149D01*
X87371Y637076D01*
X87406Y636999D01*
X87444Y636954D01*
X87474Y636904D01*
X87535Y636846D01*
X87590Y636782D01*
X87638Y636750D01*
X87681Y636710D01*
X87756Y636671D01*
X87826Y636625D01*
X87882Y636607D01*
X87934Y636580D01*
X88002Y636569D01*
X88097Y636539D01*
X88197Y636536D01*
X88265Y636525D01*
X114935Y636525D01*
X114993Y636533D01*
G37*
G36*
X333694Y886472D02*
X333694Y886472D01*
X333760Y886474D01*
X333803Y886492D01*
X333850Y886500D01*
X333907Y886534D01*
X333967Y886559D01*
X334002Y886590D01*
X334043Y886615D01*
X334085Y886666D01*
X334133Y886710D01*
X334155Y886752D01*
X334184Y886789D01*
X334205Y886851D01*
X334236Y886910D01*
X334244Y886964D01*
X334256Y887001D01*
X334255Y887041D01*
X334263Y887095D01*
X334263Y890905D01*
X334252Y890970D01*
X334250Y891036D01*
X334232Y891079D01*
X334224Y891126D01*
X334190Y891183D01*
X334165Y891243D01*
X334134Y891278D01*
X334109Y891319D01*
X334058Y891361D01*
X334014Y891409D01*
X333972Y891431D01*
X333935Y891460D01*
X333873Y891481D01*
X333814Y891512D01*
X333760Y891520D01*
X333723Y891532D01*
X333683Y891531D01*
X333629Y891539D01*
X320421Y891539D01*
X320356Y891528D01*
X320290Y891526D01*
X320247Y891508D01*
X320200Y891500D01*
X320143Y891466D01*
X320083Y891441D01*
X320048Y891410D01*
X320007Y891385D01*
X319966Y891334D01*
X319917Y891290D01*
X319895Y891248D01*
X319866Y891211D01*
X319845Y891149D01*
X319814Y891090D01*
X319806Y891036D01*
X319794Y890999D01*
X319794Y890995D01*
X319794Y890994D01*
X319795Y890959D01*
X319787Y890905D01*
X319787Y887095D01*
X319798Y887030D01*
X319800Y886964D01*
X319818Y886921D01*
X319826Y886874D01*
X319860Y886817D01*
X319885Y886757D01*
X319916Y886722D01*
X319941Y886681D01*
X319992Y886640D01*
X320036Y886591D01*
X320078Y886569D01*
X320115Y886540D01*
X320177Y886519D01*
X320236Y886488D01*
X320290Y886480D01*
X320327Y886468D01*
X320367Y886469D01*
X320421Y886461D01*
X333629Y886461D01*
X333694Y886472D01*
G37*
G36*
X308294Y886472D02*
X308294Y886472D01*
X308360Y886474D01*
X308403Y886492D01*
X308450Y886500D01*
X308507Y886534D01*
X308567Y886559D01*
X308602Y886590D01*
X308643Y886615D01*
X308685Y886666D01*
X308733Y886710D01*
X308755Y886752D01*
X308784Y886789D01*
X308805Y886851D01*
X308836Y886910D01*
X308844Y886964D01*
X308856Y887001D01*
X308855Y887041D01*
X308863Y887095D01*
X308863Y890905D01*
X308852Y890970D01*
X308850Y891036D01*
X308832Y891079D01*
X308824Y891126D01*
X308790Y891183D01*
X308765Y891243D01*
X308734Y891278D01*
X308709Y891319D01*
X308658Y891361D01*
X308614Y891409D01*
X308572Y891431D01*
X308535Y891460D01*
X308473Y891481D01*
X308414Y891512D01*
X308360Y891520D01*
X308323Y891532D01*
X308283Y891531D01*
X308229Y891539D01*
X295021Y891539D01*
X294956Y891528D01*
X294890Y891526D01*
X294847Y891508D01*
X294800Y891500D01*
X294743Y891466D01*
X294683Y891441D01*
X294648Y891410D01*
X294607Y891385D01*
X294566Y891334D01*
X294517Y891290D01*
X294495Y891248D01*
X294466Y891211D01*
X294445Y891149D01*
X294414Y891090D01*
X294406Y891036D01*
X294394Y890999D01*
X294394Y890995D01*
X294394Y890994D01*
X294395Y890959D01*
X294387Y890905D01*
X294387Y887095D01*
X294398Y887030D01*
X294400Y886964D01*
X294418Y886921D01*
X294426Y886874D01*
X294460Y886817D01*
X294485Y886757D01*
X294516Y886722D01*
X294541Y886681D01*
X294592Y886640D01*
X294636Y886591D01*
X294678Y886569D01*
X294715Y886540D01*
X294777Y886519D01*
X294836Y886488D01*
X294890Y886480D01*
X294927Y886468D01*
X294967Y886469D01*
X295021Y886461D01*
X308229Y886461D01*
X308294Y886472D01*
G37*
G36*
X79694Y784872D02*
X79694Y784872D01*
X79760Y784874D01*
X79803Y784892D01*
X79850Y784900D01*
X79907Y784934D01*
X79967Y784959D01*
X80002Y784990D01*
X80043Y785015D01*
X80085Y785066D01*
X80133Y785110D01*
X80155Y785152D01*
X80184Y785189D01*
X80205Y785251D01*
X80236Y785310D01*
X80244Y785364D01*
X80256Y785401D01*
X80255Y785441D01*
X80263Y785495D01*
X80263Y789305D01*
X80252Y789370D01*
X80250Y789436D01*
X80232Y789479D01*
X80224Y789526D01*
X80190Y789583D01*
X80165Y789643D01*
X80134Y789678D01*
X80109Y789719D01*
X80058Y789761D01*
X80014Y789809D01*
X79972Y789831D01*
X79935Y789860D01*
X79873Y789881D01*
X79814Y789912D01*
X79760Y789920D01*
X79723Y789932D01*
X79683Y789931D01*
X79629Y789939D01*
X66421Y789939D01*
X66356Y789928D01*
X66290Y789926D01*
X66247Y789908D01*
X66200Y789900D01*
X66143Y789866D01*
X66083Y789841D01*
X66048Y789810D01*
X66007Y789785D01*
X65966Y789734D01*
X65917Y789690D01*
X65895Y789648D01*
X65866Y789611D01*
X65845Y789549D01*
X65814Y789490D01*
X65806Y789436D01*
X65794Y789399D01*
X65794Y789395D01*
X65794Y789394D01*
X65795Y789359D01*
X65787Y789305D01*
X65787Y785495D01*
X65798Y785430D01*
X65800Y785364D01*
X65818Y785321D01*
X65826Y785274D01*
X65860Y785217D01*
X65885Y785157D01*
X65916Y785122D01*
X65941Y785081D01*
X65992Y785040D01*
X66036Y784991D01*
X66078Y784969D01*
X66115Y784940D01*
X66177Y784919D01*
X66236Y784888D01*
X66290Y784880D01*
X66327Y784868D01*
X66367Y784869D01*
X66421Y784861D01*
X79629Y784861D01*
X79694Y784872D01*
G37*
G36*
X105094Y784872D02*
X105094Y784872D01*
X105160Y784874D01*
X105203Y784892D01*
X105250Y784900D01*
X105307Y784934D01*
X105367Y784959D01*
X105402Y784990D01*
X105443Y785015D01*
X105485Y785066D01*
X105533Y785110D01*
X105555Y785152D01*
X105584Y785189D01*
X105605Y785251D01*
X105636Y785310D01*
X105644Y785364D01*
X105656Y785401D01*
X105655Y785441D01*
X105663Y785495D01*
X105663Y789305D01*
X105652Y789370D01*
X105650Y789436D01*
X105632Y789479D01*
X105624Y789526D01*
X105590Y789583D01*
X105565Y789643D01*
X105534Y789678D01*
X105509Y789719D01*
X105458Y789761D01*
X105414Y789809D01*
X105372Y789831D01*
X105335Y789860D01*
X105273Y789881D01*
X105214Y789912D01*
X105160Y789920D01*
X105123Y789932D01*
X105083Y789931D01*
X105029Y789939D01*
X91821Y789939D01*
X91756Y789928D01*
X91690Y789926D01*
X91647Y789908D01*
X91600Y789900D01*
X91543Y789866D01*
X91483Y789841D01*
X91448Y789810D01*
X91407Y789785D01*
X91366Y789734D01*
X91317Y789690D01*
X91295Y789648D01*
X91266Y789611D01*
X91245Y789549D01*
X91214Y789490D01*
X91206Y789436D01*
X91194Y789399D01*
X91194Y789395D01*
X91194Y789394D01*
X91195Y789359D01*
X91187Y789305D01*
X91187Y785495D01*
X91198Y785430D01*
X91200Y785364D01*
X91218Y785321D01*
X91226Y785274D01*
X91260Y785217D01*
X91285Y785157D01*
X91316Y785122D01*
X91341Y785081D01*
X91392Y785040D01*
X91436Y784991D01*
X91478Y784969D01*
X91515Y784940D01*
X91577Y784919D01*
X91636Y784888D01*
X91690Y784880D01*
X91727Y784868D01*
X91767Y784869D01*
X91821Y784861D01*
X105029Y784861D01*
X105094Y784872D01*
G37*
G36*
X748095Y767473D02*
X748095Y767473D01*
X748161Y767475D01*
X748204Y767493D01*
X748251Y767501D01*
X748308Y767535D01*
X748368Y767560D01*
X748403Y767591D01*
X748444Y767616D01*
X748486Y767667D01*
X748534Y767711D01*
X748556Y767753D01*
X748585Y767790D01*
X748606Y767852D01*
X748637Y767911D01*
X748645Y767965D01*
X748657Y768002D01*
X748656Y768042D01*
X748664Y768096D01*
X748664Y781304D01*
X748653Y781369D01*
X748651Y781435D01*
X748633Y781478D01*
X748625Y781525D01*
X748591Y781582D01*
X748566Y781642D01*
X748535Y781677D01*
X748510Y781718D01*
X748459Y781760D01*
X748415Y781808D01*
X748373Y781830D01*
X748336Y781859D01*
X748274Y781880D01*
X748215Y781911D01*
X748161Y781919D01*
X748124Y781931D01*
X748084Y781930D01*
X748030Y781938D01*
X744220Y781938D01*
X744155Y781927D01*
X744089Y781925D01*
X744046Y781907D01*
X743999Y781899D01*
X743942Y781865D01*
X743882Y781840D01*
X743847Y781809D01*
X743806Y781784D01*
X743765Y781733D01*
X743716Y781689D01*
X743694Y781647D01*
X743665Y781610D01*
X743644Y781548D01*
X743613Y781489D01*
X743605Y781435D01*
X743593Y781398D01*
X743594Y781358D01*
X743586Y781304D01*
X743586Y768096D01*
X743597Y768031D01*
X743599Y767965D01*
X743617Y767922D01*
X743625Y767875D01*
X743659Y767818D01*
X743684Y767758D01*
X743715Y767723D01*
X743740Y767682D01*
X743791Y767641D01*
X743835Y767592D01*
X743877Y767570D01*
X743914Y767541D01*
X743976Y767520D01*
X744035Y767489D01*
X744089Y767481D01*
X744126Y767469D01*
X744166Y767470D01*
X744220Y767462D01*
X748030Y767462D01*
X748095Y767473D01*
G37*
G36*
X481395Y500773D02*
X481395Y500773D01*
X481461Y500775D01*
X481504Y500793D01*
X481551Y500801D01*
X481608Y500835D01*
X481668Y500860D01*
X481703Y500891D01*
X481744Y500916D01*
X481786Y500967D01*
X481834Y501011D01*
X481856Y501053D01*
X481885Y501090D01*
X481906Y501152D01*
X481937Y501211D01*
X481945Y501265D01*
X481957Y501302D01*
X481956Y501342D01*
X481964Y501396D01*
X481964Y514604D01*
X481953Y514669D01*
X481951Y514735D01*
X481933Y514778D01*
X481925Y514825D01*
X481891Y514882D01*
X481866Y514942D01*
X481835Y514977D01*
X481810Y515018D01*
X481759Y515060D01*
X481715Y515108D01*
X481673Y515130D01*
X481636Y515159D01*
X481574Y515180D01*
X481515Y515211D01*
X481461Y515219D01*
X481424Y515231D01*
X481384Y515230D01*
X481330Y515238D01*
X477520Y515238D01*
X477455Y515227D01*
X477389Y515225D01*
X477346Y515207D01*
X477299Y515199D01*
X477242Y515165D01*
X477182Y515140D01*
X477147Y515109D01*
X477106Y515084D01*
X477065Y515033D01*
X477016Y514989D01*
X476994Y514947D01*
X476965Y514910D01*
X476944Y514848D01*
X476913Y514789D01*
X476905Y514735D01*
X476893Y514698D01*
X476894Y514658D01*
X476886Y514604D01*
X476886Y501396D01*
X476897Y501331D01*
X476899Y501265D01*
X476917Y501222D01*
X476925Y501175D01*
X476959Y501118D01*
X476984Y501058D01*
X477015Y501023D01*
X477040Y500982D01*
X477091Y500941D01*
X477135Y500892D01*
X477177Y500870D01*
X477214Y500841D01*
X477276Y500820D01*
X477335Y500789D01*
X477389Y500781D01*
X477426Y500769D01*
X477466Y500770D01*
X477520Y500762D01*
X481330Y500762D01*
X481395Y500773D01*
G37*
G36*
X1014160Y86372D02*
X1014160Y86372D01*
X1014226Y86374D01*
X1014269Y86392D01*
X1014316Y86400D01*
X1014373Y86434D01*
X1014433Y86459D01*
X1014468Y86490D01*
X1014509Y86515D01*
X1014551Y86566D01*
X1014599Y86610D01*
X1014621Y86652D01*
X1014650Y86689D01*
X1014671Y86751D01*
X1014702Y86810D01*
X1014710Y86864D01*
X1014722Y86901D01*
X1014721Y86941D01*
X1014729Y86995D01*
X1014729Y90805D01*
X1014718Y90870D01*
X1014716Y90936D01*
X1014698Y90979D01*
X1014690Y91026D01*
X1014656Y91083D01*
X1014631Y91143D01*
X1014600Y91178D01*
X1014575Y91219D01*
X1014524Y91261D01*
X1014480Y91309D01*
X1014438Y91331D01*
X1014401Y91360D01*
X1014339Y91381D01*
X1014280Y91412D01*
X1014226Y91420D01*
X1014189Y91432D01*
X1014149Y91431D01*
X1014095Y91439D01*
X1011555Y91439D01*
X1011490Y91428D01*
X1011424Y91426D01*
X1011381Y91408D01*
X1011334Y91400D01*
X1011277Y91366D01*
X1011217Y91341D01*
X1011182Y91310D01*
X1011141Y91285D01*
X1011100Y91234D01*
X1011051Y91190D01*
X1011029Y91148D01*
X1011000Y91111D01*
X1010979Y91049D01*
X1010948Y90990D01*
X1010940Y90936D01*
X1010928Y90899D01*
X1010928Y90895D01*
X1010928Y90894D01*
X1010929Y90859D01*
X1010921Y90805D01*
X1010921Y86995D01*
X1010932Y86930D01*
X1010934Y86864D01*
X1010952Y86821D01*
X1010960Y86774D01*
X1010994Y86717D01*
X1011019Y86657D01*
X1011050Y86622D01*
X1011075Y86581D01*
X1011126Y86540D01*
X1011170Y86491D01*
X1011212Y86469D01*
X1011249Y86440D01*
X1011311Y86419D01*
X1011370Y86388D01*
X1011424Y86380D01*
X1011461Y86368D01*
X1011501Y86369D01*
X1011555Y86361D01*
X1014095Y86361D01*
X1014160Y86372D01*
G37*
G36*
X1268160Y86372D02*
X1268160Y86372D01*
X1268226Y86374D01*
X1268269Y86392D01*
X1268316Y86400D01*
X1268373Y86434D01*
X1268433Y86459D01*
X1268468Y86490D01*
X1268509Y86515D01*
X1268551Y86566D01*
X1268599Y86610D01*
X1268621Y86652D01*
X1268650Y86689D01*
X1268671Y86751D01*
X1268702Y86810D01*
X1268710Y86864D01*
X1268722Y86901D01*
X1268721Y86941D01*
X1268729Y86995D01*
X1268729Y90805D01*
X1268718Y90870D01*
X1268716Y90936D01*
X1268698Y90979D01*
X1268690Y91026D01*
X1268656Y91083D01*
X1268631Y91143D01*
X1268600Y91178D01*
X1268575Y91219D01*
X1268524Y91261D01*
X1268480Y91309D01*
X1268438Y91331D01*
X1268401Y91360D01*
X1268339Y91381D01*
X1268280Y91412D01*
X1268226Y91420D01*
X1268189Y91432D01*
X1268149Y91431D01*
X1268095Y91439D01*
X1265555Y91439D01*
X1265490Y91428D01*
X1265424Y91426D01*
X1265381Y91408D01*
X1265334Y91400D01*
X1265277Y91366D01*
X1265217Y91341D01*
X1265182Y91310D01*
X1265141Y91285D01*
X1265100Y91234D01*
X1265051Y91190D01*
X1265029Y91148D01*
X1265000Y91111D01*
X1264979Y91049D01*
X1264948Y90990D01*
X1264940Y90936D01*
X1264928Y90899D01*
X1264928Y90895D01*
X1264928Y90894D01*
X1264929Y90859D01*
X1264921Y90805D01*
X1264921Y86995D01*
X1264932Y86930D01*
X1264934Y86864D01*
X1264952Y86821D01*
X1264960Y86774D01*
X1264994Y86717D01*
X1265019Y86657D01*
X1265050Y86622D01*
X1265075Y86581D01*
X1265126Y86540D01*
X1265170Y86491D01*
X1265212Y86469D01*
X1265249Y86440D01*
X1265311Y86419D01*
X1265370Y86388D01*
X1265424Y86380D01*
X1265461Y86368D01*
X1265501Y86369D01*
X1265555Y86361D01*
X1268095Y86361D01*
X1268160Y86372D01*
G37*
G36*
X1395160Y29222D02*
X1395160Y29222D01*
X1395226Y29224D01*
X1395269Y29242D01*
X1395316Y29250D01*
X1395373Y29284D01*
X1395433Y29309D01*
X1395468Y29340D01*
X1395509Y29365D01*
X1395551Y29416D01*
X1395599Y29460D01*
X1395621Y29502D01*
X1395650Y29539D01*
X1395671Y29601D01*
X1395702Y29660D01*
X1395710Y29714D01*
X1395722Y29751D01*
X1395721Y29791D01*
X1395729Y29845D01*
X1395729Y33655D01*
X1395718Y33720D01*
X1395716Y33786D01*
X1395698Y33829D01*
X1395690Y33876D01*
X1395656Y33933D01*
X1395631Y33993D01*
X1395600Y34028D01*
X1395575Y34069D01*
X1395524Y34111D01*
X1395480Y34159D01*
X1395438Y34181D01*
X1395401Y34210D01*
X1395339Y34231D01*
X1395280Y34262D01*
X1395226Y34270D01*
X1395189Y34282D01*
X1395149Y34281D01*
X1395095Y34289D01*
X1392555Y34289D01*
X1392490Y34278D01*
X1392424Y34276D01*
X1392381Y34258D01*
X1392334Y34250D01*
X1392277Y34216D01*
X1392217Y34191D01*
X1392182Y34160D01*
X1392141Y34135D01*
X1392100Y34084D01*
X1392051Y34040D01*
X1392029Y33998D01*
X1392000Y33961D01*
X1391979Y33899D01*
X1391948Y33840D01*
X1391940Y33786D01*
X1391928Y33749D01*
X1391928Y33745D01*
X1391928Y33744D01*
X1391929Y33709D01*
X1391921Y33655D01*
X1391921Y29845D01*
X1391932Y29780D01*
X1391934Y29714D01*
X1391952Y29671D01*
X1391960Y29624D01*
X1391994Y29567D01*
X1392019Y29507D01*
X1392050Y29472D01*
X1392075Y29431D01*
X1392126Y29390D01*
X1392170Y29341D01*
X1392212Y29319D01*
X1392249Y29290D01*
X1392311Y29269D01*
X1392370Y29238D01*
X1392424Y29230D01*
X1392461Y29218D01*
X1392501Y29219D01*
X1392555Y29211D01*
X1395095Y29211D01*
X1395160Y29222D01*
G37*
G36*
X1141160Y29222D02*
X1141160Y29222D01*
X1141226Y29224D01*
X1141269Y29242D01*
X1141316Y29250D01*
X1141373Y29284D01*
X1141433Y29309D01*
X1141468Y29340D01*
X1141509Y29365D01*
X1141551Y29416D01*
X1141599Y29460D01*
X1141621Y29502D01*
X1141650Y29539D01*
X1141671Y29601D01*
X1141702Y29660D01*
X1141710Y29714D01*
X1141722Y29751D01*
X1141721Y29791D01*
X1141729Y29845D01*
X1141729Y33655D01*
X1141718Y33720D01*
X1141716Y33786D01*
X1141698Y33829D01*
X1141690Y33876D01*
X1141656Y33933D01*
X1141631Y33993D01*
X1141600Y34028D01*
X1141575Y34069D01*
X1141524Y34111D01*
X1141480Y34159D01*
X1141438Y34181D01*
X1141401Y34210D01*
X1141339Y34231D01*
X1141280Y34262D01*
X1141226Y34270D01*
X1141189Y34282D01*
X1141149Y34281D01*
X1141095Y34289D01*
X1138555Y34289D01*
X1138490Y34278D01*
X1138424Y34276D01*
X1138381Y34258D01*
X1138334Y34250D01*
X1138277Y34216D01*
X1138217Y34191D01*
X1138182Y34160D01*
X1138141Y34135D01*
X1138100Y34084D01*
X1138051Y34040D01*
X1138029Y33998D01*
X1138000Y33961D01*
X1137979Y33899D01*
X1137948Y33840D01*
X1137940Y33786D01*
X1137928Y33749D01*
X1137928Y33745D01*
X1137928Y33744D01*
X1137929Y33709D01*
X1137921Y33655D01*
X1137921Y29845D01*
X1137932Y29780D01*
X1137934Y29714D01*
X1137952Y29671D01*
X1137960Y29624D01*
X1137994Y29567D01*
X1138019Y29507D01*
X1138050Y29472D01*
X1138075Y29431D01*
X1138126Y29390D01*
X1138170Y29341D01*
X1138212Y29319D01*
X1138249Y29290D01*
X1138311Y29269D01*
X1138370Y29238D01*
X1138424Y29230D01*
X1138461Y29218D01*
X1138501Y29219D01*
X1138555Y29211D01*
X1141095Y29211D01*
X1141160Y29222D01*
G37*
G36*
X97855Y982357D02*
X97855Y982357D01*
X97921Y982359D01*
X97964Y982377D01*
X98011Y982385D01*
X98068Y982419D01*
X98128Y982444D01*
X98163Y982475D01*
X98204Y982500D01*
X98246Y982551D01*
X98294Y982595D01*
X98316Y982637D01*
X98345Y982674D01*
X98366Y982736D01*
X98397Y982795D01*
X98405Y982849D01*
X98417Y982886D01*
X98416Y982926D01*
X98424Y982980D01*
X98424Y985520D01*
X98413Y985585D01*
X98411Y985651D01*
X98393Y985694D01*
X98385Y985741D01*
X98351Y985798D01*
X98326Y985858D01*
X98295Y985893D01*
X98270Y985934D01*
X98219Y985976D01*
X98175Y986024D01*
X98133Y986046D01*
X98096Y986075D01*
X98034Y986096D01*
X97975Y986127D01*
X97921Y986135D01*
X97884Y986147D01*
X97844Y986146D01*
X97790Y986154D01*
X93980Y986154D01*
X93915Y986143D01*
X93849Y986141D01*
X93806Y986123D01*
X93759Y986115D01*
X93702Y986081D01*
X93642Y986056D01*
X93607Y986025D01*
X93566Y986000D01*
X93525Y985949D01*
X93476Y985905D01*
X93454Y985863D01*
X93425Y985826D01*
X93404Y985764D01*
X93373Y985705D01*
X93365Y985651D01*
X93353Y985614D01*
X93353Y985611D01*
X93354Y985574D01*
X93346Y985520D01*
X93346Y982980D01*
X93357Y982915D01*
X93359Y982849D01*
X93377Y982806D01*
X93385Y982759D01*
X93419Y982702D01*
X93444Y982642D01*
X93475Y982607D01*
X93500Y982566D01*
X93551Y982525D01*
X93595Y982476D01*
X93637Y982454D01*
X93674Y982425D01*
X93736Y982404D01*
X93795Y982373D01*
X93849Y982365D01*
X93886Y982353D01*
X93926Y982354D01*
X93980Y982346D01*
X97790Y982346D01*
X97855Y982357D01*
G37*
G36*
X204535Y982357D02*
X204535Y982357D01*
X204601Y982359D01*
X204644Y982377D01*
X204691Y982385D01*
X204748Y982419D01*
X204808Y982444D01*
X204843Y982475D01*
X204884Y982500D01*
X204926Y982551D01*
X204974Y982595D01*
X204996Y982637D01*
X205025Y982674D01*
X205046Y982736D01*
X205077Y982795D01*
X205085Y982849D01*
X205097Y982886D01*
X205096Y982926D01*
X205104Y982980D01*
X205104Y985520D01*
X205093Y985585D01*
X205091Y985651D01*
X205073Y985694D01*
X205065Y985741D01*
X205031Y985798D01*
X205006Y985858D01*
X204975Y985893D01*
X204950Y985934D01*
X204899Y985976D01*
X204855Y986024D01*
X204813Y986046D01*
X204776Y986075D01*
X204714Y986096D01*
X204655Y986127D01*
X204601Y986135D01*
X204564Y986147D01*
X204524Y986146D01*
X204470Y986154D01*
X200660Y986154D01*
X200595Y986143D01*
X200529Y986141D01*
X200486Y986123D01*
X200439Y986115D01*
X200382Y986081D01*
X200322Y986056D01*
X200287Y986025D01*
X200246Y986000D01*
X200205Y985949D01*
X200156Y985905D01*
X200134Y985863D01*
X200105Y985826D01*
X200084Y985764D01*
X200053Y985705D01*
X200045Y985651D01*
X200033Y985614D01*
X200033Y985611D01*
X200034Y985574D01*
X200026Y985520D01*
X200026Y982980D01*
X200037Y982915D01*
X200039Y982849D01*
X200057Y982806D01*
X200065Y982759D01*
X200099Y982702D01*
X200124Y982642D01*
X200155Y982607D01*
X200180Y982566D01*
X200231Y982525D01*
X200275Y982476D01*
X200317Y982454D01*
X200354Y982425D01*
X200416Y982404D01*
X200475Y982373D01*
X200529Y982365D01*
X200566Y982353D01*
X200606Y982354D01*
X200660Y982346D01*
X204470Y982346D01*
X204535Y982357D01*
G37*
G36*
X616015Y341007D02*
X616015Y341007D01*
X616081Y341009D01*
X616124Y341027D01*
X616171Y341035D01*
X616228Y341069D01*
X616288Y341094D01*
X616323Y341125D01*
X616364Y341150D01*
X616406Y341201D01*
X616454Y341245D01*
X616476Y341287D01*
X616505Y341324D01*
X616526Y341386D01*
X616557Y341445D01*
X616565Y341499D01*
X616577Y341536D01*
X616576Y341576D01*
X616584Y341630D01*
X616584Y344170D01*
X616573Y344235D01*
X616571Y344301D01*
X616553Y344344D01*
X616545Y344391D01*
X616511Y344448D01*
X616486Y344508D01*
X616455Y344543D01*
X616430Y344584D01*
X616379Y344626D01*
X616335Y344674D01*
X616293Y344696D01*
X616256Y344725D01*
X616194Y344746D01*
X616135Y344777D01*
X616081Y344785D01*
X616044Y344797D01*
X616004Y344796D01*
X615950Y344804D01*
X612140Y344804D01*
X612075Y344793D01*
X612009Y344791D01*
X611966Y344773D01*
X611919Y344765D01*
X611862Y344731D01*
X611802Y344706D01*
X611767Y344675D01*
X611726Y344650D01*
X611685Y344599D01*
X611636Y344555D01*
X611614Y344513D01*
X611585Y344476D01*
X611564Y344414D01*
X611533Y344355D01*
X611525Y344301D01*
X611513Y344264D01*
X611513Y344261D01*
X611514Y344224D01*
X611506Y344170D01*
X611506Y341630D01*
X611517Y341565D01*
X611519Y341499D01*
X611537Y341456D01*
X611545Y341409D01*
X611579Y341352D01*
X611604Y341292D01*
X611635Y341257D01*
X611660Y341216D01*
X611711Y341175D01*
X611755Y341126D01*
X611797Y341104D01*
X611834Y341075D01*
X611896Y341054D01*
X611955Y341023D01*
X612009Y341015D01*
X612046Y341003D01*
X612086Y341004D01*
X612140Y340996D01*
X615950Y340996D01*
X616015Y341007D01*
G37*
G36*
X565215Y341007D02*
X565215Y341007D01*
X565281Y341009D01*
X565324Y341027D01*
X565371Y341035D01*
X565428Y341069D01*
X565488Y341094D01*
X565523Y341125D01*
X565564Y341150D01*
X565606Y341201D01*
X565654Y341245D01*
X565676Y341287D01*
X565705Y341324D01*
X565726Y341386D01*
X565757Y341445D01*
X565765Y341499D01*
X565777Y341536D01*
X565776Y341576D01*
X565784Y341630D01*
X565784Y344170D01*
X565773Y344235D01*
X565771Y344301D01*
X565753Y344344D01*
X565745Y344391D01*
X565711Y344448D01*
X565686Y344508D01*
X565655Y344543D01*
X565630Y344584D01*
X565579Y344626D01*
X565535Y344674D01*
X565493Y344696D01*
X565456Y344725D01*
X565394Y344746D01*
X565335Y344777D01*
X565281Y344785D01*
X565244Y344797D01*
X565204Y344796D01*
X565150Y344804D01*
X561340Y344804D01*
X561275Y344793D01*
X561209Y344791D01*
X561166Y344773D01*
X561119Y344765D01*
X561062Y344731D01*
X561002Y344706D01*
X560967Y344675D01*
X560926Y344650D01*
X560885Y344599D01*
X560836Y344555D01*
X560814Y344513D01*
X560785Y344476D01*
X560764Y344414D01*
X560733Y344355D01*
X560725Y344301D01*
X560713Y344264D01*
X560713Y344261D01*
X560714Y344224D01*
X560706Y344170D01*
X560706Y341630D01*
X560717Y341565D01*
X560719Y341499D01*
X560737Y341456D01*
X560745Y341409D01*
X560779Y341352D01*
X560804Y341292D01*
X560835Y341257D01*
X560860Y341216D01*
X560911Y341175D01*
X560955Y341126D01*
X560997Y341104D01*
X561034Y341075D01*
X561096Y341054D01*
X561155Y341023D01*
X561209Y341015D01*
X561246Y341003D01*
X561286Y341004D01*
X561340Y340996D01*
X565150Y340996D01*
X565215Y341007D01*
G37*
G36*
X765875Y150507D02*
X765875Y150507D01*
X765941Y150509D01*
X765984Y150527D01*
X766031Y150535D01*
X766088Y150569D01*
X766148Y150594D01*
X766183Y150625D01*
X766224Y150650D01*
X766266Y150701D01*
X766314Y150745D01*
X766336Y150787D01*
X766365Y150824D01*
X766386Y150886D01*
X766417Y150945D01*
X766425Y150999D01*
X766437Y151036D01*
X766436Y151076D01*
X766444Y151130D01*
X766444Y153670D01*
X766433Y153735D01*
X766431Y153801D01*
X766413Y153844D01*
X766405Y153891D01*
X766371Y153948D01*
X766346Y154008D01*
X766315Y154043D01*
X766290Y154084D01*
X766239Y154126D01*
X766195Y154174D01*
X766153Y154196D01*
X766116Y154225D01*
X766054Y154246D01*
X765995Y154277D01*
X765941Y154285D01*
X765904Y154297D01*
X765864Y154296D01*
X765810Y154304D01*
X762000Y154304D01*
X761935Y154293D01*
X761869Y154291D01*
X761826Y154273D01*
X761779Y154265D01*
X761722Y154231D01*
X761662Y154206D01*
X761627Y154175D01*
X761586Y154150D01*
X761545Y154099D01*
X761496Y154055D01*
X761474Y154013D01*
X761445Y153976D01*
X761424Y153914D01*
X761393Y153855D01*
X761385Y153801D01*
X761373Y153764D01*
X761373Y153761D01*
X761374Y153724D01*
X761366Y153670D01*
X761366Y151130D01*
X761377Y151065D01*
X761379Y150999D01*
X761397Y150956D01*
X761405Y150909D01*
X761439Y150852D01*
X761464Y150792D01*
X761495Y150757D01*
X761520Y150716D01*
X761571Y150675D01*
X761615Y150626D01*
X761657Y150604D01*
X761694Y150575D01*
X761756Y150554D01*
X761815Y150523D01*
X761869Y150515D01*
X761906Y150503D01*
X761946Y150504D01*
X762000Y150496D01*
X765810Y150496D01*
X765875Y150507D01*
G37*
G36*
X755715Y150507D02*
X755715Y150507D01*
X755781Y150509D01*
X755824Y150527D01*
X755871Y150535D01*
X755928Y150569D01*
X755988Y150594D01*
X756023Y150625D01*
X756064Y150650D01*
X756106Y150701D01*
X756154Y150745D01*
X756176Y150787D01*
X756205Y150824D01*
X756226Y150886D01*
X756257Y150945D01*
X756265Y150999D01*
X756277Y151036D01*
X756276Y151076D01*
X756284Y151130D01*
X756284Y153670D01*
X756273Y153735D01*
X756271Y153801D01*
X756253Y153844D01*
X756245Y153891D01*
X756211Y153948D01*
X756186Y154008D01*
X756155Y154043D01*
X756130Y154084D01*
X756079Y154126D01*
X756035Y154174D01*
X755993Y154196D01*
X755956Y154225D01*
X755894Y154246D01*
X755835Y154277D01*
X755781Y154285D01*
X755744Y154297D01*
X755704Y154296D01*
X755650Y154304D01*
X751840Y154304D01*
X751775Y154293D01*
X751709Y154291D01*
X751666Y154273D01*
X751619Y154265D01*
X751562Y154231D01*
X751502Y154206D01*
X751467Y154175D01*
X751426Y154150D01*
X751385Y154099D01*
X751336Y154055D01*
X751314Y154013D01*
X751285Y153976D01*
X751264Y153914D01*
X751233Y153855D01*
X751225Y153801D01*
X751213Y153764D01*
X751213Y153761D01*
X751214Y153724D01*
X751206Y153670D01*
X751206Y151130D01*
X751217Y151065D01*
X751219Y150999D01*
X751237Y150956D01*
X751245Y150909D01*
X751279Y150852D01*
X751304Y150792D01*
X751335Y150757D01*
X751360Y150716D01*
X751411Y150675D01*
X751455Y150626D01*
X751497Y150604D01*
X751534Y150575D01*
X751596Y150554D01*
X751655Y150523D01*
X751709Y150515D01*
X751746Y150503D01*
X751786Y150504D01*
X751840Y150496D01*
X755650Y150496D01*
X755715Y150507D01*
G37*
G36*
X125795Y29857D02*
X125795Y29857D01*
X125861Y29859D01*
X125904Y29877D01*
X125951Y29885D01*
X126008Y29919D01*
X126068Y29944D01*
X126103Y29975D01*
X126144Y30000D01*
X126186Y30051D01*
X126234Y30095D01*
X126256Y30137D01*
X126285Y30174D01*
X126306Y30236D01*
X126337Y30295D01*
X126345Y30349D01*
X126357Y30386D01*
X126356Y30426D01*
X126364Y30480D01*
X126364Y33020D01*
X126353Y33085D01*
X126351Y33151D01*
X126333Y33194D01*
X126325Y33241D01*
X126291Y33298D01*
X126266Y33358D01*
X126235Y33393D01*
X126210Y33434D01*
X126159Y33476D01*
X126115Y33524D01*
X126073Y33546D01*
X126036Y33575D01*
X125974Y33596D01*
X125915Y33627D01*
X125861Y33635D01*
X125824Y33647D01*
X125784Y33646D01*
X125730Y33654D01*
X121920Y33654D01*
X121855Y33643D01*
X121789Y33641D01*
X121746Y33623D01*
X121699Y33615D01*
X121642Y33581D01*
X121582Y33556D01*
X121547Y33525D01*
X121506Y33500D01*
X121465Y33449D01*
X121416Y33405D01*
X121394Y33363D01*
X121365Y33326D01*
X121344Y33264D01*
X121313Y33205D01*
X121305Y33151D01*
X121293Y33114D01*
X121293Y33111D01*
X121294Y33074D01*
X121286Y33020D01*
X121286Y30480D01*
X121297Y30415D01*
X121299Y30349D01*
X121317Y30306D01*
X121325Y30259D01*
X121359Y30202D01*
X121384Y30142D01*
X121415Y30107D01*
X121440Y30066D01*
X121491Y30025D01*
X121535Y29976D01*
X121577Y29954D01*
X121614Y29925D01*
X121676Y29904D01*
X121735Y29873D01*
X121789Y29865D01*
X121826Y29853D01*
X121866Y29854D01*
X121920Y29846D01*
X125730Y29846D01*
X125795Y29857D01*
G37*
D10*
X288925Y736600D02*
X288925Y685800D01*
D11*
X47625Y50800D03*
X1470025Y965200D03*
D12*
X1495425Y25400D03*
X1495425Y990600D03*
X22225Y990600D03*
D13*
X1110925Y49050D03*
X1168725Y49050D03*
D11*
X509925Y20320D03*
X429925Y20320D03*
D14*
X1133981Y34161D02*
X1133981Y39753D01*
X1145669Y39753D01*
X1145669Y34161D01*
X1133981Y34161D01*
X1133981Y36330D02*
X1145669Y36330D01*
X1145669Y38499D02*
X1133981Y38499D01*
X1133981Y29339D02*
X1133981Y23747D01*
X1133981Y29339D02*
X1145669Y29339D01*
X1145669Y23747D01*
X1133981Y23747D01*
X1133981Y25916D02*
X1145669Y25916D01*
X1145669Y28085D02*
X1133981Y28085D01*
X772035Y158244D02*
X766443Y158244D01*
X772035Y158244D02*
X772035Y146556D01*
X766443Y146556D01*
X766443Y158244D01*
X766443Y148725D02*
X772035Y148725D01*
X772035Y150894D02*
X766443Y150894D01*
X766443Y153063D02*
X772035Y153063D01*
X772035Y155232D02*
X766443Y155232D01*
X766443Y157401D02*
X772035Y157401D01*
X761621Y158244D02*
X756029Y158244D01*
X761621Y158244D02*
X761621Y146556D01*
X756029Y146556D01*
X756029Y158244D01*
X756029Y148725D02*
X761621Y148725D01*
X761621Y150894D02*
X756029Y150894D01*
X756029Y153063D02*
X761621Y153063D01*
X761621Y155232D02*
X756029Y155232D01*
X756029Y157401D02*
X761621Y157401D01*
X751207Y158244D02*
X745615Y158244D01*
X751207Y158244D02*
X751207Y146556D01*
X745615Y146556D01*
X745615Y158244D01*
X745615Y148725D02*
X751207Y148725D01*
X751207Y150894D02*
X745615Y150894D01*
X745615Y153063D02*
X751207Y153063D01*
X751207Y155232D02*
X745615Y155232D01*
X745615Y157401D02*
X751207Y157401D01*
D15*
X847725Y254000D03*
X581025Y406400D03*
D12*
X22225Y25400D03*
D16*
X942329Y973644D02*
X956321Y973644D01*
X942329Y973644D02*
X942329Y1012636D01*
X956321Y1012636D01*
X956321Y973644D01*
X956321Y975808D02*
X942329Y975808D01*
X942329Y977972D02*
X956321Y977972D01*
X956321Y980136D02*
X942329Y980136D01*
X942329Y982300D02*
X956321Y982300D01*
X956321Y984464D02*
X942329Y984464D01*
X942329Y986628D02*
X956321Y986628D01*
X956321Y988792D02*
X942329Y988792D01*
X942329Y990956D02*
X956321Y990956D01*
X956321Y993120D02*
X942329Y993120D01*
X942329Y995284D02*
X956321Y995284D01*
X956321Y997448D02*
X942329Y997448D01*
X942329Y999612D02*
X956321Y999612D01*
X956321Y1001776D02*
X942329Y1001776D01*
X942329Y1003940D02*
X956321Y1003940D01*
X956321Y1006104D02*
X942329Y1006104D01*
X942329Y1008268D02*
X956321Y1008268D01*
X956321Y1010432D02*
X942329Y1010432D01*
X942329Y1012596D02*
X956321Y1012596D01*
X993129Y973644D02*
X1007121Y973644D01*
X993129Y973644D02*
X993129Y1012636D01*
X1007121Y1012636D01*
X1007121Y973644D01*
X1007121Y975808D02*
X993129Y975808D01*
X993129Y977972D02*
X1007121Y977972D01*
X1007121Y980136D02*
X993129Y980136D01*
X993129Y982300D02*
X1007121Y982300D01*
X1007121Y984464D02*
X993129Y984464D01*
X993129Y986628D02*
X1007121Y986628D01*
X1007121Y988792D02*
X993129Y988792D01*
X993129Y990956D02*
X1007121Y990956D01*
X1007121Y993120D02*
X993129Y993120D01*
X993129Y995284D02*
X1007121Y995284D01*
X1007121Y997448D02*
X993129Y997448D01*
X993129Y999612D02*
X1007121Y999612D01*
X1007121Y1001776D02*
X993129Y1001776D01*
X993129Y1003940D02*
X1007121Y1003940D01*
X1007121Y1006104D02*
X993129Y1006104D01*
X993129Y1008268D02*
X1007121Y1008268D01*
X1007121Y1010432D02*
X993129Y1010432D01*
X993129Y1012596D02*
X1007121Y1012596D01*
D15*
X1063625Y876300D03*
D13*
X1364925Y49050D03*
X1422725Y49050D03*
D14*
X1387981Y39753D02*
X1387981Y34161D01*
X1387981Y39753D02*
X1399669Y39753D01*
X1399669Y34161D01*
X1387981Y34161D01*
X1387981Y36330D02*
X1399669Y36330D01*
X1399669Y38499D02*
X1387981Y38499D01*
X1387981Y29339D02*
X1387981Y23747D01*
X1387981Y29339D02*
X1399669Y29339D01*
X1399669Y23747D01*
X1387981Y23747D01*
X1387981Y25916D02*
X1399669Y25916D01*
X1399669Y28085D02*
X1387981Y28085D01*
D16*
X734071Y973644D02*
X720079Y973644D01*
X720079Y1012636D01*
X734071Y1012636D01*
X734071Y973644D01*
X734071Y975808D02*
X720079Y975808D01*
X720079Y977972D02*
X734071Y977972D01*
X734071Y980136D02*
X720079Y980136D01*
X720079Y982300D02*
X734071Y982300D01*
X734071Y984464D02*
X720079Y984464D01*
X720079Y986628D02*
X734071Y986628D01*
X734071Y988792D02*
X720079Y988792D01*
X720079Y990956D02*
X734071Y990956D01*
X734071Y993120D02*
X720079Y993120D01*
X720079Y995284D02*
X734071Y995284D01*
X734071Y997448D02*
X720079Y997448D01*
X720079Y999612D02*
X734071Y999612D01*
X734071Y1001776D02*
X720079Y1001776D01*
X720079Y1003940D02*
X734071Y1003940D01*
X734071Y1006104D02*
X720079Y1006104D01*
X720079Y1008268D02*
X734071Y1008268D01*
X734071Y1010432D02*
X720079Y1010432D01*
X720079Y1012596D02*
X734071Y1012596D01*
X770879Y973644D02*
X784871Y973644D01*
X770879Y973644D02*
X770879Y1012636D01*
X784871Y1012636D01*
X784871Y973644D01*
X784871Y975808D02*
X770879Y975808D01*
X770879Y977972D02*
X784871Y977972D01*
X784871Y980136D02*
X770879Y980136D01*
X770879Y982300D02*
X784871Y982300D01*
X784871Y984464D02*
X770879Y984464D01*
X770879Y986628D02*
X784871Y986628D01*
X784871Y988792D02*
X770879Y988792D01*
X770879Y990956D02*
X784871Y990956D01*
X784871Y993120D02*
X770879Y993120D01*
X770879Y995284D02*
X784871Y995284D01*
X784871Y997448D02*
X770879Y997448D01*
X770879Y999612D02*
X784871Y999612D01*
X784871Y1001776D02*
X770879Y1001776D01*
X770879Y1003940D02*
X784871Y1003940D01*
X784871Y1006104D02*
X770879Y1006104D01*
X770879Y1008268D02*
X784871Y1008268D01*
X784871Y1010432D02*
X770879Y1010432D01*
X770879Y1012596D02*
X784871Y1012596D01*
D17*
X206375Y922020D03*
X92075Y922020D03*
D18*
X227975Y891520D03*
X70475Y891520D03*
D19*
X193675Y858520D03*
X180975Y833120D03*
X168275Y858520D03*
X155575Y833120D03*
X142875Y858520D03*
X130175Y833120D03*
X117475Y858520D03*
X104775Y833120D03*
X206375Y833120D03*
X92075Y858520D03*
X190125Y962620D03*
X108325Y962620D03*
X215525Y962620D03*
X82925Y962620D03*
D20*
X509143Y832231D02*
X509143Y826897D01*
X509143Y832231D02*
X520827Y832231D01*
X520827Y826897D01*
X509143Y826897D01*
X509143Y829069D02*
X520827Y829069D01*
X520827Y831241D02*
X509143Y831241D01*
X509143Y824103D02*
X509143Y818769D01*
X509143Y824103D02*
X520827Y824103D01*
X520827Y818769D01*
X509143Y818769D01*
X509143Y820941D02*
X520827Y820941D01*
X520827Y823113D02*
X509143Y823113D01*
X529463Y826897D02*
X529463Y832231D01*
X541147Y832231D01*
X541147Y826897D01*
X529463Y826897D01*
X529463Y829069D02*
X541147Y829069D01*
X541147Y831241D02*
X529463Y831241D01*
X529463Y824103D02*
X529463Y818769D01*
X529463Y824103D02*
X541147Y824103D01*
X541147Y818769D01*
X529463Y818769D01*
X529463Y820941D02*
X541147Y820941D01*
X541147Y823113D02*
X529463Y823113D01*
X549783Y826897D02*
X549783Y832231D01*
X561467Y832231D01*
X561467Y826897D01*
X549783Y826897D01*
X549783Y829069D02*
X561467Y829069D01*
X561467Y831241D02*
X549783Y831241D01*
X549783Y824103D02*
X549783Y818769D01*
X549783Y824103D02*
X561467Y824103D01*
X561467Y818769D01*
X549783Y818769D01*
X549783Y820941D02*
X561467Y820941D01*
X561467Y823113D02*
X549783Y823113D01*
D14*
X210568Y990094D02*
X204976Y990094D01*
X210568Y990094D02*
X210568Y978406D01*
X204976Y978406D01*
X204976Y990094D01*
X204976Y980575D02*
X210568Y980575D01*
X210568Y982744D02*
X204976Y982744D01*
X204976Y984913D02*
X210568Y984913D01*
X210568Y987082D02*
X204976Y987082D01*
X204976Y989251D02*
X210568Y989251D01*
X200154Y990094D02*
X194562Y990094D01*
X200154Y990094D02*
X200154Y978406D01*
X194562Y978406D01*
X194562Y990094D01*
X194562Y980575D02*
X200154Y980575D01*
X200154Y982744D02*
X194562Y982744D01*
X194562Y984913D02*
X200154Y984913D01*
X200154Y987082D02*
X194562Y987082D01*
X194562Y989251D02*
X200154Y989251D01*
X93474Y978406D02*
X87882Y978406D01*
X87882Y990094D01*
X93474Y990094D01*
X93474Y978406D01*
X93474Y980575D02*
X87882Y980575D01*
X87882Y982744D02*
X93474Y982744D01*
X93474Y984913D02*
X87882Y984913D01*
X87882Y987082D02*
X93474Y987082D01*
X93474Y989251D02*
X87882Y989251D01*
X98296Y978406D02*
X103888Y978406D01*
X98296Y978406D02*
X98296Y990094D01*
X103888Y990094D01*
X103888Y978406D01*
X103888Y980575D02*
X98296Y980575D01*
X98296Y982744D02*
X103888Y982744D01*
X103888Y984913D02*
X98296Y984913D01*
X98296Y987082D02*
X103888Y987082D01*
X103888Y989251D02*
X98296Y989251D01*
D16*
X1386829Y973644D02*
X1400821Y973644D01*
X1386829Y973644D02*
X1386829Y1012636D01*
X1400821Y1012636D01*
X1400821Y973644D01*
X1400821Y975808D02*
X1386829Y975808D01*
X1386829Y977972D02*
X1400821Y977972D01*
X1400821Y980136D02*
X1386829Y980136D01*
X1386829Y982300D02*
X1400821Y982300D01*
X1400821Y984464D02*
X1386829Y984464D01*
X1386829Y986628D02*
X1400821Y986628D01*
X1400821Y988792D02*
X1386829Y988792D01*
X1386829Y990956D02*
X1400821Y990956D01*
X1400821Y993120D02*
X1386829Y993120D01*
X1386829Y995284D02*
X1400821Y995284D01*
X1400821Y997448D02*
X1386829Y997448D01*
X1386829Y999612D02*
X1400821Y999612D01*
X1400821Y1001776D02*
X1386829Y1001776D01*
X1386829Y1003940D02*
X1400821Y1003940D01*
X1400821Y1006104D02*
X1386829Y1006104D01*
X1386829Y1008268D02*
X1400821Y1008268D01*
X1400821Y1010432D02*
X1386829Y1010432D01*
X1386829Y1012596D02*
X1400821Y1012596D01*
X1437629Y973644D02*
X1451621Y973644D01*
X1437629Y973644D02*
X1437629Y1012636D01*
X1451621Y1012636D01*
X1451621Y973644D01*
X1451621Y975808D02*
X1437629Y975808D01*
X1437629Y977972D02*
X1451621Y977972D01*
X1451621Y980136D02*
X1437629Y980136D01*
X1437629Y982300D02*
X1451621Y982300D01*
X1451621Y984464D02*
X1437629Y984464D01*
X1437629Y986628D02*
X1451621Y986628D01*
X1451621Y988792D02*
X1437629Y988792D01*
X1437629Y990956D02*
X1451621Y990956D01*
X1451621Y993120D02*
X1437629Y993120D01*
X1437629Y995284D02*
X1451621Y995284D01*
X1451621Y997448D02*
X1437629Y997448D01*
X1437629Y999612D02*
X1451621Y999612D01*
X1451621Y1001776D02*
X1437629Y1001776D01*
X1437629Y1003940D02*
X1451621Y1003940D01*
X1451621Y1006104D02*
X1437629Y1006104D01*
X1437629Y1008268D02*
X1451621Y1008268D01*
X1451621Y1010432D02*
X1437629Y1010432D01*
X1437629Y1012596D02*
X1451621Y1012596D01*
D20*
X104267Y784987D02*
X104267Y779653D01*
X92583Y779653D01*
X92583Y784987D01*
X104267Y784987D01*
X104267Y781825D02*
X92583Y781825D01*
X92583Y783997D02*
X104267Y783997D01*
X104267Y789813D02*
X104267Y795147D01*
X104267Y789813D02*
X92583Y789813D01*
X92583Y795147D01*
X104267Y795147D01*
X104267Y791985D02*
X92583Y791985D01*
X92583Y794157D02*
X104267Y794157D01*
D21*
X98425Y774700D03*
X98425Y800100D03*
D20*
X78867Y784987D02*
X78867Y779653D01*
X67183Y779653D01*
X67183Y784987D01*
X78867Y784987D01*
X78867Y781825D02*
X67183Y781825D01*
X67183Y783997D02*
X78867Y783997D01*
X78867Y789813D02*
X78867Y795147D01*
X78867Y789813D02*
X67183Y789813D01*
X67183Y795147D01*
X78867Y795147D01*
X78867Y791985D02*
X67183Y791985D01*
X67183Y794157D02*
X78867Y794157D01*
D21*
X73025Y774700D03*
X73025Y800100D03*
D12*
X650875Y101600D03*
X866775Y101600D03*
D20*
X487172Y513842D02*
X481838Y513842D01*
X487172Y513842D02*
X487172Y502158D01*
X481838Y502158D01*
X481838Y513842D01*
X481838Y504330D02*
X487172Y504330D01*
X487172Y506502D02*
X481838Y506502D01*
X481838Y508674D02*
X487172Y508674D01*
X487172Y510846D02*
X481838Y510846D01*
X481838Y513018D02*
X487172Y513018D01*
X477012Y513842D02*
X471678Y513842D01*
X477012Y513842D02*
X477012Y502158D01*
X471678Y502158D01*
X471678Y513842D01*
X471678Y504330D02*
X477012Y504330D01*
X477012Y506502D02*
X471678Y506502D01*
X471678Y508674D02*
X477012Y508674D01*
X477012Y510846D02*
X471678Y510846D01*
X471678Y513018D02*
X477012Y513018D01*
D21*
X492125Y508000D03*
X466725Y508000D03*
D15*
X1266825Y127000D03*
X517525Y228600D03*
X568325Y241300D03*
X1089025Y152400D03*
X1114425Y152400D03*
X479425Y698500D03*
X415925Y431800D03*
X415925Y457200D03*
X708025Y381000D03*
X708025Y482600D03*
X631825Y584200D03*
X492125Y546100D03*
X466725Y546100D03*
X708025Y114300D03*
X809625Y114300D03*
X593725Y990600D03*
X542925Y990600D03*
X517525Y990600D03*
X415925Y482600D03*
X415925Y406400D03*
X1012825Y241300D03*
X1012825Y165100D03*
X161925Y127000D03*
X974725Y317500D03*
X1000125Y317500D03*
D22*
X990325Y38100D03*
X1035325Y38100D03*
D23*
X977825Y63100D03*
X1047825Y63100D03*
D22*
X1244325Y29210D03*
X1289325Y29210D03*
D23*
X1231825Y54210D03*
X1301825Y54210D03*
D14*
X131828Y37594D02*
X126236Y37594D01*
X131828Y37594D02*
X131828Y25906D01*
X126236Y25906D01*
X126236Y37594D01*
X126236Y28075D02*
X131828Y28075D01*
X131828Y30244D02*
X126236Y30244D01*
X126236Y32413D02*
X131828Y32413D01*
X131828Y34582D02*
X126236Y34582D01*
X126236Y36751D02*
X131828Y36751D01*
X121414Y37594D02*
X115822Y37594D01*
X121414Y37594D02*
X121414Y25906D01*
X115822Y25906D01*
X115822Y37594D01*
X115822Y28075D02*
X121414Y28075D01*
X121414Y30244D02*
X115822Y30244D01*
X115822Y32413D02*
X121414Y32413D01*
X121414Y34582D02*
X115822Y34582D01*
X115822Y36751D02*
X121414Y36751D01*
D15*
X111125Y56350D03*
X136525Y56350D03*
X479425Y152400D03*
X415925Y152400D03*
X504825Y152400D03*
X441325Y152400D03*
X466725Y317500D03*
D14*
X1006981Y96903D02*
X1006981Y91311D01*
X1006981Y96903D02*
X1018669Y96903D01*
X1018669Y91311D01*
X1006981Y91311D01*
X1006981Y93480D02*
X1018669Y93480D01*
X1018669Y95649D02*
X1006981Y95649D01*
X1006981Y86489D02*
X1006981Y80897D01*
X1006981Y86489D02*
X1018669Y86489D01*
X1018669Y80897D01*
X1006981Y80897D01*
X1006981Y83066D02*
X1018669Y83066D01*
X1018669Y85235D02*
X1006981Y85235D01*
X1260981Y91311D02*
X1260981Y96903D01*
X1272669Y96903D01*
X1272669Y91311D01*
X1260981Y91311D01*
X1260981Y93480D02*
X1272669Y93480D01*
X1272669Y95649D02*
X1260981Y95649D01*
X1260981Y86489D02*
X1260981Y80897D01*
X1260981Y86489D02*
X1272669Y86489D01*
X1272669Y80897D01*
X1260981Y80897D01*
X1260981Y83066D02*
X1272669Y83066D01*
X1272669Y85235D02*
X1260981Y85235D01*
D24*
X624225Y945250D02*
X624225Y967250D01*
X589225Y967250D02*
X589225Y945250D01*
X554225Y945250D02*
X554225Y967250D01*
X519225Y967250D02*
X519225Y945250D01*
X484225Y945250D02*
X484225Y967250D01*
X449225Y967250D02*
X449225Y945250D01*
X414225Y945250D02*
X414225Y967250D01*
X379225Y967250D02*
X379225Y945250D01*
X344225Y945250D02*
X344225Y967250D01*
X309225Y967250D02*
X309225Y945250D01*
D20*
X748538Y780542D02*
X753872Y780542D01*
X753872Y768858D01*
X748538Y768858D01*
X748538Y780542D01*
X748538Y771030D02*
X753872Y771030D01*
X753872Y773202D02*
X748538Y773202D01*
X748538Y775374D02*
X753872Y775374D01*
X753872Y777546D02*
X748538Y777546D01*
X748538Y779718D02*
X753872Y779718D01*
X743712Y780542D02*
X738378Y780542D01*
X743712Y780542D02*
X743712Y768858D01*
X738378Y768858D01*
X738378Y780542D01*
X738378Y771030D02*
X743712Y771030D01*
X743712Y773202D02*
X738378Y773202D01*
X738378Y775374D02*
X743712Y775374D01*
X743712Y777546D02*
X738378Y777546D01*
X738378Y779718D02*
X743712Y779718D01*
D21*
X758825Y774700D03*
X733425Y774700D03*
D15*
X390525Y152400D03*
X949325Y660400D03*
X568325Y990600D03*
D20*
X1326007Y189103D02*
X1326007Y183769D01*
X1314323Y183769D01*
X1314323Y189103D01*
X1326007Y189103D01*
X1326007Y185941D02*
X1314323Y185941D01*
X1314323Y188113D02*
X1326007Y188113D01*
X1326007Y191897D02*
X1326007Y197231D01*
X1326007Y191897D02*
X1314323Y191897D01*
X1314323Y197231D01*
X1326007Y197231D01*
X1326007Y194069D02*
X1314323Y194069D01*
X1314323Y196241D02*
X1326007Y196241D01*
X1346327Y189103D02*
X1346327Y183769D01*
X1334643Y183769D01*
X1334643Y189103D01*
X1346327Y189103D01*
X1346327Y185941D02*
X1334643Y185941D01*
X1334643Y188113D02*
X1346327Y188113D01*
X1346327Y191897D02*
X1346327Y197231D01*
X1346327Y191897D02*
X1334643Y191897D01*
X1334643Y197231D01*
X1346327Y197231D01*
X1346327Y194069D02*
X1334643Y194069D01*
X1334643Y196241D02*
X1346327Y196241D01*
D25*
X322705Y26160D03*
X237705Y26160D03*
D16*
X1164579Y973644D02*
X1178571Y973644D01*
X1164579Y973644D02*
X1164579Y1012636D01*
X1178571Y1012636D01*
X1178571Y973644D01*
X1178571Y975808D02*
X1164579Y975808D01*
X1164579Y977972D02*
X1178571Y977972D01*
X1178571Y980136D02*
X1164579Y980136D01*
X1164579Y982300D02*
X1178571Y982300D01*
X1178571Y984464D02*
X1164579Y984464D01*
X1164579Y986628D02*
X1178571Y986628D01*
X1178571Y988792D02*
X1164579Y988792D01*
X1164579Y990956D02*
X1178571Y990956D01*
X1178571Y993120D02*
X1164579Y993120D01*
X1164579Y995284D02*
X1178571Y995284D01*
X1178571Y997448D02*
X1164579Y997448D01*
X1164579Y999612D02*
X1178571Y999612D01*
X1178571Y1001776D02*
X1164579Y1001776D01*
X1164579Y1003940D02*
X1178571Y1003940D01*
X1178571Y1006104D02*
X1164579Y1006104D01*
X1164579Y1008268D02*
X1178571Y1008268D01*
X1178571Y1010432D02*
X1164579Y1010432D01*
X1164579Y1012596D02*
X1178571Y1012596D01*
X1215379Y973644D02*
X1229371Y973644D01*
X1215379Y973644D02*
X1215379Y1012636D01*
X1229371Y1012636D01*
X1229371Y973644D01*
X1229371Y975808D02*
X1215379Y975808D01*
X1215379Y977972D02*
X1229371Y977972D01*
X1229371Y980136D02*
X1215379Y980136D01*
X1215379Y982300D02*
X1229371Y982300D01*
X1229371Y984464D02*
X1215379Y984464D01*
X1215379Y986628D02*
X1229371Y986628D01*
X1229371Y988792D02*
X1215379Y988792D01*
X1215379Y990956D02*
X1229371Y990956D01*
X1229371Y993120D02*
X1215379Y993120D01*
X1215379Y995284D02*
X1229371Y995284D01*
X1229371Y997448D02*
X1215379Y997448D01*
X1215379Y999612D02*
X1229371Y999612D01*
X1229371Y1001776D02*
X1215379Y1001776D01*
X1215379Y1003940D02*
X1229371Y1003940D01*
X1229371Y1006104D02*
X1215379Y1006104D01*
X1215379Y1008268D02*
X1229371Y1008268D01*
X1229371Y1010432D02*
X1215379Y1010432D01*
X1215379Y1012596D02*
X1229371Y1012596D01*
D20*
X307467Y886587D02*
X307467Y881253D01*
X295783Y881253D01*
X295783Y886587D01*
X307467Y886587D01*
X307467Y883425D02*
X295783Y883425D01*
X295783Y885597D02*
X307467Y885597D01*
X307467Y891413D02*
X307467Y896747D01*
X307467Y891413D02*
X295783Y891413D01*
X295783Y896747D01*
X307467Y896747D01*
X307467Y893585D02*
X295783Y893585D01*
X295783Y895757D02*
X307467Y895757D01*
D21*
X301625Y876300D03*
X301625Y901700D03*
D20*
X321183Y896747D02*
X321183Y891413D01*
X321183Y896747D02*
X332867Y896747D01*
X332867Y891413D01*
X321183Y891413D01*
X321183Y893585D02*
X332867Y893585D01*
X332867Y895757D02*
X321183Y895757D01*
X321183Y886587D02*
X321183Y881253D01*
X321183Y886587D02*
X332867Y886587D01*
X332867Y881253D01*
X321183Y881253D01*
X321183Y883425D02*
X332867Y883425D01*
X332867Y885597D02*
X321183Y885597D01*
D21*
X327025Y901700D03*
X327025Y876300D03*
D15*
X619125Y228600D03*
D26*
X161925Y469900D03*
X161925Y393700D03*
X161925Y342900D03*
X365125Y266700D03*
X365125Y368300D03*
X365125Y469900D03*
D20*
X1107186Y882142D02*
X1112520Y882142D01*
X1112520Y870458D01*
X1107186Y870458D01*
X1107186Y882142D01*
X1107186Y872630D02*
X1112520Y872630D01*
X1112520Y874802D02*
X1107186Y874802D01*
X1107186Y876974D02*
X1112520Y876974D01*
X1112520Y879146D02*
X1107186Y879146D01*
X1107186Y881318D02*
X1112520Y881318D01*
X1104392Y882142D02*
X1099058Y882142D01*
X1104392Y882142D02*
X1104392Y870458D01*
X1099058Y870458D01*
X1099058Y882142D01*
X1099058Y872630D02*
X1104392Y872630D01*
X1104392Y874802D02*
X1099058Y874802D01*
X1099058Y876974D02*
X1104392Y876974D01*
X1104392Y879146D02*
X1099058Y879146D01*
X1099058Y881318D02*
X1104392Y881318D01*
X1096264Y882142D02*
X1090930Y882142D01*
X1096264Y882142D02*
X1096264Y870458D01*
X1090930Y870458D01*
X1090930Y882142D01*
X1090930Y872630D02*
X1096264Y872630D01*
X1096264Y874802D02*
X1090930Y874802D01*
X1090930Y876974D02*
X1096264Y876974D01*
X1096264Y879146D02*
X1090930Y879146D01*
X1090930Y881318D02*
X1096264Y881318D01*
D15*
X492125Y990600D03*
X466725Y990600D03*
D14*
X575943Y348744D02*
X581535Y348744D01*
X581535Y337056D01*
X575943Y337056D01*
X575943Y348744D01*
X575943Y339225D02*
X581535Y339225D01*
X581535Y341394D02*
X575943Y341394D01*
X575943Y343563D02*
X581535Y343563D01*
X581535Y345732D02*
X575943Y345732D01*
X575943Y347901D02*
X581535Y347901D01*
X571121Y348744D02*
X565529Y348744D01*
X571121Y348744D02*
X571121Y337056D01*
X565529Y337056D01*
X565529Y348744D01*
X565529Y339225D02*
X571121Y339225D01*
X571121Y341394D02*
X565529Y341394D01*
X565529Y343563D02*
X571121Y343563D01*
X571121Y345732D02*
X565529Y345732D01*
X565529Y347901D02*
X571121Y347901D01*
X560707Y348744D02*
X555115Y348744D01*
X560707Y348744D02*
X560707Y337056D01*
X555115Y337056D01*
X555115Y348744D01*
X555115Y339225D02*
X560707Y339225D01*
X560707Y341394D02*
X555115Y341394D01*
X555115Y343563D02*
X560707Y343563D01*
X560707Y345732D02*
X555115Y345732D01*
X555115Y347901D02*
X560707Y347901D01*
X626743Y348744D02*
X632335Y348744D01*
X632335Y337056D01*
X626743Y337056D01*
X626743Y348744D01*
X626743Y339225D02*
X632335Y339225D01*
X632335Y341394D02*
X626743Y341394D01*
X626743Y343563D02*
X632335Y343563D01*
X632335Y345732D02*
X626743Y345732D01*
X626743Y347901D02*
X632335Y347901D01*
X621921Y348744D02*
X616329Y348744D01*
X621921Y348744D02*
X621921Y337056D01*
X616329Y337056D01*
X616329Y348744D01*
X616329Y339225D02*
X621921Y339225D01*
X621921Y341394D02*
X616329Y341394D01*
X616329Y343563D02*
X621921Y343563D01*
X621921Y345732D02*
X616329Y345732D01*
X616329Y347901D02*
X621921Y347901D01*
X611507Y348744D02*
X605915Y348744D01*
X611507Y348744D02*
X611507Y337056D01*
X605915Y337056D01*
X605915Y348744D01*
X605915Y339225D02*
X611507Y339225D01*
X611507Y341394D02*
X605915Y341394D01*
X605915Y343563D02*
X611507Y343563D01*
X611507Y345732D02*
X605915Y345732D01*
X605915Y347901D02*
X611507Y347901D01*
D15*
X1114425Y533400D03*
X1203325Y317500D03*
X1203325Y292100D03*
X758825Y711200D03*
X758825Y685800D03*
X1114425Y431800D03*
X1114425Y457200D03*
D11*
X-26238Y1040130D03*
X1543888Y1040130D03*
D27*
X-35293Y63500D02*
X-35290Y63722D01*
X-35282Y63944D01*
X-35268Y64166D01*
X-35249Y64388D01*
X-35225Y64608D01*
X-35195Y64829D01*
X-35160Y65048D01*
X-35119Y65267D01*
X-35073Y65484D01*
X-35022Y65700D01*
X-34965Y65915D01*
X-34903Y66129D01*
X-34836Y66340D01*
X-34764Y66551D01*
X-34686Y66759D01*
X-34604Y66965D01*
X-34516Y67169D01*
X-34424Y67372D01*
X-34326Y67571D01*
X-34224Y67768D01*
X-34117Y67963D01*
X-34005Y68155D01*
X-33888Y68344D01*
X-33767Y68531D01*
X-33641Y68714D01*
X-33511Y68894D01*
X-33376Y69071D01*
X-33238Y69244D01*
X-33095Y69414D01*
X-32947Y69581D01*
X-32796Y69744D01*
X-32641Y69903D01*
X-32482Y70058D01*
X-32319Y70209D01*
X-32152Y70357D01*
X-31982Y70500D01*
X-31809Y70638D01*
X-31632Y70773D01*
X-31452Y70903D01*
X-31269Y71029D01*
X-31082Y71150D01*
X-30893Y71267D01*
X-30701Y71379D01*
X-30506Y71486D01*
X-30309Y71588D01*
X-30110Y71686D01*
X-29907Y71778D01*
X-29703Y71866D01*
X-29497Y71948D01*
X-29289Y72026D01*
X-29078Y72098D01*
X-28867Y72165D01*
X-28653Y72227D01*
X-28438Y72284D01*
X-28222Y72335D01*
X-28005Y72381D01*
X-27786Y72422D01*
X-27567Y72457D01*
X-27346Y72487D01*
X-27126Y72511D01*
X-26904Y72530D01*
X-26682Y72544D01*
X-26460Y72552D01*
X-26238Y72555D01*
X-26016Y72552D01*
X-25794Y72544D01*
X-25572Y72530D01*
X-25350Y72511D01*
X-25130Y72487D01*
X-24909Y72457D01*
X-24690Y72422D01*
X-24471Y72381D01*
X-24254Y72335D01*
X-24038Y72284D01*
X-23823Y72227D01*
X-23609Y72165D01*
X-23398Y72098D01*
X-23187Y72026D01*
X-22979Y71948D01*
X-22773Y71866D01*
X-22569Y71778D01*
X-22366Y71686D01*
X-22167Y71588D01*
X-21970Y71486D01*
X-21775Y71379D01*
X-21583Y71267D01*
X-21394Y71150D01*
X-21207Y71029D01*
X-21024Y70903D01*
X-20844Y70773D01*
X-20667Y70638D01*
X-20494Y70500D01*
X-20324Y70357D01*
X-20157Y70209D01*
X-19994Y70058D01*
X-19835Y69903D01*
X-19680Y69744D01*
X-19529Y69581D01*
X-19381Y69414D01*
X-19238Y69244D01*
X-19100Y69071D01*
X-18965Y68894D01*
X-18835Y68714D01*
X-18709Y68531D01*
X-18588Y68344D01*
X-18471Y68155D01*
X-18359Y67963D01*
X-18252Y67768D01*
X-18150Y67571D01*
X-18052Y67372D01*
X-17960Y67169D01*
X-17872Y66965D01*
X-17790Y66759D01*
X-17712Y66551D01*
X-17640Y66340D01*
X-17573Y66129D01*
X-17511Y65915D01*
X-17454Y65700D01*
X-17403Y65484D01*
X-17357Y65267D01*
X-17316Y65048D01*
X-17281Y64829D01*
X-17251Y64608D01*
X-17227Y64388D01*
X-17208Y64166D01*
X-17194Y63944D01*
X-17186Y63722D01*
X-17183Y63500D01*
X-17186Y63278D01*
X-17194Y63056D01*
X-17208Y62834D01*
X-17227Y62612D01*
X-17251Y62392D01*
X-17281Y62171D01*
X-17316Y61952D01*
X-17357Y61733D01*
X-17403Y61516D01*
X-17454Y61300D01*
X-17511Y61085D01*
X-17573Y60871D01*
X-17640Y60660D01*
X-17712Y60449D01*
X-17790Y60241D01*
X-17872Y60035D01*
X-17960Y59831D01*
X-18052Y59628D01*
X-18150Y59429D01*
X-18252Y59232D01*
X-18359Y59037D01*
X-18471Y58845D01*
X-18588Y58656D01*
X-18709Y58469D01*
X-18835Y58286D01*
X-18965Y58106D01*
X-19100Y57929D01*
X-19238Y57756D01*
X-19381Y57586D01*
X-19529Y57419D01*
X-19680Y57256D01*
X-19835Y57097D01*
X-19994Y56942D01*
X-20157Y56791D01*
X-20324Y56643D01*
X-20494Y56500D01*
X-20667Y56362D01*
X-20844Y56227D01*
X-21024Y56097D01*
X-21207Y55971D01*
X-21394Y55850D01*
X-21583Y55733D01*
X-21775Y55621D01*
X-21970Y55514D01*
X-22167Y55412D01*
X-22366Y55314D01*
X-22569Y55222D01*
X-22773Y55134D01*
X-22979Y55052D01*
X-23187Y54974D01*
X-23398Y54902D01*
X-23609Y54835D01*
X-23823Y54773D01*
X-24038Y54716D01*
X-24254Y54665D01*
X-24471Y54619D01*
X-24690Y54578D01*
X-24909Y54543D01*
X-25130Y54513D01*
X-25350Y54489D01*
X-25572Y54470D01*
X-25794Y54456D01*
X-26016Y54448D01*
X-26238Y54445D01*
X-26460Y54448D01*
X-26682Y54456D01*
X-26904Y54470D01*
X-27126Y54489D01*
X-27346Y54513D01*
X-27567Y54543D01*
X-27786Y54578D01*
X-28005Y54619D01*
X-28222Y54665D01*
X-28438Y54716D01*
X-28653Y54773D01*
X-28867Y54835D01*
X-29078Y54902D01*
X-29289Y54974D01*
X-29497Y55052D01*
X-29703Y55134D01*
X-29907Y55222D01*
X-30110Y55314D01*
X-30309Y55412D01*
X-30506Y55514D01*
X-30701Y55621D01*
X-30893Y55733D01*
X-31082Y55850D01*
X-31269Y55971D01*
X-31452Y56097D01*
X-31632Y56227D01*
X-31809Y56362D01*
X-31982Y56500D01*
X-32152Y56643D01*
X-32319Y56791D01*
X-32482Y56942D01*
X-32641Y57097D01*
X-32796Y57256D01*
X-32947Y57419D01*
X-33095Y57586D01*
X-33238Y57756D01*
X-33376Y57929D01*
X-33511Y58106D01*
X-33641Y58286D01*
X-33767Y58469D01*
X-33888Y58656D01*
X-34005Y58845D01*
X-34117Y59037D01*
X-34224Y59232D01*
X-34326Y59429D01*
X-34424Y59628D01*
X-34516Y59831D01*
X-34604Y60035D01*
X-34686Y60241D01*
X-34764Y60449D01*
X-34836Y60660D01*
X-34903Y60871D01*
X-34965Y61085D01*
X-35022Y61300D01*
X-35073Y61516D01*
X-35119Y61733D01*
X-35160Y61952D01*
X-35195Y62171D01*
X-35225Y62392D01*
X-35249Y62612D01*
X-35268Y62834D01*
X-35282Y63056D01*
X-35290Y63278D01*
X-35293Y63500D01*
D19*
X-26238Y63500D03*
M02*
