999
dxfrw 0.6.3
  0
SECTION
  2
HEADER
  9
$ACADVER
  1
AC1014
  9
$DWGCODEPAGE
  3
ANSI_1252
  9
$INSBASE
 10
0
 20
0
 30
0
  9
$EXTMIN
 10
-78.3
 20
-28.25
 30
0
  9
$EXTMAX
 10
96.25
 20
58.125
 30
0
  9
$LIMMIN
 10
0
 20
0
  9
$LIMMAX
 10
420
 20
297
  9
$ORTHOMODE
 70
    0
  9
$REGENMODE
 70
    1
  9
$FILLMODE
 70
    1
  9
$QTEXTMODE
 70
    0
  9
$MIRRTEXT
 70
    0
  9
$LTSCALE
 40
1
  9
$ATTMODE
 70
    0
  9
$TEXTSIZE
 40
2.5
  9
$TRACEWID
 40
15.68
  9
$TEXTSTYLE
  7
STANDARD
  9
$CLAYER
  8
Dimensions_DieCut
  9
$CELTYPE
  6
BYLAYER
  9
$CECOLOR
 62
  256
  9
$CELTSCALE
 40
1
  9
$DISPSILH
 70
    0
  9
$DIMSCALE
 40
1
  9
$DIMASZ
 40
2.5
  9
$DIMEXO
 40
0.625
  9
$DIMDLI
 40
3.75
  9
$DIMRND
 40
0
  9
$DIMDLE
 40
0
  9
$DIMEXE
 40
1.25
  9
$DIMTP
 40
0
  9
$DIMTM
 40
0
  9
$DIMTXT
 40
2.5
  9
$DIMCEN
 40
2.5
  9
$DIMTSZ
 40
0
  9
$DIMTOL
 70
    0
  9
$DIMLIM
 70
    0
  9
$DIMTIH
 70
    0
  9
$DIMTOH
 70
    0
  9
$DIMSE1
 70
    0
  9
$DIMSE2
 70
    0
  9
$DIMTAD
 70
    1
  9
$DIMZIN
 70
    8
  9
$DIMBLK
  1

  9
$DIMASO
 70
    1
  9
$DIMSHO
 70
    1
  9
$DIMPOST
  1

  9
$DIMAPOST
  1

  9
$DIMALT
 70
    0
  9
$DIMALTD
 70
    3
  9
$DIMALTF
 40
0.03937
  9
$DIMLFAC
 40
1
  9
$DIMTOFL
 70
    1
  9
$DIMTVP
 40
0
  9
$DIMTIX
 70
    0
  9
$DIMSOXD
 70
    0
  9
$DIMSAH
 70
    0
  9
$DIMBLK1
  1

  9
$DIMBLK2
  1

  9
$DIMSTYLE
  2
STANDARD
  9
$DIMCLRD
 70
    0
  9
$DIMCLRE
 70
    0
  9
$DIMCLRT
 70
    0
  9
$DIMTFAC
 40
1
  9
$DIMGAP
 40
0.625
  9
$DIMJUST
 70
    0
  9
$DIMSD1
 70
    0
  9
$DIMSD2
 70
    0
  9
$DIMTOLJ
 70
    0
  9
$DIMTZIN
 70
    8
  9
$DIMALTZ
 70
    0
  9
$DIMALTTZ
 70
    0
  9
$DIMUPT
 70
    0
  9
$DIMDEC
 70
    3
  9
$DIMTDEC
 70
    2
  9
$DIMALTU
 70
    2
  9
$DIMALTTD
 70
    3
  9
$DIMTXSTY
  7
standard
  9
$DIMAUNIT
 70
    0
  9
$DIMADEC
 70
    0
  9
$DIMALTRND
 40
0
  9
$DIMAZIN
 70
    0
  9
$DIMDSEP
 70
    0
  9
$DIMATFIT
 70
    3
  9
$DIMFRAC
 70
    0
  9
$DIMLDRBLK
  1
STANDARD
  9
$DIMUNIT
 70
    2
  9
$DIMLWD
 70
   -2
  9
$DIMLWE
 70
   -2
  9
$DIMTMOVE
 70
    0
  9
$LUNITS
 70
    2
  9
$LUPREC
 70
    3
  9
$SKETCHINC
 40
1
  9
$FILLETRAD
 40
0
  9
$AUNITS
 70
    0
  9
$AUPREC
 70
    2
  9
$MENU
  1
.
  9
$ELEVATION
 40
0
  9
$PELEVATION
 40
0
  9
$THICKNESS
 40
0
  9
$LIMCHECK
 70
    0
  9
$BLIPMODE
 70
    0
  9
$CHAMFERA
 40
0
  9
$CHAMFERB
 40
0
  9
$CHAMFERC
 40
0
  9
$CHAMFERD
 40
0
  9
$SKPOLY
 70
    0
  9
$USRTIMER
 70
    1
  9
$ANGBASE
 50
0
  9
$ANGDIR
 70
    0
  9
$PDMODE
 70
   34
  9
$PDSIZE
 40
0
  9
$PLINEWID
 40
0
  9
$SPLFRAME
 70
    0
  9
$SPLINETYPE
 70
    2
  9
$SPLINESEGS
 70
    8
  9
$HANDSEED
  5
20000
  9
$SURFTAB1
 70
    6
  9
$SURFTAB2
 70
    6
  9
$SURFTYPE
 70
    6
  9
$SURFU
 70
    6
  9
$SURFV
 70
    6
  9
$UCSBASE
  2

  9
$UCSNAME
  2

  9
$UCSORG
 10
0
 20
0
 30
0
  9
$UCSXDIR
 10
1
 20
0
 30
0
  9
$UCSYDIR
 10
0
 20
1
 30
0
  9
$UCSORTHOREF
  2

  9
$UCSORTHOVIEW
 70
    0
  9
$UCSORGTOP
 10
0
 20
0
 30
0
  9
$UCSORGBOTTOM
 10
0
 20
0
 30
0
  9
$UCSORGLEFT
 10
0
 20
0
 30
0
  9
$UCSORGRIGHT
 10
0
 20
0
 30
0
  9
$UCSORGFRONT
 10
0
 20
0
 30
0
  9
$UCSORGBACK
 10
0
 20
0
 30
0
  9
$PUCSBASE
  2

  9
$PUCSNAME
  2

  9
$PUCSORG
 10
0
 20
0
 30
0
  9
$PUCSXDIR
 10
1
 20
0
 30
0
  9
$PUCSYDIR
 10
0
 20
1
 30
0
  9
$PUCSORTHOREF
  2

  9
$PUCSORTHOVIEW
 70
    0
  9
$PUCSORGTOP
 10
0
 20
0
 30
0
  9
$PUCSORGBOTTOM
 10
0
 20
0
 30
0
  9
$PUCSORGLEFT
 10
0
 20
0
 30
0
  9
$PUCSORGRIGHT
 10
0
 20
0
 30
0
  9
$PUCSORGFRONT
 10
0
 20
0
 30
0
  9
$PUCSORGBACK
 10
0
 20
0
 30
0
  9
$USERI1
 70
    0
  9
$USERI2
 70
    0
  9
$USERI3
 70
    0
  9
$USERI4
 70
    0
  9
$USERI5
 70
    0
  9
$USERR1
 40
0
  9
$USERR2
 40
0
  9
$USERR3
 40
0
  9
$USERR4
 40
0
  9
$USERR5
 40
0
  9
$WORLDVIEW
 70
    1
  9
$SHADEDGE
 70
    3
  9
$SHADEDIF
 70
   70
  9
$TILEMODE
 70
    1
  9
$MAXACTVP
 70
   64
  9
$PINSBASE
 10
0
 20
0
 30
0
  9
$PLIMCHECK
 70
    0
  9
$PEXTMIN
 10
0
 20
0
 30
0
  9
$PEXTMAX
 10
0
 20
0
 30
0
  9
$GRIDMODE
 70
    1
  9
$SNAPSTYLE
 70
    0
  9
$GRIDUNIT
 10
0
 20
0
  9
$PLIMMIN
 10
0
 20
0
  9
$PLIMMAX
 10
210
 20
297
  9
$UNITMODE
 70
    0
  9
$VISRETAIN
 70
    1
  9
$PLINEGEN
 70
    0
  9
$PSLTSCALE
 70
    1
  9
$TREEDEPTH
 70
 3020
  9
$CMLSTYLE
  2
Standard
  9
$CMLJUST
 70
    0
  9
$CMLSCALE
 40
20
  9
$PROXYGRAPHICS
 70
    1
  9
$MEASUREMENT
 70
    1
  9
$CELWEIGHT
370
   -1
  9
$ENDCAPS
280
    0
  9
$JOINSTYLE
280
    0
  9
$LWDISPLAY
290
    0
  9
$HYPERLINKBASE
  1

  9
$STYLESHEET
  1

  9
$XEDIT
290
    1
  9
$CEPSNTYPE
380
    0
  9
$PSTYLEMODE
290
    1
  9
$EXTNAMES
290
    1
  9
$PSVPSCALE
 40
0
  9
$OLESTARTUP
290
    0
  0
ENDSEC
  0
SECTION
  2
CLASSES
  0
ENDSEC
  0
SECTION
  2
TABLES
  0
TABLE
  2
VPORT
  5
8
100
AcDbSymbolTable
 70
    1
  0
VPORT
  5
31
330
2
100
AcDbSymbolTableRecord
100
AcDbViewportTableRecord
  2
*ACTIVE
 70
    0
 10
0
 20
0
 11
1
 21
1
 12
48.70903575989783
 22
31.4323754789272
 13
0
 23
0
 14
10
 24
10
 15
10
 25
10
 16
0
 26
0
 36
1
 17
0
 27
0
 37
0
 40
95.74613665389528
 41
1.846332945285215
 42
50
 43
0
 44
0
 50
0
 51
0
 71
    0
 72
  100
 73
    1
 74
    3
 75
    0
 76
    1
 77
    0
 78
    0
  0
ENDTAB
  0
TABLE
  2
LTYPE
  5
5
100
AcDbSymbolTable
 70
    4
  0
LTYPE
  5
14
100
AcDbSymbolTableRecord
100
AcDbLinetypeTableRecord
  2
ByBlock
 70
    0
  3

 72
   65
 73
    0
 40
0
  0
LTYPE
  5
15
100
AcDbSymbolTableRecord
100
AcDbLinetypeTableRecord
  2
ByLayer
 70
    0
  3

 72
   65
 73
    0
 40
0
  0
LTYPE
  5
16
100
AcDbSymbolTableRecord
100
AcDbLinetypeTableRecord
  2
Continuous
 70
    0
  3
Solid line
 72
   65
 73
    0
 40
0
  0
LTYPE
  5
32
330
5
100
AcDbSymbolTableRecord
100
AcDbLinetypeTableRecord
  2
DOT
 70
    0
  3
Dot . . . . . . . . . . . . . . . . . . . . . .
 72
   65
 73
    2
 40
6.35
 49
0
 74
    0
 49
-6.35
 74
    0
  0
LTYPE
  5
33
330
5
100
AcDbSymbolTableRecord
100
AcDbLinetypeTableRecord
  2
DOTTINY
 70
    0
  3
Dot (.15x) .....................................
 72
   65
 73
    2
 40
0.9525
 49
0
 74
    0
 49
-0.9525
 74
    0
  0
LTYPE
  5
34
330
5
100
AcDbSymbolTableRecord
100
AcDbLinetypeTableRecord
  2
DOT2
 70
    0
  3
Dot (.5x) .....................................
 72
   65
 73
    2
 40
3.175
 49
0
 74
    0
 49
-3.175
 74
    0
  0
LTYPE
  5
35
330
5
100
AcDbSymbolTableRecord
100
AcDbLinetypeTableRecord
  2
DOTX2
 70
    0
  3
Dot (2x) .  .  .  .  .  .  .  .  .  .  .  .  .
 72
   65
 73
    2
 40
12.7
 49
0
 74
    0
 49
-12.7
 74
    0
  0
LTYPE
  5
36
330
5
100
AcDbSymbolTableRecord
100
AcDbLinetypeTableRecord
  2
DASHED
 70
    0
  3
Dashed _ _ _ _ _ _ _ _ _ _ _ _ _ _ _ _ _
 72
   65
 73
    2
 40
19.05
 49
12.7
 74
    0
 49
-6.35
 74
    0
  0
LTYPE
  5
37
330
5
100
AcDbSymbolTableRecord
100
AcDbLinetypeTableRecord
  2
DASHEDTINY
 70
    0
  3
Dashed (.15x) _ _ _ _ _ _ _ _ _ _ _ _ _ _ _ _ _
 72
   65
 73
    2
 40
2.8575
 49
1.905
 74
    0
 49
-0.9525
 74
    0
  0
LTYPE
  5
38
330
5
100
AcDbSymbolTableRecord
100
AcDbLinetypeTableRecord
  2
DASHED2
 70
    0
  3
Dashed (.5x) _ _ _ _ _ _ _ _ _ _ _ _ _ _ _ _ _
 72
   65
 73
    2
 40
9.524999999999999
 49
6.35
 74
    0
 49
-3.175
 74
    0
  0
LTYPE
  5
39
330
5
100
AcDbSymbolTableRecord
100
AcDbLinetypeTableRecord
  2
DASHEDX2
 70
    0
  3
Dashed (2x) ____  ____  ____  ____  ____  ___
 72
   65
 73
    2
 40
38.09999999999999
 49
25.4
 74
    0
 49
-12.7
 74
    0
  0
LTYPE
  5
3A
330
5
100
AcDbSymbolTableRecord
100
AcDbLinetypeTableRecord
  2
DASHDOT
 70
    0
  3
Dash dot __ . __ . __ . __ . __ . __ . __ . __
 72
   65
 73
    4
 40
25.4
 49
12.7
 74
    0
 49
-6.35
 74
    0
 49
0
 74
    0
 49
-6.35
 74
    0
  0
LTYPE
  5
3B
330
5
100
AcDbSymbolTableRecord
100
AcDbLinetypeTableRecord
  2
DASHDOTTINY
 70
    0
  3
Dash dot (.15x) _._._._._._._._._._._._._._._.
 72
   65
 73
    4
 40
3.81
 49
1.905
 74
    0
 49
-0.9525
 74
    0
 49
0
 74
    0
 49
-0.9525
 74
    0
  0
LTYPE
  5
3C
330
5
100
AcDbSymbolTableRecord
100
AcDbLinetypeTableRecord
  2
DASHDOT2
 70
    0
  3
Dash dot (.5x) _._._._._._._._._._._._._._._.
 72
   65
 73
    4
 40
12.7
 49
6.35
 74
    0
 49
-3.175
 74
    0
 49
0
 74
    0
 49
-3.175
 74
    0
  0
LTYPE
  5
3D
330
5
100
AcDbSymbolTableRecord
100
AcDbLinetypeTableRecord
  2
DASHDOTX2
 70
    0
  3
Dash dot (2x) ____  .  ____  .  ____  .  ___
 72
   65
 73
    4
 40
50.8
 49
25.4
 74
    0
 49
-12.7
 74
    0
 49
0
 74
    0
 49
-12.7
 74
    0
  0
LTYPE
  5
3E
330
5
100
AcDbSymbolTableRecord
100
AcDbLinetypeTableRecord
  2
DIVIDE
 70
    0
  3
Divide ____ . . ____ . . ____ . . ____ . . ____
 72
   65
 73
    6
 40
31.75
 49
12.7
 74
    0
 49
-6.35
 74
    0
 49
0
 74
    0
 49
-6.35
 74
    0
 49
0
 74
    0
 49
-6.35
 74
    0
  0
LTYPE
  5
3F
330
5
100
AcDbSymbolTableRecord
100
AcDbLinetypeTableRecord
  2
DIVIDETINY
 70
    0
  3
Divide (.15x) __..__..__..__..__..__..__..__.._
 72
   65
 73
    6
 40
4.7625
 49
1.905
 74
    0
 49
-0.9525
 74
    0
 49
0
 74
    0
 49
-0.9525
 74
    0
 49
0
 74
    0
 49
-0.9525
 74
    0
  0
LTYPE
  5
40
330
5
100
AcDbSymbolTableRecord
100
AcDbLinetypeTableRecord
  2
DIVIDE2
 70
    0
  3
Divide (.5x) __..__..__..__..__..__..__..__.._
 72
   65
 73
    6
 40
15.875
 49
6.35
 74
    0
 49
-3.175
 74
    0
 49
0
 74
    0
 49
-3.175
 74
    0
 49
0
 74
    0
 49
-3.175
 74
    0
  0
LTYPE
  5
41
330
5
100
AcDbSymbolTableRecord
100
AcDbLinetypeTableRecord
  2
DIVIDEX2
 70
    0
  3
Divide (2x) ________  .  .  ________  .  .  _
 72
   65
 73
    6
 40
63.5
 49
25.4
 74
    0
 49
-12.7
 74
    0
 49
0
 74
    0
 49
-12.7
 74
    0
 49
0
 74
    0
 49
-12.7
 74
    0
  0
LTYPE
  5
42
330
5
100
AcDbSymbolTableRecord
100
AcDbLinetypeTableRecord
  2
BORDER
 70
    0
  3
Border __ __ . __ __ . __ __ . __ __ . __ __ .
 72
   65
 73
    6
 40
44.45
 49
12.7
 74
    0
 49
-6.35
 74
    0
 49
12.7
 74
    0
 49
-6.35
 74
    0
 49
0
 74
    0
 49
-6.35
 74
    0
  0
LTYPE
  5
43
330
5
100
AcDbSymbolTableRecord
100
AcDbLinetypeTableRecord
  2
BORDERTINY
 70
    0
  3
Border (.15x) __.__.__.__.__.__.__.__.__.__.__.
 72
   65
 73
    6
 40
6.6675
 49
1.905
 74
    0
 49
-0.9525
 74
    0
 49
1.905
 74
    0
 49
-0.9525
 74
    0
 49
0
 74
    0
 49
-0.9525
 74
    0
  0
LTYPE
  5
44
330
5
100
AcDbSymbolTableRecord
100
AcDbLinetypeTableRecord
  2
BORDER2
 70
    0
  3
Border (.5x) __.__.__.__.__.__.__.__.__.__.__.
 72
   65
 73
    6
 40
22.225
 49
6.35
 74
    0
 49
-3.175
 74
    0
 49
6.35
 74
    0
 49
-3.175
 74
    0
 49
0
 74
    0
 49
-3.175
 74
    0
  0
LTYPE
  5
45
330
5
100
AcDbSymbolTableRecord
100
AcDbLinetypeTableRecord
  2
BORDERX2
 70
    0
  3
Border (2x) ____  ____  .  ____  ____  .  ___
 72
   65
 73
    6
 40
88.89999999999999
 49
25.4
 74
    0
 49
-12.7
 74
    0
 49
25.4
 74
    0
 49
-12.7
 74
    0
 49
0
 74
    0
 49
-12.7
 74
    0
  0
LTYPE
  5
46
330
5
100
AcDbSymbolTableRecord
100
AcDbLinetypeTableRecord
  2
CENTER
 70
    0
  3
Center ____ _ ____ _ ____ _ ____ _ ____ _ ____
 72
   65
 73
    4
 40
50.8
 49
31.75
 74
    0
 49
-6.35
 74
    0
 49
6.35
 74
    0
 49
-6.35
 74
    0
  0
LTYPE
  5
47
330
5
100
AcDbSymbolTableRecord
100
AcDbLinetypeTableRecord
  2
CENTERTINY
 70
    0
  3
Center (.15x) ___ _ ___ _ ___ _ ___ _ ___ _ ___
 72
   65
 73
    4
 40
7.62
 49
4.7625
 74
    0
 49
-0.9525
 74
    0
 49
0.9525
 74
    0
 49
-0.9525
 74
    0
  0
LTYPE
  5
48
330
5
100
AcDbSymbolTableRecord
100
AcDbLinetypeTableRecord
  2
CENTER2
 70
    0
  3
Center (.5x) ___ _ ___ _ ___ _ ___ _ ___ _ ___
 72
   65
 73
    4
 40
28.575
 49
19.05
 74
    0
 49
-3.175
 74
    0
 49
3.175
 74
    0
 49
-3.175
 74
    0
  0
LTYPE
  5
49
330
5
100
AcDbSymbolTableRecord
100
AcDbLinetypeTableRecord
  2
CENTERX2
 70
    0
  3
Center (2x) ________  __  ________  __  _____
 72
   65
 73
    4
 40
101.6
 49
63.5
 74
    0
 49
-12.7
 74
    0
 49
12.7
 74
    0
 49
-12.7
 74
    0
  0
ENDTAB
  0
TABLE
  2
LAYER
  5
2
100
AcDbSymbolTable
 70
    1
  0
LAYER
  5
10
330
2
100
AcDbSymbolTableRecord
100
AcDbLayerTableRecord
  2
0
 70
    0
 62
    7
  6
CONTINUOUS
370
    0
390
F
  0
LAYER
  5
4A
330
2
100
AcDbSymbolTableRecord
100
AcDbLayerTableRecord
  2
Dimensions
 70
    0
 62
    5
  6
CONTINUOUS
370
    0
390
F
  0
LAYER
  5
4B
330
2
100
AcDbSymbolTableRecord
100
AcDbLayerTableRecord
  2
Dimensions_DieCut
 70
    0
 62
    5
  6
CONTINUOUS
370
    0
390
F
  0
LAYER
  5
4C
330
2
100
AcDbSymbolTableRecord
100
AcDbLayerTableRecord
  2
Dimensions_Window
 70
    0
 62
    5
  6
CONTINUOUS
370
    0
390
F
  0
ENDTAB
  0
TABLE
  2
STYLE
  5
3
100
AcDbSymbolTable
 70
    3
  0
STYLE
  5
4D
330
2
100
AcDbSymbolTableRecord
100
AcDbTextStyleTableRecord
  2
Standard
 70
    0
 40
0
 41
1
 50
0
 71
    0
 42
1
  3
txt
  4

  0
ENDTAB
  0
TABLE
  2
VIEW
  5
6
100
AcDbSymbolTable
 70
    0
  0
ENDTAB
  0
TABLE
  2
UCS
  5
7
100
AcDbSymbolTable
 70
    0
  0
ENDTAB
  0
TABLE
  2
APPID
  5
9
100
AcDbSymbolTable
 70
    1
  0
APPID
  5
12
100
AcDbSymbolTableRecord
100
AcDbRegAppTableRecord
  2
ACAD
 70
    0
  0
APPID
  5
4E
100
AcDbSymbolTableRecord
100
AcDbRegAppTableRecord
  2
LibreCad
 70
    0
  0
ENDTAB
  0
TABLE
  2
DIMSTYLE
  5
A
100
AcDbSymbolTable
 70
    1
  0
DIMSTYLE
105
4F
330
A
100
AcDbSymbolTableRecord
100
AcDbDimStyleTableRecord
  2
Standard
 70
    0
 40
1
 41
2.5
 42
0.625
 43
0.38
 44
1.25
 45
0
 46
0
 47
0
 48
0
 49
1
140
2.5
141
0.09
142
0
143
25.4
144
1
145
0
146
1
147
0.625
 71
    0
 72
    0
 73
    0
 74
    1
 75
    0
 76
    0
 77
    0
 78
    8
170
    0
171
    2
172
    0
173
    0
174
    0
175
    0
176
    0
177
    0
178
    0
270
    2
271
    3
272
    4
273
    2
274
    2
275
    0
280
    0
281
    0
282
    0
283
    1
284
    0
285
    0
286
    0
287
    3
288
    0
340
standard
  0
ENDTAB
  0
TABLE
  2
BLOCK_RECORD
  5
1
100
AcDbSymbolTable
 70
    2
  0
BLOCK_RECORD
  5
1F
100
AcDbSymbolTableRecord
100
AcDbBlockTableRecord
  2
*Model_Space
  0
BLOCK_RECORD
  5
1E
100
AcDbSymbolTableRecord
100
AcDbBlockTableRecord
  2
*Paper_Space
  0
BLOCK_RECORD
  5
50
100
AcDbSymbolTableRecord
100
AcDbBlockTableRecord
  2
*D11
  0
BLOCK_RECORD
  5
53
100
AcDbSymbolTableRecord
100
AcDbBlockTableRecord
  2
*D7
  0
BLOCK_RECORD
  5
56
100
AcDbSymbolTableRecord
100
AcDbBlockTableRecord
  2
*D36
  0
BLOCK_RECORD
  5
59
100
AcDbSymbolTableRecord
100
AcDbBlockTableRecord
  2
*D2
  0
BLOCK_RECORD
  5
5C
100
AcDbSymbolTableRecord
100
AcDbBlockTableRecord
  2
*D25
  0
BLOCK_RECORD
  5
5F
100
AcDbSymbolTableRecord
100
AcDbBlockTableRecord
  2
*D6
  0
BLOCK_RECORD
  5
62
100
AcDbSymbolTableRecord
100
AcDbBlockTableRecord
  2
*D26
  0
BLOCK_RECORD
  5
65
100
AcDbSymbolTableRecord
100
AcDbBlockTableRecord
  2
*D1
  0
BLOCK_RECORD
  5
68
100
AcDbSymbolTableRecord
100
AcDbBlockTableRecord
  2
*D28
  0
BLOCK_RECORD
  5
6B
100
AcDbSymbolTableRecord
100
AcDbBlockTableRecord
  2
*D27
  0
BLOCK_RECORD
  5
6E
100
AcDbSymbolTableRecord
100
AcDbBlockTableRecord
  2
*D21
  0
BLOCK_RECORD
  5
71
100
AcDbSymbolTableRecord
100
AcDbBlockTableRecord
  2
*D20
  0
BLOCK_RECORD
  5
74
100
AcDbSymbolTableRecord
100
AcDbBlockTableRecord
  2
*D29
  0
BLOCK_RECORD
  5
77
100
AcDbSymbolTableRecord
100
AcDbBlockTableRecord
  2
*D17
  0
BLOCK_RECORD
  5
7A
100
AcDbSymbolTableRecord
100
AcDbBlockTableRecord
  2
*D9
  0
BLOCK_RECORD
  5
7D
100
AcDbSymbolTableRecord
100
AcDbBlockTableRecord
  2
*D10
  0
BLOCK_RECORD
  5
80
100
AcDbSymbolTableRecord
100
AcDbBlockTableRecord
  2
*D34
  0
BLOCK_RECORD
  5
83
100
AcDbSymbolTableRecord
100
AcDbBlockTableRecord
  2
*D12
  0
BLOCK_RECORD
  5
86
100
AcDbSymbolTableRecord
100
AcDbBlockTableRecord
  2
*D38
  0
BLOCK_RECORD
  5
89
100
AcDbSymbolTableRecord
100
AcDbBlockTableRecord
  2
*D8
  0
BLOCK_RECORD
  5
8C
100
AcDbSymbolTableRecord
100
AcDbBlockTableRecord
  2
*D15
  0
BLOCK_RECORD
  5
8F
100
AcDbSymbolTableRecord
100
AcDbBlockTableRecord
  2
*D32
  0
BLOCK_RECORD
  5
92
100
AcDbSymbolTableRecord
100
AcDbBlockTableRecord
  2
*D5
  0
BLOCK_RECORD
  5
95
100
AcDbSymbolTableRecord
100
AcDbBlockTableRecord
  2
*D39
  0
BLOCK_RECORD
  5
98
100
AcDbSymbolTableRecord
100
AcDbBlockTableRecord
  2
*D16
  0
BLOCK_RECORD
  5
9B
100
AcDbSymbolTableRecord
100
AcDbBlockTableRecord
  2
*D4
  0
BLOCK_RECORD
  5
9E
100
AcDbSymbolTableRecord
100
AcDbBlockTableRecord
  2
*D19
  0
BLOCK_RECORD
  5
A1
100
AcDbSymbolTableRecord
100
AcDbBlockTableRecord
  2
*D37
  0
BLOCK_RECORD
  5
A4
100
AcDbSymbolTableRecord
100
AcDbBlockTableRecord
  2
*D24
  0
BLOCK_RECORD
  5
A7
100
AcDbSymbolTableRecord
100
AcDbBlockTableRecord
  2
*D3
  0
BLOCK_RECORD
  5
AA
100
AcDbSymbolTableRecord
100
AcDbBlockTableRecord
  2
*D22
  0
BLOCK_RECORD
  5
AD
100
AcDbSymbolTableRecord
100
AcDbBlockTableRecord
  2
*D30
  0
BLOCK_RECORD
  5
B0
100
AcDbSymbolTableRecord
100
AcDbBlockTableRecord
  2
*D13
  0
BLOCK_RECORD
  5
B3
100
AcDbSymbolTableRecord
100
AcDbBlockTableRecord
  2
*D23
  0
BLOCK_RECORD
  5
B6
100
AcDbSymbolTableRecord
100
AcDbBlockTableRecord
  2
*D18
  0
BLOCK_RECORD
  5
B9
100
AcDbSymbolTableRecord
100
AcDbBlockTableRecord
  2
*D31
  0
BLOCK_RECORD
  5
BC
100
AcDbSymbolTableRecord
100
AcDbBlockTableRecord
  2
*D33
  0
BLOCK_RECORD
  5
BF
100
AcDbSymbolTableRecord
100
AcDbBlockTableRecord
  2
*D14
  0
BLOCK_RECORD
  5
C2
100
AcDbSymbolTableRecord
100
AcDbBlockTableRecord
  2
*D35
  0
BLOCK_RECORD
  5
C5
100
AcDbSymbolTableRecord
100
AcDbBlockTableRecord
  2
RECT
  0
BLOCK_RECORD
  5
C8
100
AcDbSymbolTableRecord
100
AcDbBlockTableRecord
  2
PIE
  0
BLOCK_RECORD
  5
CB
100
AcDbSymbolTableRecord
100
AcDbBlockTableRecord
  2
OCTAGONP
  0
BLOCK_RECORD
  5
CE
100
AcDbSymbolTableRecord
100
AcDbBlockTableRecord
  2
SQUAREP
  0
BLOCK_RECORD
  5
D1
100
AcDbSymbolTableRecord
100
AcDbBlockTableRecord
  2
ROUNDP
  0
BLOCK_RECORD
  5
D4
100
AcDbSymbolTableRecord
100
AcDbBlockTableRecord
  2
ANNULUSP
  0
BLOCK_RECORD
  5
D7
100
AcDbSymbolTableRecord
100
AcDbBlockTableRecord
  2
THERMALP
  0
BLOCK_RECORD
  5
DA
100
AcDbSymbolTableRecord
100
AcDbBlockTableRecord
  2
OCTAGONV
  0
BLOCK_RECORD
  5
DD
100
AcDbSymbolTableRecord
100
AcDbBlockTableRecord
  2
SQUAREV
  0
BLOCK_RECORD
  5
E0
100
AcDbSymbolTableRecord
100
AcDbBlockTableRecord
  2
ROUNDV
  0
BLOCK_RECORD
  5
E3
100
AcDbSymbolTableRecord
100
AcDbBlockTableRecord
  2
ANNULUSV
  0
BLOCK_RECORD
  5
E6
100
AcDbSymbolTableRecord
100
AcDbBlockTableRecord
  2
THERMALV
  0
ENDTAB
  0
ENDSEC
  0
SECTION
  2
BLOCKS
  0
BLOCK
  5
20
100
AcDbEntity
  8
0
100
AcDbBlockBegin
  2
*Model_Space
 70
    0
 10
0
 20
0
 30
0
  3
*Model_Space
  1

  0
ENDBLK
  5
21
100
AcDbEntity
  8
0
100
AcDbBlockEnd
  0
BLOCK
  5
1C
100
AcDbEntity
  8
0
100
AcDbBlockBegin
  2
*Paper_Space
 70
    0
 10
0
 20
0
 30
0
  3
*Paper_Space
  1

  0
ENDBLK
  5
1D
100
AcDbEntity
  8
0
100
AcDbBlockEnd
  0
BLOCK
  5
51
100
AcDbEntity
  8
0
100
AcDbBlockBegin
  2
*D11
 70
    1
 10
0
 20
0
  3
*D11
  1

  0
LINE
  5
E9
100
AcDbEntity
  8
Dimensions_DieCut
  6
ByBlock
 62
    0
100
AcDbLine
 10
33.35
 20
-21
 11
0
 21
-21
  0
MTEXT
  5
EA
100
AcDbEntity
  8
Dimensions_DieCut
  6
CONTINUOUS
 62
    0
100
AcDbMText
 10
16.675
 20
-19.125
 30
0
 40
2.5
 41
7.777777777778397
 71
    5
 72
    1
  1
33.35
  7
standard
210
0
220
0
230
1
 50
0
 73
    2
 44
1
  0
SOLID
  5
EB
100
AcDbEntity
  8
Dimensions_DieCut
  6
ByBlock
 62
    0
100
AcDbTrace
 10
33.35
 20
-21
 30
0
 11
30.85
 21
-21.41628465777284
 31
0
 12
30.85
 22
-20.58371534222716
 32
0
 13
30.85
 23
-20.58371534222716
 33
0
  0
SOLID
  5
EC
100
AcDbEntity
  8
Dimensions_DieCut
  6
ByBlock
 62
    0
100
AcDbTrace
 10
0
 20
-21
 30
0
 11
2.5
 21
-20.58371534222716
 31
0
 12
2.5
 22
-21.41628465777284
 32
0
 13
2.5
 23
-21.41628465777284
 33
0
  0
LINE
  5
ED
100
AcDbEntity
  8
Dimensions_DieCut
  6
ByBlock
 62
    0
100
AcDbLine
 10
33.35
 20
7.375
 11
33.35
 21
-22.25
  0
LINE
  5
EE
100
AcDbEntity
  8
Dimensions_DieCut
  6
ByBlock
 62
    0
100
AcDbLine
 10
-1.148068456708479e-16
 20
-0.625
 11
-2.296136913416957e-16
 21
-22.25
  0
ENDBLK
  5
52
100
AcDbEntity
  8
0
100
AcDbBlockEnd
  0
BLOCK
  5
54
100
AcDbEntity
  8
0
100
AcDbBlockBegin
  2
*D7
 70
    1
 10
0
 20
0
  3
*D7
  1

  0
SOLID
  5
EF
100
AcDbEntity
  8
Dimensions_Window
  6
ByBlock
 62
    0
100
AcDbTrace
 10
15.42652463366255
 20
27.54756178891533
 30
0
 11
16.92745194724489
 21
29.58974447311367
 31
0
 12
17.50822048839295
 22
28.99318804929363
 32
0
 13
17.50822048839295
 23
28.99318804929363
 33
0
  0
LINE
  5
F0
100
AcDbEntity
  8
Dimensions_Window
  6
ByBlock
 62
    0
100
AcDbLine
 10
14.71
 20
26.85
 11
25.97535951813894
 21
37.81722145905766
  0
MTEXT
  5
F1
100
AcDbEntity
  8
Dimensions_Window
  6
CONTINUOUS
 62
    0
100
AcDbMText
 10
19.39301372168448
 20
34.02587531210379
 30
0
 40
2.5
 41
9.722222222222221
 71
    5
 72
    1
  1
4-R1.0
  7
standard
210
0
220
0
230
1
 50
44.23171184276503
 73
    2
 44
1
  0
ENDBLK
  5
55
100
AcDbEntity
  8
0
100
AcDbBlockEnd
  0
BLOCK
  5
57
100
AcDbEntity
  8
0
100
AcDbBlockBegin
  2
*D36
 70
    1
 10
0
 20
0
  3
*D36
  1

  0
LINE
  5
F2
100
AcDbEntity
  8
Dimensions_DieCut
  6
ByBlock
 62
    0
100
AcDbLine
 10
-58
 20
10.1
 11
-58
 21
-2.1316282072803e-16
  0
MTEXT
  5
F3
100
AcDbEntity
  8
Dimensions_DieCut
  6
CONTINUOUS
 62
    0
100
AcDbMText
 10
-59.875
 20
5.05
 30
0
 40
2.5
 41
4.722222222222222
 71
    5
 72
    1
  1
10.1
  7
standard
210
0
220
0
230
1
 50
90
 73
    2
 44
1
  0
SOLID
  5
F4
100
AcDbEntity
  8
Dimensions_DieCut
  6
ByBlock
 62
    0
100
AcDbTrace
 10
-58
 20
10.1
 30
0
 11
-57.58371534222716
 21
7.6
 31
0
 12
-58.41628465777284
 22
7.6
 32
0
 13
-58.41628465777284
 23
7.6
 33
0
  0
SOLID
  5
F5
100
AcDbEntity
  8
Dimensions_DieCut
  6
ByBlock
 62
    0
100
AcDbTrace
 10
-58
 20
-2.1316282072803e-16
 30
0
 11
-58.41628465777284
 21
2.5
 31
0
 12
-57.58371534222716
 22
2.5
 32
0
 13
-57.58371534222716
 23
2.5
 33
0
  0
LINE
  5
F6
100
AcDbEntity
  8
Dimensions_DieCut
  6
ByBlock
 62
    0
100
AcDbLine
 10
-60.125
 20
10.1
 11
-56.75
 21
10.1
  0
LINE
  5
F7
100
AcDbEntity
  8
Dimensions_DieCut
  6
ByBlock
 62
    0
100
AcDbLine
 10
-60.375
 20
0
 11
-56.75
 21
-2.1316282072803e-16
  0
ENDBLK
  5
58
100
AcDbEntity
  8
0
100
AcDbBlockEnd
  0
BLOCK
  5
5A
100
AcDbEntity
  8
0
100
AcDbBlockBegin
  2
*D2
 70
    1
 10
0
 20
0
  3
*D2
  1

  0
LINE
  5
F8
100
AcDbEntity
  8
Dimensions
  6
ByBlock
 62
    0
100
AcDbLine
 10
90
 20
10.5
 11
90
 21
28.5
  0
MTEXT
  5
F9
100
AcDbEntity
  8
Dimensions
  6
CONTINUOUS
 62
    0
100
AcDbMText
 10
88.125
 20
19.5
 30
0
 40
2.5
 41
2.5
 71
    5
 72
    1
  1
18
  7
standard
210
0
220
0
230
1
 50
90
 73
    2
 44
1
  0
SOLID
  5
FA
100
AcDbEntity
  8
Dimensions
  6
ByBlock
 62
    0
100
AcDbTrace
 10
90
 20
10.5
 30
0
 11
89.58371534222717
 21
13
 31
0
 12
90.41628465777283
 22
13
 32
0
 13
90.41628465777283
 23
13
 33
0
  0
SOLID
  5
FB
100
AcDbEntity
  8
Dimensions
  6
ByBlock
 62
    0
100
AcDbTrace
 10
90
 20
28.5
 30
0
 11
90.41628465777283
 21
26
 31
0
 12
89.58371534222717
 22
26
 32
0
 13
89.58371534222717
 23
26
 33
0
  0
LINE
  5
FC
100
AcDbEntity
  8
Dimensions
  6
ByBlock
 62
    0
100
AcDbLine
 10
78.925
 20
10.5
 11
91.25
 21
10.5
  0
LINE
  5
FD
100
AcDbEntity
  8
Dimensions
  6
ByBlock
 62
    0
100
AcDbLine
 10
78.925
 20
28.5
 11
91.25
 21
28.5
  0
ENDBLK
  5
5B
100
AcDbEntity
  8
0
100
AcDbBlockEnd
  0
BLOCK
  5
5D
100
AcDbEntity
  8
0
100
AcDbBlockBegin
  2
*D25
 70
    1
 10
0
 20
0
  3
*D25
  1

  0
LINE
  5
FE
100
AcDbEntity
  8
Dimensions_DieCut
  6
ByBlock
 62
    0
100
AcDbLine
 10
-20.09
 20
-15
 11
0
 21
-15
  0
MTEXT
  5
FF
100
AcDbEntity
  8
Dimensions_DieCut
  6
CONTINUOUS
 62
    0
100
AcDbMText
 10
-10.045
 20
-13.125
 30
0
 40
2.5
 41
7.777777777777779
 71
    5
 72
    1
  1
20.09
  7
standard
210
0
220
0
230
1
 50
0
 73
    2
 44
1
  0
SOLID
  5
100
100
AcDbEntity
  8
Dimensions_DieCut
  6
ByBlock
 62
    0
100
AcDbTrace
 10
-20.09
 20
-15
 30
0
 11
-17.59
 21
-14.58371534222716
 31
0
 12
-17.59
 22
-15.41628465777284
 32
0
 13
-17.59
 23
-15.41628465777284
 33
0
  0
SOLID
  5
101
100
AcDbEntity
  8
Dimensions_DieCut
  6
ByBlock
 62
    0
100
AcDbTrace
 10
0
 20
-15
 30
0
 11
-2.5
 21
-15.41628465777284
 31
0
 12
-2.5
 22
-14.58371534222716
 32
0
 13
-2.5
 23
-14.58371534222716
 33
0
  0
LINE
  5
102
100
AcDbEntity
  8
Dimensions_DieCut
  6
ByBlock
 62
    0
100
AcDbLine
 10
-20.09
 20
6.875
 11
-20.09
 21
-16.25
  0
LINE
  5
103
100
AcDbEntity
  8
Dimensions_DieCut
  6
ByBlock
 62
    0
100
AcDbLine
 10
-1.148068456708479e-16
 20
-0.625
 11
-2.296136913416957e-16
 21
-16.25
  0
ENDBLK
  5
5E
100
AcDbEntity
  8
0
100
AcDbBlockEnd
  0
BLOCK
  5
60
100
AcDbEntity
  8
0
100
AcDbBlockBegin
  2
*D6
 70
    1
 10
0
 20
0
  3
*D6
  1

  0
LINE
  5
104
100
AcDbEntity
  8
Dimensions_Window
  6
ByBlock
 62
    0
100
AcDbLine
 10
9.999999999999998
 20
11.15
 11
10
 21
27.85
  0
MTEXT
  5
105
100
AcDbEntity
  8
Dimensions_Window
  6
CONTINUOUS
 62
    0
100
AcDbMText
 10
8.125000000000004
 20
19.5
 30
0
 40
2.5
 41
5.277777777777933
 71
    5
 72
    1
  1
16.7
  7
standard
210
0
220
0
230
1
 50
90
 73
    2
 44
1
  0
SOLID
  5
106
100
AcDbEntity
  8
Dimensions_Window
  6
ByBlock
 62
    0
100
AcDbTrace
 10
9.999999999999998
 20
11.15
 30
0
 11
9.583715342227158
 21
13.65
 31
0
 12
10.41628465777284
 22
13.65
 32
0
 13
10.41628465777284
 23
13.65
 33
0
  0
SOLID
  5
107
100
AcDbEntity
  8
Dimensions_Window
  6
ByBlock
 62
    0
100
AcDbTrace
 10
10
 20
27.85
 30
0
 11
10.41628465777284
 21
25.35
 31
0
 12
9.58371534222716
 22
25.35
 32
0
 13
9.58371534222716
 23
25.35
 33
0
  0
LINE
  5
108
100
AcDbEntity
  8
Dimensions_Window
  6
ByBlock
 62
    0
100
AcDbLine
 10
14.085
 20
11.15
 11
8.749999999999998
 21
11.15
  0
LINE
  5
109
100
AcDbEntity
  8
Dimensions_Window
  6
ByBlock
 62
    0
100
AcDbLine
 10
14.085
 20
27.85
 11
8.75
 21
27.85
  0
ENDBLK
  5
61
100
AcDbEntity
  8
0
100
AcDbBlockEnd
  0
BLOCK
  5
63
100
AcDbEntity
  8
0
100
AcDbBlockBegin
  2
*D26
 70
    1
 10
0
 20
0
  3
*D26
  1

  0
LINE
  5
10A
100
AcDbEntity
  8
Dimensions_DieCut
  6
ByBlock
 62
    0
100
AcDbLine
 10
-35.79
 20
-15
 11
-20.09
 21
-15
  0
MTEXT
  5
10B
100
AcDbEntity
  8
Dimensions_DieCut
  6
CONTINUOUS
 62
    0
100
AcDbMText
 10
-27.94
 20
-13.125
 30
0
 40
2.5
 41
5.277777777777933
 71
    5
 72
    1
  1
15.7
  7
standard
210
0
220
0
230
1
 50
0
 73
    2
 44
1
  0
SOLID
  5
10C
100
AcDbEntity
  8
Dimensions_DieCut
  6
ByBlock
 62
    0
100
AcDbTrace
 10
-35.79
 20
-15
 30
0
 11
-33.29
 21
-14.58371534222716
 31
0
 12
-33.29
 22
-15.41628465777284
 32
0
 13
-33.29
 23
-15.41628465777284
 33
0
  0
SOLID
  5
10D
100
AcDbEntity
  8
Dimensions_DieCut
  6
ByBlock
 62
    0
100
AcDbTrace
 10
-20.09
 20
-15
 30
0
 11
-22.59
 21
-15.41628465777284
 31
0
 12
-22.59
 22
-14.58371534222716
 32
0
 13
-22.59
 23
-14.58371534222716
 33
0
  0
LINE
  5
10E
100
AcDbEntity
  8
Dimensions_DieCut
  6
ByBlock
 62
    0
100
AcDbLine
 10
-35.79
 20
6.875
 11
-35.79
 21
-16.25
  0
LINE
  5
10F
100
AcDbEntity
  8
Dimensions_DieCut
  6
ByBlock
 62
    0
100
AcDbLine
 10
-20.09
 20
6.875
 11
-20.09
 21
-16.25
  0
ENDBLK
  5
64
100
AcDbEntity
  8
0
100
AcDbBlockEnd
  0
BLOCK
  5
66
100
AcDbEntity
  8
0
100
AcDbBlockBegin
  2
*D1
 70
    1
 10
0
 20
0
  3
*D1
  1

  0
LINE
  5
110
100
AcDbEntity
  8
Dimensions
  6
ByBlock
 62
    0
100
AcDbLine
 10
-67.8
 20
50
 11
67.8
 21
50
  0
MTEXT
  5
111
100
AcDbEntity
  8
Dimensions
  6
CONTINUOUS
 62
    0
100
AcDbMText
 10
1.148068456708479e-16
 20
51.875
 30
0
 40
2.5
 41
7.222222222222687
 71
    5
 72
    1
  1
135.6
  7
standard
210
0
220
0
230
1
 50
0
 73
    2
 44
1
  0
SOLID
  5
112
100
AcDbEntity
  8
Dimensions
  6
ByBlock
 62
    0
100
AcDbTrace
 10
-67.8
 20
50
 30
0
 11
-65.3
 21
50.41628465777284
 31
0
 12
-65.3
 22
49.58371534222716
 32
0
 13
-65.3
 23
49.58371534222716
 33
0
  0
SOLID
  5
113
100
AcDbEntity
  8
Dimensions
  6
ByBlock
 62
    0
100
AcDbTrace
 10
67.8
 20
50
 30
0
 11
65.3
 21
49.58371534222716
 31
0
 12
65.3
 22
50.41628465777284
 32
0
 13
65.3
 23
50.41628465777284
 33
0
  0
LINE
  5
114
100
AcDbEntity
  8
Dimensions
  6
ByBlock
 62
    0
100
AcDbLine
 10
-67.8
 20
39.625
 11
-67.8
 21
51.25
  0
LINE
  5
115
100
AcDbEntity
  8
Dimensions
  6
ByBlock
 62
    0
100
AcDbLine
 10
67.8
 20
39.625
 11
67.8
 21
51.25
  0
ENDBLK
  5
67
100
AcDbEntity
  8
0
100
AcDbBlockEnd
  0
BLOCK
  5
69
100
AcDbEntity
  8
0
100
AcDbBlockBegin
  2
*D28
 70
    1
 10
0
 20
0
  3
*D28
  1

  0
LINE
  5
116
100
AcDbEntity
  8
Dimensions_DieCut
  6
ByBlock
 62
    0
100
AcDbLine
 10
-31
 20
1.5
 11
-31
 21
14.5
  0
MTEXT
  5
117
100
AcDbEntity
  8
Dimensions_DieCut
  6
CONTINUOUS
 62
    0
100
AcDbMText
 10
-32.875
 20
8
 30
0
 40
2.5
 41
1.111111111111266
 71
    5
 72
    1
  1
3
  7
standard
210
0
220
0
230
1
 50
90
 73
    2
 44
1
  0
SOLID
  5
118
100
AcDbEntity
  8
Dimensions_DieCut
  6
ByBlock
 62
    0
100
AcDbTrace
 10
-31
 20
6.5
 30
0
 11
-30.58371534222716
 21
4
 31
0
 12
-31.41628465777284
 22
4
 32
0
 13
-31.41628465777284
 23
4
 33
0
  0
SOLID
  5
119
100
AcDbEntity
  8
Dimensions_DieCut
  6
ByBlock
 62
    0
100
AcDbTrace
 10
-31
 20
9.5
 30
0
 11
-31.41628465777284
 21
12
 31
0
 12
-30.58371534222716
 22
12
 32
0
 13
-30.58371534222716
 23
12
 33
0
  0
LINE
  5
11A
100
AcDbEntity
  8
Dimensions_DieCut
  6
ByBlock
 62
    0
100
AcDbLine
 10
-34.165
 20
6.5
 11
-29.75
 21
6.5
  0
LINE
  5
11B
100
AcDbEntity
  8
Dimensions_DieCut
  6
ByBlock
 62
    0
100
AcDbLine
 10
-34.165
 20
9.5
 11
-29.75
 21
9.5
  0
ENDBLK
  5
6A
100
AcDbEntity
  8
0
100
AcDbBlockEnd
  0
BLOCK
  5
6C
100
AcDbEntity
  8
0
100
AcDbBlockBegin
  2
*D27
 70
    1
 10
0
 20
0
  3
*D27
  1

  0
LINE
  5
11C
100
AcDbEntity
  8
Dimensions_DieCut
  6
ByBlock
 62
    0
100
AcDbLine
 10
-23
 20
6.5
 11
-23
 21
1.4210854715202e-16
  0
MTEXT
  5
11D
100
AcDbEntity
  8
Dimensions_DieCut
  6
CONTINUOUS
 62
    0
100
AcDbMText
 10
-24.875
 20
3.25
 30
0
 40
2.5
 41
3.888888888889199
 71
    5
 72
    1
  1
6.5
  7
standard
210
0
220
0
230
1
 50
90
 73
    2
 44
1
  0
SOLID
  5
11E
100
AcDbEntity
  8
Dimensions_DieCut
  6
ByBlock
 62
    0
100
AcDbTrace
 10
-23
 20
6.5
 30
0
 11
-22.58371534222716
 21
4
 31
0
 12
-23.41628465777284
 22
4
 32
0
 13
-23.41628465777284
 23
4
 33
0
  0
SOLID
  5
11F
100
AcDbEntity
  8
Dimensions_DieCut
  6
ByBlock
 62
    0
100
AcDbTrace
 10
-23
 20
1.4210854715202e-16
 30
0
 11
-23.41628465777284
 21
2.5
 31
0
 12
-22.58371534222716
 22
2.5
 32
0
 13
-22.58371534222716
 23
2.5
 33
0
  0
LINE
  5
120
100
AcDbEntity
  8
Dimensions_DieCut
  6
ByBlock
 62
    0
100
AcDbLine
 10
-21.715
 20
6.5
 11
-24.25
 21
6.5
  0
LINE
  5
121
100
AcDbEntity
  8
Dimensions_DieCut
  6
ByBlock
 62
    0
100
AcDbLine
 10
-21.625
 20
7.653789711389858e-17
 11
-24.25
 21
2.951843413798172e-16
  0
ENDBLK
  5
6D
100
AcDbEntity
  8
0
100
AcDbBlockEnd
  0
BLOCK
  5
6F
100
AcDbEntity
  8
0
100
AcDbBlockBegin
  2
*D21
 70
    1
 10
0
 20
0
  3
*D21
  1

  0
SOLID
  5
122
100
AcDbEntity
  8
Dimensions_DieCut
  6
ByBlock
 62
    0
100
AcDbTrace
 10
42.43349357433728
 20
10.13155164190637
 30
0
 11
43.79024819785287
 21
12.27223139559821
 31
0
 12
44.41071324817083
 22
11.71707845584003
 32
0
 13
44.41071324817083
 23
11.71707845584003
 33
0
  0
LINE
  5
123
100
AcDbEntity
  8
Dimensions_DieCut
  6
ByBlock
 62
    0
100
AcDbLine
 10
41.6
 20
9.199999999999999
 11
53.54674123216782
 21
22.55224020065814
  0
MTEXT
  5
124
100
AcDbEntity
  8
Dimensions_DieCut
  6
CONTINUOUS
 62
    0
100
AcDbMText
 10
46.592789940393
 20
17.59213628278818
 30
0
 40
2.5
 41
11.66666666666682
 71
    5
 72
    1
  1
4-R1.25
  7
standard
210
0
220
0
230
1
 50
48.17983011986421
 73
    2
 44
1
  0
ENDBLK
  5
70
100
AcDbEntity
  8
0
100
AcDbBlockEnd
  0
BLOCK
  5
72
100
AcDbEntity
  8
0
100
AcDbBlockBegin
  2
*D20
 70
    1
 10
0
 20
0
  3
*D20
  1

  0
LINE
  5
125
100
AcDbEntity
  8
Dimensions_DieCut
  6
ByBlock
 62
    0
100
AcDbLine
 10
45.65329388130184
 20
6.305380296825156
 11
55.94670611869815
 21
15.79461970317485
  0
MTEXT
  5
126
100
AcDbEntity
  8
Dimensions_DieCut
  6
CONTINUOUS
 62
    0
100
AcDbMText
 10
49.52911972236388
 20
12.42858199607986
 30
0
 40
2.5
 41
1.388888888888889
 71
    5
 72
    1
  1
4
  7
standard
210
0
220
0
230
1
 50
42.67218491095875
 73
    2
 44
1
  0
SOLID
  5
127
100
AcDbEntity
  8
Dimensions_DieCut
  6
ByBlock
 62
    0
100
AcDbTrace
 10
49.32951253751481
 20
9.694394370521472
 30
0
 11
47.77356212217953
 21
7.693816648633363
 31
0
 12
47.20924429663712
 22
8.305958018713262
 32
0
 13
47.20924429663712
 23
8.305958018713262
 33
0
  0
SOLID
  5
128
100
AcDbEntity
  8
Dimensions_DieCut
  6
ByBlock
 62
    0
100
AcDbTrace
 10
52.27048746248519
 20
12.40560562947853
 30
0
 11
53.82643787782047
 21
14.40618335136664
 31
0
 12
54.39075570336287
 22
13.79404198128674
 32
0
 13
54.39075570336287
 23
13.79404198128674
 33
0
  0
ENDBLK
  5
73
100
AcDbEntity
  8
0
100
AcDbBlockEnd
  0
BLOCK
  5
75
100
AcDbEntity
  8
0
100
AcDbBlockBegin
  2
*D29
 70
    1
 10
0
 20
0
  3
*D29
  1

  0
SOLID
  5
129
100
AcDbEntity
  8
Dimensions_DieCut
  6
ByBlock
 62
    0
100
AcDbTrace
 10
-35.46591530675069
 20
9.236979306425983
 30
0
 11
-37.46249675198862
 21
10.7980544003368
 31
0
 12
-36.8489103952662
 22
11.36080074464507
 32
0
 13
-36.8489103952662
 23
11.36080074464507
 33
0
  0
LINE
  5
12A
100
AcDbEntity
  8
Dimensions_DieCut
  6
ByBlock
 62
    0
100
AcDbLine
 10
-34.79
 20
8.5
 11
-45.41689065613582
 21
20.08695242880851
  0
MTEXT
  5
12B
100
AcDbEntity
  8
Dimensions_DieCut
  6
CONTINUOUS
 62
    0
100
AcDbMText
 10
-39.05956678189454
 20
15.92930706777478
 30
0
 40
2.5
 41
9.722222222222221
 71
    5
 72
    1
  1
4-R1.0
  7
standard
210
0
220
0
230
1
 50
312.5252694239419
 73
    2
 44
1
  0
ENDBLK
  5
76
100
AcDbEntity
  8
0
100
AcDbBlockEnd
  0
BLOCK
  5
78
100
AcDbEntity
  8
0
100
AcDbBlockBegin
  2
*D17
 70
    1
 10
0
 20
0
  3
*D17
  1

  0
LINE
  5
12C
100
AcDbEntity
  8
Dimensions_DieCut
  6
ByBlock
 62
    0
100
AcDbLine
 10
36
 20
1.75
 11
36
 21
15.45
  0
MTEXT
  5
12D
100
AcDbEntity
  8
Dimensions_DieCut
  6
CONTINUOUS
 62
    0
100
AcDbMText
 10
34.125
 20
13.01944444444452
 30
0
 40
2.5
 41
3.888888888889044
 71
    5
 72
    1
  1
3.7
  7
standard
210
0
220
0
230
1
 50
90
 73
    2
 44
1
  0
SOLID
  5
12E
100
AcDbEntity
  8
Dimensions_DieCut
  6
ByBlock
 62
    0
100
AcDbTrace
 10
36
 20
6.75
 30
0
 11
36.41628465777284
 21
4.25
 31
0
 12
35.58371534222716
 22
4.25
 32
0
 13
35.58371534222716
 23
4.25
 33
0
  0
SOLID
  5
12F
100
AcDbEntity
  8
Dimensions_DieCut
  6
ByBlock
 62
    0
100
AcDbTrace
 10
36
 20
10.45
 30
0
 11
35.58371534222716
 21
12.95
 31
0
 12
36.41628465777284
 22
12.95
 32
0
 13
36.41628465777284
 23
12.95
 33
0
  0
LINE
  5
130
100
AcDbEntity
  8
Dimensions_DieCut
  6
ByBlock
 62
    0
100
AcDbLine
 10
35.225
 20
6.75
 11
37.25
 21
6.75
  0
LINE
  5
131
100
AcDbEntity
  8
Dimensions_DieCut
  6
ByBlock
 62
    0
100
AcDbLine
 10
35.225
 20
10.45
 11
37.25
 21
10.45
  0
ENDBLK
  5
79
100
AcDbEntity
  8
0
100
AcDbBlockEnd
  0
BLOCK
  5
7B
100
AcDbEntity
  8
0
100
AcDbBlockBegin
  2
*D9
 70
    1
 10
0
 20
0
  3
*D9
  1

  0
LINE
  5
132
100
AcDbEntity
  8
Dimensions_DieCut
  6
ByBlock
 62
    0
100
AcDbLine
 10
30
 20
11.05
 11
30
 21
-2.1316282072803e-16
  0
MTEXT
  5
133
100
AcDbEntity
  8
Dimensions_DieCut
  6
CONTINUOUS
 62
    0
100
AcDbMText
 10
28.125
 20
5.525
 30
0
 40
2.5
 41
6.666666666666822
 71
    5
 72
    1
  1
11.05
  7
standard
210
0
220
0
230
1
 50
90
 73
    2
 44
1
  0
SOLID
  5
134
100
AcDbEntity
  8
Dimensions_DieCut
  6
ByBlock
 62
    0
100
AcDbTrace
 10
30
 20
11.05
 30
0
 11
30.41628465777284
 21
8.550000000000001
 31
0
 12
29.58371534222716
 22
8.550000000000001
 32
0
 13
29.58371534222716
 23
8.550000000000001
 33
0
  0
SOLID
  5
135
100
AcDbEntity
  8
Dimensions_DieCut
  6
ByBlock
 62
    0
100
AcDbTrace
 10
30
 20
-2.1316282072803e-16
 30
0
 11
29.58371534222716
 21
2.5
 31
0
 12
30.41628465777284
 22
2.5
 32
0
 13
30.41628465777284
 23
2.5
 33
0
  0
LINE
  5
136
100
AcDbEntity
  8
Dimensions_DieCut
  6
ByBlock
 62
    0
100
AcDbLine
 10
28.025
 20
11.05
 11
31.25
 21
11.05
  0
LINE
  5
137
100
AcDbEntity
  8
Dimensions_DieCut
  6
ByBlock
 62
    0
100
AcDbLine
 10
27.625
 20
0
 11
31.25
 21
-2.1316282072803e-16
  0
ENDBLK
  5
7C
100
AcDbEntity
  8
0
100
AcDbBlockEnd
  0
BLOCK
  5
7E
100
AcDbEntity
  8
0
100
AcDbBlockBegin
  2
*D10
 70
    1
 10
0
 20
0
  3
*D10
  1

  0
LINE
  5
138
100
AcDbEntity
  8
Dimensions_DieCut
  6
ByBlock
 62
    0
100
AcDbLine
 10
56
 20
11.05
 11
56
 21
-2.842170943040401e-16
  0
MTEXT
  5
139
100
AcDbEntity
  8
Dimensions_DieCut
  6
CONTINUOUS
 62
    0
100
AcDbMText
 10
54.125
 20
5.525
 30
0
 40
2.5
 41
6.666666666666822
 71
    5
 72
    1
  1
11.05
  7
standard
210
0
220
0
230
1
 50
90
 73
    2
 44
1
  0
SOLID
  5
13A
100
AcDbEntity
  8
Dimensions_DieCut
  6
ByBlock
 62
    0
100
AcDbTrace
 10
56
 20
11.05
 30
0
 11
56.41628465777284
 21
8.550000000000001
 31
0
 12
55.58371534222716
 22
8.550000000000001
 32
0
 13
55.58371534222716
 23
8.550000000000001
 33
0
  0
SOLID
  5
13B
100
AcDbEntity
  8
Dimensions_DieCut
  6
ByBlock
 62
    0
100
AcDbTrace
 10
56
 20
-2.842170943040401e-16
 30
0
 11
55.58371534222716
 21
2.5
 31
0
 12
56.41628465777284
 22
2.5
 32
0
 13
56.41628465777284
 23
2.5
 33
0
  0
LINE
  5
13C
100
AcDbEntity
  8
Dimensions_DieCut
  6
ByBlock
 62
    0
100
AcDbLine
 10
53.425
 20
11.05
 11
57.25
 21
11.05
  0
LINE
  5
13D
100
AcDbEntity
  8
Dimensions_DieCut
  6
ByBlock
 62
    0
100
AcDbLine
 10
52.625
 20
0
 11
57.25
 21
-2.842170943040401e-16
  0
ENDBLK
  5
7F
100
AcDbEntity
  8
0
100
AcDbBlockEnd
  0
BLOCK
  5
81
100
AcDbEntity
  8
0
100
AcDbBlockBegin
  2
*D34
 70
    1
 10
0
 20
0
  3
*D34
  1

  0
SOLID
  5
13E
100
AcDbEntity
  8
Dimensions_DieCut
  6
ByBlock
 62
    0
100
AcDbTrace
 10
-53.15647158117942
 20
8.88184161034776
 30
0
 11
-54.58765478354575
 21
10.97349348328491
 31
0
 12
-53.83264628471017
 22
11.32439778914942
 32
0
 13
-53.83264628471017
 23
11.32439778914942
 33
0
  0
LINE
  5
13F
100
AcDbEntity
  8
Dimensions_DieCut
  6
ByBlock
 62
    0
100
AcDbLine
 10
-52.735
 20
7.975
 11
-59.24439442043769
 21
21.98066487092653
  0
MTEXT
  5
140
100
AcDbEntity
  8
Dimensions_DieCut
  6
CONTINUOUS
 62
    0
100
AcDbMText
 10
-54.5001049814065
 20
16.22151245534856
 30
0
 40
2.5
 41
9.444444444444445
 71
    5
 72
    1
  1
2-R1.0
  7
standard
210
0
220
0
230
1
 50
294.9275294711547
 73
    2
 44
1
  0
ENDBLK
  5
82
100
AcDbEntity
  8
0
100
AcDbBlockEnd
  0
BLOCK
  5
84
100
AcDbEntity
  8
0
100
AcDbBlockBegin
  2
*D12
 70
    1
 10
0
 20
0
  3
*D12
  1

  0
LINE
  5
141
100
AcDbEntity
  8
Dimensions_DieCut
  6
ByBlock
 62
    0
100
AcDbLine
 10
33.35
 20
-21
 11
42.85
 21
-21
  0
MTEXT
  5
142
100
AcDbEntity
  8
Dimensions_DieCut
  6
CONTINUOUS
 62
    0
100
AcDbMText
 10
38.1
 20
-19.125
 30
0
 40
2.5
 41
3.888888888889199
 71
    5
 72
    1
  1
9.5
  7
standard
210
0
220
0
230
1
 50
0
 73
    2
 44
1
  0
SOLID
  5
143
100
AcDbEntity
  8
Dimensions_DieCut
  6
ByBlock
 62
    0
100
AcDbTrace
 10
33.35
 20
-21
 30
0
 11
35.85
 21
-20.58371534222716
 31
0
 12
35.85
 22
-21.41628465777284
 32
0
 13
35.85
 23
-21.41628465777284
 33
0
  0
SOLID
  5
144
100
AcDbEntity
  8
Dimensions_DieCut
  6
ByBlock
 62
    0
100
AcDbTrace
 10
42.85
 20
-21
 30
0
 11
40.35
 21
-21.41628465777284
 31
0
 12
40.35
 22
-20.58371534222716
 32
0
 13
40.35
 23
-20.58371534222716
 33
0
  0
LINE
  5
145
100
AcDbEntity
  8
Dimensions_DieCut
  6
ByBlock
 62
    0
100
AcDbLine
 10
33.35
 20
7.375
 11
33.35
 21
-22.25
  0
LINE
  5
146
100
AcDbEntity
  8
Dimensions_DieCut
  6
ByBlock
 62
    0
100
AcDbLine
 10
42.85
 20
7.375
 11
42.85
 21
-22.25
  0
ENDBLK
  5
85
100
AcDbEntity
  8
0
100
AcDbBlockEnd
  0
BLOCK
  5
87
100
AcDbEntity
  8
0
100
AcDbBlockBegin
  2
*D38
 70
    1
 10
0
 20
0
  3
*D38
  1

  0
LINE
  5
147
100
AcDbEntity
  8
Dimensions
  6
ByBlock
 62
    0
100
AcDbLine
 10
-78.3
 20
55
 11
78.3
 21
55
  0
MTEXT
  5
148
100
AcDbEntity
  8
Dimensions
  6
CONTINUOUS
 62
    0
100
AcDbMText
 10
1.148068456708479e-16
 20
56.875
 30
0
 40
2.5
 41
22.63888888888959
 71
    5
 72
    1
  1
156.6 %%P 0.2mm
  7
standard
210
0
220
0
230
1
 50
0
 73
    2
 44
1
  0
SOLID
  5
149
100
AcDbEntity
  8
Dimensions
  6
ByBlock
 62
    0
100
AcDbTrace
 10
-78.3
 20
55
 30
0
 11
-75.8
 21
55.41628465777284
 31
0
 12
-75.8
 22
54.58371534222716
 32
0
 13
-75.8
 23
54.58371534222716
 33
0
  0
SOLID
  5
14A
100
AcDbEntity
  8
Dimensions
  6
ByBlock
 62
    0
100
AcDbTrace
 10
78.3
 20
55
 30
0
 11
75.8
 21
54.58371534222716
 31
0
 12
75.8
 22
55.41628465777284
 32
0
 13
75.8
 23
55.41628465777284
 33
0
  0
LINE
  5
14B
100
AcDbEntity
  8
Dimensions
  6
ByBlock
 62
    0
100
AcDbLine
 10
-78.3
 20
29.125
 11
-78.3
 21
56.25
  0
LINE
  5
14C
100
AcDbEntity
  8
Dimensions
  6
ByBlock
 62
    0
100
AcDbLine
 10
78.3
 20
29.125
 11
78.3
 21
56.25
  0
ENDBLK
  5
88
100
AcDbEntity
  8
0
100
AcDbBlockEnd
  0
BLOCK
  5
8A
100
AcDbEntity
  8
0
100
AcDbBlockBegin
  2
*D8
 70
    1
 10
0
 20
0
  3
*D8
  1

  0
LINE
  5
14D
100
AcDbEntity
  8
Dimensions_DieCut
  6
ByBlock
 62
    0
100
AcDbLine
 10
25.4
 20
-15
 11
0
 21
-15
  0
MTEXT
  5
14E
100
AcDbEntity
  8
Dimensions_DieCut
  6
CONTINUOUS
 62
    0
100
AcDbMText
 10
12.7
 20
-13.125
 30
0
 40
2.5
 41
6.111111111111267
 71
    5
 72
    1
  1
25.4
  7
standard
210
0
220
0
230
1
 50
0
 73
    2
 44
1
  0
SOLID
  5
14F
100
AcDbEntity
  8
Dimensions_DieCut
  6
ByBlock
 62
    0
100
AcDbTrace
 10
25.4
 20
-15
 30
0
 11
22.9
 21
-15.41628465777284
 31
0
 12
22.9
 22
-14.58371534222716
 32
0
 13
22.9
 23
-14.58371534222716
 33
0
  0
SOLID
  5
150
100
AcDbEntity
  8
Dimensions_DieCut
  6
ByBlock
 62
    0
100
AcDbTrace
 10
0
 20
-15
 30
0
 11
2.5
 21
-14.58371534222716
 31
0
 12
2.5
 22
-15.41628465777284
 32
0
 13
2.5
 23
-15.41628465777284
 33
0
  0
LINE
  5
151
100
AcDbEntity
  8
Dimensions_DieCut
  6
ByBlock
 62
    0
100
AcDbLine
 10
25.4
 20
8.425000000000001
 11
25.4
 21
-16.25
  0
LINE
  5
152
100
AcDbEntity
  8
Dimensions_DieCut
  6
ByBlock
 62
    0
100
AcDbLine
 10
-1.148068456708479e-16
 20
-0.625
 11
-2.296136913416957e-16
 21
-16.25
  0
ENDBLK
  5
8B
100
AcDbEntity
  8
0
100
AcDbBlockEnd
  0
BLOCK
  5
8D
100
AcDbEntity
  8
0
100
AcDbBlockBegin
  2
*D15
 70
    1
 10
0
 20
0
  3
*D15
  1

  0
LINE
  5
153
100
AcDbEntity
  8
Dimensions_DieCut
  6
ByBlock
 62
    0
100
AcDbLine
 10
40
 20
6.75
 11
40
 21
7.105427357601002e-17
  0
MTEXT
  5
154
100
AcDbEntity
  8
Dimensions_DieCut
  6
CONTINUOUS
 62
    0
100
AcDbMText
 10
38.125
 20
3.375
 30
0
 40
2.5
 41
5.833333333333643
 71
    5
 72
    1
  1
6.75
  7
standard
210
0
220
0
230
1
 50
90
 73
    2
 44
1
  0
SOLID
  5
155
100
AcDbEntity
  8
Dimensions_DieCut
  6
ByBlock
 62
    0
100
AcDbTrace
 10
40
 20
6.75
 30
0
 11
40.41628465777284
 21
4.25
 31
0
 12
39.58371534222716
 22
4.25
 32
0
 13
39.58371534222716
 23
4.25
 33
0
  0
SOLID
  5
156
100
AcDbEntity
  8
Dimensions_DieCut
  6
ByBlock
 62
    0
100
AcDbTrace
 10
40
 20
7.105427357601002e-17
 30
0
 11
39.58371534222716
 21
2.5
 31
0
 12
40.41628465777284
 22
2.5
 32
0
 13
40.41628465777284
 23
2.5
 33
0
  0
LINE
  5
157
100
AcDbEntity
  8
Dimensions_DieCut
  6
ByBlock
 62
    0
100
AcDbLine
 10
40.975
 20
6.75
 11
38.75
 21
6.75
  0
LINE
  5
158
100
AcDbEntity
  8
Dimensions_DieCut
  6
ByBlock
 62
    0
100
AcDbLine
 10
40.375
 20
7.653789711389858e-17
 11
38.75
 21
2.241300678038072e-16
  0
ENDBLK
  5
8E
100
AcDbEntity
  8
0
100
AcDbBlockEnd
  0
BLOCK
  5
90
100
AcDbEntity
  8
0
100
AcDbBlockBegin
  2
*D32
 70
    1
 10
0
 20
0
  3
*D32
  1

  0
LINE
  5
159
100
AcDbEntity
  8
Dimensions_DieCut
  6
ByBlock
 62
    0
100
AcDbLine
 10
-44
 20
6.975
 11
-44
 21
0
  0
MTEXT
  5
15A
100
AcDbEntity
  8
Dimensions_DieCut
  6
CONTINUOUS
 62
    0
100
AcDbMText
 10
-45.875
 20
11.48888888888904
 30
0
 40
2.5
 41
7.777777777778088
 71
    5
 72
    1
  1
6.975
  7
standard
210
0
220
0
230
1
 50
90
 73
    2
 44
1
  0
SOLID
  5
15B
100
AcDbEntity
  8
Dimensions_DieCut
  6
ByBlock
 62
    0
100
AcDbTrace
 10
-44
 20
6.975
 30
0
 11
-43.58371534222716
 21
4.475
 31
0
 12
-44.41628465777284
 22
4.475
 32
0
 13
-44.41628465777284
 23
4.475
 33
0
  0
SOLID
  5
15C
100
AcDbEntity
  8
Dimensions_DieCut
  6
ByBlock
 62
    0
100
AcDbTrace
 10
-44
 20
0
 30
0
 11
-44.41628465777284
 21
2.5
 31
0
 12
-43.58371534222716
 22
2.5
 32
0
 13
-43.58371534222716
 23
2.5
 33
0
  0
LINE
  5
15D
100
AcDbEntity
  8
Dimensions_DieCut
  6
ByBlock
 62
    0
100
AcDbLine
 10
-44.41
 20
6.975
 11
-45.25
 21
6.975
  0
LINE
  5
15E
100
AcDbEntity
  8
Dimensions_DieCut
  6
ByBlock
 62
    0
100
AcDbLine
 10
-44.625
 20
7.653789711389858e-17
 11
-45.25
 21
1.530757942277972e-16
  0
ENDBLK
  5
91
100
AcDbEntity
  8
0
100
AcDbBlockEnd
  0
BLOCK
  5
93
100
AcDbEntity
  8
0
100
AcDbBlockBegin
  2
*D5
 70
    1
 10
0
 20
0
  3
*D5
  1

  0
LINE
  5
15F
100
AcDbEntity
  8
Dimensions_Window
  6
ByBlock
 62
    0
100
AcDbLine
 10
10
 20
11.15
 11
10
 21
2.1316282072803e-16
  0
MTEXT
  5
160
100
AcDbEntity
  8
Dimensions_Window
  6
CONTINUOUS
 62
    0
100
AcDbMText
 10
8.125
 20
5.575
 30
0
 40
2.5
 41
6.111111111111267
 71
    5
 72
    1
  1
11.15
  7
standard
210
0
220
0
230
1
 50
90
 73
    2
 44
1
  0
SOLID
  5
161
100
AcDbEntity
  8
Dimensions_Window
  6
ByBlock
 62
    0
100
AcDbTrace
 10
10
 20
11.15
 30
0
 11
10.41628465777284
 21
8.65
 31
0
 12
9.58371534222716
 22
8.65
 32
0
 13
9.58371534222716
 23
8.65
 33
0
  0
SOLID
  5
162
100
AcDbEntity
  8
Dimensions_Window
  6
ByBlock
 62
    0
100
AcDbTrace
 10
10
 20
2.1316282072803e-16
 30
0
 11
9.58371534222716
 21
2.5
 31
0
 12
10.41628465777284
 22
2.5
 32
0
 13
10.41628465777284
 23
2.5
 33
0
  0
LINE
  5
163
100
AcDbEntity
  8
Dimensions_Window
  6
ByBlock
 62
    0
100
AcDbLine
 10
14.085
 20
11.15
 11
8.75
 21
11.15
  0
LINE
  5
164
100
AcDbEntity
  8
Dimensions_Window
  6
ByBlock
 62
    0
100
AcDbLine
 10
13.375
 20
7.653789711389858e-17
 11
8.75
 21
3.662386149558272e-16
  0
ENDBLK
  5
94
100
AcDbEntity
  8
0
100
AcDbBlockEnd
  0
BLOCK
  5
96
100
AcDbEntity
  8
0
100
AcDbBlockBegin
  2
*D39
 70
    1
 10
0
 20
0
  3
*D39
  1

  0
LINE
  5
165
100
AcDbEntity
  8
Dimensions
  6
ByBlock
 62
    0
100
AcDbLine
 10
95
 20
39
 11
95
 21
3.944304526105059e-31
  0
MTEXT
  5
166
100
AcDbEntity
  8
Dimensions
  6
CONTINUOUS
 62
    0
100
AcDbMText
 10
93.125
 20
19.5
 30
0
 40
2.5
 41
21.25000000000039
 71
    5
 72
    1
  1
39.0 %%P 0.2mm
  7
standard
210
0
220
0
230
1
 50
90
 73
    2
 44
1
  0
SOLID
  5
167
100
AcDbEntity
  8
Dimensions
  6
ByBlock
 62
    0
100
AcDbTrace
 10
95
 20
39
 30
0
 11
95.41628465777283
 21
36.5
 31
0
 12
94.58371534222717
 22
36.5
 32
0
 13
94.58371534222717
 23
36.5
 33
0
  0
SOLID
  5
168
100
AcDbEntity
  8
Dimensions
  6
ByBlock
 62
    0
100
AcDbTrace
 10
95
 20
3.944304526105059e-31
 30
0
 11
94.58371534222717
 21
2.5
 31
0
 12
95.41628465777283
 22
2.5
 32
0
 13
95.41628465777283
 23
2.5
 33
0
  0
LINE
  5
169
100
AcDbEntity
  8
Dimensions
  6
ByBlock
 62
    0
100
AcDbLine
 10
68.425
 20
39
 11
96.25
 21
39
  0
LINE
  5
16A
100
AcDbEntity
  8
Dimensions
  6
ByBlock
 62
    0
100
AcDbLine
 10
68.425
 20
0
 11
96.25
 21
3.944304526105059e-31
  0
ENDBLK
  5
97
100
AcDbEntity
  8
0
100
AcDbBlockEnd
  0
BLOCK
  5
99
100
AcDbEntity
  8
0
100
AcDbBlockBegin
  2
*D16
 70
    1
 10
0
 20
0
  3
*D16
  1

  0
LINE
  5
16B
100
AcDbEntity
  8
Dimensions_DieCut
  6
ByBlock
 62
    0
100
AcDbLine
 10
66
 20
6.75
 11
66
 21
0
  0
MTEXT
  5
16C
100
AcDbEntity
  8
Dimensions_DieCut
  6
CONTINUOUS
 62
    0
100
AcDbMText
 10
64.125
 20
3.375
 30
0
 40
2.5
 41
5.833333333333643
 71
    5
 72
    1
  1
6.75
  7
standard
210
0
220
0
230
1
 50
90
 73
    2
 44
1
  0
SOLID
  5
16D
100
AcDbEntity
  8
Dimensions_DieCut
  6
ByBlock
 62
    0
100
AcDbTrace
 10
66
 20
6.75
 30
0
 11
66.41628465777283
 21
4.25
 31
0
 12
65.58371534222717
 22
4.25
 32
0
 13
65.58371534222717
 23
4.25
 33
0
  0
SOLID
  5
16E
100
AcDbEntity
  8
Dimensions_DieCut
  6
ByBlock
 62
    0
100
AcDbTrace
 10
66
 20
0
 30
0
 11
65.58371534222717
 21
2.5
 31
0
 12
66.41628465777283
 22
2.5
 32
0
 13
66.41628465777283
 23
2.5
 33
0
  0
LINE
  5
16F
100
AcDbEntity
  8
Dimensions_DieCut
  6
ByBlock
 62
    0
100
AcDbLine
 10
66.375
 20
6.75
 11
64.75
 21
6.75
  0
LINE
  5
170
100
AcDbEntity
  8
Dimensions_DieCut
  6
ByBlock
 62
    0
100
AcDbLine
 10
66.375
 20
7.653789711389858e-17
 11
64.75
 21
1.530757942277972e-16
  0
ENDBLK
  5
9A
100
AcDbEntity
  8
0
100
AcDbBlockEnd
  0
BLOCK
  5
9C
100
AcDbEntity
  8
0
100
AcDbBlockBegin
  2
*D4
 70
    1
 10
0
 20
0
  3
*D4
  1

  0
LINE
  5
171
100
AcDbEntity
  8
Dimensions_Window
  6
ByBlock
 62
    0
100
AcDbLine
 10
-15.71
 20
-10
 11
0
 21
-10
  0
MTEXT
  5
172
100
AcDbEntity
  8
Dimensions_Window
  6
CONTINUOUS
 62
    0
100
AcDbMText
 10
-7.855
 20
-8.125
 30
0
 40
2.5
 41
6.666666666666822
 71
    5
 72
    1
  1
15.71
  7
standard
210
0
220
0
230
1
 50
0
 73
    2
 44
1
  0
SOLID
  5
173
100
AcDbEntity
  8
Dimensions_Window
  6
ByBlock
 62
    0
100
AcDbTrace
 10
-15.71
 20
-10
 30
0
 11
-13.21
 21
-9.58371534222716
 31
0
 12
-13.21
 22
-10.41628465777284
 32
0
 13
-13.21
 23
-10.41628465777284
 33
0
  0
SOLID
  5
174
100
AcDbEntity
  8
Dimensions_Window
  6
ByBlock
 62
    0
100
AcDbTrace
 10
0
 20
-10
 30
0
 11
-2.5
 21
-10.41628465777284
 31
0
 12
-2.5
 22
-9.58371534222716
 32
0
 13
-2.5
 23
-9.58371534222716
 33
0
  0
LINE
  5
175
100
AcDbEntity
  8
Dimensions_Window
  6
ByBlock
 62
    0
100
AcDbLine
 10
-15.71
 20
11.525
 11
-15.71
 21
-11.25
  0
LINE
  5
176
100
AcDbEntity
  8
Dimensions_Window
  6
ByBlock
 62
    0
100
AcDbLine
 10
-1.148068456708479e-16
 20
-0.625
 11
-2.296136913416957e-16
 21
-11.25
  0
ENDBLK
  5
9D
100
AcDbEntity
  8
0
100
AcDbBlockEnd
  0
BLOCK
  5
9F
100
AcDbEntity
  8
0
100
AcDbBlockBegin
  2
*D19
 70
    1
 10
0
 20
0
  3
*D19
  1

  0
LINE
  5
177
100
AcDbEntity
  8
Dimensions_DieCut
  6
ByBlock
 62
    0
100
AcDbLine
 10
20.68477488117211
 20
5.876350216841638
 11
30.11522511882788
 21
16.22364978315836
  0
MTEXT
  5
178
100
AcDbEntity
  8
Dimensions_DieCut
  6
CONTINUOUS
 62
    0
100
AcDbMText
 10
24.01420095093972
 20
12.31300672825747
 30
0
 40
2.5
 41
1.388888888888889
 71
    5
 72
    1
  1
4
  7
standard
210
0
220
0
230
1
 50
47.65419551340657
 73
    2
 44
1
  0
SOLID
  5
179
100
AcDbEntity
  8
Dimensions_DieCut
  6
ByBlock
 62
    0
100
AcDbTrace
 10
24.05279282319203
 20
9.57181434766904
 30
0
 11
22.67645685638473
 21
7.443671442982029
 31
0
 12
22.06111084797941
 22
8.004493121528649
 32
0
 13
22.06111084797941
 23
8.004493121528649
 33
0
  0
SOLID
  5
17A
100
AcDbEntity
  8
Dimensions_DieCut
  6
ByBlock
 62
    0
100
AcDbTrace
 10
26.74720717680797
 20
12.52818565233096
 30
0
 11
28.12354314361527
 21
14.65632855701797
 31
0
 12
28.73888915202058
 22
14.09550687847135
 32
0
 13
28.73888915202058
 23
14.09550687847135
 33
0
  0
ENDBLK
  5
A0
100
AcDbEntity
  8
0
100
AcDbBlockEnd
  0
BLOCK
  5
A2
100
AcDbEntity
  8
0
100
AcDbBlockBegin
  2
*D37
 70
    1
 10
0
 20
0
  3
*D37
  1

  0
LINE
  5
17B
100
AcDbEntity
  8
Dimensions_DieCut
  6
ByBlock
 62
    0
100
AcDbLine
 10
-68.1999811134089
 20
3.937802540197233
 11
-58.8000188865911
 21
16.26219745980277
  0
MTEXT
  5
17C
100
AcDbEntity
  8
Dimensions_DieCut
  6
CONTINUOUS
 62
    0
100
AcDbMText
 10
-64.99085422414583
 20
11.23709220485699
 30
0
 40
2.5
 41
3.888888888889199
 71
    5
 72
    1
  1
5.5
  7
standard
210
0
220
0
230
1
 50
52.66680426181416
 73
    2
 44
1
  0
SOLID
  5
17D
100
AcDbEntity
  8
Dimensions_DieCut
  6
ByBlock
 62
    0
100
AcDbTrace
 10
-65.16773523379025
 20
7.913413804586114
 30
0
 11
-66.35286097867278
 21
5.673152684735641
 31
0
 12
-67.01485536852637
 22
6.178063660047702
 32
0
 13
-67.01485536852637
 23
6.178063660047702
 33
0
  0
SOLID
  5
17E
100
AcDbEntity
  8
Dimensions_DieCut
  6
ByBlock
 62
    0
100
AcDbTrace
 10
-61.83226476620975
 20
12.28658619541389
 30
0
 11
-60.64713902132722
 21
14.52684731526436
 31
0
 12
-59.98514463147363
 22
14.0219363399523
 32
0
 13
-59.98514463147363
 23
14.0219363399523
 33
0
  0
ENDBLK
  5
A3
100
AcDbEntity
  8
0
100
AcDbBlockEnd
  0
BLOCK
  5
A5
100
AcDbEntity
  8
0
100
AcDbBlockBegin
  2
*D24
 70
    1
 10
0
 20
0
  3
*D24
  1

  0
SOLID
  5
17F
100
AcDbEntity
  8
Dimensions
  6
ByBlock
 62
    0
100
AcDbTrace
 10
69.51791138077466
 20
38.39738922596833
 30
0
 11
70.75458529455625
 21
40.60961221365949
 31
0
 12
71.4047127047652
 22
40.08951028549232
 32
0
 13
71.4047127047652
 23
40.08951028549232
 33
0
  0
LINE
  5
180
100
AcDbEntity
  8
Dimensions
  6
ByBlock
 62
    0
100
AcDbLine
 10
67.8
 20
36.25
 11
80.10302190878028
 21
51.62877738597536
  0
MTEXT
  5
181
100
AcDbEntity
  8
Dimensions
  6
CONTINUOUS
 62
    0
100
AcDbMText
 10
73.34633762707179
 20
46.18438652013639
 30
0
 40
2.5
 41
11.9444444444446
 71
    5
 72
    1
  1
8-R2.75
  7
standard
210
0
220
0
230
1
 50
51.34019174590992
 73
    2
 44
1
  0
ENDBLK
  5
A6
100
AcDbEntity
  8
0
100
AcDbBlockEnd
  0
BLOCK
  5
A8
100
AcDbEntity
  8
0
100
AcDbBlockBegin
  2
*D3
 70
    1
 10
0
 20
0
  3
*D3
  1

  0
LINE
  5
182
100
AcDbEntity
  8
Dimensions_Window
  6
ByBlock
 62
    0
100
AcDbLine
 10
15.71
 20
-9.999999999999998
 11
-9.860761315262648e-32
 21
-9.999999999999998
  0
MTEXT
  5
183
100
AcDbEntity
  8
Dimensions_Window
  6
CONTINUOUS
 62
    0
100
AcDbMText
 10
7.855
 20
-8.124999999999998
 30
0
 40
2.5
 41
6.666666666666822
 71
    5
 72
    1
  1
15.71
  7
standard
210
0
220
0
230
1
 50
0
 73
    2
 44
1
  0
SOLID
  5
184
100
AcDbEntity
  8
Dimensions_Window
  6
ByBlock
 62
    0
100
AcDbTrace
 10
15.71
 20
-9.999999999999998
 30
0
 11
13.21
 21
-10.41628465777284
 31
0
 12
13.21
 22
-9.583715342227158
 32
0
 13
13.21
 23
-9.583715342227158
 33
0
  0
SOLID
  5
185
100
AcDbEntity
  8
Dimensions_Window
  6
ByBlock
 62
    0
100
AcDbTrace
 10
-9.860761315262648e-32
 20
-9.999999999999998
 30
0
 11
2.5
 21
-9.583715342227158
 31
0
 12
2.5
 22
-10.41628465777284
 32
0
 13
2.5
 23
-10.41628465777284
 33
0
  0
LINE
  5
186
100
AcDbEntity
  8
Dimensions_Window
  6
ByBlock
 62
    0
100
AcDbLine
 10
15.71
 20
11.525
 11
15.71
 21
-11.25
  0
LINE
  5
187
100
AcDbEntity
  8
Dimensions_Window
  6
ByBlock
 62
    0
100
AcDbLine
 10
-1.148068456708479e-16
 20
-0.625
 11
-2.296136913416958e-16
 21
-11.25
  0
ENDBLK
  5
A9
100
AcDbEntity
  8
0
100
AcDbBlockEnd
  0
BLOCK
  5
AB
100
AcDbEntity
  8
0
100
AcDbBlockBegin
  2
*D22
 70
    1
 10
0
 20
0
  3
*D22
  1

  0
SOLID
  5
188
100
AcDbEntity
  8
Dimensions_DieCut
  6
ByBlock
 62
    0
100
AcDbTrace
 10
67.90624929199302
 20
10.06093682739337
 30
0
 11
69.43203204193468
 21
12.08461662327945
 31
0
 12
70.00546371002345
 22
11.48100434108074
 32
0
 13
70.00546371002345
 23
11.48100434108074
 33
0
  0
LINE
  5
189
100
AcDbEntity
  8
Dimensions_DieCut
  6
ByBlock
 62
    0
100
AcDbLine
 10
67
 20
9.199999999999999
 11
79.98957318523338
 21
21.54009452597167
  0
MTEXT
  5
18A
100
AcDbEntity
  8
Dimensions_DieCut
  6
CONTINUOUS
 62
    0
100
AcDbMText
 10
72.65650599752315
 20
17.15988961467205
 30
0
 40
2.5
 41
11.66666666666682
 71
    5
 72
    1
  1
4-R1.25
  7
standard
210
0
220
0
230
1
 50
43.53119928561409
 73
    2
 44
1
  0
ENDBLK
  5
AC
100
AcDbEntity
  8
0
100
AcDbBlockEnd
  0
BLOCK
  5
AE
100
AcDbEntity
  8
0
100
AcDbBlockBegin
  2
*D30
 70
    1
 10
0
 20
0
  3
*D30
  1

  0
LINE
  5
18B
100
AcDbEntity
  8
Dimensions_DieCut
  6
ByBlock
 62
    0
100
AcDbLine
 10
-42.785
 20
-21
 11
-53.735
 21
-21
  0
MTEXT
  5
18C
100
AcDbEntity
  8
Dimensions_DieCut
  6
CONTINUOUS
 62
    0
100
AcDbMText
 10
-48.26
 20
-19.125
 30
0
 40
2.5
 41
7.222222222222378
 71
    5
 72
    1
  1
10.95
  7
standard
210
0
220
0
230
1
 50
0
 73
    2
 44
1
  0
SOLID
  5
18D
100
AcDbEntity
  8
Dimensions_DieCut
  6
ByBlock
 62
    0
100
AcDbTrace
 10
-42.785
 20
-21
 30
0
 11
-45.285
 21
-21.41628465777284
 31
0
 12
-45.285
 22
-20.58371534222716
 32
0
 13
-45.285
 23
-20.58371534222716
 33
0
  0
SOLID
  5
18E
100
AcDbEntity
  8
Dimensions_DieCut
  6
ByBlock
 62
    0
100
AcDbTrace
 10
-53.735
 20
-21
 30
0
 11
-51.235
 21
-20.58371534222716
 31
0
 12
-51.235
 22
-21.41628465777284
 32
0
 13
-51.235
 23
-21.41628465777284
 33
0
  0
LINE
  5
18F
100
AcDbEntity
  8
Dimensions_DieCut
  6
ByBlock
 62
    0
100
AcDbLine
 10
-42.785
 20
7.35
 11
-42.785
 21
-22.25
  0
LINE
  5
190
100
AcDbEntity
  8
Dimensions_DieCut
  6
ByBlock
 62
    0
100
AcDbLine
 10
-53.735
 20
7.35
 11
-53.735
 21
-22.25
  0
ENDBLK
  5
AF
100
AcDbEntity
  8
0
100
AcDbBlockEnd
  0
BLOCK
  5
B1
100
AcDbEntity
  8
0
100
AcDbBlockBegin
  2
*D13
 70
    1
 10
0
 20
0
  3
*D13
  1

  0
LINE
  5
191
100
AcDbEntity
  8
Dimensions_DieCut
  6
ByBlock
 62
    0
100
AcDbLine
 10
58.75
 20
-27
 11
0
 21
-27
  0
MTEXT
  5
192
100
AcDbEntity
  8
Dimensions_DieCut
  6
CONTINUOUS
 62
    0
100
AcDbMText
 10
29.375
 20
-25.125
 30
0
 40
2.5
 41
7.777777777778088
 71
    5
 72
    1
  1
58.75
  7
standard
210
0
220
0
230
1
 50
0
 73
    2
 44
1
  0
SOLID
  5
193
100
AcDbEntity
  8
Dimensions_DieCut
  6
ByBlock
 62
    0
100
AcDbTrace
 10
58.75
 20
-27
 30
0
 11
56.25
 21
-27.41628465777284
 31
0
 12
56.25
 22
-26.58371534222716
 32
0
 13
56.25
 23
-26.58371534222716
 33
0
  0
SOLID
  5
194
100
AcDbEntity
  8
Dimensions_DieCut
  6
ByBlock
 62
    0
100
AcDbTrace
 10
0
 20
-27
 30
0
 11
2.5
 21
-26.58371534222716
 31
0
 12
2.5
 22
-27.41628465777284
 32
0
 13
2.5
 23
-27.41628465777284
 33
0
  0
LINE
  5
195
100
AcDbEntity
  8
Dimensions_DieCut
  6
ByBlock
 62
    0
100
AcDbLine
 10
58.75
 20
7.375
 11
58.75
 21
-28.25
  0
LINE
  5
196
100
AcDbEntity
  8
Dimensions_DieCut
  6
ByBlock
 62
    0
100
AcDbLine
 10
-1.148068456708479e-16
 20
-0.625
 11
-2.296136913416957e-16
 21
-28.25
  0
ENDBLK
  5
B2
100
AcDbEntity
  8
0
100
AcDbBlockEnd
  0
BLOCK
  5
B4
100
AcDbEntity
  8
0
100
AcDbBlockBegin
  2
*D23
 70
    1
 10
0
 20
0
  3
*D23
  1

  0
SOLID
  5
197
100
AcDbEntity
  8
Dimensions
  6
ByBlock
 62
    0
100
AcDbTrace
 10
71.9435407081038
 20
32.78684372632485
 30
0
 11
70.42864282699584
 21
30.75500285506753
 31
0
 12
69.85197929731555
 22
31.35552832390701
 32
0
 13
69.85197929731555
 23
31.35552832390701
 33
0
  0
LINE
  5
198
100
AcDbEntity
  8
Dimensions
  6
ByBlock
 62
    0
100
AcDbLine
 10
75.55
 20
36.25
 11
60.92380398286529
 21
22.20497733453956
  0
MTEXT
  5
199
100
AcDbEntity
  8
Dimensions
  6
CONTINUOUS
 62
    0
100
AcDbMText
 10
65.13498874285635
 20
28.84833276489328
 30
0
 40
2.5
 41
10.27777777777793
 71
    5
 72
    1
  1
4-R5.0
  7
standard
210
0
220
0
230
1
 50
43.83875809168592
 73
    2
 44
1
  0
ENDBLK
  5
B5
100
AcDbEntity
  8
0
100
AcDbBlockEnd
  0
BLOCK
  5
B7
100
AcDbEntity
  8
0
100
AcDbBlockBegin
  2
*D18
 70
    1
 10
0
 20
0
  3
*D18
  1

  0
LINE
  5
19A
100
AcDbEntity
  8
Dimensions_DieCut
  6
ByBlock
 62
    0
100
AcDbLine
 10
62
 20
1.75
 11
62
 21
15.45
  0
MTEXT
  5
19B
100
AcDbEntity
  8
Dimensions_DieCut
  6
CONTINUOUS
 62
    0
100
AcDbMText
 10
60.125
 20
13.01944444444452
 30
0
 40
2.5
 41
3.888888888889044
 71
    5
 72
    1
  1
3.7
  7
standard
210
0
220
0
230
1
 50
90
 73
    2
 44
1
  0
SOLID
  5
19C
100
AcDbEntity
  8
Dimensions_DieCut
  6
ByBlock
 62
    0
100
AcDbTrace
 10
62
 20
6.75
 30
0
 11
62.41628465777284
 21
4.25
 31
0
 12
61.58371534222716
 22
4.25
 32
0
 13
61.58371534222716
 23
4.25
 33
0
  0
SOLID
  5
19D
100
AcDbEntity
  8
Dimensions_DieCut
  6
ByBlock
 62
    0
100
AcDbTrace
 10
62
 20
10.45
 30
0
 11
61.58371534222716
 21
12.95
 31
0
 12
62.41628465777284
 22
12.95
 32
0
 13
62.41628465777284
 23
12.95
 33
0
  0
LINE
  5
19E
100
AcDbEntity
  8
Dimensions_DieCut
  6
ByBlock
 62
    0
100
AcDbLine
 10
60.625
 20
6.75
 11
63.25
 21
6.75
  0
LINE
  5
19F
100
AcDbEntity
  8
Dimensions_DieCut
  6
ByBlock
 62
    0
100
AcDbLine
 10
60.625
 20
10.45
 11
63.25
 21
10.45
  0
ENDBLK
  5
B8
100
AcDbEntity
  8
0
100
AcDbBlockEnd
  0
BLOCK
  5
BA
100
AcDbEntity
  8
0
100
AcDbBlockBegin
  2
*D31
 70
    1
 10
0
 20
0
  3
*D31
  1

  0
LINE
  5
1A0
100
AcDbEntity
  8
Dimensions_DieCut
  6
ByBlock
 62
    0
100
AcDbLine
 10
-42.785
 20
-21
 11
0
 21
-21
  0
MTEXT
  5
1A1
100
AcDbEntity
  8
Dimensions_DieCut
  6
CONTINUOUS
 62
    0
100
AcDbMText
 10
-21.3925
 20
-19.125
 30
0
 40
2.5
 41
10.00000000000016
 71
    5
 72
    1
  1
42.785
  7
standard
210
0
220
0
230
1
 50
0
 73
    2
 44
1
  0
SOLID
  5
1A2
100
AcDbEntity
  8
Dimensions_DieCut
  6
ByBlock
 62
    0
100
AcDbTrace
 10
-42.785
 20
-21
 30
0
 11
-40.285
 21
-20.58371534222716
 31
0
 12
-40.285
 22
-21.41628465777284
 32
0
 13
-40.285
 23
-21.41628465777284
 33
0
  0
SOLID
  5
1A3
100
AcDbEntity
  8
Dimensions_DieCut
  6
ByBlock
 62
    0
100
AcDbTrace
 10
0
 20
-21
 30
0
 11
-2.5
 21
-21.41628465777284
 31
0
 12
-2.5
 22
-20.58371534222716
 32
0
 13
-2.5
 23
-20.58371534222716
 33
0
  0
LINE
  5
1A4
100
AcDbEntity
  8
Dimensions_DieCut
  6
ByBlock
 62
    0
100
AcDbLine
 10
-42.785
 20
7.35
 11
-42.785
 21
-22.25
  0
LINE
  5
1A5
100
AcDbEntity
  8
Dimensions_DieCut
  6
ByBlock
 62
    0
100
AcDbLine
 10
-1.148068456708479e-16
 20
-0.625
 11
-2.296136913416957e-16
 21
-22.25
  0
ENDBLK
  5
BB
100
AcDbEntity
  8
0
100
AcDbBlockEnd
  0
BLOCK
  5
BD
100
AcDbEntity
  8
0
100
AcDbBlockBegin
  2
*D33
 70
    1
 10
0
 20
0
  3
*D33
  1

  0
LINE
  5
1A6
100
AcDbEntity
  8
Dimensions_DieCut
  6
ByBlock
 62
    0
100
AcDbLine
 10
-49
 20
1.975
 11
-49
 21
13.975
  0
MTEXT
  5
1A7
100
AcDbEntity
  8
Dimensions_DieCut
  6
CONTINUOUS
 62
    0
100
AcDbMText
 10
-50.875
 20
7.975
 30
0
 40
2.5
 41
1.111111111111111
 71
    5
 72
    1
  1
2
  7
standard
210
0
220
0
230
1
 50
90
 73
    2
 44
1
  0
SOLID
  5
1A8
100
AcDbEntity
  8
Dimensions_DieCut
  6
ByBlock
 62
    0
100
AcDbTrace
 10
-49
 20
6.975
 30
0
 11
-48.58371534222716
 21
4.475
 31
0
 12
-49.41628465777284
 22
4.475
 32
0
 13
-49.41628465777284
 23
4.475
 33
0
  0
SOLID
  5
1A9
100
AcDbEntity
  8
Dimensions_DieCut
  6
ByBlock
 62
    0
100
AcDbTrace
 10
-49
 20
8.975
 30
0
 11
-49.41628465777284
 21
11.475
 31
0
 12
-48.58371534222716
 22
11.475
 32
0
 13
-48.58371534222716
 23
11.475
 33
0
  0
LINE
  5
1AA
100
AcDbEntity
  8
Dimensions_DieCut
  6
ByBlock
 62
    0
100
AcDbLine
 10
-52.11
 20
6.975
 11
-47.75
 21
6.975
  0
LINE
  5
1AB
100
AcDbEntity
  8
Dimensions_DieCut
  6
ByBlock
 62
    0
100
AcDbLine
 10
-52.11
 20
8.975
 11
-47.75
 21
8.975
  0
ENDBLK
  5
BE
100
AcDbEntity
  8
0
100
AcDbBlockEnd
  0
BLOCK
  5
C0
100
AcDbEntity
  8
0
100
AcDbBlockBegin
  2
*D14
 70
    1
 10
0
 20
0
  3
*D14
  1

  0
LINE
  5
1AC
100
AcDbEntity
  8
Dimensions_DieCut
  6
ByBlock
 62
    0
100
AcDbLine
 10
58.75
 20
-27
 11
68.25
 21
-27
  0
MTEXT
  5
1AD
100
AcDbEntity
  8
Dimensions_DieCut
  6
CONTINUOUS
 62
    0
100
AcDbMText
 10
63.5
 20
-25.125
 30
0
 40
2.5
 41
3.888888888889199
 71
    5
 72
    1
  1
9.5
  7
standard
210
0
220
0
230
1
 50
0
 73
    2
 44
1
  0
SOLID
  5
1AE
100
AcDbEntity
  8
Dimensions_DieCut
  6
ByBlock
 62
    0
100
AcDbTrace
 10
58.75
 20
-27
 30
0
 11
61.25
 21
-26.58371534222716
 31
0
 12
61.25
 22
-27.41628465777284
 32
0
 13
61.25
 23
-27.41628465777284
 33
0
  0
SOLID
  5
1AF
100
AcDbEntity
  8
Dimensions_DieCut
  6
ByBlock
 62
    0
100
AcDbTrace
 10
68.25
 20
-27
 30
0
 11
65.75
 21
-27.41628465777284
 31
0
 12
65.75
 22
-26.58371534222716
 32
0
 13
65.75
 23
-26.58371534222716
 33
0
  0
LINE
  5
1B0
100
AcDbEntity
  8
Dimensions_DieCut
  6
ByBlock
 62
    0
100
AcDbLine
 10
58.75
 20
7.375
 11
58.75
 21
-28.25
  0
LINE
  5
1B1
100
AcDbEntity
  8
Dimensions_DieCut
  6
ByBlock
 62
    0
100
AcDbLine
 10
68.25
 20
7.375
 11
68.25
 21
-28.25
  0
ENDBLK
  5
C1
100
AcDbEntity
  8
0
100
AcDbBlockEnd
  0
BLOCK
  5
C3
100
AcDbEntity
  8
0
100
AcDbBlockBegin
  2
*D35
 70
    1
 10
0
 20
0
  3
*D35
  1

  0
LINE
  5
1B2
100
AcDbEntity
  8
Dimensions_DieCut
  6
ByBlock
 62
    0
100
AcDbLine
 10
-63.5
 20
-27
 11
0
 21
-27
  0
MTEXT
  5
1B3
100
AcDbEntity
  8
Dimensions_DieCut
  6
CONTINUOUS
 62
    0
100
AcDbMText
 10
-31.75
 20
-25.125
 30
0
 40
2.5
 41
5.833333333333799
 71
    5
 72
    1
  1
63.5
  7
standard
210
0
220
0
230
1
 50
0
 73
    2
 44
1
  0
SOLID
  5
1B4
100
AcDbEntity
  8
Dimensions_DieCut
  6
ByBlock
 62
    0
100
AcDbTrace
 10
-63.5
 20
-27
 30
0
 11
-61
 21
-26.58371534222716
 31
0
 12
-61
 22
-27.41628465777284
 32
0
 13
-61
 23
-27.41628465777284
 33
0
  0
SOLID
  5
1B5
100
AcDbEntity
  8
Dimensions_DieCut
  6
ByBlock
 62
    0
100
AcDbTrace
 10
0
 20
-27
 30
0
 11
-2.5
 21
-27.41628465777284
 31
0
 12
-2.5
 22
-26.58371534222716
 32
0
 13
-2.5
 23
-26.58371534222716
 33
0
  0
LINE
  5
1B6
100
AcDbEntity
  8
Dimensions_DieCut
  6
ByBlock
 62
    0
100
AcDbLine
 10
-63.5
 20
6.725
 11
-63.5
 21
-28.25
  0
LINE
  5
1B7
100
AcDbEntity
  8
Dimensions_DieCut
  6
ByBlock
 62
    0
100
AcDbLine
 10
-1.148068456708479e-16
 20
-0.625
 11
-2.296136913416957e-16
 21
-28.25
  0
ENDBLK
  5
C4
100
AcDbEntity
  8
0
100
AcDbBlockEnd
  0
BLOCK
  5
C6
100
AcDbEntity
  8
0
100
AcDbBlockBegin
  2
RECT
 70
    0
 10
0
 20
0
  3
RECT
  1

  0
SOLID
  5
1B8
100
AcDbEntity
  8
0
  6
ByLayer
 62
  256
100
AcDbTrace
 10
-0.5
 20
-0.5
 30
0
 11
0.5
 21
-0.5
 31
0
 12
-0.5
 22
0.5
 32
0
 13
0.5
 23
0.5
 33
0
  0
ENDBLK
  5
C7
100
AcDbEntity
  8
0
100
AcDbBlockEnd
  0
BLOCK
  5
C9
100
AcDbEntity
  8
0
100
AcDbBlockBegin
  2
PIE
 70
    0
 10
0
 20
0
  3
PIE
  1

  0
CIRCLE
  5
1B9
100
AcDbEntity
  8
0
  6
ByLayer
 62
  256
100
AcDbCircle
 10
0
 20
0
 40
0.5
  0
ENDBLK
  5
CA
100
AcDbEntity
  8
0
100
AcDbBlockEnd
  0
BLOCK
  5
CC
100
AcDbEntity
  8
0
100
AcDbBlockBegin
  2
OCTAGONP
 70
    0
 10
0
 20
0
  3
OCTAGONP
  1

  0
LWPOLYLINE
  5
1BA
100
AcDbEntity
  8
0
  6
ByLayer
 62
  256
100
AcDbPolyline
 90
    8
 70
    1
 43
0
 10
-0.5
 20
-0.2071
 10
-0.5
 20
0.2071
 10
-0.2071
 20
0.5
 10
0.2071
 20
0.5
 10
0.5
 20
0.2071
 10
0.5
 20
-0.2071
 10
0.2071
 20
-0.5
 10
-0.2071
 20
-0.5
  0
ENDBLK
  5
CD
100
AcDbEntity
  8
0
100
AcDbBlockEnd
  0
BLOCK
  5
CF
100
AcDbEntity
  8
0
100
AcDbBlockBegin
  2
SQUAREP
 70
    0
 10
0
 20
0
  3
SQUAREP
  1

  0
SOLID
  5
1BB
100
AcDbEntity
  8
0
  6
ByLayer
 62
  256
100
AcDbTrace
 10
-0.5
 20
-0.5
 30
0
 11
0.5
 21
-0.5
 31
0
 12
-0.5
 22
0.5
 32
0
 13
0.5
 23
0.5
 33
0
  0
ENDBLK
  5
D0
100
AcDbEntity
  8
0
100
AcDbBlockEnd
  0
BLOCK
  5
D2
100
AcDbEntity
  8
0
100
AcDbBlockBegin
  2
ROUNDP
 70
    0
 10
0
 20
0
  3
ROUNDP
  1

  0
CIRCLE
  5
1BC
100
AcDbEntity
  8
0
  6
ByLayer
 62
  256
100
AcDbCircle
 10
0
 20
0
 40
0.5
  0
ENDBLK
  5
D3
100
AcDbEntity
  8
0
100
AcDbBlockEnd
  0
BLOCK
  5
D5
100
AcDbEntity
  8
0
100
AcDbBlockBegin
  2
ANNULUSP
 70
    0
 10
0
 20
0
  3
ANNULUSP
  1

  0
CIRCLE
  5
1BD
100
AcDbEntity
  8
0
  6
ByLayer
 62
  256
100
AcDbCircle
 10
0
 20
0
 40
0.5
  0
ENDBLK
  5
D6
100
AcDbEntity
  8
0
100
AcDbBlockEnd
  0
BLOCK
  5
D8
100
AcDbEntity
  8
0
100
AcDbBlockBegin
  2
THERMALP
 70
    0
 10
0
 20
0
  3
THERMALP
  1

  0
LINE
  5
1BE
100
AcDbEntity
  8
0
  6
ByLayer
 62
  256
100
AcDbLine
 10
-0.2379
 20
0.45
 11
0.2379
 21
0.45
  0
LINE
  5
1BF
100
AcDbEntity
  8
0
  6
ByLayer
 62
  256
100
AcDbLine
 10
0.45
 20
0.2379
 11
0.45
 21
-0.2379
  0
LINE
  5
1C0
100
AcDbEntity
  8
0
  6
ByLayer
 62
  256
100
AcDbLine
 10
0.2379
 20
-0.45
 11
-0.2379
 21
-0.45
  0
LINE
  5
1C1
100
AcDbEntity
  8
0
  6
ByLayer
 62
  256
100
AcDbLine
 10
-0.45
 20
-0.2379
 11
-0.45
 21
0.2379
  0
ENDBLK
  5
D9
100
AcDbEntity
  8
0
100
AcDbBlockEnd
  0
BLOCK
  5
DB
100
AcDbEntity
  8
0
100
AcDbBlockBegin
  2
OCTAGONV
 70
    0
 10
0
 20
0
  3
OCTAGONV
  1

  0
LWPOLYLINE
  5
1C2
100
AcDbEntity
  8
0
  6
ByLayer
 62
  256
100
AcDbPolyline
 90
    8
 70
    1
 43
0
 10
-0.5
 20
-0.2071
 10
-0.5
 20
0.2071
 10
-0.2071
 20
0.5
 10
0.2071
 20
0.5
 10
0.5
 20
0.2071
 10
0.5
 20
-0.2071
 10
0.2071
 20
-0.5
 10
-0.2071
 20
-0.5
  0
ENDBLK
  5
DC
100
AcDbEntity
  8
0
100
AcDbBlockEnd
  0
BLOCK
  5
DE
100
AcDbEntity
  8
0
100
AcDbBlockBegin
  2
SQUAREV
 70
    0
 10
0
 20
0
  3
SQUAREV
  1

  0
SOLID
  5
1C3
100
AcDbEntity
  8
0
  6
ByLayer
 62
  256
100
AcDbTrace
 10
-0.5
 20
-0.5
 30
0
 11
0.5
 21
-0.5
 31
0
 12
-0.5
 22
0.5
 32
0
 13
0.5
 23
0.5
 33
0
  0
ENDBLK
  5
DF
100
AcDbEntity
  8
0
100
AcDbBlockEnd
  0
BLOCK
  5
E1
100
AcDbEntity
  8
0
100
AcDbBlockBegin
  2
ROUNDV
 70
    0
 10
0
 20
0
  3
ROUNDV
  1

  0
CIRCLE
  5
1C4
100
AcDbEntity
  8
0
  6
ByLayer
 62
  256
100
AcDbCircle
 10
0
 20
0
 40
0.5
  0
ENDBLK
  5
E2
100
AcDbEntity
  8
0
100
AcDbBlockEnd
  0
BLOCK
  5
E4
100
AcDbEntity
  8
0
100
AcDbBlockBegin
  2
ANNULUSV
 70
    0
 10
0
 20
0
  3
ANNULUSV
  1

  0
CIRCLE
  5
1C5
100
AcDbEntity
  8
0
  6
ByLayer
 62
  256
100
AcDbCircle
 10
0
 20
0
 40
0.5
  0
ENDBLK
  5
E5
100
AcDbEntity
  8
0
100
AcDbBlockEnd
  0
BLOCK
  5
E7
100
AcDbEntity
  8
0
100
AcDbBlockBegin
  2
THERMALV
 70
    0
 10
0
 20
0
  3
THERMALV
  1

  0
LINE
  5
1C6
100
AcDbEntity
  8
0
  6
ByLayer
 62
  256
100
AcDbLine
 10
-0.2379
 20
0.45
 11
0.2379
 21
0.45
  0
LINE
  5
1C7
100
AcDbEntity
  8
0
  6
ByLayer
 62
  256
100
AcDbLine
 10
0.45
 20
0.2379
 11
0.45
 21
-0.2379
  0
LINE
  5
1C8
100
AcDbEntity
  8
0
  6
ByLayer
 62
  256
100
AcDbLine
 10
0.2379
 20
-0.45
 11
-0.2379
 21
-0.45
  0
LINE
  5
1C9
100
AcDbEntity
  8
0
  6
ByLayer
 62
  256
100
AcDbLine
 10
-0.45
 20
-0.2379
 11
-0.45
 21
0.2379
  0
ENDBLK
  5
E8
100
AcDbEntity
  8
0
100
AcDbBlockEnd
  0
ENDSEC
  0
SECTION
  2
ENTITIES
  0
ARC
  5
1CA
100
AcDbEntity
  8
0
  6
ByLayer
 62
  256
100
AcDbCircle
 10
-75.55
 20
36.25
 40
5
100
AcDbArc
 50
270
 51
0
  0
ARC
  5
1CB
100
AcDbEntity
  8
0
  6
ByLayer
 62
  256
100
AcDbCircle
 10
-75.55
 20
28.5
 40
2.75
100
AcDbArc
 50
90
 51
180
  0
LINE
  5
1CC
100
AcDbEntity
  8
0
  6
ByLayer
 62
  256
100
AcDbLine
 10
-78.3
 20
28.5
 11
-78.3
 21
10.5
  0
ARC
  5
1CD
100
AcDbEntity
  8
0
  6
ByLayer
 62
  256
100
AcDbCircle
 10
-75.55
 20
10.5
 40
2.75
100
AcDbArc
 50
180
 51
270
  0
ARC
  5
1CE
100
AcDbEntity
  8
0
  6
ByLayer
 62
  256
100
AcDbCircle
 10
-75.55
 20
2.75
 40
5
100
AcDbArc
 50
0
 51
90
  0
ARC
  5
1CF
100
AcDbEntity
  8
0
  6
ByLayer
 62
  256
100
AcDbCircle
 10
-67.8
 20
2.75
 40
2.75
100
AcDbArc
 50
180
 51
270
  0
ARC
  5
1D0
100
AcDbEntity
  8
0
  6
ByLayer
 62
  256
100
AcDbCircle
 10
67.8
 20
2.75
 40
2.75
100
AcDbArc
 50
270
 51
0
  0
ARC
  5
1D1
100
AcDbEntity
  8
0
  6
ByLayer
 62
  256
100
AcDbCircle
 10
75.55
 20
2.75
 40
5
100
AcDbArc
 50
90
 51
180
  0
ARC
  5
1D2
100
AcDbEntity
  8
0
  6
ByLayer
 62
  256
100
AcDbCircle
 10
75.55
 20
10.5
 40
2.75
100
AcDbArc
 50
270
 51
0
  0
LINE
  5
1D3
100
AcDbEntity
  8
0
  6
ByLayer
 62
  256
100
AcDbLine
 10
78.3
 20
10.5
 11
78.3
 21
28.5
  0
ARC
  5
1D4
100
AcDbEntity
  8
0
  6
ByLayer
 62
  256
100
AcDbCircle
 10
75.55
 20
28.5
 40
2.75
100
AcDbArc
 50
0
 51
90
  0
ARC
  5
1D5
100
AcDbEntity
  8
0
  6
ByLayer
 62
  256
100
AcDbCircle
 10
75.55
 20
36.25
 40
5
100
AcDbArc
 50
180
 51
270
  0
ARC
  5
1D6
100
AcDbEntity
  8
0
  6
ByLayer
 62
  256
100
AcDbCircle
 10
67.8
 20
36.25
 40
2.75
100
AcDbArc
 50
0
 51
90
  0
LINE
  5
1D7
100
AcDbEntity
  8
0
  6
ByLayer
 62
  256
100
AcDbLine
 10
67.8
 20
39
 11
-67.8
 21
39
  0
ARC
  5
1D8
100
AcDbEntity
  8
0
  6
ByLayer
 62
  256
100
AcDbCircle
 10
-67.8
 20
36.25
 40
2.75
100
AcDbArc
 50
90
 51
180
  0
LINE
  5
1D9
100
AcDbEntity
  8
0
  6
ByLayer
 62
  256
100
AcDbLine
 10
-14.71
 20
27.85
 11
14.71
 21
27.85
  0
ARC
  5
1DA
100
AcDbEntity
  8
0
  6
ByLayer
 62
  256
100
AcDbCircle
 10
-14.71
 20
26.85
 40
1
100
AcDbArc
 50
90
 51
180
  0
LINE
  5
1DB
100
AcDbEntity
  8
0
  6
ByLayer
 62
  256
100
AcDbLine
 10
-15.71
 20
12.15
 11
-15.71
 21
26.85
  0
ARC
  5
1DC
100
AcDbEntity
  8
0
  6
ByLayer
 62
  256
100
AcDbCircle
 10
-14.71
 20
12.15
 40
1
100
AcDbArc
 50
180
 51
270
  0
LINE
  5
1DD
100
AcDbEntity
  8
0
  6
ByLayer
 62
  256
100
AcDbLine
 10
14.71
 20
11.15
 11
-14.71
 21
11.15
  0
ARC
  5
1DE
100
AcDbEntity
  8
0
  6
ByLayer
 62
  256
100
AcDbCircle
 10
14.71
 20
12.15
 40
1
100
AcDbArc
 50
270
 51
0
  0
LINE
  5
1DF
100
AcDbEntity
  8
0
  6
ByLayer
 62
  256
100
AcDbLine
 10
15.71
 20
26.85
 11
15.71
 21
12.15
  0
ARC
  5
1E0
100
AcDbEntity
  8
0
  6
ByLayer
 62
  256
100
AcDbCircle
 10
14.71
 20
26.85
 40
1
100
AcDbArc
 50
0
 51
90
  0
LINE
  5
1E1
100
AcDbEntity
  8
0
  6
ByLayer
 62
  256
100
AcDbLine
 10
-52.735
 20
8.975
 11
-43.785
 21
8.975
  0
ARC
  5
1E2
100
AcDbEntity
  8
0
  6
ByLayer
 62
  256
100
AcDbCircle
 10
-52.735
 20
7.975
 40
1
100
AcDbArc
 50
180
 51
270
  0
ARC
  5
1E3
100
AcDbEntity
  8
0
  6
ByLayer
 62
  256
100
AcDbCircle
 10
-52.735
 20
7.975
 40
1
100
AcDbArc
 50
90
 51
180
  0
LINE
  5
1E4
100
AcDbEntity
  8
0
  6
ByLayer
 62
  256
100
AcDbLine
 10
-43.785
 20
6.975
 11
-52.735
 21
6.975
  0
ARC
  5
1E5
100
AcDbEntity
  8
0
  6
ByLayer
 62
  256
100
AcDbCircle
 10
-43.785
 20
7.975
 40
1
100
AcDbArc
 50
270
 51
0
  0
ARC
  5
1E6
100
AcDbEntity
  8
0
  6
ByLayer
 62
  256
100
AcDbCircle
 10
-43.785
 20
7.975
 40
1
100
AcDbArc
 50
0
 51
90
  0
ARC
  5
1E7
100
AcDbEntity
  8
0
  6
ByLayer
 62
  256
100
AcDbCircle
 10
-34.79
 20
7.5
 40
1
100
AcDbArc
 50
180
 51
270
  0
LINE
  5
1E8
100
AcDbEntity
  8
0
  6
ByLayer
 62
  256
100
AcDbLine
 10
-35.79
 20
7.5
 11
-35.79
 21
8.5
  0
ARC
  5
1E9
100
AcDbEntity
  8
0
  6
ByLayer
 62
  256
100
AcDbCircle
 10
-34.79
 20
8.5
 40
1
100
AcDbArc
 50
90
 51
180
  0
LINE
  5
1EA
100
AcDbEntity
  8
0
  6
ByLayer
 62
  256
100
AcDbLine
 10
-34.79
 20
9.5
 11
-21.09
 21
9.5
  0
ARC
  5
1EB
100
AcDbEntity
  8
0
  6
ByLayer
 62
  256
100
AcDbCircle
 10
-21.09
 20
8.5
 40
1
100
AcDbArc
 50
0
 51
90
  0
LINE
  5
1EC
100
AcDbEntity
  8
0
  6
ByLayer
 62
  256
100
AcDbLine
 10
-20.09
 20
8.5
 11
-20.09
 21
7.5
  0
ARC
  5
1ED
100
AcDbEntity
  8
0
  6
ByLayer
 62
  256
100
AcDbCircle
 10
-21.09
 20
7.5
 40
1
100
AcDbArc
 50
270
 51
0
  0
LINE
  5
1EE
100
AcDbEntity
  8
0
  6
ByLayer
 62
  256
100
AcDbLine
 10
-21.09
 20
6.5
 11
-34.79
 21
6.5
  0
LINE
  5
1EF
100
AcDbEntity
  8
0
  6
ByLayer
 62
  256
100
AcDbLine
 10
34.6
 20
10.45
 11
41.6
 21
10.45
  0
ARC
  5
1F0
100
AcDbEntity
  8
0
  6
ByLayer
 62
  256
100
AcDbCircle
 10
34.6
 20
9.199999999999999
 40
1.25
100
AcDbArc
 50
90
 51
180
  0
LINE
  5
1F1
100
AcDbEntity
  8
0
  6
ByLayer
 62
  256
100
AcDbLine
 10
33.35
 20
8
 11
33.35
 21
9.199999999999999
  0
ARC
  5
1F2
100
AcDbEntity
  8
0
  6
ByLayer
 62
  256
100
AcDbCircle
 10
34.6
 20
8
 40
1.25
100
AcDbArc
 50
180
 51
270
  0
LINE
  5
1F3
100
AcDbEntity
  8
0
  6
ByLayer
 62
  256
100
AcDbLine
 10
41.6
 20
6.75
 11
34.6
 21
6.75
  0
ARC
  5
1F4
100
AcDbEntity
  8
0
  6
ByLayer
 62
  256
100
AcDbCircle
 10
41.6
 20
8
 40
1.25
100
AcDbArc
 50
270
 51
0
  0
LINE
  5
1F5
100
AcDbEntity
  8
0
  6
ByLayer
 62
  256
100
AcDbLine
 10
42.85
 20
9.199999999999999
 11
42.85
 21
8
  0
ARC
  5
1F6
100
AcDbEntity
  8
0
  6
ByLayer
 62
  256
100
AcDbCircle
 10
41.6
 20
9.199999999999999
 40
1.25
100
AcDbArc
 50
0
 51
90
  0
LINE
  5
1F7
100
AcDbEntity
  8
0
  6
ByLayer
 62
  256
100
AcDbLine
 10
60
 20
10.45
 11
67
 21
10.45
  0
ARC
  5
1F8
100
AcDbEntity
  8
0
  6
ByLayer
 62
  256
100
AcDbCircle
 10
60
 20
9.199999999999999
 40
1.25
100
AcDbArc
 50
90
 51
180
  0
LINE
  5
1F9
100
AcDbEntity
  8
0
  6
ByLayer
 62
  256
100
AcDbLine
 10
58.75
 20
8
 11
58.75
 21
9.199999999999999
  0
ARC
  5
1FA
100
AcDbEntity
  8
0
  6
ByLayer
 62
  256
100
AcDbCircle
 10
60
 20
8
 40
1.25
100
AcDbArc
 50
180
 51
270
  0
LINE
  5
1FB
100
AcDbEntity
  8
0
  6
ByLayer
 62
  256
100
AcDbLine
 10
67
 20
6.75
 11
60
 21
6.75
  0
ARC
  5
1FC
100
AcDbEntity
  8
0
  6
ByLayer
 62
  256
100
AcDbCircle
 10
67
 20
8
 40
1.25
100
AcDbArc
 50
270
 51
0
  0
LINE
  5
1FD
100
AcDbEntity
  8
0
  6
ByLayer
 62
  256
100
AcDbLine
 10
68.25
 20
9.199999999999999
 11
68.25
 21
8
  0
ARC
  5
1FE
100
AcDbEntity
  8
0
  6
ByLayer
 62
  256
100
AcDbCircle
 10
67
 20
9.199999999999999
 40
1.25
100
AcDbArc
 50
0
 51
90
  0
LINE
  5
1FF
100
AcDbEntity
  8
0
  6
ByLayer
 62
  256
100
AcDbLine
 10
-67.8
 20
0
 11
67.8
 21
0
  0
DIMENSION
  5
200
100
AcDbEntity
  8
Dimensions
  6
ByLayer
 62
  256
100
AcDbDimension
  2
*D1
 10
67.8
 20
50
 30
0
 11
1.148068456708479e-16
 21
51.875
 31
0
 70
   32
 71
    5
 72
    0
  3
Standard
 53
0
210
0
220
0
230
1
100
AcDbAlignedDimension
 13
-67.8
 23
39
 33
0
 14
67.8
 24
39
 34
0
100
AcDbRotatedDimension
  0
DIMENSION
  5
201
100
AcDbEntity
  8
Dimensions
  6
ByLayer
 62
  256
100
AcDbDimension
  2
*D2
 10
90
 20
28.5
 30
0
 11
88.125
 21
19.5
 31
0
 70
   32
 71
    5
 72
    0
  3
Standard
 53
0
210
0
220
0
230
1
100
AcDbAlignedDimension
 13
78.3
 23
10.5
 33
0
 14
78.3
 24
28.5
 34
0
 50
90
100
AcDbRotatedDimension
  0
DIMENSION
  5
202
100
AcDbEntity
  8
Dimensions_Window
  6
ByLayer
 62
  256
100
AcDbDimension
  2
*D3
 10
-6.123031769111885e-16
 20
-9.999999999999998
 30
0
 11
7.855
 21
-8.124999999999998
 31
0
 70
   32
 71
    5
 72
    0
  3
Standard
 53
0
210
0
220
0
230
1
100
AcDbAlignedDimension
 13
15.71
 23
12.15
 33
0
 14
0
 24
0
 34
0
100
AcDbRotatedDimension
  0
DIMENSION
  5
203
100
AcDbEntity
  8
Dimensions_Window
  6
ByLayer
 62
  256
100
AcDbDimension
  2
*D4
 10
-6.123031769111886e-16
 20
-10
 30
0
 11
-7.855
 21
-8.125
 31
0
 70
   32
 71
    5
 72
    0
  3
Standard
 53
0
210
0
220
0
230
1
100
AcDbAlignedDimension
 13
-15.71
 23
12.15
 33
0
 14
0
 24
0
 34
0
100
AcDbRotatedDimension
  0
DIMENSION
  5
204
100
AcDbEntity
  8
Dimensions_Window
  6
ByLayer
 62
  256
100
AcDbDimension
  2
*D5
 10
10
 20
4.898425415289509e-16
 30
0
 11
8.125
 21
5.575
 31
0
 70
   32
 71
    5
 72
    0
  3
Standard
 53
0
210
0
220
0
230
1
100
AcDbAlignedDimension
 13
14.71
 23
11.15
 33
0
 14
14
 24
0
 34
0
 50
90
100
AcDbRotatedDimension
  0
DIMENSION
  5
205
100
AcDbEntity
  8
Dimensions_Window
  6
ByLayer
 62
  256
100
AcDbDimension
  2
*D6
 10
10
 20
27.85
 30
0
 11
8.125000000000004
 21
19.5
 31
0
 70
   32
 71
    5
 72
    0
  3
Standard
 53
0
210
0
220
0
230
1
100
AcDbAlignedDimension
 13
14.71
 23
11.15
 33
0
 14
14.71
 24
27.85
 34
0
 50
90
100
AcDbRotatedDimension
  0
DIMENSION
  5
206
100
AcDbEntity
  8
Dimensions_Window
  6
ByLayer
 62
  256
100
AcDbDimension
  2
*D7
 10
14.71
 20
26.85
 30
0
 11
19.39301372168448
 21
34.02587531210379
 31
0
 70
   36
  1
4-R1.0
 71
    5
 72
    0
  3
Standard
 53
0
210
0
220
0
230
1
100
AcDbRadialDimension
 15
15.42652463366255
 25
27.54756178891533
 35
0
 40
0
  0
CIRCLE
  5
207
100
AcDbEntity
  8
0
  6
ByLayer
 62
  256
100
AcDbCircle
 10
50.8
 20
11.05
 40
2
  0
CIRCLE
  5
208
100
AcDbEntity
  8
0
  6
ByLayer
 62
  256
100
AcDbCircle
 10
-63.5
 20
10.1
 40
2.75
  0
CIRCLE
  5
209
100
AcDbEntity
  8
0
  6
ByLayer
 62
  256
100
AcDbCircle
 10
25.4
 20
11.05
 40
2
  0
DIMENSION
  5
20A
100
AcDbEntity
  8
Dimensions_DieCut
  6
ByLayer
 62
  256
100
AcDbDimension
  2
*D8
 10
-9.184547653667829e-16
 20
-15
 30
0
 11
12.7
 21
-13.125
 31
0
 70
   32
 71
    5
 72
    0
  3
Standard
 53
0
210
0
220
0
230
1
100
AcDbAlignedDimension
 13
25.4
 23
9.050000000000001
 33
0
 14
0
 24
0
 34
0
100
AcDbRotatedDimension
  0
DIMENSION
  5
20B
100
AcDbEntity
  8
Dimensions_DieCut
  6
ByLayer
 62
  256
100
AcDbDimension
  2
*D9
 10
30
 20
-3.673819061467132e-16
 30
0
 11
28.125
 21
5.525
 31
0
 70
   32
 71
    5
  3
Standard
 53
0
210
0
220
0
230
1
100
AcDbAlignedDimension
 13
27.4
 23
11.05
 33
0
 14
27
 24
0
 34
0
 50
90
100
AcDbRotatedDimension
  0
DIMENSION
  5
20C
100
AcDbEntity
  8
Dimensions_DieCut
  6
ByLayer
 62
  256
100
AcDbDimension
  2
*D10
 10
56
 20
-4.898425415289509e-16
 30
0
 11
54.125
 21
5.525
 31
0
 70
   32
 71
    5
  3
Standard
 53
0
210
0
220
0
230
1
100
AcDbAlignedDimension
 13
52.8
 23
11.05
 33
0
 14
52
 24
0
 34
0
 50
90
100
AcDbRotatedDimension
  0
DIMENSION
  5
20D
100
AcDbEntity
  8
Dimensions_DieCut
  6
ByLayer
 62
  256
100
AcDbDimension
  2
*D11
 10
-1.285836671513496e-15
 20
-21
 30
0
 11
16.675
 21
-19.125
 31
0
 70
   32
 71
    5
  3
Standard
 53
0
210
0
220
0
230
1
100
AcDbAlignedDimension
 13
33.35
 23
8
 33
0
 14
0
 24
0
 34
0
100
AcDbRotatedDimension
  0
DIMENSION
  5
20E
100
AcDbEntity
  8
Dimensions_DieCut
  6
ByLayer
 62
  256
100
AcDbDimension
  2
*D12
 10
42.85
 20
-21
 30
0
 11
38.1
 21
-19.125
 31
0
 70
   32
 71
    5
  3
Standard
 53
0
210
0
220
0
230
1
100
AcDbAlignedDimension
 13
33.35
 23
8
 33
0
 14
42.85
 24
8
 34
0
100
AcDbRotatedDimension
  0
DIMENSION
  5
20F
100
AcDbEntity
  8
Dimensions_DieCut
  6
ByLayer
 62
  256
100
AcDbDimension
  2
*D13
 10
-1.653218577660209e-15
 20
-27
 30
0
 11
29.375
 21
-25.125
 31
0
 70
   32
 71
    5
  3
Standard
 53
0
210
0
220
0
230
1
100
AcDbAlignedDimension
 13
58.75
 23
8
 33
0
 14
0
 24
0
 34
0
100
AcDbRotatedDimension
  0
DIMENSION
  5
210
100
AcDbEntity
  8
Dimensions_DieCut
  6
ByLayer
 62
  256
100
AcDbDimension
  2
*D14
 10
68.25
 20
-27
 30
0
 11
63.5
 21
-25.125
 31
0
 70
   32
 71
    5
  3
Standard
 53
0
210
0
220
0
230
1
100
AcDbAlignedDimension
 13
58.75
 23
8
 33
0
 14
68.25
 24
8
 34
0
100
AcDbRotatedDimension
  0
DIMENSION
  5
211
100
AcDbEntity
  8
Dimensions_DieCut
  6
ByLayer
 62
  256
100
AcDbDimension
  2
*D15
 10
40
 20
1.224606353822377e-16
 30
0
 11
38.125
 21
3.375
 31
0
 70
   32
 71
    5
  3
Standard
 53
0
210
0
220
0
230
1
100
AcDbAlignedDimension
 13
41.6
 23
6.75
 33
0
 14
41
 24
0
 34
0
 50
90
100
AcDbRotatedDimension
  0
DIMENSION
  5
212
100
AcDbEntity
  8
Dimensions_DieCut
  6
ByLayer
 62
  256
100
AcDbDimension
  2
*D16
 10
66
 20
1.224606353822377e-16
 30
0
 11
64.125
 21
3.375
 31
0
 70
   32
 71
    5
  3
Standard
 53
0
210
0
220
0
230
1
100
AcDbAlignedDimension
 13
67
 23
6.75
 33
0
 14
67
 24
0
 34
0
 50
90
100
AcDbRotatedDimension
  0
DIMENSION
  5
213
100
AcDbEntity
  8
Dimensions_DieCut
  6
ByLayer
 62
  256
100
AcDbDimension
  2
*D17
 10
36
 20
10.45
 30
0
 11
34.125
 21
8.6
 31
0
 70
   32
 71
    5
  3
Standard
 53
0
210
0
220
0
230
1
100
AcDbAlignedDimension
 13
34.6
 23
6.75
 33
0
 14
34.6
 24
10.45
 34
0
 50
90
100
AcDbRotatedDimension
  0
DIMENSION
  5
214
100
AcDbEntity
  8
Dimensions_DieCut
  6
ByLayer
 62
  256
100
AcDbDimension
  2
*D18
 10
62
 20
10.45
 30
0
 11
60.125
 21
8.6
 31
0
 70
   32
 71
    5
  3
Standard
 53
0
210
0
220
0
230
1
100
AcDbAlignedDimension
 13
60
 23
6.75
 33
0
 14
60
 24
10.45
 34
0
 50
90
100
AcDbRotatedDimension
  0
DIMENSION
  5
215
100
AcDbEntity
  8
Dimensions_DieCut
  6
ByLayer
 62
  256
100
AcDbDimension
  2
*D19
 10
24.05279282319203
 20
9.57181434766904
 30
0
 11
24.01420095093972
 21
12.31300672825747
 31
0
 70
   35
 71
    5
  3
Standard
 53
0
210
0
220
0
230
1
100
AcDbDiametricDimension
 15
26.74720717680797
 25
12.52818565233096
 35
0
 40
0
  0
DIMENSION
  5
216
100
AcDbEntity
  8
Dimensions_DieCut
  6
ByLayer
 62
  256
100
AcDbDimension
  2
*D20
 10
49.32951253751481
 20
9.694394370521472
 30
0
 11
49.52911972236388
 21
12.42858199607986
 31
0
 70
   35
 71
    5
  3
Standard
 53
0
210
0
220
0
230
1
100
AcDbDiametricDimension
 15
52.27048746248519
 25
12.40560562947853
 35
0
 40
0
  0
DIMENSION
  5
217
100
AcDbEntity
  8
Dimensions_DieCut
  6
ByLayer
 62
  256
100
AcDbDimension
  2
*D21
 10
41.6
 20
9.199999999999999
 30
0
 11
46.592789940393
 21
17.59213628278818
 31
0
 70
   36
  1
4-R1.25
 71
    5
  3
Standard
 53
0
210
0
220
0
230
1
100
AcDbRadialDimension
 15
42.43349357433728
 25
10.13155164190637
 35
0
 40
0
  0
DIMENSION
  5
218
100
AcDbEntity
  8
Dimensions_DieCut
  6
ByLayer
 62
  256
100
AcDbDimension
  2
*D22
 10
67
 20
9.199999999999999
 30
0
 11
72.65650599752315
 21
17.15988961467205
 31
0
 70
   36
  1
4-R1.25
 71
    5
  3
Standard
 53
0
210
0
220
0
230
1
100
AcDbRadialDimension
 15
67.90624929199302
 25
10.06093682739337
 35
0
 40
0
  0
DIMENSION
  5
219
100
AcDbEntity
  8
Dimensions
  6
ByLayer
 62
  256
100
AcDbDimension
  2
*D23
 10
75.55
 20
36.25
 30
0
 11
65.13498874285635
 21
28.84833276489328
 31
0
 70
   36
  1
4-R5.0
 71
    5
 72
    0
  3
Standard
 53
0
210
0
220
0
230
1
100
AcDbRadialDimension
 15
71.9435407081038
 25
32.78684372632485
 35
0
 40
0
  0
DIMENSION
  5
21A
100
AcDbEntity
  8
Dimensions
  6
ByLayer
 62
  256
100
AcDbDimension
  2
*D24
 10
67.8
 20
36.25
 30
0
 11
73.34633762707179
 21
46.18438652013639
 31
0
 70
   36
  1
8-R2.75
 71
    5
 72
    0
  3
Standard
 53
0
210
0
220
0
230
1
100
AcDbRadialDimension
 15
69.51791138077466
 25
38.39738922596833
 35
0
 40
0
  0
DIMENSION
  5
21B
100
AcDbEntity
  8
Dimensions_DieCut
  6
ByLayer
 62
  256
100
AcDbDimension
  2
*D25
 10
-9.184547653667829e-16
 20
-15
 30
0
 11
-10.045
 21
-13.125
 31
0
 70
   32
 71
    5
  3
Standard
 53
0
210
0
220
0
230
1
100
AcDbAlignedDimension
 13
-20.09
 23
7.5
 33
0
 14
0
 24
0
 34
0
100
AcDbRotatedDimension
  0
DIMENSION
  5
21C
100
AcDbEntity
  8
Dimensions_DieCut
  6
ByLayer
 62
  256
100
AcDbDimension
  2
*D26
 10
-20.09
 20
-15
 30
0
 11
-27.94
 21
-13.125
 31
0
 70
   32
 71
    5
  3
Standard
 53
0
210
0
220
0
230
1
100
AcDbAlignedDimension
 13
-35.79
 23
7.5
 33
0
 14
-20.09
 24
7.5
 34
0
100
AcDbRotatedDimension
  0
DIMENSION
  5
21D
100
AcDbEntity
  8
Dimensions_DieCut
  6
ByLayer
 62
  256
100
AcDbDimension
  2
*D27
 10
-23
 20
2.449212707644755e-16
 30
0
 11
-24.875
 21
3.25
 31
0
 70
   32
 71
    5
  3
Standard
 53
0
210
0
220
0
230
1
100
AcDbAlignedDimension
 13
-21.09
 23
6.5
 33
0
 14
-21
 24
0
 34
0
 50
90
100
AcDbRotatedDimension
  0
DIMENSION
  5
21E
100
AcDbEntity
  8
Dimensions_DieCut
  6
ByLayer
 62
  256
100
AcDbDimension
  2
*D28
 10
-31
 20
9.5
 30
0
 11
-32.875
 21
8
 31
0
 70
   32
 71
    5
  3
Standard
 53
0
210
0
220
0
230
1
100
AcDbAlignedDimension
 13
-34.79
 23
6.5
 33
0
 14
-34.79
 24
9.5
 34
0
 50
90
100
AcDbRotatedDimension
  0
DIMENSION
  5
21F
100
AcDbEntity
  8
Dimensions_DieCut
  6
ByLayer
 62
  256
100
AcDbDimension
  2
*D29
 10
-34.79
 20
8.5
 30
0
 11
-39.05956678189454
 21
15.92930706777478
 31
0
 70
   36
  1
4-R1.0
 71
    5
  3
Standard
 53
0
210
0
220
0
230
1
100
AcDbRadialDimension
 15
-35.46591530675069
 25
9.236979306425983
 35
0
 40
0
  0
DIMENSION
  5
220
100
AcDbEntity
  8
Dimensions_DieCut
  6
ByLayer
 62
  256
100
AcDbDimension
  2
*D30
 10
-53.735
 20
-21
 30
0
 11
-48.26
 21
-19.125
 31
0
 70
   32
 71
    5
  3
Standard
 53
0
210
0
220
0
230
1
100
AcDbAlignedDimension
 13
-42.785
 23
7.975
 33
0
 14
-53.735
 24
7.975
 34
0
100
AcDbRotatedDimension
  0
DIMENSION
  5
221
100
AcDbEntity
  8
Dimensions_DieCut
  6
ByLayer
 62
  256
100
AcDbDimension
  2
*D31
 10
-1.285836671513496e-15
 20
-21
 30
0
 11
-21.3925
 21
-19.125
 31
0
 70
   32
 71
    5
  3
Standard
 53
0
210
0
220
0
230
1
100
AcDbAlignedDimension
 13
-42.785
 23
7.975
 33
0
 14
0
 24
0
 34
0
100
AcDbRotatedDimension
  0
DIMENSION
  5
222
100
AcDbEntity
  8
Dimensions_DieCut
  6
ByLayer
 62
  256
100
AcDbDimension
  2
*D32
 10
-44
 20
0
 30
0
 11
-45.875
 21
3.4875
 31
0
 70
   32
 71
    5
  3
Standard
 53
0
210
0
220
0
230
1
100
AcDbAlignedDimension
 13
-43.785
 23
6.975
 33
0
 14
-44
 24
0
 34
0
 50
90
100
AcDbRotatedDimension
  0
DIMENSION
  5
223
100
AcDbEntity
  8
Dimensions_DieCut
  6
ByLayer
 62
  256
100
AcDbDimension
  2
*D33
 10
-49
 20
8.975
 30
0
 11
-50.875
 21
7.975
 31
0
 70
   32
 71
    5
  3
Standard
 53
0
210
0
220
0
230
1
100
AcDbAlignedDimension
 13
-52.735
 23
6.975
 33
0
 14
-52.735
 24
8.975
 34
0
 50
90
100
AcDbRotatedDimension
  0
DIMENSION
  5
224
100
AcDbEntity
  8
Dimensions_DieCut
  6
ByLayer
 62
  256
100
AcDbDimension
  2
*D34
 10
-52.735
 20
7.975
 30
0
 11
-54.5001049814065
 21
16.22151245534856
 31
0
 70
   36
  1
2-R1.0
 71
    5
  3
Standard
 53
0
210
0
220
0
230
1
100
AcDbRadialDimension
 15
-53.15647158117942
 25
8.88184161034776
 35
0
 40
0
  0
DIMENSION
  5
225
100
AcDbEntity
  8
Dimensions_DieCut
  6
ByLayer
 62
  256
100
AcDbDimension
  2
*D35
 10
-1.653218577660209e-15
 20
-27
 30
0
 11
-31.75
 21
-25.125
 31
0
 70
   32
 71
    5
  3
Standard
 53
0
210
0
220
0
230
1
100
AcDbAlignedDimension
 13
-63.5
 23
7.35
 33
0
 14
0
 24
0
 34
0
100
AcDbRotatedDimension
  0
DIMENSION
  5
226
100
AcDbEntity
  8
Dimensions_DieCut
  6
ByLayer
 62
  256
100
AcDbDimension
  2
*D36
 10
-58
 20
-3.673819061467132e-16
 30
0
 11
-59.875
 21
5.05
 31
0
 70
   32
 71
    5
  3
Standard
 53
0
210
0
220
0
230
1
100
AcDbAlignedDimension
 13
-60.75
 23
10.1
 33
0
 14
-61
 24
0
 34
0
 50
90
100
AcDbRotatedDimension
  0
DIMENSION
  5
227
100
AcDbEntity
  8
Dimensions_DieCut
  6
ByLayer
 62
  256
100
AcDbDimension
  2
*D37
 10
-65.16773523379025
 20
7.913413804586114
 30
0
 11
-64.99085422414583
 21
11.23709220485699
 31
0
 70
   35
 71
    5
  3
Standard
 53
0
210
0
220
0
230
1
100
AcDbDiametricDimension
 15
-61.83226476620975
 25
12.28658619541389
 35
0
 40
0
  0
DIMENSION
  5
228
100
AcDbEntity
  8
Dimensions
  6
ByLayer
 62
  256
100
AcDbDimension
  2
*D38
 10
78.3
 20
55
 30
0
 11
1.148068456708479e-16
 21
56.875
 31
0
 70
   32
  1
156.6 %%P 0.2mm
 71
    5
 72
    0
  3
Standard
 53
0
210
0
220
0
230
1
100
AcDbAlignedDimension
 13
-78.3
 23
28.5
 33
0
 14
78.3
 24
28.5
 34
0
100
AcDbRotatedDimension
  0
DIMENSION
  5
229
100
AcDbEntity
  8
Dimensions
  6
ByLayer
 62
  256
100
AcDbDimension
  2
*D39
 10
95
 20
-3.330929282396866e-15
 30
0
 11
93.125
 21
19.5
 31
0
 70
   32
  1
39.0 %%P 0.2mm
 71
    5
 72
    0
  3
Standard
 53
0
210
0
220
0
230
1
100
AcDbAlignedDimension
 13
67.8
 23
39
 33
0
 14
67.8
 24
0
 34
0
 50
90
100
AcDbRotatedDimension
  0
ENDSEC
  0
SECTION
  2
OBJECTS
  0
DICTIONARY
  5
C
100
AcDbDictionary
281
    1
  3
ACAD_GROUP
350
D
  0
DICTIONARY
  5
D
330
C
100
AcDbDictionary
281
    1
  0
PLOTSETTINGS
  5
22A
100
AcDbPlotSettings
  6
1x1
 40
0
 41
0
 42
0
 43
0
  0
ENDSEC
  0
EOF
